/* XPM */
static char * Abwehr_26_xpm[] = {
"41 26 172 2",
"  	c None",
". 	c #4E4E5A",
"+ 	c #566A7E",
"@ 	c #A2AEBA",
"# 	c #BE2222",
"$ 	c #9EA2B6",
"% 	c #8696A6",
"& 	c #5E626E",
"* 	c #768696",
"= 	c #626672",
"- 	c #EEB6B6",
"; 	c #DA6A6A",
"> 	c #667A8E",
", 	c #D63E3E",
"' 	c #C65656",
") 	c #C2CAD2",
"! 	c #DA2626",
"~ 	c #E68282",
"{ 	c #6E7282",
"] 	c #C2BAC2",
"^ 	c #EADADA",
"/ 	c #8E9EAA",
"( 	c #B6C2CA",
"_ 	c #828696",
": 	c #7A7E8A",
"< 	c #CE1A1A",
"[ 	c #666A76",
"} 	c #46525E",
"| 	c #E68A8A",
"1 	c #B2BAC6",
"2 	c #EA1E22",
"3 	c #868A9A",
"4 	c #9AAABA",
"5 	c #4A5662",
"6 	c #767A8A",
"7 	c #E6EAEE",
"8 	c #E21212",
"9 	c #5E7286",
"0 	c #667E8E",
"a 	c #DEE2EA",
"b 	c #66727E",
"c 	c #E29A9E",
"d 	c #96A6B2",
"e 	c #E2BABA",
"f 	c #969AAA",
"g 	c #9A8692",
"h 	c #D65656",
"i 	c #526272",
"j 	c #DE5252",
"k 	c #8292A2",
"l 	c #626E7E",
"m 	c #7A8EA2",
"n 	c #A6B6C2",
"o 	c #DA6262",
"p 	c #D63636",
"q 	c #5E6A76",
"r 	c #EA0A0A",
"s 	c #6A7E92",
"t 	c #8E92A2",
"u 	c #6A8292",
"v 	c #92A2B2",
"w 	c #7E8A9E",
"x 	c #9296A6",
"y 	c #F6F2F2",
"z 	c #9EA6B2",
"A 	c #5A6E82",
"B 	c #768296",
"C 	c #5A6676",
"D 	c #9A9EB2",
"E 	c #6E8296",
"F 	c #727682",
"G 	c #728A9E",
"H 	c #D62E2E",
"I 	c #828E9E",
"J 	c #EAA2A2",
"K 	c #868E9E",
"L 	c #B2B6C2",
"M 	c #5E6E7E",
"N 	c #E25E5E",
"O 	c #DE2A2A",
"P 	c #8A9AA6",
"Q 	c #7A8292",
"R 	c #8A92A2",
"S 	c #A6B2BE",
"T 	c #667286",
"U 	c #767E8A",
"V 	c #8A96A6",
"W 	c #728296",
"X 	c #6A6E7A",
"Y 	c #BAC2CE",
"Z 	c #F20A0A",
"` 	c #6E7E8E",
" .	c #B2BECA",
"..	c #9EAAB6",
"+.	c #56667E",
"@.	c #96A2AE",
"#.	c #5A6A82",
"$.	c #6E7A8E",
"%.	c #627286",
"&.	c #767686",
"*.	c #7A8A9E",
"=.	c #828292",
"-.	c #BEC6CE",
";.	c #A6AEBA",
">.	c #929EAA",
",.	c #66768A",
"'.	c #62768E",
").	c #8692A6",
"!.	c #EA0E0A",
"~.	c #6E768A",
"{.	c #9AA6B2",
"].	c #5E6676",
"^.	c #EADEDE",
"/.	c #E21616",
"(.	c #8A8E9E",
"_.	c #767E92",
":.	c #566A82",
"<.	c #5E6E86",
"[.	c #929EAE",
"}.	c #7A8696",
"|.	c #6A7A8E",
"1.	c #7E7E8E",
"2.	c #DA4242",
"3.	c #C2CED2",
"4.	c #EA2222",
"5.	c #DA5A5A",
"6.	c #DE6666",
"7.	c #E22E2E",
"8.	c #8E96A6",
"9.	c #727E8E",
"0.	c #A2AABA",
"a.	c #6A6A7A",
"b.	c #7E8E9E",
"c.	c #7E8292",
"d.	c #727686",
"e.	c #A2A6BA",
"f.	c #566272",
"g.	c #AAB6C6",
"h.	c #768A9E",
"i.	c #B6BEC6",
"j.	c #EE0E0A",
"k.	c #76869A",
"l.	c #8292A6",
"m.	c #DE6A6A",
"n.	c #EEDADA",
"o.	c #E69A9A",
"p.	c #BEC2CE",
"q.	c #5A6E86",
"r.	c #8A96AA",
"s.	c #96A2B2",
"t.	c #9EAABA",
"u.	c #62728A",
"v.	c #66768E",
"w.	c #929EB2",
"x.	c #6A7A92",
"y.	c #6E829A",
"z.	c #82869A",
"A.	c #6E7E92",
"B.	c #A2AEBE",
"C.	c #9AA6B6",
"D.	c #969AAE",
"E.	c #8A9AAA",
"F.	c #A6B2C2",
"G.	c #6A6E7E",
"H.	c #A6AEBE",
"I.	c #8A8EA2",
"J.	c #8E9EAE",
"K.	c #7A7E8E",
"L.	c #96A6B6",
"M.	c #8E92A6",
"N.	c #EA0E0E",
"O.	c #B6BECA",
"                                                                                  ",
"                    h 2.H                   % I                                   ",
"                8 j o.| o ' g z s.          / w                                   ",
"              r 7.J - m.    ] 1 @.A.      @ @.b.W                                 ",
"              4.O 6.N p     7 3.[.> :.    L {.).W                                 ",
"              ~ 5., !       a -.[.A.:.  -.O.0.8.k.|.                              ",
"              ^ e ; /.N.      i.P W v   ) ( ;.>.w A.u.                            ",
"                ^.c 2 Z !.    1 C.n 1 v s.@ S d k W u.                            ",
"                y n.  j.8     p.B. .Y F.w.% ....V * v.:.                          ",
"                        < #     g.F.4 4 v r.l.@ [.b.A.q.:.                        ",
"                                g.t.).[.[.v h.;.s.k _.%.:.                        ",
"                                t.4 J.k * v.  H.C.E.k.,.#.+                       ",
"                                  4 L.l.x.<.    C.>.b.|.A +                       ",
"                                  9.E.l.E 9       [.% W 9 +.                      ",
"                                  q _.k.%.i 5       V B '.q.+.                    ",
"                                  }.b f.f.C l       V *.|.q.:.                    ",
"                                  m M } C T $._.      I W 9 :.+.                  ",
"                                h.k.s ].C ~._.c.c.      W ,.#.:.                  ",
"                              W * K K U [ { &.c._         |.A +                   ",
"                          E       x 3 F [   a.Q _         |.<.:.+.                ",
"                      E |.        D.K.X [   =.(.1.          <.:.:.                ",
"                  G E s       $ e.t F =     f z.6             +.:.+               ",
"                u ` r.R 3 I.(.3 _ 6 & &   f M.1.                                  ",
"            y.E 0   D 3 6 d.{ { d.d.      _ : F                                   ",
"                      F X                     G.{                                 ",
"                      .                                                           "};
