/* XPM */
static char * Abwehr_50_xpm[] = {
"50 32 218 2",
"  	c None",
". 	c #42424E",
"+ 	c #56667E",
"@ 	c #A2B2BE",
"# 	c #8A9AAA",
"$ 	c #565662",
"% 	c #DA6666",
"& 	c #627A8A",
"* 	c #BA2222",
"= 	c #5A6272",
"- 	c #EEBABA",
"; 	c #9A7E8A",
"> 	c #CE3A3A",
", 	c #5E626E",
"' 	c #728696",
") 	c #CAD2DA",
"! 	c #C25A5E",
"~ 	c #EAAAAA",
"{ 	c #D22A2A",
"] 	c #6A6A7A",
"^ 	c #CACED6",
"/ 	c #EACECE",
"( 	c #9AAABA",
"_ 	c #C2CAD2",
": 	c #62727E",
"< 	c #D69292",
"[ 	c #8292A2",
"} 	c #DE0A0A",
"| 	c #E28686",
"1 	c #7A7E8E",
"2 	c #BEC2CE",
"3 	c #E21E1E",
"4 	c #EEE2E2",
"5 	c #96A2AE",
"6 	c #7A8696",
"7 	c #666676",
"8 	c #D61A1A",
"9 	c #6E7A8E",
"0 	c #424A56",
"a 	c #8A8E9E",
"b 	c #566A7E",
"c 	c #DE7A7A",
"d 	c #4A5662",
"e 	c #7E8E9E",
"f 	c #6E8296",
"g 	c #E60606",
"h 	c #E6EAEE",
"i 	c #6A7282",
"j 	c #D65E5E",
"k 	c #B2BECA",
"l 	c #D64E4E",
"m 	c #626A7E",
"n 	c #969AA6",
"o 	c #7E8696",
"p 	c #626672",
"q 	c #D21212",
"r 	c #E2BEBE",
"s 	c #E23E3E",
"t 	c #A2A6BA",
"u 	c #A6AEBA",
"v 	c #EEEEF2",
"w 	c #D2CED2",
"x 	c #AEB6C2",
"y 	c #767A86",
"z 	c #6A7E92",
"A 	c #8A96A6",
"B 	c #D22222",
"C 	c #E62E32",
"D 	c #667682",
"E 	c #9EA2B6",
"F 	c #E67272",
"G 	c #E21A1A",
"H 	c #6E727E",
"I 	c #A2AAB6",
"J 	c #525E6E",
"K 	c #C64646",
"L 	c #8E9AAA",
"M 	c #EA0A0A",
"N 	c #E65E5E",
"O 	c #8E92A2",
"P 	c #7E8A9E",
"Q 	c #D6DEE2",
"R 	c #DA1212",
"S 	c #DA9292",
"T 	c #8696A6",
"U 	c #E2CECE",
"V 	c #5A6E82",
"W 	c #8E9EAA",
"X 	c #828A9E",
"Y 	c #96A6B6",
"Z 	c #D63232",
"` 	c #667A8E",
" .	c #EE0E0A",
"..	c #7E8292",
"+.	c #6E7E8E",
"@.	c #4E5E72",
"#.	c #727682",
"$.	c #CE1A1A",
"%.	c #AAB2BE",
"&.	c #F6CECE",
"*.	c #F20606",
"=.	c #767E92",
"-.	c #9296A6",
";.	c #7A8A9A",
">.	c #5E6672",
",.	c #728A9E",
"'.	c #DA2626",
").	c #666E7A",
"!.	c #9EAEBE",
"~.	c #6A8296",
"{.	c #5E7286",
"].	c #8692A2",
"^.	c #828E9E",
"/.	c #728292",
"(.	c #72869E",
"_.	c #66768A",
":.	c #9A9EB2",
"<.	c #9EAAB6",
"[.	c #627286",
"}.	c #BAC6D2",
"|.	c #A2AEBA",
"1.	c #6A768A",
"2.	c #AEBACA",
"3.	c #AAB6BE",
"4.	c #929EAA",
"5.	c #E26A6A",
"6.	c #D63A3A",
"7.	c #D2D6DE",
"8.	c #DE1A1A",
"9.	c #F6F2F2",
"0.	c #EA1A1A",
"a.	c #C2C6CE",
"b.	c #C2CED6",
"c.	c #5E6E86",
"d.	c #56626E",
"e.	c #6A6E7A",
"f.	c #768696",
"g.	c #9AA6B2",
"h.	c #6A7A8E",
"i.	c #666A76",
"j.	c #9EA6B6",
"k.	c #7E8EA6",
"l.	c #6E6E7E",
"m.	c #EAE6E6",
"n.	c #4E5A6A",
"o.	c #E60E0E",
"p.	c #566A82",
"q.	c #969AAA",
"r.	c #7A8AA2",
"s.	c #66768E",
"t.	c #727A8E",
"u.	c #828692",
"v.	c #626E82",
"w.	c #5A6A82",
"x.	c #EEBEBE",
"y.	c #D66266",
"z.	c #DE1616",
"A.	c #A6B2BE",
"B.	c #9AA2B2",
"C.	c #76869A",
"D.	c #929AAE",
"E.	c #868A9A",
"F.	c #7E7E8E",
"G.	c #96A2B6",
"H.	c #767A8A",
"I.	c #EE0E12",
"J.	c #727686",
"K.	c #728296",
"L.	c #929EB2",
"M.	c #82869A",
"N.	c #DE6666",
"O.	c #DA3232",
"P.	c #76869E",
"Q.	c #BEC6CE",
"R.	c #B2BAC6",
"S.	c #9296AA",
"T.	c #8292A6",
"U.	c #8696AA",
"V.	c #A6B2C2",
"W.	c #8692A6",
"X.	c #7E8EA2",
"Y.	c #828EA2",
"Z.	c #E27A7A",
"`.	c #4E5662",
" +	c #B6BEC6",
".+	c #F20E0E",
"++	c #D21A1A",
"@+	c #768A9E",
"#+	c #EEE6E6",
"$+	c #7A8A9E",
"%+	c #9EAABA",
"&+	c #8A9AAE",
"*+	c #6E7E92",
"=+	c #62728A",
"-+	c #828696",
";+	c #929EAE",
">+	c #96A2B2",
",+	c #6E829A",
"'+	c #8E9AAE",
")+	c #5A6E86",
"!+	c #868A9E",
"~+	c #626676",
"{+	c #6E7282",
"]+	c #A2AEBE",
"^+	c #6A6E7E",
"/+	c #6A7A92",
"(+	c #9EA6BA",
"_+	c #969AAE",
":+	c #7A869A",
"<+	c #8E9EAE",
"[+	c #9AA6B6",
"}+	c #72869A",
"|+	c #6E7A92",
"1+	c #6A7286",
"2+	c #A2AABA",
"3+	c #AAB6C2",
"4+	c #566272",
"5+	c #B2BACA",
"                                                                                                    ",
"                          { 8 q                       T ^.                                          ",
"                    } ++y.| N.l K                     # e                                           ",
"                  g 3 5.x.- Z.y.! ; n A.A           |.4.P K.                                        ",
"                  M s ~ &.Z.>     w _ x ]._.        |.5 [ f.*+                                      ",
"                  0.'.N.F Z       v Q 3.Y.{.p.    2 %.>+W.C.*+                                      ",
"                  N Z Z Z B       h 7.A.W._.p.    Q.x <.S.;.*+_.                                    ",
"                  / S j 8.z.        ^ |.].s.      a.2.I 4.Y.K.s.                                    ",
"                  m.U < G M  .      _ g.f.$+Y U.  _  +A.5 ].f.s.c.                                  ",
"                    4 r C .+*.o.    2 2+V.b._ %+# L g.%.( # P z {.                                  ",
"                    9.4      .R     2   ]+k 2 2.[+&+e u I W ^.*+=+p.                                ",
"                              $.*       V.V.!.!.Y <+X.T.u 5 A f.` V p.                              ",
"                                        2.[+W.G.>+L.>+f u g.L :+9 c.p.                              ",
"                                        @ ( X.U.A <+    %.j.L e =.[.w.+                             ",
"                                        [+( Y T.*+{.c.    |.>+T ' _.)+b                             ",
"                                          ( [+U.P.=+V       g.A P h.V + b                           ",
"                                          f.<+# P.z c.      [+L [ K.=++ +                           ",
"                                          d.6 T.f c.@.0       4.].K.` )+p.+                         ",
"                                          i i 9 [.J n.=         A :+h.)+p.+                         ",
"                                          T.: 0 d 4+v._.        A e f [.p.p.                        ",
"                                        X.@+{.0 J D 1.9 =.        ^.C._.p.+ +                       ",
"                                      r.}+K.z m d 1+t.=.....        f.h.c.p.p.                      ",
"                                    @+' f.^.^.o >.e.H.1 ..-+          *+{.b +                       ",
"                                }+z D t...-.O ..e.>.i.7 t...-+        /.s.w.p.+                     ",
"                              ~.`         _+-+^+7     ] -+-+u.          s.V p.+                     ",
"                          ,+z _.          _+H.e.i.    a -.F.J.            c.b p.                    ",
"                      ,.f `         E t t E.#.p       _+X H.                + p.b                   ",
"                    f _.e D.E.O S.-.-.a E.J., ,     _+S.F.                                          ",
"                (.~.&   E :.1 1 J.J.{+{+H.{+        O ..y                                           ",
"              ~.z       :.O #.{+  ^+              J.F.H ^+J.                                        ",
"                            p i.                        ] l.{+                                      ",
"                          . $                                                                       "};
