/* XPM */
static char * AngebSkills_trans_50_xpm[] = {
"50 32 302 2",
"  	c None",
". 	c #96762D",
"+ 	c #745867",
"@ 	c #3A2E35",
"# 	c #5C656D",
"$ 	c #9C7D39",
"% 	c #A58648",
"& 	c #A48547",
"* 	c #9A7A34",
"= 	c #E9D1BF",
"- 	c #E0CABA",
"; 	c #5E4955",
"> 	c #AF869C",
", 	c #C092AB",
"' 	c #AA8399",
") 	c #6A5461",
"! 	c #4C5963",
"~ 	c #8999A6",
"{ 	c #5A6269",
"] 	c #626A71",
"^ 	c #82909B",
"/ 	c #26292C",
"( 	c #CAB796",
"_ 	c #B5ADA0",
": 	c #716B61",
"< 	c #7C766B",
"[ 	c #BDB4A5",
"} 	c #C1AA81",
"| 	c #9E7F3B",
"1 	c #DEC7B7",
"2 	c #BBA798",
"3 	c #DEC7B6",
"4 	c #8D6C7E",
"5 	c #AE879C",
"6 	c #7E6271",
"7 	c #6E5562",
"8 	c #6C5763",
"9 	c #735D69",
"0 	c #342A2F",
"a 	c #7994A9",
"b 	c #617382",
"c 	c #7D8D9B",
"d 	c #9DADBB",
"e 	c #79848D",
"f 	c #667078",
"g 	c #606972",
"h 	c #EEE6DF",
"i 	c #B3B1AF",
"j 	c #565555",
"k 	c #616160",
"l 	c #C2C0BE",
"m 	c #EEE0D7",
"n 	c #D3BA9D",
"o 	c #CAB5A6",
"p 	c #AB998C",
"q 	c #CCB7A7",
"r 	c #AA8096",
"s 	c #B3859E",
"t 	c #7A586A",
"u 	c #7E5A6E",
"v 	c #745667",
"w 	c #55454E",
"x 	c #44373E",
"y 	c #6C8498",
"z 	c #819EB4",
"A 	c #7990A3",
"B 	c #85A2B9",
"C 	c #677B8B",
"D 	c #7C8C99",
"E 	c #72808D",
"F 	c #4D5B68",
"G 	c #F2D8C6",
"H 	c #D4BEB1",
"I 	c #D7C1B4",
"J 	c #E2CDBF",
"K 	c #BBA799",
"L 	c #A19083",
"M 	c #BAA698",
"N 	c #583E4C",
"O 	c #6F5062",
"P 	c #BB83A3",
"Q 	c #C185A7",
"R 	c #735666",
"S 	c #896278",
"T 	c #2C2428",
"U 	c #332D30",
"V 	c #86A4BC",
"W 	c #5B6C79",
"X 	c #A7CAE5",
"Y 	c #7891A5",
"Z 	c #88A2B8",
"` 	c #6B8294",
" .	c #3B454E",
"..	c #2E3840",
"+.	c #F0D6C4",
"@.	c #EAD1C0",
"#.	c #CEB8A8",
"$.	c #C9B9A9",
"%.	c #B19E90",
"&.	c #765165",
"*.	c #795469",
"=.	c #BF86A6",
"-.	c #CF8FB3",
";.	c #DC98BE",
">.	c #B57D9C",
",.	c #755B6A",
"'.	c #62505A",
").	c #607586",
"!.	c #829FB6",
"~.	c #89A3B7",
"{.	c #9ABDD8",
"].	c #5B6975",
"^.	c #99B9D3",
"/.	c #4B5B68",
"(.	c #5E6B76",
"_.	c #313A41",
":.	c #E5CDBB",
"<.	c #CFB9A9",
"[.	c #E4CBBA",
"}.	c #BDA99B",
"|.	c #8D7F74",
"1.	c #C98AAE",
"2.	c #DB96BD",
"3.	c #654A5A",
"4.	c #CA8EAF",
"5.	c #CC8DB1",
"6.	c #6B5160",
"7.	c #584750",
"8.	c #698193",
"9.	c #87A4BC",
"0.	c #93B1C9",
"a.	c #70889C",
"b.	c #8EA7BD",
"c.	c #738CA0",
"d.	c #505F6A",
"e.	c #5F7281",
"f.	c #F1D7C5",
"g.	c #E0C8B7",
"h.	c #CAB4A5",
"i.	c #E7CFBD",
"j.	c #C1AD9E",
"k.	c #A06E8A",
"l.	c #CA8DAF",
"m.	c #CB8DB0",
"n.	c #BF84A5",
"o.	c #6D5261",
"p.	c #58404E",
"q.	c #4E5F6D",
"r.	c #85A1B6",
"s.	c #8EAAC1",
"t.	c #566775",
"u.	c #3A4147",
"v.	c #2E353B",
"w.	c #E9CFBE",
"x.	c #C9B3A5",
"y.	c #BEA99C",
"z.	c #DCC5B4",
"A.	c #E2CAB9",
"B.	c #644557",
"C.	c #644959",
"D.	c #C488AA",
"E.	c #BB80A1",
"F.	c #503946",
"G.	c #495966",
"H.	c #5E7384",
"I.	c #353F49",
"J.	c #DCC4B4",
"K.	c #BFAB9C",
"L.	c #B3A092",
"M.	c #EBD2C0",
"N.	c #E7D0BE",
"O.	c #6B4A5C",
"P.	c #533A48",
"Q.	c #EED5C3",
"R.	c #D5BEAF",
"S.	c #C4B0A1",
"T.	c #BBA698",
"U.	c #CBB5A5",
"V.	c #C7B2A3",
"W.	c #D6BFAF",
"X.	c #D7C0AF",
"Y.	c #EDD3C2",
"Z.	c #D9C2B2",
"`.	c #DEC6B6",
" +	c #EED4C2",
".+	c #EDD3C1",
"++	c #C7B1CE",
"@+	c #D1BBAB",
"#+	c #CAB2D0",
"$+	c #BBA5C1",
"%+	c #A9988B",
"&+	c #877A70",
"*+	c #86796F",
"=+	c #94857B",
"-+	c #D8BEDF",
";+	c #BAA4C0",
">+	c #B9A4BF",
",+	c #BDA7C3",
"'+	c #887A70",
")+	c #8F8176",
"!+	c #E3C7EB",
"~+	c #C1ABC7",
"{+	c #CDB5D5",
"]+	c #BFAAC5",
"^+	c #9D8681",
"/+	c #786650",
"(+	c #B49FB2",
"_+	c #BAA4B5",
":+	c #9CDDBE",
"<+	c #9B847F",
"[+	c #534622",
"}+	c #574F39",
"|+	c #817774",
"1+	c #BDA8C3",
"2+	c #B6A0AD",
"3+	c #8E753E",
"4+	c #94D3B5",
"5+	c #967F60",
"6+	c #665525",
"7+	c #817C6C",
"8+	c #818181",
"9+	c #7E7E7E",
"0+	c #A099A2",
"a+	c #BEAAC2",
"b+	c #B59FAB",
"c+	c #8D743D",
"d+	c #476557",
"e+	c #3F5B4E",
"f+	c #886E22",
"g+	c #A79560",
"h+	c #CDC9C0",
"i+	c #DADADA",
"j+	c #C5C5C5",
"k+	c #B4B3B0",
"l+	c #A59374",
"m+	c #8D743C",
"n+	c #7F6518",
"o+	c #1A2621",
"p+	c #0C100E",
"q+	c #8B7126",
"r+	c #A99A6B",
"s+	c #B6B3AD",
"t+	c #B5B5B5",
"u+	c #D7D7D7",
"v+	c #D0CFCA",
"w+	c #998959",
"x+	c #806619",
"y+	c #856917",
"z+	c #0E1412",
"A+	c #262E2D",
"B+	c #0C110F",
"C+	c #AA861B",
"D+	c #A78319",
"E+	c #B6983F",
"F+	c #B69B48",
"G+	c #B69B49",
"H+	c #BDA352",
"I+	c #A38D4A",
"J+	c #907115",
"K+	c #997814",
"L+	c #AEF5D5",
"M+	c #97D7B9",
"N+	c #74A78F",
"O+	c #2E4239",
"P+	c #25352D",
"Q+	c #727A7A",
"R+	c #40524F",
"S+	c #93D2B5",
"T+	c #A7EFCC",
"U+	c #B0F9D6",
"V+	c #B0F5D6",
"W+	c #B28A11",
"X+	c #A88312",
"Y+	c #826717",
"Z+	c #96D5B9",
"`+	c #7BB097",
" @	c #74A68E",
".@	c #4B6A5B",
"+@	c #405B4F",
"@@	c #64776F",
"#@	c #597F6D",
"$@	c #73A48C",
"%@	c #89C3A6",
"&@	c #92D0B2",
"*@	c #B08911",
"=@	c #9C7914",
"-@	c #2F4239",
";@	c #4A695A",
">@	c #668F7C",
",@	c #927315",
"'@	c #9D7B14",
")@	c #B18911",
"!@	c #AF8811",
"~@	c #816718",
"{@	c #2D4037",
"]@	c #4A6B5B",
"^@	c #9F7C14",
"/@	c #967615",
"(@	c #85BEA3",
"_@	c #88C2A6",
":@	c #ACF7D3",
"<@	c #A6EECC",
"                                                                                                    ",
"                                                                            . .                     ",
"              + @                 #                                       $ % & * .       = -       ",
"        ; > , ' )             ! ~ { ] ^ /                               ( _ : < [ } |   1 2 3       ",
"      4 5 6 7 8 9 0           a b c d e f g                             h i j k l m n   o p q       ",
"      r s t u v w x         y z A B C D E F                           G     H I J       K L M       ",
"    N O P Q R S T U         V W X Y Z `  ...                        +.@.                #.$.%.      ",
"    &.*.=.-.;.>.,.'.      ).!.~.{.].^./.(._.                        :.<.                [.}.|.      ",
"      1.2.3.4.5.6.7.      8.9.0.a.b.c.d.e.                        f.g.h.                i.K j.      ",
"      k.l.m.n.o.p.          q.a r.s.t.u.v.                        w.x.y.                  z.A.      ",
"      B.C.D.E.F.                G.H.I.                          +.J.K.L.h.                M.N.      ",
"        O.P.                                                    Q.R.S.T.h.                          ",
"                                                                M.U.V.W.X.                          ",
"                                                              G Y.Z.`. +.+                          ",
"                          ++                                  G G +.Y.W.@+J.                        ",
"                        #+$+                                  G G `.%+&+*+=+                        ",
"                      -+;+>+,+                                      '+*+*+)+                        ",
"                    !+~+>+>+>+,+                                                                    ",
"                    {+>+>+>+>+>+]+                                                                  ",
"                  ^+/+(+>+>+>+>+_+                                            :+                    ",
"                <+[+}+|+1+>+>+2+3+                                            4+                    ",
"              5+6+7+8+9+0+a+b+c+                                            d+e+                    ",
"              f+g+h+i+j+k+l+m+n+                                            o+p+                    ",
"            q+r+s+t+u+v+w+x+y+n+                                            z+A+B+                  ",
"          C+D+E+F+G+H+I+x+J+K+n+                                    L+M+N+O+P+Q+R+S+T+U+V+          ",
"          W+W+W+W+W+X+Y+n+n+                                        Z+`+ @.@+@@@#@$@%@&@            ",
"            *@W+W+W+=@n+                                                    -@;@>@                  ",
"            ,@'@)@!@~@                                                      {@]@                    ",
"              n+^@/@n+                                                      (@_@                    ",
"                                                                              :@                    ",
"                                                                              <@                    ",
"                                                                                                    "};
