/* XPM */
static char * Angeb_Ohr_32_xpm[] = {
"32 32 228 2",
"  	c None",
". 	c #EAD7C2",
"+ 	c #E4D2BD",
"@ 	c #ECDCC6",
"# 	c #F0E3CF",
"$ 	c #EDDFCB",
"% 	c #EAD8C3",
"& 	c #E9D6C1",
"* 	c #DECCB8",
"= 	c #EEE2CE",
"- 	c #F6F1DF",
"; 	c #F1EAD6",
"> 	c #EBE0CC",
", 	c #E7D8C3",
"' 	c #E6D4BF",
") 	c #E8D5C0",
"! 	c #E7D4BF",
"~ 	c #D9C7B3",
"{ 	c #E6D6C0",
"] 	c #F3EAD5",
"^ 	c #F3E9D4",
"/ 	c #DECFBB",
"( 	c #D0BFAC",
"_ 	c #D2C2AE",
": 	c #DCCAB6",
"< 	c #E6D3BE",
"[ 	c #E3D2BD",
"} 	c #F0E4CE",
"| 	c #F5ECD5",
"1 	c #DBCBB7",
"2 	c #C2B1A0",
"3 	c #BFAF9E",
"4 	c #C2B2A1",
"5 	c #C9B8A7",
"6 	c #E1CEBB",
"7 	c #E9D6C2",
"8 	c #E6D3BF",
"9 	c #D0C0AD",
"0 	c #E9DAC4",
"a 	c #F3E8D2",
"b 	c #E0CFBC",
"c 	c #C3B3A2",
"d 	c #BCAC9B",
"e 	c #BEAE9D",
"f 	c #BBAC9C",
"g 	c #BDAE9D",
"h 	c #D4C3B0",
"i 	c #DDCCB8",
"j 	c #E2D1BD",
"k 	c #C5B5A4",
"l 	c #B9AA99",
"m 	c #BBAB9B",
"n 	c #BCAC9C",
"o 	c #B5A696",
"p 	c #C3B3A3",
"q 	c #E5D2BE",
"r 	c #CAB9A7",
"s 	c #B7A998",
"t 	c #B8A998",
"u 	c #BBAB9A",
"v 	c #B9A998",
"w 	c #B8A999",
"x 	c #B6A797",
"y 	c #DDCBB7",
"z 	c #E0CEBA",
"A 	c #BBAC9B",
"B 	c #B5A595",
"C 	c #B2A292",
"D 	c #B4A594",
"E 	c #B9A999",
"F 	c #D5C3B0",
"G 	c #E7D5C0",
"H 	c #E3D1BC",
"I 	c #E4D2BE",
"J 	c #CFBFAC",
"K 	c #B4A595",
"L 	c #B7A898",
"M 	c #B8A898",
"N 	c #B1A192",
"O 	c #AD9E8F",
"P 	c #AD9D8E",
"Q 	c #B5A695",
"R 	c #CCBBA9",
"S 	c #E7D4C0",
"T 	c #E0CEB9",
"U 	c #DBC9B5",
"V 	c #C1B19F",
"W 	c #B5A596",
"X 	c #B6A696",
"Y 	c #B4A494",
"Z 	c #AC9D8D",
"` 	c #A59688",
" .	c #AE9F90",
"..	c #C8B8A7",
"+.	c #DAC7B3",
"@.	c #D3C2AF",
"#.	c #B6A697",
"$.	c #BAAA9A",
"%.	c #B3A494",
"&.	c #A19385",
"*.	c #A29486",
"=.	c #A7998B",
"-.	c #BCAD9C",
";.	c #C8B7A5",
">.	c #C4B4A2",
",.	c #BDAD9C",
"'.	c #B2A293",
").	c #9B8D80",
"!.	c #9D8E81",
"~.	c #B9AA9A",
"{.	c #E1CFBB",
"].	c #E8D5C1",
"^.	c #C3B3A1",
"/.	c #CFBEAB",
"(.	c #C5B3A2",
"_.	c #BFB09E",
":.	c #B3A493",
"<.	c #9E8F82",
"[.	c #978A7D",
"}.	c #D7C5B2",
"|.	c #E1CFBA",
"1.	c #D7C5B1",
"2.	c #B7A796",
"3.	c #928579",
"4.	c #9C8E81",
"5.	c #CBBAA8",
"6.	c #E9D7C2",
"7.	c #E4D1BD",
"8.	c #EADBC4",
"9.	c #E5D7C1",
"0.	c #B7A797",
"a.	c #928578",
"b.	c #9F9183",
"c.	c #CFBEAC",
"d.	c #E0CDB9",
"e.	c #EEDEC7",
"f.	c #F4E8D1",
"g.	c #E5D6C0",
"h.	c #9A8D80",
"i.	c #DFCFBC",
"j.	c #CABAA8",
"k.	c #ECDBC6",
"l.	c #F3E6CF",
"m.	c #E5D5C0",
"n.	c #9A8D7F",
"o.	c #A59789",
"p.	c #D4C5B2",
"q.	c #E9DBC7",
"r.	c #E9D8C3",
"s.	c #E5D4C0",
"t.	c #C4B5A3",
"u.	c #A7998A",
"v.	c #9D9082",
"w.	c #C5B7A7",
"x.	c #EDE2CE",
"y.	c #EBDBC6",
"z.	c #D2C1AE",
"A.	c #E3D0BC",
"B.	c #C8B8A6",
"C.	c #A8998A",
"D.	c #A49788",
"E.	c #C4B7A5",
"F.	c #ECE1CD",
"G.	c #F5EBD7",
"H.	c #E8D6C1",
"I.	c #D5C4B0",
"J.	c #B1A392",
"K.	c #A39486",
"L.	c #C1B5A4",
"M.	c #F3E9D5",
"N.	c #F8EEDB",
"O.	c #F1E3CD",
"P.	c #DFCCB8",
"Q.	c #C5B4A2",
"R.	c #D2C4B1",
"S.	c #EBDCC8",
"T.	c #DECCB7",
"U.	c #DAC8B4",
"V.	c #E5D2BD",
"W.	c #E2CFBA",
"X.	c #D8C6B2",
"Y.	c #D8C6B3",
"Z.	c #D4C2AF",
"`.	c #DDCAB6",
" +	c #E1CEBA",
".+	c #DBC9B6",
"++	c #E2CFBB",
"@+	c #D2C1AD",
"#+	c #CFBDAB",
"$+	c #D2C0AE",
"%+	c #E2D0BC",
"&+	c #D6C4B1",
"*+	c #D5C4B1",
"=+	c #CEBCAA",
"-+	c #CAB8A6",
";+	c #C7B6A4",
">+	c #D6C5B1",
",+	c #D0BFAD",
"'+	c #C9B8A6",
")+	c #C4B3A2",
"!+	c #C4B4A3",
"~+	c #D9C6B3",
"{+	c #E2CFBC",
"]+	c #C7B6A5",
"^+	c #CDBCA9",
"/+	c #E8D7C3",
"(+	c #E4D4C0",
"_+	c #CEBDAB",
":+	c #C7B7A5",
"<+	c #D3C2AE",
"[+	c #E3D3C1",
"}+	c #EDE0CE",
"|+	c #E0D1BD",
"1+	c #C6B6A5",
"2+	c #E2D0BB",
"3+	c #EEE2D1",
"4+	c #EFE5D3",
"5+	c #E5D8C3",
"6+	c #DACBB7",
"7+	c #DCCBB7",
"8+	c #E4D1BC",
"9+	c #E2D6C5",
"0+	c #F5EEDD",
"a+	c #F7EFDB",
"b+	c #F2E6D1",
"c+	c #EDDDC8",
"d+	c #EDE0CB",
"e+	c #E5D3BE",
"                              . . . . .                         ",
"                            + @ # $ % . &                       ",
"                          * = - ; > , ' ) !                     ",
"                        ~ { ] ^ / ( _ : ! ) <                   ",
"                        [ } | 1 2 3 4 5 6 7 8                   ",
"                      9 0 a b c d e f g h & !                   ",
"                      i % j k l m n l o p q &                   ",
"                      + ' r s t u v w x d y & !                 ",
"                      & z A x m B C D E E F & G                 ",
"                    H I J K L M N O P Q u R . S                 ",
"                    T U V W X M Y Z `  .L ..& )                 ",
"                    +.@.A Y B #.$.%.&.*.=.-.H &                 ",
"                      ;.>.,.D '.K K &.).!.~.{.].                ",
"                      ^././.(._.M :.<.[.).4 ' &                 ",
"                      R }.|.z 1.;.2.).3.4.5.6..                 ",
"                      7.! & 8.9._ 0.).a.b.c.. .                 ",
"                        d.. e.f.g.0.h.[.L i.6..                 ",
"                        j.H k.l.m.o n.o.p.q.6..                 ",
"                        -.z r.s.t.u.v.w.x.y.. .                 ",
"                        z.. A.B.C.D.E.F.G.H.) .                 ",
"                        . 7 I.J.K.L.M.N.O.P.' '                 ",
"                        . & U Q.X R.S.r.T.U.8 {.                ",
"                        . 8 V.W.X.Y.P.U Z.`.!                   ",
"                        &  +.+++T U @+#+$+z 7.                  ",
"                        6.%+&+*+=+-+;+5.>+H H                   ",
"                      8 . + ,+'+)+!+k R ~+W.                    ",
"                        & {+r c c c ]+^+U ++                    ",
"                        /+(+_+k c !+:+<+|.                      ",
"                        [+}+|+_+1+]+,+P.2+                      ",
"                          3+4+5+6+7+' 8+                        ",
"                          9+0+a+b+c++                           ",
"                              d+y.e+                            "};
