/* XPM */
static char * AngebSkills_trans_50_xpm[] = {
"50 32 336 2",
"  	c None",
". 	c #96762D",
"+ 	c #745867",
"@ 	c #3A2E35",
"# 	c #5C656D",
"$ 	c #9C7D39",
"% 	c #A58648",
"& 	c #A48547",
"* 	c #9A7A34",
"= 	c #5E4955",
"- 	c #AF869C",
"; 	c #C092AB",
"> 	c #AA8399",
", 	c #6A5461",
"' 	c #4C5963",
") 	c #8999A6",
"! 	c #5A6269",
"~ 	c #626A71",
"{ 	c #82909B",
"] 	c #26292C",
"^ 	c #CAB897",
"/ 	c #B5ADA0",
"( 	c #716B61",
"_ 	c #7C766B",
": 	c #BDB4A5",
"< 	c #C1AA81",
"[ 	c #9E7F3B",
"} 	c #8D6C7E",
"| 	c #AE879C",
"1 	c #7E6271",
"2 	c #6E5562",
"3 	c #6C5763",
"4 	c #735D69",
"5 	c #342A2F",
"6 	c #7994A9",
"7 	c #617382",
"8 	c #7D8D9B",
"9 	c #9DADBB",
"0 	c #79848D",
"a 	c #667078",
"b 	c #606972",
"c 	c #F0E8E3",
"d 	c #B3B1AF",
"e 	c #565555",
"f 	c #616160",
"g 	c #C2C0BE",
"h 	c #EEE0D7",
"i 	c #D3BA9D",
"j 	c #AA8096",
"k 	c #B3859E",
"l 	c #7A586A",
"m 	c #7E5A6E",
"n 	c #745667",
"o 	c #55454E",
"p 	c #44373E",
"q 	c #6C8498",
"r 	c #819EB4",
"s 	c #7990A3",
"t 	c #85A2B9",
"u 	c #677B8B",
"v 	c #7C8C99",
"w 	c #72808D",
"x 	c #4D5B68",
"y 	c #D4BEB1",
"z 	c #D7C1B4",
"A 	c #E2CDBF",
"B 	c #DDC4AB",
"C 	c #583E4C",
"D 	c #6F5062",
"E 	c #BB83A3",
"F 	c #C185A7",
"G 	c #735666",
"H 	c #896278",
"I 	c #2C2428",
"J 	c #332D30",
"K 	c #86A4BC",
"L 	c #5B6C79",
"M 	c #A7CAE5",
"N 	c #7891A5",
"O 	c #88A2B8",
"P 	c #6B8294",
"Q 	c #3B454E",
"R 	c #2E3840",
"S 	c #F2D8C6",
"T 	c #E4CCBA",
"U 	c #E3CBBA",
"V 	c #E3CDBA",
"W 	c #765165",
"X 	c #795469",
"Y 	c #BF86A6",
"Z 	c #CF8FB3",
"` 	c #DC98BE",
" .	c #B57D9C",
"..	c #755B6A",
"+.	c #62505A",
"@.	c #607586",
"#.	c #829FB6",
"$.	c #89A3B7",
"%.	c #9ABDD8",
"&.	c #5B6975",
"*.	c #99B9D3",
"=.	c #4B5B68",
"-.	c #5E6B76",
";.	c #313A41",
">.	c #EFD5C3",
",.	c #DFC8B8",
"'.	c #D0BAAA",
").	c #C8B3A3",
"!.	c #DDC6B4",
"~.	c #C98AAE",
"{.	c #DB96BD",
"].	c #654A5A",
"^.	c #CA8EAF",
"/.	c #CC8DB1",
"(.	c #6B5160",
"_.	c #584750",
":.	c #698193",
"<.	c #87A4BC",
"[.	c #93B1C9",
"}.	c #70889C",
"|.	c #8EA7BD",
"1.	c #738CA0",
"2.	c #505F6A",
"3.	c #5F7281",
"4.	c #DEC6B6",
"5.	c #CFBBAB",
"6.	c #B9A597",
"7.	c #B19E90",
"8.	c #D4BEAE",
"9.	c #D9C5B6",
"0.	c #A06E8A",
"a.	c #CA8DAF",
"b.	c #CB8DB0",
"c.	c #BF84A5",
"d.	c #6D5261",
"e.	c #58404E",
"f.	c #4E5F6D",
"g.	c #85A1B6",
"h.	c #8EAAC1",
"i.	c #566775",
"j.	c #3A4147",
"k.	c #2E353B",
"l.	c #EDD3C1",
"m.	c #D2BBAB",
"n.	c #CAB4A5",
"o.	c #CFB9AA",
"p.	c #BAA597",
"q.	c #AD9B8D",
"r.	c #C1AD9E",
"s.	c #DAC5B4",
"t.	c #644557",
"u.	c #644959",
"v.	c #C488AA",
"w.	c #BB80A1",
"x.	c #503946",
"y.	c #495966",
"z.	c #5E7384",
"A.	c #353F49",
"B.	c #F1D7C5",
"C.	c #E0C8B7",
"D.	c #C5AFA1",
"E.	c #CAB5A6",
"F.	c #C4B0A1",
"G.	c #B39F91",
"H.	c #A59386",
"I.	c #B6A395",
"J.	c #DBC4B3",
"K.	c #6B4A5C",
"L.	c #533A48",
"M.	c #ECD2C0",
"N.	c #CBB5A6",
"O.	c #B29F92",
"P.	c #C2AD9F",
"Q.	c #BDA99A",
"R.	c #B5A394",
"S.	c #AA998B",
"T.	c #AF9C8E",
"U.	c #D8C1B0",
"V.	c #E8CFBE",
"W.	c #C9B4A5",
"X.	c #B8A597",
"Y.	c #C1AC9E",
"Z.	c #DECBBA",
"`.	c #BFAE9F",
" +	c #A89689",
".+	c #D4BEAD",
"++	c #F0D6C5",
"@+	c #DFC7B6",
"#+	c #C2AD9E",
"$+	c #CDB7A7",
"%+	c #DBC3B3",
"&+	c #DAC3B3",
"*+	c #E3CDBC",
"=+	c #AF9E91",
"-+	c #8F8075",
";+	c #CCB6A6",
">+	c #C7B1CE",
",+	c #F0D6C4",
"'+	c #E1C9B8",
")+	c #CEB7A9",
"!+	c #E9D0BF",
"~+	c #EAD1BF",
"{+	c #E5CDBB",
"]+	c #DDC6B5",
"^+	c #B09D90",
"/+	c #9B8B7F",
"(+	c #CFBAA9",
"_+	c #CAB2D0",
":+	c #BBA5C1",
"<+	c #EED4C3",
"[+	c #EBD2C0",
"}+	c #E9D0BE",
"|+	c #D1BAAB",
"1+	c #BEAA9C",
"2+	c #C6B2A2",
"3+	c #DBC5B4",
"4+	c #D8BEDF",
"5+	c #BAA4C0",
"6+	c #B9A4BF",
"7+	c #BDA7C3",
"8+	c #D4BDAE",
"9+	c #9D8D82",
"0+	c #86796F",
"a+	c #8D7F75",
"b+	c #B6A396",
"c+	c #DCC5B4",
"d+	c #D5BEAE",
"e+	c #DAC5B6",
"f+	c #E3C7EB",
"g+	c #C1ABC7",
"h+	c #908177",
"i+	c #877A70",
"j+	c #BCA89A",
"k+	c #E7CEBC",
"l+	c #E6CDBC",
"m+	c #CDB5D5",
"n+	c #BFAAC5",
"o+	c #9D8681",
"p+	c #786650",
"q+	c #B49FB2",
"r+	c #BAA4B5",
"s+	c #9CDDBE",
"t+	c #E7D0BE",
"u+	c #9B847F",
"v+	c #534622",
"w+	c #574F39",
"x+	c #817774",
"y+	c #BDA8C3",
"z+	c #B6A0AD",
"A+	c #8E753E",
"B+	c #94D3B5",
"C+	c #967F60",
"D+	c #665525",
"E+	c #817C6C",
"F+	c #818181",
"G+	c #7E7E7E",
"H+	c #A099A2",
"I+	c #BEAAC2",
"J+	c #B59FAB",
"K+	c #8D743D",
"L+	c #476557",
"M+	c #3F5B4E",
"N+	c #886E22",
"O+	c #A79560",
"P+	c #CDC9C0",
"Q+	c #DADADA",
"R+	c #C5C5C5",
"S+	c #B4B3B0",
"T+	c #A59374",
"U+	c #8D743C",
"V+	c #7F6518",
"W+	c #1A2621",
"X+	c #0C100E",
"Y+	c #8B7126",
"Z+	c #A99A6B",
"`+	c #B6B3AD",
" @	c #B5B5B5",
".@	c #D7D7D7",
"+@	c #D0CFCA",
"@@	c #998959",
"#@	c #806619",
"$@	c #856917",
"%@	c #0E1412",
"&@	c #262E2D",
"*@	c #0C110F",
"=@	c #AA861B",
"-@	c #A78319",
";@	c #B6983F",
">@	c #B69B48",
",@	c #B69B49",
"'@	c #BDA352",
")@	c #A38D4A",
"!@	c #907115",
"~@	c #997814",
"{@	c #AEF5D5",
"]@	c #97D7B9",
"^@	c #74A78F",
"/@	c #2E4239",
"(@	c #25352D",
"_@	c #727A7A",
":@	c #40524F",
"<@	c #93D2B5",
"[@	c #A7EFCC",
"}@	c #B0F9D6",
"|@	c #B0F5D6",
"1@	c #B28A11",
"2@	c #A88312",
"3@	c #826717",
"4@	c #96D5B9",
"5@	c #7BB097",
"6@	c #74A68E",
"7@	c #4B6A5B",
"8@	c #405B4F",
"9@	c #64776F",
"0@	c #597F6D",
"a@	c #73A48C",
"b@	c #89C3A6",
"c@	c #92D0B2",
"d@	c #B08911",
"e@	c #9C7914",
"f@	c #2F4239",
"g@	c #4A695A",
"h@	c #668F7C",
"i@	c #927315",
"j@	c #9D7B14",
"k@	c #B18911",
"l@	c #AF8811",
"m@	c #816718",
"n@	c #2D4037",
"o@	c #4A6B5B",
"p@	c #9F7C14",
"q@	c #967615",
"r@	c #85BEA3",
"s@	c #88C2A6",
"t@	c #ACF7D3",
"u@	c #A6EECC",
"                                                                                                    ",
"                                                                            . .                     ",
"              + @                 #                                       $ % & * .                 ",
"        = - ; > ,             ' ) ! ~ { ]                               ^ / ( _ : < [               ",
"      } | 1 2 3 4 5           6 7 8 9 0 a b                             c d e f g h i               ",
"      j k l m n o p         q r s t u v w x                                 y z A           B       ",
"    C D E F G H I J         K L M N O P Q R                       S                       T U V     ",
"    W X Y Z `  ...+.      @.#.$.%.&.*.=.-.;.                    >.                      ,.'.).!.    ",
"      ~.{.].^./.(._.      :.<.[.}.|.1.2.3.                    >.4.                      5.6.7.8.9.  ",
"      0.a.b.c.d.e.          f.6 g.h.i.j.k.                    l.m.n.                    o.p.q.r.s.  ",
"      t.u.v.w.x.                y.z.A.                      B.C.D.E.                    F.G.H.I.J.  ",
"        K.L.                                                M.N.O.P.                    Q.R.S.T.U.  ",
"                                                            V.W.X.Y.                    '.Z.`. +.+  ",
"                                                          ++@+#+W.$+%+                  &+*+=+-+;+  ",
"                          >+                              ,+'+)+U !+~+                  {+]+^+/+(+  ",
"                        _+:+                              S <+[+++S S                   }+|+1+2+3+  ",
"                      4+5+6+7+                            S S 8+9+0+a+b+                  c+d+]+e+  ",
"                    f+g+6+6+6+7+                          S S h+0+0+i+j+                  k+{+l+    ",
"                    m+6+6+6+6+6+n+                                                        ~+~+V.    ",
"                  o+p+q+6+6+6+6+r+                                            s+            t+      ",
"                u+v+w+x+y+6+6+z+A+                                            B+                    ",
"              C+D+E+F+G+H+I+J+K+                                            L+M+                    ",
"              N+O+P+Q+R+S+T+U+V+                                            W+X+                    ",
"            Y+Z+`+ @.@+@@@#@$@V+                                            %@&@*@                  ",
"          =@-@;@>@,@'@)@#@!@~@V+                                    {@]@^@/@(@_@:@<@[@}@|@          ",
"          1@1@1@1@1@2@3@V+V+                                        4@5@6@7@8@9@0@a@b@c@            ",
"            d@1@1@1@e@V+                                                    f@g@h@                  ",
"            i@j@k@l@m@                                                      n@o@                    ",
"              V+p@q@V+                                                      r@s@                    ",
"                                                                              t@                    ",
"                                                                              u@                    ",
"                                                                                                    "};
