/* XPM */
static char * Angeb_Sicht_32_xpm[] = {
"32 32 256 2",
"  	c None",
". 	c #020208",
"+ 	c #4E463D",
"@ 	c #8E7E66",
"# 	c #DEC296",
"$ 	c #020242",
"% 	c #A29276",
"& 	c #2E46FE",
"* 	c #02024E",
"= 	c #3E4AEE",
"- 	c #BAA282",
"; 	c #EEEAEA",
"> 	c #6E82FE",
", 	c #020A86",
"' 	c #BAC2FA",
") 	c #86765A",
"! 	c #161626",
"~ 	c #A6A6EA",
"{ 	c #1A2EFE",
"] 	c #5A5EE6",
"^ 	c #5A5246",
"/ 	c #7A7EEA",
"( 	c #C6AE8B",
"_ 	c #020ABE",
": 	c #C2C2D6",
"< 	c #4A423E",
"[ 	c #9A92CA",
"} 	c #766E5A",
"| 	c #020AC2",
"1 	c #9286C2",
"2 	c #D29E8A",
"3 	c #D2D2F6",
"4 	c #0E26FE",
"5 	c #CAAE8E",
"6 	c #5266FE",
"7 	c #2A2A36",
"8 	c #DEC2BE",
"9 	c #B67A6E",
"0 	c #A68E72",
"a 	c #6A5E4A",
"b 	c #D2B690",
"c 	c #020ECA",
"d 	c #B2A2B6",
"e 	c #C29286",
"f 	c #9E8A6E",
"g 	c #E2CECA",
"h 	c #424686",
"i 	c #D2BAB2",
"j 	c #0212DA",
"k 	c #AA9AA2",
"l 	c #DADAFA",
"m 	c #AE6E66",
"n 	c #36322E",
"o 	c #D2A68A",
"p 	c #DAC2B2",
"q 	c #BEAEB6",
"r 	c #766A56",
"s 	c #CEAEAA",
"t 	c #020232",
"u 	c #BA9A7E",
"v 	c #1222F6",
"w 	c #EADEDA",
"x 	c #CAA6A4",
"y 	c #4A5AFA",
"z 	c #EADAC6",
"A 	c #DABA95",
"B 	c #2E3EF6",
"C 	c #F6F6F6",
"D 	c #0212E2",
"E 	c #020262",
"F 	c #423E34",
"G 	c #4E5EF6",
"H 	c #B29A7C",
"I 	c #EAE2E6",
"J 	c #96866D",
"K 	c #E2C69A",
"L 	c #D6B6AE",
"M 	c #0216EA",
"N 	c #C2A686",
"O 	c #766655",
"P 	c #928ACA",
"Q 	c #868EFA",
"R 	c #CAC6E2",
"S 	c #DACACE",
"T 	c #BE8672",
"U 	c #DECAC2",
"V 	c #12127E",
"W 	c #3646FA",
"X 	c #020AAA",
"Y 	c #9A9EEE",
"Z 	c #D2AE8E",
"` 	c #524A3E",
" .	c #0E1EFA",
"..	c #E2D6D6",
"+.	c #DED6EA",
"@.	c #3E4EFA",
"#.	c #726654",
"$.	c #F2F2F2",
"%.	c #4A56F2",
"&.	c #DABAA6",
"*.	c #E2C6AA",
"=.	c #E2E6F6",
"-.	c #C2AA84",
";.	c #0212F2",
">.	c #AA9276",
",.	c #3A3636",
"'.	c #AEB2F6",
").	c #DAC2AA",
"!.	c #02067E",
"~.	c #6A6ADE",
"{.	c #DABE97",
"].	c #5E564A",
"^.	c #626EFE",
"/.	c #D6B29A",
"(.	c #D6A29A",
"_.	c #CACEF8",
":.	c #222EFE",
"<.	c #D6B6A0",
"[.	c #7E6E5E",
"}.	c #C2AA96",
"|.	c #6A6252",
"1.	c #E2CAB6",
"2.	c #E6DEE2",
"3.	c #0A1AF6",
"4.	c #CEA692",
"5.	c #E2D2C6",
"6.	c #C69A82",
"7.	c #D2B2A8",
"8.	c #92826A",
"9.	c #A28E73",
"0.	c #767EFA",
"a.	c #A6AAFE",
"b.	c #867A62",
"c.	c #E6CEAE",
"d.	c #2636FA",
"e.	c #827662",
"f.	c #7A86FA",
"g.	c #1626F2",
"h.	c #AA9676",
"i.	c #625A4A",
"j.	c #CAA692",
"k.	c #D2AAA2",
"l.	c #DAB296",
"m.	c #E6C69A",
"n.	c #020696",
"o.	c #0212F6",
"p.	c #C29A92",
"q.	c #EEEEEE",
"r.	c #DABEB6",
"s.	c #5A4E42",
"t.	c #4A423A",
"u.	c #3E3A32",
"v.	c #3E4AFA",
"w.	c #EEEAF6",
"x.	c #E2C29A",
"y.	c #122AFA",
"z.	c #DEBE96",
"A.	c #D29E96",
"B.	c #C6AA8E",
"C.	c #322E2A",
"D.	c #D6B692",
"E.	c #E6D2CE",
"F.	c #B29EAA",
"G.	c #DEC2BA",
"H.	c #CAA286",
"I.	c #D6BA9E",
"J.	c #BEA682",
"K.	c #020EB8",
"L.	c #B29A84",
"M.	c #9A866E",
"N.	c #7E725E",
"O.	c #020212",
"P.	c #CEB69A",
"Q.	c #020ED6",
"R.	c #BAAEC2",
"S.	c #CAB28A",
"T.	c #0216FD",
"U.	c #D2BEB2",
"V.	c #524E46",
"W.	c #C6AA87",
"X.	c #927E66",
"Y.	c #1E32FA",
"Z.	c #D2D6FE",
"`.	c #DED2D2",
" +	c #B69E7E",
".+	c #46423A",
"++	c #B29E7E",
"@+	c #E2CEBE",
"#+	c #D2B28E",
"$+	c #DABEA2",
"%+	c #CEAA96",
"&+	c #DEBE9B",
"*+	c #82725C",
"=+	c #DEC29E",
"-+	c #665E52",
";+	c #E2C6A1",
">+	c #CEB292",
",+	c #6E624E",
"'+	c #EADEDE",
")+	c #867662",
"!+	c #D6C2BA",
"~+	c #A6AAF2",
"{+	c #020EC2",
"]+	c #CAB2A6",
"^+	c #EEE2DA",
"/+	c #F6FAFE",
"(+	c #0616E6",
"_+	c #E6DAD6",
":+	c #4252FA",
"<+	c #2632F6",
"[+	c #8A7A63",
"}+	c #7A6A56",
"|+	c #E6C69E",
"1+	c #A69276",
"2+	c #F2EAEA",
"3+	c #96826A",
"4+	c #AE9679",
"5+	c #665A4D",
"6+	c #6A5E4F",
"7+	c #02024A",
"8+	c #3E4AF6",
"9+	c #CED2FE",
"0+	c #AEA2BE",
"a+	c #02023A",
"b+	c #0E22FE",
"c+	c #DABA9A",
"d+	c #8E8AD2",
"e+	c #D2B2A2",
"f+	c #CEA69A",
"g+	c #BEA68A",
"h+	c #D6BAB4",
"i+	c #EEE2E2",
"j+	c #62564A",
"k+	c #D6B2AA",
"l+	c #423A34",
"m+	c #162AF6",
"n+	c #CEB28C",
"o+	c #564E44",
"p+	c #BEC2F6",
"q+	c #1E2EFA",
"r+	c #323EF6",
"s+	c #DAB6AE",
"t+	c #0616EE",
"u+	c #C6A682",
"v+	c #E2CAC2",
"w+	c #F6F2F2",
"x+	c #E6E6FA",
"y+	c #DEC2A6",
"z+	c #F2EEEE",
"A+	c #BA9E7E",
"B+	c #DEC29A",
"C+	c #766A5A",
"D+	c #8E7E6A",
"E+	c #9E8A72",
"F+	c #E2C29E",
"G+	c #6E6252",
"                                                                ",
"                                                                ",
"                                                                ",
"                                                                ",
"                                                                ",
"                                                                ",
"                                                                ",
"                              +   < V.r i.  5+b.N.5+            ",
"                            C+[.6+5+-+[+*+` 6+0 9.N.C+j+        ",
"                      r M.+ } J 8.)+)+M.3+G+*+1+3+*+f [+G+u.    ",
"                    #.b.h.[+-+9.( N ( ( -. +H h.3+9.1+>.1+      ",
"                n 6+D+8.% - 9.b *.!+R.[ d+q U.p I.S.5 I.&+      ",
"              F .+G+E+1+% ( c.S / 8+Y.m+Y.r+%.~ S p $+x.m.m.    ",
"            o+s.G+e.H -.y+z q.p+W T.o.m+> 6 4 :+'.I U I.;+;+    ",
"            #.O [+L.P.1.^+z+x+Q b+o.| h /+Z.& q+f.x+_+s /.;+|+  ",
"        W.H E+h.u %+G.w ; $._.y T.c E 7 : ~ :. .^.l 2.x 9 T x.  ",
"    W.D.#+H.H.(.(.s+U ^+2+w+' @.o.X t . ! V {+D W _.I x m 6.m.  ",
"# {.z.A 5 o 6.A.k+r.E.I ; $._.y T._ a+O.O.* n.(+v.3 `.p.e F+K |+",
"  K K z.A l.4.f+k.k+8 g _+2+w.Y m+Q.!.7+$ !._ g.> _+i j.{.F+m.  ",
"      A+N x.z.<.<.]+e+7.h+g '+: ] g.D {+_ Q.M B ~ g $+#+5 x.|+  ",
"          - x.z.A z.z.&+&+&.G.1.0+~.g.3.b+<+= d+i I.- 3+9.b     ",
"                @ >.f 8.-.A &+;+=+]+1 1 d F.k }.++M.}+a [+      ",
"                    C.l+,+[+9.J.W.J -.n+5 @ 6+)+^ s.s.j+,+      ",
"                            .+6+  F O O ) + u.  + F             ",
"                                      n                         ",
"                                                                ",
"                                                                ",
"                                                                ",
"                                                                ",
"                                                                ",
"                                                                ",
"                                                                "};
