/* XPM */
static char * Angeb_Richtung_32_xpm[] = {
"32 32 215 2",
"  	c None",
". 	c #020E8A",
"+ 	c #BE3A02",
"@ 	c #023E5A",
"# 	c #9E3202",
"$ 	c #0E662E",
"% 	c #6A4E0E",
"& 	c #565A0A",
"* 	c #067E1A",
"= 	c #728E4A",
"- 	c #E67646",
"; 	c #9A7632",
"> 	c #020EB6",
", 	c #4A6212",
"' 	c #2E823A",
") 	c #4A7222",
"! 	c #BE6A2E",
"~ 	c #6E620E",
"{ 	c #9E6A26",
"] 	c #427E32",
"^ 	c #020EC6",
"/ 	c #528A46",
"( 	c #DA5A1E",
"_ 	c #022EBE",
": 	c #12862A",
"< 	c #CA3E02",
"[ 	c #9A4E12",
"} 	c #429E4E",
"| 	c #5EAA66",
"1 	c #6A7A2A",
"2 	c #026A2A",
"3 	c #2A9236",
"4 	c #1E6E1E",
"5 	c #D23E02",
"6 	c #020A92",
"7 	c #92460A",
"8 	c #020ECA",
"9 	c #3E8A32",
"0 	c #023676",
"a 	c #D24E0E",
"b 	c #B24A0A",
"c 	c #1E821E",
"d 	c #0E6E56",
"e 	c #5A924A",
"f 	c #AA3E02",
"g 	c #66B26E",
"h 	c #0212DE",
"i 	c #027A22",
"j 	c #866A26",
"k 	c #020A9E",
"l 	c #1A8E2A",
"m 	c #76A25E",
"n 	c #5AA25A",
"o 	c #DE4202",
"p 	c #DE6A32",
"q 	c #023A9E",
"r 	c #329A3E",
"s 	c #EA8A66",
"t 	c #96661E",
"u 	c #0222D6",
"v 	c #AE460A",
"w 	c #AE3602",
"x 	c #1E8A2A",
"y 	c #023E6A",
"z 	c #0212F2",
"A 	c #127A3E",
"B 	c #4E9A46",
"C 	c #BE4606",
"D 	c #36963E",
"E 	c #02227A",
"F 	c #827E36",
"G 	c #06821A",
"H 	c #0216A6",
"I 	c #DE4A0A",
"J 	c #6E5E22",
"K 	c #7AA666",
"L 	c #469E52",
"M 	c #167A16",
"N 	c #0212A6",
"O 	c #B63602",
"P 	c #1E8E2A",
"Q 	c #9A8642",
"R 	c #228242",
"S 	c #021AE2",
"T 	c #C64606",
"U 	c #826616",
"V 	c #0236AA",
"W 	c #768646",
"X 	c #82A666",
"Y 	c #D64602",
"Z 	c #02624A",
"` 	c #369A42",
" .	c #0E8622",
"..	c #0212BA",
"+.	c #268E3E",
"@.	c #E26632",
"#.	c #0216E2",
"$.	c #AE6E2A",
"%.	c #2E7226",
"&.	c #E2561A",
"*.	c #020EAA",
"=.	c #02722E",
"-.	c #024276",
";.	c #46A652",
">.	c #52AA5E",
",.	c #3E9E4A",
"'.	c #CE4206",
").	c #0216EE",
"!.	c #067A26",
"~.	c #02327A",
"{.	c #5EAE66",
"].	c #DA4202",
"^.	c #024296",
"/.	c #AE3E02",
"(.	c #020EC2",
"_.	c #0A3AB2",
":.	c #5AA65E",
"<.	c #026E2E",
"[.	c #1A724E",
"}.	c #128A22",
"|.	c #4AA656",
"1.	c #9E3A0A",
"2.	c #9A7E3E",
"3.	c #E6723E",
"4.	c #EA926A",
"5.	c #1E922E",
"6.	c #0A3A86",
"7.	c #020EAE",
"8.	c #2A9636",
"9.	c #369E46",
"0.	c #B63A02",
"a.	c #021EE6",
"b.	c #1E8A3A",
"c.	c #2E963A",
"d.	c #A24E16",
"e.	c #8AA262",
"f.	c #0A3E7E",
"g.	c #026E32",
"h.	c #667A36",
"i.	c #023686",
"j.	c #168A26",
"k.	c #0A7A1A",
"l.	c #0A3A92",
"m.	c #765E22",
"n.	c #D64202",
"o.	c #C64202",
"p.	c #DE4606",
"q.	c #269236",
"r.	c #021AF2",
"s.	c #0216E6",
"t.	c #4EA65A",
"u.	c #42A24E",
"v.	c #06861A",
"w.	c #0216B2",
"x.	c #023E82",
"y.	c #0E8A1E",
"z.	c #0212AA",
"A.	c #BA3602",
"B.	c #0212BE",
"C.	c #020E8E",
"D.	c #924A0E",
"E.	c #62B26A",
"F.	c #020EBE",
"G.	c #0212E2",
"H.	c #067E1E",
"I.	c #3A9E46",
"J.	c #0236B2",
"K.	c #026E3A",
"L.	c #0216EA",
"M.	c #02425E",
"N.	c #0212C6",
"O.	c #0212CE",
"P.	c #020E9E",
"Q.	c #CA4A0A",
"R.	c #5AAA62",
"S.	c #A25216",
"T.	c #667E36",
"U.	c #D63E02",
"V.	c #0216F2",
"W.	c #020EB2",
"X.	c #C23A02",
"Y.	c #0A821E",
"Z.	c #22922E",
"`.	c #0212C2",
" +	c #3A9E4A",
".+	c #D24202",
"++	c #2A923E",
"@+	c #A63E0A",
"#+	c #228E32",
"$+	c #0A7A2E",
"%+	c #16862A",
"&+	c #067A22",
"*+	c #0A7E22",
"=+	c #2A963A",
"-+	c #964606",
";+	c #B64A0A",
">+	c #C24602",
",+	c #066246",
"'+	c #3A9A46",
")+	c #0A7A2A",
"!+	c #BA3A02",
"~+	c #066E3A",
"{+	c #329A42",
"]+	c #3E9E4E",
"^+	c #0212E6",
"/+	c #DE4A0E",
"(+	c #229232",
"_+	c #2E963E",
":+	c #42A252",
"<+	c #1E8E2E",
"[+	c #021AE6",
"}+	c #0A3AB6",
"|+	c #8AA266",
"1+	c #020E92",
"2+	c #62B26E",
"                            s.O.                                ",
"                            ^+F.                                ",
"                            #.>                                 ",
"      ].                    ^+>                                 ",
"        5 +               L.s.W.7.                              ",
"          5 +             L.L...N                               ",
"          ].n.w #         L.^+W.N                               ",
"            o 5 w A.    u _ q i.0 y                             ",
"              o 5 A.    d A : :  .*+!.                          ",
"                  '.@+%.<+q.8.8.Z.l  .H.g.                      ",
"                  m.;+D.] ` ` ` r 8.<+ .&+                      ",
"                  ' T.T [ / t.|.:+I.c.(+ .=.                    ",
"                [.3 } F Q.d.W = e L '+=+l *+Z                   ",
"            w.6.R I.;.>.2.Y n.< d.h.,.` Z. .K.V                 ",
"      7.z.H H f.+.,.t.{.X a I I 5 v h.'+8.}.i q [+a.            ",
"`.> > B.> F.> l.c.,.>.g |+/+3.- I X.j  +q.j.G x.#.V.V.z z       ",
"  #.h ^+L.V.)._.=+} >.2+e.&.s 4.&.+ J D q.j.* M.*.W.*...`.N.8 h ",
"        ^+s.S _.+.'+|.R.m ! p p p.< 7 ) x  .* @ . C.1+k k k     ",
"                b.D :+>.{.m Q $.; { o.7 , M 2 E C.k             ",
"                 .8.{+} |.t.:.n :+B t o.@+& $                   ",
"                  x 8._+]+,.u.u.` _+9 U C f %                   ",
"                    %+(+q.c.c.=+3 5.l c ~ o.O 1.                ",
"                      $+: l x l j. .v.k.4 b .+A.                ",
"                        ~+)+G v.* i <.,+    o .+!+              ",
"                          -.~.i.q x.          o < A.O           ",
"                            *.(.V.).            ]..++ O         ",
"                            *.(.V.                o             ",
"                            W.B.V.                ].            ",
"                            > F.V.                              ",
"                            F.`.z                               ",
"                              (.).                              ",
"                              N.                                "};
