/* XPM */
static char * Angeb_All_32_xpm[] = {
"192 32 256 2",
"  	c None",
". 	c #030305",
"+ 	c #045E42",
"@ 	c #605648",
"# 	c #6A964A",
"$ 	c #BE3A02",
"% 	c #66B16D",
"& 	c #A83C05",
"* 	c #02024E",
"= 	c #E3C49C",
"- 	c #2A9637",
"; 	c #A67432",
"> 	c #5A560A",
", 	c #829E5A",
"' 	c #024E5E",
") 	c #E6D6C0",
"! 	c #627226",
"~ 	c #020C86",
"{ 	c #A23202",
"] 	c #188B29",
"^ 	c #6A7632",
"/ 	c #49443D",
"( 	c #525FF9",
"_ 	c #C29B98",
": 	c #6EB676",
"< 	c #6A76FA",
"[ 	c #020FAF",
"} 	c #168222",
"| 	c #F7EFD9",
"1 	c #CDB18D",
"2 	c #5E66EC",
"3 	c #A89275",
"4 	c #5A5E8E",
"5 	c #020FC9",
"6 	c #726E92",
"7 	c #1A1A4E",
"8 	c #6C8E78",
"9 	c #A99F8D",
"0 	c #373430",
"a 	c #046E33",
"b 	c #E67442",
"c 	c #3B4BF6",
"d 	c #313EF3",
"e 	c #B27A3A",
"f 	c #F4E8D1",
"g 	c #227646",
"h 	c #C3C5F7",
"i 	c #E6CAA2",
"j 	c #E0B3B1",
"k 	c #6B6478",
"l 	c #06527E",
"m 	c #022AC2",
"n 	c #166666",
"o 	c #578E46",
"p 	c #B2B9FA",
"q 	c #A4A6EE",
"r 	c #D3B793",
"s 	c #476252",
"t 	c #E9DAC5",
"u 	c #1A7E16",
"v 	c #4FA75B",
"w 	c #727E2E",
"x 	c #666EEA",
"y 	c #7E5E0A",
"z 	c #0212D9",
"A 	c #077922",
"B 	c #2C2A24",
"C 	c #A69AC3",
"D 	c #A68242",
"E 	c #8A92F2",
"F 	c #BEAE9D",
"G 	c #DABC9C",
"H 	c #C2A786",
"I 	c #1A6A66",
"J 	c #327A26",
"K 	c #728E7A",
"L 	c #726A16",
"M 	c #565A8A",
"N 	c #E1E1FA",
"O 	c #424AE6",
"P 	c #4A4A56",
"Q 	c #BAAA9A",
"R 	c #628642",
"S 	c #CA4304",
"T 	c #AE6E5E",
"U 	c #B67636",
"V 	c #A8A2D8",
"W 	c #F6DFC6",
"X 	c #B89491",
"Y 	c #02267A",
"Z 	c #40903E",
"` 	c #3D3E5F",
" .	c #565986",
"..	c #0316F6",
"+.	c #D6AE8A",
"@.	c #8E7E36",
"#.	c #B27A72",
"$.	c #3A9E47",
"%.	c #86924E",
"&.	c #D5C2AF",
"*.	c #C7B6A5",
"=.	c #040444",
"-.	c #0236B2",
";.	c #BEAA9A",
">.	c #6EA25E",
",.	c #4B6857",
"'.	c #DECEB9",
").	c #7C7162",
"!.	c #191916",
"~.	c #7E8E4A",
"{.	c #525E0E",
"].	c #D6B6AE",
"^.	c #56762E",
"/.	c #EFE2CD",
"(.	c #46823A",
"_.	c #7273D3",
":.	c #0A7E27",
"<.	c #D23F02",
"[.	c #BEBEEA",
"}.	c #80806E",
"|.	c #83725C",
"1.	c #EA926E",
"2.	c #EFDAC3",
"3.	c #B5A696",
"4.	c #CBBAA7",
"5.	c #7A6A51",
"6.	c #9E7E7E",
"7.	c #A49587",
"8.	c #021E7A",
"9.	c #585CE4",
"0.	c #746754",
"a.	c #627666",
"b.	c #466E1A",
"c.	c #AA4C10",
"d.	c #D2AF9F",
"e.	c #2D9033",
"f.	c #0E5A70",
"g.	c #F3F1F4",
"h.	c #958674",
"i.	c #E2561A",
"j.	c #A28A9C",
"k.	c #E4D2CE",
"l.	c #B2997D",
"m.	c #574F43",
"n.	c #C3B1A0",
"o.	c #0213E3",
"p.	c #0226BE",
"q.	c #1125FB",
"r.	c #9D9482",
"s.	c #E9E6EE",
"t.	c #668E76",
"u.	c #6C947C",
"v.	c #72624B",
"w.	c #8D7F67",
"x.	c #729E84",
"y.	c #DA4B0C",
"z.	c #172DFB",
"A.	c #506E5D",
"B.	c #5A567A",
"C.	c #547461",
"D.	c #E2CEBA",
"E.	c #869E8C",
"F.	c #DEDAE6",
"G.	c #8F8076",
"H.	c #7E460E",
"I.	c #D2A98E",
"J.	c #618670",
"K.	c #0C1EE2",
"L.	c #A89A8B",
"M.	c #5EAA62",
"N.	c #C6BAD2",
"O.	c #DEBE96",
"P.	c #A08C71",
"Q.	c #877971",
"R.	c #B63802",
"S.	c #DFC3A5",
"T.	c #445F4E",
"U.	c #269135",
"V.	c #587A66",
"W.	c #B79F86",
"X.	c #020691",
"Y.	c #DABBB3",
"Z.	c #8289F3",
"`.	c #02022A",
" +	c #CF9E8F",
".+	c #98480B",
"++	c #E5D2BC",
"@+	c #769881",
"#+	c #C2AAA6",
"$+	c #978C7C",
"%+	c #EA8A62",
"&+	c #7BA68A",
"*+	c #4B4C72",
"=+	c #DC4202",
"-+	c #5E6295",
";+	c #868A7C",
">+	c #EADDDA",
",+	c #EAD6C1",
"'+	c #907E98",
")+	c #0F8720",
"!+	c #6E6262",
"~+	c #F1DEC6",
"{+	c #041AEA",
"]+	c #826F51",
"^+	c #045E5E",
"/+	c #DEBE9A",
"(+	c #AE8C8A",
"_+	c #D6B292",
":+	c #EBE9E6",
"<+	c #02189D",
"[+	c #887862",
"}+	c #D8C6B1",
"|+	c #ECE2E4",
"1+	c #D1A5A4",
"2+	c #DEC6C2",
"3+	c #020EA1",
"4+	c #76A288",
"5+	c #CDBEA9",
"6+	c #C04705",
"7+	c #329940",
"8+	c #B0A091",
"9+	c #565676",
"0+	c #42456A",
"a+	c #E0D6D8",
"b+	c #665B4D",
"c+	c #50527C",
"d+	c #F2EEEE",
"e+	c #0A1EFA",
"f+	c #E6BEB9",
"g+	c #5A7E6A",
"h+	c #DDCAB6",
"i+	c #CED0F4",
"j+	c #5E816D",
"k+	c #0E1AD2",
"l+	c #1F902E",
"m+	c #CEB2A0",
"n+	c #5AAC64",
"o+	c #D5AAA7",
"p+	c #DD652E",
"q+	c #916922",
"r+	c #CA9E99",
"s+	c #AF8E92",
"t+	c #CEA688",
"u+	c #42A04F",
"v+	c #D4BDAD",
"w+	c #A38C82",
"x+	c #FAF6DD",
"y+	c #D9AEA9",
"z+	c #958165",
"A+	c #0215EE",
"B+	c #020216",
"C+	c #766A61",
"D+	c #648A74",
"E+	c #02066A",
"F+	c #FEFEFE",
"G+	c #0226A2",
"                                                                                                                                                                    ,+,+,+,+,+                                                                                                                                                                                                                  ",
"                                                                                                                                                                  '.t /./.t ,+,+                                              z                                                                                                                                                   ,+            ",
"                                                                                                                                                                h+~+| | /.t ) ,+)                                           A+z 5                                                                                                                                               ++++++          ",
"                                                                                                              [+]+]+|.]+]+]+      -+                          &.) f f ) &.&.h+++,+++                                        A+z [                                                                                                                                               '.}+&.          ",
"                                                                                      j                     X w.5.v.0.5.]+[+|.  -+M                           './.| ++*.F n.*.h+,+)                     =+                  A+z [                                             . .                                                                                             h+}+4.n.          ",
"                                                                                      y+o+                  1+_ w.]+|.|.|.[+[+C+c+0+                        4.) f t *.F F F F 5+,+,+                      <.$               A+z [ [                                           . . . .                                                                                         ++}+*.F           ",
"                                                                                      _ f+                  '+j.'+Q.Q.|.k B.*+*+0+`                         }+t ++4.Q Q F Q 3.n.'.,+                      =+<.R.R.          ..z [ [                                           . . . . B+                                                                                    ) '.&.*.Q 8+        ",
"                                      / /     / @                                       o+                  c+c+9+c+*+*+0+0+0+` ` 0+                        ++,+v+Q Q Q Q Q 3.Q &.,+,+                      =+<.R.{       {+..o.3+<+                                          0 B !.. . .                                                                                 ~+,+h+v+F 8+L.        ",
"                                b+m.m.@ C+).  @ w.z+).b+                                1+                  *+0+` ` ` 0+0+*+*+*+0+*+                        ,+,+F 3.Q 3.8+3.Q Q 4.,+,+                        =+<.R.      -.l ^++ + +                                         C+C+/ !.. .                                                                               t 2.++h+5+Q L.8+        ",
"                              b+[+|.0.0.|.z+@ b+h.3 [+[+|.                              o+                  *+0+0+*+c+M 4 k !+0.*+*+                      '.++}+3.3.Q 8+8+8+3.Q n.,+,+                        =+=+<.$   :.] l+l+] ] )+:.a                                     $+r.                              k.D.k.,+2.~+W W W                                       ~+) '.5+F L.L.8+        ",
"                        0.3 ]+b+w.3 h.3 3 l.w.z+3 h.[+P.z+[+@                     r+X _ o+                4 c+*+c+M 6 X G.5.@ v.9+c+                      h+'.*.3.3.Q 3.8+7.8+3.F ,+,+                              6+.+J U.- - - U.l+)+A a                                 }.r.L.                      ~+~+~+W ~+2.2.,+) ++D.2.W                                     t t D.&.;.8+7.8+Q         ",
"                      ).[+$+l.0.P.O.O.G m+#+1 1 H W.W.l.H r                       _ o+o+y+f+              -+M '+j.j.1+1+_ |.@ @ C+k                         }+F 3.3.3.Q 3.7.7.L.8+D.,+                              ! 6+.+(.u+u+$.7+- l+)+A                               Q.$+L.                x+| f W W W W ~+2.++h+}+}+&.&.,+W                                   ) t ++}+F 8+L.L.8+F         ",
"                  0 m.w.P.h.H 1 S.5+V E x 9._.V N.}+v+r /+= S.                        y+o+y+                  1+1+r+r+_ X z+v.m.@                           4.n.n.3.8+8+3.7.w+w+8+'.,+                            g e.w 6+c.o v v u+$.- l+)+a                             $+L.9             x+x+| f W W W W W W ~+2.,+,+D.++,+~+W                                   t ++}+*.3.L.7.L.8+*.        ",
"                / P b+z+l.W.1 ,+F.Z.q...{+q.z.q.( [.k.Y.G = =                         _ r+1+3.                _ s+(+s+X s+(+[+0.b+                          *.4.v+*.n.Q 3.7.$+$+3.++,+                            U.7+u+@.S c.; q+R u+$.- ] A l                         }.L.9               f f W ~+~+~+~+~+~+~+~+~+~+~+~+~+~+W W                                 t ) }+*.Q 8+7.7.L.3.4.        ",
"              b+@ 5.z+W.r D.:+g.h ( ..A+k+p i+c z.Z.N |+Y.G i =                       6.(+r+L.K @+                  ;+L.L.E.4+@+                            4.&.D.++}+4.F 7.h.$+F ,+,+                    [ <+<+f.- u+v % e =+=+<.c.^ $.7+l+)+^+m                       r.3.9             /.~+2.2.++}+}+}+h+D.++++,+2.2.~+~+W W W                               ) t ++5+F 8+L.7.7.9 3.n.        ",
"            3 [+|.w.l.G D.|+d+d+E z.o.5 7 s.F+2 e+( h s.Y.X +.i                         (+1+W.J.u.                K @+@+@+4+x.D+j+                            ++,+t t h+F 7.h.$+n.,+,+              [ [ [ [ [ <+n 7+u+M.: D =+i.y.=+& o 7+l+)+a p.{+{+                h.9 3.              ~+~+,+++}+5+4.v+&.}+h+'.D.++++++D.D.++}+                            ) ~+t h+*.Q 9 L.7.7.L.8+8+        ",
"        1 1 H l.H I.o+Y.>+:+g.N 2 e+5 E+B+P _.K.o.c p s.Y.#.T +.                        s+X 8+j+J.u.@+          4+@+t.t.u.u.J.g+C.C.                          h+,+2.f ~+F r.$+8+h+,+,+            z 5 z z z z z I 7+u+n+: e p+1.b y.R.o 7+U.)+a G+o.A+z o.o.o.z       L.Q                 W ~+2.h+5+4.        5+5+5+4.*.n.n.*.4.4.                          ~+t t D.5+F 8+L.L.7.7.7.7.7.        ",
"      1 G _+I.t+ +1+].2+>+:+g.N ( e+5 * . . =.X.5 z.q s.m+#.t+= =                         6.h.D+V.j+t.u.      x.4+D+J.t.t.D+J.V.,.A.                          *.D.t f ~+F r.r.5+t ,+,+              o.o.o.A+A+A+n 7+u+n+% D p+%+b y.{ ^.e.l+)+a Y 3+3+3+[ [ [ 5                         W W ~+2.}+4.                                                        ~+t D.v+Q 8+8+8+8+L.L.7.r.$+        ",
"  = = = O._+I. + +o+].h+>+|+d+g.E z.o.E+`.B+* X.z c [.a+1+r+= = =                         6.;+8 V.V.J.t.@+  @+u.t.J.t.t.D+J.j+g+,.A.                          Q h+t ) 5+9 w+Q >+~+,+,+                      {+{+f.- $.v n+, U p+y.y.S .+b.} :.a 8.~ ~ 3+3+                              ~+W ~+,+}+5+                                                      /.t ++5+n.Q F Q Q Q 3.3.8+L.7.        ",
"      = G r /+r d.d.d.].Y.2+>+d+h ( {+5 ~ E+X.5 {+< i+&.d.G = =           y+j       ;+C.C.  &+@+V.g+J.t.u.8 J.j+g+j+J.J.j+g+J.J.,.,.                          5+,+++5+8+7.F t | t ,+,+                            U.7+u+v M.>.%.~.# q+6+.+{.A ' <+                                      ~+W 2.++}+4.                                                    /./.,+}+*.*.*.*.5+&.}+5+n.F Q Q         ",
"            1 = S./+G G G ].Y.2+a+C O q.o.o.o.{+d V D.G H l.r           1+o+y+j j j 7.,.,.C.&+&+t.j+J.D+D+j+j+g+V.V.V.V.V.g+u.j+C.,.                          ,+,+h+3.7.Q /.| f D.++)                             ] U.7+u+v v v v u+Z q+S & > +                                       ) ~+W 2.++&.                                                    ~+/.~+'.5+5+}+'.) ~+/.W ~+h+*.F F         ",
"              1 = 1 1 1 H G S.S.= v+C 9.d O 2 _.C *.1 3 |.[+H             X X _ r+r+}.,.,.,.D+4+4+u.J.J.J.V.g+g+g+V.C.C.V.t.u.V.C.,.                          ,+,+D.*.3.5+t t D.}+++++                              ] U.- 7+$.$.7+7+U.e.L 6+R.H.                                      ~+W W ,+'.5+                                                  ) ~+t h+&.h+) ~+f f | | | f f '.4.n.        ",
"                      0.@ z+H r O.S.O.m+n.v+r P.l.h.).v.@ b+                  _ X X a.,.,.s C.t.x.x.u.D+j+V.g+g+V.C.C.C.g+t.D+V.A.,.                          ,+) ++++h+}+'.h+&.}+++                                  )+l+U.- - U.l+] )+u y S R.&                                     W W ~+++}+                                                    ,+) h+&.'.) t ~+/././.f f f | ~+'.4.        ",
"                  !.    B   m.m.P.3 b+).3 l.[+/ @ m./ /   0.                  r+X   A.s s T.,.A.D+u.u.t.g+V.V.C.C.C.g+g+g+j+g+C.,.,.                          ,+++h+D.D.h+&.5+&.h+++                                    a } ] )+)+)+:.A a   S <.$                                   k.W ~+,+}+                                                    t t ++'.'.++'.}+4.8+9 8+8+n.}+) ~+t ,+        ",
"                              B         m.b+  0     0                       1+1+    ,.s s s s s A.j+D+D+j+j+j+j+j+j+J.J.j+g+V.A.,.,.                          ,+++}+&.v+4.*.4.&.D.++                                      a a A :.A a +       =+<.R.                                2.~+2.D.5+                                                    /.t ++D.h+5+F 7.G.).).[+Q.w.$+3.h+,+,+        ",
"                                                                                      ,.s s s s s A.V.V.V.j+J.J.J.D+D+j+g+g+C.s ,.s                           ,+) &.4.*.n.*.4.}+D.                                          <+3+z {+            =+<.$ R.              2.~+~+2.2.  ,+2.2.++&.                                                    t /.t D.&.F 7.G.).C+C+C+C+C+).Q.G.3.D.++        ",
"                                                                                                      A.,.A.C.V.g+j+V.C.C.C.s ,.,.s                           ,+++5+*.n.n.*.4.}+D.                                            [ z A+              =+<.R.$             2.~+~+~+~+~+2.,+++h+4.                                                    ++t ++5+3.7.$+G.Q.).).).).).[+w.h.7.4.          ",
"                                                                                                          ,.s s ,.,.s s T.T.s A.s s                           ) ) &.*.*.*.*.5+D.D.                                            [ z ..                =+                  D.D.++~+~+~+2.++h+4.                                                    }+D.&.3.r.$+$+$+h.G.w.G.h.$+w+7.9 8+            ",
"                                                                                                          C.A.,.,.s s s T.,.,.,.s A.                            /.) v+*.*.5+h+++                                              [ z ..                =+                      v+h+++,+2.++}+4.                                                                8+L.7.$+G.                          ",
"                                                                                                          V.C.,.s s s s s ,.s s s g+                            /.f t '.h+++++                                                [ z ..                                          4.5+&.'.}+n.n.                                                                                                    ",
"                                                                                                                                                                  | | f ~+) }+                                                [ z                                                   4.n.                                                                                                        ",
"                                                                                                                                                                    /.~+)                                                       z                                                                                                                                                               "};
