/* XPM */
static char * Angeb_Reflex_32_xpm[] = {
"32 32 171 2",
"  	c None",
". 	c #000000",
"+ 	c #00000D",
"@ 	c #12110D",
"# 	c #0B0B07",
"$ 	c #040402",
"% 	c #000002",
"& 	c #000324",
"* 	c #4F4939",
"= 	c #39362D",
"- 	c #1B1A16",
"; 	c #040403",
"> 	c #000001",
", 	c #00080A",
"' 	c #857E67",
") 	c #827C6C",
"! 	c #53514A",
"~ 	c #11110E",
"{ 	c #040602",
"] 	c #807964",
"^ 	c #98917C",
"/ 	c #979285",
"( 	c #ECDBC1",
"_ 	c #EFDCC5",
": 	c #EEDAC5",
"< 	c #ECD8C4",
"[ 	c #EDD9C3",
"} 	c #EED9C3",
"| 	c #F0DBC3",
"1 	c #F1DCC3",
"2 	c #F2DDC4",
"3 	c #F4DFC6",
"4 	c #787164",
"5 	c #938C75",
"6 	c #A19A85",
"7 	c #F1E0C6",
"8 	c #F3DEC5",
"9 	c #EFDAC2",
"0 	c #EBD6BE",
"a 	c #E7D2BA",
"b 	c #E3CFB7",
"c 	c #DECBB4",
"d 	c #D8C6AF",
"e 	c #DCC9B2",
"f 	c #8B846D",
"g 	c #9E9882",
"h 	c #A39D8A",
"i 	c #FAF8DE",
"j 	c #F9F5DB",
"k 	c #F6E9D0",
"l 	c #F5E5CC",
"m 	c #F4E2C9",
"n 	c #EAD6BD",
"o 	c #E4D0B8",
"p 	c #DDC9B2",
"q 	c #D9C6AF",
"r 	c #D7C5AF",
"s 	c #E0CDB6",
"t 	c #857D67",
"u 	c #9C967F",
"v 	c #A49E89",
"w 	c #F8F3DA",
"x 	c #F7ECD3",
"y 	c #F5E5CB",
"z 	c #F4E0C7",
"A 	c #F1DDC4",
"B 	c #F0DBC2",
"C 	c #EDD9C0",
"D 	c #E8D5BD",
"E 	c #ECD9C0",
"F 	c #979079",
"G 	c #A7A18C",
"H 	c #EFE4C9",
"I 	c #F1E1C7",
"J 	c #F2DFC6",
"K 	c #F2DEC5",
"L 	c #EDD9C1",
"M 	c #E8D4BC",
"N 	c #ECD8BF",
"O 	c #EDD8BF",
"P 	c #EFDAC1",
"Q 	c #8A8369",
"R 	c #A59F8A",
"S 	c #ABA592",
"T 	c #F0DFC6",
"U 	c #EBD8C0",
"V 	c #E7D3BB",
"W 	c #DBC8B2",
"X 	c #D1BFAA",
"Y 	c #D2C0AB",
"Z 	c #D6C4AE",
"` 	c #E1CDB5",
" .	c #E2CFB7",
"..	c #E6D2B9",
"+.	c #E9D5BC",
"@.	c #ECD7BE",
"#.	c #EED9C1",
"$.	c #F0DCC3",
"%.	c #9C957E",
"&.	c #AEA896",
"*.	c #ABA69A",
"=.	c #ECDDC1",
"-.	c #F3DFC6",
";.	c #EFDBC2",
">.	c #DDCBB3",
",.	c #CFBDA7",
"'.	c #CBBAA4",
").	c #C7B69F",
"!.	c #CEBEA7",
"~.	c #D3C0AB",
"{.	c #D4C3AC",
"].	c #D8C5AE",
"^.	c #D8C7B0",
"/.	c #DAC8B1",
"(.	c #DAC7B1",
"_.	c #D8C5B0",
":.	c #D5C3AD",
"<.	c #D3C2AD",
"[.	c #CBBAA5",
"}.	c #A8A28F",
"|.	c #B1AC9C",
"1.	c #E9D5BE",
"2.	c #D5C4AD",
"3.	c #C2B5A3",
"4.	c #B0A2A2",
"5.	c #E6D2BB",
"6.	c #D5C2AC",
"7.	c #CABAA5",
"8.	c #D6C3AC",
"9.	c #E1D6BD",
"0.	c #F3DEC6",
"a.	c #EDD8C0",
"b.	c #E0CCB5",
"c.	c #D4C1AB",
"d.	c #EEDBC5",
"e.	c #ECD7BF",
"f.	c #DDCAB3",
"g.	c #CEBFA7",
"h.	c #E6D3BA",
"i.	c #D6C5AD",
"j.	c #E8D5C8",
"k.	c #EBD7BE",
"l.	c #DCCAB3",
"m.	c #EDD9C7",
"n.	c #E2CEB6",
"o.	c #CEC0A8",
"p.	c #F2DDC6",
"q.	c #E6D2BA",
"r.	c #D6C5AE",
"s.	c #F2DDC5",
"t.	c #F1DCC6",
"u.	c #F0DBC6",
"v.	c #EEDAC4",
"w.	c #EAD6BE",
"x.	c #DBC9B2",
"y.	c #CDBCA8",
"z.	c #E9D5BD",
"A.	c #DCC8B2",
"B.	c #D8C5AF",
"C.	c #E2CEB7",
"D.	c #F1DCC4",
"E.	c #ECD8C0",
"F.	c #E4D1BA",
"G.	c #D8C6B0",
"H.	c #CCBAA5",
"I.	c #DFCDB5",
"J.	c #CBBAA8",
"K.	c #C8B7A3",
"L.	c #CDBCA7",
"M.	c #CCBBA6",
"N.	c #BCAC9E",
"                                                                ",
"                                                                ",
"                                                                ",
"                                                                ",
"                                                                ",
"            . .                                                 ",
"          . . . . +                                             ",
"            @ # $ % + &                                         ",
"            * = - ; > ,                                         ",
"            ' ) ! ~ {                                           ",
"          ] ^ /                           ( _ : < [ } | 1 2 3 3 ",
"        4 5 6                       7 3 3 3 8 9 0 a b c d e 1 3 ",
"        f g h               i j k l m 3 3 3 8 n o c p q r s 2 3 ",
"      t u v               w x y z 3 3 3 3 3 3 8 A B C D E A 3 3 ",
"      F G G             H I J K L M n n 0 N O C P B B 1 2 3 3 3 ",
"    Q R S               T L U V W X Y Z e `  ...+.@.#.$.8 3 3 3 ",
"    %.&.*.            =.-.;.D >.,.'.).!.~.{.].^./.W (._.:.Y <.[.",
"    }.|.              3 -.$.1.2.[.            3.      4.        ",
"                      3 3 2 5.6.7.                              ",
"                      8 3 | o 8.                                ",
"                    9.0.8 a.b.c.                                ",
"                    d.3 8 e.f.g.                                ",
"                    -.3 1 h.i.                                  ",
"                  j.3 8 k.l.                                    ",
"                  m.3 B n.o.                                    ",
"                  p.1 q.r.                                      ",
"    s.0.p.t.u.: v.9 w.x.y.                                      ",
"    z.C P 8 3 s.#.M  .:.                                        ",
"      A.B.C.P D.1 E.F.G.                                        ",
"          H.B.I.V k.e J.                                        ",
"              K.L.B.M.N.                                        ",
"                                                                "};
