/* XPM */
static char * Angeb_Nase_32_xpm[] = {
"32 32 251 2",
"  	c None",
". 	c #EAD7C2",
"+ 	c #E6D3BF",
"@ 	c #E5D3BE",
"# 	c #DDCBB8",
"$ 	c #D5C3B1",
"% 	c #D6C5B1",
"& 	c #DCCBB7",
"* 	c #D7C5B2",
"= 	c #C8B8A6",
"- 	c #C2B2A1",
"; 	c #E1CFBA",
"> 	c #D1C0AD",
", 	c #C6B5A3",
"' 	c #BDAC9C",
") 	c #E7D5BF",
"! 	c #DCCAB6",
"~ 	c #CEBDAA",
"{ 	c #C3B3A0",
"] 	c #B5A695",
"^ 	c #ECDCC6",
"/ 	c #D9C8B4",
"( 	c #CCBBA8",
"_ 	c #BDAD9B",
": 	c #AFA091",
"< 	c #A69889",
"[ 	c #EADBC4",
"} 	c #EBDAC4",
"| 	c #E3D1BC",
"1 	c #D9C7B3",
"2 	c #B5A595",
"3 	c #A8998B",
"4 	c #B0A091",
"5 	c #E4D6C0",
"6 	c #EBDBC4",
"7 	c #E4D4BE",
"8 	c #DBCAB5",
"9 	c #CCBBA9",
"0 	c #BBAA9A",
"a 	c #A99A8B",
"b 	c #A7998A",
"c 	c #B4A495",
"d 	c #E9DBC4",
"e 	c #E7D7C1",
"f 	c #DECCB8",
"g 	c #CDBBA8",
"h 	c #BAA998",
"i 	c #AB9C8D",
"j 	c #BBAC9B",
"k 	c #E5D6C0",
"l 	c #E7D8C2",
"m 	c #E0D0BA",
"n 	c #D2C0AD",
"o 	c #BAAA9A",
"p 	c #A59788",
"q 	c #B3A493",
"r 	c #C2B2A0",
"s 	c #E4D5BF",
"t 	c #E8D9C2",
"u 	c #DFCEB9",
"v 	c #D2C1AE",
"w 	c #C4B2A1",
"x 	c #B1A292",
"y 	c #A7988A",
"z 	c #A49688",
"A 	c #A89A8B",
"B 	c #B4A595",
"C 	c #E9D9C4",
"D 	c #E3D3BD",
"E 	c #D4C3B0",
"F 	c #C5B4A2",
"G 	c #B8A897",
"H 	c #AC9D8E",
"I 	c #A59789",
"J 	c #A59688",
"K 	c #AB9D8E",
"L 	c #B9A999",
"M 	c #CFBEAB",
"N 	c #E9D9C3",
"O 	c #DFCDB9",
"P 	c #CAB9A7",
"Q 	c #BCAB9A",
"R 	c #AFA090",
"S 	c #AD9E8F",
"T 	c #BAAA99",
"U 	c #C4B4A3",
"V 	c #E8D8C2",
"W 	c #ECDDC6",
"X 	c #E9D7C2",
"Y 	c #D8C6B3",
"Z 	c #C4B3A1",
"` 	c #AA9B8C",
" .	c #A49687",
"..	c #A39587",
"+.	c #AD9F90",
"@.	c #EBDCC5",
"#.	c #EADAC3",
"$.	c #EAD8C3",
"%.	c #DDCBB7",
"&.	c #B7A797",
"*.	c #AC9D8D",
"=.	c #AA9B8B",
"-.	c #A29486",
";.	c #A19486",
">.	c #A39688",
",.	c #EFE0C9",
"'.	c #E9D7C1",
").	c #DFCDB8",
"!.	c #CBBAA7",
"~.	c #B0A191",
"{.	c #AE9F8F",
"].	c #A99A8C",
"^.	c #A19488",
"/.	c #9B8E83",
"(.	c #9C9083",
"_.	c #EFE1C9",
":.	c #EAD9C3",
"<.	c #BEAF9E",
"[.	c #BAAB9B",
"}.	c #BCAC9C",
"|.	c #B8A998",
"1.	c #B3A494",
"2.	c #B0A193",
"3.	c #A4988F",
"4.	c #A4978D",
"5.	c #F1E3CC",
"6.	c #EFDFC8",
"7.	c #E7D4BF",
"8.	c #D3C2AF",
"9.	c #C5B5A3",
"0.	c #C6B5A4",
"a.	c #C7B6A4",
"b.	c #C9B8A6",
"c.	c #D5C3B0",
"d.	c #C0AF9E",
"e.	c #BBAB9B",
"f.	c #B8A89C",
"g.	c #B8AA9E",
"h.	c #EDDEC7",
"i.	c #F0E1CA",
"j.	c #EBD9C4",
"k.	c #DAC8B4",
"l.	c #CDBCA9",
"m.	c #CEBEAB",
"n.	c #D8C7B4",
"o.	c #E0CFBB",
"p.	c #E9D8C3",
"q.	c #EEDDC7",
"r.	c #F4E3CD",
"s.	c #F4E2CC",
"t.	c #EDDAC5",
"u.	c #D8C6B2",
"v.	c #BFAE9E",
"w.	c #BFB0A0",
"x.	c #E9D8C2",
"y.	c #EDDCC6",
"z.	c #E8D6C1",
"A.	c #DAC8B5",
"B.	c #D3C3AF",
"C.	c #DBCAB6",
"D.	c #E5D5C0",
"E.	c #EEE0CA",
"F.	c #F4E7D0",
"G.	c #F7EAD3",
"H.	c #F7ECD4",
"I.	c #F9EDD5",
"J.	c #F9EDD6",
"K.	c #F8EBD4",
"L.	c #F0DFC9",
"M.	c #DBC9B5",
"N.	c #C7B5A4",
"O.	c #D5C4B1",
"P.	c #DECEBA",
"Q.	c #E6D6C1",
"R.	c #EBDCC6",
"S.	c #EDDFC9",
"T.	c #EFE2CC",
"U.	c #F0E3CD",
"V.	c #F2E5CE",
"W.	c #F4E8D1",
"X.	c #D6C5B2",
"Y.	c #C9B8A7",
"Z.	c #E0CFBA",
"`.	c #E2D2BD",
" +	c #DDCDB9",
".+	c #D6C6B3",
"++	c #C3B4A2",
"@+	c #B2A394",
"#+	c #D7C8B4",
"$+	c #E7D8C3",
"%+	c #EEDEC9",
"&+	c #EAD8C2",
"*+	c #E8D5C0",
"=+	c #E7DAC5",
"-+	c #EFE2CB",
";+	c #E8D7C2",
">+	c #E0CEBA",
",+	c #D9C7B4",
"'+	c #B6A797",
")+	c #A09385",
"!+	c #8A7E72",
"~+	c #7E7469",
"{+	c #7E7368",
"]+	c #81766B",
"^+	c #85796E",
"/+	c #8E8175",
"(+	c #9E9183",
"_+	c #BDAE9C",
":+	c #ECDFC9",
"<+	c #EFE1CB",
"[+	c #E7D6C2",
"}+	c #B9A898",
"|+	c #A09183",
"1+	c #8C7F73",
"2+	c #7C7166",
"3+	c #756B61",
"4+	c #776C62",
"5+	c #7D7267",
"6+	c #84796E",
"7+	c #918478",
"8+	c #BBAC9C",
"9+	c #E4D2BE",
"0+	c #EBDBC5",
"a+	c #B2A292",
"b+	c #A49587",
"c+	c #978A7D",
"d+	c #8D8074",
"e+	c #84786C",
"f+	c #7B7066",
"g+	c #7B7166",
"h+	c #7C7167",
"i+	c #7F7368",
"j+	c #83786C",
"k+	c #8A7D72",
"l+	c #94877A",
"m+	c #D4C1AF",
"n+	c #D8C8B4",
"o+	c #E1CFBB",
"p+	c #CCBCAA",
"q+	c #9D8F82",
"r+	c #9B8E80",
"s+	c #998C7E",
"t+	c #96897C",
"u+	c #928579",
"v+	c #8D8075",
"w+	c #988B7E",
"x+	c #9D9082",
"y+	c #AA9C8D",
"z+	c #9F9184",
"A+	c #95887B",
"B+	c #8C8074",
"                                                                ",
"                                            .                   ",
"                                          + + @                 ",
"                                          # $ %                 ",
"                                        & * = -                 ",
"                                      @ ; > , '                 ",
"                                      ) ! ~ { ]                 ",
"                                    ^ @ / ( _ : <               ",
"                                  [ } | 1 = 2 3 4               ",
"                                5 6 7 8 9 0 a b c               ",
"                                d e f g h i < 4 j               ",
"                              k l m n o i p b q r               ",
"                            s t u v w x y z A B =               ",
"                            C D E F G H I J K L M               ",
"                          t N O P Q R a J p S T U               ",
"                        V W X Y Z ] ` b  ...b S +.              ",
"                      @.#.$.%.9 &.*.=.y z -.;.-.>.              ",
"                    ,.W '.).!.L ~.R {.i ].< ^./.(.              ",
"                    _.:.).9 <.[.}.T T |.B 1.2.3.4.              ",
"                  5.6.7.8.9.0.a.b.~ c.% 9 d.e.f.g.              ",
"                h.i.j.k.l.m.n.o.p.q.r.s.t.u., v.w.              ",
"              x.y.z.A.B.C.D.E.F.G.H.I.J.K.L.M.N.-               ",
"              X @ k.O.P.Q.R.S.E.T.U.V.W.H.G.^ X.Y.              ",
"            R.p.; %.Z.`. +.+++: i H @+U #+$+%+&+*+              ",
"          =+-+;+| >+,+9 '+)+!+~+{+]+^+/+(+_+>+X .               ",
"          :+<+[+O ~ }+|+1+2+3+3+3+3+4+5+6+7+8+9+                ",
"          $+0+u b.a+b+c+d+e+2+f+g+h+i+j+k+l+b m+                ",
"          n+o+p+R q+r+s+t+u+1+!+v+u+w+x+p y+{.                  ",
"                      i I z+A+B+                                ",
"                                                                ",
"                                                                ",
"                                                                "};
