/* XPM */
static char * Anleitung_xpm[] = {
"32 32 256 2",
"  	c None",
". 	c #020202",
"+ 	c #DADA1A",
"@ 	c #AEAE16",
"# 	c #9A9A06",
"$ 	c #66120A",
"% 	c #6A6222",
"& 	c #C6422A",
"* 	c #1E2206",
"= 	c #8A0A06",
"- 	c #9A1A12",
"; 	c #464A0A",
"> 	c #060602",
", 	c #AE2A1A",
"' 	c #120E02",
") 	c #F2F24A",
"! 	c #B6B622",
"~ 	c #5A2216",
"{ 	c #7A7A02",
"] 	c #E2E22E",
"^ 	c #1E1A06",
"/ 	c #565A16",
"( 	c #DA5232",
"_ 	c #3E3E06",
": 	c #221E06",
"< 	c #E6E62E",
"[ 	c #767676",
"} 	c #D2D20A",
"| 	c #9E3E26",
"1 	c #463232",
"2 	c #4E521A",
"3 	c #560A06",
"4 	c #BEBE2A",
"5 	c #868216",
"6 	c #4A120E",
"7 	c #5E2616",
"8 	c #C6C23A",
"9 	c #5A4642",
"0 	c #A6A606",
"a 	c #66160E",
"b 	c #D6DA3E",
"c 	c #E6E656",
"d 	c #5A3A32",
"e 	c #8A2216",
"f 	c #CECE2A",
"g 	c #565A1E",
"h 	c #BA3622",
"i 	c #D24A2E",
"j 	c #5A5E0E",
"k 	c #5E120A",
"l 	c #92120A",
"m 	c #9EA22E",
"n 	c #9E1E12",
"o 	c #66625E",
"p 	c #E25A3A",
"q 	c #8A8616",
"r 	c #D2CE42",
"s 	c #860606",
"t 	c #EEEE3E",
"u 	c #C23E26",
"v 	c #762216",
"w 	c #E2E226",
"x 	c #9E321E",
"y 	c #2E2A0A",
"z 	c #524E4E",
"A 	c #4E160E",
"B 	c #A22216",
"C 	c #DADA46",
"D 	c #EAEA3A",
"E 	c #969626",
"F 	c #B22E1E",
"G 	c #4A3632",
"H 	c #FAFA5A",
"I 	c #521A0E",
"J 	c #CECE2E",
"K 	c #422E2E",
"L 	c #AAAA0E",
"M 	c #8E8E12",
"N 	c #6A6A1E",
"O 	c #AEAE2A",
"P 	c #7A7626",
"Q 	c #A6A60A",
"R 	c #52322E",
"S 	c #EEEE46",
"T 	c #564242",
"U 	c #721A12",
"V 	c #AAAA22",
"W 	c #BE3622",
"X 	c #E2E23A",
"Y 	c #8A8E1E",
"Z 	c #B6321E",
"` 	c #CA422A",
" .	c #E25636",
"..	c #9A160E",
"+.	c #A62216",
"@.	c #D2D22E",
"#.	c #A6A60E",
"$.	c #DEDE1E",
"%.	c #5A0A06",
"&.	c #F6F652",
"*.	c #CACA26",
"=.	c #E2E24E",
"-.	c #EAEA36",
";.	c #920E0A",
">.	c #D6D612",
",.	c #D64E32",
"'.	c #D2D226",
").	c #9E9E1E",
"!.	c #561E12",
"~.	c #92921E",
"{.	c #52362E",
"].	c #BE3A26",
"^.	c #5E4A42",
"/.	c #72721A",
"(.	c #DE5636",
"_.	c #96160E",
":.	c #CA462A",
"<.	c #A62616",
"[.	c #8E0E0A",
"}.	c #A2A212",
"|.	c #620E0A",
"1.	c #A29E1A",
"2.	c #262A0E",
"3.	c #626612",
"4.	c #E6E632",
"5.	c #D2D252",
"6.	c #6A160E",
"7.	c #A6A616",
"8.	c #CACA2E",
"9.	c #B6BA3E",
"0.	c #86822A",
"a.	c #42322E",
"b.	c #B2B226",
"c.	c #E65E3A",
"d.	c #5A5252",
"e.	c #7E7E7E",
"f.	c #D6D63E",
"g.	c #7E0E0A",
"h.	c #DEDE26",
"i.	c #463632",
"j.	c #B6B216",
"k.	c #D6D636",
"l.	c #DE5236",
"m.	c #96120E",
"n.	c #CE462E",
"o.	c #AA261A",
"p.	c #CECE3A",
"q.	c #DEDE36",
"r.	c #92920E",
"s.	c #6E1A0E",
"t.	c #B2B632",
"u.	c #62160E",
"v.	c #A6A226",
"w.	c #DAD62A",
"x.	c #C23A26",
"y.	c #A6AA1A",
"z.	c #DADA3E",
"A.	c #5A0E0A",
"B.	c #9E1A12",
"C.	c #5E2216",
"D.	c #A21E12",
"E.	c #C63E26",
"F.	c #AEB21A",
"G.	c #5E4642",
"H.	c #E6E642",
"I.	c #8E0A06",
"J.	c #868A2A",
"K.	c #C6C63A",
"L.	c #5A1E12",
"M.	c #9E9E0E",
"N.	c #26220A",
"O.	c #4E4A0E",
"P.	c #5E5E16",
"Q.	c #56521A",
"R.	c #625E12",
"S.	c #5A3632",
"T.	c #92921A",
"U.	c #5E3E32",
"V.	c #DEDE46",
"W.	c #EAEA3E",
"X.	c #A6A21E",
"Y.	c #E65A3A",
"Z.	c #CECE16",
"`.	c #7A2616",
" +	c #767A1E",
".+	c #721E12",
"++	c #B63222",
"@+	c #A2A22E",
"#+	c #9E9E0A",
"$+	c #060A02",
"%+	c #6E6E1E",
"&+	c #D2D622",
"*+	c #DADA1E",
"=+	c #DEDE4A",
"-+	c #62120C",
";+	c #E2E22A",
">+	c #E6E636",
",+	c #F6F656",
"'+	c #A6A61A",
")+	c #F2F24E",
"!+	c #5E3A32",
"~+	c #561A12",
"{+	c #56362E",
"]+	c #5E0E08",
"^+	c #767A26",
"/+	c #222606",
"(+	c #52160E",
"_+	c #DEDA42",
":+	c #E2DE26",
"<+	c #EEEE42",
"[+	c #7A2216",
"}+	c #D6D232",
"|+	c #4A4A12",
"1+	c #8E8E1A",
"2+	c #DEE242",
"3+	c #D2D236",
"4+	c #DEDE22",
"5+	c #E2E256",
"6+	c #9A9E26",
"7+	c #727222",
"8+	c #929216",
"9+	c #563632",
"0+	c #9A9622",
"a+	c #5A4242",
"b+	c #EA5E3A",
"c+	c #AAAA16",
"d+	c #761E12",
"e+	c #D6D616",
"f+	c #5A5A16",
"g+	c #5E0A06",
"h+	c #B2B21E",
"i+	c #D6D61E",
"j+	c #DADA42",
"k+	c #AAAA12",
"l+	c #AEAE2E",
"m+	c #EEEE4A",
"n+	c #AAAA26",
"o+	c #A6A61E",
"p+	c #521A12",
"q+	c #FAFA5E",
"r+	c #5E4A46",
"s+	c #E2E252",
"t+	c #DEDE4E",
"u+	c #A2A216",
"v+	c #929212",
"w+	c #AEAE1A",
"x+	c #66120E",
"y+	c #D2D20E",
"z+	c #CACA32",
"A+	c #D6D63A",
"B+	c #6E1A12",
"C+	c #5A1E16",
"D+	c #9E9E12",
"E+	c #6A6A22",
"F+	c #E2E23E",
"G+	c #D2D232",
"                                                                ",
"      o r+^.^.^.^.^.G.G.G.9 9 9 9 9 9 9 9 9 9 9 9 a+T T e.      ",
"      U.b+c.Y.p  .(.l.( ( ,.,.i i n.n.:.` & E.u x.].W h z       ",
"      !+c.Y.p  .| C.C.~ ~ ~ C+!.!.!.!.!.p+p+p+x ].W h h z       ",
"      d Y.p  .(.7 5.c c s+s+=.=+=+V.V.j+j+z.@+`.W h h ++z       ",
"      d p  .(.l.C.c q+H H ,+&.% 9.) ) S S <+l+[+h h ++Z z       ",
"      d  .(.l.( C.5+H H ,+&.r . g ) S S <+t l+v h ++Z F z       ",
"      d (.l.( ( ~ s+H ,+&.&.0.Q.$+2+S <+W.W.O v ++Z F F z       ",
"      d l.( ( ,.~ s+,+&.&.)+7+8 . J.<+W.W.D O v Z F F , z       ",
"      d ( ( ,.,.~ t+&.&.)+8 ^+K.N.2.W.W.D -.n+d+F F , , z       ",
"      d ( ,.,.i L.=+&.)+) P m @+%+. t.D -.>+n+.+F , , o.z       ",
"      d ,.,.i i L.=+)+)+m+E+S <+X ' / -.>+4.V .+, , o.o.z       ",
"      S.,.i i n.!.V.)+_+N 2 b W.z+y > 6+4.< V U , o.o.<.z       ",
"      9+i i n.n.!.C ) H.p.p.F+W.q.8.8.J < ] o+B+o.o.<.+.z       ",
"      9+i n.n.:.!.j+S S <+W.W.D -.>+4.< ] ;+o+B+o.<.+.B z       ",
"      9+n.n.:.` ~+z.S <+W.E E f+ + +< ] ;+w '+s.<.+.B D.z       ",
"      9+n.:.` & p+f.<+t W.v.v./.Y Y ] ;+w h.'+6.+.B D.n z       ",
"      {+:.` & E.p+A+t W.D -.>+4.< ] ;+w h.4+u+6.B D.n B.z       ",
"      {+` & E.u p+A+W.D }+|+~.~.~.1+T.h.4+$.u+6.D.n B.- z       ",
"      {+& E.u x.I k.D -.0+P.b.! 5 . j 4+$.*+u+x+n B.- ..z       ",
"      {+E.u x.].(+3+-.>+4 ] ] w.: * &+$.*++ }.x+B.- .._.z       ",
"      {.u x.].W A G+>+4.< ] ;+R.. y.$.*++ + D+$ - .._.m.z       ",
"      R x.].W h A @.4.< ] ;+X.. 3.$.*++ + e+M.-+.._.m.l z       ",
"      R ].W h h A J < ] ;+'.^ /+i+*++ + e+>.M.|._.m.l l z       ",
"      R W h h ++A f ] ;+:+O.> F.*++ j.Z.>.>.#+|.m.l l ;.z       ",
"      R h h ++Z A f ;+w q . ; c+7.M _ >.>.y+#+|.l l ;.[.z       ",
"      R h ++Z F 6 *.w h.1.8+v+v+v+r.L >.y+} # ]+l ;.[.I.z       ",
"      R ++Z F F 6 ).h+w+w+@ c+k+k+L #.Q Q 0 { g+;.[.I.= z       ",
"      R Z F F , e a a u.u.-+k k k ]+A.A.%.3 3 g.[.I.= = z       ",
"      R F F , , o.o.<.+.B D.n B.- .._.m.l l ;.[.I.= = s z       ",
"      d.G G i.i.1 1 1 1 1 1 1 1 1 1 1 a.a.a.a.K K K K K [       ",
"                                                                "};
