/* XPM */
static char * Anpass_trans_50_invers_xpm[] = {
"50 32 233 2",
"  	c None",
". 	c #2D81FD",
"+ 	c #2D79F1",
"@ 	c #1D214D",
"# 	c #2569D1",
"$ 	c #092D65",
"% 	c #256DD9",
"& 	c #2D7DF7",
"* 	c #215195",
"= 	c #0D254D",
"- 	c #113165",
"; 	c #2971E5",
"> 	c #69A5FD",
", 	c #1D51A1",
"' 	c #213555",
") 	c #394961",
"! 	c #192949",
"~ 	c #154999",
"{ 	c #212149",
"] 	c #6195DD",
"^ 	c #6AA1F2",
"/ 	c #918D83",
"( 	c #99958C",
"_ 	c #1D55AD",
": 	c #314561",
"< 	c #0D2951",
"[ 	c #113D85",
"} 	c #395189",
"| 	c #6699E9",
"1 	c #51698D",
"2 	c #5D81B9",
"3 	c #699DF1",
"4 	c #696155",
"5 	c #757164",
"6 	c #1951A3",
"7 	c #193971",
"8 	c #5D79A1",
"9 	c #71798D",
"0 	c #616D85",
"a 	c #5D89C9",
"b 	c #616181",
"c 	c #B9B9B1",
"d 	c #858176",
"e 	c #554D3D",
"f 	c #60594C",
"g 	c #5D5548",
"h 	c #4185FD",
"i 	c #4F85F9",
"j 	c #497DED",
"k 	c #69A5F9",
"l 	c #55719D",
"m 	c #657189",
"n 	c #556985",
"o 	c #597DB9",
"p 	c #6D7DA1",
"q 	c #8D897E",
"r 	c #595141",
"s 	c #ADA9A1",
"t 	c #797165",
"u 	c #6D695A",
"v 	c #CDCDC9",
"w 	c #D595E9",
"x 	c #B58DED",
"y 	c #C991E9",
"z 	c #F899E7",
"A 	c #7D796D",
"B 	c #595545",
"C 	c #656151",
"D 	c #6D6559",
"E 	c #9D9991",
"F 	c #B1ADA5",
"G 	c #817D71",
"H 	c #FD95E5",
"I 	c #F995E5",
"J 	c #8989F5",
"K 	c #FD91E5",
"L 	c #F96DDD",
"M 	c #899DED",
"N 	c #A9ADF9",
"O 	c #ADA9F1",
"P 	c #79A5F9",
"Q 	c #A9A9F1",
"R 	c #7A7569",
"S 	c #655D4F",
"T 	c #A9A59D",
"U 	c #C0BDB8",
"V 	c #8D95ED",
"W 	c #FDB5ED",
"X 	c #F9B1ED",
"Y 	c #B5ADF5",
"Z 	c #EBB1ED",
"` 	c #FDB1ED",
" .	c #FDA9EB",
"..	c #C1ADED",
"+.	c #B3B1A9",
"@.	c #696555",
"#.	c #A19D95",
"$.	c #B8B5AF",
"%.	c #F97DE1",
"&.	c #F989E5",
"*.	c #F985E1",
"=.	c #F991E5",
"-.	c #F98DE5",
";.	c #F779E1",
">.	c #F965DD",
",.	c #FDADED",
"'.	c #E1B1F1",
").	c #FDA5E9",
"!.	c #D1A5E9",
"~.	c #514939",
"{.	c #413929",
"].	c #F969DD",
"^.	c #F575E1",
"/.	c #FDA1E9",
"(.	c #D1A1ED",
"_.	c #A5A199",
":.	c #453D2C",
"<.	c #494131",
"[.	c #514D3D",
"}.	c #E581E1",
"|.	c #8199ED",
"1.	c #F1A1E9",
"2.	c #CDA5ED",
"3.	c #4D4939",
"4.	c #959187",
"5.	c #555141",
"6.	c #C981DD",
"7.	c #9D8DD9",
"8.	c #CD65D1",
"9.	c #ED81DD",
"0.	c #F199E9",
"a.	c #F391E5",
"b.	c #D1D1CD",
"c.	c #4D4535",
"d.	c #E1E1DD",
"e.	c #71695D",
"f.	c #DDDDD9",
"g.	c #8985CD",
"h.	c #8595D5",
"i.	c #7781C7",
"j.	c #7175C1",
"k.	c #D989DD",
"l.	c #89A1ED",
"m.	c #C59DDD",
"n.	c #AFB5E1",
"o.	c #9DA5D9",
"p.	c #B5A1D9",
"q.	c #C9B5ED",
"r.	c #E9E9E5",
"s.	c #89857A",
"t.	c #DD65D5",
"u.	c #7D89CD",
"v.	c #8191D1",
"w.	c #8185CD",
"x.	c #C185D5",
"y.	c #8D9DED",
"z.	c #B1A1D9",
"A.	c #A5ADDD",
"B.	c #A5A1D9",
"C.	c #BDB1ED",
"D.	c #8D99CD",
"E.	c #7181C5",
"F.	c #6585D1",
"G.	c #9991E1",
"H.	c #ED95E5",
"I.	c #9DA5C9",
"J.	c #99A9D9",
"K.	c #9FB1E7",
"L.	c #B5B5ED",
"M.	c #B171D5",
"N.	c #616989",
"O.	c #393D51",
"P.	c #6589D9",
"Q.	c #7199E5",
"R.	c #9985D1",
"S.	c #8181A1",
"T.	c #8DADDD",
"U.	c #B5B1E9",
"V.	c #716D5E",
"W.	c #D9D9D5",
"X.	c #B36DCD",
"Y.	c #212531",
"Z.	c #292D39",
"`.	c #7195DD",
" +	c #A185D1",
".+	c #918DB9",
"++	c #8991B1",
"@+	c #BDB9ED",
"#+	c #9D958D",
"$+	c #555D8D",
"%+	c #596191",
"&+	c #7585C9",
"*+	c #7989CD",
"=+	c #B99DE1",
"-+	c #F595E7",
";+	c #E1ADED",
">+	c #C5C9F1",
",+	c #CCCDF5",
"'+	c #B9CDF5",
")+	c #BFC1F1",
"!+	c #756D61",
"~+	c #ED71DD",
"{+	c #C59DE9",
"]+	c #ADB9ED",
"^+	c #A9B5ED",
"/+	c #B1BDF1",
"(+	c #C8B1ED",
"_+	c #C9D1F5",
":+	c #B5C5F5",
"<+	c #615D4D",
"[+	c #ED79E1",
"}+	c #C5A9ED",
"|+	c #B5B9F1",
"1+	c #B5C1F1",
"2+	c #B5BDF1",
"3+	c #81A5F1",
"4+	c #F1B9ED",
"5+	c #CDC9F5",
"6+	c #B1C9F5",
"7+	c #C5C5BD",
"8+	c #7DA9F1",
"9+	c #D1C9F5",
"0+	c #B9B9F1",
"a+	c #CDADED",
"b+	c #D6DDF9",
"c+	c #D5D9F7",
"d+	c #F8F9FD",
"e+	c #FDFDFD",
"f+	c #D1E1F9",
"g+	c #B9C5F1",
"h+	c #D1E5F9",
"i+	c #F5F5FD",
"j+	c #8DB9F5",
"                                                                                                    ",
"                                                                                  . . + .       @   ",
"                                                                                  . # $ % .     @   ",
"                                                                                  & * = - ;     @   ",
"        >                                                                         , ' ) ! ~     {   ",
"      > ] ^                           /   (                                       _ ! : < [     }   ",
"      | 1 2 3                         4 5 5                                       & 6 7 _       ^   ",
"      8 9 0 a   b                 c d e f e g /                                 h i j . j       k   ",
"      l m n o   p                   q r s t u         v                         w w x i y z     ^   ",
"    > | a a                         A B C e D E     F G                       H I H H J K K K L M   ",
"    N O P Q                           R C S T U     s t                       K K H H y H I K L V   ",
"  W W X Y Z `  ...                    s     +.R /   ( @.U #.A $.              L %.&.*.=.H -.;.>.V   ",
"  ,.` ` '.W X ).!.                            A r C ~.{.g r D $.              >.>.L ].^.^.L >.>.V   ",
"  z /. . .,. .z (.                            _.B :.<.[.<.~.(                 >.>.>.>.}.}.>.>.>.|.  ",
"  =.=.=.z 1.K =.2.                          F q e 3.4.c @.5.G F               >.>.>.>.6.7.8.8.9.M   ",
"  =.K K 0.!.a.H ..                        b.G f c.e F d.d {.c.e.4.f.          >.>.>.>.g.h.i.j.k.l.  ",
"  =.=.=.m.n.o.p.q.                            r.G c.R s.~.c./                 >.>.>.t.u.v.u.w.x.y.  ",
"  K =.a.z.A.o.B.C.                        s   U 4 c.c.<.:.3.A                 >.>.>.6.v.D.E.F.G.l.  ",
"  K =.H.A.I.J.K.L.                  #.    s.c E 5 s.4 r q 5 D                 >.>.>.M.N.O.P.Q.R.M   ",
"  =.=.H.S.9 T.K.U.                  V.t ( V.$.F $.  q 5     #.W.              >.>.>.X.Y.Z.3 `. +M   ",
"  K K H..+++o.n.@+                  5 ~.~.<.C e.#+  s E                       >.>.>.X.$+%+&+*+=+M   ",
"  =.-+;+>+,+'+,+)+              F d S e V.S ~.!+      r.                      >.>.~+{+]+]+^+/+(+l.  ",
"    Z ,+_+,+_+,+:+                s.<+S U ( 5.G                                 [+}+|+/+1+/+/+2+3+  ",
"    4+,+,+,+5+_+6+                _.4 f d @.~.D / 7+                            z (+1+2+/+|+1+2+8+  ",
"    4+,+_+,+9+_+6+                s.C 5.~.:.B /                                 K 2.1+/+0+a+/+1+8+  ",
"      b+b+c+b+b+'+                    A u R D                                   H (+/+2+2+a+1+/+8+  ",
"      d+d+  e+e+f+                    #+/   /                                     )+g+1+1+  :+:+8+  ",
"    e+e+e+  e+e+h+                    W.                                          d+i+d+  e+i+d+j+  ",
"    e+e+e+    e+h+                                                                e+e+e+  e+e+e+j+  ",
"                                                                                e+e+e+e+  e+e+e+j+  ",
"                                                                                e+e+e+e+    e+e+j+  ",
"                                                                                                    "};
