/* XPM */
static char * Anpass_trans_50_xpm[] = {
"50 32 493 2",
"  	c None",
". 	c #92928A",
"+ 	c #9D9D8F",
"@ 	c #A8A893",
"# 	c #3C3C31",
"$ 	c #5F5F54",
"% 	c #B6B6A4",
"& 	c #A9A9A7",
"* 	c #8E8E8E",
"= 	c #626262",
"- 	c #A7A7A7",
"; 	c #B4B4B4",
"> 	c #C0C0C0",
", 	c #C1C1C1",
"' 	c #C8C8C8",
") 	c #CBCBCB",
"! 	c #C7C7C7",
"~ 	c #737354",
"{ 	c #BBBB94",
"] 	c #5C5C5C",
"^ 	c #BEBEBE",
"/ 	c #989898",
"( 	c #7A7A7A",
"_ 	c #909086",
": 	c #6D6D6D",
"< 	c #696969",
"[ 	c #AAAAAA",
"} 	c #777777",
"| 	c #7E7E7E",
"1 	c #8C8C8C",
"2 	c #BBBBBB",
"3 	c #D8D8D8",
"4 	c #E9E9E9",
"5 	c #FA3838",
"6 	c #D49393",
"7 	c #E5E5E5",
"8 	c #474745",
"9 	c #838359",
"0 	c #636339",
"a 	c #818181",
"b 	c #898989",
"c 	c #787878",
"d 	c #636363",
"e 	c #87877B",
"f 	c #909090",
"g 	c #B0B0B0",
"h 	c #ACACAC",
"i 	c #B5B5B5",
"j 	c #6B6B6B",
"k 	c #B8B8B8",
"l 	c #D9D9D9",
"m 	c #C6C6C6",
"n 	c #E87474",
"o 	c #DBB4B4",
"p 	c #4C4C49",
"q 	c #8F8F65",
"r 	c #56562D",
"s 	c #A1A1A1",
"t 	c #B6B5B5",
"u 	c #C7C6C6",
"v 	c #575757",
"w 	c #686868",
"x 	c #808080",
"y 	c #878787",
"z 	c #868686",
"A 	c #B3B3B3",
"B 	c #5A5A5A",
"C 	c #828282",
"D 	c #C9C9C9",
"E 	c #CFCFCF",
"F 	c #605E4C",
"G 	c #A29D68",
"H 	c #A0A077",
"I 	c #5F5F5F",
"J 	c #161616",
"K 	c #282828",
"L 	c #7F7F7B",
"M 	c #797979",
"N 	c #7D7D7B",
"O 	c #767670",
"P 	c #B2B2B2",
"Q 	c #A2A2A2",
"R 	c #999999",
"S 	c #A6A6A6",
"T 	c #9D9D9D",
"U 	c #979797",
"V 	c #414141",
"W 	c #CACACA",
"X 	c #BEAB46",
"Y 	c #B9A54E",
"Z 	c #26261F",
"` 	c #000000",
" .	c #6D6D5A",
"..	c #4C4C46",
"+.	c #70706E",
"@.	c #949393",
"#.	c #64645C",
"$.	c #7B7B7A",
"%.	c #595959",
"&.	c #7F7F7F",
"*.	c #A9A9A9",
"=.	c #B9B9B9",
"-.	c #555555",
";.	c #727272",
">.	c #9C9C9C",
",.	c #939391",
"'.	c #A4A491",
").	c #C4B154",
"!.	c #BCA850",
"~.	c #242416",
"{.	c #020202",
"].	c #646349",
"^.	c #9C9247",
"/.	c #9D9245",
"(.	c #54544C",
"_.	c #7C7C7A",
":.	c #898888",
"<.	c #7E7E7D",
"[.	c #A8A8A4",
"}.	c #464646",
"|.	c #606060",
"1.	c #4F4F4F",
"2.	c #424242",
"3.	c #A4A4A4",
"4.	c #BCBCBC",
"5.	c #4D4D4D",
"6.	c #4A4A4A",
"7.	c #7C7C7C",
"8.	c #838383",
"9.	c #535352",
"0.	c #C3B24C",
"a.	c #BEAC4F",
"b.	c #C7C793",
"c.	c #2B2B27",
"d.	c #171513",
"e.	c #625742",
"f.	c #56421B",
"g.	c #54411A",
"h.	c #8E8238",
"i.	c #3F3F3A",
"j.	c #010101",
"k.	c #30302E",
"l.	c #B1B1AD",
"m.	c #6F6F6F",
"n.	c #5D5D5D",
"o.	c #D2D2D2",
"p.	c #A5A5A5",
"q.	c #767676",
"r.	c #D6D6D6",
"s.	c #3E3E3E",
"t.	c #C6B64C",
"u.	c #C1B04E",
"v.	c #ADAD99",
"w.	c #5C5A56",
"x.	c #59492A",
"y.	c #E8E3D6",
"z.	c #E0D9CA",
"A.	c #695829",
"B.	c #1B1B12",
"C.	c #23211B",
"D.	c #B0B0AC",
"E.	c #A1A0A0",
"F.	c #939393",
"G.	c #CCCCCC",
"H.	c #959595",
"I.	c #D1D1D1",
"J.	c #CECECE",
"K.	c #565652",
"L.	c #C9BA53",
"M.	c #AA9E77",
"N.	c #9B9B9B",
"O.	c #8B8579",
"P.	c #A2957A",
"Q.	c #F2EFE6",
"R.	c #E9E3D6",
"S.	c #908266",
"T.	c #BAB354",
"U.	c #61615E",
"V.	c #1E1E1E",
"W.	c #4D4637",
"X.	c #87785B",
"Y.	c #817152",
"Z.	c #B1B0AC",
"`.	c #A3A3A3",
" +	c #A5A4A4",
".+	c #2C2C2C",
"++	c #5B5B5B",
"@+	c #676767",
"#+	c #303030",
"$+	c #3B3B3B",
"%+	c #53534E",
"&+	c #B8AC71",
"*+	c #81765B",
"=+	c #8F8F8F",
"-+	c #919191",
";+	c #635945",
">+	c #C0B7A4",
",+	c #F6F3ED",
"'+	c #EBE5D8",
")+	c #A5987E",
"!+	c #938849",
"~+	c #9C9785",
"{+	c #8A8A89",
"]+	c #7D7159",
"^+	c #DCD5C8",
"/+	c #C5BBA7",
"(+	c #9D9C9C",
"_+	c #6A6A6A",
":+	c #616161",
"<+	c #A0A0A0",
"[+	c #6E6E6E",
"}+	c #636361",
"|+	c #797A58",
"1+	c #D0D0A5",
"2+	c #A89F87",
"3+	c #8D8167",
"4+	c #786848",
"5+	c #E7E2D6",
"6+	c #F7F5F0",
"7+	c #EBE6D9",
"8+	c #CFC3A9",
"9+	c #79683D",
"0+	c #A2946C",
"a+	c #87837A",
"b+	c #949494",
"c+	c #898784",
"d+	c #988D75",
"e+	c #DAD3C1",
"f+	c #897B57",
"g+	c #AFAFAF",
"h+	c #C3C3C3",
"i+	c #B6B6B6",
"j+	c #D0D0D0",
"k+	c #AEAEAE",
"l+	c #AFAFB1",
"m+	c #6E6B70",
"n+	c #B3B392",
"o+	c #A59C85",
"p+	c #9D9278",
"q+	c #877551",
"r+	c #F8F6F1",
"s+	c #ECE7DB",
"t+	c #D5CAAE",
"u+	c #75653A",
"v+	c #A39A85",
"w+	c #98948A",
"x+	c #8F8A82",
"y+	c #C3B9A4",
"z+	c #F6F4EE",
"A+	c #E3DCCA",
"B+	c #958663",
"C+	c #80807D",
"D+	c #8D8D8D",
"E+	c #9A9A9A",
"F+	c #525252",
"G+	c #565656",
"H+	c #7C7C83",
"I+	c #837E70",
"J+	c #FFFF89",
"K+	c #B4B48F",
"L+	c #9E957F",
"M+	c #A0957B",
"N+	c #897650",
"O+	c #E2DAC7",
"P+	c #F3EFE6",
"Q+	c #D0C3A5",
"R+	c #716238",
"S+	c #9C937F",
"T+	c #A49F96",
"U+	c #918C83",
"V+	c #C5BAA2",
"W+	c #F2EDE6",
"X+	c #E2DBC8",
"Y+	c #928360",
"Z+	c #A0A099",
"`+	c #474747",
" @	c #707070",
".@	c #8A8A8A",
"+@	c #D7D7D7",
"@@	c #585858",
"#@	c #757272",
"$@	c #7F7D7D",
"%@	c #696872",
"&@	c #9F987D",
"*@	c #FFFF7F",
"=@	c #B5B58E",
"-@	c #99958D",
";@	c #A6A299",
">@	c #87734A",
",@	c #D3C7AA",
"'@	c #E8E1D2",
")@	c #C2B188",
"!@	c #6E5E32",
"~@	c #FFFF87",
"{@	c #99968F",
"]@	c #A4A3A0",
"^@	c #959187",
"/@	c #B7A783",
"(@	c #D8CDB3",
"_@	c #CFC1A1",
":@	c #867348",
"<@	c #9A9A93",
"[@	c #5E5E5E",
"}@	c #4E4E4E",
"|@	c #FFFF85",
"1@	c #D1D1AA",
"2@	c #9B9B9A",
"3@	c #999998",
"4@	c #9F9F9F",
"5@	c #856F42",
"6@	c #BDAA7F",
"7@	c #BAA678",
"8@	c #AD9660",
"9@	c #9E8343",
"0@	c #705D29",
"a@	c #FFFF88",
"b@	c #AAA9A4",
"c@	c #9F9E9D",
"d@	c #928D84",
"e@	c #A69162",
"f@	c #B19B67",
"g@	c #9D8140",
"h@	c #796128",
"i@	c #A1A199",
"j@	c #6C6C67",
"k@	c #555550",
"l@	c #CDCDCD",
"m@	c #DADADA",
"n@	c #717171",
"o@	c #6C6C6C",
"p@	c #666666",
"q@	c #FFFF98",
"r@	c #F8F8A0",
"s@	c #CBC88E",
"t@	c #A6A298",
"u@	c #816B3D",
"v@	c #AE9761",
"w@	c #A3894C",
"x@	c #94762E",
"y@	c #907026",
"z@	c #6E5923",
"A@	c #FFFF8B",
"B@	c #B5B1AA",
"C@	c #8C877E",
"D@	c #967E47",
"E@	c #8F7025",
"F@	c #73591C",
"G@	c #404040",
"H@	c #C4C4C4",
"I@	c #A6A5A5",
"J@	c #FFFF82",
"K@	c #FFFF8C",
"L@	c #D4C768",
"M@	c #BAAF95",
"N@	c #8B8B8B",
"O@	c #766033",
"P@	c #9A7D3A",
"Q@	c #917229",
"R@	c #8D6C20",
"S@	c #6C5720",
"T@	c #CBC7BD",
"U@	c #928F89",
"V@	c #907841",
"W@	c #977A35",
"X@	c #8F6F24",
"Y@	c #745A1D",
"Z@	c #737373",
"`@	c #FFFF92",
" #	c #D1C468",
".#	c #D6CBB0",
"+#	c #ADADAD",
"@#	c #969696",
"##	c #72603A",
"$#	c #977933",
"%#	c #917128",
"&#	c #BFBCB2",
"*#	c #8D7C55",
"=#	c #957730",
"-#	c #8D6E24",
";#	c #7C6428",
">#	c #8D8D85",
",#	c #5C5C5B",
"'#	c #A8A8A8",
")#	c #646464",
"!#	c #CEC05B",
"~#	c #D5CAAF",
"{#	c #9B9485",
"]#	c #967834",
"^#	c #95762F",
"/#	c #917127",
"(#	c #8E6E23",
"_#	c #756331",
":#	c #BBB7AE",
"<#	c #79705A",
"[#	c #92732D",
"}#	c #896A23",
"|#	c #888886",
"1#	c #C2C2C2",
"2#	c #848484",
"3#	c #BFBFBF",
"4#	c #CBBC57",
"5#	c #ABABAB",
"6#	c #7D7C79",
"7#	c #877344",
"8#	c #94752D",
"9#	c #907126",
"0#	c #7B5E1E",
"a#	c #B6AC56",
"b#	c #BAB6AC",
"c#	c #B1B1B1",
"d#	c #6F6859",
"e#	c #846727",
"f#	c #806424",
"g#	c #828181",
"h#	c #797878",
"i#	c #D5D5D5",
"j#	c #CABA5B",
"k#	c #D5C9AF",
"l#	c #888888",
"m#	c #87754B",
"n#	c #93742C",
"o#	c #73581D",
"p#	c #BBB459",
"q#	c #B7B3AA",
"r#	c #7D7D76",
"s#	c #5B5B58",
"t#	c #757575",
"u#	c #8A8989",
"v#	c #989797",
"w#	c #C6B651",
"x#	c #6A5B3F",
"y#	c #91722B",
"z#	c #8E6F27",
"A#	c #7F6D2E",
"B#	c #BDB9AF",
"C#	c #73736D",
"D#	c #76766F",
"E#	c #929291",
"F#	c #7B7B7B",
"G#	c #5F5E5E",
"H#	c #999898",
"I#	c #BDBDBD",
"J#	c #978C60",
"K#	c #928F81",
"L#	c #C3B148",
"M#	c #898461",
"N#	c #6B541F",
"O#	c #6B541E",
"P#	c #BEBAB1",
"Q#	c #6F6F69",
"R#	c #9F9E9E",
"S#	c #959494",
"T#	c #9A9999",
"U#	c #EDECE2",
"V#	c #BEBEBB",
"W#	c #C4B149",
"X#	c #ABAB82",
"Y#	c #74746E",
"Z#	c #ACABAB",
"`#	c #827F71",
" $	c #EDECE6",
".$	c #E9E6DA",
"+$	c #9D9882",
"@$	c #BDAA43",
"#$	c #979770",
"$$	c #797774",
"%$	c #80807A",
"&$	c #D1C692",
"*$	c #DFCF88",
"=$	c #BFB171",
"-$	c #C5B675",
";$	c #656565",
">$	c #9B9B75",
",$	c #B4B4AB",
"'$	c #B2B2AD",
")$	c #BEBAA3",
"!$	c #C4BC93",
"~$	c #A8A386",
"{$	c #A8A591",
"]$	c #D4C9AF",
"^$	c #A0A07A",
"/$	c #AEA187",
"($	c #383838",
"_$	c #515151",
":$	c #A6A682",
"<$	c #8A8987",
"[$	c #3A3A3A",
"}$	c #AAAA87",
"|$	c #ACAC86",
"1$	c #A1A17B",
"2$	c #A2A27A",
"3$	c #9E9E79",
"4$	c #9C9C78",
"                                                                                                    ",
"                                . +                                           @ # $                 ",
"                            % & * = - ; > , , ' ' ) !                   ~   { ] ^ / (               ",
"                          _ : < [ } | 1 2 3 3 4 5 6 7                   8 9 0 a b c d               ",
"                          e f g h i ^ j k l m , n o 7                   p q r s t u v               ",
"                            w * x * y z g A } B C D E                   F G H I J K j               ",
"      L M N               O / P Q R S x T U b | V * W                   X Y   Z ` `  .              ",
"  ..  +.@.a                 #.$.f c %.B &.x *.=.-.;.>.,.'.              ).!.  ~.` {.].^./.          ",
"  (.  _.:.<.                  [.| = }.|.1.2.3.4.5.6.7.8.9.              0.a.b.c.{.d.e.f.g.h.        ",
"      i.j.k.                  l.h m.n.o.p.q.^ D T P r.S s.              t.u.v.U %.w.x.y.z.A.        ",
"      B.` C.                  D.E.F.B 1 ! G.- H.I.J.z I K.              L.M.* U N.O.P.Q.R.S.T.      ",
"      U.V.W.X.Y.              Z.`. +[ .+++, @+#+x T $+%+                &+*+=+/ -+;+>+,+'+)+!+      ",
"    ~+H.{+]+^+/+              D.(+E._+:+F.o.<+[+> 3 N.}+|+            1+2+3+* -+=+4+5+6+7+8+9+      ",
"  0+a+b+c+d+,+e+f+            l.g+} -.g l h+i+j+[ k+o.l+m+            n+o+p+h g+S q+'+r+s+t+u+      ",
"  v+w+T x+y+z+A+B+            C+| D+1.E+| F+y 3 G+5.8.H+I+          J+K+L+M+Q b+N.N+O+P+s+Q+R+      ",
"  S+T+N.U+V+W+X+Y+          Z+m.`+ @} %..@7.b +@@@#@$@%@&@          *@=@-@;@- <+R >@,@O+'@)@!@~@    ",
"  {@]@3.^@/@(@_@:@          <@s g+G+[@N.g+b m.h }@N.m               |@1@2@3@T 4@T 5@6@7@8@9@0@a@    ",
"  b@c@T d@e@f@g@h@      i@j@k@c l@_+1 m@.@< n@o@p@4.)               q@r@s@t@S [ 4@u@v@w@x@y@z@A@    ",
"    B@[ C@D@g@E@F@      G@ @< c J.H@+@c v T I@`.m +@)               J@K@L@M@h S N@O@w@P@Q@R@S@      ",
"    T@`.U@V@W@X@Y@      @@4@' G.C -.P Z@] | `.> +@3 )                 `@ #.#+#`.@###g@$#%#R@S@      ",
"    &#`.=.*#=#-#;#      >#,#}@'#b+)#=.l ' 1 ;.> +@3 )                 a@!#~#b+F.; {#]#^#/#(#_#      ",
"    :#*.h <#[#}#          |#p@^ W 1#P _+D+w 2#3#+@3 )                   4#~#H.5#) 6#7#8#9#0#a#      ",
"    b#*.c#d#e#f#          9.3.I.;.- k+5.g#h#`.> l@i#)                   j#k#l#p.=.;.m#n#y@o#p#      ",
"    q#4@[ r#              s#w [@t#&.1#-.u#v#*.> K ( )                   w#k#2#`.^ ( x#y#z#A#        ",
"    B#N.- C#                D#E#k ++F#G#=+H#*.I#J#K#P                   L#k#2#`.=.M M#N#O#          ",
"    P#U `.Q#                  l.g+R#l#F.S#T#*.o@U#V#H.                  W#~#y >.i Z@X#              ",
"    q#} a Y#                  l.g+Z#'#5#*.[ k+`# $.$+$                  @$~#1 -+; [+#$              ",
"    $$`+V %$                  l.g+g+g+g+g+g+g+&$*$=$-$                    ~#b * k ;$>$              ",
"                              ,$l.l.'$'$'$'$'$)$!$~${$                    ]$F.F#+#B ^$              ",
"                                                                          /$&.($_$j :$              ",
"                                                                          <$1.s.[$G+}$              ",
"                                                                          |$1$2$3$4$                "};
