/* XPM */
static char * Arkanum_50_xpm[] = {
"35 58 256 2",
"  	c None",
". 	c #221E1E",
"+ 	c #4C2D20",
"@ 	c #C29A5E",
"# 	c #893C1D",
"$ 	c #947E53",
"% 	c #87502E",
"& 	c #C24E26",
"* 	c #CF3716",
"= 	c #FADA5E",
"- 	c #B97A43",
"; 	c #645337",
"> 	c #A45127",
", 	c #64321D",
"' 	c #B83818",
") 	c #F8BE45",
"! 	c #A2703F",
"~ 	c #D6762C",
"{ 	c #432920",
"] 	c #F7B039",
"^ 	c #8B6B43",
"/ 	c #9A3D1C",
"( 	c #A65A2C",
"_ 	c #C46026",
": 	c #3A261E",
"< 	c #654C32",
"[ 	c #D38636",
"} 	c #E79935",
"| 	c #7C3D23",
"1 	c #86633B",
"2 	c #33221E",
"3 	c #4A422E",
"4 	c #D69846",
"5 	c #B25C2A",
"6 	c #EC862B",
"7 	c #BA8A46",
"8 	c #C4682B",
"9 	c #63462E",
"0 	c #EDBD57",
"a 	c #E2AF58",
"b 	c #90502C",
"c 	c #2E2A26",
"d 	c #DDA758",
"e 	c #ED7E2C",
"f 	c #9D4220",
"g 	c #533E2B",
"h 	c #BB5022",
"i 	c #FCEC7C",
"j 	c #2E1E1D",
"k 	c #CC481E",
"l 	c #D48650",
"m 	c #915B35",
"n 	c #E95F27",
"o 	c #D86634",
"p 	c #653C26",
"q 	c #894A29",
"r 	c #E37935",
"s 	c #B9471F",
"t 	c #2A2625",
"u 	c #A68E4E",
"v 	c #6C4B30",
"w 	c #7D6A43",
"x 	c #B9622C",
"y 	c #A97140",
"z 	c #E85222",
"A 	c #A76A3A",
"B 	c #592E1E",
"C 	c #453B2A",
"D 	c #F0E0BA",
"E 	c #DA8B34",
"F 	c #E0BC92",
"G 	c #C6B28A",
"H 	c #9E7C51",
"I 	c #E23717",
"J 	c #CA8232",
"K 	c #AD4420",
"L 	c #B23918",
"M 	c #745335",
"N 	c #DCAE64",
"O 	c #6C3C25",
"P 	c #E15E25",
"Q 	c #B65222",
"R 	c #CE7646",
"S 	c #EAA63E",
"T 	c #262222",
"U 	c #B97033",
"V 	c #DD5325",
"W 	c #EDA744",
"X 	c #8C4423",
"Y 	c #EE9A4E",
"Z 	c #985029",
"` 	c #AA6633",
" .	c #D27D2B",
"..	c #744B2D",
"+.	c #453427",
"@.	c #804628",
"#.	c #C6722F",
"$.	c #9E864E",
"%.	c #885E3A",
"&.	c #4E3425",
"*.	c #583422",
"=.	c #D4421C",
"-.	c #745F3C",
";.	c #8A663E",
">.	c #A93C1A",
",.	c #DB7C2E",
"'.	c #EDAE64",
").	c #DF8A4A",
"!.	c #74361D",
"~.	c #EBA257",
"{.	c #C67931",
"].	c #A25F32",
"^.	c #E2BA78",
"/.	c #B25426",
"(.	c #B93F1B",
"_.	c #EAD66A",
":.	c #A97A49",
"<.	c #9B6D42",
"[.	c #D36A2A",
"}.	c #B69A72",
"|.	c #885A36",
"1.	c #7D5433",
"2.	c #6A462B",
"3.	c #EA9256",
"4.	c #B5673F",
"5.	c #F49F30",
"6.	c #3C2B24",
"7.	c #953D1D",
"8.	c #D9985E",
"9.	c #9A562E",
"0.	c #DA4820",
"a.	c #C08A4C",
"b.	c #C3773F",
"c.	c #342622",
"d.	c #D28C44",
"e.	c #D5612B",
"f.	c #6F4228",
"g.	c #B2682F",
"h.	c #7E4C2C",
"i.	c #B17141",
"j.	c #9B5C2E",
"k.	c #FEF6B2",
"l.	c #A44521",
"m.	c #CE8F4F",
"n.	c #F2DE96",
"o.	c #944422",
"p.	c #CA6B3D",
"q.	c #C65727",
"r.	c #D43E1A",
"s.	c #AE5F2F",
"t.	c #966339",
"u.	c #2E2220",
"v.	c #AB8251",
"w.	c #763C23",
"x.	c #E2B680",
"y.	c #2A1E1E",
"z.	c #C56E2E",
"A.	c #BC5D29",
"B.	c #AE5428",
"C.	c #EC8A2A",
"D.	c #DF923B",
"E.	c #A65629",
"F.	c #C4411B",
"G.	c #EFC375",
"H.	c #2A2222",
"I.	c #DA9747",
"J.	c #CE9B6A",
"K.	c #BA7140",
"L.	c #BE682E",
"M.	c #7E4226",
"N.	c #E0421A",
"O.	c #EFCF82",
"P.	c #EFAE4A",
"Q.	c #50442C",
"R.	c #DAAA76",
"S.	c #AE5A29",
"T.	c #B6824A",
"U.	c #DA3315",
"V.	c #EEAA4E",
"W.	c #EAB56D",
"X.	c #6E351B",
"Y.	c #583A26",
"Z.	c #75462A",
"`.	c #D37F37",
" +	c #D27139",
".+	c #C33818",
"++	c #9C4724",
"@+	c #E5812D",
"#+	c #DD8231",
"$+	c #E48B32",
"%+	c #332A26",
"&+	c #A96029",
"*+	c #C86038",
"=+	c #C4481E",
"-+	c #6D5A3A",
";+	c #2E2626",
">+	c #904A26",
",+	c #CD6829",
"'+	c #C98E4C",
")+	c #EC8C40",
"!+	c #452E22",
"~+	c #F6A934",
"{+	c #9E6336",
"]+	c #D78E52",
"^+	c #E59A4F",
"/+	c #CA963E",
"(+	c #8F5631",
"_+	c #EDBC72",
":+	c #A13D1B",
"<+	c #823D21",
"[+	c #E5471E",
"}+	c #E5A95D",
"|+	c #3E3226",
"1+	c #D57029",
"2+	c #C37E47",
"3+	c #5A442E",
"4+	c #5C3E28",
"5+	c #723B22",
"6+	c #B18759",
"7+	c #E49D5B",
"8+	c #C68236",
"9+	c #A96133",
"0+	c #CE9A58",
"a+	c #B27A4A",
"b+	c #CE6E26",
"c+	c #B98D5D",
"d+	c #92664E",
"e+	c #9E5029",
"f+	c #EDA860",
"g+	c #CC6128",
"h+	c #E6A23E",
"i+	c #BB5623",
"j+	c #5E3523",
"k+	c #805E36",
"l+	c #62422B",
"m+	c #D19245",
"n+	c #FAC64A",
"o+	c #522E1F",
"p+	c #B8682D",
"q+	c #DE7028",
"r+	c #A44A24",
"s+	c #C3854F",
"t+	c #D18147",
"u+	c #DA9266",
"v+	c #D24E21",
"w+	c #ECCE92",
"x+	c #663621",
"y+	c #4E3A28",
"z+	c #EE8F2F",
"A+	c #DBB177",
"B+	c #D25A2A",
"C+	c #EA9E60",
"D+	c #261E1E",
"E+	c #E03E1A",
"F+	c #A59165",
"G+	c #AC4A22",
"%+%+;+t t t t t t c c %+t t t t t t t T T T T T T T T T T T T T T T t ",
";+t t t T T T T T H.H.t H.. T t T T T T T T T . T T . . . . . . . T T ",
"c c H.T T T T T T T H.t T T T T T T T . . . T . . . . . . . . . . . T ",
";+;+t t T T . T D+T T T H.. T t t T T . . T T T T D+. . . . D+. . T T ",
";+t H.t T T . T T T T T T . T T T T T . . . . . T . D+D+D+. D+T . T T ",
"c ;+t T . T T T T T T T . T T . T T . . . H.c.H.. . . . . . . . . . T ",
"t t T t T T T . . . H.t T T T T . T T . T u.: + 2 j y.D+. . . . . . T ",
";+t t T T T . T T T t H.T T c c t T . H.{ 5+<+| 5+c.o+2 D+. . . . T T ",
";+t T T . T . . T . H.;+c.6.T T T T D+B | X ++X | o+{ { j D+. . . . T ",
"c ;+t t T T T T T T t { O H.D+T T . 6.5+o.f X X X w.2 , j D+D+D+. T T ",
"c t H.t T T . . T T !+q O T T T T D++ | f l.++f ++w., { B y.D+D+. D+H.",
";+;+t T T T T T T c.M.E., H.T T T j o+<+o.l.K l.f !.X { + j D+y.D+T T ",
"%+;+;+H.T T T T u.| e+> { t T T T j B <+f s s l.++X.Z !.: 2 y.u.D+D+H.",
"c c.;+t H.H.H.H.*.++E.G+%+u.;+H.T : X.7.f s K s l.w.X Z + { u.: y.H.H.",
"c %+;+;+H.H.u.2 b ( S.e+c.u.;+u.;+c.&.<+f K K (.l.# X B.w.: 2 6.y.H.u.",
"%+c.;+t T t H.p p+z.5 o.: ;+;+6.: j+B 5+@.r+l.G+K o.X B.b 2 2 +.u.y.u.",
"%+c.c.;+H.;+c.9.#.z.x M.*.2 + p x+w.w.q Z w.++G+++++X B.&+, +.&.c.H.u.",
"%+%+;+%+;+;+*.p+R U _ x+{ *.b Z.9.x+o+B , e+b 5+, o.!.K U @.!+&.c.H.u.",
"%+%+;+c.;+c.h.{.1+8 8 B p > > X 5+| X o.# <+X b *.+ , h 8 j.9 3+6.y.H.",
"%+%+6.%+c.%+&+,. .8 B.+ <+_ ,+A.o.e+5 B.L.>+i+_ M.j *.h b+g.O -+%+2 c.",
"|+6.|+%+: &. .#+ .A.M.&.w.o.{._ A.b+S.g+/.x i+_ > o++ =+,+U X -.|+2 6.",
"!+&.y+F+; 2.} 6 @+s.*.O | j.8 p+{.#+s #+_ ~ 1+r [.X.X.h b+J j.v +.6.{ ",
"+.y+-.= $.t.] 5.$+> &.% >+E.U x &+j.x C.1+<+Z > i+# # h 1+[ ` l+3+6.+.",
"y+&.u i _./+) ] C.E.&.>+( S.G+S.Q b+ .E #.r+G+i+,+> f h q+E U O v &.+ ",
"+.+._.k.i 0 ) ) z+5 9 A x b+$+6 S n+D.[ E ~+} @+,.S.s _ ~ D.{.@.v p Y.",
"C C w $ $ a n+] z+8 &.- } /+p+_  .8 # A./+a ) } S g.v+g+~ } J (+1.f.O ",
"C C Q.< 1.] ) ~+C.1+&...U &+N.e g+:+f 7.:+:+o.7.q x+q.g+@+5.J t.k+Z.Z.",
"C +.y+; ..h+] z+C.1+j+g Y.z.e.I.`.f (.:+>.L / :+q , Q q+6 5. .j.M Z.h.",
"< 4+y+3+f.E ~+z+z+8 *.< M z.^+).m+q./ (.f :+(.7.X q r+@+C.5.,.9.M @.h.",
"v v 4+3+; {.5.z+6 A.+ M T.z.d.R.F K./ (.>.>.K 7.X t.X e 5.] ,.Z 1.>+% ",
"3+v 4+3+2.` C.6 @+S.; y p+P ~.D F 8.K 7.F.(.7.' # j.o.6 ] ~+~ % M X % ",
"..v Z.4+f.&+$+6 e &+Y.(+7.).F w+F u+B+:+L L >.(.:+j.>+6 W ~+b+M...h.>+",
"%.H |.9 ..m m+J #.5 ..5+p+`.A+^.x.p.h =.B+.+' :+G+S.E.[ E z+p+O 1.q b ",
"H $ F+1 Z.j.- &+d.g.j.Z  +p.,.A+u+,+| &+E @+@+~  .~ [ [  .J &+*.@.>+q ",
"<.v.}.F+^ &+i.~ D.K.K.=+z E+0.*+t+0.j.# !.o.> E.{. .4 [ ,.D.9.B e+> Z ",
"(+:.6+$.H <.E.P )+R 9+0.[+F.=.=+s+2+!.# / 7.7.X.++7.( &+S ,.>+x+S.9+( ",
"> {+a+H 6+M 1 s.V 4.4.k # :+o J.x.|.w.# ++7.<+X.# p+A./+~+b+q 7 y ].s.",
"i.A ! ! <.t.^ $ ! S.9+R >+| r l a+| &+r+p+&+f.O , ( a.s+} x 8+}+( 5 s.",
"i.! v.6+A {.d.'+*+| 9.{+A.<+=.n k+% @.(+9.:.t.f.:.8+v+I.U z.W g.`.G.:.",
"K.( s+T.6+> ).@+E.w.w.( *+>.r.N.z 1+D.U a.7 t.! K.g+r o Z d.8+h+} [ J ",
"t.> s.:.- f.L.d 4.M.| %.s.s * I n [+e.p.]+q.x p.*+s N.* i+I.h+{.9.Z x ",
"t.B.1 :.i.g.V.W.K.w.O b a+(.>.r.E+I o n V 0.q.x B.r.* F.v+U #+5  .h.|.",
"p.(+1 <.<.#.5.$+o.j+{ | m 9.!..+(.I F..+r.e..+F.B+.+' .+* ( U g.~ j.h.",
"K.1 -+;.1 {+z+^+e+j+!+*.b % d+f :+U.I =+:+>.q.' (..+' ' U.s U e+p+8 % ",
"#.-.; ; ; t.W #+p.j+6.*.+ h.G F :+* U.U..+L >..+U.# .+L .+h j.++5 {.O ",
"s+..Q.C Q.4+5 e+o.+.!+B <+!.< D 4.r.I U.U.U.U.U.' :+f Q g+{.( {+ .{.f.",
"@ T.< 6.|+9 r s.l.6.%+| e+r+w.c+J.F.r.0.=+/./.E.o.| X B [.@+,.9.1+{.h.",
"m+0+h.l+&.g ,+l h j+o+r+> X : |.c+Q e+Z *./ f y.{ , B B 1+q+z+,.1+U ( ",
"d a y |.<.M q  +9.!.| >+@.+ + m h.@ ^.a.<.x+k : 2 , , i.h+i+v+P q.d.f+",
"1 t.(+c+1 v.d.u+u+T.u+C+9.x ~ R l+J [ {.#., # , o+x+h.|.a+@ '+'+t+m.0+",
"..t.N ^ < ^ 0+).d.:.d.f+s.r+B.5 ].#.{.$+#+s+/+0+A+^.O.G._+b.a.}+D.U E.",
":.N N -.Q.% d Y 7+! J.F 9+r+r+4.#+~ ,+q.G.O.^.O.O.0 n.G.O.d.U 9.X >+].",
"0+'+t+-+C ..0+Y '+c+v.I.j.e+>+9+5 _ x B.d & K _ W.W.W.O._+a 4 i.b.l ~.",
"K.- t.Q.g Z.d.7+U >+A A f.( 9+g.z.p+&+( &+K K :+m.W.x.W._+_+'._+'.}+f+",
"m M 9 ....X {+ +S.l.h.|.Z.O &.p *.j+p 5+w.l.=+f p+0 W.0 V.}+f+~.d d 7+",
"(+9.K.- w.&+` - h.w.@.(+h.2.p 2.Z.h.h.z.9., , B m+W.'._+_+'.f+}+}+z+~.",
"s+y K.i.O 9.q b @.q 2+s+4.j.( u+f+^+3.).w.O p *.j.f+~.f+C+]+d.t+f+W.f+",
"i.K.9+..l+2.h.b b 9+R `.` 9+U ~.f+7+$+ +b % % t.j.$+^+).`.`.#+t+'.3.C+"};
