/* XPM */
static char * Armor_trans_50_xpm[] = {
"50 32 256 2",
"  	c None",
". 	c #36363E",
"+ 	c #FAC25A",
"@ 	c #6E727E",
"# 	c #CA762A",
"$ 	c #9E9E9E",
"% 	c #8A364A",
"& 	c #F6F6F6",
"* 	c #B67632",
"= 	c #6A6A76",
"- 	c #E6E6E6",
"; 	c #7E7E7E",
"> 	c #923A4E",
", 	c #E2AA4E",
"' 	c #AA7235",
") 	c #C6BA72",
"! 	c #F6D25E",
"~ 	c #865666",
"{ 	c #8E8E8E",
"] 	c #6E6E7A",
"^ 	c #C6C2BE",
"/ 	c #DADADA",
"( 	c #4E525A",
"_ 	c #A67233",
": 	c #CE8A3E",
"< 	c #865A2A",
"[ 	c #B2B2B2",
"} 	c #C2C2C2",
"| 	c #D2D2D2",
"1 	c #C67E96",
"2 	c #C6BA76",
"3 	c #B69E8A",
"4 	c #575A62",
"5 	c #965A1E",
"6 	c #ECA24A",
"7 	c #B6B6B6",
"8 	c #AAAAAA",
"9 	c #B65A6E",
"0 	c #A6768A",
"a 	c #B29272",
"b 	c #C68E56",
"c 	c #7E828F",
"d 	c #969AAA",
"e 	c #CECECE",
"f 	c #8A5A6A",
"g 	c #E09E5A",
"h 	c #927A8A",
"i 	c #BEC2DA",
"j 	c #E28A2E",
"k 	c #963246",
"l 	c #96566A",
"m 	c #C6863E",
"n 	c #AEB6C6",
"o 	c #DEB68E",
"p 	c #AA6622",
"q 	c #968A92",
"r 	c #5C5E68",
"s 	c #866676",
"t 	c #F6B652",
"u 	c #9A9EAE",
"v 	c #96662E",
"w 	c #FAC26E",
"x 	c #EAEAEA",
"y 	c #CA8666",
"z 	c #A2A2A2",
"A 	c #EA9236",
"B 	c #B4364E",
"C 	c #969696",
"D 	c #B73A53",
"E 	c #8A8A8A",
"F 	c #363A3E",
"G 	c #DE822A",
"H 	c #A6A6A6",
"I 	c #767A86",
"J 	c #B69A82",
"K 	c #BAC2D6",
"L 	c #D6D6D6",
"M 	c #E6CAAE",
"N 	c #BE7E5E",
"O 	c #BEBEBE",
"P 	c #FAFAFA",
"Q 	c #A2AABA",
"R 	c #AC4A60",
"S 	c #62666E",
"T 	c #9A9A9A",
"U 	c #8A8E9A",
"V 	c #EEEEEE",
"W 	c #CACACA",
"X 	c #9E6A32",
"Y 	c #A6AEBE",
"Z 	c #3E4246",
"` 	c #B68A62",
" .	c #9EA2B2",
"..	c #BA7A36",
"+.	c #CA823A",
"@.	c #BABED2",
"#.	c #DD9249",
"$.	c #F2B252",
"%.	c #929292",
"&.	c #C9CEE2",
"*.	c #DADEEE",
"=.	c #FAAE52",
"-.	c #D2D2DE",
";.	c #A22E44",
">.	c #868686",
",.	c #8A7E8E",
"'.	c #B2566A",
").	c #E29A46",
"!.	c #BE7E36",
"~.	c #8A5E2A",
"{.	c #A6364A",
"].	c #B66A26",
"^.	c #76727E",
"/.	c #926A7A",
"(.	c #BEC2D2",
"_.	c #F2B66E",
":.	c #AEB2C6",
"<.	c #FEFEFE",
"[.	c #8E8E9E",
"}.	c #B69676",
"|.	c #A2A6B8",
"1.	c #EAA258",
"2.	c #C6A282",
"3.	c #EEAA62",
"4.	c #88828E",
"5.	c #A66A2E",
"6.	c #C6C6C6",
"7.	c #C28A56",
"8.	c #9296A2",
"9.	c #F2F2F2",
"0.	c #D27E2C",
"a.	c #727681",
"b.	c #B6AA9E",
"c.	c #C2CADE",
"d.	c #B2BACA",
"e.	c #B2722E",
"f.	c #E68E32",
"g.	c #E6A64A",
"h.	c #D2823A",
"i.	c #EE9E4A",
"j.	c #464A52",
"k.	c #CACEDE",
"l.	c #666A73",
"m.	c #828692",
"n.	c #DA8E36",
"o.	c #D6923E",
"p.	c #BABAB2",
"q.	c #A26E32",
"r.	c #B64A62",
"s.	c #92622E",
"t.	c #EAB26A",
"u.	c #6A6E79",
"v.	c #858A96",
"w.	c #DE9A5A",
"x.	c #C2762A",
"y.	c #DEDEDE",
"z.	c #8E92A2",
"A.	c #52525E",
"B.	c #7A7E8B",
"C.	c #D68A36",
"D.	c #D6DAEA",
"E.	c #F6A23E",
"F.	c #FEBA52",
"G.	c #8A8A9A",
"H.	c #925A22",
"I.	c #D2D6E7",
"J.	c #7E7E8D",
"K.	c #FACA5A",
"L.	c #CA7E32",
"M.	c #FEDA66",
"N.	c #EA9A3A",
"O.	c #B25266",
"P.	c #62626E",
"Q.	c #868696",
"R.	c #72727F",
"S.	c #A2969A",
"T.	c #CED2E2",
"U.	c #A6A29E",
"V.	c #AA2E46",
"W.	c #EEA64A",
"X.	c #BEC2CE",
"Y.	c #CACEDA",
"Z.	c #B27635",
"`.	c #C6762E",
" +	c #E6E2DA",
".+	c #E29246",
"++	c #5E626B",
"@+	c #E2E2E2",
"#+	c #828291",
"$+	c #C67E36",
"%+	c #968E9E",
"&+	c #9E96A6",
"*+	c #828696",
"=+	c #D38E41",
"-+	c #DA9646",
";+	c #666672",
">+	c #565660",
",+	c #DA8A3E",
"'+	c #EEA656",
")+	c #7A7A8A",
"!+	c #9A662E",
"~+	c #A6AABE",
"{+	c #BEA286",
"]+	c #925A6A",
"^+	c #BA364E",
"/+	c #AEAEC2",
"(+	c #DA8636",
"_+	c #9292A4",
":+	c #BE7A34",
"<+	c #A23246",
"[+	c #CDD2E8",
"}+	c #8A8E9E",
"|+	c #A26A32",
"1+	c #B6BACD",
"2+	c #C2C6DC",
"3+	c #A6A6BA",
"4+	c #DE9652",
"5+	c #8E622E",
"6+	c #A66E32",
"7+	c #52565E",
"8+	c #AAAEC2",
"9+	c #C68A3E",
"0+	c #E1862F",
"a+	c #767682",
"b+	c #DB8E41",
"c+	c #BABAB9",
"d+	c #4A4A54",
"e+	c #B67A36",
"f+	c #CE8E42",
"g+	c #AA4E62",
"h+	c #EEF2FA",
"i+	c #EEAA4E",
"j+	c #868A9A",
"k+	c #C6CADE",
"l+	c #C27A31",
"m+	c #9A9EB2",
"n+	c #9396A7",
"o+	c #9E9EAE",
"p+	c #A6AABA",
"q+	c #AAAEBE",
"r+	c #A2A2B6",
"s+	c #8E5E2A",
"t+	c #AA364E",
"u+	c #D67E2E",
"v+	c #AAAABE",
"w+	c #948A9A",
"x+	c #E69A4E",
"y+	c #AE7236",
"z+	c #CE7A2A",
"A+	c #F2BA56",
"B+	c #EA963A",
"C+	c #966E7E",
"D+	c #D68636",
"E+	c #C6823A",
"F+	c #B2B6C9",
"G+	c #BEC2D6",
"                                                                                                    ",
"                                                                                                    ",
"            /+k.T.i                 ~+1+F+                                                          ",
"          G+[+&.T.k.[+            2+q+@.[+G+                                                        ",
"          d.:.k+2+p+~+2+K [+@.c.q+Q Y.h+1+@.                                                        ",
"        p+@.p+m+z.Q.d :.v+F+~+v+d j+u 1+2+i Y                             <.<.P <.<.<.<.            ",
"    u F+D.-. .B.*+z.d n+d d n+j+U [.j+z.8+k.c.p+v.                    <.P 9.9.@+V 9.P P <.<.        ",
"  B. .8+I.Y }+B.I B.F+k+8+|.Y 1+|.c )+c d /+F+d }+I               <.<.9.V / 6.L | 6.e y.& <.<.      ",
"a+R.v.o+3+Q.a.u.= I q+F+d d m+m+u U *+l.I }+3+ .m.R.R.          <.9.x e L / c+c+c+} e e L @+P       ",
"v.q+~+ .8.a.4 d+( P.Q.n+}+[.z.U *+d J.A.7+@ d /+|. .z.        P & e O e 6.W O 7 [ } 6.7 c+W & <.    ",
"  3+:.1+n+l.4 . Z l.n+3+}+#+#+n+~+Q I ( 7+S  .F+Y  .        9.- L W $ T c+O z 8 H H 7 6.6.e x <.    ",
"  a.;+B.}+;+d+. A.j+z.c [.c J.j+z.d v.>+d+B.B.;+R.u       9.6.O } O c+8 8 z { { E z c+} c+W | 9.<.  ",
"      u.n+S   j.>+j+m+}+n+c v.Q.#+|.U r   J.c u.        <.& @+y.e O e [ 8 H C >.; { %.7 } O O x <.  ",
"        8.    A.4 m.n+n d I }+|. .r+)+=                           M o {+J b.8 z $ T %.$ O | L V <.  ",
"              d+= q+m+|.@ R.@ u  . .c ++                          6 A f.A b+7.3 7 7 8 z %.c+L 9.<.  ",
"              d+7+z.q+d ] @ @ *+|.3+a.7+                        e+6+_ l+0.0+0+0.a U.z $ T T } x <.  ",
"              >+++)+[.I r ++++l.v.c ] S                       : : -+K.+ g.=+x.`.u+` ^ [ $ H } V <.  ",
"              4 @ *+*+@ S ;+P.P.c *+I P.                  F.w b+..m A+M.! $.).* `.b  +@+[ [ } x <.  ",
"            t+~ J.}+a+= u.u.u.P.B.G.G.f k                 =._.t.: * f+t g.).6 f+:+      - 7 6.&     ",
"            B {.l ,.B.] l.@ l.l.G.,.]+<+B                 (+#.1.3.,+E+f+i+W.W.m _ y+      L 6.&     ",
"            '.B V.> /.,.c #+a+] s % ;.B 1                 0.x+#.#.w.C.+.: m * |+X '       - W x     ",
"              /.'.{.<+r.2.2 }.R ;.t+O.s )+                0+x.+.1.g w.#.C.C.Z.v s.q.      V L V     ",
"              c &+0 g+D y ) N D g+0 w+=                 0+L.p     i.'+g N.E.$+!+~.!+        @+9.    ",
"              B.d [.G.h S.7 q h [.3+n+R.                j e.        : :+D+:+q.v < v         - -     ",
"              u.8.[.[.z.>.J.#+_+z.G+8+z.                # 5.        Z.q.  Z.6+_ |+q.        V -     ",
"            |.c *+z.}+[.j+*+U z.[.|.r+8+2+              ].H.        ' |+    v s+X 6+_       9.- &   ",
"            F+8+@.|.j+a._+n+}+a.*+ .n K @.              p 5       _ 6+|+      v X 6+X s.      P <.  ",
"             .2+[+@. .c #+B.I c z.n+~+k+q+                5     q.|+' s.        v s.~.~.s.      <.  ",
"              1+F+@.8+z.a.*+}+m.|.@.F+[+                        X q.q.                s+s.          ",
"                  1+1+Y u :.F+:.I.I.(.                                                              ",
"                                                                                                    ",
"                                                                                                    "};
