/* XPM */
static char * Armor_trans_50_xpm[] = {
"50 32 341 2",
"  	c None",
". 	c #A5A5A5",
"+ 	c #C4C4C4",
"@ 	c #C3C3C3",
"# 	c #CCCCCC",
"$ 	c #DFDFDF",
"% 	c #D2D2D2",
"& 	c #B2B2B2",
"* 	c #ABABAB",
"= 	c #BEBEBE",
"- 	c #B0B0B0",
"; 	c #9B9B9B",
"> 	c #999999",
", 	c #A8A8A8",
"' 	c #B5B5B5",
") 	c #76C8E1",
"! 	c #74C5DE",
"~ 	c #6FBDD5",
"{ 	c #6AB4CB",
"] 	c #65ABC1",
"^ 	c #5FA3B8",
"/ 	c #5A99AC",
"( 	c #5591A3",
"_ 	c #959595",
": 	c #BCBCBC",
"< 	c #AAAAAA",
"[ 	c #838383",
"} 	c #5A5A5A",
"| 	c #454545",
"1 	c #4E4E4E",
"2 	c #777777",
"3 	c #ACACAC",
"4 	c #A4A4A4",
"5 	c #909090",
"6 	c #7C7C7C",
"7 	c #6E6E6E",
"8 	c #929292",
"9 	c #B1B1B1",
"0 	c #74C6DF",
"a 	c #6AB5CB",
"b 	c #65ACC2",
"c 	c #60A3B7",
"d 	c #5B9BAE",
"e 	c #50899A",
"f 	c #4C8293",
"g 	c #AEAEAE",
"h 	c #B8B8B8",
"i 	c #A2A2A2",
"j 	c #757575",
"k 	c #2C2C2C",
"l 	c #3B3B3B",
"m 	c #6C6C6C",
"n 	c #AFAFAF",
"o 	c #A6ABAC",
"p 	c #9EACB0",
"q 	c #A6A6A6",
"r 	c #B6B6B6",
"s 	c #C1C1C1",
"t 	c #A9A9A9",
"u 	c #8B8B8B",
"v 	c #B3B3B3",
"w 	c #74C6DE",
"x 	c #70BED6",
"y 	c #65ADC2",
"z 	c #60A3B8",
"A 	c #5A9BAE",
"B 	c #5692A5",
"C 	c #4B8191",
"D 	c #487A89",
"E 	c #BFBFBF",
"F 	c #BABABA",
"G 	c #C6C6C6",
"H 	c #828282",
"I 	c #979797",
"J 	c #A3A5A6",
"K 	c #7B8F95",
"L 	c #68878F",
"M 	c #6F929C",
"N 	c #7B9DA7",
"O 	c #89AEB9",
"P 	c #8CA3A9",
"Q 	c #A5AFB2",
"R 	c #B5B7B8",
"S 	c #BDBDBD",
"T 	c #70BFD7",
"U 	c #6BB7CD",
"V 	c #65ADC3",
"W 	c #60A5B9",
"X 	c #5B9CAF",
"Y 	c #5693A5",
"Z 	c #518A9C",
"` 	c #477988",
" .	c #437280",
"..	c #939393",
"+.	c #B7B7B7",
"@.	c #7F959B",
"#.	c #698B94",
"$.	c #779DA9",
"%.	c #80A9B6",
"&.	c #87B2BF",
"*.	c #90BFCC",
"=.	c #91C0CE",
"-.	c #89B5C2",
";.	c #8B979B",
">.	c #6EBDD4",
",.	c #6AB6CD",
"'.	c #66AEC3",
").	c #60A4B9",
"!.	c #518A9B",
"~.	c #4C8292",
"{.	c #467887",
"].	c #42707E",
"^.	c #3D6976",
"/.	c #94999B",
"(.	c #91BFCD",
"_.	c #92C0CE",
":.	c #91C0CD",
"<.	c #72919A",
"[.	c #6AB5CC",
"}.	c #66AEC4",
"|.	c #61A6BB",
"1.	c #5C9DB0",
"2.	c #5794A6",
"3.	c #518B9D",
"4.	c #477A89",
"5.	c #42707F",
"6.	c #3D6875",
"7.	c #39616E",
"8.	c #8AB6C4",
"9.	c #80AAB5",
"0.	c #779DA8",
"a.	c #6C8F98",
"b.	c #8C9395",
"c.	c #61A5BA",
"d.	c #5C9DB1",
"e.	c #528B9D",
"f.	c #477989",
"g.	c #42717F",
"h.	c #3D6775",
"i.	c #385F6B",
"j.	c #345964",
"k.	c #88B4C1",
"l.	c #7FA7B3",
"m.	c #769CA6",
"n.	c #6C8F99",
"o.	c #62828B",
"p.	c #59767E",
"q.	c #516B72",
"r.	c #BCBDBE",
"s.	c #5C9EB1",
"t.	c #5795A8",
"u.	c #528C9D",
"v.	c #4D8394",
"w.	c #487B8A",
"x.	c #3E6976",
"y.	c #38606C",
"z.	c #335862",
"A.	c #2F515B",
"B.	c #789EA9",
"C.	c #6E919B",
"D.	c #64848D",
"E.	c #5A777F",
"F.	c #506A71",
"G.	c #475D64",
"H.	c #3F5259",
"I.	c #C8C9C9",
"J.	c #5C9CAF",
"K.	c #528D9F",
"L.	c #487B8B",
"M.	c #39616D",
"N.	c #335762",
"O.	c #2E4F59",
"P.	c #2B4951",
"Q.	c #475E65",
"R.	c #3D5056",
"S.	c #334448",
"T.	c #2B393D",
"U.	c #528D9E",
"V.	c #4E8595",
"W.	c #437381",
"X.	c #3E6A77",
"Y.	c #2A4750",
"Z.	c #455A61",
"`.	c #3E5258",
" +	c #38494E",
".+	c #2C3A3E",
"++	c #212C2F",
"@+	c #151C1E",
"#+	c #BBBBBB",
"$+	c #C5C5C5",
"%+	c #898989",
"&+	c #4D8595",
"*+	c #497D8C",
"=+	c #3F6B78",
"-+	c #39626E",
";+	c #294750",
">+	c #254048",
",+	c #DFC266",
"'+	c #CB9D4F",
")+	c #F1CD67",
"!+	c #ADADAD",
"~+	c #487C8B",
"{+	c #447483",
"]+	c #3E6B78",
"^+	c #3A626E",
"/+	c #2F505A",
"(+	c #2A4851",
"_+	c #243E46",
":+	c #223940",
"<+	c #D1A251",
"[+	c #E9D27E",
"}+	c #F5E78D",
"|+	c #F3DD82",
"1+	c #D9AA55",
"2+	c #CA9D4E",
"3+	c #E8B95C",
"4+	c #FCDC6F",
"5+	c #FADA6E",
"6+	c #E2C060",
"7+	c #CEA151",
"8+	c #3F6C79",
"9+	c #3A636F",
"0+	c #355A66",
"a+	c #30525C",
"b+	c #2B4952",
"c+	c #254049",
"d+	c #21383F",
"e+	c #F2BF60",
"f+	c #DCAC56",
"g+	c #F3BF60",
"h+	c #F2BE5F",
"i+	c #DBAA55",
"j+	c #CC9F4F",
"k+	c #EFBC5E",
"l+	c #F5C663",
"m+	c #F0C160",
"n+	c #E0B65B",
"o+	c #E4CA66",
"p+	c #888888",
"q+	c #355A65",
"r+	c #2F525B",
"s+	c #2A4852",
"t+	c #254047",
"u+	c #CD9F4F",
"v+	c #F7C362",
"w+	c #FCCA65",
"x+	c #FAC965",
"y+	c #DCAD57",
"z+	c #D0A151",
"A+	c #E9B75C",
"B+	c #F3C662",
"C+	c #F1C361",
"D+	c #DFAE57",
"E+	c #EED86D",
"F+	c #2B4A53",
"G+	c #26414A",
"H+	c #223A41",
"I+	c #EBB85D",
"J+	c #D1A553",
"K+	c #F6D36B",
"L+	c #F5D26A",
"M+	c #DBB45B",
"N+	c #AB9049",
"O+	c #DDB95D",
"P+	c #E7B65B",
"Q+	c #E5B45A",
"R+	c #D2A351",
"S+	c #E9BC5E",
"T+	c #E9B65B",
"U+	c #E5B359",
"V+	c #D2A552",
"W+	c #B99E4F",
"X+	c #DDB157",
"Y+	c #CC9E4F",
"Z+	c #F6C161",
"`+	c #F5C261",
" @	c #D3A854",
".@	c #96773B",
"+@	c #EEBB5E",
"@@	c #F4C060",
"#@	c #B89048",
"$@	c #BA9149",
"%@	c #AA8542",
"&@	c #927138",
"*@	c #C3994C",
"=@	c #E0AF58",
"-@	c #836633",
";@	c #896A35",
">@	c #99773B",
",@	c #8E6F37",
"'@	c #9F7B3D",
")@	c #B88F47",
"!@	c #5F4B25",
"~@	c #685128",
"{@	c #98753B",
"]@	c #846733",
"^@	c #AE8743",
"/@	c #7B602F",
"(@	c #6B5429",
"_@	c #6C5429",
":@	c #9F7B3E",
"<@	c #937239",
"[@	c #917038",
"}@	c #584521",
"|@	c #907039",
"1@	c #7D6231",
"2@	c #A78241",
"3@	c #8F6F3B",
"4@	c #8F7039",
"5@	c #775E2F",
"6@	c #755D30",
"7@	c #896D3E",
"8@	c #A78346",
"9@	c #9F7D43",
"0@	c #A88241",
"a@	c #90713E",
"b@	c #8B6E3E",
"c@	c #AE8540",
"d@	c #8A6D3E",
"e@	c #8F7140",
"f@	c #A17E44",
"g@	c #8D703E",
"h@	c #A6803F",
"i@	c #93733E",
"j@	c #9F7C3F",
"k@	c #9A783E",
"l@	c #AB8547",
"m@	c #866B3E",
"n@	c #9C793F",
"o@	c #A47F3F",
"p@	c #92723E",
"q@	c #91723E",
"r@	c #AA8240",
"s@	c #876B3D",
"t@	c #907240",
"u@	c #82683D",
"v@	c #A8813F",
"w@	c #97753E",
"x@	c #8E703E",
"y@	c #84693D",
"z@	c #8A6D3D",
"                                                                                                    ",
"                                                                    . + @ # $ $ $ % @ &             ",
"                                                                * = - ; > > > > > > > , '           ",
"          ) ) ! ~ { ] ^ / (                                 _ : < [ } | 1 2 , 3 4 5 6 7 8 9         ",
"        ) ) 0 ~ a b c d ( e f                             g h 3 i j k l m n o p q r s t u v ;       ",
"        ) w x a y z A B e C D                           * E F G r ' H I J K L M N O P Q R . S       ",
"        w T U V W X Y Z C `  .                          i q       ..+.s @.#.$.%.&.*.=.-.;.S h       ",
"        >.,.'.).X Y !.~.{.].^.                                      8 /.    (._.:.      <., S       ",
"        [.}.|.1.2.3.f 4.5.6.7.                                              (.8.9.0.a.    b.E 3     ",
"        b c.d.2.e.f f.g.h.i.j.                                            k.l.m.n.o.p.q.    r.,     ",
"        W s.t.u.v.w. .x.y.z.A.                                            B.C.D.E.F.G.H.    I.r     ",
"        J.t.K.v.L. .^.M.N.O.P.                                                F.Q.R.S.T.    % G     ",
"          U.V.w.W.X.M.j.O.Y.                                                Z.`. +.+++@+    #+$+%+  ",
"          &+*+W.=+-+j.A.;+>+                  ,+'+)+                                          E !+  ",
"          ~+{+]+^+j./+(+_+:+          <+[+}+|+1+2+3+4+5+6+7+                                  g #+  ",
"            8+9+0+a+b+c+d+            e+f+g+h+i+j+k+l+m+n+o+                                    p+  ",
"              q+r+s+t+d+            u+v+1+w+x+y+z+A+B+C+D+E+                                        ",
"                F+G+H+              u+I+J+K+L+M+N+O+P+Q+R+S+                                        ",
"                                      T+  T+U+V+W+X+Y+Y+Y+Y+                                        ",
"                                          Z+`+ @.@+@@@@@                                            ",
"                                          #@$@%@&@*@=@=@                                            ",
"                                          -@;@>@,@'@)@)@                                            ",
"                                          !@~@{@]@^@/@/@                                            ",
"                                          (@_@:@<@[@}@}@                                            ",
"                                          |@1@2@3@4@5@6@                                            ",
"                                        7@8@9@0@a@b@c@d@                                            ",
"                                        e@f@g@c@h@i@j@k@                                            ",
"                                        l@m@n@n@o@p@q@r@s@                                          ",
"                                        t@u@v@q@w@x@y@n@z@                                          ",
"                                                                                                    ",
"                                                                                                    ",
"                                                                                                    "};
