/* XPM */
static char * Ausruest_small_xpm[] = {
"80 40 764 2",
"  	c None",
". 	c #AE8360",
"+ 	c #A57C5B",
"@ 	c #A27A5A",
"# 	c #B18562",
"$ 	c #A87D5A",
"% 	c #956E4E",
"& 	c #7E5C41",
"* 	c #74563C",
"= 	c #7D5C42",
"- 	c #A97F5D",
"; 	c #A87C5A",
"> 	c #916949",
", 	c #805C3F",
"' 	c #8F694C",
") 	c #A98063",
"! 	c #B58C71",
"~ 	c #B18665",
"{ 	c #9E7453",
"] 	c #936A4A",
"^ 	c #896243",
"/ 	c #987152",
"( 	c #C6A18E",
"_ 	c #DDBEB6",
": 	c #E0C3BF",
"< 	c #C1AA8D",
"[ 	c #AB9378",
"} 	c #84664D",
"| 	c #AC8160",
"1 	c #B18663",
"2 	c #AF8461",
"3 	c #A37A59",
"4 	c #876346",
"5 	c #79573B",
"6 	c #7C593D",
"7 	c #977052",
"8 	c #CDA998",
"9 	c #EBCCC8",
"0 	c #D9C0BE",
"a 	c #E3C7C4",
"b 	c #BEA098",
"c 	c #C09E97",
"d 	c #AF9C8C",
"e 	c #9F8C7A",
"f 	c #BB9C88",
"g 	c #BDA48A",
"h 	c #C0A98C",
"i 	c #BFA98C",
"j 	c #B39F82",
"k 	c #B7A184",
"l 	c #BDA587",
"m 	c #917054",
"n 	c #6F5138",
"o 	c #71533A",
"p 	c #6C4F37",
"q 	c #614630",
"r 	c #624630",
"s 	c #805D42",
"t 	c #9A7354",
"u 	c #B89684",
"v 	c #ECCDC9",
"w 	c #C2B1AE",
"x 	c #C8B2B1",
"y 	c #C7ACAB",
"z 	c #C5A4A4",
"A 	c #C09B9B",
"B 	c #A09493",
"C 	c #866C6B",
"D 	c #BA8383",
"E 	c #B7827D",
"F 	c #B89080",
"G 	c #BFA68A",
"H 	c #675D51",
"I 	c #887B5D",
"J 	c #706749",
"K 	c #71694B",
"L 	c #A08E71",
"M 	c #C0AA8D",
"N 	c #AB8869",
"O 	c #8D684B",
"P 	c #654933",
"Q 	c #694C34",
"R 	c #78573E",
"S 	c #886448",
"T 	c #9A7254",
"U 	c #A17D65",
"V 	c #DBBEB9",
"W 	c #DBB5B0",
"X 	c #EACBC7",
"Y 	c #B3AFAD",
"Z 	c #84807F",
"` 	c #BCAEAD",
" .	c #CAB4B4",
"..	c #C7ABAB",
"+.	c #C4A2A2",
"@.	c #C19898",
"#.	c #BB8D8D",
"$.	c #BB8585",
"%.	c #B87D7D",
"&.	c #B67575",
"*.	c #B47070",
"=.	c #B58376",
"-.	c #BFA88B",
";.	c #BDA78A",
">.	c #524B3F",
",.	c #6A6244",
"'.	c #6C6446",
").	c #665E43",
"!.	c #6D6349",
"~.	c #BDA68A",
"{.	c #B09173",
"].	c #937156",
"^.	c #947256",
"/.	c #957C6D",
"(.	c #79757E",
"_.	c #5F718B",
":.	c #617E89",
"<.	c #A0A196",
"[.	c #E6C8C4",
"}.	c #E3C5C2",
"|.	c #DDC0BC",
"1.	c #D0AEAA",
"2.	c #D0CCCA",
"3.	c #CDC9C9",
"4.	c #CCC3C3",
"5.	c #CDBFBF",
"6.	c #CBB5B5",
"7.	c #C39F9F",
"8.	c #C09393",
"9.	c #BC8888",
"0.	c #B97E7E",
"a.	c #B36D6D",
"b.	c #B26A6A",
"c.	c #A67774",
"d.	c #A9927D",
"e.	c #BCA689",
"f.	c #908264",
"g.	c #484339",
"h.	c #514B3C",
"i.	c #796D54",
"j.	c #686045",
"k.	c #685F45",
"l.	c #BBA588",
"m.	c #BBA488",
"n.	c #A18C74",
"o.	c #808083",
"p.	c #687385",
"q.	c #5B6D89",
"r.	c #546F99",
"s.	c #629195",
"t.	c #679A92",
"u.	c #8AADA0",
"v.	c #CABCB3",
"w.	c #CBADA0",
"x.	c #E2BFAC",
"y.	c #C2B2A3",
"z.	c #D0C7C6",
"A.	c #D2CDCD",
"B.	c #D3D1D1",
"C.	c #CFC4C4",
"D.	c #CBB8B8",
"E.	c #C7AAAA",
"F.	c #C29B9B",
"G.	c #BD8C8C",
"H.	c #B97F7F",
"I.	c #B57373",
"J.	c #B36A6A",
"K.	c #B06363",
"L.	c #AB6F6E",
"M.	c #887C7B",
"N.	c #856159",
"O.	c #BEA68A",
"P.	c #918365",
"Q.	c #6B6345",
"R.	c #635C44",
"S.	c #786B59",
"T.	c #8C7D64",
"U.	c #686044",
"V.	c #6C6348",
"W.	c #B39E83",
"X.	c #A28F78",
"Y.	c #727B8B",
"Z.	c #5A6E8C",
"`.	c #636B77",
" +	c #5A6D8B",
".+	c #61859F",
"++	c #6A9D97",
"@+	c #64968E",
"#+	c #71A296",
"$+	c #CEC0A2",
"%+	c #7C9F94",
"&+	c #C0A98D",
"*+	c #BDA892",
"=+	c #CBBBBA",
"-+	c #CEC0C0",
";+	c #CFC5C5",
">+	c #D1CBCB",
",+	c #D3D0D0",
"'+	c #D1CACA",
")+	c #CCBBBB",
"!+	c #C6A8A8",
"~+	c #C09494",
"{+	c #BA8181",
"]+	c #B57171",
"^+	c #B16666",
"/+	c #AF5E5E",
"(+	c #AD5858",
"_+	c #AB5353",
":+	c #A75151",
"<+	c #A85351",
"[+	c #B59B80",
"}+	c #776D4F",
"|+	c #6D634A",
"1+	c #96846E",
"2+	c #7F7259",
"3+	c #645C41",
"4+	c #7B6F55",
"5+	c #AE997F",
"6+	c #9F8D77",
"7+	c #737B8B",
"8+	c #636B78",
"9+	c #74A5AA",
"0+	c #73A7A3",
"a+	c #63978D",
"b+	c #699890",
"c+	c #B9A58D",
"d+	c #9F948D",
"e+	c #BEABAA",
"f+	c #CBB7B7",
"g+	c #D0C7C7",
"h+	c #D2CECE",
"i+	c #C9BDBD",
"j+	c #B29897",
"k+	c #B18282",
"l+	c #AC5555",
"m+	c #AA4F4F",
"n+	c #A84B4B",
"o+	c #A84848",
"p+	c #A74545",
"q+	c #A74746",
"r+	c #997F68",
"s+	c #6F6749",
"t+	c #796C56",
"u+	c #7D6F5B",
"v+	c #73694D",
"w+	c #5B553C",
"x+	c #A29075",
"y+	c #B8A287",
"z+	c #A28F77",
"A+	c #747C8A",
"B+	c #586E91",
"C+	c #596E8F",
"D+	c #5B7594",
"E+	c #7BAFAF",
"F+	c #7CB1AF",
"G+	c #6A9D96",
"H+	c #57817A",
"I+	c #63948C",
"J+	c #AA9D90",
"K+	c #7E7573",
"L+	c #B89F9E",
"M+	c #C8ADAD",
"N+	c #C8B0B0",
"O+	c #C7B9B9",
"P+	c #9E9B99",
"Q+	c #747372",
"R+	c #625656",
"S+	c #944F4D",
"T+	c #A74646",
"U+	c #A64242",
"V+	c #A53F3F",
"W+	c #A43D3D",
"X+	c #A43C3C",
"Y+	c #A43B3B",
"Z+	c #A33F3E",
"`+	c #816B56",
" @	c #6B6446",
".@	c #696245",
"+@	c #746853",
"@@	c #665D46",
"#@	c #6A6245",
"$@	c #6B6149",
"%@	c #B8A286",
"&@	c #BFA88C",
"*@	c #A59279",
"=@	c #92887D",
"-@	c #577096",
";@	c #626B7A",
">@	c #5B6E8B",
",@	c #596E8E",
"'@	c #626B79",
")@	c #627F97",
"!@	c #7DB2B0",
"~@	c #78ACA7",
"{@	c #6C9A90",
"]@	c #65968E",
"^@	c #62938B",
"/@	c #568079",
"(@	c #62928B",
"_@	c #BDA48C",
":@	c #BE9D9A",
"<@	c #C29E9E",
"[@	c #C39E9E",
"}@	c #C39D9D",
"|@	c #C29C9C",
"1@	c #C19999",
"2@	c #BEADAC",
"3@	c #B1B1B1",
"4@	c #5C5C5C",
"5@	c #413B3B",
"6@	c #882E2D",
"7@	c #9F2E2E",
"8@	c #A02F2F",
"9@	c #A03030",
"0@	c #A03131",
"a@	c #A03333",
"b@	c #9E4443",
"c@	c #9D534B",
"d@	c #7B6E56",
"e@	c #6A6345",
"f@	c #70684A",
"g@	c #756A51",
"h@	c #6F664B",
"i@	c #625B40",
"j@	c #83745E",
"k@	c #B19C81",
"l@	c #A18E76",
"m@	c #7B7F87",
"n@	c #596E8D",
"o@	c #5C6D86",
"p@	c #606C7E",
"q@	c #556F97",
"r@	c #6C96A6",
"s@	c #82B4AE",
"t@	c #BCC8A6",
"u@	c #C9CAA0",
"v@	c #84A693",
"w@	c #59847D",
"x@	c #557E77",
"y@	c #BC9D8E",
"z@	c #C09696",
"A@	c #BF9292",
"B@	c #BE8F8F",
"C@	c #BD8B8B",
"D@	c #B87B7B",
"E@	c #A9827F",
"F@	c #968E8D",
"G@	c #755B5A",
"H@	c #7E2221",
"I@	c #951212",
"J@	c #991919",
"K@	c #9B1F1F",
"L@	c #9C2222",
"M@	c #9D2525",
"N@	c #A2504E",
"O@	c #8F8988",
"P@	c #786D60",
"Q@	c #99876D",
"R@	c #7C7056",
"S@	c #776D51",
"T@	c #686043",
"U@	c #635945",
"V@	c #AD987F",
"W@	c #BCA68A",
"X@	c #6A788F",
"Y@	c #626B78",
"Z@	c #586E90",
"`@	c #57749B",
" #	c #79ADAE",
".#	c #7CAEAC",
"+#	c #8B9B91",
"@#	c #D5CFA0",
"##	c #D7D2A2",
"$#	c #9DB597",
"%#	c #61928A",
"&#	c #BB948A",
"*#	c #BC8989",
"=#	c #BB8686",
"-#	c #B16464",
";#	c #AB5252",
">#	c #A23E3E",
",#	c #9A2625",
"'#	c #961010",
")#	c #930707",
"!#	c #950C0C",
"~#	c #971313",
"{#	c #981818",
"]#	c #991B1B",
"^#	c #982A29",
"/#	c #8F4945",
"(#	c #8D7764",
"_#	c #BAA488",
":#	c #85795B",
"<#	c #6D6547",
"[#	c #6E644B",
"}#	c #84765F",
"|#	c #B29D82",
"1#	c #C1AB8D",
"2#	c #A99981",
"3#	c #958775",
"4#	c #8E867B",
"5#	c #5D6F8B",
"6#	c #646C77",
"7#	c #5A7191",
"8#	c #78ABAD",
"9#	c #7BA4A2",
"0#	c #767E7E",
"a#	c #787776",
"b#	c #A3A991",
"c#	c #B0C798",
"d#	c #B88C84",
"e#	c #B98383",
"f#	c #B77A7A",
"g#	c #B67474",
"h#	c #B36C6C",
"i#	c #B06262",
"j#	c #AC5656",
"k#	c #A23535",
"l#	c #9C2424",
"m#	c #981616",
"n#	c #940B0B",
"o#	c #930505",
"p#	c #940A0A",
"q#	c #950F0F",
"r#	c #971414",
"s#	c #961C1C",
"t#	c #95584B",
"u#	c #AA967D",
"v#	c #BDA689",
"w#	c #B29D81",
"x#	c #AB967D",
"y#	c #C5B693",
"z#	c #CAC49B",
"A#	c #807F7A",
"B#	c #737477",
"C#	c #737476",
"D#	c #727375",
"E#	c #607087",
"F#	c #435A73",
"G#	c #618987",
"H#	c #799594",
"I#	c #757878",
"J#	c #757575",
"K#	c #778B89",
"L#	c #73AA9A",
"M#	c #B29C95",
"N#	c #857876",
"O#	c #AD7372",
"P#	c #B26969",
"Q#	c #B06161",
"R#	c #AD5757",
"S#	c #A94C4C",
"T#	c #A13232",
"U#	c #991A1A",
"V#	c #930909",
"W#	c #920505",
"X#	c #920B0B",
"Y#	c #940E0E",
"Z#	c #96322B",
"`#	c #917865",
" $	c #BEA78B",
".$	c #AC9B7F",
"+$	c #BAAE8B",
"@$	c #7A7F87",
"#$	c #5B6F8F",
"$$	c #676E78",
"%$	c #6F747B",
"&$	c #2C2F32",
"*$	c #545454",
"=$	c #6F6F6F",
"-$	c #5E7371",
";$	c #6DAD95",
">$	c #9F8F85",
",$	c #886361",
"'$	c #B16C6C",
")$	c #B26767",
"!$	c #AF6060",
"~$	c #9D2626",
"{$	c #9A1D1D",
"]$	c #951010",
"^$	c #930808",
"/$	c #8F0D0C",
"($	c #93201C",
"_$	c #977360",
":$	c #B29D83",
"<$	c #C5B28E",
"[$	c #C0B08E",
"}$	c #607493",
"|$	c #606A78",
"1$	c #6D6653",
"2$	c #757574",
"3$	c #747371",
"4$	c #616161",
"5$	c #161616",
"6$	c #020201",
"7$	c #B89882",
"8$	c #B26D6C",
"9$	c #AD5959",
"0$	c #A84949",
"a$	c #A54141",
"b$	c #A33838",
"c$	c #9A1E1E",
"d$	c #9C2C2C",
"e$	c #9C7977",
"f$	c #7D3F3D",
"g$	c #8F2721",
"h$	c #846957",
"i$	c #A1927B",
"j$	c #C5AF8C",
"k$	c #BBAF84",
"l$	c #C2B68A",
"m$	c #C2AC8D",
"n$	c #B6A085",
"o$	c #A28F76",
"p$	c #858383",
"q$	c #5D6D84",
"r$	c #67645B",
"s$	c #6F5215",
"t$	c #724F07",
"u$	c #74684F",
"v$	c #7C786E",
"w$	c #8F7A44",
"x$	c #68582B",
"y$	c #2E2713",
"z$	c #B37D71",
"A$	c #AD5A5A",
"B$	c #AB5454",
"C$	c #A65A59",
"D$	c #9F504F",
"E$	c #A43E3E",
"F$	c #A23636",
"G$	c #9D2727",
"H$	c #9B2020",
"I$	c #9B3E3D",
"J$	c #817775",
"K$	c #6F574C",
"L$	c #88715E",
"M$	c #A6947C",
"N$	c #BEA98C",
"O$	c #CF9265",
"P$	c #D0C59C",
"Q$	c #C3B594",
"R$	c #A59179",
"S$	c #66748B",
"T$	c #6A5D41",
"U$	c #714F08",
"V$	c #724E04",
"W$	c #72520F",
"X$	c #756F64",
"Y$	c #8B7F60",
"Z$	c #A88D45",
"`$	c #BCA388",
" %	c #B07C6E",
".%	c #AC5957",
"+%	c #A95E5D",
"@%	c #9D9493",
"#%	c #6F5553",
"$%	c #A03C3B",
"%%	c #A23434",
"&%	c #9F2D2D",
"*%	c #9C2826",
"=%	c #954139",
"-%	c #8E6F5E",
";%	c #92806B",
">%	c #AE9A80",
",%	c #B9A68B",
"'%	c #C9B990",
")%	c #D2A77C",
"!%	c #D4926C",
"~%	c #AE9479",
"{%	c #90826F",
"]%	c #6A582E",
"^%	c #7C5A10",
"/%	c #937E49",
"(%	c #787672",
"_%	c #857C65",
":%	c #A78D46",
"<%	c #A78D45",
"[%	c #BFA78B",
"}%	c #B6937C",
"|%	c #AA786A",
"1%	c #946661",
"2%	c #93514B",
"3%	c #A1413E",
"4%	c #9C403C",
"5%	c #9D4841",
"6%	c #A35D50",
"7%	c #9C7462",
"8%	c #8F7D68",
"9%	c #998770",
"0%	c #9B8A72",
"a%	c #B4A483",
"b%	c #CFC398",
"c%	c #D7CEAF",
"d%	c #B1A189",
"e%	c #A49178",
"f%	c #937B55",
"g%	c #785612",
"h%	c #734F05",
"i%	c #88681E",
"j%	c #A58A42",
"k%	c #867D65",
"l%	c #887E63",
"m%	c #A58E47",
"n%	c #A28F48",
"o%	c #C0A88B",
"p%	c #BEA388",
"q%	c #BEA488",
"r%	c #B99C82",
"s%	c #B1997F",
"t%	c #B39D82",
"u%	c #B49F84",
"v%	c #B59F84",
"w%	c #BBA589",
"x%	c #A38F77",
"y%	c #867662",
"z%	c #8C7D66",
"A%	c #A89A80",
"B%	c #B5A790",
"C%	c #A08D74",
"D%	c #886C3A",
"E%	c #735007",
"F%	c #917229",
"G%	c #A78C46",
"H%	c #7E796C",
"I%	c #8E815C",
"J%	c #9E914A",
"K%	c #B09B81",
"L%	c #877763",
"M%	c #A18B6C",
"N%	c #7D5C1E",
"O%	c #A68F4E",
"P%	c #7E7C74",
"Q%	c #8C805F",
"R%	c #A48E47",
"S%	c #998670",
"T%	c #95836D",
"U%	c #A58A5F",
"V%	c #76530E",
"W%	c #724F05",
"X%	c #A88E47",
"Y%	c #C7BD8B",
"Z%	c #B8B493",
"`%	c #B49F85",
" &	c #B6A086",
".&	c #9C8972",
"+&	c #887863",
"@&	c #BCA585",
"#&	c #94763F",
"$&	c #734F06",
"%&	c #775510",
"&&	c #B9A76C",
"*&	c #BDB484",
"=&	c #60574D",
"-&	c #675D52",
";&	c #877866",
">&	c #B7A186",
",&	c #8F7E69",
"'&	c #AF9A80",
")&	c #B39A75",
"!&	c #836221",
"~&	c #7F6024",
"{&	c #9B8566",
"]&	c #A58E46",
"^&	c #A18C46",
"/&	c #232011",
"(&	c #010101",
"_&	c #A4917A",
":&	c #56504B",
"<&	c #423E3C",
"[&	c #433E3A",
"}&	c #6F6357",
"|&	c #A7937C",
"1&	c #BEA88B",
"2&	c #A4885A",
"3&	c #77540C",
"4&	c #8A6F3F",
"5&	c #A08C73",
"6&	c #A38F47",
"7&	c #977F3E",
"8&	c #2B2412",
"9&	c #524522",
"0&	c #B3A08A",
"a&	c #7D7A78",
"b&	c #6E6B69",
"c&	c #504D4B",
"d&	c #3B3735",
"e&	c #3C3735",
"f&	c #63594F",
"g&	c #AB977F",
"h&	c #BCA484",
"i&	c #8F7036",
"j&	c #724E05",
"k&	c #785613",
"l&	c #967F5B",
"m&	c #43391C",
"n&	c #332B15",
"o&	c #050403",
"p&	c #A68B44",
"q&	c #6B5A2C",
"r&	c #070603",
"s&	c #B5A99C",
"t&	c #AFADAC",
"u&	c #999796",
"v&	c #726F6E",
"w&	c #474341",
"x&	c #443F3B",
"y&	c #62594F",
"z&	c #B19771",
"A&	c #7F5D1B",
"B&	c #816329",
"C&	c #9D886C",
"D&	c #010202",
"E&	c #221C0E",
"F&	c #040302",
"G&	c #C2B5A4",
"H&	c #DDDCDB",
"I&	c #B8B7B6",
"J&	c #868483",
"K&	c #55514F",
"L&	c #90806C",
"M&	c #AB9066",
"N&	c #78550F",
"O&	c #74510A",
"P&	c #8C7244",
"Q&	c #C0AA8F",
"R&	c #C8BFB4",
"S&	c #B7B3AF",
"T&	c #8B8682",
"U&	c #8C7F70",
"V&	c #AC9269",
"W&	c #78550E",
"X&	c #795816",
"Y&	c #97805E",
"Z&	c #BFA98D",
"`&	c #BDA78C",
" *	c #7A5712",
".*	c #83662E",
"+*	c #9E8A6E",
"@*	c #A39077",
"#*	c #836222",
"$*	c #7C5C1C",
"%*	c #947C56",
"&*	c #A18E75",
"**	c #B2B0AF",
"=*	c #A9A7A7",
"-*	c #878584",
";*	c #B49B76",
">*	c #7B5915",
",*	c #7D5D1E",
"'*	c #90764C",
")*	c #9F8B71",
"!*	c #7F7C7B",
"~*	c #524F4D",
"{*	c #5D5A58",
"]*	c #6C6967",
"^*	c #AC977C",
"/*	c #9D886A",
"(*	c #4A4745",
"_*	c #484442",
":*	c #5C5957",
"<*	c #A8947B",
"[*	c #A28E76",
"}*	c #A9957C",
"                                                                                                                                                                ",
"                                                                                                                        . + @ #                                 ",
"                                                                                                                    $ % & * = -                                 ",
"                                                                                                                  ; > , ' ) ! ~                                 ",
"                                                                                                                { ] ^ / ( _ :                                   ",
"                                                                  < < < < < < < < < < < < < <     [ } | 1 2 3 4 5 6 7 8 9 0 a                                   ",
"                                                      b c d e f g h < < < < < < i j k h < < < < < l m n o p q r s t u v v v v                                   ",
"                                                w x y z A B C D E F G < < < < H I J K L M < < < < h N O P Q R S T U V v 9 W X                                   ",
"                                            Y Z `  ...+.@.#.$.%.&.*.=.-.< < ;.>.,.'.).!.~.< < < < -.{.].^./.(._.:.<.[.}.|.1.                                    ",
"                                          2.3.4.5.6...7.8.9.0.&.a.b.c.d.< e.f.g.h.i.j.k.l.< < < < m.n.o.p.q.r.s.t.u.v.w.x.                                      ",
"                                      y.z.A.B.A.C.D.E.F.G.H.I.J.K.L.M.N.O.P.Q.R.S.T.U.V.~.< < M W.X.Y.Z.`. +.+++@+@+#+$+%+@+                                    ",
"                                  &+*+=+-+;+>+,+'+)+!+~+{+]+^+/+(+_+:+<+[+}+,.|+1+2+3+4+h < < 5+6+7+q.8+ +r.9+0+@+@+@+a+@+@+b+                                  ",
"                                < c+d+e+f+)+-+g+h+i+j+k+a./+l+m+n+o+p+q+r+s+,.t+u+v+w+x+< < y+z+A+ +8+B+C+D+E+F+G+@+@+@+H+I+@+                                  ",
"                              < h J+K+L+..M+N+ .O+P+Q+R+S+T+U+V+W+X+Y+Z+`+ @.@+@@@#@$@%@< &@*@=@-@;@>@,@'@)@!@!@~@{@]@@+^@/@(@                                  ",
"                            < < _@:@<@7.[@}@|@1@2@3@4@5@6@7@8@9@0@a@b@c@d@e@f@g@h@i@j@h < k@l@m@n@;@o@p@q@r@!@s@t@u@v@@+@+w@x@@+                                ",
"                            < < y@z@~+A@B@C@$.D@E@F@G@H@I@J@K@L@M@N@O@P@Q@'.R@S@T@U@V@< W@z+l@X@p@p@Y@Z@`@ #.#+#@###$#@+@+%#@+@+                                ",
"                          < < h &#G.*#=#{+D@]+-#;#>#,#'#)#!#~#{#]#^#/#(#_#:#<#[#}#|#< 1#2#3#4#5#6#Y@7#r@8#9#0#a#b#c#    @+@+@+@+                                ",
"                          < < -.d#e#H.f#g#h#i#j#T+k#l#m#n#o#p#q#r#s#t#u#< v#w#x#&@< < y#z#A#B#C#D#E#F#G#H#I#J#K#L#          @+                                  ",
"                          < < &@M#N#O#*.P#Q#R#S#V+T#M@U#'#V#W#X#Y#Z#`#h < M M < < <  $.$+$@$#$$$C#%$&$*$J#=$-$;$                                                ",
"                          < < &@>$,$'$)$!$(+m+p+Y+9@~${$r#]$^$/$($_$:$< <$[$M < < < k@l@l@}$p@|$1$2$3$J#4$5$6$                                                  ",
"                        < < < < 7$8$^+!$9$;#0$a$b$8@~$c$d$e$f$g$h$i$< j$k$l$m$< < n$o$l@p$q$r$s$t$u$J#v$w$x$y$                                                  ",
"                        < < < < O.z$!$A$B$C$D$E$F$7@G$H$I$J$K$L$M$N$m$O$P$Q$-.< -.R$l@6+S$T$U$V$V$W$X$J#Y$Z$Z$Z$                                                ",
"                        < < < < < `$ %.%+%@%#%$%%%&%G$*%=%-%;%>%,%N$'%)%!%~%&@< |#z+l@{%]%V$V$V$V$^%/%(%_%:%Z$Z$<%                                              ",
"                        < < < < < < [%}%|%1%2%3%4%5%6%7%8%9%5+ $0%a%b%c%d%_#< h e%l@f%g%V$V$V$h%i%j%:%k%l%Z$Z$Z$m%n%                                            ",
"                        < < < < < < < < o%p%q%r%s%t%u%v%w%h < x%y%z%A%B%:$< < v%C%D%E%V$V$V$V$F%Z$Z$G%H%I%Z$Z$:%J%:%Z$                                          ",
"                        < < M < < < < < < < < < < < < < < < K%y%y%y%y%L%%@< < M%N%V$V$V$V$V$    Z$Z$O%P%Q%Z$Z$R%<%Z$Z$                                          ",
"                        < < < < < < < < < < < < < < < < < < S%y%y%y%y%T%< h U%V%V$V$V$V$W%      Z$X%Y%Z%    <%<%Z$Z$Z$Z$                                        ",
"                        < < < < < `% &< < < < < < M < < < < .&y%y%y%+&%@@&#&$&V$V$V$%&          Z$Z$&&*&        Z$Z$Z$Z$                                        ",
"                        < < < < < =&-&;&>&< < < < M < < < < >&,&y%,&'&)&!&V$V$V$V$~&{&        Z$<%]&^&/&          Z$Z$Z$(&                                      ",
"                          < < < < _&:&<&[&}&|&< < < < < < < < i y+1&2&3&V$V$V$$&4&5&l@        6&m%7&8&            Z$Z$9&(&                                      ",
"                          < < < < 0&a&b&c&d&e&f&g&< < < < < < < h&i&j&V$V$V$k&l&l@l@          m&n&o&(&            p&q&r&                                        ",
"                            < < < s&t&u&v&w&x&y&:$< < < < < < z&A&V$V$V$j&B&C&l@l@l@        (&D&(&(&              E&F&(&                                        ",
"                              < < G&H&I&J&K&L&< < < < < < < M&N&V$V$V$O&P&C%l@l@l@l@      (&(&(&(&              (&(&(&                                          ",
"                                < Q&R&S&T&U&1&< < < < < < V&W&V$V$V$X&Y&l@l@l@l@l@      (&(&(&(&                (&(&(&                                          ",
"                                  < &+Z&`&h < < < < < < )& *V$V$h%.*+*l@l@l@l@l@@*    (&(&(&(&                  (&(&(&                                          ",
"                                    < < < < < < < < < @&#*V$j&$*%*&*l@l@l@l@l@l@    (&(&(&(&(&                (&(&(&(&                                          ",
"              **=*-*                  < < < < < < < < ;*>*,*'*)*l@l@l@l@l@l@l@l@    (&(&(&(&(&                (&(&(&                                            ",
"              !*~*{*]*                  < < < < < h %@^*/*5&l@l@l@l@l@l@l@l@l@      (&(&(&(&(&              (&(&(&(&(&                                          ",
"                (*_*:*                    < < < n$*@l@l@l@l@l@l@l@l@l@l@l@l@              (&(&(&(&          (&(&(&(&(&(&(&                                      ",
"                                            1&<*l@x%x%l@l@l@l@l@l@l@[*}*                    (&(&(&                  (&(&(&(&                                    "};
