/* XPM */
static char * Automat_32_xpm[] = {
"23 32 150 2",
"  	c None",
". 	c #7F7F7F",
"+ 	c #878787",
"@ 	c #787878",
"# 	c #989898",
"$ 	c #5A5A5A",
"% 	c #7E7E7E",
"& 	c #676767",
"* 	c #6B6B6B",
"= 	c #525252",
"- 	c #B5B5B5",
"; 	c #7A7A7A",
"> 	c #4A4A4A",
", 	c #949494",
"' 	c #7D7D7D",
") 	c #646464",
"! 	c #808080",
"~ 	c #C7C7C7",
"{ 	c #8D8D8D",
"] 	c #C9C9C9",
"^ 	c #B1B1B1",
"/ 	c #C6C6C6",
"( 	c #BEBEBE",
"_ 	c #595959",
": 	c #777777",
"< 	c #686868",
"[ 	c #B9B9B9",
"} 	c #767676",
"| 	c #B2B2B2",
"1 	c #575757",
"2 	c #5B5B5B",
"3 	c #A2A2A2",
"4 	c #636363",
"5 	c #666666",
"6 	c #A5A5A5",
"7 	c #797979",
"8 	c #707070",
"9 	c #BABABA",
"0 	c #8B8B8B",
"a 	c #929292",
"b 	c #C0C0C0",
"c 	c #8A8A8A",
"d 	c #B4B4B4",
"e 	c #717171",
"f 	c #626262",
"g 	c #484848",
"h 	c #D6D6D6",
"i 	c #909090",
"j 	c #A1A1A1",
"k 	c #969696",
"l 	c #9C9C9C",
"m 	c #828282",
"n 	c #B0B0B0",
"o 	c #424242",
"p 	c #5E5E5E",
"q 	c #6A6A6A",
"r 	c #868686",
"s 	c #535353",
"t 	c #616161",
"u 	c #898989",
"v 	c #D2D2D2",
"w 	c #515151",
"x 	c #8E8E8E",
"y 	c #6F6F6F",
"z 	c #3F3F3F",
"A 	c #4B4B4B",
"B 	c #3C3C3C",
"C 	c #7B7B7B",
"D 	c #D3D3D3",
"E 	c #494949",
"F 	c #414141",
"G 	c #565656",
"H 	c #6C6C6C",
"I 	c #5D5D5D",
"J 	c #505050",
"K 	c #858585",
"L 	c #A6A6A6",
"M 	c #747474",
"N 	c #474747",
"O 	c #D9D9D9",
"P 	c #656565",
"Q 	c #ACACAC",
"R 	c #CACACA",
"S 	c #959595",
"T 	c #404040",
"U 	c #919191",
"V 	c #DBDBDB",
"W 	c #BCBCBC",
"X 	c #C4C4C4",
"Y 	c #D5D5D5",
"Z 	c #757575",
"` 	c #555555",
" .	c #C2C2C2",
"..	c #DDDDDD",
"+.	c #AFAFAF",
"@.	c #CBCBCB",
"#.	c #888888",
"$.	c #545454",
"%.	c #4F4F4F",
"&.	c #C1C1C1",
"*.	c #1B1B1B",
"=.	c #BFBFBF",
"-.	c #313131",
";.	c #848484",
">.	c #A8A8A8",
",.	c #333333",
"'.	c #5F5F5F",
").	c #B6B6B6",
"!.	c #696969",
"~.	c #A9A9A9",
"{.	c #D7D7D7",
"].	c #DFDFDF",
"^.	c #C3C3C3",
"/.	c #D8D8D8",
"(.	c #4E4E4E",
"_.	c #BDBDBD",
":.	c #838383",
"<.	c #9F9F9F",
"[.	c #464646",
"}.	c #8C8C8C",
"|.	c #4D4D4D",
"1.	c #CFCFCF",
"2.	c #606060",
"3.	c #CDCDCD",
"4.	c #9A9A9A",
"5.	c #B8B8B8",
"6.	c #A4A4A4",
"7.	c #A0A0A0",
"8.	c #9B9B9B",
"9.	c #979797",
"0.	c #4C4C4C",
"a.	c #383838",
"b.	c #8F8F8F",
"c.	c #AAAAAA",
"d.	c #CECECE",
"e.	c #727272",
"f.	c #9D9D9D",
"g.	c #ABABAB",
"h.	c #B3B3B3",
"i.	c #D1D1D1",
"j.	c #737373",
"k.	c #818181",
"l.	c #D0D0D0",
"m.	c #B7B7B7",
"n.	c #A3A3A3",
"o.	c #D4D4D4",
"p.	c #3A3A3A",
"q.	c #6E6E6E",
"r.	c #ADADAD",
"s.	c #999999",
"            . +                               ",
"          @ # $ %                             ",
"      & * = - ; > , '                         ",
"    ) ! ~ { ] ^ / ( _                         ",
"      : < [ } + | 1 2     3 4 5 6             ",
"      7 8 9 0 a b c @   d e f g _             ",
"    5 8 h i j k % j e   l m n 4 o 4           ",
"      p f q l r s t 5   u 0 v k s w x j j     ",
"          ; r y = z A B g C D # E F G H t I   ",
"              s J K L M N + O L P * Q R S T   ",
"              @ = U V [ l | D W X D Y n Z B   ",
"                8 ` Z  ...+.@ m @.] #.$.%.p   ",
"                &.Z *.& =.S -.o ;.>.G ,.'.    ",
"                + 2 $.;.X ).4 !.W V 6 f F .   ",
"              . ` < ~.{.].R d X ^./ /.] { <   ",
"              H (.r R _.:.+ W O 8 e <.d , I   ",
"        l s [.}.|.2 C ` > 5 n 1.g B f 7 '.2.  ",
"      /.4 7 w $ ! 5 2 Q , Z n 3.s 7 4.!.H     ",
"        #.5.6._ E 1 7.8.9.P k >.0.4           ",
"  j Z G 8 6 &.5 ` =./.}.!.t q 5 [.            ",
"^ w A (.a.b.D c.9 d.U ) e.j Z f :             ",
"; J f.| }.g.5.~.R L g g                       ",
"  2 % h.i.1.) -.r W ' j.& %                   ",
"  + 4 o e 5.b.I <.Y /.] k p                   ",
"    <.` k.R l.m.v u { n.Z I                   ",
"    2 < 1.o.c 7.1.I p.q.!.Z                   ",
"    A M r.8 s % ] K !.                        ",
"    H w f ; 4.) 5.m '.                        ",
"      9.      A 4 t 5                         ",
"                s.                            ",
"                                              ",
"                                              "};
