/* XPM */
static char * Claymore_50_xpm[] = {
"50 32 24 1",
" 	c None",
".	c #606D7A",
"+	c #3A4249",
"@	c #3C444C",
"#	c #65727E",
"$	c #4C5761",
"%	c #51606F",
"&	c #6C8195",
"*	c #6D8297",
"=	c #738AA0",
"-	c #758CA2",
";	c #505C65",
">	c #434D55",
",	c #4E5C6A",
"'	c #566777",
")	c #576979",
"!	c #64788B",
"~	c #6A7F93",
"{	c #697E92",
"]	c #4E5D6A",
"^	c #5B6D7E",
"/	c #627688",
"(	c #424B52",
"_	c #3F474F",
"                                                  ",
"                                                  ",
"                                                  ",
"                                                  ",
"                                                  ",
"                                                  ",
"            .+                                    ",
"            @+                                    ",
"            +                                     ",
"            +                                     ",
"            +                                     ",
"            +                                     ",
"            +                                     ",
"            +                                     ",
"#$         ++%&*=-----------------------------    ",
";>+++++++++++,')!~~~~~~~~~~~~~~~~~~~~~~~~~~~~~~~{ ",
"+++++++++++++]^/!!!!!!!!!!!!!!!!!!!!!!!!!!!!!!!!  ",
"            +                                     ",
"            +                                     ",
"            +                                     ",
"            +                                     ",
"            +                                     ",
"            +                                     ",
"            (+                                    ",
"            _+                                    ",
"            +                                     ",
"                                                  ",
"                                                  ",
"                                                  ",
"                                                  ",
"                                                  ",
"                                                  "};
