/* XPM */
static char * Clear_32_xpm[] = {
"50 32 174 2",
"  	c None",
". 	c #3A669A",
"+ 	c #467AB6",
"@ 	c #928E7E",
"# 	c #B6B29E",
"$ 	c #DE7EB6",
"% 	c #DAD6BE",
"& 	c #4E6696",
"* 	c #D27AAE",
"= 	c #6A72B2",
"- 	c #FEFAE2",
"; 	c #CE7AAA",
"> 	c #D68EB2",
", 	c #9E668A",
"' 	c #EEEAD2",
") 	c #C2C2AE",
"! 	c #C686A6",
"~ 	c #9AAAB2",
"{ 	c #B26692",
"] 	c #DEDAC2",
"^ 	c #D28AAE",
"/ 	c #E2B2C2",
"( 	c #DAC6BE",
"_ 	c #BA6A96",
": 	c #9A7AAE",
"< 	c #E2DEC6",
"[ 	c #CECAB2",
"} 	c #DEAABA",
"| 	c #CE9AAE",
"1 	c #BE6E9A",
"2 	c #DAB2BA",
"3 	c #E6E2CA",
"4 	c #EEEEDA",
"5 	c #C26E9E",
"6 	c #4272AE",
"7 	c #8E6A92",
"8 	c #D2CEB6",
"9 	c #A6A292",
"0 	c #E6A6C2",
"a 	c #EEE6CE",
"b 	c #BEBAA6",
"c 	c #6272B2",
"d 	c #EACECA",
"e 	c #A29E8E",
"f 	c #C6AEAA",
"g 	c #EAE6CE",
"h 	c #FAF6DE",
"i 	c #E6D6CA",
"j 	c #CEB6B2",
"k 	c #EADACA",
"l 	c #CEC6B2",
"m 	c #C672A2",
"n 	c #9E729E",
"o 	c #AEAA96",
"p 	c #D6D2BA",
"q 	c #9E9A8A",
"r 	c #4E6E9E",
"s 	c #FEFEEA",
"t 	c #DAD2BE",
"u 	c #BA72AA",
"v 	c #8672AE",
"w 	c #CE72A6",
"x 	c #C6BEAA",
"y 	c #E68ABE",
"z 	c #E2BAC2",
"A 	c #CE86AA",
"B 	c #F6EED6",
"C 	c #C2BEAA",
"D 	c #E6DACA",
"E 	c #CAC6AE",
"F 	c #E686BA",
"G 	c #EAE2CA",
"H 	c #BE76AA",
"I 	c #E6DEC6",
"J 	c #3E6EA6",
"K 	c #926EAE",
"L 	c #E292BA",
"M 	c #4E76B6",
"N 	c #F6F2DA",
"O 	c #DED6C2",
"P 	c #CE76A6",
"Q 	c #D6CEBA",
"R 	c #D2CAB6",
"S 	c #B2AE9A",
"T 	c #D276AA",
"U 	c #E2DAC2",
"V 	c #EEE6D2",
"W 	c #E682BA",
"X 	c #F2EAD2",
"Y 	c #CAC2AE",
"Z 	c #E6AAC2",
"` 	c #BE72AA",
" .	c #9672AE",
"..	c #FAFAE6",
"+.	c #DA7AAE",
"@.	c #4A76B6",
"#.	c #F6F2DE",
"$.	c #4A7AB6",
"%.	c #BAB6A2",
"&.	c #F2F2DE",
"*.	c #CA76A6",
"=.	c #FAF6E2",
"-.	c #EAE6D2",
";.	c #FEFAE6",
">.	c #E67EBA",
",.	c #B66A96",
"'.	c #969282",
").	c #FAF6E6",
"!.	c #3E6AA2",
"~.	c #E6D2C6",
"{.	c #C2BAA6",
"].	c #4E72AA",
"^.	c #B26A92",
"/.	c #6276B6",
"(.	c #DA7EB2",
"_.	c #D28EAE",
":.	c #E6B6C2",
"<.	c #BA6E9A",
"[.	c #DAB6BE",
"}.	c #4676B2",
"|.	c #BA76AA",
"1.	c #E68EBE",
"2.	c #9272AE",
"3.	c #D2CEBA",
"4.	c #D6D2BE",
"5.	c #D2C6BA",
"6.	c #B2AE9E",
"7.	c #C6C2AE",
"8.	c #EADECA",
"9.	c #FAF2DE",
"0.	c #DEAEBA",
"a.	c #E6BEC6",
"b.	c #E6AEC2",
"c.	c #EAE2CE",
"d.	c #FEF6E2",
"e.	c #FEFAEA",
"f.	c #3E669E",
"g.	c #EAD2CA",
"h.	c #E27EB6",
"i.	c #EAD6CA",
"j.	c #CA72A2",
"k.	c #FEFEEE",
"l.	c #F2EEDA",
"m.	c #B2AA9A",
"n.	c #E692BE",
"o.	c #FAF2DA",
"p.	c #E6DECA",
"q.	c #E6B2C2",
"r.	c #DEB2BE",
"s.	c #EEDACE",
"t.	c #928E82",
"u.	c #DAD6C2",
"v.	c #EEEAD6",
"w.	c #CECAB6",
"x.	c #E6E2CE",
"y.	c #DAD2C2",
"z.	c #DED6C6",
"A.	c #CE76AA",
"B.	c #F6F2E2",
"C.	c #E2DAC6",
"D.	c #CAC6B2",
"E.	c #C6BEAE",
"F.	c #FAF6EA",
"G.	c #3A669E",
"H.	c #DA7AB2",
"I.	c #EAE6D6",
"J.	c #E6D2CA",
"K.	c #B6B2A2",
"L.	c #BAB6A6",
"M.	c #F2F2E2",
"N.	c #CA72A6",
"O.	c #AEAA9A",
"P.	c #4676B6",
"Q.	c #F2EEDE",
"                                                                                                    ",
"                                                                                                    ",
"                                    C E.E.7.7.7.7.7.7.C {.b b b K.# u.                              ",
"                                  3.l.&.&.&.B.B.B.B.#.N &.&.&.M.l.w.[ 3.                            ",
"                                w.l.- ;.- ..h =...=.;.;.;.e.s F.-.E.Y [                             ",
"                                R a l.l.X X ' ' a X v.X X B 9.x.] C 7.w.      +                     ",
"                                8 c.a a a a a V g a g g V N g C.3 7.b 7.    P.+ +                   ",
"                                R ] E C O w.4.< t C.] O ' I O c.p.x E.~ $.+ + P.P.+                 ",
"                                L.6.C C O.9 # e C l E.p % 8 < 3 3 C     P.P.+ + P.+ +               ",
"                                [ R 7.w.%.b C 6.w.7.E l C % 3 p.C.j : = P.+ P.P.+ P.P.+             ",
"                                w.p.< < 8 4.p 8 4.w.w.D.4.p.g c.d | |. .c + + P.+ + P.+ +           ",
"                                7.] O Q Y R Q t 4.Q 3.Q < 3 p.i 2 A *.H 2.c P.+ P.P.+ P.P.          ",
"                                7.p Y D.E Q % t 4.% O U 3 G ~.2 A A.A.*.|. .c P.+ P.+ + P.          ",
"                                Y p [ R 3.p % ] O O < p.G g.r._.A.A.w w N.u 2./.P.+ P.J !.          ",
"                                7.4.u.t O U C.< ] ] 3 c.J.0._.; w A.A.A.A.N.u K c P.J G.G.          ",
"                                l ] ] U ] < 3 < 3 G c.k z _.A.w P w w w w A.m u v ].f..             ",
"                                Q C.< c.p.G G G c.g s.z L (.T w A.A.A.A.w A.w m n r .               ",
"                                3.3 c.g g 3 G g g c.d 0 F h.+.A.w w w w A.w N._ 7 &                 ",
"                                < g G c.a -.a g a c.D :.1.W >.+.T T A.w A.N.1 { ,                   ",
"                                c.a g g V a g c.g a c.i / 1.W h.H.T w w 5 ,.^.                      ",
"                                < g V g g a ' V -.V c.8.J.Z y >.h.+.A.j.,.^.^.                      ",
"                                c.V g V V -.a g a a -.-.x.~./ L W H.w _ ,.                          ",
"                                C.a g g a V V -.-.a g a g c.g.Z 1.* <.^.                            ",
"                                p u.O O u.% % O O u.O u.O z.y.( } ! ,.                              ",
"                              l.X -.-.g -.a g g g 3 g ' ' ' g z.5.f                                 ",
"                            - k.k.k.k.k.k.k.k.k.k.k.k.k.k.k.;.3 t {.                                ",
"                            d...- - d.=.).=.).d.e.;...;.)...N l l b                                 ",
"                            % Q 8 p 3.R 3.p Q 4.p Q t 4.p Q O % < L.                                ",
"                            %.6.S 6.6.o O.o S m.S O.O.O.S 6.L.R R %.                                ",
"                              t.t.@ @ t.@ @ @ t.@ t.@ @ @ @ q C D.                                  ",
"                                                                                                    ",
"                                                                                                    "};
