/* XPM */
static char * CountrChar_trans_50_xpm[] = {
"50 32 256 2",
"  	c None",
". 	c #020202",
"+ 	c #066E1A",
"@ 	c #166E1A",
"# 	c #B5AA6D",
"$ 	c #EEE6A0",
"% 	c #2E420E",
"& 	c #E6DA92",
"* 	c #045A16",
"= 	c #367222",
"- 	c #7E4E0E",
"; 	c #42822E",
"> 	c #D7CD85",
", 	c #888264",
"' 	c #2E6A1E",
") 	c #AEAA96",
"! 	c #27490F",
"~ 	c #568232",
"{ 	c #EEE6C2",
"] 	c #4E6E2A",
"^ 	c #C1B989",
"/ 	c #928E6A",
"( 	c #948E72",
"_ 	c #6A460A",
": 	c #DED6AA",
"< 	c #968B5A",
"[ 	c #2A2606",
"} 	c #B26A02",
"| 	c #B26E02",
"1 	c #FAF6AA",
"2 	c #BEB69A",
"3 	c #3E3E3E",
"4 	c #DAD6BA",
"5 	c #928E7F",
"6 	c #FEFAAE",
"7 	c #D6CE8A",
"8 	c #C4BE9A",
"9 	c #5E5A3A",
"0 	c #F6EECE",
"a 	c #9A8E5A",
"b 	c #72662A",
"c 	c #2A2206",
"d 	c #5E3A0A",
"e 	c #969486",
"f 	c #FAF6B6",
"g 	c #6E6643",
"h 	c #52521A",
"i 	c #857D5D",
"j 	c #E2DAB2",
"k 	c #726E2E",
"l 	c #5F5E12",
"m 	c #9F9A8A",
"n 	c #805614",
"o 	c #BC8329",
"p 	c #1A1A14",
"q 	c #CABA9E",
"r 	c #06761A",
"s 	c #D6D2B2",
"t 	c #F9F6E7",
"u 	c #8B8255",
"v 	c #1A5E12",
"w 	c #877E55",
"x 	c #76520E",
"y 	c #DEDACA",
"z 	c #CEBE9E",
"A 	c #AEAA9E",
"B 	c #344A10",
"C 	c #CA9E5C",
"D 	c #CAC6AA",
"E 	c #7E5E1E",
"F 	c #D0C27E",
"G 	c #131211",
"H 	c #A2A292",
"I 	c #E6E2BA",
"J 	c #526626",
"K 	c #32721E",
"L 	c #867A52",
"M 	c #067A1E",
"N 	c #FEFEFE",
"O 	c #5E520E",
"P 	c #383834",
"Q 	c #625A3A",
"R 	c #EEEAC6",
"S 	c #B6B29A",
"T 	c #7E7232",
"U 	c #AA9E62",
"V 	c #9E925E",
"W 	c #067E1E",
"X 	c #F6F2D2",
"Y 	c #32420E",
"Z 	c #545040",
"` 	c #D0CCBA",
" .	c #C8C0AA",
"..	c #5A5E1A",
"+.	c #6E4A0E",
"@.	c #165E12",
"#.	c #AEA69B",
"$.	c #B9AF77",
"%.	c #EAE6CA",
"&.	c #817A53",
"*.	c #9A9276",
"=.	c #84827C",
"-.	c #79670A",
";.	c #026818",
">.	c #A5A29A",
",.	c #362E22",
"'.	c #664E0E",
").	c #A39A67",
"!.	c #9E967A",
"~.	c #BAB69E",
"{.	c #F4F2E0",
"].	c #DEDEDE",
"^.	c #C2924A",
"/.	c #CEB286",
"(.	c #F8F6EE",
"_.	c #524A2E",
":.	c #765E22",
"<.	c #E6E6D2",
"[.	c #BEBEBD",
"}.	c #0A821E",
"|.	c #7D7D7B",
"1.	c #6B5F27",
"2.	c #4C4A3E",
"3.	c #63635F",
"4.	c #D6D2BE",
"5.	c #282824",
"6.	c #C29042",
"7.	c #363E0E",
"8.	c #B6B2A2",
"9.	c #B6B6A2",
"0.	c #AAA69A",
"a.	c #E2E2D6",
"b.	c #B3AE9E",
"c.	c #FAFAFA",
"d.	c #726632",
"e.	c #827236",
"f.	c #BEBAAA",
"g.	c #EFEEED",
"h.	c #8A6808",
"i.	c #F5EDA1",
"j.	c #666A2A",
"k.	c #06821E",
"l.	c #C2C2C2",
"m.	c #CCCAC2",
"n.	c #A29A8E",
"o.	c #F4F2E6",
"p.	c #EADE9A",
"q.	c #AAA282",
"r.	c #C6C6BA",
"s.	c #7E6A2A",
"t.	c #CAB692",
"u.	c #A2966E",
"v.	c #D6D6D5",
"w.	c #E6E6DA",
"x.	c #056216",
"y.	c #69613D",
"z.	c #BAB6A6",
"A.	c #BFB274",
"B.	c #BA7A1A",
"C.	c #A09465",
"D.	c #888888",
"E.	c #D6BE9A",
"F.	c #3E3B0D",
"G.	c #ACAAA2",
"H.	c #CECEC2",
"I.	c #62520E",
"J.	c #8A8673",
"K.	c #C2BE96",
"L.	c #756E4B",
"M.	c #D2D2C6",
"N.	c #A6A6A6",
"O.	c #625A26",
"P.	c #EAEADE",
"Q.	c #A69E95",
"R.	c #0A0A06",
"S.	c #96763A",
"T.	c #126616",
"U.	c #565234",
"V.	c #3A420E",
"W.	c #F1E29F",
"X.	c #06861E",
"Y.	c #BABAAE",
"Z.	c #726A46",
"`.	c #B5B2AA",
" +	c #2E7E26",
".+	c #5A6A26",
"++	c #968A62",
"@+	c #F2F2EA",
"#+	c #AEAEA2",
"$+	c #466E22",
"%+	c #528232",
"&+	c #025E16",
"*+	c #0E761A",
"=+	c #BAB6AE",
"-+	c #6E560E",
";+	c #2A2A1A",
">+	c #E2E2E2",
",+	c #F9F2A3",
"'+	c #24221A",
")+	c #A69E70",
"!+	c #9E9E92",
"~+	c #DADAD9",
"{+	c #5E660A",
"]+	c #BE8A36",
"^+	c #C2B679",
"/+	c #E2D286",
"(+	c #866A3A",
"_+	c #BAB694",
":+	c #A2A29E",
"<+	c #A29E82",
"[+	c #6E6632",
"}+	c #1E661E",
"|+	c #79724D",
"1+	c #B2B2B2",
"2+	c #7E6E2E",
"3+	c #B69A6A",
"4+	c #BABAB9",
"5+	c #E7DEAA",
"6+	c #A8A294",
"7+	c #C2BA92",
"8+	c #8E8E8E",
"9+	c #060602",
"0+	c #EAE2B2",
"a+	c #8E8A7A",
"b+	c #D2D2D1",
"c+	c #E6E6E5",
"d+	c #998E66",
"e+	c #C7C6C6",
"f+	c #4A4A4A",
"g+	c #CECECE",
"h+	c #423A0A",
"i+	c #F2F2F2",
"j+	c #9F9E9D",
"k+	c #424241",
"l+	c #9A9266",
"m+	c #5E521E",
"n+	c #EAEAEA",
"o+	c #B4AEA6",
"p+	c #AAA694",
"q+	c #ECDB8C",
"r+	c #F6F6F6",
"s+	c #B5AD91",
"t+	c #FCFAEA",
"u+	c #8B835D",
"v+	c #625612",
"w+	c #AA9A86",
"x+	c #CACAC9",
"y+	c #AAAAAA",
"z+	c #B6B6B6",
"A+	c #AEAEAC",
"B+	c #A2A2A2",
"C+	c #3E7622",
"D+	c #8E8666",
"E+	c #BEB29A",
"F+	c #6E6A2E",
"G+	c #B2A67E",
"                                              4+B+N.                                                ",
"        } } }       K.          (+=+        l.z+B+N.e+              l.[.N.B+                        ",
"      | | o |       K.          (+`.g+    b+l.z+B+N.b+>+        ].x+[.z+N.B+4+e+                    ",
"      } 6.E.^.|     K.          (+o+l.~+g.~+[.1+B+y+g+].g.c.r+i+g.b+[.z+N.B+z+e+                    ",
"      B.3+E+E+]+    K.          (+`.[.~+i+].l.z+B+y+v.>+i+N c.c.r+~+l.4+N.B+z+g+>+n+                ",
"      C t.w+q C     ~.          (+A 4+v.i+~+l.1+B+y+b+c+r+N N r+c.~+[.z+N.B+z+b+c+i+i+].x+l.l.      ",
"      o /.s+/.      S.          (+A 4+v.i+~+l.z+B+y+b+>+r+N N c.c.].[.4+N.B+z+g+c+i+i+~+e+[.l.      ",
"      } o 6.o       -           (+#.z+b+g.].l.z+B+N.b+>+i+c.N c.@+b+[.4+N.B+z+g+>+i+r+].e+l.[.      ",
"    h.-.h.} -.      -           (+A z+v.g.~+[.4+N.N.b+>+r+N N o.%.e+D.j+N.B+4+b+>+i+r+].e+l.l.      ",
"    * * v -.@.* *   x           (+G.4+v.i+v.[.1+j+N.v.c+r+N N w.<+3.p 3 8+B+z+g+c+i+r+].e+[.[.      ",
"  * * * * {+&+&+&+W l           (+A z+v.i+v.S 6+j+N.b+].~+4+j+f+'+3 p G =.B+z+g+c+i+r+>+x+l.l.      ",
"  ;.x.&+&+@.* * x.W v+          (+6+z+v.(.].#+d+e B+~+g+3.G . U.u.8 P G |.j+4+b+c+c.N c+e+[.[.      ",
"  k.M ;.r ;.x.+ W X.l           (+6+z+~+r+].Y.!.i m ~+x+3 3 b+5+& 7+2.;+D.B+z+g+c+(.t a.x+l.l.      ",
"  k.k.X.k.*+r k.k.X.l           (+#.z+v.(.~+[.p+&., H.x+k+f+N W.q+).f+|.j+B+#+f.s { 0 a.e+[.[.      ",
"  X.k.k.k.@ ' X.k.W -+          (+#.z+v.c.].[.1+i &.[.m.3 P `.q+q+Z.3.j+n.J.( U ^ 5+{.c+e+l.l.      ",
"  k.X.X.k.$+h %+%+T.O           (+>.1+v.r+~+l.1+5 &.s+g+j+|.Z F ).,.J.y+5 L.u C.A.I o.>+x+[.[.      ",
"  k.k.X.k.j.b O.k }+I.          (+6+1+v.c.].l.z+e w )+` @+c.j F y.Q ( G.&.L.u C.2 %.i+].e+l.l.      ",
"  X.X.k. +[+b e.e.] I.          (+#.z+v.r+].l.z+m u ). .g.N : y.'+$.u.m |+Z.w ).D c+i+].e+[.[.      ",
"  k.X.X.' O.Z.s.n ..I.          (+N.`.v.r+].l.z+H / ).^+0 t+).. G ^+l+u L.g &.)+4.@+i+].e+l.l.      ",
"  X.k.X.C+p+8.n n .+v+          (+6+1+~+c.].[.z+j+a+V S R X U.. p # a u Z.g L G+y i+r+~+e+[.[.      ",
"  X.k.X.; 8.8.:.s.J v+          (+>.1+v.r+>+l.=+:+J.++$.$ i.Z . _.).< w Z.g L _+a.g.i+~+l.l.l.      ",
"  k.X.k.K b y.1.m+B '.          (+>.A+].c.].l.z+j+J.a $.$ 1 L.)./+A.< w L.g i 7+].n+i+v.l.[.[.      ",
"  k.k.@ B h+h+h+h+% '.          (+:+A+].r+].[.1+j+a+d+A.i.6 > ^+F A.a &.Z.g w 2 ].n+g.v.l.l.l.      ",
"    T.7.h+h+h+,.h+h++.          (+Q.y+].c.].l.z+B+a+V ^+i.6 # R.;+# < L Z.Z.u+S v.>+g.v.l.[.[.      ",
"    * ! h+h+h+7.h+h+_           (+j+y+c+c.~+[.1+j+a+d+^+i.1 Q . y.# < &.Z.Z.w ) M.>+g.b+l.l.l.      ",
"    * % h+h+F.! h+h++.          (+Q.A+n+r+~+l.z+j+5 d+^+i.i.L.1.A.# < &.Z.L.D+z.b+>+g.v.l.[.[.      ",
"      Y h+h+h+% h+h+_           (+Q.z+c+r+v.[.z+B+:+) ^+W.,+7 /+/+$.)+!+5 e #.r.v.>+g.b+l.l.l.      ",
"      c c c     c c _           (+!+1+~+n+  [.1+:+A+m.4 5+f W.W.0+ .z+A+j+N.m.v.v.c+g.v.l.[.[.      ",
"      . . .   . . . d           (+n.y+N.        N.=+v.g.{.t+t t {.v.[.1+:+N.g+~+v.>+n+b+l.l.l.      ",
"      . . .   . . . d           (+Q.1+            e+].@+N N r+c.g.b+[.1+j+y+g+~+v.>+c+b+l.l.[.      ",
"    . . . .     . . d           (+b.                >+i+c.N g.@+n+b+          g+x+~+>+b+e+r.        ",
"                                (+s+                    @+r+n+n+                  v.].b+e+          "};
