/* XPM */
static char * CountrChar_trans_50_xpm[] = {
"50 32 466 2",
"  	c None",
". 	c #FFFFFF",
"+ 	c #9E9E9E",
"@ 	c #606060",
"# 	c #8C8C8C",
"$ 	c #575757",
"% 	c #866A39",
"& 	c #F2EFEA",
"* 	c #444444",
"= 	c #535353",
"- 	c #818181",
"; 	c #AFAFAF",
"> 	c #959595",
", 	c #404040",
"' 	c #F3F0EC",
") 	c #474747",
"! 	c #383838",
"~ 	c #B7B7B7",
"{ 	c #A6A5A5",
"] 	c #B9B9B9",
"^ 	c #090909",
"/ 	c #585858",
"( 	c #555555",
"_ 	c #7E7E7E",
": 	c #545353",
"< 	c #3D3D3D",
"[ 	c #846827",
"} 	c #8E8E8E",
"| 	c #060606",
"1 	c #000000",
"2 	c #0E0E0E",
"3 	c #8C6B1E",
"4 	c #2A2924",
"5 	c #706248",
"6 	c #4E3A12",
"7 	c #4C3812",
"8 	c #FEFEFC",
"9 	c #F7F4EA",
"0 	c #FDFDFA",
"a 	c #FEFEFD",
"b 	c #898989",
"c 	c #515151",
"d 	c #1A1A1A",
"e 	c #504C46",
"f 	c #7C6B49",
"g 	c #BAAF9A",
"h 	c #7F7052",
"i 	c #F8F6EE",
"j 	c #E6DFBF",
"k 	c #FBFBF9",
"l 	c #B2B2B2",
"m 	c #F2F2F2",
"n 	c #8F7028",
"o 	c #A2A2A2",
"p 	c #8F8F8F",
"q 	c #9F9F9F",
"r 	c #989897",
"s 	c #6B5D41",
"t 	c #C5BDAA",
"u 	c #EFEBE1",
"v 	c #C0B6A1",
"w 	c #594623",
"x 	c #FFFFFE",
"y 	c #FAF9F1",
"z 	c #FCFBF7",
"A 	c #FEFDFC",
"B 	c #E8E6DA",
"C 	c #A19A79",
"D 	c #70706F",
"E 	c #191919",
"F 	c #F7F7F7",
"G 	c #8E7333",
"H 	c #919191",
"I 	c #939393",
"J 	c #9B9B9B",
"K 	c #868583",
"L 	c #6C5C3D",
"M 	c #F8F6F2",
"N 	c #F0EDE3",
"O 	c #E6DFCF",
"P 	c #645433",
"Q 	c #FBF9F3",
"R 	c #E9E1C0",
"S 	c #E9E2C2",
"T 	c #FFFEFE",
"U 	c #494846",
"V 	c #1F1E17",
"W 	c #4A4A46",
"X 	c #282827",
"Y 	c #040404",
"Z 	c #ECECEC",
"` 	c #B8B8B8",
" .	c #95804F",
"..	c #777165",
"+.	c #8E7F5F",
"@.	c #FAF8F5",
"#.	c #F2EFE6",
"$.	c #E5DECD",
"%.	c #908160",
"&.	c #EEEAD2",
"*.	c #CDBF7B",
"=.	c #E7E0C2",
"-.	c #FCFBF9",
";.	c #FEFEFE",
">.	c #F3F3F3",
",.	c #676767",
"'.	c #0C0C0C",
").	c #010101",
"!.	c #4D4937",
"~.	c #958B5C",
"{.	c #DED7B3",
"].	c #484741",
"^.	c #A3A3A3",
"/.	c #998453",
"(.	c #A9A9A9",
"_.	c #8C8576",
":.	c #B5A78B",
"<.	c #F7F4EF",
"[.	c #F4F1EA",
"}.	c #E4DCCA",
"|.	c #AE9F7E",
"1.	c #FBFAF5",
"2.	c #DCD3A6",
"3.	c #D3C893",
"4.	c #F1EEDF",
"5.	c #E6E6E6",
"6.	c #3F3F3F",
"7.	c #393939",
"8.	c #CBCBCB",
"9.	c #D7CD9D",
"0.	c #D2C480",
"a.	c #DAD09E",
"b.	c #5F5C4F",
"c.	c #232322",
"d.	c #F0F0F0",
"e.	c #FEFDFB",
"f.	c #FAF9F2",
"g.	c #F6F3E5",
"h.	c #F8F6EB",
"i.	c #9C9C9C",
"j.	c #988352",
"k.	c #A7A7A7",
"l.	c #9D9D9D",
"m.	c #979797",
"n.	c #8B8373",
"o.	c #B7A98B",
"p.	c #F0EBE1",
"q.	c #F5F2EC",
"r.	c #E1D9C6",
"s.	c #AC9E7C",
"t.	c #EEEAD6",
"u.	c #C8BB7C",
"v.	c #D3CA9A",
"w.	c #F4F1E5",
"x.	c #E3E3E0",
"y.	c #40403F",
"z.	c #484848",
"A.	c #DACD8F",
"B.	c #D2C47F",
"C.	c #B2A775",
"D.	c #535044",
"E.	c #C6C5C5",
"F.	c #F4F1E6",
"G.	c #ECE8D3",
"H.	c #E5DEBD",
"I.	c #DDD4A4",
"J.	c #E1D7A8",
"K.	c #F9F7EF",
"L.	c #998A68",
"M.	c #A5A5A5",
"N.	c #938B7B",
"O.	c #B2A17D",
"P.	c #DFD5C0",
"Q.	c #EEE9DE",
"R.	c #DBD1BA",
"S.	c #A3926B",
"T.	c #CCC18C",
"U.	c #C4B87C",
"V.	c #E6E1C8",
"W.	c #E0DFD9",
"X.	c #373635",
"Y.	c #313131",
"Z.	c #B3B2AC",
"`.	c #D4C67F",
" +	c #CEC07B",
".+	c #726A44",
"++	c #898882",
"@+	c #E8E8E7",
"#+	c #FBFAF7",
"$+	c #DCD6B6",
"%+	c #CFC597",
"&+	c #CBBE86",
"*+	c #CABD7D",
"=+	c #D5CA93",
"-+	c #F5F2E4",
";+	c #FDFDFC",
">+	c #9A9A9A",
",+	c #969695",
"'+	c #A4A4A4",
")+	c #887F6F",
"!+	c #A89468",
"~+	c #C8B893",
"{+	c #CDBF9E",
"]+	c #BCA97D",
"^+	c #937D4A",
"/+	c #E3DEC3",
"(+	c #C4B87F",
"_+	c #D6CFA7",
":+	c #EEECE5",
"<+	c #B6B5B5",
"[+	c #707070",
"}+	c #4C493C",
"|+	c #C1B373",
"1+	c #8B8152",
"2+	c #363220",
"3+	c #C7C4B6",
"4+	c #F7F6F3",
"5+	c #E0DBC2",
"6+	c #BEB37B",
"7+	c #BEB276",
"8+	c #C2B577",
"9+	c #C7BA7B",
"0+	c #DBD3A8",
"a+	c #FAF9F4",
"b+	c #A3A097",
"c+	c #A1A1A1",
"d+	c #8F8676",
"e+	c #9C8451",
"f+	c #AE9761",
"g+	c #A18647",
"h+	c #907127",
"i+	c #836727",
"j+	c #F1EEDD",
"k+	c #C4B980",
"l+	c #C3B882",
"m+	c #E7E2CD",
"n+	c #FAF9F5",
"o+	c #E4DCB4",
"p+	c #BEB073",
"q+	c #544E32",
"r+	c #6E6541",
"s+	c #CCC29B",
"t+	c #F4F2EA",
"u+	c #C4BA8C",
"v+	c #B9AD74",
"w+	c #BBB075",
"x+	c #C0B377",
"y+	c #D1C798",
"z+	c #F0EDDF",
"A+	c #977F47",
"B+	c #AEAEAE",
"C+	c #837B6B",
"D+	c #937A43",
"E+	c #A2884A",
"F+	c #987A36",
"G+	c #8E6E23",
"H+	c #7E611E",
"I+	c #FBF7E4",
"J+	c #D6CB8F",
"K+	c #BFB379",
"L+	c #CDC398",
"M+	c #F1EFE4",
"N+	c #DED4A5",
"O+	c #5F5838",
"P+	c #211E13",
"Q+	c #C9BA78",
"R+	c #D2C68F",
"S+	c #DED8BE",
"T+	c #B8AC77",
"U+	c #B7AC74",
"V+	c #BAAE74",
"W+	c #C4B87E",
"X+	c #E4DFC2",
"Y+	c #F8F7F1",
"Z+	c #9C7F3D",
"`+	c #DEDEDE",
" @	c #ABABAB",
".@	c #746D5F",
"+@	c #896F36",
"@@	c #9C803D",
"#@	c #94762F",
"$@	c #7D5F1C",
"%@	c #FFFFEA",
"&@	c #DED89B",
"*@	c #BEB47A",
"=@	c #BFB581",
"-@	c #EDEADC",
";@	c #F5F3E6",
">@	c #9B9269",
",@	c #13110B",
"'@	c #D1C27C",
")@	c #CCBD77",
"!@	c #BEB172",
"~@	c #B3A770",
"{@	c #B1A56F",
"]@	c #B4A871",
"^@	c #CABF86",
"/@	c #F3F0DF",
"(@	c #D3D3D3",
"_@	c #949494",
":@	c #969492",
"<@	c #937E4F",
"[@	c #997B37",
"}@	c #93742D",
"|@	c #7F6320",
"1@	c #FFFFFA",
"2@	c #DCD7B7",
"3@	c #B8AD7B",
"4@	c #B7AC76",
"5@	c #D5CEAE",
"6@	c #EBE6CE",
"7@	c #4E4930",
"8@	c #12110B",
"9@	c #CBBC77",
"0@	c #C5B775",
"a@	c #BDAF71",
"b@	c #B3A66E",
"c@	c #ACA06A",
"d@	c #ADA06B",
"e@	c #D6CA90",
"f@	c #F7F4E5",
"g@	c #FDFDFB",
"h@	c #CECECE",
"i@	c #C5C5C5",
"j@	c #AAAAAA",
"k@	c #83785D",
"l@	c #967933",
"m@	c #92732B",
"n@	c #8F6E23",
"o@	c #785F26",
"p@	c #CDC6A8",
"q@	c #AFA370",
"r@	c #B2A56E",
"s@	c #BEB380",
"t@	c #CABD7E",
"u@	c #4E482E",
"v@	c #3B3723",
"w@	c #B8AB6E",
"x@	c #BCAE71",
"y@	c #AC9F6B",
"z@	c #E3DEB0",
"A@	c #FBFAF0",
"B@	c #DADADA",
"C@	c #787878",
"D@	c #6D6B68",
"E@	c #957730",
"F@	c #92732A",
"G@	c #8F6F24",
"H@	c #5C4517",
"I@	c #D4CFB7",
"J@	c #B2A777",
"K@	c #B2A66F",
"L@	c #B8AC71",
"M@	c #C3B575",
"N@	c #6B633F",
"O@	c #948A58",
"P@	c #C1B372",
"Q@	c #CABC78",
"R@	c #C4B675",
"S@	c #BCAF71",
"T@	c #A89C68",
"U@	c #E0D9B5",
"V@	c #C3C3C3",
"W@	c #D0D0D0",
"X@	c #848484",
"Y@	c #7D7C79",
"Z@	c #846728",
"`@	c #917229",
" #	c #816421",
".#	c #D8D3BC",
"+#	c #B3A878",
"@#	c #B2A670",
"##	c #B9AC70",
"$#	c #CBBC79",
"%#	c #B7A96C",
"&#	c #B3A669",
"*#	c #CBBD79",
"=#	c #A49866",
"-#	c #DCD8C3",
";#	c #F9F9F6",
">#	c #FDFDFD",
",#	c #C8C8C8",
"'#	c #929292",
")#	c #D9D9D9",
"!#	c #71706F",
"~#	c #68501E",
"{#	c #7E6323",
"]#	c #6A521E",
"^#	c #B3A66F",
"/#	c #C2B575",
"(#	c #A29761",
"_#	c #080805",
":#	c #18160E",
"<#	c #A59966",
"[#	c #D1CBB3",
"}#	c #F5F4EF",
"|#	c #FCFCFB",
"1#	c #767676",
"2#	c #D7D2BB",
"3#	c #B8AB70",
"4#	c #C0B274",
"5#	c #4B462D",
"6#	c #5C5636",
"7#	c #F6F5F1",
"8#	c #D1D1D1",
"9#	c #868686",
"0#	c #CDCDCD",
"a#	c #696969",
"b#	c #D2CCB2",
"c#	c #B1A574",
"d#	c #C1B374",
"e#	c #655E3C",
"f#	c #5B5436",
"g#	c #AA9E64",
"h#	c #C8B977",
"i#	c #DCD8C6",
"j#	c #FAFAF8",
"k#	c #CCCCCC",
"l#	c #808080",
"m#	c #727272",
"n#	c #686868",
"o#	c #F9F8F5",
"p#	c #D3CDB1",
"q#	c #BBB07F",
"r#	c #BAAE73",
"s#	c #C2B475",
"t#	c #BCAE70",
"u#	c #CCBD78",
"v#	c #D2C37C",
"w#	c #CDBF7E",
"x#	c #DAD2A8",
"y#	c #EAE5D2",
"z#	c #EDE9DC",
"A#	c #EBE8DB",
"B#	c #DAD6C2",
"C#	c #FCFCFA",
"D#	c #7F7F7F",
"E#	c #C1C1C1",
"F#	c #6C6C6C",
"G#	c #6A6A6A",
"H#	c #E1DCC5",
"I#	c #C3B883",
"J#	c #C4B676",
"K#	c #D7CA8A",
"L#	c #E4DBB1",
"M#	c #ECE7CD",
"N#	c #957735",
"O#	c #757575",
"P#	c #6B6B6B",
"Q#	c #6F6F6F",
"R#	c #717171",
"S#	c #EFEDDF",
"T#	c #F0EDDE",
"U#	c #F6F4E9",
"V#	c #9E8F72",
"W#	c #6E6E6E",
"X#	c #3C3C3C",
"Y#	c #1B1B1B",
"Z#	c #2E2E2E",
"`#	c #A0A0A0",
" $	c #7A7A7A",
".$	c #747474",
"+$	c #777777",
"@$	c #636363",
"#$	c #8A8A8A",
"$$	c #E8E3DA",
"                                              . . .                                                 ",
"      + @ # $                   % &         . . . . .               . . . .                         ",
"  *   = - ; > ,                 % ' .     . . . . . . .         . . . . . . . .                     ",
"  )   ! ~ { ] ^                 % ' . . . . . . . . . . . . . . . . . . . . . .                     ",
"  /   ( _ : - <                 % ' . . . . . . . . . . . . . . . . . . . . . . . .                 ",
"  [   } | 1 2                   % ' . . . . . . . . . . . . . . . . . . . . . . . . . . . . .       ",
"  3     1 1 1                   % ' . . . . . . . . . . . . . . . . . . . . . . . . . . . . .       ",
"  3     ^ 1 4 5 6 7             % ' . . . . . . . . . . . . . 8 9 0 a . . . . . . . . . . . .       ",
"  3   b c d e f g h             % ' . . . . . . . . . . . . . i j k l m . . . . . . . . . . .       ",
"  n o p q r s t u v w           % ' . . x y z A . . . . . . . B C D E $ F . . . . . . . . . .       ",
"  G H I J K L M N O P           % ' . . x Q R S z T . . m ; H U V W X Y Z . . . . . . . . . .       ",
"`  .- b H ..+.@.#.$.%.          % ' . . . . &.*.=.-.;.>.,.'.).!.~.{.].| Z . . . . . . . . . .       ",
"^./.o (.^._.:.<.[.}.|.          % ' . . . . 1.2.3.4.A 5.6.7.8.9.0.a.b.c.d.. . . e.f.g.h.. . .       ",
"i.j.k.l.m.n.o.p.q.r.s.          % ' . . . . . t.u.v.w.x.y.z.. A.B.C.D.E.. . F.G.H.I.J.K.. . .       ",
"m.L.; M.^.N.O.P.Q.R.S.          % ' . . . . . 8 T.U.V.W.X.Y.Z.`. +.+++@+#+$+%+&+*+=+-+;+. . .       ",
">+,+l.'+q )+!+~+{+]+^+          % ' . . . . . . /+(+_+:+<+[+}+|+1+2+3+4+5+6+7+8+9+0+a+T . . .       ",
"8.b+c+q l.d+e+f+g+h+i+          % ' . . . . . . j+k+l+m+n+a o+p+q+r+s+t+u+v+w+x+y+z+a . . . .       ",
"  A+; B+J C+D+E+F+G+H+          % ' . . . . . . I+J+K+L+M+1.N+O+P+Q+R+S+T+U+V+W+X+Y+;.. . . .       ",
"  Z+`+(. @.@+@@@#@G+$@          % ' . . . . . . %@&@*@=@-@;@>@).,@'@)@!@~@{@]@^@/@0 ;.. . . .       ",
"  Z+(@_@'+:@<@[@}@G+|@          % ' . . . . . . 1@2@3@4@5@6@7@1 8@9@0@a@b@c@d@e@f@g@;.;.. . .       ",
"  Z+h@_@i@j@k@l@m@n@o@          % ' . . . . . . . p@q@r@s@t@u@1 v@w@|+x@b@c@y@z@A@8 ;.;.. . .       ",
"  Z+8.I B@C@D@E@F@G@H@          % ' . . . . . . x I@J@K@L@M@N@O@P@Q@R@S@b@c@T@U@y a ;.;.. . .       ",
"  Z+V@- W@X@Y@Z@`@ #            % ' . . . . . . . .#+#@###M@$#%#&#*#R@a@b@c@=#-#;#>#;.;.. . .       ",
"  Z+,#'#)#- !#~#{#]#            % ' . . . . . . . .#+#^###/#(#_#:#*#R@a@b@c@<#[#}#|#. . . . .       ",
"  Z+V@- W@1#-                   % ' . . . . . . . 2#+#^#3#4#5#).6#$#R@a@b@c@<#[#7#;+. . . . .       ",
"  Z+8#9#0#1#a#                  % ' . . . . . . . b#c#^#3#d#e#f#g#h#R@x@b@c@<#i#j#a . . . . .       ",
"  Z+k#l#,#m#n#                  % ' . . . . . . . o#p#q#r#s#t#u#v#w#x#y#z#A#B#B C#;.. . . . .       ",
"  Z+W@D#E#F#G#                  % ' . . . . . . . . n+H#I#J#$#K#L#M#z ;.. . . . . . . . . . .       ",
"  N#V@O#P#Q#R#                  % ' . .       . . . . a S#T#U#K.A . . . . . . . . . . . . . .       ",
"  V#W#X#Y#Z#O#                  % ' .             . . . . . . . . . . . . . . . . . . . . . .       ",
"  `# $.$+$@$#$                  % &                 . . . . . . . .           . . . . . . .         ",
"                                % $$                    . . . .                   . . . .           "};
