/* XPM */
static char * Cyan_Dice_trans_50_xpm[] = {
"50 32 256 2",
"  	c None",
". 	c #0E6660",
"+ 	c #8EAAAA",
"@ 	c #66928E",
"# 	c #1EBAB2",
"$ 	c #0EA298",
"% 	c #467A7A",
"& 	c #06827E",
"* 	c #CADADA",
"= 	c #66AEAA",
"- 	c #368282",
"; 	c #34A29E",
"> 	c #58BAB4",
", 	c #BAC6C6",
"' 	c #2E8682",
") 	c #0B9E97",
"! 	c #44AEAA",
"~ 	c #367A76",
"{ 	c #6ADAD6",
"] 	c #42EAE2",
"^ 	c #9EB6B6",
"/ 	c #0B968E",
"( 	c #88AEAC",
"_ 	c #46BEB6",
": 	c #AABEBE",
"< 	c #06726E",
"[ 	c #4A7E7A",
"} 	c #248A82",
"| 	c #528282",
"1 	c #6CBAB6",
"2 	c #A0CECC",
"3 	c #26726E",
"4 	c #4EDAD2",
"5 	c #0B928B",
"6 	c #26D2CA",
"7 	c #369A96",
"8 	c #32BAB6",
"9 	c #4EAAA4",
"0 	c #7EA2A2",
"a 	c #82C6C2",
"b 	c #068E87",
"c 	c #27B6AF",
"d 	c #4A928E",
"e 	c #A2BABA",
"f 	c #709A98",
"g 	c #3AE2DA",
"h 	c #266A66",
"i 	c #2A9A92",
"j 	c #BECECE",
"k 	c #16827C",
"l 	c #DAE6E6",
"m 	c #7BBEBA",
"n 	c #1E968E",
"o 	c #61A6A2",
"p 	c #599695",
"q 	c #368A86",
"r 	c #16B6B2",
"s 	c #8FC2BE",
"t 	c #1A7672",
"u 	c #4ACAC2",
"v 	c #669E9E",
"w 	c #22C2BA",
"x 	c #AACAC6",
"y 	c #067A74",
"z 	c #6ECECA",
"A 	c #5EAEA6",
"B 	c #BCD2D2",
"C 	c #1E9E98",
"D 	c #7AB2AE",
"E 	c #0A827C",
"F 	c #A4BEBE",
"G 	c #28C6BC",
"H 	c #1AAEA8",
"I 	c #6CA6A2",
"J 	c #76CECA",
"K 	c #188E88",
"L 	c #2A9692",
"M 	c #8ABAB6",
"N 	c #1EA29A",
"O 	c #9AC2BF",
"P 	c #226A66",
"Q 	c #A2C6C2",
"R 	c #BADAD8",
"S 	c #32A6A2",
"T 	c #127A76",
"U 	c #6BC2BD",
"V 	c #0A8681",
"W 	c #76AEAA",
"X 	c #36B2AA",
"Y 	c #60C6C2",
"Z 	c #5A8E8E",
"` 	c #92DEDA",
" .	c #36C6C2",
"..	c #1E928E",
"+.	c #D6DEDA",
"@.	c #189A94",
"#.	c #8AD2CE",
"$.	c #468A86",
"%.	c #8ECAC6",
"&.	c #428E8E",
"*.	c #76A2A0",
"=.	c #7EC6C2",
"-.	c #56AEA9",
";.	c #0E6A63",
">.	c #3EA69E",
",.	c #66B6B1",
"'.	c #1E7672",
").	c #4E9A96",
"!.	c #629692",
"~.	c #16A297",
"{.	c #E8EAE8",
"].	c #0A7A74",
"^.	c #068A82",
"/.	c #7AA6A6",
"(.	c #16C2B8",
"_.	c #0F8E88",
":.	c #82B2B2",
"<.	c #4EAEA6",
"[.	c #76AAA7",
"}.	c #76BEBA",
"|.	c #0E827A",
"1.	c #16766E",
"2.	c #36DAD2",
"3.	c #BED6D2",
"4.	c #5EDED6",
"5.	c #86A6A6",
"6.	c #4EC2BE",
"7.	c #2A8E8A",
"8.	c #46B6B2",
"9.	c #22928C",
"0.	c #74C2BE",
"a.	c #B6D2D0",
"b.	c #0E867E",
"c.	c #C3DEDB",
"d.	c #7FCAC6",
"e.	c #149E96",
"f.	c #407674",
"g.	c #AEC6C6",
"h.	c #2EBAB2",
"i.	c #5AB6B0",
"j.	c #7AD2CE",
"k.	c #1EC2BA",
"l.	c #9ECACA",
"m.	c #36928E",
"n.	c #8EAEAA",
"o.	c #22CEC6",
"p.	c #5ACEC6",
"q.	c #267E7A",
"r.	c #5E9E9A",
"s.	c #0A7E77",
"t.	c #0EAA9E",
"u.	c #94BEBC",
"v.	c #AED2D0",
"w.	c #26C2BA",
"x.	c #3B827E",
"y.	c #3CA29C",
"z.	c #326E6A",
"A.	c #5AC2BE",
"B.	c #0F8A83",
"C.	c #166E6A",
"D.	c #46C6BE",
"E.	c #36C2BA",
"F.	c #22AAA2",
"G.	c #76B6B2",
"H.	c #3EAEA6",
"I.	c #0E726C",
"J.	c #96C6C2",
"K.	c #0F6E66",
"L.	c #8AC2BE",
"M.	c #82AAAA",
"N.	c #0B9A92",
"O.	c #D0D6D6",
"P.	c #12928E",
"Q.	c #2EB6AE",
"R.	c #1E8682",
"S.	c #E1E6E6",
"T.	c #269A92",
"U.	c #8AB6B6",
"V.	c #318A85",
"W.	c #96AEAE",
"X.	c #068680",
"Y.	c #067E78",
"Z.	c #A2CAC8",
"`.	c #269E96",
" +	c #DEE2E2",
".+	c #267A7A",
"++	c #B6C6C6",
"@+	c #62B6AE",
"#+	c #57BEB7",
"$+	c #6DBEBA",
"%+	c #7EC2BE",
"&+	c #589A98",
"*+	c #398E89",
"=+	c #8EC6C2",
"-+	c #0D7672",
";+	c #6EAEAA",
">+	c #3E9E96",
",+	c #4E9692",
"'+	c #52B2AE",
")+	c #2EC2BA",
"!+	c #26CAC4",
"~+	c #6EAAA6",
"{+	c #D0DADA",
"]+	c #468E88",
"^+	c #16A69A",
"/+	c #BEDAD6",
"(+	c #3E8682",
"_+	c #0A8E89",
":+	c #43C2BD",
"<+	c #6EC6C2",
"[+	c #56B2AE",
"}+	c #3BAAA3",
"|+	c #82CECA",
"1+	c #89C6C3",
"2+	c #12827C",
"3+	c #12867E",
"4+	c #368682",
"5+	c #46B2AE",
"6+	c #228E8A",
"7+	c #1A8682",
"8+	c #209A94",
"9+	c #66A29E",
"0+	c #5CB2AE",
"a+	c #5ECAC6",
"b+	c #5E9A96",
"c+	c #7AAAA6",
"d+	c #16C6BA",
"e+	c #84B6B4",
"f+	c #4CB2AC",
"g+	c #72C6C2",
"h+	c #94B2B0",
"i+	c #0E7A75",
"j+	c #328686",
"k+	c #A6CAC8",
"l+	c #4A8E8A",
"m+	c #C2DAD8",
"n+	c #669696",
"o+	c #367E7A",
"p+	c #46EEE6",
"q+	c #2AD6CE",
"r+	c #3A9E96",
"s+	c #36BEB6",
"t+	c #469692",
"u+	c #2E9E96",
"v+	c #1A7A76",
"w+	c #8ABEBE",
"x+	c #32AAA2",
"y+	c #167E76",
"z+	c #3AB6B2",
"A+	c #36CAC6",
"B+	c #42928A",
"C+	c #4E9E96",
"D+	c #0E7E7A",
"E+	c #92CAC6",
"F+	c #6AB6B2",
"G+	c #1AA29A",
"                                                                                                    ",
"                                                                                                    ",
"                                                        >+-.                                        ",
"                                                T i+|.6+9 0+<.                                      ",
"                                          _._.V E s.B.r+@+0+>.                                      ",
"                                    Q.~.e.$ 5 E ].B.8+0+m 8.i                                       ",
"                                4.#.> N }+; B.E s.K }+}.}.5+9.                                      ",
"                                ` * e+o F D 8+9 A r+,.E+U ; k K.                                    ",
"                              !+j.a.,.1 * 1+5+a.B G.J.2 [+6+I.;.                                    ",
"                              (.)+_ c :+z :+#+B m+2 R E+>.y+;..                                     ",
"                              (.(.r H c 8 z+> Q a.c.c.m m.I.. ;.                                    ",
"                            !+d+k.h.X 8.#+$+J.v.c.l 3.;+V.C.. K.7+                                  ",
"                             .E.D.A.$+%+1+l.k+Q O R 3.[.x.P P K.K                                   ",
"                          { a+Y <+a L.L.L.M ~+!.p u./+e+(+[ f o+R.                                  ",
"                          #.=.a %+}.1 = A &+0 + Z 9+a.s t+0 S./.*+`.                                ",
"                          a U 1 @+[+f+H.; d , S.5.l+u.Z.<.W g./.*+..                                ",
"                          U -.o 9+7 F.H C V.F +.*.q [.k+$+5+}+x+C ~.                                ",
"                          '+o g.j ,+e.t.) 2+]+b+V.7.r.O %+8.c # k.G                                 ",
"                            *.{+S.v _./ X.-+].^.5 n d U.s #+8 # o.g                                 ",
"                            p M.n.4+b.3+$.!.} 5 ) @.&./.J.U :+G 6 ]                                 ",
"                            V..+'.I.y j+++{+I / N./ j+!.u.=.6.G q+p+                                ",
"                              I.< y & - j  +~+_.b.D+'.% M.L.Y  .2.                                  ",
"                              ].y Y.X.k C+I L X.-+t 3 z.@ w+g+u 4                                   ",
"                              3+E X.^.^._./ b Y.&.^ n.f.[ :.d.a+                                    ",
"                              b.E y D+2+b.^.X.-+*.S.O.| f./.%.J                                     ",
"                                E v+!.h+&.s.& y l+: h+~ ~ f O                                       ",
"                                2+(+++{.( V b ^.k j+' q.x.                                          ",
"                                  j+e O.~+5 ) ) 5 _+                                                ",
"                                  R.m.).L G+~.$                                                     ",
"                                  @.@.N                                                             ",
"                                                                                                    ",
"                                                                                                    "};
