/* XPM */
static char * DescrChar_trans_50_xpm[] = {
"50 32 269 2",
"  	c None",
". 	c #9E9E9E",
"+ 	c #606060",
"@ 	c #8C8C8C",
"# 	c #575757",
"$ 	c #FFFFFF",
"% 	c #F4F4F4",
"& 	c #444444",
"* 	c #535353",
"= 	c #818181",
"- 	c #AFAFAF",
"; 	c #959595",
"> 	c #404040",
", 	c #B6B6B6",
"' 	c #9F9E9E",
") 	c #F6F6F6",
"! 	c #909090",
"~ 	c #727272",
"{ 	c #BABABA",
"] 	c #474747",
"^ 	c #383838",
"/ 	c #B7B7B7",
"( 	c #A6A5A5",
"_ 	c #B9B9B9",
": 	c #090909",
"< 	c #C4C4C4",
"[ 	c #ABAAAA",
"} 	c #8C8B8B",
"| 	c #E8E8E8",
"1 	c #545454",
"2 	c #878787",
"3 	c #3C3C3C",
"4 	c #585858",
"5 	c #555555",
"6 	c #7E7E7E",
"7 	c #545353",
"8 	c #3D3D3D",
"9 	c #BEBEBE",
"0 	c #989797",
"a 	c #969595",
"b 	c #C8C8C8",
"c 	c #3F3F3F",
"d 	c #676767",
"e 	c #846827",
"f 	c #8E8E8E",
"g 	c #060606",
"h 	c #000000",
"i 	c #0E0E0E",
"j 	c #D3D3D3",
"k 	c #ACACAC",
"l 	c #949393",
"m 	c #FEFEFE",
"n 	c #8C6B1E",
"o 	c #E0E0E0",
"p 	c #C2C2C2",
"q 	c #9A9999",
"r 	c #2A2924",
"s 	c #706248",
"t 	c #4E3A12",
"u 	c #4C3812",
"v 	c #D9D9D9",
"w 	c #B6B5B5",
"x 	c #A5A4A4",
"y 	c #898989",
"z 	c #515151",
"A 	c #1A1A1A",
"B 	c #504C46",
"C 	c #7C6B49",
"D 	c #BAAF9A",
"E 	c #7F7052",
"F 	c #CACACA",
"G 	c #A2A1A1",
"H 	c #8F7028",
"I 	c #A2A2A2",
"J 	c #8F8F8F",
"K 	c #9F9F9F",
"L 	c #989897",
"M 	c #6B5D41",
"N 	c #C5BDAA",
"O 	c #EFEBE1",
"P 	c #C0B6A1",
"Q 	c #594623",
"R 	c #DEDEDE",
"S 	c #BBBABA",
"T 	c #FDFDFD",
"U 	c #8E7333",
"V 	c #919191",
"W 	c #939393",
"X 	c #9B9B9B",
"Y 	c #868583",
"Z 	c #6C5C3D",
"` 	c #F8F6F2",
" .	c #F0EDE3",
"..	c #E6DFCF",
"+.	c #645433",
"@.	c #D0D0D0",
"#.	c #A9A9A9",
"$.	c #B4B3B3",
"%.	c #EEEEEE",
"&.	c #B8B8B8",
"*.	c #95804F",
"=.	c #777165",
"-.	c #8E7F5F",
";.	c #FAF8F5",
">.	c #F2EFE6",
",.	c #E5DECD",
"'.	c #908160",
").	c #C0C0C0",
"!.	c #CECECE",
"~.	c #A3A3A3",
"{.	c #998453",
"].	c #8C8576",
"^.	c #B5A78B",
"/.	c #F7F4EF",
"(.	c #F4F1EA",
"_.	c #E4DCCA",
":.	c #AE9F7E",
"<.	c #D2D2D2",
"[.	c #B1B0B0",
"}.	c #959494",
"|.	c #B0AFAF",
"1.	c #EAEAEA",
"2.	c #9C9C9C",
"3.	c #988352",
"4.	c #A7A7A7",
"5.	c #9D9D9D",
"6.	c #979797",
"7.	c #8B8373",
"8.	c #B7A98B",
"9.	c #F0EBE1",
"0.	c #F5F2EC",
"a.	c #E1D9C6",
"b.	c #AC9E7C",
"c.	c #C5C5C5",
"d.	c #9C9B9B",
"e.	c #F9F9F9",
"f.	c #998A68",
"g.	c #A5A5A5",
"h.	c #938B7B",
"i.	c #B2A17D",
"j.	c #DFD5C0",
"k.	c #EEE9DE",
"l.	c #DBD1BA",
"m.	c #A3926B",
"n.	c #B3B3B3",
"o.	c #ACABAB",
"p.	c #9A9A9A",
"q.	c #969695",
"r.	c #A4A4A4",
"s.	c #887F6F",
"t.	c #A89468",
"u.	c #C8B893",
"v.	c #CDBF9E",
"w.	c #BCA97D",
"x.	c #937D4A",
"y.	c #BDBDBD",
"z.	c #979696",
"A.	c #F5F5F5",
"B.	c #CBCBCB",
"C.	c #A3A097",
"D.	c #A1A1A1",
"E.	c #8F8676",
"F.	c #9C8451",
"G.	c #AE9761",
"H.	c #A18647",
"I.	c #907127",
"J.	c #836727",
"K.	c #D7D7D7",
"L.	c #977F47",
"M.	c #AEAEAE",
"N.	c #837B6B",
"O.	c #937A43",
"P.	c #A2884A",
"Q.	c #987A36",
"R.	c #8E6E23",
"S.	c #7E611E",
"T.	c #FAFAFA",
"U.	c #CFCECE",
"V.	c #A09F9F",
"W.	c #E5E5E5",
"X.	c #9C7F3D",
"Y.	c #ABABAB",
"Z.	c #746D5F",
"`.	c #896F36",
" +	c #9C803D",
".+	c #94762F",
"++	c #7D5F1C",
"@+	c #DADADA",
"#+	c #B2B2B2",
"$+	c #282828",
"%+	c #737373",
"&+	c #949494",
"*+	c #969492",
"=+	c #937E4F",
"-+	c #997B37",
";+	c #93742D",
">+	c #7F6320",
",+	c #F2F2F2",
"'+	c #141414",
")+	c #AAAAAA",
"!+	c #83785D",
"~+	c #967933",
"{+	c #92732B",
"]+	c #8F6E23",
"^+	c #785F26",
"/+	c #EDEDED",
"(+	c #4D4D4D",
"_+	c #5E5E5E",
":+	c #F1F1F1",
"<+	c #787878",
"[+	c #6D6B68",
"}+	c #957730",
"|+	c #92732A",
"1+	c #8F6F24",
"2+	c #5C4517",
"3+	c #E3E3E3",
"4+	c #C3C3C3",
"5+	c #848484",
"6+	c #7D7C79",
"7+	c #846728",
"8+	c #917229",
"9+	c #816421",
"0+	c #929292",
"a+	c #71706F",
"b+	c #68501E",
"c+	c #7E6323",
"d+	c #6A521E",
"e+	c #767676",
"f+	c #F8F8F8",
"g+	c #D1D1D1",
"h+	c #868686",
"i+	c #CDCDCD",
"j+	c #696969",
"k+	c #D8D7D7",
"l+	c #B7B6B6",
"m+	c #818080",
"n+	c #898888",
"o+	c #CCCCCC",
"p+	c #808080",
"q+	c #686868",
"r+	c #656565",
"s+	c #717171",
"t+	c #908F8F",
"u+	c #7F7F7F",
"v+	c #C1C1C1",
"w+	c #6C6C6C",
"x+	c #6A6A6A",
"y+	c #ECECEC",
"z+	c #D4D4D4",
"A+	c #424242",
"B+	c #957735",
"C+	c #757575",
"D+	c #6B6B6B",
"E+	c #6F6F6F",
"F+	c #D6D6D6",
"G+	c #D6D5D5",
"H+	c #303030",
"I+	c #9E8F72",
"J+	c #6E6E6E",
"K+	c #1B1B1B",
"L+	c #2E2E2E",
"M+	c #CBCACA",
"N+	c #C8C7C7",
"O+	c #A0A0A0",
"P+	c #7A7A7A",
"Q+	c #747474",
"R+	c #777777",
"S+	c #636363",
"T+	c #8A8A8A",
"                                                                                                    ",
"      . + @ #                                         $ $ $ $ $ $ $ $ $ $ $ $ $ %                   ",
"  &   * = - ; >                   , '               $ $ $ $ $ $ $ $ $ $ $ $ $ ) ! ~ {               ",
"  ]   ^ / ( _ :                   < [ }           $ $ $ $ $ $ $ $ $ $ $ $ $ $ | 1 @ 2 3             ",
"  4   5 6 7 = 8                     9 0 a         $ $ $ $ $ $ $ $ $ $ $ $ $ $ $ b c d               ",
"  e   f g h i                       j k l         $ $ $ $ $ $ $ $ $ $ $ $ $ $ $ m                   ",
"  n     h h h                       o p ' q       $ $ $ $ $ $ $ $ $ $ $ $ $ $ $ $                   ",
"  n     : h r s t u                   v w a x     $ $ $ $ $ $ $ $ $ $ $ $ $ $ $ $                   ",
"  n   y z A B C D E                   | F G q w   $ $ $ $ $ $ $ $ $ $ $ $ $ $ $ $                   ",
"  H I J K L M N O P Q                   R S 0 G   T $ $ $ $ $ $ $ $ $ $ $ $ $ $ $                   ",
"  U V W X Y Z `  ...+.                    @.#.a $.%.$ $ $ $ $ $ $ $ $ $ $ $ $ $ $                   ",
"&.*.= y V =.-.;.>.,.'.                    R ).q G !.m $ $ $ $ $ $ $ $ $ $ $ $ $ $                   ",
"~.{.I #.~.].^./.(._.:.                      <.[.}.|.1.m $ $ $ $ $ $ $ $ $ $ $ $ $                   ",
"2.3.4.5.6.7.8.9.0.a.b.                        c.' d.F e.$ $ $ $ $ $ $ $ $ $ $ $ $                   ",
"6.f.- g.~.h.i.j.k.l.m.                          n.a o.R $ $ $ $ $ $ $ $ $ $ $ $ $                   ",
"p.q.5.r.K s.t.u.v.w.x.                          y.x z.).A.$ $ $ $ $ $ $ $ $ $ $ $                   ",
"B.C.D.K 5.E.F.G.H.I.J.                            <.d.r.K.T $ $ $ $ $ $ $ $ $ $ $                   ",
"  L.- M.X N.O.P.Q.R.S.                            T.U.V.y.c.W.$ $ $ $ $ $ $ $ $ $                   ",
"  X.R #.Y.Z.`. +.+R.++                            $ T @+#+$+%+m $ $ $ $ $ $ $ $ $                   ",
"  X.j &+r.*+=+-+;+R.>+                            $ $ T ,+W '+<.$ $ $ $ $ $ $ $ $                   ",
"  X.!.&+c.)+!+~+{+]+^+                            $ $ $ $ /+(+_+:+$ $ $ $ $ $ $ $                   ",
"  X.B.W @+<+[+}+|+1+2+                            $ $ $ $ $ c.4 3+$ $ $ $ $ $ $ $                   ",
"  X.4+= @.5+6+7+8+9+                              $ $ $ $ $ $ ,+$ $ $ $ $ $ $ $ $                   ",
"  X.b 0+v = a+b+c+d+                              $ $ $ $ $ $ $ $ $ $ $ $ $ $ $ $                   ",
"  X.4+= @.e+=                                     f+T.T.T.T.T.T.T.T.T.T.T.T.T.T.T.                  ",
"  X.g+h+i+e+j+                                  k+l+&.&.&.&.&.&.&.&.&.&.- 2 j+m+n+                  ",
"  X.o+p+b ~ q+                              $ $ $ $ $ $ $ $ $ $ $ $ $ $ B.)+r+s+t+                  ",
"  X.@.u+v+w+x+                              $ $ $ $ $ $ $ $ $ $ $ $ $ $ y+z+X A+                    ",
"  B+4+C+D+E+s+                              F+G+G+G+G+G+G+G+G+G+G+G+G+G+G+&++ H+                    ",
"  I+J+3 K+L+C+                              M+N+                                                    ",
"  O+P+Q+R+S+T+                                                                                      ",
"                                                                                                    "};
