/* XPM */
static char * Dfr3_50_xpm[] = {
"35 58 256 2",
"  	c None",
". 	c #32262E",
"+ 	c #BFB078",
"@ 	c #8D8040",
"# 	c #6E663E",
"$ 	c #7B373A",
"% 	c #C9DFF6",
"& 	c #605541",
"* 	c #89845D",
"= 	c #564C44",
"- 	c #BA927E",
"; 	c #613035",
"> 	c #A7B0BE",
", 	c #534432",
"' 	c #A79269",
") 	c #C8D2DA",
"! 	c #746979",
"~ 	c #F2A238",
"{ 	c #784742",
"] 	c #4B3C32",
"^ 	c #CDB2B3",
"/ 	c #97664B",
"( 	c #96967A",
"_ 	c #ECE9EC",
": 	c #DE9A3B",
"< 	c #4D323C",
"[ 	c #A4B0D0",
"} 	c #947E68",
"| 	c #795444",
"1 	c #AD9583",
"2 	c #736B6F",
"3 	c #443636",
"4 	c #D6ECF8",
"5 	c #BACADA",
"6 	c #605670",
"7 	c #8C684C",
"8 	c #9A7F7A",
"9 	c #B99487",
"0 	c #A2523E",
"a 	c #3E322E",
"b 	c #9E97AC",
"c 	c #C48E4C",
"d 	c #966E78",
"e 	c #F6B246",
"f 	c #84773F",
"g 	c #B7A0A4",
"h 	c #A2A4A4",
"i 	c #E4E2EC",
"j 	c #EAD6B6",
"k 	c #624632",
"l 	c #A3954F",
"m 	c #ABB9CC",
"n 	c #6F6967",
"o 	c #5B525A",
"p 	c #795D3C",
"q 	c #D2C5D5",
"r 	c #3F2D37",
"s 	c #B5B3C1",
"t 	c #AE8C7E",
"u 	c #878378",
"v 	c #6E623E",
"w 	c #766278",
"x 	c #99706F",
"y 	c #C2AE8A",
"z 	c #9D473C",
"A 	c #8C95B1",
"B 	c #C29E97",
"C 	c #C2B6D0",
"D 	c #866C41",
"E 	c #9D8143",
"F 	c #8E6149",
"G 	c #91889A",
"H 	c #9D3C39",
"I 	c #D9D7E9",
"J 	c #3A2E36",
"K 	c #8C767D",
"L 	c #6C4C38",
"M 	c #68523F",
"N 	c #ACB8DA",
"O 	c #E6B67E",
"P 	c #52455E",
"Q 	c #D2C3A6",
"R 	c #7E7240",
"S 	c #ECEEF3",
"T 	c #DCE3EC",
"U 	c #959EAC",
"V 	c #816265",
"W 	c #723739",
"X 	c #D2B08A",
"Y 	c #A0805A",
"Z 	c #5B4D67",
"` 	c #DBF3FA",
" .	c #4D3C58",
"..	c #7C7071",
"+.	c #977145",
"@.	c #826C42",
"#.	c #A3A1B8",
"$.	c #92888A",
"%.	c #B2A67E",
"&.	c #B2C6ED",
"*.	c #3A2A35",
"=.	c #997966",
"-.	c #746E7E",
";.	c #BDC1C3",
">.	c #C4A4A1",
",.	c #5C3931",
"'.	c #81808C",
").	c #6B5955",
"!.	c #8E7A6A",
"~.	c #C9B0A9",
"{.	c #A1AABD",
"].	c #A6BAEE",
"^.	c #746646",
"/.	c #4C4343",
"(.	c #ABA292",
"_.	c #6D5E3E",
":.	c #453644",
"<.	c #878E9F",
"[.	c #BEB0CE",
"}.	c #B7A8BB",
"|.	c #827E56",
"1.	c #A77549",
"2.	c #AB92A1",
"3.	c #8E463B",
"4.	c #885443",
"5.	c #5A4666",
"6.	c #D0D2E1",
"7.	c #8C7440",
"8.	c #817854",
"9.	c #F0F2F4",
"0.	c #CFE6F8",
"a.	c #362A32",
"b.	c #3A2E4B",
"c.	c #959FC0",
"d.	c #B1C1EB",
"e.	c #CCA8A0",
"f.	c #7F5B57",
"g.	c #634D3C",
"h.	c #CDBDD6",
"i.	c #E6EAEE",
"j.	c #A49D64",
"k.	c #A08C61",
"l.	c #BAAA56",
"m.	c #483C3B",
"n.	c #C0B0B6",
"o.	c #DEC286",
"p.	c #D0BE94",
"q.	c #A28B9B",
"r.	c #846A64",
"s.	c #963A3A",
"t.	c #67625E",
"u.	c #564E5A",
"v.	c #4D354B",
"w.	c #97765D",
"x.	c #544543",
"y.	c #8A7471",
"z.	c #B0A1B1",
"A.	c #847380",
"B.	c #BA989C",
"C.	c #683A39",
"D.	c #E2EDF4",
"E.	c #C2D9F6",
"F.	c #865F42",
"G.	c #9F8B4A",
"H.	c #968A44",
"I.	c #B6965E",
"J.	c #7E6B4A",
"K.	c #3E323D",
"L.	c #6F4648",
"M.	c #A18981",
"N.	c #D6E0F2",
"O.	c #6D5B71",
"P.	c #A1817C",
"Q.	c #716B49",
"R.	c #A46266",
"S.	c #E4F5F9",
"T.	c #AC8668",
"U.	c #DDCDCF",
"V.	c #BEBAC1",
"W.	c #C4CEEA",
"X.	c #868991",
"Y.	c #6C5549",
"Z.	c #9F8991",
"`.	c #93793F",
" +	c #8C7A45",
".+	c #533D41",
"++	c #685960",
"@+	c #5D5350",
"#+	c #9AA6BA",
"$+	c #5E4D3C",
"%+	c #9A9EA2",
"&+	c #AD9AA6",
"*+	c #7A7251",
"=+	c #E6DADB",
"-+	c #5E3B44",
";+	c #948044",
">+	c #D3BAB8",
",+	c #9995AD",
"'+	c #94787B",
")+	c #666076",
"!+	c #D2E0EF",
"~+	c #BED2F3",
"{+	c #85383A",
"]+	c #6A583C",
"^+	c #825445",
"/+	c #C1A7AD",
"(+	c #F2FAFA",
"_+	c #B2AABA",
":+	c #928862",
"<+	c #D6BE82",
"[+	c #CFCCDB",
"}+	c #8F959B",
"|+	c #8E8655",
"1+	c #AD9592",
"2+	c #99786D",
"3+	c #36262F",
"4+	c #93818F",
"5+	c #97A1B9",
"6+	c #44323F",
"7+	c #614448",
"8+	c #AC8E90",
"9+	c #6D323A",
"0+	c #B7A36F",
"a+	c #E4CCA9",
"b+	c #B6B2CA",
"c+	c #B9A7AD",
"d+	c #BFC0D8",
"e+	c #77767D",
"f+	c #CEB6AC",
"g+	c #A25E42",
"h+	c #B8CCF1",
"i+	c #786C49",
"j+	c #4A3C45",
"k+	c #A6AAAA",
"l+	c #A9BEF1",
"m+	c #56322F",
"n+	c #78683A",
"o+	c #B2A266",
"p+	c #8E5A66",
"q+	c #3E365E",
"r+	c #BDB1A1",
"s+	c #B4C2D4",
"t+	c #9F806B",
"u+	c #83453E",
"v+	c #ADA0A4",
"w+	c #C3B6C1",
"x+	c #938641",
"y+	c #7A623D",
"z+	c #D1B0A9",
"A+	c #A07842",
"B+	c #725A3A",
"C+	c #D4BC8A",
"D+	c #98A8CA",
"E+	c #8C7A92",
"F+	c #847664",
"G+	c #9C7781",
"K.J *.*.a.3+a.a.a.. . . . . a.. . . . . . a.3+3+3+. . . . . . . . . . ",
"*.*.a.a.3+a.. . . . . . . 3+3+a.. . . 3+3+a.a.. . . . . . . . . . . . ",
"b.a.b.a.3+a.a.a.. . . . . a.3+a.. . . 3+3+. a.. . . . . . . . . . . . ",
"J b.*.*.a.3+. . . . . . a.. J a.3+3+3+a.3+3+. . . . . . . . . . . . . ",
"J b.a.a.*.a.. . . . . . a.3+*.J a.a.3+a.a.a.. . . . . . . . . . . . . ",
"r b.b.3+b.. a.a.a.a.J K.*.r :.6+r *.*.*.*.*.3+3+3+. . . . . . . . . . ",
"6+r *.a.a.a.b.J K.m./.= q+m.x..+6+a *.r r 3 a r r *.a.. . . . . . . . ",
"K.K.b.*.J a.K.K./.= -.= x.x.t.@+/.x..+x.:.x.= m., /.r 3+. . . . . . . ",
"K.r b.*.r r /./.u.@+<.u t.-.F+2 F+-.t._.u.@+..-.n @+$+6+*.3+. . . . 3+",
":.6+6+6+v.3 u.n X.X.> %+5+%+> h > > h X.n n <.<...e+o ] *.3+3+. 3+. 3+",
":.6+:.:.3 :.= <.{.5+5+{.k+%+> s+h+&.{.U -.'.U D+}+<.++3 r r *.3+3+*.*.",
"6+6+< m.:./.'.<.U #.U A U [ 5+].l+l+D+U '.5+U ].{.D+e+] a @+3 6+a r r ",
"6+6+j+P e+'.'.}+,+N #+#.U #.].l+d.l+}+#+D+D+].].l+U e+e+M t._.x.$+@+t.",
"6+j+6 '.U K l+d.h+h+h+5 W.x d.d.l+l+l+].].].].].].[ %+}+#+}+X.<.}+#+}+",
":.t.<.}+U G #+h N h d.h+b+2.N d.l+l+l+l+l+l+].].l+l+A [ ].u U <.A A A ",
"6+e+U {.[ G m m > [ d.W.W.&+E.h+h+5+&.l+&.h+l+h+&.&.&.l+].5+c.c.A e+c.",
"! #+> G {.A.5+,+{.b h N.6.g W.d.d+p+&.~+E.0.E.E.E.~+~+h+d.&.].c.l+d.! ",
"> ) d b+,+C > ;.T S.i T b &+P.C s w+E.% 0.4 ` 4 0.E.h+~+~+h+}+}+#+N <.",
"v+!.s+D.(+D.9.(+(+(+(+N.#.G+E+z.#.h.0.` V.4 ` ` ` % ~+~+~+~+h+m s+~+s ",
"V d+N.E.% % 0.4 S.S.% _+,+g d n.d 1+;._+u+_+% 0.4 % ~+% % 0.E.% % ` 4 ",
"8 i I 0.% E.!+E.E.% E.,+b G+R.R.R.&+[.G E+) % 0.0.0.% 4 4 4 0.` S.(+S.",
"^+q =+N.T W.i T E.~+E._+,+q.C b+[+&+s [ &+[+~+~+E.0.% 0.% 0.` ` ` ` ` ",
"L.&+%.V.[.I i 9.i.T !+d.b #.}./+_ n.w+&._+!+E.E.h+% % 0.0.4 ` ` S.4 4 ",
"L.2+v+Z.&+h.q =+q i _ h.q.&+&+_+=+n./+d+n.% E.E.% 0.4 0.4 (+(+(+4 0.5 ",
"C.F.'+Z.[.[.h.[+C h.h.}.q.2.g g z+g 1+v+g [+% 4 4 ` ` (+(+(+(+(+0.n -.",
"-+f.f.v+z.}.[.}.z.}.z.2.Z.2.>.B.>.1+q.2.~.w+~+0.0.0.4 S.S.4 ` ` 4 > j+",
"L.F.^+M.q.8.( z.2.Z.&+q.2.q./+>./+/+g g /+f+~.4 ` ) 9.4 ` ` ` ` 4 !+y.",
"^+/ F *+*+Q.Q.|.F+q.q.2.4+g >.e./+/+/+c+>+>+f+4 !+i i N.i.` ` ` 4 1 B ",
"^+F F i+R *+Q.Q.Q.F+Z.2.G+&+e.e.g g g f+^ ^ z+U.i S 6.I i 9.` ` r+M.- ",
"L.4.7 # x+x+f R Q.t.G+P.8 B.g e.2.>.B.>.B z+^ w+=+S I I i i.9.i.P.8 P.",
"{ ^+]+n+f @ x+f i+# r.F+* ' B.B.8+/+/+B >.>.B >.U._ _ i i i.6.8+M.8 o+",
"^+M ]+v Q.@ @ x+l H.j.j.k.x+t t B.B >.e.e.z+>+>.f+6.S S i 8+8 8 ' + o+",
"^+$+& /.v i+@ x+H.p.l.p.C++ B.t t g B./+>.>.z+^ e.w+;.;.8 G+x * j.l j.",
"7 & v n+& _.i+ +;+y <+j a+Q + k.} B.9 >.>.B e.z+>.~.%.r.d V r.:+j.j.|+",
"f.= _._.@+_.f Q.R x+I.a+a+f+* i+i+t t+B e.B e.z+>+~.%.(.F+i+:+j.j.8.* ",
"^+m.= & _._.$+_. + +G.~.o.w+i+v v i+@.t e.B.>.e.X ~.1 x.& |+|.e+|._.i+",
"| /.& ^.^.x.& ]+]+@+F+1 z+Q 0+i+]+# v J.- t B e.z+>.1 , & * & # t.*+l ",
"4.M Y.J.4+x.v _./. .z.1+o+j <+;+f 7.v '.r+w.T.B e.z+y |+Q.|+* |.* *+|+",
"^+F M P G $.n+]+b.6 [+q.;+0+o.l : e ;+P T.K =.t e.B z+:+Q.*+Q.|.|.Q.n+",
"L.| ).3 d r.$+b.b.)+_ (.@ ;+G.o+~ ~ G.W g+I.G.y+t - B c+Q.8.8.v , ]+f ",
"V t 7+< L..+b.b.b.O.i _+R R J.A+~ c 1.7 w.7 0+]+D =.- 1 f |.v y+v y+@ ",
"! +.L < -+-+K.b.q+A.q u 7._.y+: ~ ~.g ,+v.+.r+@ v v @.# |.T.9+H D l l.",
"V w.m+< w 1+E+q+++f.g 4+i+$+M : O S p.V.Y.m+t+i+_.# R n+c+q.{+H F.l l.",
"F f.< = @.8. . .K F+G Y.$+M k : X T r+(.K C.c E 7.@ H.;+O.o d 1._+h @ ",
"| | 7+@+M /.b.6 2+x 8 y.$+_.p 0 / v+y.7.u+7+^+Y 7.@ @ @ n+++L.#.n X.l ",
"L..+| 1.Y.! P y.M.1 8+P.Y.]+p ; ,.7+u+_.v..+^+y+7.n+]+B+]+$+6 u.K.2 # ",
"7+6+.+| w &+O.'+P.M.1 t ..g.Y.-+M ; { 7+r r F { y+n+B+u+9+m+Z u.6 ! n+",
",.K.r v.Z _+P } 8 M.T.'+! Y.*+E+w r.T.y+9+*.C.3.k p ^+; 9+9+ .u.6 & p ",
"< 6+r v.5.q.-.P.=.P.8+~.z.q g y.A.P.T.| $ ; s.z ,.$+W m+$ $ < 6+L.x.n+",
":.6+<  . .E+4+t+} 8 Z.g 8+V.1 r.y.P.T.g+$ ; {+z L ]+^+C.z {+9+W {+| y+",
"6+6+< v. .-+$ 8 t+Y.@+v ^.t $.!.y.P.T./ {+9+s.H { y+D F.z 3.m+C.C.m+,.",
":.6+v.5.-+-+W +.!.i+;+;+E k.2+!.} =./ g+$ 9+H H 1.x+@ D ,.< m+L ,.m+L ",
":.6+ .++Y.++5.A.p B+^._.& ]+).J.!.=.F.z $ $ 0 0 `.E E E `.L ,.] r ] , ",
"j+6+< j+v.x.7+A+]+, /./.= , @+= M g.L u+^+F.7.`.`.7.D D v ,., 3 r 6+6+",
"m.= :.j+m.m.x.+.L , = & & M ]+_.n+y+7.@ ;+;+E `.7.B+L , ] , a a.a.a.a ",
"/.:./././.= M A+E 7.y+p  +7.7.7.p ;+E ;+7.7.f D p k ] ] ] a a a.a.. *.",
"m./.m./.m.x.$+M v y+]+L L n+n+@.n+;+E `.D B+, k , ] a a ] a a a a.a a ",
"/.j+/./.= = , ] = $+g.]+B+p M D D 7.y+v ]+, , , , a a ] ] ] ] a r a.K."};
