/* XPM */
static char * Dfr4_50_xpm[] = {
"35 58 256 2",
"  	c None",
". 	c #272019",
"+ 	c #A23614",
"@ 	c #5D624A",
"# 	c #823116",
"$ 	c #A77447",
"% 	c #3A3C2B",
"& 	c #6B6534",
"* 	c #C3A676",
"= 	c #5F3A27",
"- 	c #D5722D",
"; 	c #9A6239",
"> 	c #692D19",
", 	c #A2582C",
"' 	c #804527",
") 	c #5A4934",
"! 	c #AB9043",
"~ 	c #535632",
"{ 	c #8C8448",
"] 	c #5B2512",
"^ 	c #826840",
"/ 	c #998944",
"( 	c #C9722F",
"_ 	c #A35F32",
": 	c #824E30",
"< 	c #D6843E",
"[ 	c #425246",
"} 	c #D25E22",
"| 	c #5D5533",
"1 	c #6A7075",
"2 	c #4F2617",
"3 	c #33638F",
"4 	c #7A7846",
"5 	c #A28A46",
"6 	c #453C2C",
"7 	c #8A502D",
"8 	c #342F28",
"9 	c #987C45",
"0 	c #795339",
"a 	c #47637B",
"b 	c #44432D",
"c 	c #D89248",
"d 	c #D2A86F",
"e 	c #857C4A",
"f 	c #BE6228",
"g 	c #7C6241",
"h 	c #32587C",
"i 	c #BD915D",
"j 	c #B07542",
"k 	c #A6401A",
"l 	c #6C402A",
"m 	c #6E472E",
"n 	c #5683A9",
"o 	c #C88846",
"p 	c #DDC386",
"q 	c #967446",
"r 	c #68655D",
"s 	c #8B5D37",
"t 	c #A76835",
"u 	c #C45621",
"v 	c #605B57",
"w 	c #92441F",
"x 	c #857439",
"y 	c #72878E",
"z 	c #705538",
"A 	c #747248",
"B 	c #4C6C8C",
"C 	c #E5A453",
"D 	c #9A3917",
"E 	c #32526E",
"F 	c #564E2A",
"G 	c #384B59",
"H 	c #3A1E16",
"I 	c #EC9240",
"J 	c #AE824E",
"K 	c #3C2E28",
"L 	c #9A8F7D",
"M 	c #9D4E25",
"N 	c #845E3E",
"O 	c #41575C",
"P 	c #B18858",
"Q 	c #DAB373",
"R 	c #625E36",
"S 	c #EA8C3C",
"T 	c #4F4333",
"U 	c #A64C22",
"V 	c #B26834",
"W 	c #726636",
"X 	c #B75421",
"Y 	c #C78242",
"Z 	c #803C1F",
"` 	c #986E38",
" .	c #4175A4",
"..	c #A57A4F",
"+.	c #A68E4A",
"@.	c #563B28",
"#.	c #C49E69",
"$.	c #AC612C",
"%.	c #CC914E",
"&.	c #3B4B47",
"*.	c #965B30",
"=.	c #BB4D1F",
"-.	c #4F5D6D",
";.	c #61361F",
">.	c #B97E43",
",.	c #E39645",
"'.	c #6D7968",
").	c #5F5244",
"!.	c #6C6E44",
"~.	c #7C7245",
"{.	c #835A3B",
"].	c #686245",
"^.	c #856E45",
"/.	c #56665A",
"(.	c #8C3C1C",
"_.	c #809CA4",
":.	c #405252",
"<.	c #B25523",
"[.	c #D58C44",
"}.	c #696F5A",
"|.	c #383F3E",
"1.	c #E4AE5B",
"2.	c #C97636",
"3.	c #6E2612",
"4.	c #78492E",
"5.	c #BC692F",
"6.	c #627E82",
"7.	c #58646A",
"8.	c #522D1C",
"9.	c #545A57",
"0.	c #444642",
"a.	c #763A1F",
"b.	c #442A1E",
"c.	c #503D2F",
"d.	c #98855D",
"e.	c #944E28",
"f.	c #8B875E",
"g.	c #5E4D46",
"h.	c #3E3521",
"i.	c #5C717C",
"j.	c #765D52",
"k.	c #E58B3F",
"l.	c #DA9E4D",
"m.	c #4F473E",
"n.	c #3D6E9B",
"o.	c #9C7B5A",
"p.	c #9E471F",
"q.	c #B27654",
"r.	c #7A6A5E",
"s.	c #88734B",
"t.	c #B83114",
"u.	c #685534",
"v.	c #CA622A",
"w.	c #4676A0",
"x.	c #B39A6D",
"y.	c #656746",
"z.	c #B97235",
"A.	c #34362A",
"B.	c #453E3A",
"C.	c #8C633F",
"D.	c #7A2A12",
"E.	c #AA5425",
"F.	c #635E49",
"G.	c #BE894B",
"H.	c #46352B",
"I.	c #98673E",
"J.	c #7A5E40",
"K.	c #6D4E35",
"L.	c #663E27",
"M.	c #624630",
"N.	c #705A4E",
"O.	c #5F321E",
"P.	c #B24D21",
"Q.	c #D2B577",
"R.	c #D76929",
"S.	c #884421",
"T.	c #2E2820",
"U.	c #A76D46",
"V.	c #7D6A37",
"W.	c #737857",
"X.	c #3C4645",
"Y.	c #6A5645",
"Z.	c #515742",
"`.	c #934A24",
" +	c #746E3C",
".+	c #D67B33",
"++	c #A68863",
"@+	c #535232",
"#+	c #3F668B",
"$+	c #B46E3B",
"%+	c #AB5A2A",
"&+	c #736E58",
"*+	c #53687A",
"=+	c #976E4A",
"-+	c #774125",
";+	c #45525A",
">+	c #C89A64",
",+	c #715D3A",
"'+	c #424E3E",
")+	c #9E5C2F",
"!+	c #E27C30",
"~+	c #825333",
"{+	c #D8984B",
"]+	c #C97C3A",
"^+	c #AB9064",
"/+	c #505244",
"(+	c #3A2A24",
"_+	c #514A30",
":+	c #54748F",
"<+	c #EFB159",
"[+	c #BA8249",
"}+	c #2A271D",
"|+	c #4E4E2E",
"1+	c #858675",
"2+	c #5E402D",
"3+	c #A76E3B",
"4+	c #523525",
"5+	c #DE8D40",
"6+	c #BA8956",
"7+	c #8A654E",
"8+	c #955E3F",
"9+	c #F2BA66",
"0+	c #54524E",
"a+	c #3D352F",
"b+	c #785A3A",
"c+	c #92532E",
"d+	c #D29666",
"e+	c #605844",
"f+	c #342925",
"g+	c #535E47",
"h+	c #504E3F",
"i+	c #75341A",
"j+	c #A67F54",
"k+	c #BA783D",
"l+	c #B13F19",
"m+	c #BA9A6A",
"n+	c #746547",
"o+	c #82725C",
"p+	c #B59368",
"q+	c #B37E53",
"r+	c #7C6B47",
"s+	c #CA6D2E",
"t+	c #644D35",
"u+	c #6C6847",
"v+	c #EC9C46",
"w+	c #9E754C",
"x+	c #707A7B",
"y+	c #405C73",
"z+	c #5E2C17",
"A+	c #8A5634",
"B+	c #E29E4A",
"C+	c #8D6A3E",
"D+	c #B4602D",
"E+	c #68351F",
"F+	c #9C5428",
"G+	c #BD6E31",
"y+E G G &.O G |.G |.@+~ _+% }+| A.,+b @+@+!._+6 % f+f+h.A.|.&.T.% @ y.",
"&.G y+:.X.|.X.% A.G ~ @+% @+}+}+8 b R & 4 @+T.& 6 ) ).A.|.b @ % % '+0.",
"m.h+u+0+Z.|.&.X.A.|.B.~ % % % R & @++.& }+}+. h.V.9 e _+[ ~ Z./.4 @ u+",
"m.h+F.e /+O @ &.|.8 R ~ F T.b h.b h.| | b h.T.|+b x u+R 4 }.g+&  +/ +.",
"g.@ y.].e+0.X.|.A.}+b h.}+8 8 8 % & ~ & & +.& g+|+_+) & 9 & M.e+ + +5 ",
"T T e+e | 6 |.A.. . . . 8 b ~ |+R 4 x ! & | R & g+| ) F ) u.M.R  +].!.",
"a+6 T F.) % T.. . . . }+% ~ & |+R F V.~.b % ~ g+@+6 |.b M.| ) 6 R W A ",
"9.B.m.|+m.H.f+. . . T.8 T.h.b |+4 4 | '.[ &.(+b R |+'+~ c.E+2+2+z g ^ ",
"1 v m.Z.a+f+. . . 8 A.8 h.b % & &  +R 6.'.'+y.~ { !.& 4 F l m ~.{ W &+",
"@ ).a+6 a+(+f+. }+A.8 % ).F | | | ,+/ _.i.a g+W.f.& '+Z.R | & z s.! ~.",
"'.x+6 (+8 a+f+f+8 6 m.) ].| r+^.& u.{ 6.g+*+X.y+/.[ ~ Z.A t+K.^ q >.^ ",
"r.1+v f+K a+a+K T t+N.r m.@ ^ x ,+! f._.:+:+y+:+/.&.Z.R { V.W g q 9 g ",
"1 r.B.f+8 a+a+m.).^.o+~.g+}.n+n+C.W.6.'.6.n.#+:+'+O }.!.e 9 ^.` ^ 5 ^ ",
"B.m.K 8 K m.m.Y.^.r+].r W.~.u+W k+/.'.W.#+a a i.O *+i.&+4 4 9 V.C.s ~+",
"a+a+f+f+K B.T Y.v Z.y.}.u+u+F.9.#.*+/.1+6.#+*+*+#+n.6.7.1+1+) M.s c+A+",
"a+(+f+f+8 B.g.e+).@ g+u+h+h+&+7.i 3 3 @ j.n.n.#+*+B y+x+d.o+6 = -+e.*.",
"8 f+(+K a+m.9.u+u+y.e+n+7.;+i.Y.G.7.*+z $+n. .n B a 7.i.1 -.H.2+A+c+C.",
"f+a+a+B.0.T F.u+}.@ r 9.n.9.:+-+k+P.x+{.Q n  .n.3 y+v x+-.B.@.t+C.~+s ",
"f+|.a+B.X.;+].^.u+y.y.-.y+7.*+q.V %+++: d w.w.g.n.a -.G 9.O.= : *.F+r.",
"8 8 0.m.0+r ,+n+}.y.j.v g.B -+>.c+%+c+(.s+L N , -.3 h y+6 ;.t+b+`._ 1 ",
"f+f+|.0+9.&+n+d.W.!.j+s.j.7.Z , E.Y (.6+s+[+$+Y i.3 h y+X.;.l ' c+F+r.",
"f+T.a+/+e+A V.j+e ^.` o.v 0+K.`.s+d+5.Q o L 6+< B 3 y+y+|.O.a.-+q+c+N ",
"8 f+a+0+j.4 ~.q  +D+{+G.r v N.0 D+F+f Q m+L ^+i n  .E ;+m.E+= ' q+: N.",
"f+f+K ).&+n+q * j+f [+Y o+1 t+4.*.: c+d+U.8+d.m+y y r.r w+j+7+C+V e.Y.",
"f+f+H.g.n+o+z o.C.p.>.$ d.9 b+: s 7+g I.{.s j.L * * o+7 q.#.j+C.I.: 0 ",
". T.f+a+F u+)...>.G.[+J * ^+~.z ~+I.0 d.8+I.7 =+++i.;+q o %.q+A+{.: 7 ",
"(+f+K 6 T r.o.Q J P * ! >+p s.x C+4.t 3+)+c+' ..P r g...G+o D+7 N 0 A+",
"8 K a+4+6 N.6+N ^+w+j+p j+i d.4 e ,+{.8+j+c+4.U.$+k+]+s+2.< d+C.Z = M ",
"a+B.% c.c.{.P N Q ++[+J w+i x.9 { 4 e I.w+A+O.4.K.l m [.[+C < w+Z -+_ ",
"9.m.).m.c.t U.b+q : %.p+++++p+4 e 4 V.o.=+4.l l 2+4+{.%+q.k.G+~+`.Z _ ",
"F.W.o+F.c.~+c+~+I.A+J C.I.q 9 { 4 s <.s =+c.4+4+4+z e c+i [+F+U.(.P._ ",
"b R F.h+@.c.L.: G.g ++q j+..~ A ~.$ <.7 z c.H.(+K *.Y.s q+x.O.V (.E.V ",
"0.F e+c.@.2+m : : {.^+J ^+o T ,+2+-+8+I.j.@.4.4+f+c.T F+q+6+0 D+w (.E.",
"B.) ; $.a.2+M.C.4.C.^+>+#.; 2+) 2+l 4.0 I.(.V ; f+b ) S.J d+j+' , `.E.",
"T K.D+5.8+@.L.7+P o.d.>+p C+z M.t+4.o.J.z , < ` f+8 t+E+{.d+q+_ $+S.e.",
"m.) $+d $ = @.~+..d d.J Q 9 z 0 2+0 C+=+m (.( t E+H.q 4.M.%.e.p+8+S.w ",
"m.b+>.* ; 8+@.: $ d o.b+i ^+^ : 4+g.o+=+i+X 5.%+u 8+{+L.6 w+' w+; 4.M ",
"T t+]+i _ 7 ' m I.i o.K.C.m+&+l ) Y.r Y.(.k U.k+5.$.k+h.H.K.7 t+j+L.p.",
"T 2+$.o ; S.7+l 0 I.=+r.~+j+s.f+9.1 v j.a.u - k.2.V I.M.8.l =+O.-+a.E.",
"8 f+: 5.V V )+c.{.j+P e l i o.H.0 g.X.m ; M ( < >.Q.Q.O.a.w V E+4.$+J ",
"6 f+~+< 5+[.G+= 0 J p+e t+K.w+++^+j.a+j.P U.; o.>+C.%.i+-+I.`.z.o C 6+",
"a+U.c .+f <.P.(.O.>+q.q.m 0 q.~+N o+^+P 5.w R.R.- *..+7 I.7 Y ,.c ,.5+",
"Y.7+V U X P.P.M > 6+I.>., c+t 5.f n+x o.w z.f e.5.)+S.D E+w k+{+P l.[.",
"T K.i+<.P.%+U.P.i+)+, r.E+%+.+R.- 2.5.s k+%+8.b.' U.l t.> -+_ 3+s.C+_ ",
"V l 8.(.D P.l+w i+V *.g E+w D+( V S.i+z+F+]+= b.z+F+8+# l+` ` {.s K.F+",
".+2.L.i+a.Z (.D.P.s+D+7+D+2.[.< [.V D.3.S.- 7 b.] <.]+] t.P.C+*.k+{+o ",
"2.G+$+( $+`.+ l+u k w t E.F+t e.S.(.t.t.8.p., b.8.z+f z+D.+ e.7 $+[.l.",
"( s+.+5+k.5+]+E.p.M M ' a.c+>.t $.P.l+k Z s+<.] ] H # (.K.L.K.7 F+{+%.",
"5+S I I C C C C %.I.I.w ~+I.I.$.p.U *.V v.=.P.U : a.S.U ~+; $ C.t $+%.",
".+( s+G+o Y %.>.t < v+v+5+Y < 2.G+%+' %+_ p.f )+)+-+2 4.I.$ 6+p+C+%.[.",
"( 2.]+V V [.[.]+]+[.C 1.1.<+v+c [.D+i+# > e.o C c : ' $ I...P w+G.$ V ",
"!+S I 5+,.v+C <+1.1.<+9+<+C <+<+<+[.%+k Z k+k+%.z.~+]+[.%.P q s : ' 7 ",
"k.S ,.v+B+,.5+[.[.l.<+<+1.,.{+C <+[.f `., D+(.U > L.z c {+t $ `.` ' -+",
"S v+[.]+F+`.%+s+2.]+]+t t ..A+)+t c+Z p.%+t , w # 3+q C., c+M i+' : ; ",
"- z.X D+s+[.{+5+]+3+;.;.m L.N V.l 3+F+E.k U + D + D %+E.(.# i+i+a.e.`.",
"- s+G+f V *.M i+> z+z+-+a.S.a.(.f .+z.V k+z.s+.+D # # e._ _ z+i+(.(.w ",
"- - .+[.c {+G.= z+(.(.U E.f f 5.2.z.k+J o .+.+.+Z i+Z F+-+< O.i+(.D w ",
"- - !+5+{+l.{+t =.u } u u <.$.s+, F+I.$.z.]+2., Z w X `.Z G+`.a.(.S.D "};
