/* XPM */
static char * Dice_2W6_trans_50_xpm[] = {
"50 32 256 2",
"  	c None",
". 	c #0220C9",
"+ 	c #466292",
"@ 	c #72BAEE",
"# 	c #9E1A02",
"$ 	c #D34E04",
"% 	c #667EF0",
"& 	c #385EC6",
"* 	c #727ED2",
"= 	c #AAB6D2",
"- 	c #364E7E",
"; 	c #F06C06",
"> 	c #BADAEA",
", 	c #789CD0",
"' 	c #26468E",
") 	c #E66A1E",
"! 	c #F6A672",
"~ 	c #829ED2",
"{ 	c #163E92",
"] 	c #B73204",
"^ 	c #8AA2CE",
"/ 	c #B9C3E5",
"( 	c #BEC6F6",
"_ 	c #EE8A62",
": 	c #0222E3",
"< 	c #8E9AAA",
"[ 	c #CF6F4E",
"} 	c #CCD8F0",
"| 	c #4A6EB2",
"1 	c #B23A1A",
"2 	c #1550BC",
"3 	c #EDB1AF",
"4 	c #0E42AE",
"5 	c #C2CAF8",
"6 	c #D2623A",
"7 	c #DC8682",
"8 	c #0232FE",
"9 	c #6C8EF2",
"0 	c #4672DE",
"a 	c #F3F5FE",
"b 	c #DE7A4E",
"c 	c #2236C6",
"d 	c #1A46FE",
"e 	c #2E5AAA",
"f 	c #326AD2",
"g 	c #D6DEFA",
"h 	c #E96405",
"i 	c #EFC4C8",
"j 	c #F27A36",
"k 	c #F68905",
"l 	c #5682E2",
"m 	c #C64202",
"n 	c #0222EA",
"o 	c #1530D1",
"p 	c #C64E26",
"q 	c #DD968B",
"r 	c #F2821E",
"s 	c #2C42CC",
"t 	c #8CA8F7",
"u 	c #2058C4",
"v 	c #B64226",
"w 	c #2A4AEA",
"x 	c #375FDE",
"y 	c #DEEAFA",
"z 	c #A21E02",
"A 	c #485ADC",
"B 	c #EE7656",
"C 	c #4D73E7",
"D 	c #365AC6",
"E 	c #86A2D6",
"F 	c #DEE6FE",
"G 	c #A6BEFA",
"H 	c #729AF6",
"I 	c #0A2EEA",
"J 	c #0E2AC2",
"K 	c #F0CACE",
"L 	c #CD551B",
"M 	c #96AEDA",
"N 	c #F2A286",
"O 	c #E5A79C",
"P 	c #A62202",
"Q 	c #2642D6",
"R 	c #DE7E56",
"S 	c #F2B6A6",
"T 	c #1634E2",
"U 	c #7C88DE",
"V 	c #628AD2",
"W 	c #0226EF",
"X 	c #325EFA",
"Y 	c #1A469A",
"Z 	c #5874F4",
"` 	c #F57403",
" .	c #F6D6E0",
"..	c #304EE4",
"+.	c #EEBEDA",
"@.	c #0426DA",
"#.	c #4A72D2",
"$.	c #D4520C",
"%.	c #C64A20",
"&.	c #021ED1",
"*.	c #AED0F6",
"=.	c #F27A1E",
"-.	c #DE662A",
";.	c #E68568",
">.	c #5D7DDA",
",.	c #EA927E",
"'.	c #3E65EA",
").	c #4A6ACE",
"!.	c #CB4605",
"~.	c #223EDE",
"{.	c #3C54DC",
"].	c #D65A1D",
"^.	c #F19A6F",
"/.	c #AC2904",
"(.	c #E2E6FE",
"_.	c #99B1F3",
":.	c #E67E4A",
"<.	c #022AFB",
"[.	c #8692D6",
"}.	c #1146AB",
"|.	c #BD3B09",
"1.	c #224EA6",
"2.	c #0B2BE2",
"3.	c #E8A8B2",
"4.	c #E67236",
"5.	c #6282DE",
"6.	c #2A52DA",
"7.	c #7E96E6",
"8.	c #F07620",
"9.	c #E9977E",
"0.	c #496EF3",
"a.	c #021ED9",
"b.	c #82A2DE",
"c.	c #5080CA",
"d.	c #F0B6B8",
"e.	c #BA3E18",
"f.	c #809EF2",
"g.	c #2652E6",
"h.	c #ED9271",
"i.	c #B42E02",
"j.	c #F67E02",
"k.	c #4269DF",
"l.	c #1232F6",
"m.	c #CEE6F2",
"n.	c #629AC6",
"o.	c #D58270",
"p.	c #0E4ABD",
"q.	c #DE621E",
"r.	c #5D84F9",
"s.	c #4B73F8",
"t.	c #326AFA",
"u.	c #566AEA",
"v.	c #123EFA",
"w.	c #DF5B09",
"x.	c #668AFE",
"y.	c #032AF4",
"z.	c #F2BDB2",
"A.	c #D77961",
"B.	c #EFBDBF",
"C.	c #EEAA9A",
"D.	c #5977C3",
"E.	c #36528A",
"F.	c #F4DAE7",
"G.	c #3658F2",
"H.	c #EE7E52",
"I.	c #8796E9",
"J.	c #3266CA",
"K.	c #1A5ABE",
"L.	c #F28441",
"M.	c #C95932",
"N.	c #466ED2",
"O.	c #F3CED6",
"P.	c #CA4E1A",
"Q.	c #0222DC",
"R.	c #164296",
"S.	c #3F65D1",
"T.	c #4169F6",
"U.	c #B63603",
"V.	c #7EA2F8",
"W.	c #C9644A",
"X.	c #E89E90",
"Y.	c #5A7CF8",
"Z.	c #0B2AD9",
"`.	c #1E3EE2",
" +	c #5276F5",
".+	c #1039F7",
"++	c #C23A03",
"@+	c #DD856D",
"#+	c #FEFEFE",
"$+	c #426ED2",
"%+	c #CC4810",
"&+	c #E6A29D",
"*+	c #B2C6FA",
"=+	c #2E56A6",
"-+	c #A2B2F9",
";+	c #BED2FA",
">+	c #022EFD",
",+	c #F67A0A",
"'+	c #D24A02",
")+	c #F2E2EE",
"!+	c #C64A0E",
"~+	c #0326E5",
"{+	c #E28E80",
"]+	c #92AEF4",
"^+	c #EE7216",
"/+	c #D76E53",
"(+	c #3E6AEA",
"_+	c #0227EA",
":+	c #E36C2E",
"<+	c #3A66BD",
"[+	c #F27F30",
"}+	c #4F76DB",
"|+	c #CC4A07",
"1+	c #425AEE",
"2+	c #B6CAEE",
"3+	c #6589EB",
"4+	c #3259E1",
"5+	c #F68632",
"6+	c #C4D8FC",
"7+	c #0F47B3",
"8+	c #0A34FA",
"9+	c #EAEEF8",
"0+	c #BF4A2B",
"a+	c #AE2E06",
"b+	c #E88457",
"c+	c #1E40EF",
"d+	c #568AFE",
"e+	c #A62A12",
"f+	c #CF562E",
"g+	c #3B63C9",
"h+	c #0E41A6",
"i+	c #EE915D",
"j+	c #527AEA",
"k+	c #EE9E82",
"l+	c #F4D2DB",
"m+	c #6E96FE",
"n+	c #F08652",
"o+	c #4066F2",
"p+	c #C4430B",
"q+	c #DC5604",
"r+	c #0222D2",
"s+	c #F5DEEC",
"t+	c #A0ACE2",
"u+	c #3C5EF8",
"v+	c #5466CC",
"w+	c #7E95F5",
"x+	c #1C3AD6",
"y+	c #C6DAEE",
"z+	c #2646F2",
"A+	c #4256CE",
"B+	c #6E96CA",
"C+	c #0226F6",
"D+	c #BA3603",
"E+	c #C33E04",
"F+	c #D2766E",
"G+	c #BAC2F2",
"                            t ]+                                                                    ",
"                        r.s.w+b.K.                                                                  ",
"                    x.r.s.o+t , 2                                                                   ",
"              m+r. +s.T.X '.M , 2 7+                                                                ",
"           +Y.s.'.'.x x 4+0 2+B+p.}.                                                                ",
"       +s.T.(+Z }+'.4+4+t.f.6+c.4 4 }.                                                              ",
"     +s.(+x 7.} = g+6.g.d+;+> n.=+7+h+                                                              ",
"  ).(+'.x >./ / >.x 0.m+6+y m.@ E }.{                                                               ",
"  j+k.g+k.D.D.S.j+V.G *+*+]+y+*.*.u E.-                               4.P.D+                        ",
"  C & D g+g+#.t G t  +G.c+8+9 y+= | <+^                             ) H.-.E+] i.D+E+                ",
"#.g+D S.N.3+-+]+Y.~.Z.2.c @.w ]+< ' K.M f                           ].n+_ ].++i.] !.$ $ h           ",
"N.$+j+3+f.V. +~.@.a.J [.G+A : u+~ Y p.+ 1.                          |+{+3 ;.!.E+++L :.) h.z.        ",
"l r.3+% u...Z.&.. &.T ( a w+~+.+3+<+7+R.h+                        P D+b+l+z.b X.,.q O.C.C.l+!       ",
"  4+w x+o J . &.&.a.~+w+5 u.y.>+X V 2 h+p.                        # P L z.F.z. .i N l+C.L.^.r       ",
"  y.Q.c [.t+s r+~+W n Z.x+I <.<.v.r.J.7+p.                        z z U.R i l+O.3 [+[+8.h ; ` `     ",
"  y.@.* a 9+v+W C+n : : n <.>+8 8 s.c.p.p.                        P z /.].3.s+s+K S ^.8.h ; ; `     ",
"  W @.v+} t+Q C+C+: a.: W >+>+>+8 d >.2 4                       m /.e+P f+3 s+O.K  .F. .z.i+=.`     ",
"    @.l.A+Q y.<.~+&.a.: y.y.8 .+>+8+T.<+h+                      p+F+7 0+[ K i F+F+{+3 i O.i N n+5+  ",
"    y.>+>+y.<.: a.&.Q.: W c+w+-+u+y.`.D.Y                       P.3.+.A.&+ .q {+i o.L :+L.9.h._ n+  ",
"    >+>+>+C+Q.&.r+r+a.: @.u+F a I.Z.y.'.=+                    $ %+R ,.R i i [ O s+q '+w.w.q.:+:+j   ",
"      >+y.a.r+&.Q.Q.Q.a.Q.`.-+( A ~+~+.+                      ; h h h i+O.O !+6 @+f+m q+q+@+3 ;.)   ",
"      >+W Q.o U [.o &.a.a.n l.l.y.<.C+<.                      k j.; ^+9.d.R !.E+++i.D+!.!.&+s+&+].  ",
"        n : % #+y A+a.a.n C+C+<.<.>+                            k ` ` h.{+L |+'+!.W.o.p |.W.q A.    ",
"        W Q...(./ s Q.W <.<.>+<.                                k ` [+,./+e.E+m L B.F.F+] a+/.]     ",
"        W Q.Q...c n W y.>+>+                                    k j.b+;.0+/.] D+!.X.B.W.] i././.    ",
"          Q.Q.: W C+<.                                            [+n+6 1 W.o.0+U.!.|+++|.U.]       ",
"          @.r+W y.                                                [+n+f+v 3. .o.a+++E+E+|.] D+      ",
"                                                                    B %.1 q i [ i.U.M.O o.] ]       ",
"                                                                        U.v M.e.E+p+@+s+B.v         ",
"                                                                            E+!.$ |+6 O 7 ++        ",
"                                                                                    $.$.|+          ",
"                                                                                                    "};
