/* XPM */
static char * Dice_Ausruest_50_xpm[] = {
"50 32 256 2",
"  	c None",
". 	c #020202",
"+ 	c #5A5A2A",
"@ 	c #DACA32",
"# 	c #95870B",
"$ 	c #060602",
"% 	c #A89C36",
"& 	c #FEFE72",
"* 	c #9A9A86",
"= 	c #F2F26B",
"- 	c #22221A",
"; 	c #BEAE1E",
"> 	c #CAC6A6",
", 	c #6B620F",
"' 	c #363618",
") 	c #E2E272",
"! 	c #918729",
"~ 	c #CEB25D",
"{ 	c #FCFCFA",
"] 	c #746E40",
"^ 	c #C6C278",
"/ 	c #B6AA32",
"( 	c #766E0E",
"_ 	c #46461F",
": 	c #9A8E26",
"< 	c #B89E52",
"[ 	c #CEC670",
"} 	c #AEAA74",
"| 	c #C8BC2C",
"1 	c #D6D66E",
"2 	c #FEFECC",
"3 	c #6E6E32",
"4 	c #464632",
"5 	c #9C9C48",
"6 	c #C6AA56",
"7 	c #B8B276",
"8 	c #8B8652",
"9 	c #B6B296",
"0 	c #DDDBC3",
"a 	c #DEC26A",
"b 	c #9A923A",
"c 	c #C8BC36",
"d 	c #B1AA54",
"e 	c #827A0A",
"f 	c #565636",
"g 	c #A29A57",
"h 	c #D6CE94",
"i 	c #FDFD95",
"j 	c #E6CE7A",
"k 	c #727246",
"l 	c #BAB23E",
"m 	c #CEB672",
"n 	c #BABA55",
"o 	c #9E9232",
"p 	c #867E35",
"q 	c #847C2A",
"r 	c #C6C65C",
"s 	c #9E9216",
"t 	c #B2B24E",
"u 	c #CAC27E",
"v 	c #868642",
"w 	c #E2D642",
"x 	c #CACAB6",
"y 	c #F2F28A",
"z 	c #D2B662",
"A 	c #5A5A32",
"B 	c #525226",
"C 	c #BEB676",
"D 	c #7F7D3E",
"E 	c #C5BD6A",
"F 	c #0A0A06",
"G 	c #BAB686",
"H 	c #EAEA82",
"I 	c #92820E",
"J 	c #DCD888",
"K 	c #B6AE62",
"L 	c #A6945E",
"M 	c #857B21",
"N 	c #42421E",
"O 	c #A1A15E",
"P 	c #D2D28A",
"Q 	c #FEFE82",
"R 	c #62622E",
"S 	c #5E5E36",
"T 	c #C9C390",
"U 	c #A69E3C",
"V 	c #E2D236",
"W 	c #76765E",
"X 	c #E6CA78",
"Y 	c #9A944E",
"Z 	c #7A721E",
"` 	c #C2AA5C",
" .	c #AF964B",
"..	c #B6B696",
"+.	c #2E2E16",
"@.	c #C1A657",
"#.	c #AAA256",
"$.	c #12120E",
"%.	c #928622",
"&.	c #DEC686",
"*.	c #565646",
"=.	c #8D8212",
"-.	c #8E863E",
";.	c #5A5A46",
">.	c #D8D864",
",.	c #D2D2C4",
"'.	c #BEAA76",
").	c #F6F686",
"!.	c #E8DE9E",
"~.	c #DBBE64",
"{.	c #C4C4C2",
"].	c #C6BA46",
"^.	c #7E7606",
"/.	c #C3BE86",
"(.	c #BAB25A",
"_.	c #AAA242",
":.	c #EEE292",
"<.	c #42422E",
"[.	c #AAA682",
"}.	c #928E52",
"|.	c #939149",
"1.	c #B6A26A",
"2.	c #82823E",
"3.	c #CAB262",
"4.	c #A09E6E",
"5.	c #CECAB2",
"6.	c #9A8E12",
"7.	c #9A9464",
"8.	c #BBB366",
"9.	c #C2C2A2",
"0.	c #BABAA6",
"a.	c #C4B41A",
"b.	c #AA8E46",
"c.	c #B0A424",
"d.	c #C2BA7A",
"e.	c #E1C671",
"f.	c #B29A4E",
"g.	c #A7A275",
"h.	c #8E7E0A",
"i.	c #868256",
"j.	c #C9AD5A",
"k.	c #FAFA7C",
"l.	c #AE9E66",
"m.	c #968E26",
"n.	c #827617",
"o.	c #D2CA86",
"p.	c #BEB656",
"q.	c #BEA253",
"r.	c #726A16",
"s.	c #868666",
"t.	c #DAD2A6",
"u.	c #E0CC8E",
"v.	c #BEB642",
"w.	c #F6F67E",
"x.	c #C2BE92",
"y.	c #9E9A6A",
"z.	c #A49C4C",
"A.	c #D6D2AE",
"B.	c #DCDCD2",
"C.	c #A6A65E",
"D.	c #FEFEA6",
"E.	c #D5BA6C",
"F.	c #8E821E",
"G.	c #978D21",
"H.	c #F2E99E",
"I.	c #AEA65E",
"J.	c #CACA7A",
"K.	c #BEB23A",
"L.	c #CECE72",
"M.	c #BEBE57",
"N.	c #1C1A12",
"O.	c #B2AE8C",
"P.	c #8F8731",
"Q.	c #867A0C",
"R.	c #A2941C",
"S.	c #8E8226",
"T.	c #2E2E24",
"U.	c #D9BE6C",
"V.	c #C6BA56",
"W.	c #928E62",
"X.	c #DABE72",
"Y.	c #C2AE66",
"Z.	c #BAA252",
"`.	c #46462E",
" +	c #7A7A4A",
".+	c #B2AA5E",
"++	c #5E5E51",
"@+	c #CEC652",
"#+	c #6A621E",
"$+	c #DEDE82",
"%+	c #6A6A32",
"&+	c #BEBE96",
"*+	c #968E3E",
"=+	c #C6BA1A",
"-+	c #AC9248",
";+	c #887E08",
">+	c #B2B286",
",+	c #B6B652",
"'+	c #363624",
")+	c #C6AA5E",
"!+	c #F6F66F",
"~+	c #CAC69A",
"{+	c #8A8242",
"]+	c #CABA82",
"^+	c #ACA450",
"/+	c #42423C",
"(+	c #AAA46C",
"_+	c #FEFE7B",
":+	c #5A5652",
"<+	c #B6AE7E",
"[+	c #C2BA4E",
"}+	c #EAD282",
"|+	c #EEEE9A",
"1+	c #D2CE9A",
"2+	c #CEC662",
"3+	c #726612",
"4+	c #A49512",
"5+	c #46463E",
"6+	c #5A5A52",
"7+	c #C1BEA6",
"8+	c #FEFE89",
"9+	c #C6B624",
"0+	c #BEBA8D",
"a+	c #C2BE7B",
"b+	c #DAC272",
"c+	c #928616",
"d+	c #82720E",
"e+	c #BEB662",
"f+	c #968A26",
"g+	c #DABA62",
"h+	c #A69E56",
"i+	c #BEBA96",
"j+	c #CAC6A2",
"k+	c #827E4A",
"l+	c #BEB252",
"m+	c #9C922C",
"n+	c #565626",
"o+	c #CAAE61",
"p+	c #81760D",
"q+	c #E1C676",
"r+	c #D5D2B7",
"s+	c #CEB266",
"t+	c #727236",
"u+	c #B6B658",
"v+	c #CAC6B0",
"w+	c #AEAA7E",
"x+	c #9E9E52",
"y+	c #8A7E12",
"z+	c #BAB692",
"A+	c #7A722A",
"B+	c #4A4A22",
"C+	c #EACE7E",
"D+	c #6E6612",
"E+	c #CAAE56",
"F+	c #82823A",
"G+	c #D6BA65",
"                                                                                                    ",
"                                                                  . .                               ",
"                                                                        +.                          ",
"                                                                        '                           ",
"                                                              _ N     ' B+                          ",
"                      F.#.d                                   ++*./+5+;.                            ",
"                Q.d+Q.o K ^+                              :+:+:+:+:+:+6+6+6+                        ",
"        K.R.4+# p+p+f+.+8.U                               6+:+:+6+:+:+:+:+:+++                      ",
"      P a+U d f+=.F.U d.K G.                            A T.`.4 4 4 4 4 <.T.'+M.                    ",
"      t./.7 x d T x.C ~+_.n.,                         = R B n k.8+i i 8+1 B _ n &                   ",
"    9+].l [+[ l+r+r+A.u f+3+,                         = 3 |.v L.D.2 2 y |.|.D M.&                   ",
"    =+a.c./ l (.~+0 0 7 n., ,                         !+3 u+) R 9.{ { * C.w.2.n &                   ",
"    9+].p.e+^ j+> r+0 [.A+D+r.                        !+3 u+8+x+++{.7+s.H 8+2.M.&                   ",
"  2+^ a+/./.0+w+7.g.r+<+ +W.p f+                      = 3 u+Q ).g./+W J 8+_+2.n &                   ",
"  u E C K I.g [.z+7.i+x.7.v+g.f+                      = 3 u+_+Q $+T.k y 8+_+F+M.&                   ",
"u e+C.#.% c.m.9 B.7.(+T K .+g m.                        %+n _+_+O 8 W x+k.& 2.,+                    ",
"  #.v+&+: 4+c+p |.P.Y i+u+/ ; 9+|                       _ n & r ] :.[ f 5 k.F+x+                    ",
"  g v+7+%.I M n.I 6.*+>+a+v.9+@                         N.t 1 D /.H.H.J.n+n t+                      ",
"    v q ^.{+7+} 6.6.S.y.T [+| V                         . _ + >.H.:.!.k.r n++.                      ",
"    r.r.d+-.,.>+c+Q.n.k+z+E c w                         . .     1+5.1+P   F .                       ",
"    p+e ;+=.o m.e p 8 k g.^ @+                          . . . . N.- - $.. . . .                     ",
"    ;+p+e y+=.h.n.9 ,.k+W.0+[                           . . . . . . . . . . . .                     ",
"      p+}.O.P.e ^.y.9 D {+z+                                                                        ",
"      p O.0 Y # c+=.y+                                          j X C+                              ",
"        *+[.: 4+s                                         f.E+g+~.~.a a a a X a ~.                  ",
"        6.R.                                          s+C+< ~ -+b.b.b.b.b.b.b.@.a Z.X               ",
"                                                      e.Z.E+<  . . .-+b.b.b.@.U.o+< X               ",
"                                                    }+j G+Y.j.e.e.b+@.o @.3.q+)+o+X C+              ",
"                                                G+  o+< 6 z @.Z.< @.q.U.X.@. .@.< 3.C+~.            ",
"                                              ~.m L < 6 6 q.b.e.X U.` Z.-+b.< 6 U.X a               ",
"                                              ~.&.E.L 1.Y.o+G+e.E.E.U.q+b+E.U.@.o+~.                ",
"                                                u.u.m '.l.  E.G+6 6 o+a a 3.q.                      "};
