/* XPM */
static char * Dice_trans_xpm[] = {
"50 32 176 2",
"  	c None",
". 	c #020202",
"+ 	c #070707",
"@ 	c #000000",
"# 	c #1E1E1E",
"$ 	c #272727",
"% 	c #181818",
"& 	c #060606",
"* 	c #2B2B2B",
"= 	c #3E3E3E",
"- 	c #363636",
"; 	c #222222",
"> 	c #616161",
", 	c #1C1C1C",
"' 	c #2E2E2E",
") 	c #131313",
"! 	c #010101",
"~ 	c #0C0C0C",
"{ 	c #6B6B6B",
"] 	c #BDBDBD",
"^ 	c #393939",
"/ 	c #BCBCBC",
"( 	c #202020",
"_ 	c #282828",
": 	c #8D8D8D",
"< 	c #1B1B1B",
"[ 	c #6E6E6E",
"} 	c #F8F8F8",
"| 	c #818181",
"1 	c #161616",
"2 	c #494949",
"3 	c #474747",
"4 	c #232323",
"5 	c #929292",
"6 	c #A5A5A5",
"7 	c #737373",
"8 	c #2C2C2C",
"9 	c #7A7A7A",
"0 	c #AFAFAF",
"a 	c #838383",
"b 	c #111111",
"c 	c #353535",
"d 	c #6C6C6C",
"e 	c #484848",
"f 	c #121212",
"g 	c #8C8C8C",
"h 	c #F0F0F0",
"i 	c #787878",
"j 	c #090909",
"k 	c #1F1F1F",
"l 	c #424242",
"m 	c #373737",
"n 	c #1A1A1A",
"o 	c #434343",
"p 	c #3C3C3C",
"q 	c #292929",
"r 	c #444444",
"s 	c #101010",
"t 	c #080808",
"u 	c #0A0A0A",
"v 	c #141414",
"w 	c #343434",
"x 	c #535353",
"y 	c #404040",
"z 	c #050505",
"A 	c #0F0F0F",
"B 	c #171717",
"C 	c #040404",
"D 	c #252525",
"E 	c #333333",
"F 	c #A4A4A4",
"G 	c #4C4C4C",
"H 	c #D8D8D8",
"I 	c #383838",
"J 	c #707070",
"K 	c #ACACAC",
"L 	c #3B3B3B",
"M 	c #C7C7C7",
"N 	c #D2D2D2",
"O 	c #0B0B0B",
"P 	c #C1C1C1",
"Q 	c #DBDBDB",
"R 	c #8E8E8E",
"S 	c #A7A7A7",
"T 	c #DFDFDF",
"U 	c #313131",
"V 	c #323232",
"W 	c #565656",
"X 	c #515151",
"Y 	c #D0D0D0",
"Z 	c #E7E7E7",
"` 	c #D3D3D3",
" .	c #9F9F9F",
"..	c #939393",
"+.	c #898989",
"@.	c #7E7E7E",
"#.	c #191919",
"$.	c #151515",
"%.	c #C5C5C5",
"&.	c #D6D6D6",
"*.	c #E0E0E0",
"=.	c #CBCBCB",
"-.	c #868686",
";.	c #4E4E4E",
">.	c #585858",
",.	c #BFBFBF",
"'.	c #B6B6B6",
").	c #E3E3E3",
"!.	c #E1E1E1",
"~.	c #AAAAAA",
"{.	c #454545",
"].	c #606060",
"^.	c #C8C8C8",
"/.	c #B7B7B7",
"(.	c #ADADAD",
"_.	c #CECECE",
":.	c #CACACA",
"<.	c #909090",
"[.	c #4D4D4D",
"}.	c #414141",
"|.	c #4B4B4B",
"1.	c #464646",
"2.	c #303030",
"3.	c #262626",
"4.	c #B4B4B4",
"5.	c #ABABAB",
"6.	c #9C9C9C",
"7.	c #7D7D7D",
"8.	c #6F6F6F",
"9.	c #2A2A2A",
"0.	c #B1B1B1",
"a.	c #D7D7D7",
"b.	c #A6A6A6",
"c.	c #979797",
"d.	c #777777",
"e.	c #686868",
"f.	c #9A9A9A",
"g.	c #666666",
"h.	c #989898",
"i.	c #AEAEAE",
"j.	c #D4D4D4",
"k.	c #C3C3C3",
"l.	c #A2A2A2",
"m.	c #828282",
"n.	c #727272",
"o.	c #636363",
"p.	c #1D1D1D",
"q.	c #030303",
"r.	c #CCCCCC",
"s.	c #F5F5F5",
"t.	c #D1D1D1",
"u.	c #7F7F7F",
"v.	c #5F5F5F",
"w.	c #3F3F3F",
"x.	c #2F2F2F",
"y.	c #5C5C5C",
"z.	c #C0C0C0",
"A.	c #DDDDDD",
"B.	c #FEFEFE",
"C.	c #EEEEEE",
"D.	c #6D6D6D",
"E.	c #5D5D5D",
"F.	c #3D3D3D",
"G.	c #595959",
"H.	c #BBBBBB",
"I.	c #B0B0B0",
"J.	c #8F8F8F",
"K.	c #5E5E5E",
"L.	c #C2C2C2",
"M.	c #B2B2B2",
"N.	c #A1A1A1",
"O.	c #919191",
"P.	c #9D9D9D",
"Q.	c #767676",
"R.	c #696969",
"S.	c #505050",
"                                                                                                    ",
"                                                                                                    ",
"                                                                                                    ",
"                                                                . + @                               ",
"                                                              @ # $ % @ &                           ",
"                                                            * = - ; > , ' ) !                       ",
"                                                          ~ { ] % ^ / ( _ : < +                     ",
"                                                        ~ [ } | 1 2 / 3 4 5 6 7 ~ #                 ",
"                                                    ~ 8 9 0 a b c 2 d e c f g h i $ ~ j             ",
"                                                  + k l 2 2 m n o 8 1 $ p q b l 2 r ^ n s           ",
"                                                    t , < % u t v * w _ x y z A 1 % B $             ",
"                                                      C v D E q o F G q H 6 I q - p A @             ",
"                                                          j q y J K L q M N 2 3 4 O                 ",
"                                                            f ~ P Q R q S T ^ #                     ",
"                        ~ U ^ c V ' * _ 4 & @                   v G 3 q W 2 C                       ",
"                        X Y Z `  ...+.@.G #.+                     v $.q # j                         ",
"                      W %.&.*.=.5 -.i U % ;.f                       @ @                             ",
"                    >.,.,.'.).!.~.7 m ) {.X A                                                       ",
"                  ].=.^./.(._.:.<.D A 2 [.l ~                                                       ",
"                ; }.|.1.y L c 2.3.v x G }.- u                                                       ",
"                4.Q =./ 5.6.g 7.8.1.&.o - 9.+                                                       ",
"                0.a.M /.b.c.-.d.e.c f.g.h.k z                                                       ",
"                i.j.k.4.l...m.n.o.p.r { (.1 q.                                                      ",
"                (.N P r.s.t.u.8.v.< w.x.4 y.S                                                       ",
"                K t.z.A.B.C.7.D.E.< F.* < G.:.                                                      ",
"                5.Y ,.H.N 0 7.D.E.n p 9.$.C                                                         ",
"                K t.z.I. .J.@.[ K.< F.k +                                                           ",
"                (.` L.M.N.O.| J > < q @                                                             ",
"                g ~.P.<.a Q.R.y.S.u &                                                               ",
"                                                                                                    ",
"                                                                                                    ",
"                                                                                                    "};
