/* XPM */
static char * Dice_Armor_trans_50_xpm[] = {
"50 32 239 2",
"  	c None",
". 	c #FEFEFE",
"+ 	c #FAFAFA",
"@ 	c #EEEEEE",
"# 	c #F2F2F2",
"$ 	c #E2E2E2",
"% 	c #DEDEDE",
"& 	c #D6D6D6",
"* 	c #D2D2D2",
"= 	c #BABABA",
"- 	c #CACACA",
"; 	c #C6C6C6",
"> 	c #F6F6F6",
", 	c #CECECF",
"' 	c #BEBEBE",
") 	c #B6B6B6",
"! 	c #DADADA",
"~ 	c #AEAEAE",
"{ 	c #B2B2B2",
"] 	c #72A6BE",
"^ 	c #E6E6E6",
"/ 	c #C2C2C3",
"( 	c #9E9E9E",
"_ 	c #EAEAEA",
": 	c #2A96B6",
"< 	c #2C8EBC",
"[ 	c #4E9ABA",
"} 	c #80A5BC",
"| 	c #76ACBE",
"1 	c #7F7F7F",
"2 	c #A2A2A2",
"3 	c #868686",
"4 	c #9A9A9A",
"5 	c #2A8ECE",
"6 	c #2686C2",
"7 	c #2684BA",
"8 	c #3890C0",
"9 	c #7AA2CE",
"0 	c #86AABB",
"a 	c #5EA2C2",
"b 	c #929292",
"c 	c #767676",
"d 	c #8E8E8E",
"e 	c #A6A6A6",
"f 	c #8CB2D6",
"g 	c #5A9AD2",
"h 	c #3A8ECC",
"i 	c #4289D2",
"j 	c #247EC1",
"k 	c #2782C1",
"l 	c #3482B6",
"m 	c #5892D0",
"n 	c #95AECB",
"o 	c #81A2CD",
"p 	c #4697BD",
"q 	c #AAAAAA",
"r 	c #969696",
"s 	c #8A8A8A",
"t 	c #9EBAE6",
"u 	c #C8C7DC",
"v 	c #86A7C4",
"w 	c #96AEC2",
"x 	c #8BABC3",
"y 	c #428AC6",
"z 	c #6498BE",
"A 	c #5692B2",
"B 	c #9EB2CE",
"C 	c #6B9CC5",
"D 	c #7EA6D8",
"E 	c #B2BADA",
"F 	c #BABEDA",
"G 	c #A4B5D0",
"H 	c #7FA6C9",
"I 	c #4E8EBA",
"J 	c #2686A6",
"K 	c #2696A6",
"L 	c #F1A850",
"M 	c #FAA642",
"N 	c #D6863E",
"O 	c #D68A3E",
"P 	c #CC863C",
"Q 	c #CAAA8A",
"R 	c #BEAE9E",
"S 	c #4296E6",
"T 	c #4A86DA",
"U 	c #4A8AE2",
"V 	c #729AD6",
"W 	c #6C9AD2",
"X 	c #8BABCD",
"Y 	c #C3C2DC",
"Z 	c #318FAB",
"` 	c #EE9642",
" .	c #DE8A3A",
"..	c #E0862C",
"+.	c #EF9031",
"@.	c #FA9A32",
"#.	c #E38B33",
"$.	c #D07A2A",
"%.	c #C68A54",
"&.	c #B2A696",
"*.	c #5094DE",
"=.	c #468EDE",
"-.	c #528EDC",
";.	c #AAB8CE",
">.	c #DACEEA",
",.	c #7AA2BE",
"'.	c #3A8AAA",
").	c #2686A2",
"!.	c #CE8A3E",
"~.	c #AA7235",
"{.	c #A26E32",
"].	c #A27236",
"^.	c #C68136",
"/.	c #BE762E",
"(.	c #C27226",
"_.	c #DF822A",
":.	c #C97A2E",
"<.	c #AE8E72",
"[.	c #669ED6",
"}.	c #92AACA",
"|.	c #B0BAD0",
"1.	c #C8C6D2",
"2.	c #76A2AE",
"3.	c #428E9E",
"4.	c #2A86AE",
"5.	c #D19142",
"6.	c #E49C48",
"7.	c #FCCA5C",
"8.	c #FEC25B",
"9.	c #F0A64A",
"0.	c #D68E44",
"a.	c #B66D29",
"b.	c #BE6E26",
"c.	c #A67A56",
"d.	c #9BB2C7",
"e.	c #95AFD5",
"f.	c #8EAAAE",
"g.	c #6E9EAA",
"h.	c #B2BECA",
"i.	c #669EAE",
"j.	c #FEB64A",
"k.	c #FED26A",
"l.	c #B87A38",
"m.	c #AE7636",
"n.	c #F2C256",
"o.	c #FEE26A",
"p.	c #FEFA72",
"q.	c #FEEE6A",
"r.	c #F8B256",
"s.	c #EDA24A",
"t.	c #C08038",
"u.	c #729EBA",
"v.	c #6A9AA6",
"w.	c #7EA2AA",
"x.	c #B0BAC6",
"y.	c #94B0BA",
"z.	c #F6BA72",
"A.	c #EEB266",
"B.	c #A66E32",
"C.	c #E2AA4E",
"D.	c #DC9244",
"E.	c #BA7E3A",
"F.	c #92AEBE",
"G.	c #3A82D6",
"H.	c #4A8AAE",
"I.	c #5F97B2",
"J.	c #79A3C2",
"K.	c #5896C8",
"L.	c #FAAA56",
"M.	c #E69E57",
"N.	c #FADA96",
"O.	c #EFAA63",
"P.	c #DE9644",
"Q.	c #B2722E",
"R.	c #B27736",
"S.	c #D2CEDA",
"T.	c #2E7EC2",
"U.	c #287AD2",
"V.	c #2A7DC2",
"W.	c #5A93BB",
"X.	c #3F8AB8",
"Y.	c #62A6DE",
"Z.	c #D27E2E",
"`.	c #F6B676",
" +	c #E6A24A",
".+	c #9BB3BF",
"++	c #6E9EB6",
"@+	c #A6B6C6",
"#+	c #669EE6",
"$+	c #D67E2A",
"%+	c #D68E4E",
"&+	c #DEA266",
"*+	c #DA8632",
"=+	c #96662E",
"-+	c #A26A32",
";+	c #569EAE",
">+	c #5292AE",
",+	c #257ABA",
"'+	c #729ECA",
")+	c #5A96DC",
"!+	c #6EA2EA",
"~+	c #BA762A",
"{+	c #96622E",
"]+	c #8E5E2B",
"^+	c #9A662E",
"/+	c #D6D2DE",
"(+	c #2A7EB7",
"_+	c #428AA6",
":+	c #DD8E40",
"<+	c #AE6622",
"[+	c #A26020",
"}+	c #EAA65E",
"|+	c #E6B27E",
"1+	c #FEB236",
"2+	c #FEBA56",
"3+	c #92622E",
"4+	c #247AC3",
"5+	c #337FCD",
"6+	c #5A9A9A",
"7+	c #9CB0D2",
"8+	c #EA8F31",
"9+	c #A66222",
"0+	c #9E6A32",
"a+	c #8A5B29",
"b+	c #85592A",
"c+	c #A67233",
"d+	c #C6CAD6",
"e+	c #BAC0CE",
"f+	c #CB7F32",
"g+	c #7AAAAE",
"h+	c #AE7236",
"i+	c #5E9A9E",
"j+	c #428EBE",
"k+	c #4EA2AA",
"l+	c #2E8AD6",
"m+	c #92561E",
"n+	c #3A9ACA",
"o+	c #469ECA",
"p+	c #9A6A30",
"                                                                                                    ",
"                                                                      . . . . . . .                 ",
"                                                                . . . . + @ . . . . . .             ",
"                                                              . . # $ % $ & @ % # + + . .           ",
"                                                          . . + @ @ * = * & - = ; ; $ . . .         ",
"                                                        . + > , ' # & ) = = ) = * * - ! $ . .       ",
"                                                    . . . & , % ' - * ; = ~ { - & ; ' , & . .       ",
"                        ]                         . . $ ^ / ( ( ; / , ~ = { { ) { ) { ~ / _ . .     ",
"                  : < [ } |                     . _ $ & ' / ~ 1 2 { ' 3 ( 2 ( 4 ; % * * & _ . .     ",
"            5 6 6 7 8 9 0 a                   . _ { ~ { - , / ' { ( ( b b c d e { = { { ; = ! .     ",
"      f g h i j k l m n o p                 . . + @ # ^ ) e ! = ~ q e r b 1 1 d s q - ; = 2 % .     ",
"    t u v w x y z A v B C 8                 .           > $ ; = q e e e r ( 1 b 3 r { * * & % . .   ",
"    D E o F G H u G E B I J K                             L M N O P Q R ~ ~ { ~ 2 4 b ) , ! $ . .   ",
"  S T U T V W X u Y Y x 8 J Z                             `  ...+.@.#.$.%.&.= { q q ( 3 ~ - _ . .   ",
"  *.=.-.m V o ;.Y >.Y ,.'.).<                         !.~.{.].^./.(.$._._.:.<.2 { b 2 4 b = ! + .   ",
"  [.V o }.B |.|.|.1.Y 2.3.3.4.                      P 5.5.6.7.8.9.0.O a.b._.$.c./ = 4 2 e ) _ .     ",
"d.e.n B B w w f.2.x Y v g.h.i.p                 j.k.+.l.m.!.n.o.p.q.r.s.t.a.$.%.% > - 4 = { , .     ",
"t }.}.v u.V v./ h.w.x.y.0 1.0 p                 8.z.A.:.B.~.6.8.7.C.s.s.D.E.a.      # = ) / % .     ",
"F.} f.z T G.H.1.h.I.w ;.J.z K.h                 L.M.N.O.P.Q.R.9.L P.P.s.6.P l.        @ ) ) > .     ",
"] B S.u.T.U.V.W.I X.} ;.o K.=.*.Y.              Z.N  .`.L #.^.l. +r.s.r.5.~.B.m.      + & { # .     ",
"  .+1.u.V.l H.T.U.G.++@+n W -.#+                $+s.%+D.O &+*+P l.5.t.l.{.=+-+R.        _ = % .     ",
"  ;+>+l ,+x ; I.U.T.A y.B '+)+!+              $+ .$.b.O.M.&+0.#.O ^.~+~.{+]+^+~.        . - % .     ",
"  Z j ,+,+.+/+z U.(+_+w.G v W                 ..:+<+[+  ` }+6.|+ .1+2+*+~.{+3+          + & > .     ",
"    (+4+4+l I 5+(+I.g.6+d.7+D                 8+Q.9+      +.O.6.O +.+.^.0+a+b+c+          $ % .     ",
"    k ,+T.U.4+4+I d+e+6+0 G f                 8+-+          f+R.:.*+Q.=+=+b+b+=+          @ % .     ",
"    < X.F.} 4.j X.@+y.>+g+h.                  $.^+          m.B.    m.h+m.~.B.B.          # ! @     ",
"      i+S.Y X.j k j+p k+                      (.a+          m.B.      ^+=+]+~.0+m.        . % @     ",
"      p 0 H h l+l+                            <+m+          {.~.        {+0+B.m.-+0+        @ # .   ",
"      n+8 o+                                  9+m+        B.B.{.          ^+{+c+^+]+3+        . .   ",
"                                              <+m+    l.p+^+R.{+            a+]+b+b+b+=+        .   ",
"                                                      -+0+{.~.3+                  3+3+{+-+          ",
"                                                        p+0+{+                                      "};
