/* XPM */
static char * Dice_Armor_trans_50_xpm[] = {
"50 32 256 2",
"  	c None",
". 	c #32323A",
"+ 	c #257ABA",
"@ 	c #4E8EBA",
"# 	c #C6BA6E",
"$ 	c #4E96A6",
"% 	c #76A2A6",
"& 	c #A92D43",
"* 	c #414249",
"= 	c #8E92A2",
"- 	c #8AAAB6",
"; 	c #923E52",
"> 	c #AA7672",
", 	c #53565F",
"' 	c #DADEF2",
") 	c #3A3A3E",
"! 	c #737682",
"~ 	c #A2A2B5",
"{ 	c #B6627A",
"] 	c #7E828E",
"^ 	c #CCD4DE",
"/ 	c #2894A6",
"( 	c #5A5E66",
"_ 	c #CEBE72",
": 	c #448CA2",
"< 	c #9EBAE6",
"[ 	c #8E3242",
"} 	c #C2BA7E",
"| 	c #8EAEBA",
"1 	c #C2B676",
"2 	c #62666F",
"3 	c #B24E62",
"4 	c #308EAA",
"5 	c #4E96DE",
"6 	c #CAC29A",
"7 	c #DE7A66",
"8 	c #868A99",
"9 	c #B2AE8A",
"0 	c #9A4E62",
"a 	c #3E8AB6",
"b 	c #6E9AD2",
"c 	c #6E727D",
"d 	c #3A8AAA",
"e 	c #CACED6",
"f 	c #4A8AAE",
"g 	c #B04056",
"h 	c #825666",
"i 	c #7EA2AA",
"j 	c #3292AE",
"k 	c #6A9AA6",
"l 	c #9A9EAF",
"m 	c #AAAEC1",
"n 	c #9E5262",
"o 	c #247AC3",
"p 	c #BEC2CA",
"q 	c #7A6A7A",
"r 	c #A6B6C6",
"s 	c #969AAB",
"t 	c #AABAD2",
"u 	c #925A6E",
"v 	c #92AEBD",
"w 	c #5292AE",
"x 	c #428AC6",
"y 	c #C29E8A",
"z 	c #7A7E8A",
"A 	c #8EAAAE",
"B 	c #2C8EBC",
"C 	c #699BD3",
"D 	c #666A75",
"E 	c #4EA2AA",
"F 	c #2686C2",
"G 	c #7AAAAE",
"H 	c #484A52",
"I 	c #AAB6CA",
"J 	c #4296E6",
"K 	c #C6CAD6",
"L 	c #95AFD5",
"M 	c #B6BACE",
"N 	c #337FCD",
"O 	c #988898",
"P 	c #62A6DE",
"Q 	c #729AD6",
"R 	c #927286",
"S 	c #2686A2",
"T 	c #3A92C6",
"U 	c #F2F2FE",
"V 	c #6E9EAA",
"W 	c #528EDC",
"X 	c #5F97B2",
"Y 	c #A6AABD",
"Z 	c #807886",
"` 	c #8E8A9A",
" .	c #AA3A52",
"..	c #80A5BC",
"+.	c #828692",
"@.	c #D2CEDA",
"#.	c #3A82D6",
"$.	c #CAC6D6",
"%.	c #A2384C",
"&.	c #9296A6",
"*.	c #92AECE",
"=.	c #665662",
"-.	c #6E9EB6",
";.	c #669EAE",
">.	c #368EBA",
",.	c #DADAE2",
"'.	c #3482B6",
").	c #8A8E9D",
"!.	c #B9BED1",
"~.	c #287AD2",
"{.	c #76A2AE",
"].	c #C2C6DA",
"^.	c #CA768E",
"/.	c #4898B6",
"(.	c #569EAE",
"_.	c #B22F47",
":.	c #9A2A3E",
"<.	c #B63E56",
"[.	c #9EA2B3",
"}.	c #2782C1",
"|.	c #A67286",
"1.	c #A26472",
"2.	c #4989E1",
"3.	c #287EB6",
"4.	c #AE5E76",
"5.	c #A2B2D6",
"6.	c #8AAEBE",
"7.	c #7A7989",
"8.	c #2E7EC2",
"9.	c #7EA5C9",
"0.	c #6E6A76",
"a.	c #3E8AD2",
"b.	c #D6D2DE",
"c.	c #A6869A",
"d.	c #2686A6",
"e.	c #96B2BA",
"f.	c #90AAC9",
"g.	c #8AAACC",
"h.	c #7AA2CE",
"i.	c #4E92BE",
"j.	c #5892D0",
"k.	c #729EBA",
"l.	c #BEC0D0",
"m.	c #689AC2",
"n.	c #767A87",
"o.	c #4F525A",
"p.	c #B0BAD8",
"q.	c #6A6E79",
"r.	c #946474",
"s.	c #5B93BB",
"t.	c #8AAECA",
"u.	c #2A7DC2",
"v.	c #6EA2EA",
"w.	c #5C9A9C",
"x.	c #3E8E9E",
"y.	c #62626E",
"z.	c #AEB2C5",
"A.	c #2A8ECE",
"B.	c #5EA2C2",
"C.	c #96AECE",
"D.	c #72A6BE",
"E.	c #2A86AE",
"F.	c #3A89BD",
"G.	c #9AB6BE",
"H.	c #85A7C5",
"I.	c #669EE6",
"J.	c #4797C1",
"K.	c #5696CA",
"L.	c #86AABB",
"M.	c #2E8AD6",
"N.	c #267CCE",
"O.	c #5898D8",
"P.	c #BEC2D7",
"Q.	c #96AEC6",
"R.	c #A2A6B8",
"S.	c #5A5A66",
"T.	c #B6364E",
"U.	c #529ABE",
"V.	c #E2E6F2",
"W.	c #828292",
"X.	c #5E626A",
"Y.	c #79A2C0",
"Z.	c #469ECA",
"`.	c #BE465E",
" +	c #D6DAEA",
".+	c #9CB0D2",
"++	c #C6C2DE",
"@+	c #3A8ECC",
"#+	c #AEB6C8",
"$+	c #9AB2BE",
"%+	c #72727F",
"&+	c #7E7E8D",
"*+	c #B1BACB",
"=+	c #C23E4E",
"-+	c #C6C6D9",
";+	c #666672",
">+	c #8A8696",
",+	c #363A3E",
"'+	c #247EC1",
")+	c #928E9E",
"!+	c #3A9ACA",
"~+	c #468EDE",
"{+	c #2A96B6",
"]+	c #428CBE",
"^+	c #76ACBE",
"/+	c #DACEEA",
"(+	c #BAC2D2",
"_+	c #E2E2F2",
":+	c #6A6A76",
"<+	c #CCD2E8",
"[+	c #8A8A9A",
"}+	c #9CB2C6",
"|+	c #6296BE",
"1+	c #5292DE",
"2+	c #C6CEE2",
"3+	c #565A62",
"4+	c #BA324A",
"5+	c #9EB2CE",
"6+	c #C2C2DC",
"7+	c #AEBAD2",
"8+	c #CACADE",
"9+	c #A5B6CF",
"0+	c #7EA6DA",
"a+	c #729ECA",
"b+	c #5A96C6",
"c+	c #4B4E56",
"d+	c #A02E42",
"e+	c #81A3D1",
"f+	c #2E86BA",
"g+	c #5692B6",
"h+	c #BABEDA",
"i+	c #5E5E6A",
"j+	c #DBE2F2",
"k+	c #AAAABE",
"l+	c #4488D2",
"m+	c #6E9AC2",
"n+	c #8CB2D6",
"o+	c #2684BA",
"p+	c #828696",
"q+	c #CACEE1",
"r+	c #AE2E46",
"s+	c #AEAEC2",
"t+	c #826A76",
"u+	c #9696A8",
"v+	c #AE6E86",
"w+	c #2E7EBA",
"x+	c #7AA6C2",
"y+	c #5E96DA",
"z+	c #A6A6BA",
"A+	c #B2B6C9",
"B+	c #C4CADE",
"C+	c #8E8E9E",
"D+	c #6E6E7B",
"E+	c #6A9EC6",
"F+	c #B2BECA",
"G+	c #7E8292",
"                                                    Y M ' ].].                A+R.A+A+              ",
"                                                    q+j+M  +B+              ' (+Y M ' ].            ",
"                                                  M z.P.2+-+R.m B+        (+~ m ^ U !.].*+          ",
"                                                &.A+z.Y [.= p+l M m M z.z.A+).>+k+(+q+P.s+s         ",
"                                              #+2+_+Y [++.8 s = C+&.l l p+z &.= ).= k+q+q+P.&.      ",
"                                          +.m k+_+ +z+] n.z ] A+!.k+l ~ k+A+8 ] z >+s !.q+[.s 8     ",
"                                          q.l R.M [.G+z G+D+G+P.2+m R.R.z.#+[.n.z G+8 ).#+[.s &+:+  ",
"                        D.              ! W.&+).[.+.c i+S.X.%+[.z+= = 8 s ).).= p+, ( z C+A+).] ] z ",
"                  {+B U...^+            s ^ 6+z.= ] ( c+* c+D 8 = 8 = s 8 +.u+Y ! o.o.X.+.k+].z.Y &.",
"            A.F F o+@+Y.L.B.            = ).&.M m ;+X.* . H %+l z.&.n.n.[+z+z.R.q.o.o.2 +.A+[.C+[.  ",
"      n+O.@+l+'+}.}.b+C.h.J.              ! ;+D = ! o.) ,+2 &.>+7.[+G+z +.G+= l 8 S.* D+&.3+2 !     ",
"    < -+- Q.f.x m.s.H.5.E+>.                  i+s %+    H X.l [.p+R.W.z >+7.W.A++.i+  ! = :+c       ",
"    0+p.h.!.5.H.$.5.7+5+i.E./                   [.z     c+, G+l 7+l z z R.l m l n.2     l           ",
"  J 2.2.2.b b g.-+6+6+f.d S /                           , z Y ).m >+! c &.[.l s n.:+                ",
"  5 2.W j.a+e+5.++/+6+Y.d S 4                           H q.m z.[.D c q.! Y R.m ! ,                 ",
"  C a+e+f.}+7+!.*+-+6+{.x.d 4                         ( c+3+z R.G+D+2 D c &+s ).X.(                 ",
"L L C.5+.+.+v | i v 6+H.V t ;./.                      o., ! W.).! S.2 i+X.c C+&+! 2                 ",
"9+C.f.H.Y.m+k !.F+k.*+$+- -+L.J.                      =.;+G+p+G+q.;+;+q.( D 8 p+7.:+                ",
"g...A s.l+#.@ ].!.X v #+Y.m.K.@+                      %.t+W.C+%+D q.q.D+;+;+8 ).` u d+              ",
"^+5+@.Y.8.~.w+g+g+f ..7+h.j.~+1+P                     _.d+r.>+z D+:+D+q.2 n.= Z 0 d+4+              ",
"  $+++k.+ '.f 3.o #.-.I *.m.1+I.                      `.r+d+; R G+G+G+7.c 7.h [ d+4+^.              ",
"  (.w w++ A $.s.~.u.g+e.5.h.j.v.                      q { <.& d+3 y 1 } 1. .:.& `.r.7.              ",
"  j 3.+ + $+b.|+u.+ : % 5.g.C                         n.8 c.4.& 4+7 # _ =+_. .v+` 0.%+              ",
"    3.o o F.@ 8.w+X k w.$+L 0+                        D+).[.= O 1.|.6 9 0 |.)+[.).2                 ",
"    }.+ + 8.'+o @ K (+w.- 5+n+                        c p+s C+).C+).[.s ).).l A+R.+.                ",
"    B a Q.x+'.'+a r e.w G F+                          7.2 = 8 C+&.] c %+).[+[.].[.C+!.              ",
"      ;.8+P.a N.}.a /.E                               l 8 l &.] C+&.= &.= >+).Y Y M q+              ",
"      /.g.^+@+A.A.                                    m ].K [.&.2 +.l +.n.q.&.l !.P.z.              ",
"      !+T !+                                          A+^ q+M &.8 ).! c p+p+= s R.<+#+              ",
"                                                      z.A+z.].R.).q.] = +.p+z.A+z.<+                ",
"                                                          !.*+P.z+).[.m [.!.'  +K                   ",
"                                                                                                    "};
