/* XPM */
static char * Dice_M_trans_50_xpm[] = {
"50 32 391 2",
"  	c None",
". 	c #EFE81F",
"+ 	c #5A4F09",
"@ 	c #E2CF19",
"# 	c #5E530A",
"$ 	c #DAC619",
"% 	c #574C09",
"& 	c #D9BD07",
"* 	c #F0DC0A",
"= 	c #F2DD0A",
"- 	c #BAAB06",
"; 	c #A18E05",
"> 	c #DBFC5F",
", 	c #A7DB90",
"' 	c #9FAF36",
") 	c #0E0E0E",
"! 	c #383838",
"~ 	c #3E3E3E",
"{ 	c #3A3A3A",
"] 	c #363636",
"^ 	c #323232",
"/ 	c #2F2F2F",
"( 	c #2C2C2C",
"_ 	c #242424",
": 	c #060606",
"< 	c #000000",
"[ 	c #70C6ED",
"} 	c #24425C",
"| 	c #070707",
"1 	c #606060",
"2 	c #D8D8D8",
"3 	c #E9E9E9",
"4 	c #D1D1D1",
"5 	c #9E9E9E",
"6 	c #919191",
"7 	c #878787",
"8 	c #7B7B7B",
"9 	c #414141",
"0 	c #1D1D1D",
"a 	c #050505",
"b 	c #7FE1F1",
"c 	c #294D6A",
"d 	c #111111",
"e 	c #636363",
"f 	c #C6C6C6",
"g 	c #D6D6D6",
"h 	c #DCDCDC",
"i 	c #C4C4C4",
"j 	c #858585",
"k 	c #737373",
"l 	c #2B2B2B",
"m 	c #1C1C1C",
"n 	c #505050",
"o 	c #0B0B0B",
"p 	c #78D2F1",
"q 	c #25445F",
"r 	c #7B6406",
"s 	c #7F6707",
"t 	c #686868",
"u 	c #C2C2C2",
"v 	c #BEBEBE",
"w 	c #B9B9B9",
"x 	c #E6E6E6",
"y 	c #E4E4E4",
"z 	c #A6A6A6",
"A 	c #6D6D6D",
"B 	c #2E2E2E",
"C 	c #181818",
"D 	c #494949",
"E 	c #090909",
"F 	c #83E9F2",
"G 	c #294B68",
"H 	c #6B5704",
"I 	c #6D5804",
"J 	c #796206",
"K 	c #755F05",
"L 	c #6B6B6B",
"M 	c #D0D0D0",
"N 	c #B6B6B6",
"O 	c #AEAEAE",
"P 	c #CACACA",
"Q 	c #888888",
"R 	c #151515",
"S 	c #4A4A4A",
"T 	c #4C4C4C",
"U 	c #424242",
"V 	c #080808",
"W 	c #62809B",
"X 	c #6C8FAC",
"Y 	c #6A8DA9",
"Z 	c #80EBF2",
"` 	c #2A4E6C",
" .	c #735D05",
"..	c #6F5904",
"+.	c #6C5704",
"@.	c #464646",
"#.	c #454545",
"$.	c #3F3F3F",
"%.	c #343434",
"&.	c #262626",
"*.	c #595959",
"=.	c #4B4B4B",
"-.	c #404040",
";.	c #353535",
">.	c #A2D5F6",
",.	c #94C3E8",
"'.	c #7BA2C3",
").	c #6A8DA0",
"!.	c #75B0B6",
"~.	c #47584B",
"{.	c #5B4A04",
"].	c #5C4B04",
"^.	c #604E04",
"/.	c #614F04",
"(.	c #5F4D04",
"_.	c #DBDBDB",
":.	c #BBBBBB",
"<.	c #AAAAAA",
"[.	c #9B9B9B",
"}.	c #8B8B8B",
"|.	c #7C7C7C",
"1.	c #6E6E6E",
"2.	c #4E4E4E",
"3.	c #292929",
"4.	c #A4D7FF",
"5.	c #9BCBF0",
"6.	c #ACE2F9",
"7.	c #9FD0F6",
"8.	c #87B1D5",
"9.	c #6A91A1",
"0.	c #7C772B",
"a.	c #917704",
"b.	c #6E5A04",
"c.	c #6E5905",
"d.	c #635004",
"e.	c #614E03",
"f.	c #655103",
"g.	c #695503",
"h.	c #C5C5C5",
"i.	c #A5A5A5",
"j.	c #959595",
"k.	c #757575",
"l.	c #676767",
"m.	c #8D8D8D",
"n.	c #707070",
"o.	c #969696",
"p.	c #1E1E1E",
"q.	c #030303",
"r.	c #AFDEF7",
"s.	c #E0F7FD",
"t.	c #C4DDEB",
"u.	c #7A9DBA",
"v.	c #4E86AC",
"w.	c #625611",
"x.	c #8E7504",
"y.	c #957A06",
"z.	c #776104",
"A.	c #6C5703",
"B.	c #BCBCBC",
"C.	c #D3D3D3",
"D.	c #B3B3B3",
"E.	c #A1A1A1",
"F.	c #929292",
"G.	c #828282",
"H.	c #717171",
"I.	c #626262",
"J.	c #727272",
"K.	c #9F9F9F",
"L.	c #020202",
"M.	c #EFFFFF",
"N.	c #CCDBE7",
"O.	c #5EAAD7",
"P.	c #5E5A25",
"Q.	c #655203",
"R.	c #675403",
"S.	c #705C03",
"T.	c #806804",
"U.	c #776005",
"V.	c #6B5603",
"W.	c #776006",
"X.	c #7A6306",
"Y.	c #BABABA",
"Z.	c #BFBFBF",
"`.	c #FAFAFA",
" +	c #CDCDCD",
".+	c #7E7E7E",
"++	c #5E5E5E",
"@+	c #1A1A1A",
"#+	c #3D3D3D",
"$+	c #2D2D2D",
"%+	c #6A6A6A",
"&+	c #B1B1B1",
"*+	c #B6E2E2",
"=+	c #7BA1BF",
"-+	c #83BDD9",
";+	c #BFC77C",
">+	c #BCA934",
",+	c #9D8A24",
"'+	c #78620B",
")+	c #635103",
"!+	c #715D04",
"~+	c #7C6605",
"{+	c #7A6304",
"]+	c #6A5504",
"^+	c #715B04",
"/+	c #E0E0E0",
"(+	c #FEFEFE",
"_+	c #7D7D7D",
":+	c #6C6C6C",
"<+	c #5C5C5C",
"[+	c #191919",
"}+	c #3B3B3B",
"|+	c #2A2A2A",
"1+	c #FFFFE4",
"2+	c #F6FACD",
"3+	c #DEEAAB",
"4+	c #9ABABB",
"5+	c #A0B5A4",
"6+	c #C8CC82",
"7+	c #F0DE5F",
"8+	c #D0B443",
"9+	c #897110",
"0+	c #6F5B05",
"a+	c #6B5803",
"b+	c #7F6904",
"c+	c #735D04",
"d+	c #695403",
"e+	c #CFCFCF",
"f+	c #A8A8A8",
"g+	c #121212",
"h+	c #FFFF57",
"i+	c #FFFFB4",
"j+	c #FFFF88",
"k+	c #FEF04D",
"l+	c #E9DC4A",
"m+	c #B7A23F",
"n+	c #CBB141",
"o+	c #CFB23B",
"p+	c #AF9427",
"q+	c #6F5A06",
"r+	c #685404",
"s+	c #6F5B04",
"t+	c #746004",
"u+	c #755F03",
"v+	c #725C05",
"w+	c #AFAFAF",
"x+	c #8E8E8E",
"y+	c #5D5D5D",
"z+	c #E5D247",
"A+	c #FAF566",
"B+	c #F5E974",
"C+	c #F7E862",
"D+	c #D1B33C",
"E+	c #D5B642",
"F+	c #E2BF59",
"G+	c #AD8736",
"H+	c #805C2B",
"I+	c #7E5F2C",
"J+	c #735617",
"K+	c #6A5409",
"L+	c #645103",
"M+	c #665403",
"N+	c #7E6704",
"O+	c #806906",
"P+	c #D2D2D2",
"Q+	c #C1C1C1",
"R+	c #A0A0A0",
"S+	c #909090",
"T+	c #808080",
"U+	c #6F6F6F",
"V+	c #FFFCAB",
"W+	c #ECD446",
"X+	c #FBF46D",
"Y+	c #EEDC4F",
"Z+	c #E0C73B",
"`+	c #F1DB40",
" @	c #C7A933",
".@	c #C6A43C",
"+@	c #BF954A",
"@@	c #9C6856",
"#@	c #894E67",
"$@	c #8C4659",
"%@	c #933A3F",
"&@	c #7B521A",
"*@	c #735C07",
"=@	c #705A04",
"-@	c #604E03",
";@	c #6C5903",
">@	c #887004",
",@	c #949494",
"'@	c #575757",
")@	c #040404",
"!@	c #FFFF80",
"~@	c #FFFE9C",
"{@	c #FAEF54",
"]@	c #FEED56",
"^@	c #FDE23F",
"/@	c #D3BA31",
"(@	c #CFB32B",
"_@	c #B99C26",
":@	c #C39F3F",
"<@	c #CF9F69",
"[@	c #AE678D",
"}@	c #B976C4",
"|@	c #C437B8",
"1@	c #D1178C",
"2@	c #A72643",
"3@	c #76490F",
"4@	c #685303",
"5@	c #665203",
"6@	c #625103",
"7@	c #776204",
"8@	c #816A04",
"9@	c #F5E464",
"0@	c #E7D13B",
"a@	c #FCE536",
"b@	c #F9E14D",
"c@	c #FEE346",
"d@	c #E7CD38",
"e@	c #BEA32B",
"f@	c #BD9F29",
"g@	c #C09D40",
"h@	c #C59869",
"i@	c #B9569B",
"j@	c #D87DE2",
"k@	c #CF35CC",
"l@	c #DD13B3",
"m@	c #C90950",
"n@	c #A71D2B",
"o@	c #76470A",
"p@	c #685403",
"q@	c #EFD158",
"r@	c #EFD259",
"s@	c #E4C64E",
"t@	c #D1B022",
"u@	c #FEE941",
"v@	c #F7E95F",
"w@	c #F1E368",
"x@	c #FDF860",
"y@	c #E1C843",
"z@	c #CEAD47",
"A@	c #DA8363",
"B@	c #E51C91",
"C@	c #DD1CA2",
"D@	c #DB16BD",
"E@	c #E60CAA",
"F@	c #D70558",
"G@	c #C30538",
"H@	c #B3162B",
"I@	c #694F05",
"J@	c #ECCE55",
"K@	c #B1941E",
"L@	c #FBDD43",
"M@	c #EBCA29",
"N@	c #ECD948",
"O@	c #FCF869",
"P@	c #EADE5F",
"Q@	c #D0B141",
"R@	c #D35650",
"S@	c #F11971",
"T@	c #EE0C6D",
"U@	c #D90C6F",
"V@	c #F2076A",
"W@	c #DE044A",
"X@	c #E60243",
"Y@	c #ED0244",
"Z@	c #DABC44",
"`@	c #F7E555",
" #	c #DFC838",
".#	c #DBC333",
"+#	c #D4BD30",
"@#	c #F1D339",
"##	c #D5753E",
"$#	c #EA124E",
"%#	c #E5054B",
"&#	c #E12036",
"*#	c #E3272E",
"=#	c #E10D35",
"-#	c #D10239",
";#	c #C20437",
">#	c #BD9F2A",
",#	c #EACE38",
"'#	c #CDB328",
")#	c #D3B626",
"!#	c #CBB029",
"~#	c #B2951F",
"{#	c #B89B26",
"]#	c #E2013E",
"^#	c #E10C36",
"/#	c #E21830",
"(#	c #E0013A",
"                                                                                                    ",
"                                                                                                    ",
"                                                                . +                                 ",
"                                                                @ #                                 ",
"                                                                $ %                                 ",
"                                                            & * = - ;                               ",
"                                                              > , '                                 ",
"              ) ! ~ { ] ^ / ( _ : <                             [ }                                 ",
"            | 1 2 3 4 5 6 7 8 9 0 a                             b c                                 ",
"          d e f g h i 6 j k l m n o                             p q       r   s                     ",
"          t u v w x y z A B C D n E                             F G   s H I J K s                   ",
"        L M f N O P i Q m R S T U V                     W X Y   Z `      . ...+.                    ",
"      ( @.S #.$.{ %./ &.C *.=.-.;.:                     >.,.'.).!.~.{.].^./.(.(.                    ",
"      u _.P :.<.[.}.|.1.2.M U ;.3.a                 4.5.6.7.8.9.0.a.b.c.d.e.e.f.g.                  ",
"      v g h.N i.j.j k.l.] m.n.o.p.q.                r.s.t.u.    v.w.x.y.z.g.A. .I I                 ",
"      B.C.u D.E.F.G.H.I.m U J.K.R L.                    M.N.    O.P.Q.R.S.T.U.V.K W.X.              ",
"      Y.4 Z.4 `. +.+A ++@+#+$+0 %+&+                      *+=+-+;+>+,+'+)+!+~+{+]+..^++.            ",
"      w M v /+(+y _+:+<+[+}+|+@+++P                     1+2+3+4+5+6+7+8+9+I 0+a+b+c+d+I             ",
"      w e+v :.e+f+|.:+<+[+}+3.g+                        h+i+j+k+l+m+n+o+p+q+V.r+s+t+u+v+X.          ",
"      Y.M Z.w+5 x+_+A y+@+}+m :                           z+A+B+C+D+E+F+G+H+I+J+K+L+M+N+O+          ",
"      :.P+Q+&+R+S+T+U+1 [+_                           V+W+X+Y+Z+`+ @.@+@@@#@$@%@&@*@=@-@;@>@        ",
"      S+E.,@Q |.n.e '@T a )@                        !@~@{@]@^@/@(@_@:@<@[@}@|@1@2@3@4@5@f.6@7@8@    ",
"                                                    9@0@a@b@c@d@e@f@g@h@i@j@k@l@m@n@o@5@p@          ",
"                                                q@r@s@t@u@v@w@x@y@D+z@A@B@C@D@E@F@G@H@I@            ",
"                                                q@J@K@  L@M@N@O@P@D+Q@R@S@T@U@V@W@X@Y@              ",
"                                                q@Z@    `@ #.#+#@#f@f@##$#%#&#*#=#-#;#              ",
"                                                >#        ,#'#)#!#~#{#    ]#^#/#(#                  ",
"                                                                                                    ",
"                                                                                                    ",
"                                                                                                    ",
"                                                                                                    ",
"                                                                                                    "};
