/* XPM */
static char * Dice_W100_trans_50_xpm[] = {
"50 32 391 2",
"  	c None",
". 	c #B7FFA7",
"+ 	c #CAFF64",
"@ 	c #C9FF60",
"# 	c #93FF58",
"$ 	c #F0FFE7",
"% 	c #BCFF7B",
"& 	c #9DFF5C",
"* 	c #7EFF57",
"= 	c #8BFF58",
"- 	c #A1FF5C",
"; 	c #B2FFC4",
"> 	c #D8FFE3",
", 	c #AAFF8D",
"' 	c #A2FFB8",
") 	c #8AFFA6",
"! 	c #BDFFCC",
"~ 	c #B1FFA5",
"{ 	c #454545",
"] 	c #77FF53",
"^ 	c #AEFF5F",
"/ 	c #BAFF60",
"( 	c #DEFF6C",
"_ 	c #8FFFA9",
": 	c #92FFAC",
"< 	c #A5FFBC",
"[ 	c #A0FF67",
"} 	c #86FF57",
"| 	c #CEFF67",
"1 	c #D8FFE4",
"2 	c #89BAFF",
"3 	c #AAFFC0",
"4 	c #97FFAF",
"5 	c #90FFAA",
"6 	c #AAFFB4",
"7 	c #93FF77",
"8 	c #82FF57",
"9 	c #B6FF60",
"0 	c #C7FFD5",
"a 	c #9FA1FF",
"b 	c #B4E7FF",
"c 	c #4DD9FF",
"d 	c #9DFFB4",
"e 	c #A0FFB9",
"f 	c #ADFF97",
"g 	c #A8FFBD",
"h 	c #8F8CFF",
"i 	c #8686FF",
"j 	c #7878FE",
"k 	c #A6A5FE",
"l 	c #77C6FF",
"m 	c #2ECEFF",
"n 	c #28E1FF",
"o 	c #ADFFC2",
"p 	c #B4FFB0",
"q 	c #8DFF60",
"r 	c #A5FFBA",
"s 	c #7979FF",
"t 	c #7B7AFF",
"u 	c #7271FF",
"v 	c #6E6EFE",
"w 	c #909BFD",
"x 	c #53ADFF",
"y 	c #1E99FF",
"z 	c #1EA4FF",
"A 	c #DDFFE6",
"B 	c #B4FF87",
"C 	c #ADFFC0",
"D 	c #5BD678",
"E 	c #8181F8",
"F 	c #7373E5",
"G 	c #6262EB",
"H 	c #6666FA",
"I 	c #6969FF",
"J 	c #6A6AFF",
"K 	c #8FA4FF",
"L 	c #39A4FF",
"M 	c #1C8DFF",
"N 	c #1E95FF",
"O 	c #D7FFE1",
"P 	c #FDFEFE",
"Q 	c #69E687",
"R 	c #7878FC",
"S 	c #6E6EDC",
"T 	c #5F5FB5",
"U 	c #474793",
"V 	c #424280",
"W 	c #40407B",
"X 	c #6868FF",
"Y 	c #787CFF",
"Z 	c #579AFF",
"` 	c #1F86FF",
" .	c #1B87FF",
"..	c #21A5FF",
"+.	c #DDFFE5",
"@.	c #DAFFE5",
"#.	c #C5FFD4",
"$.	c #C0FFD1",
"%.	c #B1FF5F",
"&.	c #7575FF",
"*.	c #6D6DFE",
"=.	c #45457D",
"-.	c #5454BE",
";.	c #5A5AD0",
">.	c #353554",
",.	c #6F6FFF",
"'.	c #7978FF",
").	c #869AFF",
"!.	c #299FFF",
"~.	c #1A83FF",
"{.	c #1A81FF",
"].	c #20A0FF",
"^.	c #DAFFE4",
"/.	c #98FFB0",
"(.	c #80FF9E",
"_.	c #C2FFD2",
":.	c #F8FFFC",
"<.	c #EDFFF2",
"[.	c #6BE688",
"}.	c #49D069",
"|.	c #7B7BFF",
"1.	c #8383FF",
"2.	c #7C7CFF",
"3.	c #6E6EFF",
"4.	c #5252B6",
"5.	c #6767FC",
"6.	c #6464F2",
"7.	c #404079",
"8.	c #4A4A9A",
"9.	c #8E8CFF",
"0.	c #9896FF",
"a.	c #6C9AFF",
"b.	c #288DFF",
"c.	c #1774E6",
"d.	c #1C8EFF",
"e.	c #23AFFF",
"f.	c #D2FFDE",
"g.	c #AAFFBE",
"h.	c #6CFF92",
"i.	c #7CFF9E",
"j.	c #BAFFCC",
"k.	c #7474FF",
"l.	c #6B6BFF",
"m.	c #5F5FE5",
"n.	c #5353BB",
"o.	c #6565F6",
"p.	c #4F4FAC",
"q.	c #37375A",
"r.	c #7372FF",
"s.	c #9E9CFF",
"t.	c #A2B0FF",
"u.	c #67A7FF",
"v.	c #1878EE",
"w.	c #5FD87B",
"x.	c #8585FF",
"y.	c #5151B4",
"z.	c #363657",
"A.	c #4B4B9E",
"B.	c #46468D",
"C.	c #5A5AD1",
"D.	c #7675FF",
"E.	c #B1AFFF",
"F.	c #7CABFF",
"G.	c #3794FF",
"H.	c #22A9FF",
"I.	c #5AD577",
"J.	c #63DC80",
"K.	c #8F8FFF",
"L.	c #7777FF",
"M.	c #5050B1",
"N.	c #5959CD",
"O.	c #6060E6",
"P.	c #9694FF",
"Q.	c #C6C4FF",
"R.	c #73B0FF",
"S.	c #156AD2",
"T.	c #1050A0",
"U.	c #041428",
"V.	c #22ACFF",
"W.	c #9AFFB2",
"X.	c #9FFFB5",
"Y.	c #95FFAD",
"Z.	c #65DA81",
"`.	c #9F9CFF",
" +	c #8888FF",
".+	c #7171FF",
"++	c #8786D9",
"@+	c #BEBCFF",
"#+	c #8B89C0",
"$+	c #BBB9E7",
"%+	c #D5D3FF",
"&+	c #DDE7FF",
"*+	c #51B5FF",
"=+	c #1B82FF",
"-+	c #0B386F",
";+	c #0B3A73",
">+	c #1158AF",
",+	c #072448",
"'+	c #1F99FF",
")+	c #69DC84",
"!+	c #B0ADFF",
"~+	c #AAA9FF",
"{+	c #B4B4FF",
"]+	c #A09FFF",
"^+	c #A2A0FF",
"/+	c #B0AEFF",
"(+	c #7E7CFF",
"_+	c #8481F0",
":+	c #CCCAFD",
"<+	c #CCC9FF",
"[+	c #8CCAFF",
"}+	c #1D91FF",
"|+	c #156AD3",
"1+	c #01050A",
"2+	c #1156AA",
"3+	c #01070F",
"4+	c #1B86FF",
"5+	c #6BFF91",
"6+	c #70FF92",
"7+	c #CCCAFF",
"8+	c #D6D4FF",
"9+	c #9A98FD",
"0+	c #ACAAFD",
"a+	c #8B89F2",
"b+	c #7674FC",
"c+	c #706EED",
"d+	c #6A67DA",
"e+	c #6764D3",
"f+	c #7E7CE5",
"g+	c #918FF8",
"h+	c #86B2FF",
"i+	c #21A4FF",
"j+	c #197CF7",
"k+	c #0F4E9B",
"l+	c #04152B",
"m+	c #072346",
"n+	c #197FFF",
"o+	c #1E9AFF",
"p+	c #67FF8E",
"q+	c #95FFB0",
"r+	c #8481F8",
"s+	c #8986FD",
"t+	c #7A77F0",
"u+	c #7370ED",
"v+	c #6C69E1",
"w+	c #6865D6",
"x+	c #46448F",
"y+	c #302E62",
"z+	c #6966D6",
"A+	c #7977FE",
"B+	c #AFADFF",
"C+	c #3DADFF",
"D+	c #1C8BFF",
"E+	c #0E4991",
"F+	c #051B37",
"G+	c #0F4B96",
"H+	c #1980FF",
"I+	c #1A87FF",
"J+	c #FFFFFF",
"K+	c #A7FFBD",
"L+	c #7FFFA0",
"M+	c #88FFA7",
"N+	c #6FFF90",
"O+	c #7875F6",
"P+	c #807CF8",
"Q+	c #7773E8",
"R+	c #6764D4",
"S+	c #6461CC",
"T+	c #05050B",
"U+	c #000000",
"V+	c #504EA5",
"W+	c #908EFE",
"X+	c #6E9EFF",
"Y+	c #1C8CF8",
"Z+	c #0C3F7E",
"`+	c #041429",
" @	c #04162C",
".@	c #197DF8",
"+@	c #20A3FF",
"@@	c #B5FFC8",
"#@	c #BDFFCE",
"$@	c #9DFFB6",
"%@	c #8DFFA7",
"&@	c #7976F6",
"*@	c #817EFA",
"=@	c #6D6ADF",
"-@	c #2A2855",
";@	c #191834",
">@	c #6663D0",
",@	c #6966D9",
"'@	c #7472F4",
")@	c #A6A4FF",
"!@	c #2D97FF",
"~@	c #1A84FF",
"{@	c #20A1FF",
"]@	c #29D2FF",
"^@	c #B0FFC5",
"/@	c #706DE5",
"(@	c #5A57B8",
"_@	c #010101",
":@	c #313065",
"<@	c #6663D1",
"[@	c #716EE4",
"}@	c #77A7FB",
"|@	c #22A6FF",
"1@	c #1A82FF",
"2@	c #1D92FF",
"3@	c #26BEFF",
"4@	c #37F7FF",
"5@	c #7673F3",
"6@	c #6865D4",
"7@	c #5B58BA",
"8@	c #010103",
"9@	c #4D4B9E",
"0@	c #6865D7",
"a@	c #7D7AED",
"b@	c #BCD3FF",
"c@	c #35F3FF",
"d@	c #1E94FF",
"e@	c #21A1FF",
"f@	c #208CFF",
"g@	c #24B5FF",
"h@	c #6AD1FF",
"i@	c #A8D8FF",
"j@	c #7774F5",
"k@	c #4C4A9C",
"l@	c #010102",
"m@	c #2D2C5D",
"n@	c #5856B6",
"o@	c #6966D7",
"p@	c #7371EA",
"q@	c #716EE8",
"r@	c #D6D4FA",
"s@	c #78EDFF",
"t@	c #3BB9FD",
"u@	c #6496FF",
"v@	c #6990FD",
"w@	c #508FFF",
"x@	c #8794FF",
"y@	c #B8B6FF",
"z@	c #7572F1",
"A@	c #323168",
"B@	c #040407",
"C@	c #6260CB",
"D@	c #716EE7",
"E@	c #8683FC",
"F@	c #9694FE",
"G@	c #A6A5F7",
"H@	c #808BD4",
"I@	c #7373E3",
"J@	c #6D6DD7",
"K@	c #5454A2",
"L@	c #7877E6",
"M@	c #141329",
"N@	c #36346E",
"O@	c #6663D2",
"P@	c #716EE6",
"Q@	c #827FFD",
"R@	c #7B79DA",
"S@	c #6060B5",
"T@	c #7070DE",
"U@	c #5252A0",
"V@	c #4C4C93",
"W@	c #5656AB",
"X@	c #4E4CA0",
"Y@	c #1C1B39",
"Z@	c #1C1C3A",
"`@	c #6562D1",
" #	c #7D7AF6",
".#	c #7D7CF9",
"+#	c #5B5AB4",
"@#	c #5151A0",
"##	c #4F4F9A",
"$#	c #4C4C94",
"%#	c #4F4DA2",
"&#	c #7370EC",
"*#	c #7C79F9",
"=#	c #7A79EB",
"-#	c #6262BF",
";#	c #5555A8",
">#	c #7B77F7",
",#	c #7C78F3",
"'#	c #7875F5",
")#	c #7876EF",
"!#	c #7C7AFB",
"~#	c #6A6AD4",
"{#	c #8C88FF",
"]#	c #928EFF",
"^#	c #8987FC",
"/#	c #706FDD",
"(#	c #9491FF",
"                                                              . + @ #                               ",
"                                                              $ % & * = & - - - -                   ",
"                                                              ; > , # * * * * * - - - - - -         ",
"                                                              ' ) ! ~ * * * { * * * * * ] * ^ / (   ",
"                                                              ' _ : < [ } * { * * * * * * * * = | 1 ",
"                                  2                           3 4 _ 5 6 7 8 { { { { { { { * * } 9 0 ",
"                              a b c                           d _ _ _ e ! f * { * * * { { * * * = g ",
"                        h i j k l m n                         d { _ 5 o 0 p q * * * * * * * * * = r ",
"                    s j t u v w x y z                         d { { _ _ g 0 A B * * * * * * * & C D ",
"                E F G H I J u K L M N                         ' { { _ _ _ d O P - - & = = * * - ' Q ",
"            R S T U V W X I Y Z `  ...                        ' d { _ _ _ _ +.@.0 0 #.; $.%.( | ) D ",
"        s &.*.=.U -.;.>.,.'.).!.~.{.].                          d { { { _ { +.^._ /./._ (._.:.<.[.}.",
"  |.1.2.3.X 4.>.5.6.7.8.9.0.a.b.~.c.d.e.                      d _ _ { { { f.g.h.h.h.h.h.h.(.i.j.4 D ",
"1.k.l.X X m.>.n.o.p.q.r.s.t.u.{.{.{.v...                      d _ _ _ { _ 0 /.h.h.h.h.h.h.h.d C w.  ",
"x.&.X X X y.z.A.B.z.C.D.E.F.G.{.{.{.{.H.e.                    d _ _ { { { 0 /.h.{ { h.h.h.h.5 C I.J.",
"K.L.X X X 5.M.n.N.O.5.P.Q.R.{.{.S.T.U.V.                      ' _ _ _ _ W.0 /.h.{ { { h.h.h.h.X.Y.Z.",
"`. +.+X 3.k.5.++@+#+$+%+&+*+=+-+;+>+,+'+e.                    g _ _ _ _ d 0 (.h.h.h.{ { h.h.h.: r )+",
"!+~+{+]+ +^+/+P.(+_+:+<+[+}+|+1+2+{.3+4+e.                    Y._ _ _ _ d 0 5 h.h.h.h.{ 5+h.h.h.' 6+",
"  7+8+9+0+a+b+c+d+e+f+g+h+i+j+k+l+1+m+n+o+e.                  d d _ _ d <./.i.h.h.h.h.{ 5+5+5+p+q+X.",
"  r+s+t+u+v+w+x+y+e+z+A+B+C+D+E+F+G+S.H+I+e.                  g.r g g.! J+K+< L+h.h.h.{ { h.{ M+X.N+",
"  O+P+Q+R+e+S+T+U+V+e+c+W+X+Y+Z+`+ @.@{.+@                        @@#@0 0 : : $@: 5 5 5 { { { h.%@r ",
"  &@*@=@e+e+e+-@;@>@e+,@'@)@!@~.{.{.{.~@{@]@                                  : : : : : 5 { 5 5 K+^@",
"  O+O+/@e+e+(@_@:@<@e+e+[@}@|@{.{.{.1@2@3@4@                                            : : : : K+g ",
"    O+5@6@7@y+8@9@e+e+0@a@b@c@d@e@f@M g@h@i@                                                        ",
"    O+j@k@l@m@n@e+e+o@p@q@r@s@t@u@v@w@x@y@                                                          ",
"      z@A@B@C@e+e+e+D@E@F@G@H@I@J@K@L@                                                              ",
"    O+j@M@N@(@O@6@P@Q@R@S@T@U@V@W@                                                                  ",
"      X@Y@T+Z@`@e+ #.#+#@###$#                                                                      ",
"      O+j@%#D@&#*#=#-#;#                                                                            ",
"      O+>#,#'#)#!#~#                                                                                ",
"        {#]#^#/#                                                                                    ",
"        9.(#                                                                                        "};
