/* XPM */
static char * Dices2_trans_50_xpm[] = {
"50 32 256 2",
"  	c None",
". 	c #020202",
"+ 	c #3A7E5A",
"@ 	c #9D9482",
"# 	c #62E2A0",
"$ 	c #A0FECC",
"% 	c #36326E",
"& 	c #3EBA76",
"* 	c #867E6E",
"= 	c #1A82FE",
"- 	c #5E5A4E",
"; 	c #AEDAC2",
"> 	c #0A3A72",
", 	c #A8D6BE",
"' 	c #2E2E72",
") 	c #8682FE",
"! 	c #32925E",
"~ 	c #A0D1B5",
"{ 	c #9E9AFE",
"] 	c #46423A",
"^ 	c #7EBA9A",
"/ 	c #1A7EF7",
"( 	c #50509C",
"_ 	c #6E8AFE",
": 	c #AEFED2",
"< 	c #8686FA",
"[ 	c #A2C2B2",
"} 	c #1A6ECE",
"| 	c #66DE9E",
"1 	c #5C9878",
"2 	c #22B0FE",
"3 	c #9CBEAC",
"4 	c #0A3262",
"5 	c #D2EADE",
"6 	c #66EAA6",
"7 	c #57BD87",
"8 	c #46466E",
"9 	c #8686F6",
"0 	c #6666D2",
"a 	c #39A26A",
"b 	c #2E82DA",
"c 	c #B2DEC6",
"d 	c #DFD1B7",
"e 	c #B7AE97",
"f 	c #DAEAE2",
"g 	c #5A5ADA",
"h 	c #7E7EF6",
"i 	c #56CA8A",
"j 	c #C2D6CE",
"k 	c #209CFE",
"l 	c #92FEC5",
"m 	c #8EB69E",
"n 	c #262622",
"o 	c #BADAC6",
"p 	c #716FE4",
"q 	c #2CE4FE",
"r 	c #26BAFE",
"s 	c #A6A2FA",
"t 	c #7A7266",
"u 	c #A29A86",
"v 	c #26B2FE",
"w 	c #5ECEFE",
"x 	c #EAEADE",
"y 	c #3EAE72",
"z 	c #1256AA",
"A 	c #C9BDA5",
"B 	c #86AAFE",
"C 	c #4A9EFE",
"D 	c #6A9E82",
"E 	c #5EEEA6",
"F 	c #7E7EDE",
"G 	c #C6E2D2",
"H 	c #8ACAFE",
"I 	c #76CA9E",
"J 	c #A2D2FE",
"K 	c #72EEAE",
"L 	c #36322E",
"M 	c #6EBE96",
"N 	c #161612",
"O 	c #D2CAB2",
"P 	c #46A6FE",
"Q 	c #A79E8A",
"R 	c #6E6AE2",
"S 	c #86EEB6",
"T 	c #B9B7FE",
"U 	c #6565C1",
"V 	c #968E7B",
"W 	c #A2BEEE",
"X 	c #665E52",
"Y 	c #86BEA0",
"Z 	c #72A28A",
"` 	c #50A678",
" .	c #E2E2FE",
"..	c #E6DABE",
"+.	c #EAF6EE",
"@.	c #72CA9A",
"#.	c #2292FE",
"$.	c #D2D2FE",
"%.	c #72AAFE",
"&.	c #AAA28E",
"*.	c #66F2AA",
"=.	c #02121E",
"-.	c #E4D6BC",
";.	c #AAD6FE",
">.	c #666252",
",.	c #DAEEE2",
"'.	c #5EB0FE",
").	c #50AE7C",
"!.	c #1D8EFE",
"~.	c #7672EA",
"{.	c #5050A8",
"].	c #56DA92",
"^.	c #6262F2",
"/.	c #5EAA82",
"(.	c #FCF8DC",
"_.	c #3E9EFE",
":.	c #62FEBE",
"<.	c #418A62",
"[.	c #BED2C6",
"}.	c #1460BC",
"|.	c #56FEA3",
"1.	c #26265E",
"2.	c #4BC383",
"3.	c #8A8672",
"4.	c #469E6E",
"5.	c #E6F2EE",
"6.	c #EEF6F2",
"7.	c #8ACAA8",
"8.	c #6A665A",
"9.	c #76DAA4",
"0.	c #1A1A42",
"a.	c #4A463E",
"b.	c #7D7667",
"c.	c #7676F3",
"d.	c #6ECE9A",
"e.	c #5B5BB3",
"f.	c #76F6B6",
"g.	c #BEFEE2",
"h.	c #5DCE92",
"i.	c #AEA692",
"j.	c #DAFEEA",
"k.	c #EBDEC2",
"l.	c #6EB68F",
"m.	c #A2A2FE",
"n.	c #7CCAA0",
"o.	c #62F2AE",
"p.	c #58C68A",
"q.	c #FEFCE6",
"r.	c #369E66",
"s.	c #166CD6",
"t.	c #726A5E",
"u.	c #6FDFA3",
"v.	c #6A67DA",
"w.	c #66BA8E",
"x.	c #3A3874",
"y.	c #0A0A15",
"z.	c #F2FAF6",
"A.	c #418662",
"B.	c #908EFE",
"C.	c #BAB29B",
"D.	c #729AFE",
"E.	c #9696FA",
"F.	c #5A564A",
"G.	c #66FDB4",
"H.	c #5252C6",
"I.	c #72E6AA",
"J.	c #8ECAAA",
"K.	c #7E7AF9",
"L.	c #62FEB2",
"M.	c #C6F2FE",
"N.	c #EAEAFE",
"O.	c #53B27F",
"P.	c #756F60",
"Q.	c #369A64",
"R.	c #7672EE",
"S.	c #5EFEB6",
"T.	c #1A8AFE",
"U.	c #40B0FE",
"V.	c #7676FE",
"W.	c #0E0E0A",
"X.	c #B6AA96",
"Y.	c #FAF6EE",
"Z.	c #1E1E3E",
"`.	c #AAE6C6",
" +	c #8692F6",
".+	c #423E36",
"++	c #5EB686",
"@+	c #5C5AC4",
"#+	c #6AFEBE",
"$+	c #8EFEDA",
"%+	c #E6E2D6",
"&+	c #4ECA86",
"*+	c #62BA8A",
"=+	c #6A6AFE",
"-+	c #FEFAEE",
";+	c #6AFEC6",
">+	c #10101E",
",+	c #3AA76D",
"'+	c #EDE3C8",
")+	c #62D197",
"!+	c #8E8675",
"~+	c #72EAAA",
"{+	c #61D699",
"]+	c #E5FEF3",
"^+	c #7EC29E",
"/+	c #827A6B",
"(+	c #8786FE",
"_+	c #71C296",
":+	c #1EA2FE",
"<+	c #A7A7FE",
"[+	c #3D825E",
"}+	c #3EB576",
"|+	c #524E44",
"1+	c #3E3E86",
"2+	c #B2A692",
"3+	c #7A7262",
"4+	c #95CAAE",
"5+	c #55B682",
"6+	c #7171FE",
"7+	c #86F6CA",
"8+	c #928EFA",
"9+	c #92A6FE",
"0+	c #F6FAFA",
"a+	c #5EFEAE",
"b+	c #06060A",
"c+	c #898271",
"d+	c #BFB6A0",
"e+	c #66FEC2",
"f+	c #329661",
"g+	c #6A92FE",
"h+	c #EAFEF6",
"i+	c #72D29E",
"j+	c #1666C6",
"k+	c #928A78",
"l+	c #1A86FE",
"m+	c #FDFEFB",
"n+	c #6FFDB6",
"o+	c #7A7AFE",
"p+	c #A6D2BA",
"q+	c #5CCA8E",
"r+	c #AEAAFE",
"s+	c #8A8AFE",
"t+	c #46BA7C",
"u+	c #67E2A2",
"v+	c #4DAA77",
"w+	c #5CD294",
"x+	c #74C69A",
"y+	c #B2AA96",
"z+	c #94CEAE",
"A+	c #58FEAA",
"B+	c #AEA28E",
"C+	c #7A76F6",
"D+	c #A6FED2",
"E+	c #529AFE",
"F+	c #7AEEB2",
"G+	c #1E1A1A",
"                                  w q :+                                                            ",
"                                  J U.!.k :+k 2                                                     ",
"                                  s+9+C / s.j+!.!.!.!.r q                                           ",
"                                  V.=+g+#.}.z / / / / = 2 ;.                                        ",
"                                  K.=+V.D.b =.4 4 . > / #.B                                         ",
"                                  {.^.V.r+%.s./ = z s.= T._                                         ",
"                                  1+. =+) T H = l+= = = P U                                         ",
"                                  e.. =+=+s+ .'.'.E+_.v U.e.                                        ",
"                                  o+y.0.g 8 $.) ) K. +M.W (                                         ",
"                                  6+=+. b+T ~.0 0 v.0 p E.e.                                        ",
"                                  6+=+1.' <+v.x.{.0 0 C+F (                                         ",
"                                  6+=+H.@+s R . y.^.0 v.K.@+                                        ",
"                                  6+=+=+V.s v.0 % . 0 U K.U                                         ",
"                                  6+=+=+m.8+v.0 0 . 0 0 R c.                  ~+7+e+G.              ",
"                      t k+e       (+) B.N.(+~.0 U . % 0.~.p               K @.M u.:.|.G.            ",
"                b.X P.@ '+d+        { r+T C+C+R.R.R.y.>+R <             S `.J.^+u.:.|.#+n+          ",
"      b.t./+V V t.G+c+..-.V                   C+C+C+@+p K.8+        ~+9.+.~ ~ , u.:.|.$ n+n+G.      ",
"      b.V Q B+B+P.|+O (.2+b.t                                     I._+~ 4+J.-+l.u.]+$ j.]+n+|.L.    ",
"    3+b.P.] /+y+d+C.q.O Q .+3+                                  *.I l.z+4+4+4+5.u.]+: |.l l |.S.;+  ",
"    c+i.* V A %+m+m+x X.B+3+c+                                  ].w+i+x+, ^+^+p+| S.: |.l g.:.o.# E ",
"  u -.-...'+k.-.d+-+%+y+i.V u                                   ,+Q.t+u+9.I l.l.u.|.$ h+e+#+w+7 7 # ",
"  i.-.d A B+B+i.2+k.Y.e i.a.c+b.                                }+f+/.` 2.u+i+x+F+|.L.G.6 p.O.O.5+  ",
"t &.e i.i.i.2+B+i.C.(.C.B+|+P.c+                                  r.0+,.4.,+2.I.$+n+w+p.x+w.c M q+  ",
"  k+&.B+2+2+i.i.B+B+(.A 2+u Q !+                                  y 4.m++.o f+2.h.| 7 O.z+z.7.7.|   ",
"  * B+B+i.&.k+- 2+i.A '+B+c+>.!+                                  }+! Y ^ G r.w+<.p.h.O.++5._+n.    ",
"  * &.i.B+k+N b+/+B+A k.A P.L * F.                                  f+` Y l.&+` + A.h.5+5 ; O.p.    ",
"    Q 2+2+@ n W.&.B+B+-.d Q b.P.                                    ,+! ! a i [++ [+v+u+7 O.5+)+    ",
"    Q i.i.2+B+B+i.i.2+-.d B+/+X                                     }+f+! }+v+D 1 + 1 q+)+O.p.      ",
"    k+B+i.2+i.B+i.i.B+C.d k+                                          f+,+q+A.m 3 [+[ <.)+7 h.      ",
"    /+2+2+i.2+2+2+i.u V e 3+                                          ,+2.).+ f + A.[ + ).f.)+      ",
"    3+B+Q @ @ @ 3+3+3+3+                                              }+p.[+3 j Z [.[++ A.{+        ",
"      c+/+                                                                                          "};
