/* XPM */
static char * Drucken_xpm[] = {
"32 32 224 2",
"  	c None",
". 	c #808080",
"+ 	c #FCFEFF",
"@ 	c #F9FCFF",
"# 	c #F7FBFF",
"$ 	c #F5FAFF",
"% 	c #F3F9FF",
"& 	c #F0F8FF",
"* 	c #EEF7FF",
"= 	c #ECF6FF",
"- 	c #EAF5FF",
"; 	c #E8F4FF",
"> 	c #E5F2FF",
", 	c #E3F1FF",
"' 	c #E1F0FF",
") 	c #686C70",
"! 	c #E7F3FF",
"~ 	c #DFEFFF",
"{ 	c #969EA5",
"] 	c #B1BCC7",
"^ 	c #DCEEFF",
"/ 	c #909BA5",
"( 	c #D8ECFF",
"_ 	c #A3B6C8",
": 	c #DAEDFF",
"< 	c #8B98A5",
"[ 	c #CEE7FF",
"} 	c #C4E2FF",
"| 	c #95AFCA",
"1 	c #798592",
"2 	c #8596A6",
"3 	c #8194A6",
"4 	c #7D92A6",
"5 	c #606F7E",
"6 	c #9EA3A7",
"7 	c #45474B",
"8 	c #9AA4AE",
"9 	c #DEEFFF",
"0 	c #74808C",
"a 	c #C3D9EE",
"b 	c #BED1E4",
"c 	c #8394A4",
"d 	c #C7E0F9",
"e 	c #CAE5FF",
"f 	c #474A4D",
"g 	c #D5EAFF",
"h 	c #545A60",
"i 	c #9EB3C7",
"j 	c #B4CDE5",
"k 	c #C8E4FF",
"l 	c #464A4D",
"m 	c #68727D",
"n 	c #69757F",
"o 	c #7D8A96",
"p 	c #D3E9FF",
"q 	c #C8DDF1",
"r 	c #363B40",
"s 	c #98ADC3",
"t 	c #C6E3FF",
"u 	c #EAF4FF",
"v 	c #46494D",
"w 	c #B4BFC9",
"x 	c #677582",
"y 	c #C3D6E9",
"z 	c #D1E8FF",
"A 	c #C2D7EC",
"B 	c #546271",
"C 	c #2C2F32",
"D 	c #B2BEC9",
"E 	c #4C5660",
"F 	c #9CABBA",
"G 	c #8694A4",
"H 	c #CBE3F9",
"I 	c #565F67",
"J 	c #8FA6BF",
"K 	c #C1E0FF",
"L 	c #DFEEFE",
"M 	c #DCEDFD",
"N 	c #DBEDFE",
"O 	c #B0BEC9",
"P 	c #657482",
"Q 	c #CBE3FB",
"R 	c #9AAFC5",
"S 	c #9AAFC3",
"T 	c #BFDFFF",
"U 	c #55626E",
"V 	c #B4CCE5",
"W 	c #BDDEFF",
"X 	c #B9CDDF",
"Y 	c #B4C8DC",
"Z 	c #B2C7DC",
"` 	c #B1C8DF",
" .	c #BBDDFF",
"..	c #797C7E",
"+.	c #616161",
"@.	c #64686C",
"#.	c #9CA4AD",
"$.	c #9AA3AC",
"%.	c #99A3AC",
"&.	c #97A2AC",
"*.	c #95A1AB",
"=.	c #94A0AB",
"-.	c #939FAB",
";.	c #919EAA",
">.	c #8F9DAA",
",.	c #8E9CA9",
"'.	c #8C9BA9",
").	c #8B9AA9",
"!.	c #8999A8",
"~.	c #8898A8",
"{.	c #8697A8",
"].	c #8596A7",
"^.	c #8395A7",
"/.	c #424344",
"(.	c #7A7A7A",
"_.	c #6E6E6E",
":.	c #6D6D6D",
"<.	c #9E9E9E",
"[.	c #E2E2E2",
"}.	c #E0E0E0",
"|.	c #DEDEDE",
"1.	c #DBDBDB",
"2.	c #D9D9D9",
"3.	c #D7D7D7",
"4.	c #D5D5D5",
"5.	c #D2D2D2",
"6.	c #D0D0D0",
"7.	c #CECECE",
"8.	c #CBCBCB",
"9.	c #C9C9C9",
"0.	c #C7C7C7",
"a.	c #C5C5C5",
"b.	c #C3C3C3",
"c.	c #C0C0C0",
"d.	c #BEBEBE",
"e.	c #BCBCBC",
"f.	c #BABABA",
"g.	c #878787",
"h.	c #707070",
"i.	c #818181",
"j.	c #7F7F7F",
"k.	c #7E7E7E",
"l.	c #7D7D7D",
"m.	c #7C7C7C",
"n.	c #7B7B7B",
"o.	c #797979",
"p.	c #787878",
"q.	c #777777",
"r.	c #767676",
"s.	c #989898",
"t.	c #E6E6E6",
"u.	c #A2A2A2",
"v.	c #9F9F9F",
"w.	c #B3B3B3",
"x.	c #ADADAD",
"y.	c #909090",
"z.	c #AAAAAA",
"A.	c #E5E5E5",
"B.	c #848484",
"C.	c #B1B1B1",
"D.	c #DFDFDF",
"E.	c #535353",
"F.	c #BBBEBB",
"G.	c #82A282",
"H.	c #9AA79A",
"I.	c #918A8C",
"J.	c #959192",
"K.	c #DADADA",
"L.	c #D8D8D8",
"M.	c #D4D4D4",
"N.	c #CFCFCF",
"O.	c #CDCDCD",
"P.	c #CCCCCC",
"Q.	c #CACACA",
"R.	c #C8C8C8",
"S.	c #C4C4C4",
"T.	c #7F967F",
"U.	c #00FF00",
"V.	c #379E37",
"W.	c #B4B4B4",
"X.	c #D62B55",
"Y.	c #A22F4C",
"Z.	c #D3D3D3",
"`.	c #C2C2C2",
" +	c #9AA39A",
".+	c #399E39",
"++	c #638C63",
"@+	c #8D5160",
"#+	c #825963",
"$+	c #C1C1C1",
"%+	c #969696",
"&+	c #DDDDDD",
"*+	c #BFBFBF",
"=+	c #979797",
"-+	c #BDBDBD",
";+	c #999999",
">+	c #A8A8A8",
",+	c #9C9C9C",
"'+	c #8C8C8C",
")+	c #959595",
"!+	c #8B8B8B",
"~+	c #8D8D8D",
"{+	c #747474",
"]+	c #505050",
"^+	c #5C5C5C",
"/+	c #555555",
"(+	c #3C3C3C",
"_+	c #696969",
":+	c #565656",
"<+	c #434343",
"[+	c #484848",
"}+	c #5F5F5F",
"|+	c #4A4A4A",
"1+	c #757575",
"2+	c #D6D6D6",
"3+	c #B8B8B8",
"4+	c #AFAFAF",
"5+	c #B0B0B0",
"6+	c #AEAEAE",
"7+	c #A7A7A7",
"8+	c #A9A9A9",
"9+	c #A3A3A3",
"0+	c #A4A4A4",
"a+	c #A1A1A1",
"                                                                ",
"        . . . . . . . . . . . . . . .                           ",
"        . + @ # $ % & * = - ; > , ' ) .                         ",
"        . @ # $ % & * = - ! > , ' ~ { ] .                       ",
"        . # $ % & * = - ! > , ' ~ ^ / ( _ .                     ",
"        . $ % & * = - ! > , ' ~ ^ : < [ } | .                   ",
"        . % & * = - ! > , ' ~ ^ : ( 1 2 3 4 5 .                 ",
"        . & 6 . 7 . 8 , ' 9 ^ : . 0 a b c d e .                 ",
"        . * . - f > . ' 9 ^ : ( g h i . j e k .                 ",
"        . = - ! l , ' . m n o g p q r s e k t .                 ",
"        . u ! > v ' 9 w x ( y p z A n B k t } .                 ",
"        . ! > . C . ^ D E F G z H n e I J } K .                 ",
"        . > , L M N : O P p a Q . R k S . . T .                 ",
"        . , ' 9 ^ : ( . U n n V e k t } K T W .                 ",
"      . . ' 9 ^ : ( g X Y Z ` e k t } K T W  ...                ",
"      +.@.#.$.%.&.*.=.-.;.>.,.'.).!.~.{.].^.3 /.(.              ",
"  . _.:.<.[.}.|.1.2.3.4.5.6.7.8.9.0.a.b.c.d.e.f._.g.            ",
"  . . . h.i.. . j.j.k.l.l.m.m.n.(.(.o.o.p.q.q.r.o.. s.          ",
"  . t.u.v.w.w.w.w.w.w.w.w.w.w.w.w.w.w.w.w.w.w.w.w.w.. x.        ",
"  . t.t.y.z.w.w.w.w.w.w.w.w.w.w.w.w.w.w.w.w.w.w.w.w.w.. x.      ",
"  . t.t.A.B.C.w.w.w.w.w.w.w.w.w.w.w.w.w.w.w.w.w.w.w.w.w.B.      ",
"  . t.t.t.D.o.j.k.k.k.k.k.k.k.k.k.k.k.k.k.k.k.k.l.l.l.l.l.E.    ",
"  . t.t.t.t.. F.G.H.5.I.J.1.K.L.3.4.M.5.6.N.O.P.Q.R.0.a.S..     ",
"  . t.t.t.t.. T.U.V.W.X.Y.K.L.3.4.Z.5.6.N.O.P.Q.R.0.a.S.`..     ",
"  . 2.t.t.t..  +.+++`.@+#+L.3.4.Z.5.6.N.O.P.Q.R.0.a.S.`.$+.     ",
"    %+[.t.t.. }.|.&+1.K.L.3.4.Z.5.6.N.O.P.Q.R.0.a.S.`.$+*+.     ",
"      =+t.t.. |.&+1.K.L.3.4.Z.5.6.N.O.P.Q.R.0.a.S.`.c.*+-+.     ",
"        ;+t.. &+1.K.L.3.4.Z.5.6.>+s.,+s.'+v.%+)+!+~+%+'+;+.     ",
"          . . 1.K.L.3.4.Z.5.6.N.{+]+^+/+(+_+:+:+<+[+}+|+_+.     ",
"            1+K.L.2+4.Z.5.6.N.O.3+4+5+6+7+4+z.8+9+0+7+a+7+.     ",
"              . . . . . . . . . . . . . . . . . . . . . . .     ",
"                                                                "};
