/* XPM */
static char * Edit_trans_50_xpm[] = {
"50 32 198 2",
"  	c None",
". 	c #9C8442",
"+ 	c #8F793D",
"@ 	c #9D8541",
"# 	c #927C3C",
"$ 	c #806C35",
"% 	c #6C5B2D",
"& 	c #9A833F",
"* 	c #937C3C",
"= 	c #846F35",
"- 	c #715E2D",
"; 	c #584924",
"> 	c #43371B",
", 	c #2C2410",
"' 	c #98803D",
") 	c #927B3A",
"! 	c #867135",
"~ 	c #73602E",
"{ 	c #5E4D25",
"] 	c #493C1C",
"^ 	c #342A12",
"/ 	c #261E0C",
"( 	c #181305",
"_ 	c #947C3B",
": 	c #8A7437",
"< 	c #78652F",
"[ 	c #655427",
"} 	c #4F411E",
"| 	c #3B3015",
"1 	c #2C230E",
"2 	c #221B07",
"3 	c #927A3A",
"4 	c #8A7436",
"5 	c #79652E",
"6 	c #675627",
"7 	c #51431E",
"8 	c #3F3416",
"9 	c #30270E",
"0 	c #261E09",
"a 	c #937C3B",
"b 	c #8D7637",
"c 	c #7F6A31",
"d 	c #6E5B2A",
"e 	c #594921",
"f 	c #473A18",
"g 	c #342A0F",
"h 	c #292209",
"i 	c #231D06",
"j 	c #937C3A",
"k 	c #8B7436",
"l 	c #6E5B29",
"m 	c #5B4B21",
"n 	c #493B19",
"o 	c #382D10",
"p 	c #2E250B",
"q 	c #271E06",
"r 	c #8D7638",
"s 	c #846E33",
"t 	c #735F2A",
"u 	c #625023",
"v 	c #4F3F1B",
"w 	c #3E3213",
"x 	c #33280C",
"y 	c #292007",
"z 	c #8D7537",
"A 	c #877034",
"B 	c #76622C",
"C 	c #655325",
"D 	c #52421C",
"E 	c #423414",
"F 	c #33280D",
"G 	c #2B2208",
"H 	c #8A7435",
"I 	c #836D32",
"J 	c #77632C",
"K 	c #685625",
"L 	c #56461E",
"M 	c #473916",
"N 	c #392C0E",
"O 	c #31250A",
"P 	c #2A2106",
"Q 	c #8F7839",
"R 	c #867134",
"S 	c #7C672F",
"T 	c #6B5726",
"U 	c #5A491F",
"V 	c #4A3B17",
"W 	c #3B2E0F",
"X 	c #312609",
"Y 	c #2D2206",
"Z 	c #8F7738",
"` 	c #897335",
" .	c #7E6930",
"..	c #6D5A28",
"+.	c #5D4C21",
"@.	c #4C3C18",
"#.	c #3E3011",
"$.	c #34270A",
"%.	c #2F2207",
"&.	c #917A3A",
"*.	c #846E34",
"=.	c #75622C",
"-.	c #655324",
";.	c #51421C",
">.	c #37290D",
",.	c #302208",
"'.	c #987F3D",
").	c #8C7637",
"!.	c #7A672F",
"~.	c #665526",
"{.	c #53431D",
"].	c #433415",
"^.	c #35290D",
"/.	c #2E2208",
"(.	c #99813E",
"_.	c #907A3A",
":.	c #826C33",
"<.	c #6D5B2A",
"[.	c #483B18",
"}.	c #3A2E10",
"|.	c #32260B",
"1.	c #2D2107",
"2.	c #9E843F",
"3.	c #947D3C",
"4.	c #867136",
"5.	c #725F2C",
"6.	c #5E4E24",
"7.	c #493B1A",
"8.	c #3A2E11",
"9.	c #30250A",
"0.	c #2B2106",
"a.	c #97803E",
"b.	c #8B7438",
"c.	c #796530",
"d.	c #635327",
"e.	c #4E401D",
"f.	c #3D3315",
"g.	c #30260C",
"h.	c #2B2108",
"i.	c #9F8642",
"j.	c #90793B",
"k.	c #7F6B33",
"l.	c #685729",
"m.	c #534520",
"n.	c #3F3417",
"o.	c #30270F",
"p.	c #292109",
"q.	c #A99047",
"r.	c #998140",
"s.	c #867137",
"t.	c #6D5C2C",
"u.	c #574823",
"v.	c #413519",
"w.	c #312811",
"x.	c #251F09",
"y.	c #201A06",
"z.	c #A78E47",
"A.	c #907A3C",
"B.	c #776431",
"C.	c #5F5027",
"D.	c #463A1C",
"E.	c #352B13",
"F.	c #271F0C",
"G.	c #221B08",
"H.	c #DD63A8",
"I.	c #C067AB",
"J.	c #4578B7",
"K.	c #B4A16D",
"L.	c #816E3A",
"M.	c #635329",
"N.	c #493D1E",
"O.	c #342B14",
"P.	c #251D0C",
"Q.	c #1F1808",
"R.	c #E894C3",
"S.	c #E895C4",
"T.	c #D498C6",
"U.	c #81A3CE",
"V.	c #80A3CE",
"W.	c #83A5CF",
"X.	c #D1C096",
"Y.	c #C1B087",
"Z.	c #6A5C38",
"`.	c #3A3118",
" +	c #27200E",
".+	c #1D1809",
"++	c #E27BB6",
"@+	c #E791C2",
"#+	c #94B1D6",
"$+	c #CEBD94",
"%+	c #86795B",
"&+	c #1A1508",
"*+	c #2E2B21",
"=+	c #B6A883",
"-+	c #D0BF96",
";+	c #040403",
">+	c #0E0D0A",
",+	c #453F31",
"                                                                                                    ",
"                                                                                                    ",
"                                                                                      . +           ",
"                                                                                  @ # $ %           ",
"                                                                              & * = - ; > ,         ",
"                                                                          ' ) ! ~ { ] ^ / (         ",
"                                                                        _ : < [ } | 1 2             ",
"                                                                    3 4 5 6 7 8 9 0                 ",
"                                                                a b c d e f g h i                   ",
"                                                            j k c l m n o p q                       ",
"                                                          r s t u v w x y                           ",
"                                                      z A B C D E F G                               ",
"                                                  H I J K L M N O P                                 ",
"                                              Q R S T U V W X Y                                     ",
"                                          Z `  ...+.@.#.$.%.                                        ",
"                                        &.*.=.-.;.E >.,.                                            ",
"                                    '.).!.~.{.].^./.                                                ",
"                                (._.:.<.m [.}.|.1.                                                  ",
"                            2.3.4.5.6.7.8.9.0.                                                      ",
"                          a.b.c.d.e.f.g.h.                                                          ",
"                      i.j.k.l.m.n.o.p.                                                              ",
"                  q.r.s.t.u.v.w.x.y.                                                                ",
"                z.A.B.C.D.E.F.G.                  H.H.H.H.H.H.H.H.H.I.J.J.J.J.J.J.J.                ",
"              K.L.M.N.O.P.Q.                    R.S.S.S.S.S.S.S.S.S.T.U.U.U.U.V.W.                  ",
"            X.Y.Z.`. +.+                      ++@+S.S.S.S.S.S.S.S.S.T.U.U.U.U.V.#+                  ",
"          X.X.$+%+&+                          H.H.H.H.H.H.H.H.H.H.H.I.J.J.J.J.J.                    ",
"      *+=+-+X.                                                                                      ",
"    ;+>+,+                                                                                          ",
"                                                                                                    ",
"                                                                                                    ",
"                                                                                                    ",
"                                                                                                    "};
