/* XPM */
static char * Edit_2W6_trans_50_xpm[] = {
"50 32 460 2",
"  	c None",
". 	c #171B1D",
"+ 	c #1E2124",
"@ 	c #181919",
"# 	c #51585E",
"$ 	c #6F7A84",
"% 	c #6E7A83",
"& 	c #313539",
"* 	c #464B4E",
"= 	c #7E8B96",
"- 	c #4C5761",
"; 	c #0D1012",
"> 	c #7C8994",
", 	c #747F89",
"' 	c #383C40",
") 	c #8E9BA4",
"! 	c #AFC0CE",
"~ 	c #8F9CA7",
"{ 	c #68727B",
"] 	c #737D86",
"^ 	c #80909C",
"/ 	c #5B6D7D",
"( 	c #29323B",
"_ 	c #67737D",
": 	c #8A99A5",
"< 	c #4F555A",
"[ 	c #8C98A2",
"} 	c #B5C7D5",
"| 	c #5E666E",
"1 	c #5A5F65",
"2 	c #9FACB8",
"3 	c #A0B1C0",
"4 	c #5B6B78",
"5 	c #516371",
"6 	c #2F3841",
"7 	c #56616A",
"8 	c #A0B1C1",
"9 	c #818E9A",
"0 	c #68737B",
"a 	c #8C99A4",
"b 	c #A0B1BF",
"c 	c #8795A1",
"d 	c #6F7B85",
"e 	c #707C87",
"f 	c #4F5B65",
"g 	c #434F5B",
"h 	c #293239",
"i 	c #303B44",
"j 	c #0B0D0F",
"k 	c #434F58",
"l 	c #606E7B",
"m 	c #596774",
"n 	c #617380",
"o 	c #687D8D",
"p 	c #6D8292",
"q 	c #6E8394",
"r 	c #7B95AA",
"s 	c #5A6D7D",
"t 	c #4E5C67",
"u 	c #404549",
"v 	c #262A2D",
"w 	c #3B4751",
"x 	c #283138",
"y 	c #91B2CC",
"z 	c #88A7BF",
"A 	c #6C7F8E",
"B 	c #9CBCD5",
"C 	c #ABD1F0",
"D 	c #63798A",
"E 	c #535F69",
"F 	c #9DBCD4",
"G 	c #87A6BE",
"H 	c #424F59",
"I 	c #606B75",
"J 	c #616970",
"K 	c #424E58",
"L 	c #A18944",
"M 	c #20272C",
"N 	c #97B8D4",
"O 	c #6D8598",
"P 	c #33393D",
"Q 	c #889FB2",
"R 	c #ABD1EF",
"S 	c #5B6F7F",
"T 	c #4C575F",
"U 	c #9DBBD4",
"V 	c #8DADC6",
"W 	c #404E59",
"X 	c #697E90",
"Y 	c #6C8091",
"Z 	c #475662",
"` 	c #9E8642",
" .	c #927B3B",
"..	c #7C6934",
"+.	c #5F5028",
"@.	c #1A2024",
"#.	c #96B8D4",
"$.	c #A5CBE9",
"%.	c #738899",
"&.	c #A3C5DF",
"*.	c #B1D9F9",
"=.	c #98BAD5",
"-.	c #7D95A7",
";.	c #A4C6E1",
">.	c #93B4CF",
",.	c #455460",
"'.	c #5C6F7F",
").	c #687C8D",
"!.	c #4E5E6B",
"~.	c #9D853F",
"{.	c #937C3B",
"].	c #806C34",
"^.	c #635227",
"/.	c #46391C",
"(.	c #28200E",
"_.	c #0E0B0D",
":.	c #080707",
"<.	c #89A8C1",
"[.	c #8CABC4",
"}.	c #404A52",
"|.	c #7E93A3",
"1.	c #A7CAE6",
"2.	c #657C8E",
"3.	c #2F353A",
"4.	c #8AA1B4",
"5.	c #99BBD6",
"6.	c #43525E",
"7.	c #353E47",
"8.	c #464C51",
"9.	c #52616D",
"0.	c #161A1E",
"a.	c #927B3A",
"b.	c #826D33",
"c.	c #675628",
"d.	c #4E401D",
"e.	c #332A12",
"f.	c #231C09",
"g.	c #2B2126",
"h.	c #624B58",
"i.	c #3B2F36",
"j.	c #1F191D",
"k.	c #809DB4",
"l.	c #8AA9C2",
"m.	c #4A5863",
"n.	c #839AAC",
"o.	c #ADD3F1",
"p.	c #687B8A",
"q.	c #A3C3DD",
"r.	c #9FC3E0",
"s.	c #485865",
"t.	c #2C353C",
"u.	c #2F3439",
"v.	c #4A5865",
"w.	c #947C3B",
"x.	c #877135",
"y.	c #6E5B2A",
"z.	c #54451F",
"A.	c #392E13",
"B.	c #29210B",
"C.	c #3C2D35",
"D.	c #AA8298",
"E.	c #B2889F",
"F.	c #624F5A",
"G.	c #594852",
"H.	c #1E181C",
"I.	c #7893A8",
"J.	c #A6CBE9",
"K.	c #7A93A7",
"L.	c #8CA5BA",
"M.	c #AED5F4",
"N.	c #8EAFC9",
"O.	c #53626D",
"P.	c #879DB0",
"Q.	c #A0C3DF",
"R.	c #4D5E6C",
"S.	c #4D5861",
"T.	c #4A535B",
"U.	c #191D20",
"V.	c #917A3A",
"W.	c #856F33",
"X.	c #705D2A",
"Y.	c #574720",
"Z.	c #3E3314",
"`.	c #2E250B",
" +	c #231D06",
".+	c #33262D",
"++	c #987488",
"@+	c #E3ADCB",
"#+	c #AF859C",
"$+	c #624E5A",
"%+	c #7B6370",
"&+	c #57464F",
"*+	c #201A1E",
"=+	c #6B8296",
"-+	c #343E46",
";+	c #5D6871",
">+	c #A5C7E2",
",+	c #7C98AF",
"'+	c #333C42",
")+	c #7A8E9E",
"!+	c #A3C6E2",
"~+	c #4F616F",
"{+	c #546471",
"]+	c #343D45",
"^+	c #957E3C",
"/+	c #897335",
"(+	c #78642D",
"_+	c #5E4D22",
":+	c #473917",
"<+	c #32270C",
"[+	c #292007",
"}+	c #2E2429",
"|+	c #987487",
"1+	c #E4AECB",
"2+	c #C397AF",
"3+	c #917283",
"4+	c #6F5965",
"5+	c #7E6573",
"6+	c #76606D",
"7+	c #55454E",
"8+	c #677C8C",
"9+	c #A7CCEA",
"0+	c #839FB5",
"a+	c #94B2CB",
"b+	c #AFD6F5",
"c+	c #9CBFDA",
"d+	c #9FC1DC",
"e+	c #9DC0DC",
"f+	c #4D5F6D",
"g+	c #222A32",
"h+	c #8E7838",
"i+	c #897235",
"j+	c #77632D",
"k+	c #493A18",
"l+	c #34280D",
"m+	c #2A2106",
"n+	c #856677",
"o+	c #C799B2",
"p+	c #CC9BB6",
"q+	c #634C59",
"r+	c #594550",
"s+	c #56444E",
"t+	c #775F6C",
"u+	c #584951",
"v+	c #372F33",
"w+	c #483B42",
"x+	c #1C1619",
"y+	c #4F5F6B",
"z+	c #819FB6",
"A+	c #7B97AD",
"B+	c #70899E",
"C+	c #5F7586",
"D+	c #576A7A",
"E+	c #506170",
"F+	c #445460",
"G+	c #232B31",
"H+	c #887234",
"I+	c #7A652E",
"J+	c #665424",
"K+	c #50401B",
"L+	c #3B2F10",
"M+	c #302409",
"N+	c #8A6A7C",
"O+	c #B38EA2",
"P+	c #68525E",
"Q+	c #AB8298",
"R+	c #8F6C7F",
"S+	c #614454",
"T+	c #6B4B5E",
"U+	c #5B4853",
"V+	c #5D4A54",
"W+	c #171315",
"X+	c #3F3A3D",
"Y+	c #594A52",
"Z+	c #271F24",
"`+	c #8C7537",
" @	c #7C6730",
".@	c #685625",
"+@	c #3D2F10",
"@@	c #312509",
"#@	c #6A515E",
"$@	c #866978",
"%@	c #A38093",
"&@	c #BA8EA6",
"*@	c #6D4F60",
"=@	c #996E86",
"-@	c #A57791",
";@	c #775568",
">@	c #4B3B44",
",@	c #362C32",
"'@	c #473C43",
")@	c #735E6A",
"!@	c #514049",
"~@	c #937B3B",
"{@	c #826C32",
"]@	c #6F5C29",
"^@	c #56451D",
"/@	c #423314",
"(@	c #34260A",
"_@	c #2E2106",
":@	c #735766",
"<@	c #937083",
"[@	c #B0869D",
"}@	c #B88BA4",
"|@	c #765567",
"1@	c #A4718E",
"2@	c #493841",
"3@	c #735A68",
"4@	c #C78AAC",
"5@	c #7D576D",
"6@	c #56434E",
"7@	c #735C69",
"8@	c #55444D",
"9@	c #9A823E",
"0@	c #8D7638",
"a@	c #76622D",
"b@	c #5B4B20",
"c@	c #453716",
"d@	c #33270B",
"e@	c #2D2107",
"f@	c #876679",
"g@	c #DEA8C6",
"h@	c #B68AA1",
"i@	c #6C4D5E",
"j@	c #BF83A5",
"k@	c #C184A6",
"l@	c #7E576D",
"m@	c #9A6C86",
"n@	c #DB98BE",
"o@	c #D08FB3",
"p@	c #845C72",
"q@	c #53414B",
"r@	c #745E6A",
"s@	c #52424B",
"t@	c #9C843F",
"u@	c #7A6630",
"v@	c #605024",
"w@	c #483A18",
"x@	c #362A0E",
"y@	c #2C2207",
"z@	c #826273",
"A@	c #B78BA3",
"B@	c #6F5161",
"C@	c #B77E9E",
"D@	c #E09AC2",
"E@	c #DD98BF",
"F@	c #DF99C0",
"G@	c #E29BC3",
"H@	c #D491B7",
"I@	c #885F76",
"J@	c #493A43",
"K@	c #51414A",
"L@	c #98803E",
"M@	c #836E34",
"N@	c #69582A",
"O@	c #4C3E1C",
"P@	c #372C11",
"Q@	c #2B2208",
"R@	c #44323C",
"S@	c #684A5B",
"T@	c #90667E",
"U@	c #88677A",
"V@	c #C28BAA",
"W@	c #E19AC2",
"X@	c #CE8FB3",
"Y@	c #B2819D",
"Z@	c #D092B5",
"`@	c #B883A1",
" #	c #AB7E97",
".#	c #835B71",
"+#	c #35272F",
"@#	c #9D8441",
"##	c #887237",
"$#	c #6C5A2B",
"%#	c #4D401E",
"&#	c #352C12",
"*#	c #272009",
"=#	c #1F161B",
"-#	c #885D75",
";#	c #6F4D60",
">#	c #3A2F34",
",#	c #AE7F99",
"'#	c #DE99C0",
")#	c #92667F",
"!#	c #40373C",
"~#	c #AD7E98",
"{#	c #CE8EB2",
"]#	c #4B3843",
"^#	c #5A4852",
"/#	c #AB7894",
"(#	c #3E2B35",
"_#	c #AF954A",
":#	c #967F3E",
"<#	c #776431",
"[#	c #574923",
"}#	c #3C3117",
"|#	c #28200C",
"1#	c #211B06",
"2#	c #DD63A8",
"3#	c #CA66AA",
"4#	c #4578B7",
"5#	c #4D3542",
"6#	c #A4708D",
"7#	c #A3708D",
"8#	c #D795BA",
"9#	c #DF99C1",
"0#	c #986883",
"a#	c #755266",
"b#	c #C489AA",
"c#	c #D492B7",
"d#	c #895F77",
"e#	c #865F75",
"f#	c #644557",
"g#	c #C6B382",
"h#	c #7D6A35",
"i#	c #5A4C25",
"j#	c #3B3017",
"k#	c #261E0C",
"l#	c #1D1606",
"m#	c #EFB6D6",
"n#	c #EBA1CB",
"o#	c #DFA3CC",
"p#	c #8FAED4",
"q#	c #8CACD2",
"r#	c #533947",
"s#	c #B87E9E",
"t#	c #D895BB",
"u#	c #D492B8",
"v#	c #DC98BF",
"w#	c #C587AA",
"x#	c #775267",
"y#	c #D1C096",
"z#	c #D0BF95",
"A#	c #5A4E2F",
"B#	c #2A2310",
"C#	c #1A1507",
"D#	c #E484BA",
"E#	c #E588BD",
"F#	c #D78ABE",
"G#	c #7298C8",
"H#	c #7B9FCC",
"I#	c #4D3543",
"J#	c #B97F9F",
"K#	c #BB83A3",
"L#	c #B885A1",
"M#	c #D08EB3",
"N#	c #745064",
"O#	c #46303C",
"P#	c #BD82A3",
"Q#	c #8E617A",
"R#	c #946D83",
"S#	c #885E76",
"T#	c #0B0A08",
"U#	c #655C48",
"V#	c #4B3441",
"W#	c #8A5F77",
"X#	c #986983",
"Y#	c #714F62",
"Z#	c #43313C",
"`#	c #6F4C60",
"                                                                                                    ",
"                                                                                                    ",
"                                                                                                    ",
"                                                            .                                       ",
"                                            + @ # $ % & * = - ;                                     ",
"                                          > , ' ) ! ~ { ] ^ / (                                     ",
"                                        _ : < [ } | 1 2 3 4 5 6                                     ",
"                                      7 8 9 0 a b c d e f g h i                                     ",
"                                    j k l m n o p q r s t u v w                                     ",
"                                    x y z A B C D E F G H I J K                             L       ",
"                                    M N O P Q R S T U V W X Y Z                         `  ...+.    ",
"                                    @.#.$.%.&.*.=.-.;.>.,.'.).!.                    ~.{.].^./.(.    ",
"            _.:.                      <.[.}.|.1.2.3.4.5.6.7.8.9.0.                a.b.c.d.e.f.      ",
"          g.h.i.j.                    k.l.m.n.o.y p.q.r.s.t.u.v.              w.x.y.z.A.B.          ",
"        C.D.E.F.G.H.                  I.J.K.L.M.N.O.P.Q.R.S.T.U.          V.W.X.Y.Z.`. +            ",
"      .+++@+#+$+%+&+*+                =+[.-+;+>+,+'+)+!+~+{+]+        ^+/+(+_+:+<+[+                ",
"    }+|+1+2+3+4+5+6+7+j.              8+9+0+a+b+C c+d+e+f+g+      h+i+j+_+k+l+m+                    ",
"    n+o+p+q+r+s+t+u+v+w+x+            y+G z+A+B+C+D+E+F+G+      H+I+J+K+L+M+                        ",
"  N+O+P+Q+R+S+T+U+V+W+X+Y+Z+          ;                     `+ @.@K++@@@                            ",
"#@$@%@&@++*@=@-@;@>@,@'@)@!@                            ~@{@]@^@/@(@_@                              ",
":@<@[@}@|@1@2@3@4@5@6@7@5+8@                        9@0@a@b@c@d@e@                                  ",
"f@g@h@i@j@k@l@m@n@o@p@q@r@s@                    t@V.u@v@w@x@y@                                      ",
"z@A@B@C@D@D@E@F@G@G@H@I@J@K@                  L@M@N@O@P@Q@                                          ",
"R@S@T@U@V@W@X@Y@Z@E@`@ #.#+#              @###$#%#&#*#                                              ",
"=#-#;#>#,#'#)#!#~#{#]#^#/#(#          _#:#<#[#}#|#1#            2#2#2#2#2#2#2#3#4#4#4#4#4#          ",
"  5#6#7#8#9#0#a#b#c#d#e#f#          g#h#i#j#k#l#              m#n#n#n#n#n#n#n#o#p#p#p#q#            ",
"    r#s#W@G@t#u#v#G@w#x#          y#z#A#B#C#                  D#E#E#E#E#E#E#E#F#G#G#G#H#            ",
"      I#J#F@K#f@L#M#N#          y#y#y#                        2#2#2#2#2#2#2#2#3#4#4#4#              ",
"        O#P#Q#i.R#S#          T#U#                                                                  ",
"          V#W#X#Y#                                                                                  ",
"            Z#`#                                                                                    ",
"                                                                                                    "};
