/* XPM */
static char * EditChar_trans_xpm[] = {
"50 32 308 2",
"  	c None",
". 	c #AFAFAF",
"+ 	c #9E9E9E",
"@ 	c #606060",
"# 	c #8C8C8C",
"$ 	c #575757",
"% 	c #444444",
"& 	c #535353",
"* 	c #818181",
"= 	c #959595",
"- 	c #404040",
"; 	c #474747",
"> 	c #383838",
", 	c #B7B7B7",
"' 	c #A6A5A5",
") 	c #B9B9B9",
"! 	c #090909",
"~ 	c #9B8442",
"{ 	c #89733A",
"] 	c #585858",
"^ 	c #555555",
"/ 	c #7E7E7E",
"( 	c #545353",
"_ 	c #3D3D3D",
": 	c #9A8240",
"< 	c #8C7639",
"[ 	c #705E2E",
"} 	c #544623",
"| 	c #846827",
"1 	c #8E8E8E",
"2 	c #060606",
"3 	c #000000",
"4 	c #0E0E0E",
"5 	c #977F3C",
"6 	c #8C7638",
"7 	c #74602E",
"8 	c #594A23",
"9 	c #3C3016",
"0 	c #261E0D",
"a 	c #8C6B1E",
"b 	c #9A823E",
"c 	c #8E7838",
"d 	c #7B672F",
"e 	c #615125",
"f 	c #443719",
"g 	c #2E250F",
"h 	c #211B07",
"i 	c #2A2924",
"j 	c #706248",
"k 	c #4E3A12",
"l 	c #4C3812",
"m 	c #8E7738",
"n 	c #7B6730",
"o 	c #625124",
"p 	c #483A19",
"q 	c #32290F",
"r 	c #251D08",
"s 	c #898989",
"t 	c #515151",
"u 	c #1A1A1A",
"v 	c #504C46",
"w 	c #7C6B49",
"x 	c #BAAF9A",
"y 	c #7F7052",
"z 	c #826C32",
"A 	c #695727",
"B 	c #51421D",
"C 	c #3A2F12",
"D 	c #2B2209",
"E 	c #8F7028",
"F 	c #A2A2A2",
"G 	c #8F8F8F",
"H 	c #9F9F9F",
"I 	c #989897",
"J 	c #6B5D41",
"K 	c #C5BDAA",
"L 	c #EFEBE1",
"M 	c #C0B6A1",
"N 	c #594623",
"O 	c #8F7839",
"P 	c #826D33",
"Q 	c #6A5827",
"R 	c #53431D",
"S 	c #3B2F11",
"T 	c #2E240A",
"U 	c #8E7333",
"V 	c #919191",
"W 	c #939393",
"X 	c #9B9B9B",
"Y 	c #868583",
"Z 	c #6C5C3D",
"` 	c #F8F6F2",
" .	c #F0EDE3",
"..	c #E6DFCF",
"+.	c #645433",
"@.	c #8D7637",
"#.	c #826D31",
"$.	c #715D2A",
"%.	c #5A4920",
"&.	c #433514",
"*.	c #33280C",
"=.	c #2A2106",
"-.	c #B8B8B8",
";.	c #95804F",
">.	c #777165",
",.	c #8E7F5F",
"'.	c #FAF8F5",
").	c #F2EFE6",
"!.	c #E5DECD",
"~.	c #908160",
"{.	c #8E7739",
"].	c #836E33",
"^.	c #725E2A",
"/.	c #5B4A1F",
"(.	c #463816",
"_.	c #35290C",
":.	c #2D2207",
"<.	c #A3A3A3",
"[.	c #998453",
"}.	c #A9A9A9",
"|.	c #8C8576",
"1.	c #B5A78B",
"2.	c #F7F4EF",
"3.	c #F4F1EA",
"4.	c #E4DCCA",
"5.	c #AE9F7E",
"6.	c #927A3A",
"7.	c #877135",
"8.	c #77632D",
"9.	c #5F4D21",
"0.	c #4B3B18",
"a.	c #392B0E",
"b.	c #2F2207",
"c.	c #9C9C9C",
"d.	c #988352",
"e.	c #A7A7A7",
"f.	c #9D9D9D",
"g.	c #979797",
"h.	c #8B8373",
"i.	c #B7A98B",
"j.	c #F0EBE1",
"k.	c #F5F2EC",
"l.	c #E1D9C6",
"m.	c #AC9E7C",
"n.	c #917A3A",
"o.	c #7F6A31",
"p.	c #675425",
"q.	c #50401B",
"r.	c #3A2D10",
"s.	c #302309",
"t.	c #998A68",
"u.	c #A5A5A5",
"v.	c #938B7B",
"w.	c #B2A17D",
"x.	c #DFD5C0",
"y.	c #EEE9DE",
"z.	c #DBD1BA",
"A.	c #A3926B",
"B.	c #97803D",
"C.	c #6C5929",
"D.	c #52431C",
"E.	c #3C3011",
"F.	c #31250A",
"G.	c #9A9A9A",
"H.	c #969695",
"I.	c #A4A4A4",
"J.	c #887F6F",
"K.	c #A89468",
"L.	c #C8B893",
"M.	c #CDBF9E",
"N.	c #BCA97D",
"O.	c #937D4A",
"P.	c #9D843F",
"Q.	c #8D7739",
"R.	c #76632F",
"S.	c #594921",
"T.	c #423516",
"U.	c #31260B",
"V.	c #2B2106",
"W.	c #CBCBCB",
"X.	c #A3A097",
"Y.	c #A1A1A1",
"Z.	c #8F8676",
"`.	c #9C8451",
" +	c #AE9761",
".+	c #A18647",
"++	c #907127",
"@+	c #836727",
"#+	c #9F8642",
"$+	c #917A3B",
"%+	c #786530",
"&+	c #403517",
"*+	c #2D250C",
"=+	c #261E05",
"-+	c #977F47",
";+	c #AEAEAE",
">+	c #837B6B",
",+	c #937A43",
"'+	c #A2884A",
")+	c #987A36",
"!+	c #8E6E23",
"~+	c #7E611E",
"{+	c #AB9248",
"]+	c #836E35",
"^+	c #645428",
"/+	c #483B1C",
"(+	c #302810",
"_+	c #241E08",
":+	c #9C7F3D",
"<+	c #DEDEDE",
"[+	c #ABABAB",
"}+	c #746D5F",
"|+	c #896F36",
"1+	c #9C803D",
"2+	c #94762F",
"3+	c #7D5F1C",
"4+	c #AC934B",
"5+	c #8A7539",
"6+	c #6A592C",
"7+	c #493D1D",
"8+	c #302711",
"9+	c #221B09",
"0+	c #D3D3D3",
"a+	c #949494",
"b+	c #969492",
"c+	c #937E4F",
"d+	c #997B37",
"e+	c #93742D",
"f+	c #7F6320",
"g+	c #D0BF94",
"h+	c #918050",
"i+	c #504321",
"j+	c #342B15",
"k+	c #221B0A",
"l+	c #CECECE",
"m+	c #C5C5C5",
"n+	c #AAAAAA",
"o+	c #83785D",
"p+	c #967933",
"q+	c #92732B",
"r+	c #8F6E23",
"s+	c #785F26",
"t+	c #D1C096",
"u+	c #BCAC84",
"v+	c #1E190B",
"w+	c #161206",
"x+	c #DADADA",
"y+	c #787878",
"z+	c #6D6B68",
"A+	c #957730",
"B+	c #92732A",
"C+	c #8F6F24",
"D+	c #5C4517",
"E+	c #7B7158",
"F+	c #DD63A8",
"G+	c #7971B2",
"H+	c #4578B7",
"I+	c #C3C3C3",
"J+	c #D0D0D0",
"K+	c #848484",
"L+	c #7D7C79",
"M+	c #846728",
"N+	c #917229",
"O+	c #816421",
"P+	c #0C0B09",
"Q+	c #C8C8C8",
"R+	c #929292",
"S+	c #D9D9D9",
"T+	c #71706F",
"U+	c #68501E",
"V+	c #7E6323",
"W+	c #6A521E",
"X+	c #E998C6",
"Y+	c #E895C4",
"Z+	c #A49ECB",
"`+	c #81A3CE",
" @	c #769CCA",
".@	c #767676",
"+@	c #E483BA",
"@@	c #E894C3",
"#@	c #D1D1D1",
"$@	c #868686",
"%@	c #CDCDCD",
"&@	c #696969",
"*@	c #CCCCCC",
"=@	c #808080",
"-@	c #727272",
";@	c #686868",
">@	c #7F7F7F",
",@	c #C1C1C1",
"'@	c #6C6C6C",
")@	c #6A6A6A",
"!@	c #957735",
"~@	c #757575",
"{@	c #6B6B6B",
"]@	c #6F6F6F",
"^@	c #717171",
"/@	c #9E8F72",
"(@	c #6E6E6E",
"_@	c #3C3C3C",
":@	c #1B1B1B",
"<@	c #2E2E2E",
"[@	c #A0A0A0",
"}@	c #7A7A7A",
"|@	c #747474",
"1@	c #777777",
"2@	c #636363",
"3@	c #8A8A8A",
"                                                                        . . . . . . . . . . . . . . ",
"      + @ # $                                                                                       ",
"  %   & * . = -                                                                                     ",
"  ;   > , ' ) !                                                                           ~ {       ",
"  ]   ^ / ( * _                                                                       : < [ }       ",
"  |   1 2 3 4                                                                     5 6 7 8 9 0       ",
"  a     3 3 3                                                                 b c d e f g h         ",
"  a     ! 3 i j k l                                                         m n o p q r             ",
"  a   s t u v w x y                                                     c z A B C D                 ",
"  E F G H I J K L M N                                               O P Q R S T                     ",
"  U V W X Y Z `  ...+.                                          @.#.$.%.&.*.=.                      ",
"-.;.* s V >.,.'.).!.~.                                      {.].^./.(._.:.                          ",
"<.[.F }.<.|.1.2.3.4.5.                                  6.7.8.9.0.a.b.                              ",
"c.d.e.f.g.h.i.j.k.l.m.                                n.o.p.q.r.s.                                  ",
"g.t.. u.<.v.w.x.y.z.A.                            B.].C.D.E.F.                                      ",
"G.H.f.I.H J.K.L.M.N.O.                        P.Q.R.S.T.U.V.                                        ",
"W.X.Y.H f.Z.`. +.+++@+                    #+$+%+8 &+*+=+                                            ",
"  -+. ;+X >+,+'+)+!+~+                {+: ]+^+/+(+_+                                                ",
"  :+<+}.[+}+|+1+2+!+3+              4+5+6+7+8+9+                                                    ",
"  :+0+a+I.b+c+d+e+!+f+            g+h+i+j+k+                                                        ",
"  :+l+a+m+n+o+p+q+r+s+          t+t+u+v+w+                                                          ",
"  :+W.W x+y+z+A+B+C+D+      3 E+t+                          F+F+F+F+F+F+F+G+H+H+H+H+H+              ",
"  :+I+* J+K+L+M+N+O+        P+                              F+F+F+F+F+F+F+G+H+H+H+H+                ",
"  :+Q+R+S+* T+U+V+W+                                      X+Y+Y+Y+Y+Y+Y+Y+Z+`+`+`+ @                ",
"  :+I+* J+.@*                                           +@@@Y+Y+Y+Y+Y+Y+Y+Z+`+`+`+                  ",
"  :+#@$@%@.@&@                                          F+F+F+F+F+F+F+F+F+G+H+H+H+                  ",
"  :+*@=@Q+-@;@                                                                                      ",
"  :+J+>@,@'@)@                                                                                      ",
"  !@I+~@{@]@^@                                                                                      ",
"  /@(@_@:@<@~@                                                                                      ",
"  [@}@|@1@2@3@                                                                                      ",
"                                                                                                    "};
