/* XPM */
static char * EP_Eingabe2_50_xpm[] = {
"50 32 250 2",
"  	c None",
". 	c #FFFDC1",
"+ 	c #FFFDAB",
"@ 	c #FFFDAF",
"# 	c #FFFEB2",
"$ 	c #FFFCA2",
"% 	c #FEFDD3",
"& 	c #FFFEE8",
"* 	c #FFFDB0",
"= 	c #FFFDA1",
"- 	c #FFFDCB",
"; 	c #FFFEDC",
"> 	c #FFFDAD",
", 	c #FFFDA5",
"' 	c #FEB4C6",
") 	c #FFA5BA",
"! 	c #FFA9C5",
"~ 	c #BCFDFF",
"{ 	c #B4FDFE",
"] 	c #B9FEFE",
"^ 	c #B1FDFF",
"/ 	c #FFAFC2",
"( 	c #FFDEE6",
"_ 	c #FFCDDA",
": 	c #FFA1B8",
"< 	c #A4FDFE",
"[ 	c #DBFEFD",
"} 	c #EAFFFE",
"| 	c #AEFDFE",
"1 	c #FFE6EC",
"2 	c #FFD3DE",
"3 	c #FFA2B8",
"4 	c #A3FDFF",
"5 	c #C6FEFE",
"6 	c #D0FEFE",
"7 	c #B0FDFF",
"8 	c #FFBDCE",
"9 	c #FFA9BE",
"0 	c #FFA9BD",
"a 	c #ABFDFF",
"b 	c #E0FEC0",
"c 	c #D5FFA8",
"d 	c #DDFFAC",
"e 	c #DAFFB1",
"f 	c #ACE2AB",
"g 	c #9FCBCD",
"h 	c #9CBFC1",
"i 	c #7DAF9C",
"j 	c #68999B",
"k 	c #5A95B9",
"l 	c #407BAE",
"m 	c #386C99",
"n 	c #34638B",
"o 	c #41769D",
"p 	c #326188",
"q 	c #335E82",
"r 	c #4A81A5",
"s 	c #35658F",
"t 	c #417DB1",
"u 	c #33638C",
"v 	c #417EB2",
"w 	c #366792",
"x 	c #4E96D2",
"y 	c #519EDB",
"z 	c #498DCA",
"A 	c #4586BE",
"B 	c #57A7F0",
"C 	c #55A3E8",
"D 	c #3E78AA",
"E 	c #3A70A1",
"F 	c #56A5EB",
"G 	c #54A3E8",
"H 	c #488CC7",
"I 	c #417FB4",
"J 	c #3A709E",
"K 	c #3A6F9E",
"L 	c #3C75A5",
"M 	c #4A8FCA",
"N 	c #488CC5",
"O 	c #386D9A",
"P 	c #3B71A1",
"Q 	c #4280B5",
"R 	c #4381B6",
"S 	c #4689C1",
"T 	c #427FB4",
"U 	c #53A0E3",
"V 	c #4689C2",
"W 	c #356591",
"X 	c #34658F",
"Y 	c #356690",
"Z 	c #326089",
"` 	c #2F5A80",
" .	c #34658E",
"..	c #386C98",
"+.	c #336189",
"@.	c #34638C",
"#.	c #396E9C",
"$.	c #3E78A9",
"%.	c #417FB3",
"&.	c #3E79AB",
"*.	c #315F86",
"=.	c #326088",
"-.	c #305B81",
";.	c #315E85",
">.	c #325E87",
",.	c #305B82",
"'.	c #326189",
").	c #386B98",
"!.	c #3A719F",
"~.	c #315E86",
"{.	c #33618A",
"].	c #3D76A7",
"^.	c #305C82",
"/.	c #000000",
"(.	c #010203",
"_.	c #162B3D",
":.	c #162A3C",
"<.	c #0E1A25",
"[.	c #010202",
"}.	c #122332",
"|.	c #15293B",
"1.	c #081016",
"2.	c #010102",
"3.	c #132534",
"4.	c #182E41",
"5.	c #11202D",
"6.	c #5A5A5A",
"7.	c #F5F5F5",
"8.	c #2E2E2E",
"9.	c #DFDFDF",
"0.	c #9E9E9E",
"a.	c #C9C9C9",
"b.	c #B4B4B4",
"c.	c #5E5E5E",
"d.	c #FFFFFF",
"e.	c #FEFEFE",
"f.	c #FDFDFD",
"g.	c #FCFCFC",
"h.	c #303030",
"i.	c #E8E8E8",
"j.	c #A5A5A5",
"k.	c #D2D2D2",
"l.	c #BBBBBB",
"m.	c #A9A9A9",
"n.	c #C3C3C3",
"o.	c #9A9A9A",
"p.	c #888888",
"q.	c #C4C4C4",
"r.	c #BDBDBD",
"s.	c #7F7F7F",
"t.	c #848484",
"u.	c #A0A0A0",
"v.	c #DADADA",
"w.	c #ADADAD",
"x.	c #C6C6C6",
"y.	c #B9B9B9",
"z.	c #838383",
"A.	c #C1C1C1",
"B.	c #BFBFBF",
"C.	c #818181",
"D.	c #A1A1A1",
"E.	c #F6F6F6",
"F.	c #D3D3D3",
"G.	c #8B8B8B",
"H.	c #878787",
"I.	c #8E8E8E",
"J.	c #7D7D7D",
"K.	c #DBDBDB",
"L.	c #868686",
"M.	c #8F8F8F",
"N.	c #E5E5E5",
"O.	c #F0F0F0",
"P.	c #575757",
"Q.	c #F8F8F8",
"R.	c #5C5C5C",
"S.	c #CCCCCC",
"T.	c #9D9D9D",
"U.	c #686868",
"V.	c #DDDDDD",
"W.	c #D1D1D1",
"X.	c #757575",
"Y.	c #C0C0C0",
"Z.	c #7A7A7A",
"`.	c #EAEAEA",
" +	c #B0B0B0",
".+	c #E6E6E6",
"++	c #949494",
"@+	c #A8A8A8",
"#+	c #D6D6D6",
"$+	c #767676",
"%+	c #CACACA",
"&+	c #D4D4D4",
"*+	c #858585",
"=+	c #D8D8D8",
"-+	c #828282",
";+	c #969696",
">+	c #B7B7B7",
",+	c #7E7E7E",
"'+	c #616161",
")+	c #595959",
"!+	c #979797",
"~+	c #626262",
"{+	c #808080",
"]+	c #606060",
"^+	c #EFEFEF",
"/+	c #3D3D3D",
"(+	c #6F6F6F",
"_+	c #D7D7D7",
":+	c #676767",
"<+	c #DEDEDE",
"[+	c #787878",
"}+	c #AEAEAE",
"|+	c #565656",
"1+	c #B3B3B3",
"2+	c #C5C5C5",
"3+	c #6C6C6C",
"4+	c #B5B5B5",
"5+	c #FAFAFA",
"6+	c #898989",
"7+	c #727272",
"8+	c #A7A7A7",
"9+	c #5D5D5D",
"0+	c #E4E4E4",
"a+	c #C2C2C2",
"b+	c #ECECEC",
"c+	c #6E6E6E",
"d+	c #C7C7C7",
"e+	c #F9F9F9",
"f+	c #7C7C7C",
"g+	c #F4F4F4",
"h+	c #707070",
"i+	c #4E4E4E",
"j+	c #BCBCBC",
"k+	c #BABABA",
"l+	c #656565",
"m+	c #C8C8C8",
"n+	c #3B3B3B",
"o+	c #4A4A4A",
"p+	c #EBEBEB",
"q+	c #F1F1F1",
"r+	c #F7F7F7",
"s+	c #E7E7E7",
"t+	c #F2F2F2",
"u+	c #FBFBFB",
"v+	c #EDEDED",
"w+	c #222222",
"x+	c #111111",
"y+	c #545454",
"z+	c #4C4C4C",
"A+	c #434343",
"                                                                                                    ",
"                                      . + @ #                                                       ",
"                                      $ % & *                                                       ",
"                                      = - ; @                                                       ",
"                                        > , @         ' ) !                                         ",
"                            ~ { ] ^                   / ( _ :                                       ",
"                            < [ } |                   / 1 2 3                                       ",
"                            4 5 6 7                   8 9 0                                         ",
"                              a 4         b c d e                                                   ",
"                                          f g h i j                                                 ",
"                                            k l m n                                                 ",
"                                              o p q                                                 ",
"                                              r s                                                   ",
"                                              t u                                                   ",
"                                              v w                                                   ",
"                                              x y z                                                 ",
"                                          v A B C D E                                               ",
"                          F G H I E J J J K L M N K O P Q R R v S H T                               ",
"                      U V D W X Y Z ` ` ` `  ...m w +.` ` ` ` ` ` ` @.#.$.v                         ",
"                  %.&.O *.=.                -.;.>.,.                  ` '.).l                       ",
"                t !.~.                        ).{.                          w ].v                   ",
"              l #.^.                          v w                             ).D                   ",
"/./././././.(._.:.<.[././././././././././././.}.|.1././././././././././././.2.3.4.5././././././././.",
"6.7.7.7.7.7.7.7.7.7.7.7.7.7.7.8./.9.7.7.7.7.7.7.7.7.7.7.7.7.7.0././.a.7.7.7.7.7.7.7.7.7.7.7.7.7.b./.",
"c.d.d.e.e.d.f.g.g.f.f.g.g.e.d.h./.i.f.d.d.f.f.g.g.f.e.g.g.e.d.j././.k.e.g.g.g.e.g.g.g.e.g.g.f.d.l./.",
"c.d.d.m.n.e.o.p.p.q.r.s.t.u.d.h./.v.w.d.x.y.u.z.p.A.B.C.p.D.E.j././.k.F.G.H.I.A.J.p.u.K.L.p.M.N.l./.",
"c.d.O.P.z.Q.R.S.S.i.T.0.F.U.V.h./.W.X.Y.Z.`.Z. +S..+++@+#+$+%+j././.k.O.&+*+I.w.H.S.=+x.-+#+0.;+l./.",
"c.d.>+,+'+i.)+C.H.#+!+~+{+]+^+h./.W.)+/+A.d.(+(+C._+++U.*+:+<+j././.k.d.%+[+E.}+|+C.1+2+6.*+3+4+l./.",
"c.5+6+7+U.8+9+0+N.E.T.0.#+N.d.h./.W.'+a+[+O.J.q.0+E.++@+#+N.f.j././.k.b+c+V.d.1+!+0+^+d+-+#+<+e+l./.",
"c.b+f+g+Q.h+i+h+h+u.o.j+d.d.d.h./.W.X.d.k+L.l+'+h+;+++m+d.d.d.j././.k.L.n+h+z.!+o+h+h+a+;+d.d.d.l./.",
"c.f.g+d.d.g+O.p+p+q+r+5+d.d.d.h./.s+g+d.f.t+q+p+p+O.E.u+d.d.d.j././.k.g+p+p+v+7.p+p+p+5+r+d.d.d.l./.",
"w+R.R.R.R.R.R.R.R.R.R.R.R.R.R.x+/.y+R.R.R.R.R.R.R.R.R.R.R.R.R.n+/./.z+R.R.R.R.R.R.R.R.R.R.R.R.R.A+/."};
