/* XPM */
static char * EP_Steigern_50_xpm[] = {
"50 32 256 2",
"  	c None",
". 	c #020202",
"+ 	c #069A22",
"@ 	c #7E5A0E",
"# 	c #0A9A22",
"$ 	c #034D12",
"% 	c #292206",
"& 	c #A69E6E",
"* 	c #286C16",
"= 	c #BAE28A",
"- 	c #7A7E8A",
"; 	c #F29ABA",
"> 	c #1E5010",
", 	c #127E22",
"' 	c #D27F04",
") 	c #9EE6C6",
"! 	c #72460A",
"~ 	c #A6D6C6",
"{ 	c #229A2A",
"] 	c #4C9232",
"^ 	c #7E6E2E",
"/ 	c #A29AAE",
"( 	c #51545C",
"_ 	c #329A2E",
": 	c #025413",
"< 	c #DECAAA",
"[ 	c #8ACAB2",
"} 	c #2F5B14",
"| 	c #E6AE5C",
"1 	c #E6C68E",
"2 	c #8E8674",
"3 	c #627226",
"4 	c #C6AE76",
"5 	c #D2FAAA",
"6 	c #729EAA",
"7 	c #494B53",
"8 	c #473A0D",
"9 	c #B27A92",
"0 	c #DAB5FE",
"a 	c #AE7A06",
"b 	c #025A16",
"c 	c #45484D",
"d 	c #6E7246",
"e 	c #86BAC6",
"f 	c #EED6DE",
"g 	c #2E1B06",
"h 	c #A9AEBE",
"i 	c #364D12",
"j 	c #A2CADA",
"k 	c #54560E",
"l 	c #FEE6D6",
"m 	c #66567E",
"n 	c #B6DAE6",
"o 	c #724A0A",
"p 	c #828A96",
"q 	c #025E16",
"r 	c #AAA272",
"s 	c #564A12",
"t 	c #2E962E",
"u 	c #EEE2FE",
"v 	c #8AA2C6",
"w 	c #A27939",
"x 	c #CAB89E",
"y 	c #769EAA",
"z 	c #1E1E22",
"A 	c #4B350A",
"B 	c #82560E",
"C 	c #A6BADE",
"D 	c #F2D09A",
"E 	c #2A2608",
"F 	c #E1DEB3",
"G 	c #E2C2CE",
"H 	c #A6AABA",
"I 	c #766E4E",
"J 	c #E2AC58",
"K 	c #026A1A",
"L 	c #9E9E7E",
"M 	c #B2E2CE",
"N 	c #BADEEA",
"O 	c #5E868E",
"P 	c #3A3A42",
"Q 	c #069322",
"R 	c #AE8696",
"S 	c #8E681E",
"T 	c #CE9EFE",
"U 	c #424612",
"V 	c #DA942A",
"W 	c #725222",
"X 	c #FAC0D6",
"Y 	c #2A2A2E",
"Z 	c #7E7E5E",
"` 	c #4C5E26",
" .	c #7EA6AE",
"..	c #A68246",
"+.	c #E2F2F6",
"@.	c #646A74",
"#.	c #767A32",
"$.	c #3A7212",
"%.	c #8A9AA6",
"&.	c #362E0A",
"*.	c #865A06",
"=.	c #566272",
"-.	c #9C9078",
";.	c #156D1D",
">.	c #8E8A3E",
",.	c #DBFEB3",
"'.	c #5E7292",
").	c #9A782A",
"!.	c #C6E2EA",
"~.	c #B2FEDA",
"{.	c #06781C",
"].	c #424A3A",
"^.	c #E6D6B6",
"/.	c #C69AAE",
"(.	c #665626",
"_.	c #869296",
":.	c #48470F",
"<.	c #76760A",
"[.	c #DEBDFE",
"}.	c #685C2A",
"|.	c #B2BACA",
"1.	c #F0FEE4",
"2.	c #929A96",
"3.	c #9EEAF6",
"4.	c #144E12",
"5.	c #FECEAE",
"6.	c #AEBEC6",
"7.	c #EEC27A",
"8.	c #0A0A02",
"9.	c #46621E",
"0.	c #4E8E2A",
"a.	c #666E76",
"b.	c #3E3E0E",
"c.	c #367E22",
"d.	c #D68E1A",
"e.	c #315212",
"f.	c #1A801E",
"g.	c #4A520A",
"h.	c #A6CAC6",
"i.	c #807832",
"j.	c #5F5B2B",
"k.	c #33320A",
"l.	c #F2D6AE",
"m.	c #FEF2EA",
"n.	c #A2865E",
"o.	c #FECAA4",
"p.	c #D2DEEE",
"q.	c #026E1A",
"r.	c #9A8E9E",
"s.	c #423E0E",
"t.	c #92AAD2",
"u.	c #8ECEB6",
"v.	c #3A8222",
"w.	c #767A84",
"x.	c #AA8E62",
"y.	c #7C6812",
"z.	c #BC8AA0",
"A.	c #9EC2BA",
"B.	c #3D360E",
"C.	c #949CAA",
"D.	c #627A2E",
"E.	c #B6C6D2",
"F.	c #8296BA",
"G.	c #A2B6BA",
"H.	c #2E262A",
"I.	c #222226",
"J.	c #DAD6CA",
"K.	c #756212",
"L.	c #A2AABA",
"M.	c #9CA2B3",
"N.	c #EAD2FE",
"O.	c #98B6D8",
"P.	c #666E1E",
"Q.	c #3A621C",
"R.	c #A6B6BE",
"S.	c #965A02",
"T.	c #0E4612",
"U.	c #9A6719",
"V.	c #D6EAE2",
"W.	c #FEDCC6",
"X.	c #9EC6BE",
"Y.	c #E6FECE",
"Z.	c #B27A06",
"`.	c #AEE6EE",
" +	c #727E82",
".+	c #92825E",
"++	c #D2860E",
"@+	c #C6A6BA",
"#+	c #8A7E39",
"$+	c #524818",
"%+	c #086618",
"&+	c #565A62",
"*+	c #366E16",
"=+	c #08861E",
"-+	c #5C501E",
";+	c #0C6E1A",
">+	c #F2DCB8",
",+	c #9296A6",
"'+	c #4E420E",
")+	c #3E4F12",
"!+	c #267622",
"~+	c #C6C2AE",
"{+	c #726632",
"]+	c #8A9EC2",
"^+	c #525226",
"/+	c #9AF2C6",
"(+	c #B6EED6",
"_+	c #EEDEFE",
":+	c #3E7A2A",
"<+	c #7A6A2A",
"[+	c #ACB5C4",
"}+	c #B8C1D2",
"|+	c #4A7212",
"1+	c #070602",
"2+	c #4A4E16",
"3+	c #727682",
"4+	c #BA820E",
"5+	c #128E22",
"6+	c #B8CAE8",
"7+	c #0A6A18",
"8+	c #624E16",
"9+	c #9A9EAE",
"0+	c #96620E",
"a+	c #AC9676",
"b+	c #3A5612",
"c+	c #E4FEBE",
"d+	c #726A12",
"e+	c #DEAE6A",
"f+	c #9CC8D2",
"g+	c #12861E",
"h+	c #565206",
"i+	c #B2B4C4",
"j+	c #97B1D3",
"k+	c #EAB666",
"l+	c #877733",
"m+	c #4E4A1E",
"n+	c #60646C",
"o+	c #6D727E",
"p+	c #F6EAFE",
"q+	c #0E5E16",
"r+	c #FED2B2",
"s+	c #BE7A02",
"t+	c #8D94A1",
"u+	c #955D0C",
"v+	c #066E1A",
"w+	c #A27E46",
"x+	c #0A4E12",
"y+	c #888D99",
"z+	c #7D828E",
"A+	c #FAA2BE",
"B+	c #AAC2CE",
"C+	c #3E4246",
"D+	c #323236",
"E+	c #9E9676",
"F+	c #C2EADA",
"G+	c #2F360A",
"                                                                                                    ",
"                                                      0 [.T                       ' ' ++'       F   ",
"                                                    0 _+p+[.                      ' V D V '     F   ",
"                                                    [.N.u [.                      ' e+>+1 d.    F   ",
"        S.                              ~.(+/+        0 0                         | < x ^.k+    F   ",
"      u+U.u+                          [ F+V.)                                     J l.x l.7.    4   ",
"      U.a+w+0+                        X.M ~ u.                                    ' | 1 J       u+  ",
"      n.2 -.w   L                 c - 6.A.h.G.o+                                s+Z.4+' Z.      u+  ",
"      x.-.a+..  .+                  3+[+&+y+2.        O                         * * |+a $.%+    u+  ",
"    S.0+w w                         _.R.9+[+,+@.     .f+`.                    K K q.q.<.K q.q.Q y.  ",
"    h+h+B k                           p 9+M.&+m     6 !.+.3.                  q.K K K *+K 7+q.Q d+  ",
"  $ $ $ g.4.$ : )+                    (     ( / o+  6 n f+e %.7               Q =+q.{.q.K q.=+Q d+  ",
"  : $ $ > $ $ b }                           9 r.h 9+}+N j 6.%.7               + + Q Q =+=+Q + + d+  ",
"  %+q b : : b 7+}                         X X z.h E.E.[+}+[+@.                + + + # f.f.+ + + y.  ",
"  v+v+7+%+q+K q.}                       A+f G z.h }+ +c ,+i+z+(               + + + # c.3 _ _ , K.  ",
"  q.q.q.q+} ;+v+i                       ; /./.@+}+h ( z - }+[+t+a.I.          + + + + #.<+#+>.!+K.  ",
"  v+v+v+Q.$+j.9.i                           R H.- |.p - |.}+o+                + + + { #.i.^ #+:+K.  ",
"  q.q.;+` -+}.j.U                         (   C+M.[+|.}+}+i+p                 + + + v.^ {+#+).P.K.  ",
"  v+v+;.^+j.(.-+m+                  n+  D+w.c n+t+w.9+H w.y+C.                + + + 0.E+~+).0+D.K.  ",
"  q.q.;.Z .+W 8+2+                  _.y+a.t+c ( 7   o+y+    2.].              + + Q ] J.J.0+S D.K.  ",
"  v+q.;.d I }.m+U                   y+[+E.|.9+t+@.  ( n+    5 =               + + + ] & & l+^ 9.K.  ",
"  q.%+> B.B.k.G+b.              ( z+M.[+,+M.[+y+      z   ,.1.c+              + + 5+Q.s $+s $+i K.  ",
"    4.k.&.k.&.k.8               z+v O.j+=.@.[+z+          ,.1.Y.                g+b+'+s.'+'+'+'+B   ",
"    T.G+&.k.k.&.A                 t.p.6+F.C.[+C.o+P       ,.c+                  %+i '+'+'+'+s.'+B   ",
"    T.k.&.G+G+&.A               '.t.p.6+C }+L.o+                                K e.'+s.:.e.'+'+B   ",
"      E % E % % A                 O.O.v C.p C.                                  q.e.'+'+:.e.'+'+B   ",
"      1+.   . . g                     o+o+  o+      o.                            s.8 8 s.  8 8 B   ",
"    . . .   . . g                     Y           W.m.5.                          1+8.1+  . 1+1+!   ",
"    . . .     . g                                 W.l o.                          . . .   . . . !   ",
"                                                  r+                            . . . .   . . . !   ",
"                                                                                . . . .     . . !   ",
"                                                                                                    "};
