/* XPM */
static char * Erase_50_xpm[] = {
"50 32 254 2",
"  	c None",
". 	c #8D00EE",
"+ 	c #9900FC",
"@ 	c #8C00E9",
"# 	c #7000C5",
"$ 	c #9C00FF",
"% 	c #9900FB",
"& 	c #8901E7",
"* 	c #6F05C0",
"= 	c #A400FE",
"- 	c #9A00FC",
"; 	c #8801E5",
"> 	c #7515C0",
", 	c #926AB2",
"' 	c #F600E2",
") 	c #C200FB",
"! 	c #9E00FF",
"~ 	c #9900FA",
"{ 	c #8C01E8",
"] 	c #7411C1",
"^ 	c #8D68AB",
"/ 	c #9F97A5",
"( 	c #FF00DC",
"_ 	c #F700D6",
": 	c #D200E7",
"< 	c #A300FC",
"[ 	c #9700FA",
"} 	c #8302E0",
"| 	c #7311BF",
"1 	c #9472AD",
"2 	c #9884A8",
"3 	c #761EBF",
"4 	c #FF00D9",
"5 	c #FB00D7",
"6 	c #DE00DA",
"7 	c #A700F2",
"8 	c #9200F2",
"9 	c #8501E4",
"0 	c #7913C8",
"a 	c #8C63AD",
"b 	c #A197A8",
"c 	c #7D36B6",
"d 	c #6F00C9",
"e 	c #FF00D8",
"f 	c #FF00D6",
"g 	c #FE00D5",
"h 	c #E100DB",
"i 	c #A800E6",
"j 	c #8401E2",
"k 	c #7A06D4",
"l 	c #7B16CE",
"m 	c #9361BB",
"n 	c #9C97A1",
"o 	c #773FA3",
"p 	c #6403B2",
"q 	c #FF00D5",
"r 	c #FD00D3",
"s 	c #F002CF",
"t 	c #AD02D6",
"u 	c #8206D7",
"v 	c #7B13CF",
"w 	c #8830CF",
"x 	c #A15ED8",
"y 	c #A081B9",
"z 	c #815E9F",
"A 	c #6516A6",
"B 	c #FF00DD",
"C 	c #FF00DB",
"D 	c #FE00D4",
"E 	c #FA02CF",
"F 	c #EC05C4",
"G 	c #C509BE",
"H 	c #8915C9",
"I 	c #872ECD",
"J 	c #A15CD8",
"K 	c #BF89EA",
"L 	c #C99BEE",
"M 	c #8C5AB5",
"N 	c #661AA5",
"O 	c #FF00DF",
"P 	c #FB01D1",
"Q 	c #F304C6",
"R 	c #E40BB6",
"S 	c #CE17AE",
"T 	c #AA2EC2",
"U 	c #A35BD6",
"V 	c #C28CED",
"W 	c #C896F2",
"X 	c #B372E8",
"Y 	c #9042D0",
"Z 	c #6D19B2",
"` 	c #FF00D7",
" .	c #FD01D3",
"..	c #F703CC",
"+.	c #E908BB",
"@.	c #DA14AC",
"#.	c #D229A8",
"$.	c #D857C6",
"%.	c #CE89E7",
"&.	c #CE9FF4",
"*.	c #BB82EB",
"=.	c #9540DB",
"-.	c #7A16CD",
";.	c #7205CB",
">.	c #6600B9",
",.	c #FE00D3",
"'.	c #F902CF",
").	c #EB08BE",
"!.	c #DD0EAE",
"~.	c #D322A6",
"{.	c #D751B4",
"].	c #E384D2",
"^.	c #DE9CEC",
"/.	c #BC81E7",
"(.	c #9041D1",
"_.	c #7C19CD",
":.	c #7203CB",
"<.	c #7100CC",
"[.	c #FC01D0",
"}.	c #F204C5",
"|.	c #E30BB5",
"1.	c #D410A4",
"2.	c #D115A0",
"3.	c #E179C5",
"4.	c #ED9FDD",
"5.	c #D489EA",
"6.	c #9D4DDA",
"7.	c #7F1FCC",
"8.	c #7408CB",
"9.	c #7101CC",
"0.	c #7000CC",
"a.	c #FF00DA",
"b.	c #FC00D0",
"c.	c #F301C6",
"d.	c #E30BB3",
"e.	c #D614A6",
"f.	c #D414A2",
"g.	c #E45EC0",
"h.	c #F4A2DE",
"i.	c #F08DD6",
"j.	c #D451C7",
"k.	c #9018C4",
"l.	c #7306CB",
"m.	c #7001CB",
"n.	c #7100CD",
"o.	c #7300D1",
"p.	c #FC00D4",
"q.	c #F601CA",
"r.	c #E805B7",
"s.	c #D90CA7",
"t.	c #D41CA5",
"u.	c #DA31AF",
"v.	c #EE7BD0",
"w.	c #F289D6",
"x.	c #E25EBF",
"y.	c #D127AA",
"z.	c #AB0BAF",
"A.	c #7C02C5",
"B.	c #7000CB",
"C.	c #F500C9",
"D.	c #E705BC",
"E.	c #DD15AF",
"F.	c #D132A8",
"G.	c #DE56BA",
"H.	c #F09AD9",
"I.	c #E559C0",
"J.	c #D125A3",
"K.	c #CF0E9C",
"L.	c #C003A2",
"M.	c #9500B8",
"N.	c #7500C9",
"O.	c #FC00D1",
"P.	c #F401C6",
"Q.	c #EB05BC",
"R.	c #DD14AF",
"S.	c #D735AF",
"T.	c #D95FBA",
"U.	c #EF91D6",
"V.	c #F394D9",
"W.	c #E465C2",
"X.	c #D62FAA",
"Y.	c #D00F9D",
"Z.	c #D0049A",
"`.	c #D00199",
" +	c #BC00A3",
".+	c #F900C6",
"++	c #F300C3",
"@+	c #E702B7",
"#+	c #DB0FAC",
"$+	c #D630AD",
"%+	c #DD65BD",
"&+	c #EB8FD4",
"*+	c #F591DB",
"=+	c #E263C1",
"-+	c #DF38B3",
";+	c #D0129E",
">+	c #D0059A",
",+	c #D00099",
"'+	c #D1009A",
")+	c #EC01BE",
"!+	c #E703B9",
"~+	c #DB10AA",
"{+	c #D62AAA",
"]+	c #DC60BC",
"^+	c #EE8FD5",
"/+	c #F394DA",
"(+	c #E867C7",
"_+	c #D636AD",
":+	c #D0149E",
"<+	c #D0069B",
"[+	c #D0019A",
"}+	c #D90DAB",
"|+	c #D523AC",
"1+	c #D955B6",
"2+	c #E986CF",
"3+	c #F69EDF",
"4+	c #E577C8",
"5+	c #DD41B4",
"6+	c #D116A0",
"7+	c #D0079B",
"8+	c #D839AE",
"9+	c #D559B5",
"0+	c #DE81C6",
"a+	c #F495DA",
"b+	c #EE76CE",
"c+	c #DD3EB2",
"d+	c #D019A0",
"e+	c #D10099",
"f+	c #E28ECC",
"g+	c #EEA0D9",
"h+	c #F58BD9",
"i+	c #EB49C0",
"j+	c #D51EA5",
"k+	c #D0089B",
"l+	c #D00299",
"m+	c #D89DC8",
"n+	c #EA85D0",
"o+	c #E74EBF",
"p+	c #D91DA7",
"q+	c #D0069A",
"r+	c #D1019A",
"s+	c #D2009B",
"t+	c #D6009D",
"u+	c #D241AC",
"v+	c #D425A6",
"w+	c #D10B9D",
"x+	c #D0029A",
"y+	c #D2009A",
"z+	c #D900A0",
"A+	c #D807A0",
"B+	c #D3009C",
"C+	c #D3009B",
"D+	c #D5009D",
"E+	c #D8009F",
"                                                                                                    ",
"                                                                                                    ",
"                                                                                  .                 ",
"                                                                              + @ #                 ",
"                                                                          $ % & *                   ",
"                                                                      = $ - ; > ,                   ",
"                                                                  ' ) ! ~ { ] ^ /                   ",
"                                                              ( _ : < [ } | 1 2 3                   ",
"                                                            4 5 6 7 8 9 0 a b c d                   ",
"                                                        e f g h i j k l m n o p                     ",
"                                                    e f q r s t u v w x y z A                       ",
"                                                B C q D E F G H I J K L M N                         ",
"                                            O ( e g P Q R S T U V W X Y Z                           ",
"                                          f ` f  ...+.@.#.$.%.&.*.=.-.;.>.                          ",
"                                      q D q ,.'.).!.~.{.].^./.(._.:.<.                              ",
"                                  e q q f [.}.|.1.2.3.4.5.6.7.8.9.0.                                ",
"                              O a.f q b.c.d.e.f.g.h.i.j.k.l.m.n.o.                                  ",
"                            4 ` f p.q.r.s.t.u.v.w.x.y.z.A.B.n.                                      ",
"                          ` q r C.D.E.F.G.H.w.I.J.K.L.M.N.                                          ",
"                        g O.P.Q.R.S.T.U.V.W.X.Y.Z.`. +                                              ",
"                      .+++@+#+$+%+&+*+=+-+;+>+,+'+                                                  ",
"                    )+!+~+{+]+^+/+(+_+:+<+[+'+                                                      ",
"                    }+|+1+2+3+4+5+6+7+`.'+                                                          ",
"                  8+9+0+a+b+c+d+7+`.e+                                                              ",
"                  f+g+h+i+j+k+l+,+                                                                  ",
"                m+n+o+p+q+r+s+t+                                                                    ",
"                u+v+w+x+y+z+                                                                        ",
"              A+q+x+'+B+                                                                            ",
"              s+C+D+                                                                                ",
"              E+                                                                                    ",
"                                                                                                    ",
"                                                                                                    "};
