/* XPM */
static char * Eschar_trans_26_xpm[] = {
"41 26 256 2",
"  	c None",
". 	c #26AE02",
"+ 	c #664E1E",
"@ 	c #3EA20A",
"# 	c #BA9E22",
"$ 	c #5ACA22",
"% 	c #7EC63A",
"& 	c #9ED25E",
"* 	c #BA9E28",
"= 	c #666A1A",
"- 	c #826A0E",
"; 	c #9A821A",
"> 	c #92C24A",
", 	c #6EB636",
"' 	c #E6D68E",
") 	c #928656",
"! 	c #829232",
"~ 	c #A6C256",
"{ 	c #7ABA3A",
"] 	c #BEAA52",
"^ 	c #B89E3E",
"/ 	c #A2861C",
"( 	c #C0BE68",
"_ 	c #46920E",
": 	c #C7B262",
"< 	c #EADE9A",
"[ 	c #2ABA02",
"} 	c #CECA7A",
"| 	c #AE921A",
"1 	c #BACE6A",
"2 	c #C6AA36",
"3 	c #48B40E",
"4 	c #2ABE02",
"5 	c #AA923E",
"6 	c #AA9E63",
"7 	c #5E8E1A",
"8 	c #A29256",
"9 	c #D6C67D",
"0 	c #9E864A",
"a 	c #2AC202",
"b 	c #36BA0A",
"c 	c #CEBA64",
"d 	c #CECE7A",
"e 	c #51CA1B",
"f 	c #C0AA5A",
"g 	c #A6923A",
"h 	c #B69A23",
"i 	c #2ACA02",
"j 	c #C6BE6E",
"k 	c #62761E",
"l 	c #C2B266",
"m 	c #C2A622",
"n 	c #36BE06",
"o 	c #E6E296",
"p 	c #DECE86",
"q 	c #927A3F",
"r 	c #D2BE6E",
"s 	c #E2D28A",
"t 	c #66C628",
"u 	c #6A521E",
"v 	c #82662E",
"w 	c #DEDA8E",
"x 	c #A28C30",
"y 	c #B8A44E",
"z 	c #D2C276",
"A 	c #AA922F",
"B 	c #47CA13",
"C 	c #C2B26B",
"D 	c #C6A62A",
"E 	c #9A8634",
"F 	c #BDAA67",
"G 	c #B29A32",
"H 	c #36CA0A",
"I 	c #BAA652",
"J 	c #98864C",
"K 	c #8D8252",
"L 	c #A3965D",
"M 	c #8A7622",
"N 	c #7C6226",
"O 	c #725E0A",
"P 	c #AAA65E",
"Q 	c #D4CA7E",
"R 	c #529A12",
"S 	c #968E5A",
"T 	c #C6B672",
"U 	c #B69E38",
"V 	c #CABA72",
"W 	c #B2921E",
"X 	c #7A7222",
"Y 	c #72C632",
"Z 	c #BE9E21",
"` 	c #7A7622",
" .	c #968232",
"..	c #A68A1A",
"+.	c #CEBA6A",
"@.	c #A78E28",
"#.	c #6A5A1E",
"$.	c #DACA82",
"%.	c #BCA648",
"&.	c #866E2A",
"*.	c #BAA656",
"=.	c #C2A626",
"-.	c #C6AA3A",
";.	c #CDBE7B",
">.	c #D2C288",
",.	c #E6DA92",
"'.	c #2ECE02",
").	c #2AC602",
"!.	c #8A9236",
"~.	c #E6D28E",
"{.	c #765E0E",
"].	c #BEA222",
"^.	c #B39A2E",
"/.	c #E2CE8A",
"(.	c #3ACA0A",
"_.	c #F2E29E",
":.	c #B2A25A",
"<.	c #AE8E16",
"[.	c #76D23A",
"}.	c #DED292",
"|.	c #88C440",
"1.	c #BAAA6E",
"2.	c #CAB672",
"3.	c #BEAA4A",
"4.	c #B0C45E",
"5.	c #2ECA02",
"6.	c #D6C27B",
"7.	c #B39627",
"8.	c #CAAE44",
"9.	c #A2CA56",
"0.	c #46BA0E",
"a.	c #CABE6E",
"b.	c #28B602",
"c.	c #7E6A24",
"d.	c #AD9228",
"e.	c #705A22",
"f.	c #8F763A",
"g.	c #DECA85",
"h.	c #32C604",
"i.	c #A69652",
"j.	c #B6A66A",
"k.	c #F2E2A2",
"l.	c #F2DE9E",
"m.	c #3ECA0E",
"n.	c #AE9636",
"o.	c #EAD694",
"p.	c #C2AE55",
"q.	c #AF9A41",
"r.	c #DACE92",
"s.	c #DAC681",
"t.	c #977E3E",
"u.	c #AA8E16",
"v.	c #CABA7C",
"w.	c #5E9416",
"x.	c #958A57",
"y.	c #BA9A22",
"z.	c #CEBA6E",
"A.	c #AA9A5E",
"B.	c #32CA04",
"C.	c #9A8E52",
"D.	c #9E8E52",
"E.	c #765A22",
"F.	c #B59E45",
"G.	c #9A8244",
"H.	c #B2962E",
"I.	c #EEDE9E",
"J.	c #897239",
"K.	c #C2A222",
"L.	c #A69A5F",
"M.	c #D2C27E",
"N.	c #AEA266",
"O.	c #EADA9A",
"P.	c #CAB666",
"Q.	c #32C206",
"R.	c #C2AE62",
"S.	c #CEB65A",
"T.	c #667E1A",
"U.	c #8ACA46",
"V.	c #CEBA72",
"W.	c #B59A2A",
"X.	c #D2BE72",
"Y.	c #C2A226",
"Z.	c #32BA06",
"`.	c #B2A66A",
" +	c #BEAE70",
".+	c #DECE8A",
"++	c #B6961E",
"@+	c #AA8E2E",
"#+	c #6E5622",
"$+	c #C6AA42",
"%+	c #D6CA8A",
"&+	c #9A8E57",
"*+	c #C6AE5A",
"=+	c #C6B26C",
"-+	c #DACA86",
";+	c #C6B67A",
">+	c #CEBE72",
",+	c #B2A265",
"'+	c #AA8E21",
")+	c #CAB660",
"!+	c #AE9630",
"~+	c #BEAE68",
"{+	c #B8A24A",
"]+	c #EEDA9A",
"^+	c #E2D296",
"/+	c #D2BE76",
"(+	c #CABA76",
"_+	c #E6D692",
":+	c #C2AA53",
"<+	c #AE921E",
"[+	c #C2B272",
"}+	c #CEBA76",
"|+	c #9AC64E",
"1+	c #AE9E66",
"2+	c #56CA1E",
"3+	c #C6B266",
"4+	c #C6A622",
"5+	c #C2A63E",
"6+	c #B6C262",
"7+	c #A68E52",
"8+	c #28B202",
"9+	c #C0AE5E",
"0+	c #66CA2C",
"a+	c #B29621",
"b+	c #CEC282",
"c+	c #CEC276",
"d+	c #C6AE4A",
"e+	c #A28E3A",
"f+	c #C2A630",
"g+	c #AE9626",
"h+	c #CEBE76",
"i+	c #42CA0E",
"j+	c #B29A37",
"k+	c #D6C682",
"l+	c #B69A32",
"m+	c #725622",
"n+	c #BAA23E",
"o+	c #AC963E",
"p+	c #968A52",
"q+	c #72CA36",
"r+	c #785E22",
"s+	c #9E925C",
"t+	c #9E8E5A",
"u+	c #D2C27A",
"v+	c #967E46",
"w+	c #C2AA49",
"x+	c #AE9222",
"y+	c #C6B676",
"z+	c #A58A1F",
"A+	c #C2AE69",
"B+	c #EEDE9A",
"C+	c #2EC202",
"D+	c #967A3E",
"E+	c #EADA96",
"F+	c #2EC602",
"G+	c #E2D28E",
"                                                                                  ",
"                                                                                  ",
"          i 5.                                              E+I.k.k.B+s           ",
"      5.).4 4                                           O.O.k.k.k.l._.~.$.9       ",
"    a ).a b.4 5.                            -+.+_+I.l.k.k.k.k.k.k.k._.E+g.9 u+    ",
"    ).).i ).a a 5.'.              E+E+o._+E+O.I.k._.l.B+B+I.k.k.k.k.I._+g.6.u+/+/+",
"  5.).[ 8+C+).Z.h.5.'.|+s B+]+B+B+]+O.E+_+G+G+_+G+_+B+k.k.k.I.^+%+b+v.M.9 6./+/+/+",
"'.).4 a @ R n (.t $ B.q+Q g.p /.s G+~.' E+B+I.k.I.k.k.k.k.< >.;+ +`.y+u+6./+/+/+/+",
"5.4 [ 5.3 ` w.5.0+4.q+U.Q /.s s G+' o.O.k._._.k.k.k.k.O.}.>. +1+6 6 V z X.X./+/+/+",
"5.a Q.5.i+!.c.h.m.9.} d s G+~.~.E+I._.k.O.]+l.k.B+I.o.h+ +`.N.L L L.2.c 8.S.z./+/+",
"'.5.B B.(.> &.3 B.[.,.E+E+E+E+B+k._.B+E+E+_._.E+.+$.)+j+j+F.L s+s+t+*+-.* 5+S./+/+",
"i+5.m.t (.B.0.= , & < E+E+E+_+G+/.s ~._+I./.9 h+3+@+a+K.Z ++o+C.&+&+=.K.++++K.)+/+",
"|.B B.$ Y m.F+#.P w _+/.p g.-+-+s G+o.I.o.k+z.{+A a+K.4+m K.a+g D.8 K.h z+'+..{+/+",
"j |.B.e 6+~ { e.0 s .+-+$.-+g..+' E+I.k.p X.n+y.Z 4+4+4+4+4+].x+A A K.W !+: w+P./+",
"/+( 2+% j /+c+r+t.p -+-+g.p /.s E+_.k.O.s.w+| Z K.4+4+4+4+4+4+].# # K.7.] V.>+/+/+",
"/+/+z u+6.6.u+m+J.$.p _+E+B+I.k.B+_+s p p.u.++K.4+K.4+4+K.4+4+K.h h h !+R.V.h+h+h+",
"z 6.9 s.s.s.s.#+J..+G+I.k.k.I.O.s p $.9 l+<.y.].K.4+4+4+4+4+4+K.a+<+z+e+~+V }+}+}+",
"9 s.g.p .+/..+E.q _+B+I.E+_+/.p $.9 6./+x+U H.z+h K.K.K.K.K.m K.a+@.E J 6 T V V V ",
"p G+_+_+_+o.o.e.q k.k._+.+$.s.9 u+u+h+V ..I A ; '+# y.y.h <+K.Y.h 5 p+K s+1.T T T ",
"o.B+B+B+B+B+B+#+q ' /.M.;.h+h+/+/+h+V.:.O o+z+<+w+h U C T =+* ^.a+U `.s+x.s+`.T T ",
"/.G+G+G+G+~.' #+J.G+p ;.(+}+V.>+/+>+V.A+ .n.z+x+:+h l+=+T T h x+x+G [+N.t+) L T T ",
"g.p .+/.s G+s u q s -+(+V V.V.V.>+>+V.V C U z+7.p.h H.l T T W.x+'+G T  +A.x.) T 2.",
"9 s.g..+s G+}++ q -+M.(+V V V }+}+V.V.V V %.'+x+:+# 7.A+T T W.7.'+G T T  +s+K j.T ",
"6.s..+/.G+~.=++ J 6.;.T 2.2.V V V V V V 2.p.h a+:+y.d.l T T l+^.H.U T T T j.x.&+1.",
"p s G+~.s s A+t.C (+T T T T T T T T T T T T T T T T T T T T T T T T T T T T T s+L.",
"/.G+G+s /.p s.;.(+V 2.T T T T T T T T T T T T T 2.V V V V V 2.T T T T T T V V ,+,+"};
