/* XPM */
static char * Excl_32_xpm[] = {
"16 32 129 2",
"  	c None",
". 	c #C00202",
"+ 	c #C00101",
"@ 	c #C00000",
"# 	c #C20909",
"$ 	c #C51616",
"% 	c #C41212",
"& 	c #C10505",
"* 	c #CB2D2D",
"= 	c #D66262",
"- 	c #D35858",
"; 	c #C72323",
"> 	c #C00404",
", 	c #C72020",
"' 	c #D55C5C",
") 	c #E39494",
"! 	c #DC8181",
"~ 	c #CF4545",
"{ 	c #C31111",
"] 	c #CB3939",
"^ 	c #DE7E7E",
"/ 	c #E5A2A2",
"( 	c #DA7F7F",
"_ 	c #CE4D4D",
": 	c #C62020",
"< 	c #D45858",
"[ 	c #E39292",
"} 	c #E5A4A4",
"| 	c #D67373",
"1 	c #CD4545",
"2 	c #C72626",
"3 	c #CB2C2C",
"4 	c #DA6666",
"5 	c #E59A9A",
"6 	c #E4A2A2",
"7 	c #D56B6B",
"8 	c #CC4040",
"9 	c #C72424",
"0 	c #C92626",
"a 	c #D96464",
"b 	c #E3A0A0",
"c 	c #D46666",
"d 	c #CB3A3A",
"e 	c #C61F1F",
"f 	c #C20707",
"g 	c #C61919",
"h 	c #D55A5A",
"i 	c #E59898",
"j 	c #E39D9D",
"k 	c #D36060",
"l 	c #CA3737",
"m 	c #C51B1B",
"n 	c #C10404",
"o 	c #C30E0E",
"p 	c #D24B4B",
"q 	c #E49595",
"r 	c #E19898",
"s 	c #D15858",
"t 	c #C92F2F",
"u 	c #C31313",
"v 	c #C10909",
"w 	c #CF4040",
"x 	c #E29090",
"y 	c #E09494",
"z 	c #CF4F4F",
"A 	c #C62626",
"B 	c #C20B0B",
"C 	c #C10606",
"D 	c #CC3535",
"E 	c #E08A8A",
"F 	c #DF8F8F",
"G 	c #CE4747",
"H 	c #C92B2B",
"I 	c #DE8383",
"J 	c #DE8B8B",
"K 	c #CD4242",
"L 	c #C41515",
"M 	c #DD7B7B",
"N 	c #DE8C8C",
"O 	c #CD4343",
"P 	c #C21010",
"Q 	c #C51A1A",
"R 	c #DA7070",
"S 	c #DD8888",
"T 	c #CC3F3F",
"U 	c #C10A0A",
"V 	c #D76363",
"W 	c #DC8383",
"X 	c #CB3B3B",
"Y 	c #C10707",
"Z 	c #D14E4E",
"` 	c #DA7A7A",
" .	c #CC3B3B",
"..	c #D76D6D",
"+.	c #C10808",
"@.	c #C82424",
"#.	c #D15353",
"$.	c #C92E2E",
"%.	c #C30F0F",
"&.	c #C51E1E",
"*.	c #C20C0C",
"=.	c #CB2B2B",
"-.	c #CD3333",
";.	c #C92525",
">.	c #C40D0D",
",.	c #CB2E2E",
"'.	c #D75D5D",
").	c #DE7D7D",
"!.	c #DB6E6E",
"~.	c #D03C3C",
"{.	c #C10303",
"].	c #CD3B3B",
"^.	c #E08787",
"/.	c #E9AAAA",
"(.	c #E49898",
"_.	c #D76161",
":.	c #C41111",
"<.	c #CA3030",
"[.	c #DD7979",
"}.	c #E59C9C",
"|.	c #D45353",
"1.	c #C30C0C",
"2.	c #C31212",
"3.	c #D14646",
"4.	c #D86464",
"5.	c #D55656",
"6.	c #CB2A2A",
"7.	c #C61B1B",
"8.	c #C51313",
"            . + @               ",
"          # $ % &               ",
"          * = - ; >             ",
"        , ' ) ! ~ {             ",
"        ] ^ / ( _ : &           ",
"        < [ } | 1 2 #           ",
"      3 4 5 6 7 8 9 #           ",
"      0 a 5 b c d e f           ",
"      g h i j k l m n @         ",
"      o p q r s t u . @         ",
"      v w x y z A B + @         ",
"      C D E F G m > @ @         ",
"      > H I J K L . @ @         ",
"      . ; M N O P @ @ @         ",
"      + Q R S T U @ @           ",
"      @ % V W X Y @ @           ",
"        U Z ` d Y @ @           ",
"        &  ...l +.@ @           ",
"        . @.#.$.Y @ @           ",
"        @ %.$.&.> @             ",
"          . *.B + @             ",
"            . . @               ",
"                                ",
"                                ",
"                                ",
"          =.-.;.>.              ",
"        ,.'.).!.~.{.            ",
"        ].^./.(._.:.@           ",
"        <.[.}.^.|.1.@           ",
"        2.3.4.5.6.+ @           ",
"          # 7.8.n @             ",
"            @ @ @               "};
