/* XPM */
static char * Exit_trans_50_xpm[] = {
"50 32 508 2",
"  	c None",
". 	c #BEBEBE",
"+ 	c #C4C4C4",
"@ 	c #CCCCCC",
"# 	c #BABABA",
"$ 	c #9E9E9E",
"% 	c #606060",
"& 	c #8C8C8C",
"* 	c #575757",
"= 	c #D8D8D8",
"- 	c #E9E9E9",
"; 	c #B7B6B6",
"> 	c #A5A4A4",
", 	c #F6F6F6",
"' 	c #444444",
") 	c #535353",
"! 	c #818181",
"~ 	c #AFAFAF",
"{ 	c #959595",
"] 	c #404040",
"^ 	c #9B9A9A",
"/ 	c #828080",
"( 	c #F2F2F2",
"_ 	c #474747",
": 	c #383838",
"< 	c #B7B7B7",
"[ 	c #A6A5A5",
"} 	c #B9B9B9",
"| 	c #090909",
"1 	c #D1D1D1",
"2 	c #E2E2E2",
"3 	c #E5E5E5",
"4 	c #E0DFDF",
"5 	c #CACACA",
"6 	c #585858",
"7 	c #555555",
"8 	c #7E7E7E",
"9 	c #545353",
"0 	c #3D3D3D",
"a 	c #000000",
"b 	c #A5A5A5",
"c 	c #A6A6A6",
"d 	c #A8A8A8",
"e 	c #A9A9A9",
"f 	c #ABABAB",
"g 	c #ACACAC",
"h 	c #AEAEAE",
"i 	c #ADADAD",
"j 	c #B1B1B1",
"k 	c #B8B8B8",
"l 	c #D4D4D4",
"m 	c #846827",
"n 	c #8E8E8E",
"o 	c #060606",
"p 	c #0E0E0E",
"q 	c #636100",
"r 	c #E0DC00",
"s 	c #C2BE00",
"t 	c #997D01",
"u 	c #6C3201",
"v 	c #470A01",
"w 	c #420501",
"x 	c #281400",
"y 	c #795300",
"z 	c #BCB800",
"A 	c #DCD800",
"B 	c #918E00",
"C 	c #9F9F9F",
"D 	c #A2A2A2",
"E 	c #B2B2B2",
"F 	c #AAAAAA",
"G 	c #A0A0A0",
"H 	c #939393",
"I 	c #8C6B1E",
"J 	c #716F00",
"K 	c #FFFA00",
"L 	c #C4C000",
"M 	c #923805",
"N 	c #C8110C",
"O 	c #FA0B0B",
"P 	c #FF0808",
"Q 	c #A60303",
"R 	c #530000",
"S 	c #D70100",
"T 	c #962900",
"U 	c #AA9B00",
"V 	c #A5A100",
"W 	c #9D9D9D",
"X 	c #A7A7A7",
"Y 	c #919191",
"Z 	c #2A2924",
"` 	c #706248",
" .	c #4E3A12",
"..	c #4C3812",
"+.	c #B4A102",
"@.	c #A82913",
"#.	c #FB2727",
"$.	c #FF2222",
"%.	c #FF1A1A",
"&.	c #970A0A",
"*.	c #040000",
"=.	c #510101",
"-.	c #FF0202",
";.	c #E10000",
">.	c #AD0B00",
",.	c #9C7E00",
"'.	c #F8F300",
").	c #BFBFBF",
"!.	c #D6D6D6",
"~.	c #D5D5D5",
"{.	c #898989",
"].	c #515151",
"^.	c #1A1A1A",
"/.	c #504C46",
"(.	c #7C6B49",
"_.	c #BAAF9A",
":.	c #7F7052",
"<.	c #C9C300",
"[.	c #A93619",
"}.	c #F83D3D",
"|.	c #FF4040",
"1.	c #FF3939",
"2.	c #AC1E1E",
"3.	c #0C0101",
"4.	c #FF0303",
"5.	c #FF0101",
"6.	c #FA0000",
"7.	c #B00C00",
"8.	c #B3A100",
"9.	c #FEF900",
"0.	c #C1C1C1",
"a.	c #8F7028",
"b.	c #8F8F8F",
"c.	c #989897",
"d.	c #6B5D41",
"e.	c #C5BDAA",
"f.	c #EFEBE1",
"g.	c #C0B6A1",
"h.	c #594623",
"i.	c #EAE500",
"j.	c #8C4A0E",
"k.	c #F55151",
"l.	c #FF6262",
"m.	c #FF6565",
"n.	c #FF5C5C",
"o.	c #842929",
"p.	c #510303",
"q.	c #FF0505",
"r.	c #FE0000",
"s.	c #FD0000",
"t.	c #942100",
"u.	c #D1CD00",
"v.	c #9D9C9C",
"w.	c #A3A2A2",
"x.	c #8E7333",
"y.	c #9B9B9B",
"z.	c #868583",
"A.	c #6C5C3D",
"B.	c #F8F6F2",
"C.	c #F0EDE3",
"D.	c #E6DFCF",
"E.	c #645433",
"F.	c #B8A503",
"G.	c #C03D37",
"H.	c #FF6E6E",
"I.	c #FF8181",
"J.	c #FF8A8A",
"K.	c #843B3B",
"L.	c #510404",
"M.	c #D20B00",
"N.	c #987E00",
"O.	c #A4A000",
"P.	c #9F9E9E",
"Q.	c #A4A4A4",
"R.	c #95804F",
"S.	c #777165",
"T.	c #8E7F5F",
"U.	c #FAF8F5",
"V.	c #F2EFE6",
"W.	c #E5DECD",
"X.	c #908160",
"Y.	c #6C6A00",
"Z.	c #7A520D",
"`.	c #FC5959",
" +	c #FF8282",
".+	c #FF9C9C",
"++	c #FFACAC",
"@+	c #FFA4A4",
"#+	c #844C4C",
"$+	c #510505",
"%+	c #FF0B0B",
"&+	c #CF0600",
"*+	c #3B2000",
"=+	c #9B9800",
"-+	c #989797",
";+	c #A3A3A3",
">+	c #998453",
",+	c #8C8576",
"'+	c #B5A78B",
")+	c #F7F4EF",
"!+	c #F4F1EA",
"~+	c #E4DCCA",
"{+	c #AE9F7E",
"]+	c #474600",
"^+	c #AE3B1D",
"/+	c #FF8787",
"(+	c #FFA6A6",
"_+	c #FFBABA",
":+	c #FFB5B5",
"<+	c #845555",
"[+	c #510606",
"}+	c #FF0C0C",
"|+	c #FC0000",
"1+	c #DE0000",
"2+	c #860000",
"3+	c #686300",
"4+	c #A7A6A6",
"5+	c #929191",
"6+	c #9C9B9B",
"7+	c #9C9C9C",
"8+	c #988352",
"9+	c #979797",
"0+	c #8B8373",
"a+	c #B7A98B",
"b+	c #F0EBE1",
"c+	c #F5F2EC",
"d+	c #E1D9C6",
"e+	c #AC9E7C",
"f+	c #232200",
"g+	c #D63527",
"h+	c #FF5858",
"i+	c #FF7C7C",
"j+	c #FF9A9A",
"k+	c #FFB0B0",
"l+	c #FFAEAE",
"m+	c #845252",
"n+	c #F40000",
"o+	c #DF0000",
"p+	c #343000",
"q+	c #998A68",
"r+	c #938B7B",
"s+	c #B2A17D",
"t+	c #DFD5C0",
"u+	c #EEE9DE",
"v+	c #DBD1BA",
"w+	c #A3926B",
"x+	c #0A0A00",
"y+	c #D32824",
"z+	c #FF4444",
"A+	c #FF6161",
"B+	c #FF7A7A",
"C+	c #FF8D8D",
"D+	c #FF8B8B",
"E+	c #844242",
"F+	c #4F0404",
"G+	c #FC0909",
"H+	c #FE0202",
"I+	c #F70000",
"J+	c #120E00",
"K+	c #ABE1A8",
"L+	c #A0E39C",
"M+	c #AFE0AC",
"N+	c #9A9A9A",
"O+	c #969695",
"P+	c #887F6F",
"Q+	c #A89468",
"R+	c #C8B893",
"S+	c #CDBF9E",
"T+	c #BCA97D",
"U+	c #937D4A",
"V+	c #010100",
"W+	c #CF1B1B",
"X+	c #FF3030",
"Y+	c #FF5656",
"Z+	c #FF6363",
"`+	c #842E2E",
" @	c #4A0303",
".@	c #F30606",
"+@	c #FC0101",
"@@	c #FB0000",
"#@	c #050100",
"$@	c #C9C9C9",
"%@	c #D0D0D0",
"&@	c #9EE39A",
"*@	c #90E68A",
"=@	c #A3E29F",
"-@	c #CBCBCB",
";@	c #A3A097",
">@	c #A1A1A1",
",@	c #8F8676",
"'@	c #9C8451",
")@	c #AE9761",
"!@	c #A18647",
"~@	c #907127",
"{@	c #836727",
"]@	c #060600",
"^@	c #D1110E",
"/@	c #FF2525",
"(@	c #FF2F2F",
"_@	c #FF3535",
":@	c #FF3434",
"<@	c #841818",
"[@	c #490101",
"}@	c #EF0202",
"|@	c #F90000",
"1@	c #0C0800",
"2@	c #EC6A6A",
"3@	c #F14E4E",
"4@	c #EA7373",
"5@	c #977F47",
"6@	c #837B6B",
"7@	c #937A43",
"8@	c #A2884A",
"9@	c #987A36",
"0@	c #8E6E23",
"a@	c #7E611E",
"b@	c #171700",
"c@	c #D41107",
"d@	c #FF0E0E",
"e@	c #FF1414",
"f@	c #FF1818",
"g@	c #FF1B1B",
"h@	c #FE1A1A",
"i@	c #820C0C",
"j@	c #0B0000",
"k@	c #B00202",
"l@	c #F20101",
"m@	c #F60000",
"n@	c #EB0000",
"o@	c #242000",
"p@	c #C7C7C7",
"q@	c #9C7F3D",
"r@	c #DEDEDE",
"s@	c #746D5F",
"t@	c #896F36",
"u@	c #9C803D",
"v@	c #94762F",
"w@	c #7D5F1C",
"x@	c #393800",
"y@	c #B81A02",
"z@	c #FF0606",
"A@	c #FF0909",
"B@	c #FF0A0A",
"C@	c #830404",
"D@	c #170000",
"E@	c #B40202",
"F@	c #F10000",
"G@	c #F80000",
"H@	c #E70000",
"I@	c #B00000",
"J@	c #545000",
"K@	c #525252",
"L@	c #616161",
"M@	c #D3D3D3",
"N@	c #949494",
"O@	c #969492",
"P@	c #937E4F",
"Q@	c #997B37",
"R@	c #93742D",
"S@	c #7F6320",
"T@	c #626000",
"U@	c #763100",
"V@	c #F70202",
"W@	c #980101",
"X@	c #BB0000",
"Y@	c #790000",
"Z@	c #CC0400",
"`@	c #3C0E00",
" #	c #8D8900",
".#	c #7A7A7A",
"+#	c #939292",
"@#	c #CECECE",
"##	c #C5C5C5",
"$#	c #83785D",
"%#	c #967933",
"&#	c #92732B",
"*#	c #8F6E23",
"=#	c #785F26",
"-#	c #967D00",
";#	c #C30000",
">#	c #FF0000",
",#	c #330000",
"'#	c #500000",
")#	c #E01200",
"!#	c #876700",
"~#	c #A3A000",
"{#	c #DADADA",
"]#	c #787878",
"^#	c #6D6B68",
"/#	c #957730",
"(#	c #92732A",
"_#	c #8F6F24",
":#	c #5C4517",
"<#	c #DCD500",
"[#	c #902400",
"}#	c #E00000",
"|#	c #300000",
"1#	c #4F0000",
"2#	c #A91500",
"3#	c #BCB400",
"4#	c #A4A100",
"5#	c #AAA9A9",
"6#	c #ABAAAA",
"7#	c #C3C3C3",
"8#	c #848484",
"9#	c #7D7C79",
"0#	c #846728",
"a#	c #917229",
"b#	c #816421",
"c#	c #FAF500",
"d#	c #998A00",
"e#	c #C60600",
"f#	c #830000",
"g#	c #D80000",
"h#	c #896300",
"i#	c #F5F000",
"j#	c #949292",
"k#	c #939191",
"l#	c #999898",
"m#	c #C8C8C8",
"n#	c #929292",
"o#	c #D9D9D9",
"p#	c #71706F",
"q#	c #68501E",
"r#	c #7E6323",
"s#	c #6A521E",
"t#	c #FCF700",
"u#	c #946C00",
"v#	c #C20800",
"w#	c #2F0000",
"x#	c #EC0000",
"y#	c #CF0300",
"z#	c #8B4D00",
"A#	c #EEE800",
"B#	c #767676",
"C#	c #EEEA00",
"D#	c #987400",
"E#	c #AA0500",
"F#	c #F20100",
"G#	c #820000",
"H#	c #2B0000",
"I#	c #D90000",
"J#	c #B00800",
"K#	c #845100",
"L#	c #E2DE00",
"M#	c #868686",
"N#	c #CDCDCD",
"O#	c #696969",
"P#	c #B4B000",
"Q#	c #875400",
"R#	c #5E1E00",
"S#	c #850600",
"T#	c #990300",
"U#	c #A21900",
"V#	c #8D4200",
"W#	c #2C2C2C",
"X#	c #454545",
"Y#	c #CFCFCF",
"Z#	c #808080",
"`#	c #727272",
" $	c #686868",
".$	c #1F1E00",
"+$	c #464400",
"@$	c #353400",
"#$	c #151500",
"$$	c #040400",
"%$	c #020200",
"&$	c #121100",
"*$	c #2D2C00",
"=$	c #5F5C51",
"-$	c #6B6A63",
";$	c #B5B5B5",
">$	c #7F7F7F",
",$	c #6C6C6C",
"'$	c #6A6A6A",
")$	c #E2D7A6",
"!$	c #FFF8DB",
"~$	c #957735",
"{$	c #757575",
"]$	c #6B6B6B",
"^$	c #6F6F6F",
"/$	c #717171",
"($	c #A2A1A1",
"_$	c #646464",
":$	c #FFFFFF",
"<$	c #9E8F72",
"[$	c #6E6E6E",
"}$	c #3C3C3C",
"|$	c #1B1B1B",
"1$	c #2E2E2E",
"2$	c #A19B7E",
"3$	c #E8E5D8",
"4$	c #E1D498",
"5$	c #A39E85",
"6$	c #747474",
"7$	c #777777",
"8$	c #636363",
"9$	c #8A8A8A",
"0$	c #D1C693",
"a$	c #E4CE6B",
"b$	c #8D8048",
"c$	c #E5CD63",
"d$	c #B2AB8C",
"e$	c #BBB7A5",
"f$	c #CCC297",
"g$	c #9B9682",
"h$	c #AAA489",
"i$	c #989898",
"                                                                      . . . . . . . . . . + @ @ @ # ",
"      $ % & *                                                         = = = = = = = = = = - ; > , @ ",
"  '   ) ! ~ { ]                                                       = = = = = = = = = = - ^ / ( @ ",
"  _   : < [ } |                                                       1 1 1 1 1 1 1 1 1 1 2 3 4 , 5 ",
"  6   7 8 9 ! 0             a a a a a a a a a a a a a a a a a a       ~ b c d e f g h h i j k j l . ",
"  m   n o a p               q r r r r s t u v w x y z A r r r B       ~ C D d e h ~ E E j F G H 1 . ",
"  I     a a a               J K K K L M N O P Q R S T U K K K V       ~ W C b X f g ~ ~ i c W Y 1 . ",
"  I     | a Z `  ...        J K K +.@.#.$.%.&.*.=.-.;.>.,.'.K V       ~ h h ~ ~ ~ ~ ~ ~ ~ ).!.~.= . ",
"  I   {.].^./.(._.:.        J K <.[.}.|.1.2.3.a =.4.5.6.7.8.9.V       ~ ~ ~ ~ ~ ~ ~ ~ ~ ~ 0.= = = . ",
"  a.D b.C c.d.e.f.g.h.      J i.j.k.l.m.n.o.a a p.q.5.r.s.t.u.V       ~ F v.v.v.v.v.v.w.~ 0.= = = . ",
"  x.Y H y.z.A.B.C.D.E.      J F.G.H.I.J.I.K.a a L.P -.r.s.M.N.O.      ~ F P.P.P.P.P.P.Q.~ 0.= = = . ",
"k R.! {.Y S.T.U.V.W.X.      Y.Z.`. +.+++@+#+a a $+%+4.r.s.&+*+=+      ~ d -+-+-+-+-+-+C ~ 0.= = = . ",
";+>+D e ;+,+'+)+!+~+{+      ]+^+l./+(+_+:+<+a a [+}+4.r.|+1+2+3+      ~ 4+5+5+5+5+5+5+6+~ 0.= = = . ",
"7+8+X W 9+0+a+b+c+d+e+      f+g+h+i+j+k+l+m+a a [+}+4.s.|+n+o+p+      ~ ~ ~ ~ ~ ~ ~ ~ ~ ~ 0.= = = . ",
"9+q+~ b ;+r+s+t+u+v+w+      x+y+z+A+B+C+D+E+a a F+G+H+s.|+6.I+J+      ~ ~ ~ ~ ~ ~ ~ ~ ~ ~ 0.K+L+M+. ",
"N+O+W Q.C P+Q+R+S+T+U+  a a V+W+X+z+Y+Z+l.`+a a  @.@+@|+@@@@6.#@a a a $@$@$@$@$@$@$@$@$@$@%@&@*@=@. ",
"-@;@>@C W ,@'@)@!@~@{@      ]@^@%./@(@_@:@<@a a [@}@6.|+@@|@I+1@      = = = = = = = = = = = 2@3@4@. ",
"  5@~ h y.6@7@8@9@0@a@      b@c@d@e@f@g@h@i@a j@k@l@@@@@@@m@n@o@      # # } k k k k # # # p@= = = . ",
"  q@r@e f s@t@u@v@0@w@      x@y@z@P A@B@A@C@D@E@F@G@@@@@6.H@I@J@      ~ ~ y.K@K@K@L@Q.~ ~ 0.= = = . ",
"  q@M@N@Q.O@P@Q@R@0@S@      T@U@V@4.4.4.4.W@X@;.Y@|+@@6.6.Z@`@ #      ~ ~ C .#.#.#! b +#c 0.= = = . ",
"  q@@#N@##F $#%#&#*#=#      J -#;#>#>#>#r.r.;.,#'#@@@@6.6.)#!#~#      ~ ~ ~ ~ ~ ~ ~ ~ ~ ~ 0.= = = . ",
"  q@-@H {#]#^#/#(#_#:#      J <#[#|@r.r.s.}#|#a 1#@@6.6.|@2#3#4#      ~ ~ ~ d d 5#f 6#d ~ 0.= = = . ",
"  q@7#! %@8#9#0#a#b#        J c#d#e#r.s.s.f#a a 1#@@6.|@g#h#i#V       ~ ~ h j#k#l#$ v.k#~ 0.= = = . ",
"  q@m#n#o#! p#q#r#s#        J K t#u#v#s.|+f#a w#n@6.x#y#z#A#K V       ~ ~ h j#k#l#$ v.k#~ 0.= = = . ",
"  q@7#! %@B#!               J K K C#D#E#F#G#H#I#|@n+J#K#L#K K V       ~ ~ h j#k#l#$ v.k#~ 0.1 l = . ",
"  q@1 M#N#B#O#              J K K K 9.P#Q#R#S#T#U#V#V i#K K K V       ~ ~ h j#k#l#$ v.k#~ 0.W#X#Y#. ",
"  q@@ Z#m#`# $              .$+$+$+$+$+$@$#$$$%$&$*$+$+$+$+$+$*$      ~ ~ h j#k#l#$ v.k#~ 0.=$-$;$. ",
"  q@%@>$0.,$'$                                                        ~ ~ h j#k#l#$ v.k#~ N@)$!$) . ",
"  ~$7#{$]$^$/$                                                        ~ ~ h l#-+v.($G -+~ _$-@:$ $h ",
"  <$[$}$|$1${$                                                        ~ ~ ~ ~ ~ ~ ~ ~ ~ ~ 2$3$:$4$5$",
"  G .#6$7$8$9$                                                        ~ ~ ~ ~ ~ ~ ~ ~ ~ ~ 0$a$b$c$d$",
"                                                                      ~ ~ ~ ~ ~ ~ ~ ~ ~ ~ e$f$g$h$i$"};
