/* XPM */
static char * Fert_Laufen_32_xpm[] = {
"32 32 182 2",
"  	c None",
". 	c #000000",
"+ 	c #060504",
"@ 	c #362D23",
"# 	c #080705",
"$ 	c #897662",
"% 	c #BCA792",
"& 	c #DBBC9A",
"* 	c #584A3A",
"= 	c #DABE9D",
"- 	c #B19980",
"; 	c #D8B896",
"> 	c #2B241C",
", 	c #B99B7A",
"' 	c #F3D7AA",
") 	c #EBCDA2",
"! 	c #E2BD95",
"~ 	c #E1BE97",
"{ 	c #A68B6E",
"] 	c #E4BF97",
"^ 	c #D09274",
"/ 	c #B95F4C",
"( 	c #191611",
"_ 	c #3E3328",
": 	c #76624D",
"< 	c #E0BC94",
"[ 	c #ECC89D",
"} 	c #E8C49A",
"| 	c #C1A27F",
"1 	c #CCAB86",
"2 	c #C7A582",
"3 	c #E7C49B",
"4 	c #FBD7AA",
"5 	c #F5D1A5",
"6 	c #C9A884",
"7 	c #DFBA93",
"8 	c #C4A480",
"9 	c #C5A480",
"0 	c #E0BB94",
"a 	c #EDC89E",
"b 	c #E2BE96",
"c 	c #D6B690",
"d 	c #D3B08B",
"e 	c #BB9C7A",
"f 	c #CAA883",
"g 	c #DAB68F",
"h 	c #E4C49C",
"i 	c #F2CEA2",
"j 	c #E1BC94",
"k 	c #BC9D7B",
"l 	c #B49675",
"m 	c #C8A782",
"n 	c #C8A783",
"o 	c #CEAC88",
"p 	c #E1BD96",
"q 	c #D8B690",
"r 	c #DFBB93",
"s 	c #BC9E7C",
"t 	c #B49676",
"u 	c #C2A27F",
"v 	c #B79978",
"w 	c #BA9C7A",
"x 	c #E0BB93",
"y 	c #CDAB87",
"z 	c #F6D7AB",
"A 	c #F5D9AB",
"B 	c #E3C79F",
"C 	c #CDAC88",
"D 	c #D8B48E",
"E 	c #D1AF89",
"F 	c #BE9E7B",
"G 	c #C1A07D",
"H 	c #B89978",
"I 	c #B09474",
"J 	c #DDB992",
"K 	c #E3BE96",
"L 	c #ECCA9F",
"M 	c #F5D5A8",
"N 	c #EDCDA2",
"O 	c #C0A280",
"P 	c #CDAC86",
"Q 	c #C1A17D",
"R 	c #C2A17E",
"S 	c #C6A682",
"T 	c #C6A683",
"U 	c #DFBB94",
"V 	c #DDBA94",
"W 	c #E2BE97",
"X 	c #ECC89E",
"Y 	c #E1C09B",
"Z 	c #C9A782",
"` 	c #C4A37F",
" .	c #CEAB86",
"..	c #D9B58E",
"+.	c #E1BD95",
"@.	c #D2B28C",
"#.	c #D4B795",
"$.	c #D6BD9D",
"%.	c #D5BD9E",
"&.	c #D5BE9F",
"*.	c #D1C4AC",
"=.	c #CBC1AC",
"-.	c #CCC5B1",
";.	c #CEC8B5",
">.	c #C9C5B3",
",.	c #CDC4AF",
"'.	c #D2CCB9",
").	c #BEBCAD",
"!.	c #C0BFB0",
"~.	c #BDBCAD",
"{.	c #D3D2C2",
"].	c #CAC9BA",
"^.	c #BFBAAA",
"/.	c #C4C0B0",
"(.	c #B8B7A9",
"_.	c #C7C6B5",
":.	c #BBB9AA",
"<.	c #C5C4B5",
"[.	c #D7D6C5",
"}.	c #C5C3B3",
"|.	c #C3BDAD",
"1.	c #CDC7B5",
"2.	c #BCBAAB",
"3.	c #C6C5B5",
"4.	c #D4D3C2",
"5.	c #CCCAB9",
"6.	c #BFBCAC",
"7.	c #D0CCBA",
"8.	c #D2CFBD",
"9.	c #CEC5B0",
"0.	c #D1CBB9",
"a.	c #D0CAB7",
"b.	c #DBD1BB",
"c.	c #D4CEB9",
"d.	c #C5AF94",
"e.	c #D7BA99",
"f.	c #E0C09B",
"g.	c #DEBD97",
"h.	c #C3A787",
"i.	c #C7AC8B",
"j.	c #C0A484",
"k.	c #C3A482",
"l.	c #D5B28D",
"m.	c #BEA07F",
"n.	c #C5A581",
"o.	c #D2B089",
"p.	c #BCA083",
"q.	c #B99C7B",
"r.	c #CEAD88",
"s.	c #F8D5A9",
"t.	c #E9C59B",
"u.	c #D5B28C",
"v.	c #CDAB86",
"w.	c #CFAD88",
"x.	c #B49A7E",
"y.	c #BB9D7C",
"z.	c #DBB891",
"A.	c #D8B58E",
"B.	c #BFA17E",
"C.	c #DAB790",
"D.	c #C8A884",
"E.	c #B79B7C",
"F.	c #CAA985",
"G.	c #D0AE8B",
"H.	c #BFA17F",
"I.	c #D3B18B",
"J.	c #DCB891",
"K.	c #DAB690",
"L.	c #CFAE89",
"M.	c #DEBA92",
"N.	c #E6C199",
"O.	c #B99B7B",
"P.	c #BEA080",
"Q.	c #CCAC88",
"R.	c #F6D2A6",
"S.	c #CFAF8A",
"T.	c #B09374",
"U.	c #BEA07D",
"V.	c #D9B68F",
"W.	c #C4A381",
"X.	c #CDAC87",
"Y.	c #B69978",
"                                                                ",
"                              . . .                             ",
"                          . . . + @                             ",
"                          . . # $ % &                           ",
"                        . . . * = - ;                           ",
"                      . . . > , ' ) ! ~                         ",
"                      . . . { ! ] ^ /                           ",
"                      ( _ : < [ }                               ",
"                      | 1 2 3 4 5                               ",
"                    6 7 8 9 0 a } b                             ",
"                  c < d e f g 7 !                               ",
"                h i j k l m n o ! p                             ",
"                q ! r s t u v w x y     z A B                   ",
"                  C D E F G H I ! J J K L M N                   ",
"                    O P Q R S T ! U V U W X Y                   ",
"                      Z `  ...x +.                              ",
"                      @.#.$.%.&.                                ",
"                      *.=.-.;.>.,.                              ",
"                    '.).!.~.{.].^.                              ",
"                    /.(._.:.<.[.}.|.                            ",
"                  1.2.3.4.5.6.7.8.9.                            ",
"                  0.a.b.b.c.d.e.f.g.                            ",
"                    h.J J i.j.k.l.7                             ",
"                m.n.o.r !   p.q.r.J                             ",
"            s.t.u.v.6 w.r   x.y.z.A.                            ",
"            B.C.j D.        E.F.x G.                            ",
"            H.r.x           I.J.K.                              ",
"              L.M.          N.j O.                              ",
"              P.Q.        R.X j                                 ",
"                          S.r.J.                                ",
"                            T.U.V.W.                            ",
"                              T.X.Y.                            "};
