/* XPM */
static char * Fert_Lesen_32_xpm[] = {
"32 32 411 2",
"  	c None",
". 	c #E4E4E4",
"+ 	c #E8E8E7",
"@ 	c #EAE9E8",
"# 	c #E7DAD1",
"$ 	c #D5D5D5",
"% 	c #E0E0DF",
"& 	c #E4E1DF",
"* 	c #E5DDD8",
"= 	c #E5D6CB",
"- 	c #E4CAB7",
"; 	c #E4C3AA",
"> 	c #E4C3A9",
", 	c #E3C2A8",
"' 	c #E2C0A7",
") 	c #C6C5C5",
"! 	c #E2E1E0",
"~ 	c #E7E5E3",
"{ 	c #E5DCD5",
"] 	c #E3C9B8",
"^ 	c #E2C1A8",
"/ 	c #E4C4AB",
"( 	c #ECCDB2",
"_ 	c #F3D4B8",
": 	c #F3D3B8",
"< 	c #E4C2A9",
"[ 	c #E0C2AC",
"} 	c #D9D4D1",
"| 	c #DDDDDD",
"1 	c #C8C8C8",
"2 	c #E0E0E0",
"3 	c #EAEAE9",
"4 	c #E9E6E5",
"5 	c #E5D4C7",
"6 	c #E2C1AA",
"7 	c #E8C7AD",
"8 	c #E8C6AD",
"9 	c #E3C1A8",
"0 	c #E2C2AB",
"a 	c #E4D4C8",
"b 	c #E8E6E5",
"c 	c #E3E3E3",
"d 	c #CCCBCB",
"e 	c #EAEAEA",
"f 	c #E8E1DC",
"g 	c #E3C8B3",
"h 	c #E5D7CB",
"i 	c #E9E5E3",
"j 	c #E7DED8",
"k 	c #E4D0C1",
"l 	c #E3C8B4",
"m 	c #E2C1A9",
"n 	c #E5D5C9",
"o 	c #E9E4E1",
"p 	c #DFBFA7",
"q 	c #E1C7B4",
"r 	c #E4D8CF",
"s 	c #E6D9CF",
"t 	c #E4CCBB",
"u 	c #E2C0A8",
"v 	c #E3C5AE",
"w 	c #E9E6E3",
"x 	c #D5B49C",
"y 	c #C4B5A6",
"z 	c #C9B09D",
"A 	c #D1B39C",
"B 	c #E3D4C9",
"C 	c #E2CCBD",
"D 	c #E3C6B0",
"E 	c #E4CCB9",
"F 	c #E3C3AC",
"G 	c #E5D1C3",
"H 	c #E8E3E0",
"I 	c #EAE9E9",
"J 	c #C8E3E5",
"K 	c #BDC8C4",
"L 	c #988576",
"M 	c #CAAC95",
"N 	c #DEBCA3",
"O 	c #E5D3C6",
"P 	c #E4D4C7",
"Q 	c #E3C7B3",
"R 	c #E2C2AA",
"S 	c #E4CFC0",
"T 	c #E6DFD9",
"U 	c #DCBBA2",
"V 	c #C9E3E5",
"W 	c #BEDCDF",
"X 	c #AEC4C4",
"Y 	c #A89788",
"Z 	c #D0B19A",
"` 	c #DDBCA3",
" .	c #D2B29B",
"..	c #D1B49D",
"+.	c #D9C1AF",
"@.	c #E1CBBB",
"#.	c #E5D5CA",
"$.	c #E8E5E3",
"%.	c #DFBEA5",
"&.	c #C8C3B7",
"*.	c #B3C6C6",
"=.	c #869291",
"-.	c #595046",
";.	c #3B3631",
">.	c #BCB4A7",
",.	c #CAB3A0",
"'.	c #BAA494",
").	c #CBAE99",
"!.	c #D8BAA3",
"~.	c #E1C0A7",
"{.	c #E3C8B5",
"].	c #E8E4E2",
"^.	c #C4A790",
"/.	c #E0BFA6",
"(.	c #F1D1B5",
"_.	c #DFC3A9",
":.	c #8E908A",
"<.	c #DDF5F5",
"[.	c #D1E3E1",
"}.	c #A1A5A1",
"|.	c #CAB7A8",
"1.	c #D1B19A",
"2.	c #DEBCA4",
"3.	c #DAC0AB",
"4.	c #E1BFA6",
"5.	c #D7B9A0",
"6.	c #E8C9AF",
"7.	c #EACAB0",
"8.	c #D1B59F",
"9.	c #C0D2D1",
"0.	c #BCDBDF",
"a.	c #ACC8CC",
"b.	c #B1C4C4",
"c.	c #D3B39B",
"d.	c #E1D0C1",
"e.	c #DFCBBD",
"f.	c #DAC6B7",
"g.	c #BCA48F",
"h.	c #B89E89",
"i.	c #D6B79F",
"j.	c #DEBDA4",
"k.	c #D5C1AF",
"l.	c #CAC3B7",
"m.	c #CAC4B7",
"n.	c #CBC3B6",
"o.	c #DFBDA4",
"p.	c #E4CCBA",
"q.	c #C5C3C0",
"r.	c #A7A4A2",
"s.	c #BAB8B8",
"t.	c #D0CDCC",
"u.	c #CCC1B9",
"v.	c #DABFAB",
"w.	c #FC7525",
"x.	c #F87B2E",
"y.	c #C3B58E",
"z.	c #B2A682",
"A.	c #CCCCCC",
"B.	c #D9D8D8",
"C.	c #DDD5CE",
"D.	c #D6C9C0",
"E.	c #BFBAB7",
"F.	c #A29B96",
"G.	c #E1C0A8",
"H.	c #E4D3C9",
"I.	c #E36922",
"J.	c #F87324",
"K.	c #E98541",
"L.	c #C2AC82",
"M.	c #E5E5E5",
"N.	c #DCD9D7",
"O.	c #E5D7CD",
"P.	c #DFD1C6",
"Q.	c #C1BBB7",
"R.	c #CBCACA",
"S.	c #DAD3CE",
"T.	c #E1C4AF",
"U.	c #E0C4B1",
"V.	c #E5DDD9",
"W.	c #B9561C",
"X.	c #CC5E1E",
"Y.	c #F97325",
"Z.	c #F2863E",
"`.	c #CF935E",
" +	c #BBAE87",
".+	c #E6E6E6",
"++	c #CACACA",
"@+	c #C1C1C0",
"#+	c #DEDDDD",
"$+	c #DFDFDE",
"%+	c #DCDBDB",
"&+	c #E3DCD7",
"*+	c #E0BFA7",
"=+	c #DEC5B7",
"-+	c #E5DEDA",
";+	c #E9E6E4",
">+	c #E9E5E0",
",+	c #E9E3DD",
"'+	c #CE611F",
")+	c #B9551C",
"!+	c #C45B1D",
"~+	c #E96D22",
"{+	c #E99D60",
"]+	c #DDB987",
"^+	c #005682",
"/+	c #81A7BA",
"(+	c #E4E4E3",
"_+	c #C4C4C4",
":+	c #B8B8B7",
"<+	c #CDCDCC",
"[+	c #E8E8E8",
"}+	c #C6B2A1",
"|+	c #8198A1",
"1+	c #7A9DAE",
"2+	c #D86420",
"3+	c #D3621F",
"4+	c #C45C1E",
"5+	c #BC571C",
"6+	c #D66320",
"7+	c #F47124",
"8+	c #F77F33",
"9+	c #DDB886",
"0+	c #D8C295",
"a+	c #075A83",
"b+	c #015682",
"c+	c #7FA6B9",
"d+	c #E2E2E2",
"e+	c #C3C3C3",
"f+	c #C5C5C4",
"g+	c #DBDBDB",
"h+	c #E5E4E0",
"i+	c #E3E1DD",
"j+	c #DFD5C9",
"k+	c #CAC0AA",
"l+	c #B3A783",
"m+	c #BBAC89",
"n+	c #DDBE96",
"o+	c #BE9A81",
"p+	c #2D647E",
"q+	c #025783",
"r+	c #025782",
"s+	c #CA5E1E",
"t+	c #BB571C",
"u+	c #E06821",
"v+	c #F87325",
"w+	c #F0904C",
"x+	c #DAA976",
"y+	c #7A9691",
"z+	c #82A8BB",
"A+	c #D6D6D6",
"B+	c #E6E6E3",
"C+	c #B9B096",
"D+	c #B1A88D",
"E+	c #A9A085",
"F+	c #B1A582",
"G+	c #BDB18A",
"H+	c #C5B790",
"I+	c #D89F6A",
"J+	c #F18D47",
"K+	c #E9722C",
"L+	c #765E4B",
"M+	c #09567C",
"N+	c #005480",
"O+	c #D56320",
"P+	c #C95D1F",
"Q+	c #BD571C",
"R+	c #F5792B",
"S+	c #E4AA6E",
"T+	c #C7B48B",
"U+	c #59858D",
"V+	c #87A0A0",
"W+	c #E1DCD1",
"X+	c #E1DCCC",
"Y+	c #C8BEA1",
"Z+	c #BEB18D",
"`+	c #B7AA85",
" @	c #B9956B",
".@	c #CDA272",
"+@	c #F08139",
"@@	c #F67D32",
"#@	c #EE7A32",
"$@	c #EA7027",
"%@	c #CF611F",
"&@	c #C35B1D",
"*@	c #A75B2A",
"=@	c #195775",
"-@	c #D56220",
";@	c #C45B1E",
">@	c #BE581D",
",@	c #DA6E23",
"'@	c #F6842A",
")@	c #E98F3F",
"!@	c #C48650",
"~@	c #BF804E",
"{@	c #C0814E",
"]@	c #D4B181",
"^@	c #ED9655",
"/@	c #F57A2E",
"(@	c #E46A22",
"_@	c #DA6520",
":@	c #D1611F",
"<@	c #C0591D",
"[@	c #B7541B",
"}@	c #C0591E",
"|@	c #CC5F1E",
"1@	c #B8602B",
"2@	c #185776",
"3@	c #C9611F",
"4@	c #CF6922",
"5@	c #CB7224",
"6@	c #B16120",
"7@	c #904C18",
"8@	c #B0571B",
"9@	c #D36823",
"0@	c #D2621F",
"a@	c #E76B22",
"b@	c #C35A1D",
"c@	c #C1591D",
"d@	c #D76320",
"e@	c #D76420",
"f@	c #CB6325",
"g@	c #1E5874",
"h@	c #CC601F",
"i@	c #DB6E23",
"j@	c #F28129",
"k@	c #E67B27",
"l@	c #F07A26",
"m@	c #D0611F",
"n@	c #9B4817",
"o@	c #CF601F",
"p@	c #275970",
"q@	c #B76D40",
"r@	c #C66125",
"s@	c #D4621F",
"t@	c #D86C23",
"u@	c #FF882B",
"v@	c #FD7C27",
"w@	c #D76620",
"x@	c #A64C19",
"y@	c #D2611F",
"z@	c #255871",
"A@	c #D8B59A",
"B@	c #D48250",
"C@	c #DA783D",
"D@	c #DE9E76",
"E@	c #DA7C44",
"F@	c #D86421",
"G@	c #D66C23",
"H@	c #FC7625",
"I@	c #235872",
"J@	c #DBB9A0",
"K@	c #D09F80",
"L@	c #E0AE8D",
"M@	c #CF875B",
"N@	c #D87337",
"O@	c #D86826",
"P@	c #B35A1E",
"Q@	c #E57A27",
"R@	c #EC6F24",
"S@	c #9F4A18",
"T@	c #C7A993",
"U@	c #C9AB95",
"V@	c #CFB098",
"W@	c #BE9A82",
"X@	c #CEA284",
"Y@	c #D8A888",
"Z@	c #D7763B",
"`@	c #D0601F",
" #	c #994C19",
".#	c #B35F1E",
"+#	c #BE6520",
"@#	c #B3541B",
"##	c #8F4316",
"$#	c #A68D7A",
"%#	c #D0B098",
"&#	c #B89984",
"*#	c #CEA589",
"=#	c #D6B59D",
"-#	c #BA7B54",
";#	c #CB5E1E",
">#	c #C16020",
",#	c #C96B22",
"'#	c #C66921",
")#	c #C55D1E",
"!#	c #C55C1D",
"~#	c #AB917D",
"{#	c #B39884",
"]#	c #D9B79F",
"^#	c #D2AF96",
"/#	c #BA8260",
"(#	c #C9A287",
"_#	c #DDB69A",
":#	c #DA783E",
"<#	c #C95F1F",
"[#	c #DA6D23",
"}#	c #FC862B",
"|#	c #FC862A",
"1#	c #F97525",
"2#	c #E16921",
"3#	c #BFA28C",
"4#	c #AC927E",
"5#	c #DCBAA1",
"6#	c #D6B39A",
"7#	c #D4B49C",
"8#	c #DBB79D",
"9#	c #D69165",
"0#	c #D96C2C",
"a#	c #E27124",
"b#	c #FC8129",
"c#	c #EF6F23",
"d#	c #0E577B",
"                                      . + @ #                   ",
"                                  $ % & * = - ; > , '           ",
"                                ) ! ~ { ] ^ / ( _ : < [ } | 1   ",
"                                2 3 4 5 6 ' > 7 7 8 9 0 a b c   ",
"                              d e e f g ' ' ' ' ' ' ' 0 h i e e ",
"                                j k l m ' ' ' ' ' ' ' m n o e e ",
"                                p q r s t u ' ' ' ' ' v s w e e ",
"                              x y z A B C ^ D E F ' 6 G H I e e ",
"                              x J K L M N 9 O i P Q R S T I e e ",
"                              U V W X Y Z `  ...+.@.m 0 #.$.e e ",
"                              %.&.*.=.-.;.>.,.'.).!.~.' {.].e e ",
"                            ^./.' > (._.:.<.[.}.|.1.2.' l e e e ",
"                            3.0 4.5.6.7.8.9.0.a.b.c.` ' l e e e ",
"                            d.e.f.g.h.i.j.k.l.m.n.` o.' p.e e e ",
"                            q.r.s.t.u.v.' ' ' ' ' ' ' ' O e e e ",
"w.x.y.z.                    A.B.C.D.E.F.f.^ ' ' ' ' ' G.H.e e e ",
"I.J.K.L.                    e M.N.O.P.Q.R.S.T.' ' ' ' U.V.e e I ",
"W.X.Y.Z.`. +                .+++@+% #+$+| %+&+m ' ' *+=+-+;+>+,+",
"'+)+!+~+w.{+]+        ^+^+/+(+_+:+_+<+% [+e I F ' ' }+|+1+      ",
"2+3+4+5+6+7+8+9+0+  a+^+b+c+d+e+f+g+d+h+i+j+k+l+m+n+o+p+q+r+    ",
"2+2+2+s+t+!+u+v+w+x+y+^+^+z+2 A+.+B+C+D+E+F+G+H+I+J+K+L+M+^+N+  ",
"2+2+2+2+O+P+Q+X.I.R+S+T+U+V+W+X+Y+Z+`+ @.@+@@@#@$@%@&@*@=@^+^+  ",
"2+2+2+2+2+2+-@;@>@,@'@)@!@~@{@]@^@^@^@/@(@_@:@<@[@}@|@1@2@^+^+^+",
"2+2+2+2+2+2+2+2+6+3@4@5@6@7@8@9@0@a@s+b@c@<@<@6+d@e@2+f@g@^+^+^+",
"d@2+2+2+2+2+2+2+2+O+h@i@j@k@l@m@n@5+|@o@2+2+2+2+2+2+2+2+p@^+^+^+",
"q@r@2+2+2+2+2+2+2+2+s@t@u@u@v@w@x@y@2+2+2+2+2+2+2+2+2+2+z@^+^+^+",
"A@B@C@D@E@F@2+2+2+2+s@G@u@u@H@e@5+2+2+2+2+2+2+2+2+2+2+2+I@^+^+^+",
"J@K@L@c.M@N@O@2+2+2+:@P@Q@u@R@S@c@2+2+2+2+2+2+2+2+2+2+2+I@^+^+^+",
"T@U@V@W@X@Y@Z@2+2+2+`@ #.#+#@###c@2+2+2+2+2+2+2+2+2+2+2+I@^+^+^+",
"$#%#&#*#=#-#;#2+2+2+y@>#,#'#)#!#c@2+2+2+2+2+2+2+2+2+2+2+I@^+^+^+",
"~#{#]#^#/#(#_#:#2+2+<#[#}#|#1#2#c@2+2+2+2+2+2+2+2+2+2+2+I@^+^+^+",
"3#4#5#6#7#8#9#0#2+2+c@a#u@b#H@c#`@2+2+2+2+2+2+2+2+2+2+2+d#^+^+^+"};
