/* XPM */
static char * Fert_Reiten_32_xpm[] = {
"32 32 235 2",
"  	c None",
". 	c #060202",
"+ 	c #2E921A",
"@ 	c #267A16",
"# 	c #3A961E",
"$ 	c #2A1A06",
"% 	c #3E6212",
"& 	c #BA963E",
"* 	c #4A2E06",
"= 	c #267616",
"- 	c #A28216",
"; 	c #C2C2C2",
"> 	c #623A0A",
", 	c #267216",
"' 	c #867A0E",
") 	c #9A9286",
"! 	c #2E520E",
"~ 	c #6E420A",
"{ 	c #5E6212",
"] 	c #96AA62",
"^ 	c #726252",
"/ 	c #D2AE92",
"( 	c #4E5E12",
"_ 	c #528E16",
": 	c #D6C68A",
"< 	c #A2BE66",
"[ 	c #364E0E",
"} 	c #7A621E",
"| 	c #6E5E12",
"1 	c #6A5A0E",
"2 	c #9E9E9A",
"3 	c #2E8E1A",
"4 	c #B2B272",
"5 	c #4E7E16",
"6 	c #726246",
"7 	c #76460A",
"8 	c #E2C68A",
"9 	c #868682",
"0 	c #52524E",
"a 	c #A6A6A6",
"b 	c #9E825E",
"c 	c #2A8216",
"d 	c #36220A",
"e 	c #F6E2A2",
"f 	c #663E2E",
"g 	c #1A0E02",
"h 	c #8A6236",
"i 	c #56320A",
"j 	c #AEAEAA",
"k 	c #825622",
"l 	c #4A8A2A",
"m 	c #826616",
"n 	c #C69E5A",
"o 	c #4A7A16",
"p 	c #5E3E36",
"q 	c #2A861A",
"r 	c #CAC6C2",
"s 	c #7A460A",
"t 	c #926E02",
"u 	c #664A26",
"v 	c #EADA9A",
"w 	c #6E4E26",
"x 	c #5A6212",
"y 	c #B6B6B2",
"z 	c #462A06",
"A 	c #32961E",
"B 	c #56360A",
"C 	c #623E2A",
"D 	c #EACE92",
"E 	c #42423E",
"F 	c #7E5A2A",
"G 	c #664212",
"H 	c #1E1202",
"I 	c #8A6E5A",
"J 	c #5E3A1E",
"K 	c #7A4A0A",
"L 	c #4E321E",
"M 	c #3A8E1A",
"N 	c #465A12",
"O 	c #6A3E0A",
"P 	c #E2BE9A",
"Q 	c #3E2A0A",
"R 	c #3A861A",
"S 	c #7E6A72",
"T 	c #9A8E82",
"U 	c #4A9A2A",
"V 	c #DAB6B2",
"W 	c #A2968A",
"X 	c #563A1A",
"Y 	c #C6B6A6",
"Z 	c #EEC6A6",
"` 	c #66860E",
" .	c #161206",
"..	c #927206",
"+.	c #623E0A",
"@.	c #7E4A0A",
"#.	c #2A8A16",
"$.	c #E6D6A2",
"%.	c #72460A",
"&.	c #4A3612",
"*.	c #664A3E",
"=.	c #5A6E16",
"-.	c #5E5A0E",
";.	c #C2AA72",
">.	c #826646",
",.	c #AA8E76",
"'.	c #2E2212",
").	c #1E1A06",
"!.	c #329A1E",
"~.	c #7A520E",
"{.	c #5E360A",
"].	c #7A563A",
"^.	c #FACEAE",
"/.	c #DACE86",
"(.	c #3E9E26",
"_.	c #A6A2A6",
":.	c #B6B2AE",
"<.	c #929292",
"[.	c #AEA6A2",
"}.	c #8A5E2A",
"|.	c #6A6212",
"1.	c #967602",
"2.	c #2A1E16",
"3.	c #161612",
"4.	c #2A7A16",
"5.	c #422A12",
"6.	c #0A0A06",
"7.	c #4AA22A",
"8.	c #EED2B2",
"9.	c #368E1A",
"0.	c #261606",
"a.	c #2E861A",
"b.	c #52320A",
"c.	c #B2B2AE",
"d.	c #522E0A",
"e.	c #5E3A06",
"f.	c #72420A",
"g.	c #BABAB6",
"h.	c #C29A4A",
"i.	c #563216",
"j.	c #C6C6C2",
"k.	c #462E0A",
"l.	c #2E8A1A",
"m.	c #DECA92",
"n.	c #6E4612",
"o.	c #365212",
"p.	c #8E867A",
"q.	c #3E2606",
"r.	c #FEE6AA",
"s.	c #5E3A1A",
"t.	c #267E16",
"u.	c #2A7E16",
"v.	c #663E0A",
"w.	c #3A2A12",
"x.	c #22160A",
"y.	c #32921A",
"z.	c #060602",
"A.	c #3A2606",
"B.	c #AEAAA6",
"C.	c #4E3212",
"D.	c #1A1612",
"E.	c #2E1E0E",
"F.	c #A2A29E",
"G.	c #7A4A0E",
"H.	c #3A2E0A",
"I.	c #9E9A92",
"J.	c #623A12",
"K.	c #76460E",
"L.	c #6A3E12",
"M.	c #9A7602",
"N.	c #7E4A0E",
"O.	c #663A0A",
"P.	c #2E821A",
"Q.	c #B2AEAE",
"R.	c #824A0E",
"S.	c #4E2E12",
"T.	c #3A260E",
"U.	c #766652",
"V.	c #D6B296",
"W.	c #7E661E",
"X.	c #6A5E12",
"Y.	c #1A1202",
"Z.	c #969696",
"`.	c #422E0A",
" +	c #DECE92",
".+	c #328E1A",
"++	c #32861A",
"@+	c #663E0E",
"#+	c #221202",
"$+	c #5E3A0A",
"%+	c #6A420E",
"&+	c #967202",
"*+	c #926E0A",
"=+	c #5A3612",
"-+	c #6A4216",
";+	c #0A0602",
">+	c #B2AAA6",
",+	c #2E921E",
"'+	c #72460E",
")+	c #3E961A",
"!+	c #4E2E06",
"~+	c #C6C2BE",
"{+	c #A29E9A",
"]+	c #724E2A",
"^+	c #825A26",
"/+	c #523222",
"(+	c #3E8E16",
"_+	c #AAA2A6",
":+	c #2E7A16",
"<+	c #724612",
"[+	c #3E2A12",
"}+	c #523212",
"|+	c #A29A92",
"1+	c #522E12",
"2+	c #9A928A",
"3+	c #2A821A",
"4+	c #7A4A12",
"5+	c #6E420E",
"6+	c #7A460E",
"7+	c #1E1206",
"8+	c #161616",
"9+	c #2A8A1A",
"0+	c #B6B2B2",
"a+	c #52320E",
"b+	c #B2B2B2",
"c+	c #462E0E",
"d+	c #9A7606",
"e+	c #967206",
"f+	c #AEAEAE",
"g+	c #462A0A",
"h+	c #623E0E",
"i+	c #32921E",
"j+	c #AEAAAA",
"k+	c #1A1616",
"l+	c #6A4212",
"                                                                ",
"                      t &+e+m                                   ",
"                      h.& M.*+                                  ",
"                    / ,.P & ..                                  ",
"                      ^.Z n M.m                                 ",
"                      V V.;.- &+}                               ",
"                          l ' &+..W.                            ",
"                        A a.P.(+` 1.                            ",
"                        A A y.A (+_ l.                          ",
"                        c 3 !.#.@ #.3+                          ",
"            N.        D ] 3 !.9+, u.3+                          ",
"            %+I       : 4 (.!.l.l.3+4.3+                        ",
"            $ >.;    +m.$.< (.l.#.c c a.                        ",
"          7 i E j.8.r.e 8 /.7.9+u.9+3+q ,+                      ",
"        J Q K ;+k+^.8.$.    R A , u.+ a.3+q                     ",
"      C 5.'.f.z.0 Y ~+~+    N i+c t.#.!.q , @ q ,+!.!.          ",
"    f 6+N.i H g 6 Z.F.j.r   o.3 #.@ = #.!.A q @ u.!.5 }.S       ",
"    0.+.z H z 0.v.U.9 a ) 5+% 3 P.+ q , 3 x |.=.9.M | b Q._+    ",
"    {.6.g O.H $ O.u ^ <.p.G.( + c 3 A 9.-.~ @.N.N.@.N.h F.y _.  ",
"    K E.q.      i {.5+^+k G.1 M l.:+o X.f.~ R.@.@.N.@.%.2+0+a   ",
"                &.$+f.@.R.N.~.{ ! [ > @.s K N.N.~.R.R.7 ) y Q.  ",
"                  {.K.R.K @.@.%+H x.k.K @.%.K R.R.@.@.f.) 0+f+  ",
"                  {.%.R.%.7 %+A.z.6.Q %.s ~ %+f.K N.R.K.T Q.b+  ",
"                p v.7 K O v.Q  . .A.+.G.K f.v.+.v.@.@.  W j 0+  ",
"                ].s @.K.> e.H.q.B v.O O {.i d.e.%.N.@.    c.y   ",
"                k s G.L.  i.g+S.d.d.d.1+L B $+O K R.      c.g.2 ",
"                n.N.7 J.                  J > > K @.      [.g.B.",
"              G O <+N.K./+                *.$+{.7         ) >+I.",
"            d.v.> w l+@.@+2.              ]+$+v.K N.            ",
"            B $+X     G.%+3.              -+!+v.N.@.N.          ",
"            T.5.        O 8+            C.c+d   R.7 '.          ",
"            3.3.                                  w.3.          "};
