/* XPM */
static char * Fert_Gaukler_32_xpm[] = {
"32 32 256 2",
"  	c None",
". 	c #6E0202",
"+ 	c #1642AE",
"@ 	c #565202",
"# 	c #2E6E56",
"$ 	c #669606",
"% 	c #5ED636",
"& 	c #0E52AE",
"* 	c #CEB29A",
"= 	c #B2A602",
"- 	c #A26226",
"; 	c #2A8E0A",
"> 	c #C2B206",
", 	c #F2D61E",
"' 	c #860202",
") 	c #A286B2",
"! 	c #26D602",
"~ 	c #CAAE96",
"{ 	c #CE720E",
"] 	c #C63212",
"^ 	c #C6C62E",
"/ 	c #4A9E02",
"( 	c #929A1E",
"_ 	c #C2AA92",
": 	c #D27E0A",
"< 	c #06AA0E",
"[ 	c #8A0E0E",
"} 	c #A6B672",
"| 	c #E2A60E",
"1 	c #2A2A92",
"2 	c #EE9206",
"3 	c #36B602",
"4 	c #AA2E02",
"5 	c #A68E66",
"6 	c #866E3E",
"7 	c #E2E6DE",
"8 	c #BE961A",
"9 	c #AE0202",
"0 	c #E2BE16",
"a 	c #B61E06",
"b 	c #26C206",
"c 	c #763276",
"d 	c #AA8E02",
"e 	c #EAAE0A",
"f 	c #DECE26",
"g 	c #3EBA1E",
"h 	c #662A16",
"i 	c #9EA676",
"j 	c #6E8686",
"k 	c #DA0202",
"l 	c #D28606",
"m 	c #DA725E",
"n 	c #66026A",
"o 	c #CA9E0E",
"p 	c #229662",
"q 	c #A2BA4E",
"r 	c #7E3E02",
"s 	c #722A76",
"t 	c #72BE4A",
"u 	c #BA4E06",
"v 	c #9E729E",
"w 	c #1EBE02",
"x 	c #EEC20E",
"y 	c #F23626",
"z 	c #CAD2CA",
"A 	c #92464A",
"B 	c #7AC672",
"C 	c #B68A4E",
"D 	c #9A0A46",
"E 	c #C25202",
"F 	c #EADA42",
"G 	c #F6CE0E",
"H 	c #1EAA02",
"I 	c #965656",
"J 	c #F6B606",
"K 	c #2ECA02",
"L 	c #D29E0A",
"M 	c #FAA60A",
"N 	c #92A202",
"O 	c #9EAA4E",
"P 	c #BA1A1E",
"Q 	c #6A4E02",
"R 	c #AE9E96",
"S 	c #469E46",
"T 	c #DEAE12",
"U 	c #1EAE22",
"V 	c #FEEE12",
"W 	c #56A602",
"X 	c #F2BE0E",
"Y 	c #2A9202",
"Z 	c #EA9606",
"` 	c #129626",
" .	c #E6C6AA",
"..	c #8A4E0A",
"+.	c #E6CA32",
"@.	c #1236D6",
"#.	c #A6A202",
"$.	c #9AC296",
"%.	c #F2B212",
"&.	c #A6A27E",
"*.	c #7E7EA6",
"=.	c #BE828E",
"-.	c #26DA02",
";.	c #2646DE",
">.	c #D69A12",
",.	c #BAB626",
"'.	c #9E86AA",
").	c #FA9A12",
"!.	c #DEB20E",
"~.	c #E28A0A",
"{.	c #CA2A2E",
"].	c #2EDA06",
"^.	c #1EA202",
"/.	c #62127E",
"(.	c #DAAA92",
"_.	c #16BA1E",
":.	c #DE9E0A",
"<.	c #BEA67E",
"[.	c #DABE9E",
"}.	c #C6A616",
"|.	c #F6EA4A",
"1.	c #BE0202",
"2.	c #26CE02",
"3.	c #2642BE",
"4.	c #5AB616",
"5.	c #9E3626",
"6.	c #F6C20A",
"7.	c #F2C226",
"8.	c #D68A0A",
"9.	c #26E202",
"0.	c #FEBE0A",
"a.	c #DEBA2E",
"b.	c #EE7672",
"c.	c #B6C23E",
"d.	c #2AB61E",
"e.	c #BE3E2A",
"f.	c #BA9A0E",
"g.	c #12B202",
"h.	c #DE960A",
"i.	c #F6CA0A",
"j.	c #8E82AA",
"k.	c #D6BABA",
"l.	c #EE9E06",
"m.	c #F6AA0E",
"n.	c #6E5A02",
"o.	c #7E869E",
"p.	c #B2AE82",
"q.	c #3A961E",
"r.	c #E29226",
"s.	c #16B202",
"t.	c #BA8E0A",
"u.	c #B6AA02",
"v.	c #129E1A",
"w.	c #FED612",
"x.	c #7E0A02",
"y.	c #1EB602",
"z.	c #EEDE3A",
"A.	c #CE8E0A",
"B.	c #BE9E1E",
"C.	c #FAA20A",
"D.	c #DABA1A",
"E.	c #BA0A02",
"F.	c #CAAA2A",
"G.	c #DE7E0E",
"H.	c #FAB206",
"I.	c #DA8E0A",
"J.	c #1EB212",
"K.	c #BE220E",
"L.	c #828AB2",
"M.	c #EEEEEE",
"N.	c #2AAA1E",
"O.	c #6E1286",
"P.	c #FEC212",
"Q.	c #E69A06",
"R.	c #BEAE02",
"S.	c #EEAA0E",
"T.	c #A28EAE",
"U.	c #D67A0A",
"V.	c #169E2E",
"W.	c #FADA22",
"X.	c #FEAA0A",
"Y.	c #FAA616",
"Z.	c #F6DE36",
"`.	c #D6B2AA",
" +	c #FAD212",
".+	c #1AAE02",
"++	c #FEBE0E",
"@+	c #C6960E",
"#+	c #FAC612",
"$+	c #FA9E16",
"%+	c #CE3212",
"&+	c #0EAA02",
"*+	c #82CA7E",
"=+	c #AEA282",
"-+	c #E6A20E",
";+	c #765602",
">+	c #E2BA16",
",+	c #D2AE26",
"'+	c #26DE02",
")+	c #FAD21A",
"!+	c #EAAA16",
"~+	c #FAC216",
"{+	c #FEAE16",
"]+	c #E2AE1E",
"^+	c #1236E2",
"/+	c #FEBE16",
"(+	c #CEB296",
"_+	c #2ECE02",
":+	c #F2A20A",
"<+	c #BAAE0A",
"[+	c #EEE232",
"}+	c #D69208",
"|+	c #1EB202",
"1+	c #EEAE16",
"2+	c #CEB6A2",
"3+	c #D68206",
"4+	c #E2AA0A",
"5+	c #CEA20E",
"6+	c #FABA0A",
"7+	c #EA9A0A",
"8+	c #E2A20E",
"9+	c #26D202",
"0+	c #2AE602",
"a+	c #B6B282",
"b+	c #DA820A",
"c+	c #FEC60E",
"d+	c #FEAE0E",
"e+	c #C69A12",
"f+	c #22BE02",
"g+	c #B21E0E",
"h+	c #1EA20A",
"i+	c #EEE23A",
"j+	c #FAAA0E",
"k+	c #FEB20A",
"l+	c #720202",
"m+	c #C6AA92",
"n+	c #F2920A",
"o+	c #B20202",
"p+	c #DE0202",
"q+	c #FEA606",
"r+	c #C20202",
"s+	c #FACA0A",
"t+	c #F29E0A",
"u+	c #FEDA22",
"v+	c #FED20E",
"w+	c #1EAE02",
"x+	c #2ADE02",
"y+	c #FED216",
"z+	c #FEBE12",
"A+	c #722A7A",
"B+	c #F2BE12",
"C+	c #DABEA2",
"D+	c #F6C20E",
"E+	c #FAB20A",
"F+	c #E69A0A",
"G+	c #EAAA1A",
"                                              >+D.0 x i.        ",
"                                          D+B+X 6.H.0.s+G       ",
"                                         +~+6+/+c+X.q+J 4+      ",
"                                    V w.P.X.Y.$+M $+l.A.>.      ",
"                                 +#+#+++{+).b+{ U.: 8.A.8+      ",
"        -.0+'+                G y+++:+j+M n+b+: ~.2 l.S.%.      ",
"      ! -.x+%             , u+u+/+m.h.}+8.8.Z C.k+0.H.1+        ",
"    9.w 2.t p.~         F |.Z.7.G+-+| :.h.7+Q.h.e T 4+]+        ",
"    9+w b } (+_       [+i+z.+.a.,+B.8 e+@+5+o t.f.}.            ",
"    9+y.g a+* ~                                                 ",
"  ] x+|+  i =+&.                                                ",
"  K._+H   v.U _.<     6                                         ",
"  g+K w h+; 4.p S       5 [.                                    ",
"    f+K d 5.I c.q       m (.m+                                  ",
"  %+  3 u D O.C f f r.y b.`.                                    ",
"  !+  $ >.P n /.s s c =.k.                                      ",
"      [ a E.A '.T.)                                             ",
"      1 h Q q.$.z M.                                            ",
"    *.3.# ^.&+J.*+7                                             ",
"   .* R ( / H g.U B                                             ",
"    k.<.<+N W N.` V.                                            ",
"        R.#.#.j + &                                             ",
"          = = o.@.                                              ",
"          > > L.^+O                                             ",
"            F.j.;.^                                             ",
"            e.{.v ,.                                            ",
"            ..4 -                                               ",
"            H ; g.                                              ",
"          @ r ;+n.                                              ",
"          . 9 p+k                                               ",
"          l+9 r+1.  E                                           ",
"              ' ' ' x.                                          "};
