/* XPM */
static char * Fert_Schmied_32_xpm[] = {
"32 32 247 2",
"  	c None",
". 	c #915000",
"+ 	c #844700",
"@ 	c #935000",
"# 	c #DABDA2",
"$ 	c #B89F82",
"% 	c #93682F",
"& 	c #864A03",
"* 	c #884B05",
"= 	c #914E01",
"- 	c #D7BB9C",
"; 	c #C7AC93",
"> 	c #AA937D",
", 	c #997345",
"' 	c #9F7547",
") 	c #B68C5E",
"! 	c #BB8649",
"~ 	c #000000",
"{ 	c #010101",
"] 	c #A08E68",
"^ 	c #9F8D6C",
"/ 	c #B99A76",
"( 	c #C7A480",
"_ 	c #BBA188",
": 	c #DABD9E",
"< 	c #B49B83",
"[ 	c #9B8672",
"} 	c #BEA58D",
"| 	c #231F16",
"1 	c #7F7252",
"2 	c #7B6D4E",
"3 	c #9A5C10",
"4 	c #9A580D",
"5 	c #B18350",
"6 	c #C7AA8E",
"7 	c #EED0B2",
"8 	c #E2C5A8",
"9 	c #D1B99F",
"0 	c #1C1912",
"a 	c #9F5500",
"b 	c #9B5300",
"c 	c #A15D0E",
"d 	c #9B7751",
"e 	c #C1A58B",
"f 	c #ECCEB0",
"g 	c #DFC2A6",
"h 	c #D3A471",
"i 	c #CD9B66",
"j 	c #A46F32",
"k 	c #985F1C",
"l 	c #9E784E",
"m 	c #CEB197",
"n 	c #EACBAE",
"o 	c #DDC0A4",
"p 	c #D5B89E",
"q 	c #E3C7AA",
"r 	c #E0C6A9",
"s 	c #CEB093",
"t 	c #EED2B2",
"u 	c #DBBEA2",
"v 	c #E0C6AA",
"w 	c #DAC2A6",
"x 	c #C9AE95",
"y 	c #D3B69D",
"z 	c #D4B79D",
"A 	c #CAAF96",
"B 	c #BFA68E",
"C 	c #B29B84",
"D 	c #A8927C",
"E 	c #AC957F",
"F 	c #C2A790",
"G 	c #BEA48C",
"H 	c #B19983",
"I 	c #CBB096",
"J 	c #CBB095",
"K 	c #AF9781",
"L 	c #A08C78",
"M 	c #A18C77",
"N 	c #AF9882",
"O 	c #B89F88",
"P 	c #B29A84",
"Q 	c #988063",
"R 	c #A28969",
"S 	c #D1B59B",
"T 	c #CFB499",
"U 	c #9B8773",
"V 	c #847362",
"W 	c #766758",
"X 	c #7F6E5E",
"Y 	c #8B765C",
"Z 	c #826B49",
"` 	c #B69C82",
" .	c #BAA18A",
"..	c #9C8874",
"+.	c #8F7C6A",
"@.	c #95826F",
"#.	c #9B8367",
"$.	c #77603A",
"%.	c #A78E72",
"&.	c #CFB299",
"*.	c #C6AB92",
"=.	c #A08B76",
"-.	c #927F6C",
";.	c #94806C",
">.	c #947C5B",
",.	c #745C36",
"'.	c #9F876A",
").	c #E1C4A7",
"!.	c #C4A991",
"~.	c #B39C85",
"{.	c #8E7C6A",
"].	c #877664",
"^.	c #877254",
"/.	c #685330",
"(.	c #917B5F",
"_.	c #D0B69C",
":.	c #F7E1C1",
"<.	c #A18971",
"[.	c #9A8672",
"}.	c #A28A6F",
"|.	c #856C44",
"1.	c #6C5631",
"2.	c #614D2C",
"3.	c #7B6547",
"4.	c #9E8A76",
"5.	c #DAC0A5",
"6.	c #6A5536",
"7.	c #8C7454",
"8.	c #846B48",
"9.	c #745C37",
"0.	c #725B34",
"a.	c #5E4A2B",
"b.	c #6A5430",
"c.	c #4E443A",
"d.	c #BCA38B",
"e.	c #644F2E",
"f.	c #6F5834",
"g.	c #785F37",
"h.	c #735B34",
"i.	c #604C2C",
"j.	c #65502D",
"k.	c #624E2D",
"l.	c #332D26",
"m.	c #C3A891",
"n.	c #AA937E",
"o.	c #221D19",
"p.	c #020100",
"q.	c #715A34",
"r.	c #735C35",
"s.	c #7C6338",
"t.	c #69532F",
"u.	c #67512F",
"v.	c #6F5832",
"w.	c #5A4829",
"x.	c #050403",
"y.	c #2E1505",
"z.	c #864C11",
"A.	c #CC9D23",
"B.	c #FFAE26",
"C.	c #81673A",
"D.	c #745C35",
"E.	c #6E5832",
"F.	c #634F2E",
"G.	c #5D4A2A",
"H.	c #352C25",
"I.	c #79512E",
"J.	c #B97A38",
"K.	c #AE6E34",
"L.	c #855B3A",
"M.	c #7D6339",
"N.	c #6E5732",
"O.	c #675230",
"P.	c #695430",
"Q.	c #594729",
"R.	c #4E4E4E",
"S.	c #535353",
"T.	c #636363",
"U.	c #525252",
"V.	c #4B4B4B",
"W.	c #745D35",
"X.	c #66502F",
"Y.	c #6D5732",
"Z.	c #68522F",
"`.	c #594628",
" +	c #574528",
".+	c #454545",
"++	c #4A4A4A",
"@+	c #5B5B5B",
"#+	c #464646",
"$+	c #3D3D3D",
"%+	c #6A5330",
"&+	c #634F2D",
"*+	c #3E3E3E",
"=+	c #3B3B3B",
"-+	c #373737",
";+	c #65502E",
">+	c #644F2D",
",+	c #5D4A2B",
"'+	c #695431",
")+	c #3F3F3F",
"!+	c #414141",
"~+	c #6F5933",
"{+	c #6B5430",
"]+	c #6C5531",
"^+	c #5B482A",
"/+	c #67522F",
"(+	c #685230",
"_+	c #383838",
":+	c #755D35",
"<+	c #705A33",
"[+	c #64502E",
"}+	c #66512E",
"|+	c #695636",
"1+	c #4A3B23",
"2+	c #060606",
"3+	c #0A0A0A",
"4+	c #090909",
"5+	c #564630",
"6+	c #65533B",
"7+	c #5D4E37",
"8+	c #645542",
"9+	c #736452",
"0+	c #33312D",
"a+	c #0B0A08",
"b+	c #383430",
"c+	c #565451",
"d+	c #151413",
"e+	c #3A3937",
"f+	c #030303",
"g+	c #171717",
"h+	c #2F2F2F",
"i+	c #1F1F1F",
"j+	c #474747",
"k+	c #9C9C9C",
"l+	c #1A1A1A",
"m+	c #484848",
"n+	c #505050",
"o+	c #393939",
"p+	c #727272",
"q+	c #7B7B7B",
"r+	c #080808",
"s+	c #1E1E1E",
"t+	c #272727",
"u+	c #222222",
"v+	c #232323",
"w+	c #292929",
"x+	c #1C1C1C",
"                          . + @                                 ",
"                    # $ % & * =                                 ",
"                  - ; > , ' ) !                                 ",
"        ~ {   ] ^ / ( _ : < [ }                                 ",
"        ~ { | 1 2 3 4 5 6 7 8 9                                 ",
"          ~ { 0   a b c d e f g                                 ",
"            ~     h i j k l m n o                               ",
"                  p q r s t u v w                               ",
"                x y z A z y B C D                               ",
"                E F G H I J K                                   ",
"                L M N O P Q R S                                 ",
"                T U V W X Y Z `                                 ",
"                   ...+.@.#.$.%.&.                              ",
"                  *.=.-.;.>.,.'.).                              ",
"                !.~.{.].^.,./.(._.:.                            ",
"                <.[.-.}.|.1.2.3.4.5.                            ",
"                6.7.8.9.0.a.b.  c.d.u                           ",
"                e.f.g.h.i.j.k.  l.m.n.o.p.                      ",
"                q.r.s.t.u.v.w.        x.y.z.A.B.                ",
"                C.D.E.F.q.1.G.          H.I.J.K.L.              ",
"                M.N.a.O.P.i.Q.          R.S.T.U.V.              ",
"                W.v.X.Y.Z.`. +          .+++@+#+$+              ",
"                h.b.%+b.t.Q.&+            *+=+-+                ",
"                N.;+t.>+,+'+0.            V.)+!+                ",
"                ~+{+]+^+a./+(+            *+_+_+$+              ",
"                :+<+[+}+'+|+1+          2+3+3+3+4+              ",
"                  5+6+7+8+9+0+          ~ ~ ~ ~ ~               ",
"                  a+b+c+d+e+            ~ ~ ~ ~ ~               ",
"                  f+_+T.g+S.            ~ ~ ~ ~ ~               ",
"                  f+h+@+i+j+k+          ~ ~ ~ ~ ~               ",
"                  { l+m+n+o+p+q+        ~ ~ ~ ~ ~               ",
"                  { r+s+t+u+v+w+x+      ~ ~ ~ ~ ~               "};
