/* XPM */
static char * Fert_Taylor_32_xpm[] = {
"32 32 256 2",
"  	c None",
". 	c #366222",
"+ 	c #765A02",
"@ 	c #768652",
"# 	c #AA8602",
"$ 	c #4E8A32",
"% 	c #8AAE86",
"& 	c #86E656",
"* 	c #1EC6A6",
"= 	c #7A8E22",
"- 	c #8AC69E",
"; 	c #6ABE45",
"> 	c #5AA23A",
", 	c #8AEE57",
"' 	c #827266",
") 	c #829E26",
"! 	c #32D2AE",
"~ 	c #DEDAA6",
"{ 	c #C6BE92",
"] 	c #725602",
"^ 	c #948672",
"/ 	c #1EBA9A",
"( 	c #76AE92",
"_ 	c #CDCA9B",
": 	c #7A6E62",
"< 	c #42722A",
"[ 	c #A28E7A",
"} 	c #AAAE8A",
"| 	c #7AB252",
"1 	c #3EC2A2",
"2 	c #46AE86",
"3 	c #7E6E0A",
"4 	c #F2EEB8",
"5 	c #61AA3E",
"6 	c #6E6E12",
"7 	c #76CE4A",
"8 	c #766E5E",
"9 	c #B6AE86",
"0 	c #E5CEAD",
"a 	c #62721A",
"b 	c #568A2E",
"c 	c #A6CAA6",
"d 	c #2ABA9A",
"e 	c #EDEAB7",
"f 	c #A2967A",
"g 	c #D2D2A5",
"h 	c #72665A",
"i 	c #82E652",
"j 	c #9E8A7A",
"k 	c #9C7A04",
"l 	c #46C69E",
"m 	c #467E2E",
"n 	c #626A16",
"o 	c #CAB676",
"p 	c #B49E86",
"q 	c #DABEA2",
"r 	c #62B296",
"s 	c #67B642",
"t 	c #969272",
"u 	c #6EAA82",
"v 	c #46D4B2",
"w 	c #6A982E",
"x 	c #DEDEAE",
"y 	c #569636",
"z 	c #3AA27A",
"A 	c #B6B690",
"B 	c #72CA4A",
"C 	c #7EDA4E",
"D 	c #22E2BE",
"E 	c #B6BEB6",
"F 	c #329E6E",
"G 	c #A29A7A",
"H 	c #DCCEAC",
"I 	c #6AC2A2",
"J 	c #8E6E02",
"K 	c #8AA062",
"L 	c #5A7622",
"M 	c #D6BE9A",
"N 	c #C2BE8E",
"O 	c #6F7E1D",
"P 	c #D2CA9A",
"Q 	c #665E52",
"R 	c #627E46",
"S 	c #9E9676",
"T 	c #58CCA8",
"U 	c #5E8226",
"V 	c #EAE2AE",
"W 	c #BEAE82",
"X 	c #766206",
"Y 	c #8F8271",
"Z 	c #AE9E82",
"` 	c #52763A",
" .	c #5E8E5E",
"..	c #C6BA92",
"+.	c #669C32",
"@.	c #6E6A0E",
"#.	c #769A52",
"$.	c #CEB692",
"%.	c #7AD64E",
"&.	c #BEAA76",
"*.	c #DED6A2",
"=.	c #CAC692",
"-.	c #5A9E3A",
";.	c #4B822E",
">.	c #7E5E02",
",.	c #8EA27A",
"'.	c #C8CCB2",
").	c #62AE3F",
"!.	c #3A6626",
"~.	c #71C647",
"{.	c #26D2B2",
"].	c #D6D6AA",
"^.	c #E6DEA9",
"/.	c #8E7E0E",
"(.	c #76AA4E",
"_.	c #D6CAB6",
":.	c #43762B",
"<.	c #BEB68A",
"[.	c #C0CCB8",
"}.	c #A2A676",
"|.	c #836602",
"1.	c #72924E",
"2.	c #96B2AE",
"3.	c #D2C2AA",
"4.	c #52864A",
"5.	c #BEC29A",
"6.	c #529236",
"7.	c #CECEA3",
"8.	c #E2E2B3",
"9.	c #3E6A26",
"0.	c #D7D2A1",
"a.	c #87760A",
"b.	c #AEA67E",
"c.	c #22CAAA",
"d.	c #969E76",
"e.	c #BEAA8E",
"f.	c #C2B69E",
"g.	c #6C8622",
"h.	c #6EB23A",
"i.	c #CAC2A6",
"j.	c #D2C4A6",
"k.	c #70B848",
"l.	c #DADAAA",
"m.	c #AA8202",
"n.	c #66A63A",
"o.	c #76D24B",
"p.	c #56AE8E",
"q.	c #B8A68A",
"r.	c #CEC697",
"s.	c #D2CE9C",
"t.	c #5E9832",
"u.	c #967605",
"v.	c #6EC246",
"w.	c #EED6B6",
"x.	c #65B241",
"y.	c #62CEBA",
"z.	c #8A6A02",
"A.	c #599239",
"B.	c #C6C69A",
"C.	c #857666",
"D.	c #CACAA3",
"E.	c #E2DEAB",
"F.	c #FAF6C2",
"G.	c #A28202",
"H.	c #5EA63B",
"I.	c #DEDAAA",
"J.	c #6ABA43",
"K.	c #569A37",
"L.	c #C1AE91",
"M.	c #D6D2A8",
"N.	c #828A62",
"O.	c #5ABAAA",
"P.	c #BEBA8C",
"Q.	c #BEBE99",
"R.	c #C6C69E",
"S.	c #AAA68E",
"T.	c #477A2D",
"U.	c #4A8631",
"V.	c #26CCAA",
"W.	c #56D2AA",
"X.	c #C6C292",
"Y.	c #CAB69A",
"Z.	c #D2D2AB",
"`.	c #D6CE9E",
" +	c #BFBA93",
".+	c #E6E2AE",
"++	c #7A8A62",
"@+	c #BABA94",
"#+	c #EAEAC2",
"$+	c #B6A282",
"%+	c #866A04",
"&+	c #ADAA83",
"*+	c #9E9276",
"=+	c #9EA078",
"-+	c #DAD6A6",
";+	c #7EDE52",
">+	c #887A6A",
",+	c #7AD24D",
"'+	c #C6B69E",
")+	c #427A36",
"!+	c #CAC293",
"~+	c #E2DEB2",
"{+	c #92B292",
"]+	c #26C6A6",
"^+	c #EAD2AE",
"/+	c #A27E02",
"(+	c #4A7E2E",
"_+	c #C6AA92",
":+	c #C6AE92",
"<+	c #EAE6B4",
"[+	c #C2C69E",
"}+	c #DEDAB0",
"|+	c #B2B292",
"1+	c #518E34",
"2+	c #3F6E29",
"3+	c #F6F2C2",
"4+	c #A6A880",
"5+	c #8E9E86",
"6+	c #CAC698",
"7+	c #B2B28A",
"8+	c #DADAAF",
"9+	c #CECAA2",
"0+	c #4E8632",
"a+	c #DBC2A2",
"b+	c #529636",
"c+	c #8A7A0E",
"d+	c #1FCEAD",
"e+	c #C2B292",
"f+	c #E2E2BA",
"g+	c #6EBE44",
"h+	c #5EA23A",
"i+	c #DAD2A8",
"j+	c #80720C",
"k+	c #927202",
"l+	c #66824C",
"m+	c #9A9A78",
"n+	c #527A3A",
"o+	c #CEBA9E",
"p+	c #DEDEB2",
"q+	c #D6CEA6",
"r+	c #BAB68B",
"s+	c #5A9A3A",
"t+	c #C2BA8D",
"u+	c #C2BE94",
"v+	c #427E36",
"w+	c #D6D6AE",
"x+	c #B6A28A",
"y+	c #D2CEA2",
"z+	c #C2C29B",
"A+	c #B6B28A",
"B+	c #DAD6AE",
"C+	c #6E5A06",
"D+	c #7E7262",
"E+	c #76725E",
"F+	c #6E6A5A",
"G+	c #9E8E7A",
"                              ' [ e.x+                          ",
"                              C.L.w.0 [                         ",
"                            : Y $.0 ^+x+D+                      ",
"                            C.p $.q Y.q.'                       ",
"                          F+j L.W o &.q.Y                       ",
"                          ' x+3.[+`.[.f.^                       ",
"                  V ^.r.b.>+p 3.3.H _.o+                        ",
"              P e F.e r.A+*+Z :+Y Y G+L.b.X.6+                  ",
"            P V 3+3+E.<.{ <...f 8 Q h S <.`.E.~+                ",
"            x e <+e 6+r+t+r.s.{ t E+&+9 r.~ 8.<+e w+            ",
"            8.<+.+~ `.=.t+`.I.X.t G =.!+P *.x E..+}+            ",
"          g E.~ P !+s.0._ E.x { { 0.s._ P ~ s.*.^.x z+          ",
"          w+}+0.{ 6+-+P _ .+8+N -+E.0.g !+P X.`.E.8.R.          ",
"        g 8+l.g P.=.].X.0.8.g t+l.-+Z.M.N _ P.@+r.I.R.          ",
"        ].x -+7.P.{ P !+I.~+_ t+0.Z.'.].P.`.=.} A 7.z+          ",
"        ].p+8+g 9+6+6+_ l.x r.f.i.E '.7.u+].N b.@+z+z+          ",
"        D.w+].g 8+#+}+s.0.i+a+f.2.O.l c X.9+7+Q.7.z+Q.          ",
"        z+x p+w+].8.#+}+0.0 a+$.y.{.V.W.[+_ g x l.D.B.7.        ",
"          9+].8+8.].l.Z.H q L.S.v D ! - 7.8.8.p+g z+R.R.        ",
"            @+7.8+p+8+9+e+x+5+r V.d+T D.].p+x 7.R.z+Q.          ",
"              7+X.w+g 7+m+( 1 V.* / I r.7.Z.D.Q.@+@+            ",
"            | K }.Q.7+m+% v d+c.d p.{+ +u+z+@+|+}               ",
"    s o.i i 7 J.(.K @ N.u l * * 2 5+b.&+}.m+d.=+#.6.y -.h+      ",
"    s ,+, , %.7 ~.k.A.` R  .z F 4.l+@ R ` n+1.y y -.x.7 o.x.    ",
"    ).J.J.B ,+%.%.B x.s+T.< T.)+)+< 2+< < 0+A.b+h+; o.i %.H.    ",
"    K.6.h+s B 7 %.;+i ,+x.6.;.m :.:.2+:.U.y -.).v.%.;+B H.$     ",
"    1+U.6.> x.; ~.7 C , C v.).-.;.m m 1+K.> x.~.7 B J.> 1+U.    ",
"      m ;.1+K.H.5 ).s 7 %.o.B ; ).-.6.> 5 J.~.B v.).y 0+U.      ",
"      9.2+T.U.U O O g.t.J.B ,+7 B v.).5 5 s h.n.A.b U.T.        ",
"        . 9.2+6 k+u.u.a.g.+.; ~.7 o.v.s w = /.c+c+j+n           ",
"          . 9.@.z.k m.m.k 3 O +.J.v.g+) a.k+/+m.# /+%+          ",
"              n X |.J k+%++ C+L > H.w j+|.%+%+%+>.>.+           "};
