/* XPM */
static char * gnu_haed_trans_32_xpm[] = {
"33 32 178 2",
"  	c None",
". 	c #A9A9A9",
"+ 	c #AEAEAE",
"@ 	c #8D8D8D",
"# 	c #9A9A9A",
"$ 	c #919191",
"% 	c #ADADAD",
"& 	c #939393",
"* 	c #A0A0A0",
"= 	c #9B9B9B",
"- 	c #ACACAC",
"; 	c #A4A4A4",
"> 	c #6E6E6E",
", 	c #606060",
"' 	c #737373",
") 	c #7A7A7A",
"! 	c #6D6D6D",
"~ 	c #AAAAAA",
"{ 	c #B1B1B1",
"] 	c #757575",
"^ 	c #4D4D4D",
"/ 	c #6A6A6A",
"( 	c #7E7E7E",
"_ 	c #7D7D7D",
": 	c #9C9C9C",
"< 	c #828282",
"[ 	c #D7D7D7",
"} 	c #B5B5B5",
"| 	c #A7A7A7",
"1 	c #656565",
"2 	c #949494",
"3 	c #717171",
"4 	c #959595",
"5 	c #A1A1A1",
"6 	c #878787",
"7 	c #565656",
"8 	c #4E4E4E",
"9 	c #868686",
"0 	c #C3C3C3",
"a 	c #D5D5D5",
"b 	c #C6C6C6",
"c 	c #898989",
"d 	c #464646",
"e 	c #727272",
"f 	c #E8E8E8",
"g 	c #BCBCBC",
"h 	c #B3B3B3",
"i 	c #C0C0C0",
"j 	c #CCCCCC",
"k 	c #B6B6B6",
"l 	c #707070",
"m 	c #626262",
"n 	c #A3A3A3",
"o 	c #E5E5E5",
"p 	c #9D9D9D",
"q 	c #9F9F9F",
"r 	c #DCDCDC",
"s 	c #363636",
"t 	c #404040",
"u 	c #9E9E9E",
"v 	c #414141",
"w 	c #535353",
"x 	c #666666",
"y 	c #6F6F6F",
"z 	c #595959",
"A 	c #D3D3D3",
"B 	c #EAEAEA",
"C 	c #6C6C6C",
"D 	c #B0B0B0",
"E 	c #2C2C2C",
"F 	c #232323",
"G 	c #222222",
"H 	c #252525",
"I 	c #393939",
"J 	c #646464",
"K 	c #373737",
"L 	c #3E3E3E",
"M 	c #CECECE",
"N 	c #B7B7B7",
"O 	c #444444",
"P 	c #282828",
"Q 	c #2B2B2B",
"R 	c #8C8C8C",
"S 	c #242424",
"T 	c #424242",
"U 	c #AFAFAF",
"V 	c #696969",
"W 	c #797979",
"X 	c #333333",
"Y 	c #5D5D5D",
"Z 	c #929292",
"` 	c #ABABAB",
" .	c #EFEFEF",
"..	c #999999",
"+.	c #A2A2A2",
"@.	c #848484",
"#.	c #636363",
"$.	c #434343",
"%.	c #838383",
"&.	c #5A5A5A",
"*.	c #7C7C7C",
"=.	c #BEBEBE",
"-.	c #BABABA",
";.	c #686868",
">.	c #8F8F8F",
",.	c #F1F1F1",
"'.	c #FFFFFF",
").	c #BBBBBB",
"!.	c #F2F2F2",
"~.	c #DBDBDB",
"{.	c #BDBDBD",
"].	c #F6F6F6",
"^.	c #E3E3E3",
"/.	c #D1D1D1",
"(.	c #FCFCFC",
"_.	c #B4B4B4",
":.	c #5F5F5F",
"<.	c #676767",
"[.	c #A8A8A8",
"}.	c #DADADA",
"|.	c #515151",
"1.	c #585858",
"2.	c #8B8B8B",
"3.	c #C2C2C2",
"4.	c #F8F8F8",
"5.	c #E4E4E4",
"6.	c #EEEEEE",
"7.	c #F3F3F3",
"8.	c #F0F0F0",
"9.	c #C9C9C9",
"0.	c #7B7B7B",
"a.	c #858585",
"b.	c #E2E2E2",
"c.	c #F5F5F5",
"d.	c #E1E1E1",
"e.	c #B9B9B9",
"f.	c #D8D8D8",
"g.	c #FDFDFD",
"h.	c #989898",
"i.	c #969696",
"j.	c #8A8A8A",
"k.	c #E6E6E6",
"l.	c #555555",
"m.	c #545454",
"n.	c #B8B8B8",
"o.	c #D0D0D0",
"p.	c #EBEBEB",
"q.	c #F9F9F9",
"r.	c #FEFEFE",
"s.	c #F7F7F7",
"t.	c #C4C4C4",
"u.	c #D4D4D4",
"v.	c #BFBFBF",
"w.	c #DEDEDE",
"x.	c #CDCDCD",
"y.	c #EDEDED",
"z.	c #ECECEC",
"A.	c #A6A6A6",
"B.	c #CACACA",
"C.	c #909090",
"D.	c #B2B2B2",
"E.	c #E9E9E9",
"F.	c #D6D6D6",
"G.	c #C8C8C8",
"H.	c #FAFAFA",
"I.	c #CBCBCB",
"J.	c #3B3B3B",
"K.	c #E0E0E0",
"L.	c #DDDDDD",
"M.	c #C5C5C5",
"N.	c #979797",
"O.	c #CFCFCF",
"P.	c #DFDFDF",
"Q.	c #FBFBFB",
"R.	c #F4F4F4",
"S.	c #E7E7E7",
"T.	c #D9D9D9",
"U.	c #C1C1C1",
"          . + @ # $ %                               & * . =       ",
"      - ; > , ' ) , ! & ~                     { ] ^ / ( _ / : <   ",
"    [ } | 1 ~ $     - ;                       2 3 4 5 # 6 7 8 9   ",
"  0 a = b -                                             c # d e ~ ",
"  f g # h               i j k &         c                 2 l m n ",
". o p q               r @ 1 s t u , v ^ w x y             n < z & ",
"A B 6 C             D w E E F G H I J K H G L =           5 6 J = ",
"M N _ 4           5 O P G G G G Q d R l m F S T .         U V W } ",
"a D @ }         & X P Y Z ` 9 p  ...+.@._ 6 #.v $.%.      l &.*.} ",
"=.-.;.;.p     m T >.,.'.,.i ).'.!.~.{.e ].^./.(._.y :.;.<.t 1 [.= ",
"*.}.< |.1.2.Y I 3.'.'.4.$ ' 5.4.6.7.8.9.o # 5.4.'.| :.J X > 0.-.  ",
"  0 D a.Y $.^ q '.'.'.a b.c.8. .M '.d.'.e.M f.g.'.c.a./ 9 | N     ",
"    ).-.h.i.j.].'.'.'.'.k.'.a.l.y !.7.'.b.1 m.d.'.'.+ ).3.e.      ",
"      ).n.a -.'.'.'.'.(.d.'.o.+.+ 8.'.'.'.| 4 p.'.'.q.)           ",
"          + M '.'.'.'.~. .'.'.r.r.s.'.'.'.r.0 t.'.'.'.b.          ",
"            ^.'.'.'.r.}.o '.'.'.'.'.'.'.'.'.}.+.0 u.,.r.<         ",
"          3.r.'.'.q.v.g. .'.'.'.'.w./.x.y.'.r...                  ",
"          [ '.w.9.% (.'.'.'.'.'.'.Z A z.f A.,.4.,.b               ",
"        B.u.C.D.s.d.].'.'.'.E.g.'.E./.= f.'.!.'.'.o.              ",
"              }.'.F.o '.'.'.'.B ].7.'.(.G.'.'.'.o.6               ",
"              5.'.H.I.'.'.'.'.'.9.g.'.'.r.'.B ..J.                ",
"              d.'.'.~.K.'.'.'.'.p.L.'.'.'.'.4.H.t.                ",
"              j '.'.'.L.M r.'.'.'./.j r o M.N.W @.                ",
"                r.'.'.z.O.'.'.'.'.'.z.u.P.'.'.F.                  ",
"                P.'.'.H.F.r '.'.'.s.4.s.M } M.k                   ",
"                  (.'.'.r.A Q.R.'.q./.l J L                       ",
"                  o.q.'.'.S.y.I.y.'.'.p.z.h                       ",
"                    M.Q.'.  w.O.u.'.'.'.A {                       ",
"                              T.t.5.c.` :                         ",
"                            B.  h /.U.%.n z.                      ",
"                                T._.=.#.> J                       ",
"                                    O.*                           "};
