/* XPM */
static char * Green_Dice_trans_50_xpm[] = {
"50 32 256 2",
"  	c None",
". 	c #0E6616",
"+ 	c #92AA92",
"@ 	c #6A926E",
"# 	c #16C625",
"$ 	c #0EAA1A",
"% 	c #487E4C",
"& 	c #068612",
"* 	c #CADACA",
"= 	c #6EB276",
"- 	c #37863F",
"; 	c #32A63A",
"> 	c #56BE60",
", 	c #BACABA",
"' 	c #427646",
") 	c #0A9E16",
"! 	c #308638",
"~ 	c #96BE9C",
"{ 	c #42EA52",
"] 	c #6ED27A",
"^ 	c #44B24E",
"/ 	c #0C7214",
"( 	c #46BE52",
"_ 	c #367A3A",
": 	c #AAC2AC",
"< 	c #86B28A",
"[ 	c #56825A",
"} 	c #248A2C",
"| 	c #0B9616",
"1 	c #1E7626",
"2 	c #6EBE76",
"3 	c #3A9E42",
"4 	c #7EA282",
"5 	c #92E29A",
"6 	c #2AD63A",
"7 	c #61A667",
"8 	c #4A9252",
"9 	c #52DA5E",
"0 	c #66A26B",
"a 	c #067A12",
"b 	c #249E2C",
"c 	c #30BE3C",
"d 	c #3AE24A",
"e 	c #0A9215",
"f 	c #266E2A",
"g 	c #A2BEA6",
"h 	c #8AC28E",
"i 	c #4EAA56",
"j 	c #BAD2BE",
"k 	c #168622",
"l 	c #E2E6E4",
"m 	c #2CB638",
"n 	c #4E9656",
"o 	c #36963E",
"p 	c #AED2B2",
"q 	c #1A7A26",
"r 	c #7EBE82",
"s 	c #26D234",
"t 	c #9ECEA2",
"u 	c #1C9E26",
"v 	c #66AE6A",
"w 	c #7CB280",
"x 	c #2E9636",
"y 	c #82D28A",
"z 	c #4EB65A",
"A 	c #16B626",
"B 	c #1E9626",
"C 	c #1EBE2A",
"D 	c #DEE6DE",
"E 	c #3A9242",
"F 	c #068E14",
"G 	c #A2C6A4",
"H 	c #9DC29F",
"I 	c #5A925E",
"J 	c #8FC293",
"K 	c #068212",
"L 	c #5ECA6A",
"M 	c #72CA7A",
"N 	c #24982C",
"O 	c #12861D",
"P 	c #226A26",
"Q 	c #3ACA46",
"R 	c #1EC62E",
"S 	c #5AC262",
"T 	c #36B242",
"U 	c #76A27A",
"V 	c #A2BAA2",
"W 	c #6CA670",
"X 	c #BADABE",
"Y 	c #569A5A",
"Z 	c #62AE66",
"` 	c #D6DED6",
" .	c #3EA648",
"..	c #7AC07E",
"+.	c #169E20",
"@.	c #8AAE8E",
"#.	c #1A7420",
"$.	c #3E7A42",
"%.	c #7EC286",
"&.	c #91CA97",
"*.	c #A8CAAC",
"=.	c #76BA7E",
"-.	c #478E4B",
";.	c #52B65E",
">.	c #267E2E",
",.	c #12821D",
"'.	c #6ADE76",
").	c #B4C8B6",
"!.	c #1AAE26",
"~.	c #1AB226",
"{.	c #C0D6C2",
"].	c #0B7A13",
"^.	c #7EA682",
"/.	c #0A8614",
"(.	c #4ACE56",
"_.	c #75AA79",
":.	c #84AA8A",
"<.	c #5C9E62",
"[.	c #C5DEC7",
"}.	c #48BA52",
"|.	c #3ABA46",
"1.	c #76BE7E",
"2.	c #56B25E",
"3.	c #16921E",
"4.	c #66B66D",
"5.	c #2A8E32",
"6.	c #22922A",
"7.	c #A2CEA6",
"8.	c #3CAE46",
"9.	c #58BA62",
"0.	c #26CE36",
"a.	c #5E9662",
"b.	c #0E6A13",
"c.	c #368E3E",
"d.	c #108E1A",
"e.	c #7ECA86",
"f.	c #2E9E36",
"g.	c #26B834",
"h.	c #3A823E",
"i.	c #0A8213",
"j.	c #84C688",
"k.	c #8EAE92",
"l.	c #42C24E",
"m.	c #82B686",
"n.	c #0A8A16",
"o.	c #25C632",
"p.	c #669A6A",
"q.	c #4EC65A",
"r.	c #16761E",
"s.	c #127E1A",
"t.	c #78D280",
"u.	c #36DA46",
"v.	c #5EDE6A",
"w.	c #326E3A",
"x.	c #729A76",
"y.	c #0A7E12",
"z.	c #3E8A46",
"A.	c #36C044",
"B.	c #56AE5E",
"C.	c #42924A",
"D.	c #5EB664",
"E.	c #629868",
"F.	c #8AC890",
"G.	c #4AF25A",
"H.	c #469A4E",
"I.	c #1A8E22",
"J.	c #529E56",
"K.	c #16821E",
"L.	c #0E6E16",
"M.	c #12961E",
"N.	c #6EBA76",
"O.	c #0E9218",
"P.	c #378A3D",
"Q.	c #0EA21A",
"R.	c #8FC695",
"S.	c #6E9E72",
"T.	c #69BA71",
"U.	c #C6DAC6",
"V.	c #6FC277",
"W.	c #D1DAD2",
"X.	c #C2CEC2",
"Y.	c #EAEAEA",
"Z.	c #B6D2BA",
"`.	c #61C66A",
" +	c #96AE9A",
".+	c #8AB692",
"++	c #068A12",
"@+	c #0A9A16",
"#+	c #15A221",
"$+	c #26722E",
"%+	c #DEE2DE",
"&+	c #166E1A",
"*+	c #328A39",
"=+	c #1AA222",
"-+	c #C1DAC3",
";+	c #7BAA7F",
">+	c #76AE7C",
",+	c #0E8216",
"'+	c #16A622",
")+	c #4E7E52",
"!+	c #4AB252",
"~+	c #3E9E46",
"{+	c #1E8A26",
"]+	c #8AD692",
"^+	c #96CA9A",
"/+	c #22AA2E",
"(+	c #629E66",
"_+	c #328E36",
":+	c #2AC63A",
"<+	c #0E7616",
"[+	c #3EAA44",
"}+	c #5AB662",
"|+	c #46C650",
"1+	c #0E7E16",
"2+	c #067E12",
"3+	c #9AC69E",
"4+	c #128A1A",
"5+	c #26CA36",
"6+	c #CEDECE",
"7+	c #4A8E52",
"8+	c #0E8618",
"9+	c #32AA3E",
"0+	c #BECEC2",
"a+	c #46B652",
"b+	c #38A240",
"c+	c #22A22A",
"d+	c #2EC23A",
"e+	c #50AE58",
"f+	c #E6EAE6",
"g+	c #20C22C",
"h+	c #A2CAA6",
"i+	c #6EAA72",
"j+	c #7EC686",
"k+	c #A6CEAA",
"l+	c #86AE8A",
"m+	c #76C27E",
"n+	c #5A9A5E",
"o+	c #82CA8A",
"p+	c #B4D6B4",
"q+	c #94B296",
"r+	c #88BA8C",
"s+	c #0E8A16",
"t+	c #12921E",
"u+	c #0E9E16",
"v+	c #0A8E12",
"w+	c #3E8246",
"x+	c #1EA22A",
"y+	c #367E3E",
"z+	c #1A8A22",
"A+	c #529A56",
"B+	c #369A3E",
"C+	c #1A7E1E",
"D+	c #2A9A32",
"E+	c #1E9A2A",
"F+	c #DAEADA",
"G+	c #5ACE66",
"                                                                                                    ",
"                                                                                                    ",
"                                                        ~+B.                                        ",
"                                                s.1+,+6.i D.e+                                      ",
"                                          O.O.8+,+i.4+b+4.}+ .                                      ",
"                                    m #+#++.e i.y.s+b 2.1.!+f.                                      ",
"                                v.]+9.u 8.; s+y.i.I.[+....^ B                                       ",
"                                5 W.r+7 g w N e+v 3 T.^+V.f.K.L.                                    ",
"                              5+t.j T.1.U.o+!+p {.=.&.t 9.6./ b.                                    ",
"                              # d+( g.l.M |+> {.{.7.X ^+b+C+b.b.                                    ",
"                              # # A ~.g.c |.}+*.p [.[.r o r.b.b.                                    ",
"                            0.R g+c T }.9.2 &.p 6+F+X = - #.. L.z+                                  ",
"                            Q A.|+S 2 j+F.h+k+3+H -+-+>+h.P f &+I.                                  ",
"                          '.L L V.j.j.J J r+_.E.Y ~ -+m.h.% x.h.}                                   ",
"                          y o+e.j+r N.v D.a.^.+ I (+Z.R.H.4 %+^.c.b                                 ",
"                          o+V.T.4.2.^ 8.b+n ).%+:.8 H *.B.w *.^.E B                                 ",
"                          V.2.7 0 B+/+!.#+*+: ` 4 *+>+h+2 ^ 8.9+x+#+                                ",
"                          ;.7 ).0+A++.$ @+,.-.E.*+5.<.H %.a+m C g+:+                                ",
"                            S.` l 0 t+@+/.].i.n.| B n .+R.> c g+s d                                 ",
"                            A+@.k.P.s+k 7+I } | ) u -.;+3+V.( g+s {                                 ",
"                            ! >.1 <+2+! , W.W @+) M.! a.H j+q.:+6 G.                                ",
"                              / / a K h.X.D i+d.& y.1 % ;+F.`.Q u.                                  ",
"                              ].a K ++K.n+i+x & ].q $+w.@ J V.(.9                                   ",
"                              8+/.& & F e | F K -.V  +' % < e.G+                                    ",
"                              8+/.i.1+,./.F & a U l W.[ ' _.&.t.                                    ",
"                                ,+q p.q+C.y.& a 7+: q+y+y+S.H                                       ",
"                                ,.- , f+< 8+e ++s.*+! >.w+                                          ",
"                                  P.V * _.O.) Q.| F                                                 ",
"                                  {+z.J.x #+'+Q.                                                    ",
"                                  u u+u                                                             ",
"                                                                                                    ",
"                                                                                                    "};
