/* XPM */
static char * Grundwert_small_xpm[] = {
"80 40 217 2",
"  	c None",
". 	c #131313",
"+ 	c #909090",
"@ 	c #969696",
"# 	c #2A2A2A",
"$ 	c #090909",
"% 	c #080808",
"& 	c #262626",
"* 	c #333333",
"= 	c #434343",
"- 	c #2E2E2E",
"; 	c #797979",
"> 	c #878787",
", 	c #7B7B7B",
"' 	c #747474",
") 	c #6E6E6E",
"! 	c #C5C5C5",
"~ 	c #323232",
"{ 	c #191919",
"] 	c #FEFEFE",
"^ 	c #EFEFEF",
"/ 	c #898989",
"( 	c #D9D9D9",
"_ 	c #E8E8E8",
": 	c #ECECEC",
"< 	c #DCDCDC",
"[ 	c #919191",
"} 	c #4D4D4D",
"| 	c #FFFFFF",
"1 	c #F9F9F9",
"2 	c #F1F1F1",
"3 	c #F3F3F3",
"4 	c #EEEEEE",
"5 	c #E7E7E7",
"6 	c #DADADA",
"7 	c #515151",
"8 	c #FAFAFA",
"9 	c #F4F4F4",
"0 	c #F5F5F5",
"a 	c #EDEDED",
"b 	c #E9E9E9",
"c 	c #EAEAEA",
"d 	c #E6E6E6",
"e 	c #F6F6F6",
"f 	c #F7F7F7",
"g 	c #F2F2F2",
"h 	c #E0E0E0",
"i 	c #E3E3E3",
"j 	c #F0F0F0",
"k 	c #EBEBEB",
"l 	c #F8F8F8",
"m 	c #FDFDFD",
"n 	c #C5C4B6",
"o 	c #DAD9C9",
"p 	c #E5E5E5",
"q 	c #E5E4CF",
"r 	c #ECEBD7",
"s 	c #C2C1B2",
"t 	c #EBEAD8",
"u 	c #DBDBDB",
"v 	c #484848",
"w 	c #FBFBFB",
"x 	c #D9D8C8",
"y 	c #D3D2C2",
"z 	c #ECEAD8",
"A 	c #E4DAC8",
"B 	c #EEBEAC",
"C 	c #FB9480",
"D 	c #FD7863",
"E 	c #FFD6D0",
"F 	c #D6D6D6",
"G 	c #858585",
"H 	c #FCFCFC",
"I 	c #CFC9B9",
"J 	c #EAE2D1",
"K 	c #F28E7B",
"L 	c #C65D4D",
"M 	c #B65344",
"N 	c #C45E4E",
"O 	c #FACDC6",
"P 	c #D1B3A3",
"Q 	c #E0DAC9",
"R 	c #CC8473",
"S 	c #BC5949",
"T 	c #DA6653",
"U 	c #F0725E",
"V 	c #FDDED9",
"W 	c #F79985",
"X 	c #D9D4C0",
"Y 	c #E1D8C4",
"Z 	c #F6B4A0",
"` 	c #9B9B9B",
" .	c #8E8E8E",
"..	c #ABABAB",
"+.	c #D1D1D1",
"@.	c #626262",
"#.	c #8B8B8C",
"$.	c #A1A1A2",
"%.	c #101010",
"&.	c #575757",
"*.	c #E8E7D4",
"=.	c #D3D1BD",
"-.	c #D9D7C3",
";.	c #E9E7D5",
">.	c #C1C1C1",
",.	c #7C7C7C",
"'.	c #CACACA",
").	c #DDDDDD",
"!.	c #AAAAAA",
"~.	c #A6A6A6",
"{.	c #121212",
"].	c #161616",
"^.	c #1C1C1C",
"/.	c #3C3C3C",
"(.	c #E9E8D6",
"_.	c #DAD9C5",
":.	c #D7D6C2",
"<.	c #D8D6C2",
"[.	c #EAE9D6",
"}.	c #AEAEAE",
"|.	c #A0A0A0",
"1.	c #B7B7B7",
"2.	c #888888",
"3.	c #B0B0B0",
"4.	c #E1E1E1",
"5.	c #ECEBEA",
"6.	c #EFDCD9",
"7.	c #FDD5CF",
"8.	c #E8C0BA",
"9.	c #98837F",
"0.	c #6B6B6B",
"a.	c #5D5D5D",
"b.	c #040404",
"c.	c #242424",
"d.	c #E4E2CF",
"e.	c #E1E0CD",
"f.	c #DBDAC6",
"g.	c #D9D8C4",
"h.	c #D5D5D5",
"i.	c #B1B1B1",
"j.	c #757575",
"k.	c #707070",
"l.	c #868686",
"m.	c #5B5B5B",
"n.	c #5C5C5C",
"o.	c #BFBFBF",
"p.	c #E4E4E4",
"q.	c #F98C7B",
"r.	c #FF7964",
"s.	c #FF7863",
"t.	c #E86F5D",
"u.	c #B85747",
"v.	c #A95143",
"w.	c #2D2221",
"x.	c #171717",
"y.	c #111111",
"z.	c #EDECDA",
"A.	c #E0DFCB",
"B.	c #E5E4D1",
"C.	c #9D9D9D",
"D.	c #3A3A3A",
"E.	c #201D1D",
"F.	c #272423",
"G.	c #242322",
"H.	c #E0DFCC",
"I.	c #ECEBD9",
"J.	c #DBD9C5",
"K.	c #FFFCFB",
"L.	c #FFCDC6",
"M.	c #FE8C7B",
"N.	c #F37662",
"O.	c #E36D5A",
"P.	c #B35C4E",
"Q.	c #22201F",
"R.	c #6F514C",
"S.	c #CD6C5D",
"T.	c #FE7863",
"U.	c #DEDCC9",
"V.	c #FFA5A5",
"W.	c #E8E7D5",
"X.	c #E0DECB",
"Y.	c #E6E5D2",
"Z.	c #EDEAD9",
"`.	c #E3E1CF",
" +	c #EFE6D5",
".+	c #FEA8A7",
"++	c #FBB5B1",
"@+	c #EDEBDA",
"#+	c #E3E2CF",
"$+	c #EAE9D7",
"%+	c #DCDAC7",
"&+	c #E7E2D2",
"*+	c #FDA8A7",
"=+	c #F7C4BC",
"-+	c #DDDBC8",
";+	c #D6D5C2",
">+	c #CBBDB1",
",+	c #F3D3C7",
"'+	c #DCDBC7",
")+	c #E9E8D5",
"!+	c #DFDECA",
"~+	c #D9D8C7",
"{+	c #C7C6B6",
"]+	c #C6C4B5",
"^+	c #D9CDBF",
"/+	c #D8D7C7",
"(+	c #DFDECD",
"_+	c #D8D6C3",
":+	c #E0DFCE",
"<+	c #D2D1C1",
"[+	c #CECDBE",
"}+	c #CCCBBB",
"|+	c #C6C5B6",
"1+	c #C8C6B6",
"2+	c #C9C8B9",
"3+	c #CAC9B9",
"4+	c #C8C7B8",
"                                                                                                                                                                ",
"                                                                                                                                                                ",
"                                                                                                                                . + @ # $ % & * =               ",
"                                                                                                                      - ; > , ' ) ! ~ {                         ",
"                                                                                                              ] ] ^ / ( _ : < [ } -                             ",
"                                                                                                        ] ] | 1 2 2 3 4 5 6 7                                   ",
"                                                                                                | | 8 9 0 9 0 a b c d _ 3                                       ",
"                                                                                          | | | 1 9 e 8 8 f g _ h i :                                           ",
"                                                                                      | | | | | 8 ^ j : k j 2 g ^ _                                             ",
"                                                                            5 d d 2 3 0 e l 8 m ] 8 e 0 ^ 4 4 e                                                 ",
"                              n o         ] f ]                       : 5 p p p p 5 5 5 b : : a g 9 1 1 8 l 3                                                   ",
"                        q r   s t     | | u v 3 | | | | | | | | w 3 ^ d p p d b 4 j 4 k 5 d p p d c : j 2 4 :                                                   ",
"                      x y z A B C D E | | F G l | | | ] ] ] ] m f g : p p 5 0 m ] | | ] H f j b d p p k j 2 j 4 k d p                                           ",
"                        I J K L M N O | | | | | | 8 e 9 3 3 3 2 j g b p p 9 | | | | | | | | | m l j _ d _ k 4 ^ g 3 g 4 : :                                     ",
"                        P Q R S T U V | | | | | 8 g g g g g g j ^ g _ p d w | | | | | | | | | | | | m 0 : i < h d : ^ 2 2 j j 0 4                     -         ",
"                        W X Y Z             | ]                   e a p p 2 m | | | ] ] | | | | | | | | ] d `  ...+.5 : 4 4 a 4 j j j     @.#.$.; %.&..         ",
"                        *.=.-.;.                                      p p p k ^ j a k : 4 j g e 1 H ] | | ] e >.,. .'.).c ^ ^ ^ 4 4 2 1 ..!.~.; {.].^./.        ",
"                        (._.:.<.[.                                      p p p p p p p p p p p p d _ k j 9 }.' ..|.1.!.2.3.4.c a a 5.6.7.8.9.0.0.a.b.c.          ",
"                        [.d.e.f.g.t                                       p p p p p p p p p p p p d c a 4 4 h.i.j.> k.l.m.n.o.p.p   q.r.s.t.u.v.w.x.y.          ",
"                      z.[.d.z.A.B.B.z.                                      p p p p p p p p p p p k w m m m H H w 1 u C.D.E.F.G.            s.s.s.              ",
"                      z.[.d.z.H.I.J.I.                                                              | | | | | | | | K.L.M.N.O.P.Q.R.S.T.s.s.                    ",
"                      z.[.d.z.U.*.A.t z.        V.                                                                                                              ",
"                    z.z.[.d.z.U.W.X.Y.Z.  V.V.V.V.                                                                                                              ",
"            V.V.V.  z.z.[.d.z.H.z.B.`. +.+V.V.V.V.                                                                                                              ",
"          V.V.V.V.++@+z.*.#+z.H.z.$+%+&+*+V.V.V.                                                                                                                ",
"          V.V.V.V.=+z.z.U.W.$+-+z.I.;+>+                                                                                                                        ",
"          V.V.V.V.,+z.I.'+I.)+!+(.~+{+]+                                                                                                                        ",
"              V.  ^+/+(+_+:+<+[+}+|+|+                                                                                                                          ",
"                    |+|+1+|+|+|+|+|+                                                                                                                            ",
"                      {+2+3+4+|+                                                                                                                                ",
"                                                                                                                                                                ",
"                                                                                                                                                                ",
"                                                                                                                                                                ",
"                                                                                                                                                                ",
"                                                                                                                                                                ",
"                                                                                                                                                                ",
"                                                                                                                                                                ",
"                                                                                                                                                                ",
"                                                                                                                                                                ",
"                                                                                                                                                                "};
