/* XPM */
static char * Grundwert_small_xpm[] = {
"80 40 101 2",
"  	c None",
". 	c #060606",
"+ 	c #585858",
"@ 	c #868686",
"# 	c #ABABAB",
"$ 	c #CCCABA",
"% 	c #CE6E5E",
"& 	c #EAEAD7",
"* 	c #939393",
"= 	c #9E9E9E",
"- 	c #AA5242",
"; 	c #F2F2F2",
"> 	c #A2A2A2",
", 	c #BA5646",
"' 	c #404040",
") 	c #A6A6A6",
"! 	c #FEAAA6",
"~ 	c #D9D6C3",
"{ 	c #F6F6F6",
"] 	c #161616",
"^ 	c #CE8672",
"/ 	c #E1DECE",
"( 	c #B25E4E",
"_ 	c #D2B2A2",
": 	c #5E5E5E",
"< 	c #FA9682",
"[ 	c #EAEAEA",
"} 	c #FCCEC6",
"| 	c #D6D6D6",
"1 	c #DA6652",
"2 	c #2E2E2E",
"3 	c #626262",
"4 	c #DADADA",
"5 	c #FAFAFA",
"6 	c #ECC0B4",
"7 	c #C2C2B2",
"8 	c #E26E5A",
"9 	c #E8E2D2",
"0 	c #6A6A6A",
"a 	c #6E524E",
"b 	c #F28E7A",
"c 	c #EBE6D6",
"d 	c #F2D2C6",
"e 	c #9A827E",
"f 	c #EA6E5E",
"g 	c #FEDEDA",
"h 	c #FED6D2",
"i 	c #F6C6BE",
"j 	c #6E6E6E",
"k 	c #1A1A1A",
"l 	c #CABEB2",
"m 	c #BEBEBE",
"n 	c #F69A86",
"o 	c #FED6CE",
"p 	c #DEDEDE",
"q 	c #FEFEFE",
"r 	c #E2E2E2",
"s 	c #EEEEEE",
"t 	c #4C4C4C",
"u 	c #F27460",
"v 	c #E0DECA",
"w 	c #272726",
"x 	c #757575",
"y 	c #FEA6A6",
"z 	c #EEEEDA",
"A 	c #0A0A0A",
"B 	c #B3B3B3",
"C 	c #E3DAC9",
"D 	c #D1D1C0",
"E 	c #F6B6A2",
"F 	c #2E2222",
"G 	c #FE7A62",
"H 	c #3A3A3A",
"I 	c #7B7B7B",
"J 	c #EEDEDA",
"K 	c #121212",
"L 	c #8E8E8E",
"M 	c #E6E6E6",
"N 	c #E2E2CE",
"O 	c #DADAC7",
"P 	c #C6C6B6",
"Q 	c #D2D2D2",
"R 	c #BE5A4A",
"S 	c #EEEADA",
"T 	c #C6C6C6",
"U 	c #22201F",
"V 	c #9A9A9A",
"W 	c #DACEBE",
"X 	c #CACACA",
"Y 	c #FC8E7A",
"Z 	c #B65246",
"` 	c #525252",
" .	c #8A8A8B",
"..	c #C2C2C2",
"+.	c #FAB6B2",
"@.	c #E6E6D2",
"#.	c #C65E4E",
"$.	c #323232",
"%.	c #E6E3CE",
"&.	c #DEDAC7",
"*.	c #CAC6B8",
"                                                                                                                                                                ",
"                                                                                                                                                                ",
"                                                                                                                                K * * w A A w $.'               ",
"                                                                                                                      2 I @ I x j ..H k                         ",
"                                                                                                              q q s  .| [ s 4 * t 2                             ",
"                                                                                                        q q q 5 ; ; ; s M 4 `                                   ",
"                                                                                                q q 5 { { { { s [ [ M [ ;                                       ",
"                                                                                          q q q 5 { { 5 5 { ; M p r s                                           ",
"                                                                                      q q q q q 5 s s [ [ s ; ; ; M                                             ",
"                                                                            M M M ; ; { { 5 5 q q 5 { { ; s s {                                                 ",
"                              P O         q { q                       s M M M M M [ M [ [ s s s ; { 5 { 5 { {                                                   ",
"                        @.S   m &     q q 4 t ; q q q q q q q q 5 ; s M M M M [ s s s [ M M r r M [ [ ; ; s [                                                   ",
"                      ~ D S C 6 Y G h q q | @ 5 q q q q q q q q 5 ; [ M M M ; 5 q q q q 5 5 ; [ M M M [ ; ; ; s [ M M                                           ",
"                        $ 9 b #., #.} q q q q q q 5 { { { { { ; s ; [ M r { q q q q q q q q q q { ; M M M [ s s ; ; ; s s s                                     ",
"                        _ C ^ , 1 u g q q q q q 5 ; ; ; ; ; ; ; ; ; M M M q q q q q q q q q q q q q q { s r p r M [ s s s ; ; { s                     2         ",
"                        n ~ ~ E             q q                   { s M r s q q q q q q q q q q q q q q q M V L # Q [ s s s [ s ; ; ;     3  .> I K + K         ",
"                        c D ~ c                                       M M M s ; ; s s s s ; ; { 5 q q q q q { ..I L X p [ ; s s s s ; 5 # # ) x K ] U H         ",
"                        c &.~ ~ &                                       M M r r M M r M M M M M M M s s { # x # > B #  .# p [ s [ [ J h 6 e 0 j + . U           ",
"                        & %.N O O &                                       M M r M M r M r M M M M M [ s ; s | B x @ j  .: : m M r   b G G f , - F k K           ",
"                      z c N & / %.@.z                                       M M r M M M M M r M M [ q 5 5 5 5 5 q 5 p V H U U U             G G G               ",
"                      z & %.z v S ~ S                                                               q q q q q q q q q } Y u f ( U a % G G G                     ",
"                      & c N & v @.N & z         y                                                                                                               ",
"                    z z & 9 & v @.v 9 S   y y y y                                                                                                               ",
"            y y y   S & & N z v S @.N c y y y y y                                                                                                               ",
"          y y y y +.z S c N & N & & &.9 y y y y                                                                                                                 ",
"          y y y y i S z v @.& O z & ~ l                                                                                                                         ",
"          y y y y d & & &.S c v & ~ P P                                                                                                                         ",
"              y   W ~ / ~ N D D $ P P                                                                                                                           ",
"                    P P P P 7 7 P P                                                                                                                             ",
"                      P P *.$ *.                                                                                                                                ",
"                                                                                                                                                                ",
"                                                                                                                                                                ",
"                                                                                                                                                                ",
"                                                                                                                                                                ",
"                                                                                                                                                                ",
"                                                                                                                                                                ",
"                                                                                                                                                                ",
"                                                                                                                                                                ",
"                                                                                                                                                                ",
"                                                                                                                                                                "};
