/* XPM */
static char * Haus_Super_26_xpm[] = {
"24 24 83 1",
" 	c None",
".	c #EA0202",
"+	c #FA0202",
"@	c #020202",
"#	c #0A0A0A",
"$	c #0E0E0E",
"%	c #F20202",
"&	c #E20202",
"*	c #262626",
"=	c #2E2E2E",
"-	c #7E0202",
";	c #363636",
">	c #000000",
",	c #A20A0A",
"'	c #D6D6D6",
")	c #9E8A8A",
"!	c #CE0202",
"~	c #7A0202",
"{	c #EAEAEA",
"]	c #FEFEFE",
"^	c #FAFAFA",
"/	c #2E2626",
"(	c #A6A6A6",
"_	c #2A0202",
":	c #BE0202",
"<	c #921616",
"[	c #821A1A",
"}	c #760202",
"|	c #323232",
"1	c #EEEEEE",
"2	c #D2D2D2",
"3	c #222222",
"4	c #626262",
"5	c #C2C2C2",
"6	c #4E0202",
"7	c #DEDEDE",
"8	c #F6F6F6",
"9	c #8E8E8E",
"0	c #E60202",
"a	c #3E0E0E",
"b	c #525252",
"c	c #565656",
"d	c #2E0202",
"e	c #960202",
"f	c #B60202",
"g	c #261A1A",
"h	c #AEAEAE",
"i	c #666666",
"j	c #929292",
"k	c #860202",
"l	c #FFFFFF",
"m	c #BA0202",
"n	c #4A0202",
"o	c #5A5A5A",
"p	c #5A6E62",
"q	c #32924E",
"r	c #1E5E32",
"s	c #066222",
"t	c #329252",
"u	c #438C5C",
"v	c #767676",
"w	c #025A1E",
"x	c #02822A",
"y	c #026A26",
"z	c #02862E",
"A	c #024A1A",
"B	c #4A4A4A",
"C	c #F2F2F2",
"D	c #4E4E4E",
"E	c #464646",
"F	c #828282",
"G	c #868686",
"H	c #C6C6C6",
"I	c #2A2A2A",
"J	c #161616",
"K	c #121212",
"L	c #3E3E3E",
"M	c #021A0A",
"N	c #02220E",
"O	c #021E0A",
"P	c #02260E",
"Q	c #021606",
"R	c #1A1A1A",
"           .+  @#$      ",
"           %&  @*=      ",
"          -;>,.@*=      ",
"         .='>)!@*=      ",
"       .&~{]>^!~/=      ",
"      ..~;(]>{_:<[      ",
"     .}|1]23>4]5#6.     ",
"    ..=7]]]5>8]]9@0.    ",
"   .:ab]]]]]>]]]7cde0   ",
"  .fghb]]]]]>]]]7ij|k.  ",
" .llllllllllllllllllll. ",
"..llllllllllllllllllllf.",
"mnlll>lll>>lll>>llllll~.",
"  ll>>ll>ll>l>ll>ll>ll  ",
"  lll>ll>ll>l>ll>ll>ll  ",
"  lll>ll>ll>l>ll>l>>>l  ",
"  lll>ll>ll>l>ll>ll>ll  ",
"  lll>ll>ll>l>ll>ll>ll  ",
"  ll>>>ll>>lll>>llllll  ",
"  llllllllllllllllllll  ",
"  llllllllllllllllllll  ",
"  oopqrooostuv@wxyzA#]  ",
"  cBC^D^^^E^FGhwxyzAHI  ",
"  @=EEJEEEKELL|MNOPQ;R  "};
