/* XPM */
static char * Haus_26_xpm[] = {
"26 24 208 2",
"  	c None",
". 	c #F90000",
"+ 	c #EC0000",
"@ 	c #070707",
"# 	c #141414",
"$ 	c #EA0000",
"% 	c #A60000",
"& 	c #500000",
"* 	c #D40000",
"= 	c #101010",
"- 	c #2D2D2D",
"; 	c #E70000",
"> 	c #7A0000",
", 	c #7F7C7C",
"' 	c #5E5E5E",
") 	c #9C6565",
"! 	c #E00000",
"~ 	c #780202",
"{ 	c #767676",
"] 	c #FBFBFB",
"^ 	c #727272",
"/ 	c #F3F3F3",
"( 	c #8D6262",
"_ 	c #910000",
": 	c #160F0F",
"< 	c #E40000",
"[ 	c #740404",
"} 	c #FFFFFF",
"| 	c #E2E2E2",
"1 	c #0D0D0D",
"2 	c #8D0101",
"3 	c #850C0C",
"4 	c #3E2929",
"5 	c #342B2B",
"6 	c #6D0000",
"7 	c #7D7D7D",
"8 	c #B4B4B4",
"9 	c #393939",
"0 	c #F6F6F6",
"a 	c #E7E7E7",
"b 	c #353535",
"c 	c #C6C6C6",
"d 	c #626262",
"e 	c #840000",
"f 	c #B60C0C",
"g 	c #600000",
"h 	c #949494",
"i 	c #BBBBBB",
"j 	c #3D3D3D",
"k 	c #3E3E3E",
"l 	c #3A3A3A",
"m 	c #CACACA",
"n 	c #7B7B7B",
"o 	c #1B0000",
"p 	c #C70000",
"q 	c #C50000",
"r 	c #852B2B",
"s 	c #5F5D5D",
"t 	c #FCFCFC",
"u 	c #292929",
"v 	c #C5C5C5",
"w 	c #F8F8F8",
"x 	c #4F4F4F",
"y 	c #422626",
"z 	c #9F0000",
"A 	c #E80000",
"B 	c #B30000",
"C 	c #463131",
"D 	c #E6E6E6",
"E 	c #E4E4E4",
"F 	c #575757",
"G 	c #6C0202",
"H 	c #DF0000",
"I 	c #AC0000",
"J 	c #4C3636",
"K 	c #8F8F8F",
"L 	c #700606",
"M 	c #C80000",
"N 	c #E20000",
"O 	c #340000",
"P 	c #404040",
"Q 	c #5D5D5D",
"R 	c #150000",
"S 	c #B20000",
"T 	c #B10000",
"U 	c #4E0000",
"V 	c #202020",
"W 	c #888888",
"X 	c #8A8A8A",
"Y 	c #898989",
"Z 	c #545454",
"` 	c #000000",
" .	c #515151",
"..	c #747474",
"+.	c #6B6B6B",
"@.	c #1D0000",
"#.	c #A4A4A4",
"$.	c #F9F9F9",
"%.	c #6F6F6F",
"&.	c #FAFAFA",
"*.	c #A7A7A7",
"=.	c #9B9B9B",
"-.	c #CECECE",
";.	c #D4D4D4",
">.	c #AFAFAF",
",.	c #B9B9B9",
"'.	c #C4C4C4",
").	c #DBDBDB",
"!.	c #8D8D8D",
"~.	c #EFEFEF",
"{.	c #F5F5F5",
"].	c #9F9F9F",
"^.	c #CDCDCD",
"/.	c #ADADAD",
"(.	c #DDDDDD",
"_.	c #919191",
":.	c #808080",
"<.	c #9D9D9D",
"[.	c #696969",
"}.	c #868686",
"|.	c #BDBDBD",
"1.	c #A0A0A0",
"2.	c #CCCCCC",
"3.	c #ACACAC",
"4.	c #252525",
"5.	c #8C8C8C",
"6.	c #5B5B5B",
"7.	c #979797",
"8.	c #929994",
"9.	c #88968C",
"0.	c #3D4640",
"a.	c #828382",
"b.	c #435047",
"c.	c #434544",
"d.	c #9E9E9E",
"e.	c #02521B",
"f.	c #025F20",
"g.	c #036020",
"h.	c #444644",
"i.	c #989898",
"j.	c #4B4B4B",
"k.	c #6CC287",
"l.	c #038B2F",
"m.	c #1C7E41",
"n.	c #45515C",
"o.	c #42545A",
"p.	c #049231",
"q.	c #049130",
"r.	c #465F4E",
"s.	c #037B29",
"t.	c #037728",
"u.	c #037628",
"v.	c #048D2F",
"w.	c #6B6E6C",
"x.	c #ABABAB",
"y.	c #4D4D4D",
"z.	c #8E8E8E",
"A.	c #02571D",
"B.	c #03802B",
"C.	c #30955D",
"D.	c #7F95A8",
"E.	c #7A95A3",
"F.	c #038A2E",
"G.	c #037026",
"H.	c #036D25",
"I.	c #3A3D3B",
"J.	c #363636",
"K.	c #A8A8A8",
"L.	c #63B87D",
"M.	c #03812B",
"N.	c #037929",
"O.	c #037828",
"P.	c #000301",
"Q.	c #7F7F7F",
"R.	c #595959",
"S.	c #717171",
"T.	c #57966B",
"U.	c #036B24",
"V.	c #23693B",
"W.	c #5B5F62",
"X.	c #576060",
"Y.	c #036D24",
"Z.	c #42AC64",
"`.	c #2B3E31",
" +	c #1B1B1B",
".+	c #A3A3A3",
"++	c #DADADA",
"@+	c #6D6D6D",
"#+	c #EEEEEE",
"$+	c #161616",
"%+	c #686868",
"&+	c #4F5250",
"*+	c #929292",
"=+	c #7A7A7A",
"-+	c #707070",
";+	c #434343",
">+	c #777777",
",+	c #6C6C6C",
"'+	c #6A6D6B",
")+	c #373737",
"!+	c #333333",
"~+	c #131313",
"{+	c #013813",
"]+	c #013311",
"^+	c #013111",
"/+	c #024015",
"(+	c #303231",
"_+	c #1A1A1A",
"                      . +         @ # #             ",
"                    $ % & *       = - -             ",
"                  ; > , ' ) * $   = - -             ",
"                ! ~ { ] ^ / ( _ ; : - -             ",
"              < [ # / } ^ } | 1 2 3 4 5             ",
"            $ 6 7 8 9 0 ^ a b c d e $ f             ",
"          $ g h } } i j k l m } } n o p $           ",
"        q r s t } } } 8 u v } } } w x y z A         ",
"      B C D ^ } } } } } ^ } } } } } ^ E F G H       ",
"    I J E } ^ } } } } } ^ } } } } } ^ } } K L M     ",
"  N O P Q Q u Q Q Q Q Q u Q Q Q Q Q u Q Q Q 1 R S   ",
"T U V W W W j W W X Y Z ` d W W  ...W W P l W +.@.$ ",
"    #.K $.$.%.$.&.w W *.%.=.-.$.h ;.$.>.,.%.$.'.    ",
"    '.).!.$.%.&.~.Y | w %.{.].^.h ;./.i $.%.$.'.    ",
"    '.$.(._.+.8 :.a $.$.%.$.0 <.[.}.|.$.$.%.$.'.    ",
"    1.2.2.3.4.5.2.2.2.2.6.2.2.2.Z W 2.2.2.6.2.1.    ",
"    V 7.8.9.0.W W a.b.9.c.d.d.d.' e.f.f.g.h.i.V     ",
"    j.' k.l.m.n.n.o.p.q.r.$.$.$.h s.t.u.v.w.x.y.    ",
"    '.z.A.B.C.D.D.E.v.F.r.$.$.$.h s.G.H.v.I.J.K.    ",
"    '.0 L.M.C.D.D.E.v.F.r.$.$.$.h s.N.O.v.P.:.Q.    ",
"    R.S.T.U.V.W.W.X.Y.Z.`.^ S.x  +s.G.H.v.P.K .+    ",
"    '.++7 @+[.$.$.#+$+{ %+{.v 9 %+s.G.H.v.&+R.,.    ",
"    *+k 1.$.%.$.$.#+=+-+;+>+,+^.h s.G.H.v.'+Q.)+    ",
"    ` y.S.S.!+S.S.,+)+S.~+# ^ S.;+{+]+^+/+(+S._+    "};
