/* XPM */
static char * Haus_1_2_1_26_xpm[] = {
"24 24 113 2",
"  	c None",
". 	c #EA0202",
"+ 	c #FA0202",
"@ 	c #020202",
"# 	c #0A0A0A",
"$ 	c #0E0E0E",
"% 	c #F20202",
"& 	c #E20202",
"* 	c #262626",
"= 	c #2E2E2E",
"- 	c #7E0202",
"; 	c #363636",
"> 	c #000000",
", 	c #A20A0A",
"' 	c #D6D6D6",
") 	c #9E8A8A",
"! 	c #CE0202",
"~ 	c #7A0202",
"{ 	c #EAEAEA",
"] 	c #FEFEFE",
"^ 	c #FAFAFA",
"/ 	c #2E2626",
"( 	c #A6A6A6",
"_ 	c #2A0202",
": 	c #BE0202",
"< 	c #921616",
"[ 	c #821A1A",
"} 	c #760202",
"| 	c #323232",
"1 	c #EEEEEE",
"2 	c #D2D2D2",
"3 	c #222222",
"4 	c #626262",
"5 	c #C2C2C2",
"6 	c #4E0202",
"7 	c #DEDEDE",
"8 	c #F6F6F6",
"9 	c #8E8E8E",
"0 	c #141414",
"a 	c #E60202",
"b 	c #E50202",
"c 	c #9C0101",
"d 	c #8B0909",
"e 	c #603E3E",
"f 	c #4E4E4E",
"g 	c #F2F2F2",
"h 	c #6B6B6B",
"i 	c #8A2F2F",
"j 	c #AF2424",
"k 	c #C30202",
"l 	c #D32626",
"m 	c #D78F8F",
"n 	c #E9DFDF",
"o 	c #EBEAEA",
"p 	c #DFDFDF",
"q 	c #FFFFFF",
"r 	c #999999",
"s 	c #D1B7B7",
"t 	c #C88F8F",
"u 	c #DA9A9A",
"v 	c #CE2929",
"w 	c #4B0202",
"x 	c #B7B2B2",
"y 	c #F9F8F8",
"z 	c #C9C9C9",
"A 	c #1A0202",
"B 	c #B60202",
"C 	c #BA0202",
"D 	c #4A0202",
"E 	c #464646",
"F 	c #B6B6B6",
"G 	c #2A2A2A",
"H 	c #BABABA",
"I 	c #E2E2E2",
"J 	c #B2D2BE",
"K 	c #068E2E",
"L 	c #2A9252",
"M 	c #72869A",
"N 	c #069232",
"O 	c #02822E",
"P 	c #1B8840",
"Q 	c #E5E5E5",
"R 	c #9E9E9E",
"S 	c #025A1E",
"T 	c #02822A",
"U 	c #026E26",
"V 	c #02862E",
"W 	c #024A1A",
"X 	c #060606",
"Y 	c #5A5A5A",
"Z 	c #5A6E62",
"` 	c #32924E",
" .	c #1E5E32",
"..	c #066222",
"+.	c #329252",
"@.	c #438C5C",
"#.	c #767676",
"$.	c #026A26",
"%.	c #565656",
"&.	c #4A4A4A",
"*.	c #828282",
"=.	c #868686",
"-.	c #AEAEAE",
";.	c #C6C6C6",
">.	c #161616",
",.	c #121212",
"'.	c #3E3E3E",
").	c #021A0A",
"!.	c #02220E",
"~.	c #021E0A",
"{.	c #02260E",
"].	c #021606",
"^.	c #1A1A1A",
"                      . +     @ # $             ",
"                      % &     @ * =             ",
"                    - ; > , . @ * =             ",
"                  . = ' > ) ! @ * =             ",
"              . & ~ { ] > ^ ! ~ / =             ",
"            . . ~ ; ( ] > { _ : < [             ",
"          . } | 1 ] 2 3 > 4 ] 5 # 6 .           ",
"        . . = 7 ] ] ] 5 > 8 ] ] 9 0 a b         ",
"      c d e f ] ] ] ] g > ] ] ] 7 h i j k       ",
"    l m n o p q q q q ] r q q q q q s t u v     ",
"  . w x y q q q q q q q q q q q q q q q z A .   ",
". . @ q q q > q q q q q q q q q q > q q q @ B . ",
"C D E q q > > q q q q q q q q q > > q q q F ~ . ",
"    ^ q q > > q q q q > > q q q > > q q q ^     ",
"    ^ q q q > q q q q q q q q q q > q q q ^     ",
"    ^ q q q > q q q q q q q q q q > q q q ^     ",
"    G q q q > q q q q q q q q q q > q q q G     ",
"    ; q q > > > q q q > > q q q > > > q q ;     ",
"    ^ q q q q q q q q q q q q q q q q q q H     ",
"    ^ q q q q q q q q q q q q q q q q q q ]     ",
"    I I J K L M M M N O P Q R S T U V W X E     ",
"    Y Y Z `  .Y Y Y ..+.@.#.@ S T $.V W # ]     ",
"    %.&.g ^ f ^ ^ ^ E ^ *.=.-.S T $.V W ;.G     ",
"    @ = E E >.E E E ,.E '.'.| ).!.~.{.].; ^.    "};
