/* XPM */
static char * Haus_26_xpm[] = {
"24 24 129 2",
"  	c None",
". 	c #EA0202",
"+ 	c #FA0202",
"@ 	c #020202",
"# 	c #0A0A0A",
"$ 	c #0E0E0E",
"% 	c #F20202",
"& 	c #E20202",
"* 	c #262626",
"= 	c #2E2E2E",
"- 	c #7E0202",
"; 	c #363636",
"> 	c #000000",
", 	c #A20A0A",
"' 	c #D6D6D6",
") 	c #9E8A8A",
"! 	c #CE0202",
"~ 	c #7A0202",
"{ 	c #EAEAEA",
"] 	c #FEFEFE",
"^ 	c #FAFAFA",
"/ 	c #2E2626",
"( 	c #A6A6A6",
"_ 	c #2A0202",
": 	c #BE0202",
"< 	c #921616",
"[ 	c #821A1A",
"} 	c #760202",
"| 	c #323232",
"1 	c #EEEEEE",
"2 	c #D2D2D2",
"3 	c #222222",
"4 	c #626262",
"5 	c #C2C2C2",
"6 	c #4E0202",
"7 	c #DEDEDE",
"8 	c #F6F6F6",
"9 	c #8E8E8E",
"0 	c #E60202",
"a 	c #3E0E0E",
"b 	c #525252",
"c 	c #565656",
"d 	c #2E0202",
"e 	c #960202",
"f 	c #B60202",
"g 	c #261A1A",
"h 	c #AEAEAE",
"i 	c #666666",
"j 	c #929292",
"k 	c #860202",
"l 	c #0E0202",
"m 	c #7E7E7E",
"n 	c #CECECE",
"o 	c #424242",
"p 	c #B6B6B6",
"q 	c #BEBEBE",
"r 	c #1A0202",
"s 	c #BA0202",
"t 	c #4A0202",
"u 	c #464646",
"v 	c #3A3A3A",
"w 	c #BABABA",
"x 	c #6A6A6A",
"y 	c #8A8A8A",
"z 	c #4E4E4E",
"A 	c #868686",
"B 	c #C6C6C6",
"C 	c #7A7A7A",
"D 	c #AAAAAA",
"E 	c #CACACA",
"F 	c #9E9E9E",
"G 	c #6E6E6E",
"H 	c #5A5A5A",
"I 	c #1E1E1E",
"J 	c #2A2A2A",
"K 	c #474747",
"L 	c #505050",
"M 	c #0E1E12",
"N 	c #163222",
"O 	c #0A1A12",
"P 	c #E2F2E6",
"Q 	c #8ACE9E",
"R 	c #2E5A3A",
"S 	c #266A3E",
"T 	c #86C699",
"U 	c #263C2E",
"V 	c #E2E2E2",
"W 	c #025A1E",
"X 	c #068E32",
"Y 	c #068E2E",
"Z 	c #069232",
"` 	c #024A1A",
" .	c #828282",
"..	c #06260E",
"+.	c #2A9A5A",
"@.	c #7E96AA",
"#.	c #02822A",
"$.	c #0A772F",
"%.	c #026A26",
"&.	c #02862E",
"*.	c #72927E",
"=.	c #047E2E",
"-.	c #02822E",
";.	c #02762A",
">.	c #B2D2BE",
",.	c #2A9252",
"'.	c #72869A",
").	c #1B8840",
"!.	c #E5E5E5",
"~.	c #026E26",
"{.	c #060606",
"].	c #5A6E62",
"^.	c #32924E",
"/.	c #1E5E32",
"(.	c #066222",
"_.	c #329252",
":.	c #438C5C",
"<.	c #767676",
"[.	c #4A4A4A",
"}.	c #F2F2F2",
"|.	c #161616",
"1.	c #121212",
"2.	c #3E3E3E",
"3.	c #021A0A",
"4.	c #02220E",
"5.	c #021E0A",
"6.	c #02260E",
"7.	c #021606",
"8.	c #1A1A1A",
"                      . +     @ # $             ",
"                      % &     @ * =             ",
"                    - ; > , . @ * =             ",
"                  . = ' > ) ! @ * =             ",
"              . & ~ { ] > ^ ! ~ / =             ",
"            . . ~ ; ( ] > { _ : < [             ",
"          . } | 1 ] 2 3 > 4 ] 5 # 6 .           ",
"        . . = 7 ] ] ] 5 > 8 ] ] 9 @ 0 .         ",
"      . : a b ] ] ] ] ] > ] ] ] 7 c d e 0       ",
"    . f g h b ] ] ] ] ] > ] ] ] 7 i j | k .     ",
"  . l m n 2 o 2 2 2 2 2 > 2 2 2 p c 2 2 q r .   ",
". . @ @ @ @ @ @ @ @ @ @ > @ @ @ @ @ @ @ @ @ f . ",
"s t u p p p v p p p w p > p m x p p y @ 9 p ~ . ",
"    ^ h j ^ z ^ ^ ] A B > 9 h 9 ^ 5 8 C B ^     ",
"    ^ ^ ^ D b E i F ^ ^ > ^ G H C ^ ^ C B ^     ",
"    ^ ^ ^ ^ I A 1 ^ ^ ^ > ^ G H 1 ^ ^ C B ^     ",
"    J u u u $ v u u 3 K > L | M N N N O ; J     ",
"    ; 2 P Q R y y y S T U V h W X Y Z ` B ;     ",
"    ^  ...Y +.@.@.@.Z #.$.^ h W #.%.&.`  .w     ",
"    ^ ^ *.Y +.@.@.@.Z #.=.^ h W -.;.&.` # ]     ",
"    V V >.Y ,.'.'.'.Z -.).!.F W #.~.&.` {.u     ",
"    H H ].^./.H H H (._.:.<.@ W #.%.&.` # ]     ",
"    c [.}.^ z ^ ^ ^ u ^  .A h W #.%.&.` B J     ",
"    @ = u u |.u u u 1.u 2.2.| 3.4.5.6.7.; 8.    "};
