/* XPM */
static char * Haus_Super_32_xpm[] = {
"30 30 111 2",
"  	c None",
". 	c #EA0202",
"+ 	c #FA0202",
"@ 	c #020202",
"# 	c #0A0A0A",
"$ 	c #0E0E0E",
"% 	c #F20202",
"& 	c #E20202",
"* 	c #262626",
"= 	c #2E2E2E",
"- 	c #E60202",
"; 	c #8E0202",
"> 	c #3A1212",
", 	c #7E0202",
"' 	c #363636",
") 	c #000000",
"! 	c #A20A0A",
"~ 	c #EE0202",
"{ 	c #8A0202",
"] 	c #D6D6D6",
"^ 	c #9E8A8A",
"/ 	c #620202",
"( 	c #CE0202",
"_ 	c #7A0202",
": 	c #060202",
"< 	c #EAEAEA",
"[ 	c #FEFEFE",
"} 	c #FAFAFA",
"| 	c #7E7E7E",
"1 	c #2E2626",
"2 	c #222222",
"3 	c #A6A6A6",
"4 	c #4A4A4A",
"5 	c #2A0202",
"6 	c #BE0202",
"7 	c #921616",
"8 	c #821A1A",
"9 	c #4A2626",
"0 	c #860202",
"a 	c #2E2222",
"b 	c #DADADA",
"c 	c #CECECE",
"d 	c #161616",
"e 	c #AAAAAA",
"f 	c #565656",
"g 	c #929292",
"h 	c #D20202",
"i 	c #C60A0A",
"j 	c #760202",
"k 	c #323232",
"l 	c #EEEEEE",
"m 	c #D2D2D2",
"n 	c #626262",
"o 	c #C2C2C2",
"p 	c #4E0202",
"q 	c #DA0202",
"r 	c #DEDEDE",
"s 	c #F6F6F6",
"t 	c #8E8E8E",
"u 	c #3E0E0E",
"v 	c #A69E9E",
"w 	c #525252",
"x 	c #666666",
"y 	c #2E0202",
"z 	c #960202",
"A 	c #B60202",
"B 	c #261A1A",
"C 	c #AEAEAE",
"D 	c #FFFFFF",
"E 	c #D60202",
"F 	c #1A0202",
"G 	c #BA0202",
"H 	c #4A0202",
"I 	c #0A0202",
"J 	c #1A1A1A",
"K 	c #1E1E1E",
"L 	c #5A5A5A",
"M 	c #5A6E62",
"N 	c #32924E",
"O 	c #026222",
"P 	c #1E5E32",
"Q 	c #066222",
"R 	c #329252",
"S 	c #438C5C",
"T 	c #767676",
"U 	c #5E5E5E",
"V 	c #025A1E",
"W 	c #02822A",
"X 	c #026A26",
"Y 	c #02862E",
"Z 	c #024A1A",
"` 	c #727272",
" .	c #4E4E4E",
"..	c #060606",
"+.	c #5E7164",
"@.	c #DBDBDB",
"#.	c #B2B2B2",
"$.	c #121212",
"%.	c #F2F2F2",
"&.	c #464646",
"*.	c #828282",
"=.	c #868686",
"-.	c #C6C6C6",
";.	c #2A2A2A",
">.	c #424242",
",.	c #3E3E3E",
"'.	c #021A0A",
").	c #02220E",
"!.	c #021E0A",
"~.	c #02260E",
"{.	c #021606",
"                            . +       @ # $ $               ",
"                            % &       @ * = =               ",
"                          - ; > .     @ * = =               ",
"                        . , ' ) ! ~ . @ * = =               ",
"                      . { = ] ) ^ / ( @ * = =               ",
"                  . & _ : < [ ) } | ( _ 1 = =               ",
"                . . _ ' 2 3 [ ) < 4 5 6 7 8 9               ",
"              . . 0 a b c d e ) 4 f g 5 h . i               ",
"            . - j k l [ [ m 2 ) n [ [ o # p q .             ",
"          . . 0 = r [ [ [ [ o ) s [ [ [ t @ p - .           ",
"        . 6 u v w [ [ [ [ [ [ ) [ [ [ [ r f x y z -         ",
"      . A B C s w [ [ [ [ [ [ ) [ [ [ [ r x [ g k 0 .       ",
"    . D D D D D D D D D D D D D D D D D D D D D D D D .     ",
"  . E D D D D D D D D D D D D D D D D D D D D D D D D 6 .   ",
". . 0 D D D D D D D D D D D D D D D D D D D D D D D D F A . ",
"G H I D D ) ) D D D ) ) ) D D D ) ) ) D D D D D D D D d _ . ",
"    2 D ) ) ) D D ) ) D ) ) D ) ) D ) ) D D D D D D D 2     ",
"    2 D D ) ) D D ) ) D ) ) D ) ) D ) ) D D D ) ) D D 2     ",
"    2 D D ) ) D D ) ) D ) ) D ) ) D ) ) D D D ) ) D D 2     ",
"    2 D D ) ) D D ) ) D ) ) D ) ) D ) ) D ) ) ) ) ) ) 2     ",
"    @ D D ) ) D D ) ) D ) ) D ) ) D ) ) D D D ) ) D D @     ",
"    @ D D ) ) D D ) ) D ) ) D ) ) D ) ) D D D ) ) D D @     ",
"    d D D ) ) D D ) ) D ) ) D ) ) D ) ) D D D D D D D J     ",
"    2 D ) ) ) ) D D ) ) ) D D D ) ) ) D D D D D D D D 2     ",
"    2 D D D D D D D D D D D D D D D D D D D D D D D D 2     ",
"    K D D D D D D D D D D D D D D D D D D D D D D D D #     ",
"    $ L L M N O P L L L L Q R S T U @ V W X X Y Z # [ 2     ",
"    2 } } ] = `  .} } } } ..k +.@.#.` V W X X Y Z T } 2     ",
"    $.f 4 %.} l  .} } } } &.} *.=.} C V W X X Y Z -.;.@     ",
"    @ @ = &.&.>.d &.&.&.&.$.&.,.,.&.k '.).!.!.~.{.' J @     "};
