/* XPM */
static char * Haus_1_2_1_26_xpm[] = {
"26 24 208 2",
"  	c None",
". 	c #FA0202",
"+ 	c #EA0202",
"@ 	c #020202",
"# 	c #0A0A0A",
"$ 	c #0E0E0E",
"% 	c #F20202",
"& 	c #E20202",
"* 	c #9A0202",
"= 	c #262626",
"- 	c #2E2E2E",
"; 	c #E60202",
"> 	c #8E0202",
", 	c #3A1212",
"' 	c #1A0A0A",
") 	c #AA0A0A",
"! 	c #913737",
"~ 	c #8A8A8A",
"{ 	c #C6C6C6",
"] 	c #C1C1C1",
"^ 	c #C4BDBD",
"/ 	c #CDA1A1",
"( 	c #D47474",
"_ 	c #DE3E3E",
": 	c #B99E9E",
"< 	c #AEAB84",
"[ 	c #ADA758",
"} 	c #F4E866",
"| 	c #CAC167",
"1 	c #ADA984",
"2 	c #9E9E9E",
"3 	c #575757",
"4 	c #D17272",
"5 	c #CBC79A",
"6 	c #B1A94A",
"7 	c #B0A849",
"8 	c #CDC356",
"9 	c #B7AE4D",
"0 	c #858585",
"a 	c #D18888",
"b 	c #D0C86A",
"c 	c #F6EA67",
"d 	c #CEC457",
"e 	c #97903F",
"f 	c #B5AD4B",
"g 	c #9F9393",
"h 	c #D27F7F",
"i 	c #D3C958",
"j 	c #B2AA49",
"k 	c #ABA348",
"l 	c #938C3D",
"m 	c #D75858",
"n 	c #B7AF4C",
"o 	c #BDB654",
"p 	c #958E40",
"q 	c #B5AE5C",
"r 	c #E61616",
"s 	c #C4C2C2",
"t 	c #F2E665",
"u 	c #C6C2C2",
"v 	c #BE0202",
"w 	c #8A7575",
"x 	c #CDC569",
"y 	c #D6CC5A",
"z 	c #EDE378",
"A 	c #D46F6F",
"B 	c #B60202",
"C 	c #291E1E",
"D 	c #C5C5C5",
"E 	c #C3BEBE",
"F 	c #E90606",
"G 	c #220202",
"H 	c #B8B8B8",
"I 	c #FFFFFF",
"J 	c #9E4444",
"K 	c #D60202",
"L 	c #0E0202",
"M 	c #7E7E7E",
"N 	c #C9C9C9",
"O 	c #7A7777",
"P 	c #1A0202",
"Q 	c #860202",
"R 	c #9D9D9D",
"S 	c #000000",
"T 	c #BA0202",
"U 	c #4A0202",
"V 	c #0A0202",
"W 	c #464646",
"X 	c #B6B6B6",
"Y 	c #C4C4C4",
"Z 	c #161616",
"` 	c #7A0202",
" .	c #222222",
"..	c #8E8E8E",
"+.	c #3A1135",
"@.	c #FAFAFA",
"#.	c #AEAEAE",
"$.	c #D0D0D0",
"%.	c #DADADA",
"&.	c #2A2A2A",
"*.	c #717171",
"=.	c #363636",
"-.	c #D2D2D2",
";.	c #E1F0E5",
">.	c #C3C6C4",
",.	c #FFFBFC",
"'.	c #FFF1F6",
").	c #FFECF3",
"!.	c #FFFCFD",
"~.	c #D5D5D5",
"{.	c #727272",
"].	c #BADAC2",
"^.	c #71AF84",
"/.	c #CFC5C8",
"(.	c #DAB6C3",
"_.	c #E5ADC2",
":.	c #EAB3C8",
"<.	c #E6ADC6",
"[.	c #DBB5C4",
"}.	c #CEC4C7",
"|.	c #A6A6A6",
"1.	c #1A1A1A",
"2.	c #828282",
"3.	c #06260E",
"4.	c #1A933E",
"5.	c #C2C4C2",
"6.	c #DAD8D9",
"7.	c #F2C0D2",
"8.	c #E5B1C4",
"9.	c #E9B8CA",
"0.	c #EEC1D8",
"a.	c #F2BFD4",
"b.	c #C9C5C7",
"c.	c #C2C3C2",
"d.	c #898989",
"e.	c #BABABA",
"f.	c #72927E",
"g.	c #068E2E",
"h.	c #58A06F",
"i.	c #CFC2C7",
"j.	c #E7BACA",
"k.	c #F1CFDB",
"l.	c #F5E0E9",
"m.	c #588066",
"n.	c #B2B2B2",
"o.	c #FEFEFE",
"p.	c #1E1E1E",
"q.	c #E2E2E2",
"r.	c #B2D2BE",
"s.	c #02862E",
"t.	c #8DB39C",
"u.	c #D3C1C8",
"v.	c #FBFBFB",
"w.	c #D2C1C8",
"x.	c #7FAE8F",
"y.	c #024A1A",
"z.	c #060606",
"A.	c #5A5A5A",
"B.	c #5A6E62",
"C.	c #32924E",
"D.	c #026222",
"E.	c #1E5E32",
"F.	c #A4A4A4",
"G.	c #D0C2C8",
"H.	c #EBC2D1",
"I.	c #EAC1D0",
"J.	c #88A993",
"K.	c #C2C2C2",
"L.	c #D6D6D6",
"M.	c #4E4E4E",
"N.	c #DCDCDC",
"O.	c #F2C0D3",
"P.	c #E7B8C9",
"Q.	c #729F82",
"R.	c #026A26",
"S.	c #767676",
"T.	c #565656",
"U.	c #EAEAEA",
"V.	c #3E3E3E",
"W.	c #868686",
"X.	c #E9E9E9",
"Y.	c #E9C4DA",
"Z.	c #9EAFA3",
"`.	c #3E975A",
" +	c #121212",
".+	c #4A4A4A",
"++	c #F2F2F2",
"@+	c #EEEEEE",
"#+	c #696969",
"$+	c #DBDBDB",
"%+	c #D5D3D3",
"&+	c #CABCC2",
"*+	c #D2C0C7",
"=+	c #CDBFC4",
"-+	c #D1CECF",
";+	c #B4B4B4",
">+	c #025A1E",
",+	c #02822A",
"'+	c #CACACA",
")+	c #424242",
"!+	c #AF96AC",
"~+	c #4B3F4A",
"{+	c #323232",
"]+	c #021A0A",
"^+	c #02220E",
"/+	c #021E0A",
"(+	c #02260E",
"_+	c #021606",
"                      . +         @ $ $             ",
"                    ; , ' ) +     @ - -             ",
"                  + ! { ] { ^ (   @ - -             ",
"                _ : { < [ } | { { 2 - -             ",
"            + a { { { c c d e b { { { g             ",
"          + h { { { { j k k l f { { { { {           ",
"          m { { { { { n o e p q { { { { {           ",
"      + v { { { { { { 5 x y z { { { { { { A         ",
"    + B C { { { { { { { { { { { { { { { { E F       ",
"    B G H { I I I I I I I I I I I I I I I { J +     ",
"+ + @ @ R { I I I S I I I I I I I S I I I { R @ B + ",
"T U W X Y { I I S S I I I I I I S S I I I { Y X ` + ",
"    X ..{ { I I I S I I I S I I I S I I I { { @.    ",
"    @.@.Y { I I I S I I I I I I I S I I I { N @.    ",
"    @.@.$.{ I I I S I I I S I I I S I I I { $.@.    ",
"    @.@.%.{ I I I I I I I I I I I I I I I { %.@.    ",
"    =.-.;.{ I I I I I ,.'.).'.I I I I I I { ~.=.    ",
"    {.- ].{ { { { { { (._.:.<.}.{ { { { { { |.{.    ",
"    @.2.3.5.{ { { { 6.7.8.9.0.(.b.{ { { { d.1.e.    ",
"    q.q.r.s.t.{ { { u.9.l.v.l.:.w.{ { { x.z.W W     ",
"    A.A.B.D.E.F.{ { G.8.k.l.k._.G.{ { J.s.# K.o.    ",
"    @.@.L.{.M.@.{ { b.O.P.9.8.[.b.{ Q.R.s.S.T.@.    ",
"    T..+++@+M.@.@.@.#+%+&+*+=+$+;+>+R.R.s.{ '+&.    ",
"    @ - W )+Z W W W  +~+@ @ V.W {+]+/+/+(+=.W 1.    "};
