/* XPM */
static char * Haus_1_2_1_32_xpm[] = {
"30 30 151 2",
"  	c None",
". 	c #EA0202",
"+ 	c #FA0202",
"@ 	c #020202",
"# 	c #0A0A0A",
"$ 	c #0E0E0E",
"% 	c #F20202",
"& 	c #E20202",
"* 	c #262626",
"= 	c #2E2E2E",
"- 	c #E60202",
"; 	c #8E0202",
"> 	c #3A1212",
", 	c #7E0202",
"' 	c #363636",
") 	c #000000",
"! 	c #A20A0A",
"~ 	c #EE0202",
"{ 	c #8A0202",
"] 	c #D6D6D6",
"^ 	c #9E8A8A",
"/ 	c #620202",
"( 	c #CE0202",
"_ 	c #7A0202",
": 	c #060202",
"< 	c #EAEAEA",
"[ 	c #FEFEFE",
"} 	c #FAFAFA",
"| 	c #7E7E7E",
"1 	c #2E2626",
"2 	c #222222",
"3 	c #A6A6A6",
"4 	c #4A4A4A",
"5 	c #2A0202",
"6 	c #BE0202",
"7 	c #921616",
"8 	c #821A1A",
"9 	c #4A2626",
"0 	c #860202",
"a 	c #2E2222",
"b 	c #DADADA",
"c 	c #CECECE",
"d 	c #161616",
"e 	c #AAAAAA",
"f 	c #565656",
"g 	c #929292",
"h 	c #D20202",
"i 	c #C60A0A",
"j 	c #760202",
"k 	c #323232",
"l 	c #EEEEEE",
"m 	c #D2D2D2",
"n 	c #626262",
"o 	c #C2C2C2",
"p 	c #4E0202",
"q 	c #DA0202",
"r 	c #DEDEDE",
"s 	c #F6F6F6",
"t 	c #8E8E8E",
"u 	c #141414",
"v 	c #400202",
"w 	c #E50202",
"x 	c #9C0101",
"y 	c #8B0909",
"z 	c #603E3E",
"A 	c #927D7D",
"B 	c #4E4E4E",
"C 	c #F2F2F2",
"D 	c #6B6B6B",
"E 	c #665C5C",
"F 	c #8A2F2F",
"G 	c #AF2424",
"H 	c #C30202",
"I 	c #D32626",
"J 	c #D78F8F",
"K 	c #E9DFDF",
"L 	c #EBEAEA",
"M 	c #DDDCDC",
"N 	c #DFDFDF",
"O 	c #FFFFFF",
"P 	c #999999",
"Q 	c #F9F6F6",
"R 	c #D1B7B7",
"S 	c #C88F8F",
"T 	c #DA9A9A",
"U 	c #CE2929",
"V 	c #BC0707",
"W 	c #D4A4A4",
"X 	c #F2EEEE",
"Y 	c #E5DCDC",
"Z 	c #C6AEAE",
"` 	c #E41F1F",
" .	c #D60202",
"..	c #4B0202",
"+.	c #B7B2B2",
"@.	c #F9F8F8",
"#.	c #C9C9C9",
"$.	c #1A0202",
"%.	c #B60202",
"&.	c #BA0202",
"*.	c #4A0202",
"=.	c #0A0202",
"-.	c #464646",
";.	c #B6B6B6",
">.	c #2A2A2A",
",.	c #727272",
"'.	c #1A1A1A",
").	c #BABABA",
"!.	c #1E1E1E",
"~.	c #E2E2E2",
"{.	c #B2D2BE",
"].	c #068E2E",
"^.	c #02862E",
"/.	c #2A9252",
"(.	c #72869A",
"_.	c #069232",
":.	c #02822E",
"<.	c #1B8840",
"[.	c #E5E5E5",
"}.	c #9E9E9E",
"|.	c #025A1E",
"1.	c #02822A",
"2.	c #026E26",
"3.	c #024A1A",
"4.	c #060606",
"5.	c #5A5A5A",
"6.	c #5A6E62",
"7.	c #32924E",
"8.	c #026222",
"9.	c #1E5E32",
"0.	c #066222",
"a.	c #329252",
"b.	c #438C5C",
"c.	c #767676",
"d.	c #5E5E5E",
"e.	c #026A26",
"f.	c #5E7164",
"g.	c #DBDBDB",
"h.	c #B2B2B2",
"i.	c #121212",
"j.	c #828282",
"k.	c #868686",
"l.	c #AEAEAE",
"m.	c #C6C6C6",
"n.	c #424242",
"o.	c #3E3E3E",
"p.	c #021A0A",
"q.	c #02220E",
"r.	c #021E0A",
"s.	c #02260E",
"t.	c #021606",
"                            . +       @ # $ $               ",
"                            % &       @ * = =               ",
"                          - ; > .     @ * = =               ",
"                        . , ' ) ! ~ . @ * = =               ",
"                      . { = ] ) ^ / ( @ * = =               ",
"                  . & _ : < [ ) } | ( _ 1 = =               ",
"                . . _ ' 2 3 [ ) < 4 5 6 7 8 9               ",
"              . . 0 a b c d e ) 4 f g 5 h . i               ",
"            . - j k l [ [ m 2 ) n [ [ o # p q .             ",
"          . . 0 = r [ [ [ [ o ) s [ [ [ t u v - w           ",
"        x y z A B [ [ [ [ [ C ) [ [ [ [ r D E F G H         ",
"      I J K L M N O O O O O [ P O O O O O O Q R S T U       ",
"    . V W X O O O O O O O O O O O O O O O O O [ Y Z ` .     ",
"  .  ...+.@.O O O O O O O O O O O O O O O O O O O #.$.6 .   ",
". . 0 @ O O O ) ) O O O O O O O O O O O O ) ) O O O @ $.%.. ",
"&.*.=.-.O O ) ) ) O O O O O O O O O O O ) ) ) O O O ;.d _ . ",
"    2 } O O ) ) ) O O O O O ) ) O O O O ) ) ) O O O } 2     ",
"    2 } O O O ) ) O O O O O O O O O O O O ) ) O O O } 2     ",
"    2 } O O O ) ) O O O O O O O O O O O O ) ) O O O } 2     ",
"    2 } O O O ) ) O O O O O O O O O O O O ) ) O O O } 2     ",
"    @ >.O O O ) ) O O O O O O O O O O O O ) ) O O O >.@     ",
"    @ ' O O ) ) ) ) O O O O ) ) O O O O ) ) ) ) O O ' @     ",
"    d ,.O O ) ) ) ) O O O O O O O O O O ) ) ) ) O O ,.'.    ",
"    2 } O O O O O O O O O O O O O O O O O O O O O O ).2     ",
"    2 } O O O O O O O O O O O O O O O O O O O O O O [ 2     ",
"    !.~.~.{.].^./.(.(.(.(._.:.<.[.~.}.|.1.2.2.^.3.4.-.#     ",
"    $ 5.5.6.7.8.9.5.5.5.5.0.a.b.c.d.@ |.1.e.e.^.3.# [ 2     ",
"    2 } } ] = ,.B } } } } 4.k f.g.h.,.|.1.e.e.^.3.c.} 2     ",
"    i.f 4 C } l B } } } } -.} j.k.} l.|.1.e.e.^.3.m.>.@     ",
"    @ @ = -.-.n.d -.-.-.-.i.-.o.o.-.k p.q.r.r.s.t.' '.@     "};
