/* XPM */
static char * Help_trans_50_xpm[] = {
"50 32 505 2",
"  	c None",
". 	c #FFFA2C",
"+ 	c #FFFA2F",
"@ 	c #FFFB39",
"# 	c #FFFB41",
"$ 	c #FFFB45",
"% 	c #FFFB46",
"& 	c #FFFB44",
"* 	c #FFFB3E",
"= 	c #FFFB35",
"- 	c #FFFA2A",
"; 	c #FFFA36",
"> 	c #FFFB4F",
", 	c #FFFB5B",
"' 	c #FEFA66",
") 	c #FDFA6A",
"! 	c #FEFA62",
"~ 	c #FFFB55",
"{ 	c #FFFB4B",
"] 	c #FFFB3F",
"^ 	c #000000",
"/ 	c #FFFB37",
"( 	c #FFFB4A",
"_ 	c #FFFB59",
": 	c #FEFB6C",
"< 	c #FBF88B",
"[ 	c #FAF795",
"} 	c #F9F798",
"| 	c #FAF892",
"1 	c #FCF980",
"2 	c #FFFB62",
"3 	c #FFFB53",
"4 	c #FFFA30",
"5 	c #FFFA34",
"6 	c #FFFB48",
"7 	c #FEFA65",
"8 	c #FDFA77",
"9 	c #FAF895",
"0 	c #F9F7A1",
"a 	c #F9F7A4",
"b 	c #F9F7A6",
"c 	c #F9F7A3",
"d 	c #F9F79E",
"e 	c #FCF988",
"f 	c #FFFB67",
"g 	c #FFFB40",
"h 	c #FFFB54",
"i 	c #FFFC6A",
"j 	c #FCF98F",
"k 	c #F9F8AC",
"l 	c #F9F8B0",
"m 	c #F9F8B1",
"n 	c #F9F8AF",
"o 	c #F9F7A9",
"p 	c #FAF79F",
"q 	c #FDFB7F",
"r 	c #FFFB60",
"s 	c #FFFB4C",
"t 	c #FFFB30",
"u 	c #FEFB7C",
"v 	c #FAF8A2",
"w 	c #F9F8AE",
"x 	c #F9F8B7",
"y 	c #F9F8BD",
"z 	c #F9F8BF",
"A 	c #F9F8BB",
"B 	c #F9F8B4",
"C 	c #F9F7AA",
"D 	c #FBF996",
"E 	c #FFFC6E",
"F 	c #FFFB58",
"G 	c #FFFA27",
"H 	c #6A6A6A",
"I 	c #464646",
"J 	c #FFFB36",
"K 	c #FFFB50",
"L 	c #FFFC67",
"M 	c #FDFA8B",
"N 	c #F9F8A8",
"O 	c #F9F8B5",
"P 	c #F9F8C0",
"Q 	c #F9F8C7",
"R 	c #F9F8CA",
"S 	c #F9F8C5",
"T 	c #FAF8A0",
"U 	c #FFFC77",
"V 	c #FFFB5F",
"W 	c #FFFA2D",
"X 	c #606060",
"Y 	c #6F6F6F",
"Z 	c #FFFC6B",
"` 	c #FBF995",
" .	c #F9F8B9",
"..	c #F9F8C6",
"+.	c #F9F8D1",
"@.	c #F9F8D6",
"#.	c #F9F8CD",
"$.	c #F9F7A7",
"%.	c #FFFC7C",
"&.	c #616161",
"*.	c #8E8E8E",
"=.	c #353535",
"-.	c #4F4F4F",
";.	c #A7A7A7",
">.	c #2C2C2C",
",.	c #F9F8B8",
"'.	c #F9F8D0",
").	c #F9F8D4",
"!.	c #F9F8CC",
"~.	c #F9F8B3",
"{.	c #FFFB47",
"].	c #FFFA16",
"^.	c #080808",
"/.	c #9C9C9B",
"(.	c #B2B2B1",
"_.	c #636363",
":.	c #EBEBEB",
"<.	c #F3F3F3",
"[.	c #3A3A3A",
"}.	c #FCF98E",
"|.	c #F9F8C9",
"1.	c #F9F8C4",
"2.	c #F9F8BA",
"3.	c #FAF7A2",
"4.	c #FFFC76",
"5.	c #FFFB5E",
"6.	c #2A2721",
"7.	c #828282",
"8.	c #CDCDCD",
"9.	c #9E9E9E",
"0.	c #1D1D1D",
"a.	c #FFFB49",
"b.	c #FDFB7E",
"c.	c #F9F8BC",
"d.	c #F9F8B2",
"e.	c #F9F7A8",
"f.	c #FBF897",
"g.	c #FFFC6C",
"h.	c #FFFB56",
"i.	c #FFFB3D",
"j.	c #FFFA26",
"k.	c #A59A83",
"l.	c #11100D",
"m.	c #B8AC93",
"n.	c #EDDDBD",
"o.	c #878787",
"p.	c #444444",
"q.	c #101010",
"r.	c #FFFB6A",
"s.	c #F9F695",
"t.	c #F9F8AB",
"u.	c #F9F79F",
"v.	c #FBF788",
"w.	c #FFFB34",
"x.	c #FFFA1E",
"y.	c #857C6A",
"z.	c #040303",
"A.	c #7A7262",
"B.	c #D3C4A8",
"C.	c #050505",
"D.	c #FFFA31",
"E.	c #FFFA46",
"F.	c #FAF371",
"G.	c #E1DE89",
"H.	c #E1E093",
"I.	c #EEEC9C",
"J.	c #EFED9F",
"K.	c #EFEDA0",
"L.	c #EEEC9E",
"M.	c #E9E898",
"N.	c #E4E191",
"O.	c #F6ED8E",
"P.	c #F9F270",
"Q.	c #FEF943",
"R.	c #DACBAE",
"S.	c #696254",
"T.	c #24221D",
"U.	c #333029",
"V.	c #71695A",
"W.	c #C5B79D",
"X.	c #FFFA24",
"Y.	c #FAF357",
"Z.	c #F6EC7F",
"`.	c #E5DF84",
" +	c #D4D185",
".+	c #D4D28A",
"++	c #D4D28D",
"@+	c #D4D28C",
"#+	c #D4D288",
"$+	c #E6E088",
"%+	c #F6EC86",
"&+	c #F6EC7C",
"*+	c #F8F05F",
"=+	c #FFFA1A",
"-+	c #E9D9BA",
";+	c #C7BA9F",
">+	c #CCBEA2",
",+	c #F6EC66",
"'+	c #F6EB6E",
")+	c #F6EB76",
"!+	c #EEE67B",
"~+	c #D5D279",
"{+	c #D4D17D",
"]+	c #D4D17F",
"^+	c #D4D180",
"/+	c #D4D17E",
"(+	c #D6D37C",
"_+	c #F2E97F",
":+	c #F6EC7B",
"<+	c #F6EB72",
"[+	c #F6EB6B",
"}+	c #F6EC62",
"|+	c #E5D6B7",
"1+	c #E1D2B3",
"2+	c #EEDEB7",
"3+	c #F2E58E",
"4+	c #F6EB6F",
"5+	c #F3E972",
"6+	c #DCD870",
"7+	c #D4D171",
"8+	c #D4D173",
"9+	c #D4D174",
"0+	c #E0DA73",
"a+	c #F5EA76",
"b+	c #F6EB71",
"c+	c #F3E77D",
"d+	c #EEDFB3",
"e+	c #736B5C",
"f+	c #2F2C26",
"g+	c #E1D2B4",
"h+	c #EDDDBB",
"i+	c #F0E29D",
"j+	c #F4E87B",
"k+	c #E7E069",
"l+	c #D5D165",
"m+	c #D4D166",
"n+	c #D5D266",
"o+	c #EAE26A",
"p+	c #F5E972",
"q+	c #F1E394",
"r+	c #948A76",
"s+	c #26231E",
"t+	c #EDDDBC",
"u+	c #EEDEB4",
"v+	c #EBDEA0",
"w+	c #C8C57C",
"x+	c #C9C76E",
"y+	c #CCCA69",
"z+	c #D3CF6E",
"A+	c #F1E584",
"B+	c #F0E29B",
"C+	c #EEDFB1",
"D+	c #C6BFB1",
"E+	c #A8A8A8",
"F+	c #CBC3B3",
"G+	c #E9DABC",
"H+	c #E5D7BA",
"I+	c #EADBBC",
"J+	c #E1D2B5",
"K+	c #E1D3B5",
"L+	c #DBCDB0",
"M+	c #E7D8B9",
"N+	c #EBDBBC",
"O+	c #ECDCBC",
"P+	c #E3D4B6",
"Q+	c #D1C4AA",
"R+	c #D7C9AE",
"S+	c #E6D7B8",
"T+	c #EBDBBB",
"U+	c #E2D3B5",
"V+	c #DCCEB1",
"W+	c #E4D5B7",
"X+	c #D4C7AC",
"Y+	c #D3C6AB",
"Z+	c #E4D5B6",
"`+	c #EBDCBC",
" @	c #ECDCBD",
".@	c #E0D1B4",
"+@	c #A89F8D",
"@@	c #837F73",
"#@	c #7F7B70",
"$@	c #7A766C",
"%@	c #787467",
"&@	c #AAA08A",
"*@	c #E3D3B5",
"=@	c #CFC2A6",
"-@	c #918B7C",
";@	c #79766C",
">@	c #7D796F",
",@	c #8E897B",
"'@	c #BAAF99",
")@	c #B9AE99",
"!@	c #848074",
"~@	c #807C71",
"{@	c #7B776D",
"]@	c #777368",
"^@	c #99907D",
"/@	c #DDCEB1",
"(@	c #D6C8AB",
"_@	c #9E9785",
":@	c #7C786E",
"<@	c #7A776D",
"[@	c #8B8678",
"}@	c #AEA491",
"|@	c #DDCFB2",
"1@	c #E0D2B4",
"2@	c #A19988",
"3@	c #737068",
"4@	c #6C6A63",
"5@	c #6E6C64",
"6@	c #56544E",
"7@	c #827B6B",
"8@	c #D0C1A6",
"9@	c #E0D1B3",
"0@	c #B4A890",
"a@	c #8E8675",
"b@	c #6D6961",
"c@	c #747168",
"d@	c #757369",
"e@	c #716F66",
"f@	c #77746B",
"g@	c #B5AB96",
"h@	c #EADBBB",
"i@	c #AFA692",
"j@	c #6D6B64",
"k@	c #6F6D65",
"l@	c #5B5953",
"m@	c #706B5F",
"n@	c #C1B39A",
"o@	c #E8D8B9",
"p@	c #BBAE96",
"q@	c #988F7C",
"r@	c #6E6A61",
"s@	c #737067",
"t@	c #76736A",
"u@	c #726F67",
"v@	c #A39B89",
"w@	c #E5D6B8",
"x@	c #C6BBA2",
"y@	c #727067",
"z@	c #73716A",
"A@	c #8F8D85",
"B@	c #9E988C",
"C@	c #938B7B",
"D@	c #A59A84",
"E@	c #CABCA1",
"F@	c #C9BBA1",
"G@	c #958A77",
"H@	c #878070",
"I@	c #948E7F",
"J@	c #B8B1A2",
"K@	c #C0B9AA",
"L@	c #A09A8B",
"M@	c #847F74",
"N@	c #C8BDA3",
"O@	c #EADABB",
"P@	c #D7CAAE",
"Q@	c #7C796E",
"R@	c #6F6C65",
"S@	c #8B8982",
"T@	c #9D998E",
"U@	c #948C7D",
"V@	c #928A7B",
"W@	c #9F9580",
"X@	c #C0B299",
"Y@	c #E9D9B9",
"Z@	c #D8C9AD",
"`@	c #9A8F7C",
" #	c #898170",
".#	c #8C8678",
"+#	c #B2AC9D",
"@#	c #C3BCAC",
"##	c #A7A192",
"$#	c #878275",
"%#	c #B9AF99",
"&#	c #D8CBAE",
"*#	c #A29A88",
"=#	c #A39F97",
"-#	c #989896",
";#	c #D8D6D1",
">#	c #AEA493",
",#	c #B1A58E",
"'#	c #B0A48D",
")#	c #C5B89D",
"!#	c #EADABA",
"~#	c #B7AA92",
"{#	c #A19581",
"]#	c #B4A791",
"^#	c #BAB1A2",
"/#	c #8C8B89",
"(#	c #DAD9D6",
"_#	c #E2DCD1",
":#	c #B7AB94",
"<#	c #A29B88",
"[#	c #C1B69E",
"}#	c #E9DABA",
"|#	c #A9A08D",
"1#	c #A9A398",
"2#	c #91908F",
"3#	c #D2D1CE",
"4#	c #B4AC9D",
"5#	c #ADA18A",
"6#	c #BFB399",
"7#	c #C6B99E",
"8#	c #A29681",
"9#	c #ACA08A",
"0#	c #C3B8A4",
"a#	c #92908D",
"b#	c #C1C1BE",
"c#	c #E9E5DC",
"d#	c #BFB49E",
"e#	c #A59D89",
"f#	c #B4AA95",
"g#	c #D2C3A8",
"h#	c #C8BBA0",
"i#	c #AB9F8B",
"j#	c #9B9892",
"k#	c #666666",
"l#	c #C8C4BE",
"m#	c #AEA490",
"n#	c #9B907B",
"o#	c #9F947F",
"p#	c #B5A890",
"q#	c #A59984",
"r#	c #B4AB9C",
"s#	c #676766",
"t#	c #CBCBCA",
"u#	c #DED8CE",
"v#	c #BDB097",
"w#	c #D3C5A9",
"x#	c #D1C3A7",
"y#	c #CEC0A5",
"z#	c #AFA38D",
"A#	c #ADA79E",
"B#	c #5F5F5F",
"C#	c #B8B6B3",
"D#	c #B3AA97",
"E#	c #A09580",
"F#	c #9A8F7B",
"G#	c #AEA28B",
"H#	c #DECFB1",
"I#	c #C0B39A",
"J#	c #C1B6A2",
"K#	c #727170",
"L#	c #A8A8A7",
"M#	c #E7E3DC",
"N#	c #BFB39C",
"O#	c #CEC0A4",
"P#	c #CBBDA2",
"Q#	c #BAAD95",
"R#	c #B0A694",
"S#	c #C3BCAE",
"T#	c #B2A894",
"U#	c #A99D87",
"V#	c #A99E88",
"W#	c #A49883",
"X#	c #BCAF97",
"Y#	c #B3A78F",
"Z#	c #C7BAA1",
"`#	c #C5BCAB",
" $	c #D3CBBD",
".$	c #C7BCA7",
"+$	c #BFB199",
"@$	c #C9BBA0",
"#$	c #DCCEB0",
"$$	c #CCBEA3",
"%$	c #BFB299",
"&$	c #A39782",
"*$	c #A99F8B",
"=$	c #B9AF9E",
"-$	c #A89D87",
";$	c #B4A790",
">$	c #C4B79C",
",$	c #ADA08A",
"'$	c #C6B9A0",
")$	c #C5BCA9",
"!$	c #D1C9BB",
"~$	c #CABFAB",
"{$	c #D8CAAD",
"]$	c #DCCCAF",
"^$	c #DACBAD",
"/$	c #D8C9AC",
"($	c #DCCDB0",
"_$	c #D7C9AC",
":$	c #D2C5A8",
"<$	c #D9CBAE",
"[$	c #CBBDA3",
"}$	c #C6B89E",
"|$	c #C2B59C",
"1$	c #E5D5B6",
"2$	c #E4D4B6",
"3$	c #DBCCAE",
"4$	c #D7C8AC",
"5$	c #DBCDAF",
"6$	c #D9CBAD",
"7$	c #D7C8AB",
"8$	c #D6C9AC",
"9$	c #D0C2A6",
"0$	c #BCAF96",
"a$	c #CFC0A5",
"b$	c #C4B69D",
"c$	c #BDB098",
"d$	c #C3B59B",
"e$	c #C7B99F",
"f$	c #E1D1B3",
"                                                                                                    ",
"                                                                            .                       ",
"                                                                    + @ # $ % & * = -               ",
"                                                                  ; & > , ' ) ! ~ { ] +             ",
"                        ^ ^                                     / ( _ : < [ } | 1 2 3 # 4           ",
"                    ^ ^   ^ ^                                 5 6 7 8 9 0 a b c d e f 3 g -         ",
"                ^ ^         ^ ^                               g h i j a k l m n o p q r s =         ",
"                ^           ^ ^                             t ( r u v w x y z A B C D E F ] G       ",
"                            ^                 H I           J K L M N O P Q R S A l T U V $ W       ",
"                          ^                   X   Y         @ h Z ` k  ...+.@.#.P B $.%.2 6 4       ",
"                        ^         &.*.=.        -.  ;.>.    @ 3 Z ` k ,.S '.).!.P ~.$.%.2 {.+ ].    ",
"                      ^         ^./.(.H         _.:.<.[.    = K L }.N B z ..|.1.2.n 3.4.5.& .       ",
"                    6.                        7.8.9.0.      + a.5.b.0 k O A c. .d.e.f.g.h.i.j.      ",
"                k.l.m.n.n.n.                  o.p.q.        j.] 3 r.s.c t.n l w e.u.v.V { w.x.      ",
"              n.y.z.A.B.n.n.n.n.              C.              D.E.F.G.H.I.J.K.L.M.N.O.P.Q.G         ",
"          n.n.n.R.S.T.U.V.W.n.n.n.                            X.Y.Z.`. +.+++++@+#+$+%+&+*+=+        ",
"          n.n.n.n.n.-+;+>+n.n.n.n.n.                          ,+'+)+!+~+{+]+^+/+(+_+:+<+[+}+        ",
"        n.n.n.n.n.n.|+1+n.n.n.n.n.n.n.                        2+3+4+5+6+7+8+9+8+0+a+b+[+c+d+        ",
"      n.n.n.n.n.n.n.e+f+g+n.n.n.n.n.n.n.                    n.n.h+i+j+k+l+m+m+n+o+[+p+q+2+n.n.      ",
"      n.n.n.n.n.n.n.r+s+R.n.n.n.n.n.n.n.                    n.n.n.t+u+v+w+x+y+z+A+B+C+t+n.n.n.      ",
"    n.n.n.n.n.n.n.n.n.n.n.n.n.n.n.n.n.n.n.                n.n.n.n.n.n.n.D+E+E+F+n.n.n.n.n.n.n.n.    ",
"    n.n.n.n.n.n.n.n.n.n.n.n.n.n.n.n.n.n.n.                n.n.n.n.n.n.n.G+H+H+I+n.n.n.n.n.n.n.n.    ",
"  n.n.n.n.n.n.n.n.n.n.n.n.n.n.n.n.n.n.n.n.                n.n.n.n.n.n.n.n.n.n.n.n.n.n.n.n.n.n.n.n.  ",
"  n.n.n.n.n.n.n.n.n.n.n.n.n.n.n.n.n.n.n.n.n.            n.n.n.n.n.n.n.n.n.n.n.n.n.n.n.n.n.n.n.n.n.  ",
"  n.n.-+J+K+L+M+N+n.n.n.n.n.O+P+Q+R+S+O+n.n.            n.n.T+U+U+V+W+T+n.n.n.n.n.n.M+X+Y+Z+`+n.n.  ",
"n. @.@+@@@#@$@%@&@Z+n.n.O+*@=@-@;@>@,@'@P+n.            n.|+)@!@~@{@]@^@/@n.n.n.|+(@_@:@<@[@}@|@n.  ",
"n.1@2@3@4@5@5@6@7@8@n.n.9@0@a@b@c@d@e@f@g@h@          n.M+i@;@4@j@k@l@m@n@O+n.o@p@q@r@s@t@u@c@v@w@n.",
"n.x@y@z@A@B@C@C@D@E@`+n.F@G@H@I@J@K@L@~@M@N@O@        n.P@Q@R@S@T@U@V@W@X@Y@n.Z@`@ #.#+#@###$#:@%#o@",
"O@&#*#=#-#;#>#,#'#)#!#n.~#{#]#^#/#(#_#:#<#[#}#        !#U+|#1#2#3#4#,#5#6#Z+n.7#8#9#0#a#b#c#d#e#f#S+",
"g#h#i#j#k#l#m#n#o#p#o@n.'#q#0@r#s#t#u#v#w#M+n.        x#y#z#A#B#C#D#E#F#G#H#n.I#q#5#J#K#L#M#N#O#W+O+",
"P#Q#o#R#S#T#U#V#W#X#-+n.0@q#Y#Z#`# $.$+$@$#$T+        $$%$&$*$K@=$-$9#8#;$*@n.>$q#,$'$)$!$~$I#W.{$}#",
"g+]$^$/$($/$_$:$~#<$n.n.[$9#)#P#}$|$v#W.}$$$1$        2$R.3$4$5$6$7$8$m.9$O+n.Z@5#0$a$}$b$c$d$e$E@f$"};
