/* XPM */
static char * Hilfe_xpm[] = {
"32 32 256 2",
"  	c None",
". 	c #222A7E",
"+ 	c #0A6EF6",
"@ 	c #869AAE",
"# 	c #8EAECE",
"$ 	c #0E76F6",
"% 	c #C6CED6",
"& 	c #2E3A84",
"* 	c #1E468E",
"= 	c #4A6E9A",
"- 	c #EEF6FE",
"; 	c #26528E",
"> 	c #96BADE",
", 	c #0A4EBA",
"' 	c #2E7AF6",
") 	c #427AF2",
"! 	c #529EFA",
"~ 	c #1A3282",
"{ 	c #8EC2FA",
"] 	c #4A6A96",
"^ 	c #DAE2EA",
"/ 	c #3A6296",
"( 	c #7A9AF6",
"_ 	c #727A7E",
": 	c #161AB8",
"< 	c #AECEEA",
"[ 	c #123ACE",
"} 	c #0662C6",
"| 	c #26368E",
"1 	c #728698",
"2 	c #E2EAF2",
"3 	c #969A9A",
"4 	c #7AB6FA",
"5 	c #122EB6",
"6 	c #C2CEFA",
"7 	c #86868A",
"8 	c #3A5E82",
"9 	c #2A62F2",
"0 	c #52628C",
"a 	c #6A76EE",
"b 	c #0E36B6",
"c 	c #5272F2",
"d 	c #066ACE",
"e 	c #5A8EF6",
"f 	c #F6FAFE",
"g 	c #CED2FA",
"h 	c #3E5AEE",
"i 	c #9AA6B1",
"j 	c #CAD6E6",
"k 	c #0E5AF2",
"l 	c #AED6FE",
"m 	c #0E4ED2",
"n 	c #0A72F6",
"o 	c #0666CA",
"p 	c #BED6EE",
"q 	c #AAC2D6",
"r 	c #526E8A",
"s 	c #0E46BA",
"t 	c #DEEEFE",
"u 	c #0A56D2",
"v 	c #265686",
"w 	c #1A1AC2",
"x 	c #A2AEB6",
"y 	c #6A86F2",
"z 	c #1232C6",
"A 	c #9EBAD2",
"B 	c #B6DAFE",
"C 	c #E6EEFE",
"D 	c #0E5EF2",
"E 	c #A6CAEE",
"F 	c #8A929E",
"G 	c #9EA2A2",
"H 	c #1246DE",
"I 	c #B2BEFA",
"J 	c #5E7292",
"K 	c #1A26E6",
"L 	c #067AEA",
"M 	c #266AF2",
"N 	c #5A9AFA",
"O 	c #A6B6C6",
"P 	c #1A1EDA",
"Q 	c #C6E2FA",
"R 	c #8EA2B6",
"S 	c #2656EE",
"T 	c #0666CE",
"U 	c #869AF6",
"V 	c #8EAEF6",
"W 	c #AEBECE",
"X 	c #1A2EE6",
"Y 	c #D2EAFE",
"Z 	c #BEDEFE",
"` 	c #0E62F2",
" .	c #163EEA",
"..	c #0A6AF6",
"+.	c #7692AC",
"@.	c #226EF2",
"#.	c #2E4682",
"$.	c #365E8E",
"%.	c #1632EA",
"&.	c #E6F2FE",
"*.	c #667696",
"=.	c #1252EE",
"-.	c #6EAAFA",
";.	c #727E8B",
">.	c #6E86F2",
",.	c #124AED",
"'.	c #7A8A98",
").	c #067EFA",
"!.	c #8EA6F6",
"~.	c #BEC2CA",
"{.	c #EAF6FE",
"].	c #D6EAFE",
"^.	c #52667E",
"/.	c #CADEFE",
"(.	c #224AEE",
"_.	c #167EFA",
":.	c #3E66EE",
"<.	c #B2DAFE",
"[.	c #32428E",
"}.	c #6E96F6",
"|.	c #163AEA",
"1.	c #BADEFE",
"2.	c #364A6E",
"3.	c #9EAAB6",
"4.	c #E2F2FE",
"5.	c #9AAEF6",
"6.	c #1A2AE6",
"7.	c #768AF2",
"8.	c #0A66F5",
"9.	c #0E56F2",
"0.	c #AEAEAE",
"a.	c #828A92",
"b.	c #C2E2FE",
"c.	c #DAEEFE",
"d.	c #2E3672",
"e.	c #CAE2FA",
"f.	c #1636EA",
"g.	c #B6CAFA",
"h.	c #8EA6BE",
"i.	c #1A5AF2",
"j.	c #2E4282",
"k.	c #8AB6FA",
"l.	c #7A7E86",
"m.	c #0A76F6",
"n.	c #92969A",
"o.	c #3A4A86",
"p.	c #1642EA",
"q.	c #0E4EDE",
"r.	c #B2BEC6",
"s.	c #A6AAAA",
"t.	c #9A9E9E",
"u.	c #8E9EF6",
"v.	c #067AEE",
"w.	c #D2E6FD",
"x.	c #868A8E",
"y.	c #8E9EB2",
"z.	c #FAFAFE",
"A.	c #A2A2A2",
"B.	c #3A4E7A",
"C.	c #B6B6B6",
"D.	c #728AAA",
"E.	c #6E7A87",
"F.	c #1246EE",
"G.	c #AECAE6",
"H.	c #0E4EEA",
"I.	c #1A22E6",
"J.	c #4A62EE",
"K.	c #26328A",
"L.	c #366AF2",
"M.	c #9AAAF6",
"N.	c #BEDAFE",
"O.	c #CEE6FE",
"P.	c #0E7EFA",
"Q.	c #2E4E86",
"R.	c #BACADA",
"S.	c #8AAACA",
"T.	c #9AB2C6",
"U.	c #AACAFE",
"V.	c #72828E",
"W.	c #868E92",
"X.	c #AED2FA",
"Y.	c #7E8EA2",
"Z.	c #067AFA",
"`.	c #767A7C",
" +	c #7E92A6",
".+	c #3E4A7A",
"++	c #B6BEC2",
"@+	c #7E8AF2",
"#+	c #A6A6A6",
"$+	c #E2EAF6",
"%+	c #829EBA",
"&+	c #96A6B8",
"*+	c #5A6E8E",
"=+	c #364282",
"-+	c #FEFEFE",
";+	c #A2B2C2",
">+	c #B2B2B2",
",+	c #CAE6FE",
"'+	c #969699",
")+	c #7E8E9E",
"!+	c #728AA2",
"~+	c #364676",
"{+	c #A2A6AE",
"]+	c #E2EEF8",
"^+	c #7A7E82",
"/+	c #9A9A9B",
"(+	c #8EA2F6",
"_+	c #6E7E8A",
":+	c #1A42EA",
"<+	c #9E9E9E",
"[+	c #8A8E92",
"}+	c #22568A",
"|+	c #56668A",
"1+	c #C2DAEE",
"2+	c #2272F6",
"3+	c #7A828C",
"4+	c #9AAAB6",
"5+	c #7E8A97",
"6+	c #B2D6FE",
"7+	c #BADAFA",
"8+	c #DAEAFA",
"9+	c #AACEF2",
"0+	c #969AA2",
"a+	c #728296",
"b+	c #E2EAFE",
"c+	c #262E7E",
"d+	c #3A6696",
"e+	c #161EC2",
"f+	c #5E7696",
"g+	c #667A92",
"h+	c #426AF2",
"i+	c #FAFEFE",
"j+	c #A2A6A6",
"k+	c #7E8EF2",
"l+	c #124EEE",
"m+	c #0A7AFA",
"n+	c #AAAAAA",
"o+	c #7A7A7E",
"p+	c #8AAACE",
"q+	c #767A82",
"r+	c #BABEC6",
"s+	c #BEDAF6",
"t+	c #7A92AE",
"u+	c #AEC2D6",
"v+	c #92AEF6",
"w+	c #3A5E8E",
"x+	c #72AAFA",
"y+	c #8A8A8E",
"z+	c #8EAAC6",
"A+	c #AECAFA",
"B+	c #76828E",
"C+	c #BABEBE",
"D+	c #3A467A",
"E+	c #26568E",
"F+	c #9A9EA2",
"G+	c #C6E2FE",
"                                                                ",
"                      #+#+'+'+y+[+n.3 n+#+                      ",
"                  C.^+0+^ {.&.&.&.4.4.j F [+#+                  ",
"                o+~.- {.{.&.&.&.4.4.t t c.c.O `.                ",
"            >+F+- - {.{.&.&.&.4.4.t t c.c.c.].w.5+>+            ",
"          t.r+- - {.{.&.r.1 = $.w+] a+W c.].].Y Y &+#+          ",
"        A.++- - {.{.i v } Z.m.n + ..8., Q.;+Y Y O.O.&+C+        ",
"        F+- - {.]+^.o ).Z._.! -.x+N 2+` D s J e.O.O.,+)+        ",
"      `.- - {.$+8 L ).P.{ f -+-+-+-+-+A+M 9.q.B.Q ,+,+G+l.      ",
"    0.% - {.{.r v.).m+N.-+-+-+-+-+-+-+-+b+9 l+H |+,+G+G+T.#+    ",
"    [+- {.{.i d ).Z.4 -+-+-+k.' @.e b+-+-+g.,.F.b R G+b.b.3+    ",
"  #+{+{.{.]+}+).Z.m.t -+-+k.` ` D k ) -+-+-+S F.p.j.b.b.b. +#+  ",
"  <+2 {.&.x T Z.m.$ U./.C 2+` D k 9.i.-+-+-+:.p. .5 A b.Z < n+  ",
"  '+{.&.&.g+Z.m.n + ..8.` ` D k 9.=.}.-+-+z.(. .|.f.*.Z Z 1.[+  ",
"  n.{.&.&.d+m.n + ..8.` ` D k 9.=.}.i+-+-+5. .|.f.%.o.Z 1.1.3+  ",
"  W.&.&.4.E+n + ..8.` ` D k 9.=.v+-+-+-+6 :+|.f.%.X [.1.1.B 5+  ",
"  x.&.4.4.; + ..8.` ` D k 9.=.V -+-+-+I :+|.f.%.X 6.[.1.B B 5+  ",
"  n.4.4.t / ..8.` ` D k 9.=.L.-+-+-+M. .|.f.%.X 6.6.=+B B B B+  ",
"  n.4.t t f+8.` ` D k 9.=.l+( -+-+6  .|.f.%.X 6.6.K *+B B <.W.  ",
"  /+8+t c.i u ` D k 9.=.l+,.!.-+-+U |.f.%.X 6.6.K : z+B <.E #+  ",
"  #+3.c.c.w.* D k 9.=.l+,.F.h+y >.h f.%.X 6.6.K I.c+<.<.<.+.#+  ",
"    q+c.c.].Y.m 9.=.l+,.F.F.c (+u.J.%.X 6.6.K I.: t+<.<.l E.    ",
"    <+R.].].w.2.H.l+,.F.F.p.(+-+-+k+X 6.6.K I.P .+<.<.l # 0.    ",
"      _ ].Y Y 1+#.,.F.F.p. .(+-+-+@+6.6.K I.P d.9+<.l l E.      ",
"      #+4+Y O.O.p ~+[ p. .|.7.g g a 6.K I.w D+9+<.l l !+        ",
"        /+u+O.O.,+G+1 ~ z f.%.X 6.6.K e+. D.<.<.l l p+s.        ",
"          7 q ,+,+G+G+s+@ 0 & | K.& 0 %+6+<.<.l l S.F+          ",
"            /+y.G+G+b.b.b.Z Z 1.1.B B B <.<.l l +.j+            ",
"              #+;.G.b.b.Z Z 1.1.B B B <.<.l > E.                ",
"                  G ;.h.7+1.1.B B B <.X.%+_+n+                  ",
"                      #+3 a.V.'.'.;.a.t.#+                      ",
"                                                                "};
