/* XPM */
static char * hoch_arr_exp_xpm[] = {
"25 80 2 1",
" 	c None",
".	c #FFFFFF",
"                         ",
"  ...                    ",
"  ...............        ",
"  ........               ",
"  ........               ",
"  ..........             ",
"  .. ........            ",
" ..   ........           ",
" .     ........          ",
".      .........         ",
"        .........        ",
"        ..........       ",
"         ..........      ",
"         ...........     ",
"          ..........     ",
"          ...........    ",
"           ..........    ",
"           ...........   ",
"           ...........   ",
"            ...........  ",
"            ...........  ",
"            ...........  ",
"            ...........  ",
"             ........... ",
"             ........... ",
"             ........... ",
"             ........... ",
"             ........... ",
"             ........... ",
"             ........... ",
"             ............",
"             ............",
"             ............",
"             ............",
"             ............",
"             ............",
"             ............",
"             ............",
"            ............ ",
"            ............ ",
"            ............ ",
"            ............ ",
"            ............ ",
"           ............. ",
"           ............. ",
"          .............  ",
"          .............  ",
"          .............  ",
"         ..............  ",
"         ......... ...   ",
"        ..............   ",
"        ..............   ",
"       ..............    ",
"      ...............    ",
"      ...............    ",
"     ...............     ",
"     ...............     ",
"    ...............      ",
"   ......... ......      ",
". .................      ",
" .................       ",
" .................       ",
".................        ",
".................        ",
"......... ......         ",
"................         ",
".. .... ... ...          ",
" . .  ........           ",
" . .. .......            ",
".............            ",
".  ..  .....             ",
"  ..... .                ",
" ..... ...               ",
".. . ..                  ",
"...                      ",
" .  ..                   ",
" ....                    ",
"..                       ",
"..                       ",
".                        "};
