/* XPM */
static char * hoch_arr_exp_xpm[] = {
"25 80 256 2",
"  	c None",
". 	c #020202",
"+ 	c #464642",
"@ 	c #676762",
"# 	c #898680",
"$ 	c #C64242",
"% 	c #A29E9C",
"& 	c #B6B2A6",
"* 	c #3A3A36",
"= 	c #C5C2B6",
"- 	c #625E5A",
"; 	c #121282",
"> 	c #CECEC2",
", 	c #726E76",
"' 	c #525276",
") 	c #2E2E46",
"! 	c #7E86F7",
"~ 	c #22229E",
"{ 	c #D6D6C6",
"] 	c #6666B6",
"^ 	c #4246A2",
"/ 	c #96A2EA",
"( 	c #2A2626",
"_ 	c #1E22BA",
": 	c #DAD6CC",
"< 	c #8A8ADA",
"[ 	c #DEDECF",
"} 	c #666AC6",
"| 	c #ACB2FE",
"1 	c #464AC2",
"2 	c #0206EA",
"3 	c #2E32C2",
"4 	c #5E5EC6",
"5 	c #B7C3FE",
"6 	c #161616",
"7 	c #8888C8",
"8 	c #6266CA",
"9 	c #C1CFFE",
"0 	c #0206D2",
"a 	c #E2E2D5",
"b 	c #8E8A82",
"c 	c #DAE6FE",
"d 	c #2A2ED6",
"e 	c #4047E6",
"f 	c #6C74D6",
"g 	c #B6C2FA",
"h 	c #B4B4E0",
"i 	c #9E9ECE",
"j 	c #363A9A",
"k 	c #3E4266",
"l 	c #585750",
"m 	c #6F73E8",
"n 	c #3236D6",
"o 	c #2226BE",
"p 	c #0206C2",
"q 	c #565AE2",
"r 	c #928E86",
"s 	c #8686AE",
"t 	c #BCBAD2",
"u 	c #C2C2DA",
"v 	c #151212",
"w 	c #484EE4",
"x 	c #A6A5C1",
"y 	c #A9ABE4",
"z 	c #161EDE",
"A 	c #171A92",
"B 	c #2B2DAB",
"C 	c #7E8AFE",
"D 	c #313AFE",
"E 	c #8282DA",
"F 	c #C6D6FE",
"G 	c #AAAA9E",
"H 	c #565EAA",
"I 	c #828286",
"J 	c #5E66EA",
"K 	c #9696BE",
"L 	c #1E1E72",
"M 	c #BCBCCA",
"N 	c #EAE6D6",
"O 	c #7A7AB8",
"P 	c #A2A6EA",
"Q 	c #76726D",
"R 	c #363A6E",
"S 	c #313130",
"T 	c #3E46FE",
"U 	c #0E0E0E",
"V 	c #7676C6",
"W 	c #CCDAFE",
"X 	c #C6C4D2",
"Y 	c #060EB2",
"Z 	c #CECEDE",
"` 	c #0A0ED2",
" .	c #2A36FA",
"..	c #96928B",
"+.	c #1E26E6",
"@.	c #6C76F2",
"#.	c #161ADE",
"$.	c #454EFC",
"%.	c #3E42C0",
"&.	c #EEFAFE",
"*.	c #8A8A9E",
"=.	c #4E4E48",
"-.	c #0A0E8E",
";.	c #C2BEB2",
">.	c #9498EE",
",.	c #515AF9",
"'.	c #323696",
").	c #8891FE",
"!.	c #AAB6FC",
"~.	c #5256A2",
"{.	c #C6C6BA",
"].	c #787FFD",
"^.	c #0E1292",
"/.	c #8686A2",
"(.	c #96968A",
"_.	c #43423E",
":.	c #5A5A7E",
"<.	c #E6E6D6",
"[.	c #4D52DA",
"}.	c #EEEEFE",
"|.	c #2A32FE",
"1.	c #B6B6C6",
"2.	c #7B7A72",
"3.	c #AAA9C7",
"4.	c #D5D1D2",
"5.	c #CEDEFE",
"6.	c #3A3EE6",
"7.	c #1018FE",
"8.	c #9AAAFE",
"9.	c #DEDAD8",
"0.	c #0A0A0A",
"a.	c #0E12AA",
"b.	c #1E2272",
"c.	c #4549D2",
"d.	c #AEAEBA",
"e.	c #8D96FC",
"f.	c #4C4C8C",
"g.	c #626AFC",
"h.	c #1A1A1A",
"i.	c #A6A29A",
"j.	c #D2CEC3",
"k.	c #BDBAAE",
"l.	c #161AC6",
"m.	c #3842FA",
"n.	c #727AEE",
"o.	c #5C60EE",
"p.	c #C9C7CA",
"q.	c #4A56FE",
"r.	c #7A7AE6",
"s.	c #DADACC",
"t.	c #DBEBFE",
"u.	c #626272",
"v.	c #B0BAFE",
"w.	c #CED2FE",
"x.	c #9692C6",
"y.	c #BEBEE2",
"z.	c #3E42AE",
"A.	c #2428DE",
"B.	c #7C80C0",
"C.	c #D2D2C3",
"D.	c #1A26F6",
"E.	c #060A96",
"F.	c #4E52EE",
"G.	c #CAC6BA",
"H.	c #363632",
"I.	c #706E68",
"J.	c #1F1F1E",
"K.	c #1A1AA6",
"L.	c #595FD8",
"M.	c #949FFB",
"N.	c #5E5E56",
"O.	c #0E0E22",
"P.	c #3032A0",
"Q.	c #3C42DE",
"R.	c #4A4EDB",
"S.	c #8A8AB6",
"T.	c #565696",
"U.	c #96A6FE",
"V.	c #4E4A46",
"W.	c #A6AEEE",
"X.	c #3642FE",
"Y.	c #5A62EA",
"Z.	c #C8C8DE",
"`.	c #1216AA",
" +	c #DEF2FE",
".+	c #363AC6",
"++	c #282A80",
"@+	c #A5A3A6",
"#+	c #9CA6FC",
"$+	c #A2AAFE",
"%+	c #9E9A92",
"&+	c #6262CE",
"*+	c #E2DED3",
"=+	c #969AF6",
"-+	c #CACABE",
";+	c #767ACA",
">+	c #3236AE",
",+	c #1216A6",
"'+	c #121ADA",
")+	c #3E3E96",
"!+	c #4A4A46",
"~+	c #6872FA",
"{+	c #1D1FAB",
"]+	c #6E6A66",
"^+	c #464AE2",
"/+	c #D6E4FE",
"(+	c #676EFB",
"_+	c #BECAFA",
":+	c #666EEA",
"<+	c #CECACE",
"[+	c #B2AECA",
"}+	c #0A0E9A",
"|+	c #2C30E6",
"1+	c #9A9A8F",
"2+	c #423E3A",
"3+	c #B7B6AA",
"4+	c #4952F9",
"5+	c #0509A2",
"6+	c #060606",
"7+	c #707AFC",
"8+	c #2E32AE",
"9+	c #161AB8",
"0+	c #DEDACE",
"a+	c #222AFB",
"b+	c #6B76FB",
"c+	c #8A8AEA",
"d+	c #8686BE",
"e+	c #4E52FE",
"f+	c #B0ADA2",
"g+	c #444AFE",
"h+	c #8E92F6",
"i+	c #E6E2D5",
"j+	c #827E76",
"k+	c #76766E",
"l+	c #A9A69D",
"m+	c #A3AEFE",
"n+	c #B1BEFE",
"o+	c #D6D2C6",
"p+	c #4446AE",
"q+	c #C6D2FE",
"r+	c #4E52E6",
"s+	c #D6D2D6",
"t+	c #565EFA",
"u+	c #CECAD6",
"v+	c #6E72FA",
"w+	c #4246EE",
"x+	c #5A5EE6",
"y+	c #7E7EBA",
"z+	c #D1E2FE",
"A+	c #3E42E6",
"B+	c #CECABE",
"C+	c #3E3E3A",
"D+	c #64625D",
"E+	c #52524A",
"F+	c #4E4E96",
"G+	c #CAC6C4",
"            $ $ $ $ $ $ $ $ $ $ $ $ $ $ $ $       ",
"            $ $ $ $ $ $ $ $ $ $ $ $ $ $ $ $       ",
"            $ $ $ $ $ $ $ $ $ $ $ $ $ $ $ $       ",
"            $ $ $ $ $ $ $ $ $ $ $ $ $ $ $ $       ",
"            $ $ $ $ $ $ $ $ $ $ $ $ $ $ $ $       ",
"            $ $ $ $ $ $ $ $ $ $ $ $ $ $ $ $       ",
"            N N N N N N N N N N N N N N N N       ",
"            N N N N N N N N N N N N N N N N       ",
"            N N N N N N N N N N N N N N N N       ",
"            N N N N N N N N N N N N N N N N       ",
"            N N N N B+1+1+1+1+1+1+1+B+N N N       ",
"            N N N N 1+. . . . . . . 1+N N N       ",
"            N N N N N N N N N N 1+=.N N N N       ",
"            N N N N N N N N N 1+h.N N N N N       ",
"            N N N N N N N N B+h.& N N N N N       ",
"            N N N N N N N N @ S N N N N N N       ",
"            N N N N N N N B+. & N N N N N N       ",
"            N N N N N N N @ S N N N N N N N       ",
"            N N N N N N N h.j+N N N N N N N       ",
"            N i+N N N i+& O.G+Z Z.h h N N N       ",
"            y.Z.y W.>.P Y.p+].e.7+x+r.u+i+N       ",
"    K.l.a+a+m.|.q.q.b+g.b+~+(+x+Q.3 [+: : C.      ",
"    A 5+2 7.a+4+).v.$+).,.|+9+{+p+d+p.i+<.<.    N ",
"      -.p 7.(+v.}.e.,._ a.}+P.O <+*+<.N N N N N N ",
"      ; E.#.D ].w.| 6.5+5+S.t a <.N <.N N N N N N ",
"        '.9+t+g+D g.#+W.c.`.B.*+<.*+[ i+N N N N N ",
"        s B |+$.D.'+ .].M.m 3 4 i B+j.[ <.N N N N ",
"          F+{+e $.z 0 +.$.(+~+8+P.N N o+<.N N N   ",
"            A o e+D w+L.` A.,.e.B :.N N i+N N N   ",
"              ^.n 4+X.y G+^ w U.7+6.<.N N N N N   ",
"              A _ 4+X.c+G V.T.].n+r+A+i+N N N N   ",
"                ~ d T r.# =.@+F.m+).Y.^+N N N N   ",
"                ~.,+A.m I _._.H m+!.e.w <.N N     ",
"                G+j Y e *.!++ ' Y.q+g @.9.N N     ",
"                N x B 1 d.k.;.@+%.#+9 $+m N N     ",
"            N N N : ] x.s+N N i+6.! _+| (+*+N     ",
"      N N N N N N N N s.N N N N [.@.t.5 v+9.      ",
"N N N N N N N N N N N N N N N N } J &.c g.*+      ",
"N N N N N N N N N N N N N N N N ;+x+W z+g.9.      ",
"N N N N N N N *+o+o+> = 0+N N N E q 5.W ,.a       ",
"  N N N N N i+N j.f+# D+# N N N < 6.q+ +6.        ",
"  N N N N N 0+3+2.* 6+]+j.N i+i+t 6.5 z+6.        ",
"  N N N N *+[ + v Q : N * N N : X 6./+z+A+        ",
"    N N N > N D+=.B+N = -+*+<.0+X 6./+z+e         ",
"    N N N [ i+%+v = Q !++ D+l+C.1.g+t.!.A+        ",
"    N N N 0+N 1+_.!+_.E+Q N.J.i.x g+z+@.Q.        ",
"    N N N o+N 3+2+6 ..N N : C+D+&+$.F q .+        ",
"      N N 0+N N l l > N N N ..) ^+9 F ^+          ",
"      N N N o+N {.N N N N N l+R e t.M.R.          ",
"      N N N N N N N o+a <.o+u.%.g+z+w+7           ",
"        N N N <.C.l + 1+G., ++R.g m+L.<+          ",
"        N N N i+0+k.H.H.U k 8 ! n+c.s+<.          ",
"        N N N N N N : i.% B.! 8.n.K N N N         ",
"        N N N N 0+l+<.[ t h+m+/ z.N N N N         ",
"          N N N N N i+j.y n+/ R.s+N N N N         ",
"          N N N N N *+u =+M.L.x N N N N N         ",
"          N N N N <.9.=+).f 3.N N N N N           ",
"          N N N N N d+C m y+N N N N N             ",
"          N N N N O :+f x N N N N N N             ",
"        N N N N V [.L.3.N N N N N o+N             ",
"        N <.j.)+>+[.s+N N N N N N N s.            ",
"        N /.b.++y+N N o+*+N N N N N N             ",
"        f.L F+M N N N ..l+N N i+N N N {           ",
"        N N N N N N f+( !+N N N N N N B+          ",
"        N N N N N [ r 6+0.N N N N N N j.          ",
"        N N N N N s.S H.v G N N N N N B+          ",
"        N N N N N %+S I.V.]+N N N N N >           ",
"      N N N N N 0+k++ ;.k+S N N N N N 0+N         ",
"      N N N N N -+* 2.N %+0.B+*+i+N N 0+N         ",
"      N N N N N (.H.f+<.(.J._.# j.N 3+0+N         ",
"      N N N N s.- * ]+l _.J.h.I.B+N N N N         ",
"      N N N N k.* ( =.=.D+l U i+N *+N N N         ",
"      N N N N 0+2.Q l+j.N % J.f+*+<.N N N N       ",
"      N N N N N <.N N N N {.b 3+N N N N N N       ",
"    N N N N N N N N N N N *+: [ N N N N N N       ",
"    N N N N N N N N N N N N N N N N N N           ",
"    N N N N N N N N N N N N N N N N N             ",
"    N N N N N N N N N N N N N N N N               ",
"      N N N N N N N N N N N N                     ",
"                                                  "};
