/* XPM */
static char * Info_trans_50_xpm[] = {
"50 32 149 2",
"  	c None",
". 	c #FEF4DB",
"+ 	c #DCD3BE",
"@ 	c #9C9586",
"# 	c #F5EBD3",
"$ 	c #CBC3AF",
"% 	c #69645A",
"& 	c #7E796C",
"* 	c #B2AB99",
"= 	c #E5DCC6",
"- 	c #757166",
"; 	c #F7EDD5",
"> 	c #726D62",
", 	c #706B60",
"' 	c #686359",
") 	c #2E2B27",
"! 	c #EDE4CC",
"~ 	c #37352F",
"{ 	c #6F6B60",
"] 	c #EDE4CD",
"^ 	c #A19B8B",
"/ 	c #FCF2D9",
"( 	c #FDF3DA",
"_ 	c #A9A292",
": 	c #D6CDB8",
"< 	c #FBF2D9",
"[ 	c #C0B9A6",
"} 	c #8A8577",
"| 	c #615D54",
"1 	c #EBE2CB",
"2 	c #979182",
"3 	c #9F998A",
"4 	c #928C7E",
"5 	c #9C9687",
"6 	c #205360",
"7 	c #DDD5BF",
"8 	c #6D685D",
"9 	c #338195",
"0 	c #63E0F1",
"a 	c #81CCD5",
"b 	c #D4CCB7",
"c 	c #F8EFD6",
"d 	c #D5CDB7",
"e 	c #D1C8B4",
"f 	c #1C4752",
"g 	c #52CFDD",
"h 	c #95FFFF",
"i 	c #E1FFFF",
"j 	c #61A5A8",
"k 	c #F2E9D1",
"l 	c #E6DDC7",
"m 	c #ECE3CC",
"n 	c #000000",
"o 	c #183D47",
"p 	c #5AD9E3",
"q 	c #96FFFF",
"r 	c #C6FFFF",
"s 	c #65E3EE",
"t 	c #A7A190",
"u 	c #908A7D",
"v 	c #BFB8A5",
"w 	c #F7EED5",
"x 	c #09181B",
"y 	c #09181C",
"z 	c #0C1F23",
"A 	c #46B3C7",
"B 	c #60EFFC",
"C 	c #67F9FF",
"D 	c #5AE9FA",
"E 	c #918B7D",
"F 	c #958F80",
"G 	c #D9D0BB",
"H 	c #FAF0D7",
"I 	c #194049",
"J 	c #48B9C7",
"K 	c #4EC3D4",
"L 	c #266170",
"M 	c #388EA4",
"N 	c #56DCF5",
"O 	c #5CECFC",
"P 	c #4DC6E2",
"Q 	c #E1D8C2",
"R 	c #43ADC2",
"S 	c #76F6FE",
"T 	c #8BFCFF",
"U 	c #4AB8CE",
"V 	c #3C9AB1",
"W 	c #4BC2DF",
"X 	c #348498",
"Y 	c #C4BCA9",
"Z 	c #010304",
"` 	c #53D4EC",
" .	c #A2FBFE",
"..	c #E3FFFF",
"+.	c #76E9F1",
"@.	c #2A6C7A",
"#.	c #205461",
"$.	c #E9E0C9",
"%.	c #49BCD2",
"&.	c #72F4FD",
"*.	c #B6FFFF",
"=.	c #82FDFF",
"-.	c #42A1AB",
";.	c #F6ECD4",
">.	c #D8CFBA",
",.	c #2B6D7E",
"'.	c #57DFF6",
").	c #63EEFA",
"!.	c #65F5FE",
"~.	c #46A8B2",
"{.	c #EFE5CE",
"].	c #858073",
"^.	c #B1AA98",
"/.	c #847F72",
"(.	c #E0D7C1",
"_.	c #44AFCA",
":.	c #52D2F2",
"<.	c #53D5EF",
"[.	c #307B8D",
"}.	c #ACA594",
"|.	c #AFA897",
"1.	c #B3AC9A",
"2.	c #A8A291",
"3.	c #163B44",
"4.	c #368BA1",
"5.	c #276372",
"6.	c #B4AD9B",
"7.	c #A7A090",
"8.	c #ACA595",
"9.	c #F4EAD2",
"0.	c #928D7E",
"a.	c #938D7F",
"b.	c #E8DFC8",
"c.	c #C0B8A6",
"d.	c #CEC6B2",
"e.	c #CFC6B2",
"f.	c #8C8678",
"g.	c #534F47",
"h.	c #736E63",
"i.	c #878174",
"j.	c #CDC4B0",
"k.	c #58544B",
"l.	c #A49E8D",
"m.	c #F0E6CF",
"n.	c #B9B19F",
"o.	c #35322D",
"p.	c #C0B8A5",
"q.	c #BFB7A5",
"r.	c #403D37",
"                                                                                                    ",
"                                                                                                    ",
"                                                              . . . . . . . . . . . . . . + @       ",
"                                                            . . . . . . # $ . . . . . . # % & *     ",
"                                                            . . . . . . = - . . . . . . ; > , ' )   ",
"                                                            . . . . . . = - . . . . . . . ! ~ {     ",
"                                                            . . . . . . = - . . . . . . . .         ",
"                                                            . . . . . . ] ^ . . . . . . . .         ",
"                                                            . . . . . / . . ( . . . . . . .         ",
"                                                            . . . . . _ : < [ . . . . . . .         ",
"                                                            . . . . . } | 1 2 . . . . . . .         ",
"                                                            . . . . . 3 4 5 2 . . . . . . .         ",
"                                      6                     . . . . . 3 7 8 2 . . . . . . .         ",
"                                    9 0 a                   . . . . . b c d e . . . . . . .         ",
"                                  f g h i j                 . . . . . . k l m / . . . . . .         ",
"                            n n n o p q r s                 . . . . . . t u v w . . . . . .         ",
"                        n x y   n z A B C D                 . . . . . . E F G . . . . ( H H         ",
"                    n n I J K L     M N O P                 . . . . . . 4 3 Q . . . . . . .         ",
"                  n n   R S T U       V W X                 . . . . . . 2 Y . . . . . . . .         ",
"                n n n Z `  ...+.@.      #.                  . . . . . . $.k . . . . . . . .         ",
"            n n n n n n %.&.*.=.-.                          . . . . . . ;.>.# . . . . . . .         ",
"        n n n n n       ,.'.).!.~.                          . . . . . {.].^./.(.. . . . . .         ",
"    n n n n               _.:.<.[.                          . . . . . }.|.. 1.2.. . . . . .         ",
"  n n                     3.4.5.                            . . . . . 6.7.. |.8.. . . . . .         ",
"  n n                                                       . . . . . 9.0.E a.b.. . . . . .         ",
"    n                                                       c.d.d.d.d.d.d.d.d.d.d.d.d.d.d.d.        ",
"    n n                                                 . # (.Q Q Q Q Q Q Q Q Q Q e.f.g.h.i.        ",
"                                                      . . . . . . . . . . . . . . j.e.i.k.l.        ",
"                                                      ;.;.;.;.;.;.;.;.;.;.;.;.;.;.m.n.4 o.          ",
"                                                      p.q.q.q.q.q.q.q.q.q.q.q.q.q.q./.r.r.          ",
"                                                                                                    ",
"                                                                                                    "};
