/* XPM */
static char * Job_trans_50_xpm[] = {
"50 32 256 2",
"  	c None",
". 	c #020202",
"+ 	c #3A6626",
"@ 	c #915003",
"# 	c #928606",
"$ 	c #1A9E1A",
"% 	c #AA0202",
"& 	c #7B871A",
"* 	c #76AA36",
"= 	c #A8A824",
"- 	c #720202",
"; 	c #0E46A6",
"> 	c #7AD64E",
", 	c #128E3A",
"' 	c #E6C212",
") 	c #28CAAA",
"! 	c #9CB050",
"~ 	c #DA5246",
"{ 	c #36B602",
"] 	c #56820A",
"^ 	c #A5A67F",
"/ 	c #ECD736",
"( 	c #343434",
"_ 	c #726256",
": 	c #D6820A",
"< 	c #7EDA4E",
"[ 	c #C2B62E",
"} 	c #BC8A54",
"| 	c #6E0A62",
"1 	c #C99E13",
"2 	c #42762A",
"3 	c #29DC04",
"4 	c #2B2825",
"5 	c #B6BA3E",
"6 	c #A25E0A",
"7 	c #4A5EB6",
"8 	c #9AD292",
"9 	c #C62E36",
"0 	c #36BE12",
"a 	c #E2C232",
"b 	c #702080",
"c 	c #829636",
"d 	c #767E1A",
"e 	c #D69A0A",
"f 	c #B6CAA2",
"g 	c #EEE23E",
"h 	c #264AC2",
"i 	c #5AA242",
"j 	c #232221",
"k 	c #645C02",
"l 	c #AF7A57",
"m 	c #29C904",
"n 	c #8E826E",
"o 	c #745C35",
"p 	c #A6CEA6",
"q 	c #555454",
"r 	c #0A32D2",
"s 	c #26BA96",
"t 	c #51A105",
"u 	c #7E1E02",
"v 	c #E2AB11",
"w 	c #D4D0A1",
"x 	c #389452",
"y 	c #404040",
"z 	c #CAA21A",
"A 	c #487026",
"B 	c #AAB67A",
"C 	c #AE1A06",
"D 	c #66B69A",
"E 	c #FA9E26",
"F 	c #C5C29A",
"G 	c #D7BA9D",
"H 	c #F2E242",
"I 	c #1F1D17",
"J 	c #865EA2",
"K 	c #C6AE42",
"L 	c #9A622A",
"M 	c #D7D6AA",
"N 	c #C6A23E",
"O 	c #58A60A",
"P 	c #FEE612",
"Q 	c #826A48",
"R 	c #7E8AA8",
"S 	c #929E72",
"T 	c #725E06",
"U 	c #2E2A8E",
"V 	c #E6AC10",
"W 	c #91BD9F",
"X 	c #428E0E",
"Y 	c #1FB903",
"Z 	c #DA7C0C",
"` 	c #62320E",
" .	c #DE0602",
"..	c #BAB78E",
"+.	c #5E4A2B",
"@.	c #B68E12",
"#.	c #73BF44",
"$.	c #6A8682",
"%.	c #5E4E2A",
"&.	c #E89309",
"*.	c #6DC245",
"=.	c #EEB61E",
"-.	c #8A3602",
";.	c #7A4A9A",
">.	c #C6925A",
",.	c #42B68E",
"'.	c #C3BE91",
").	c #FED610",
"!.	c #8B7353",
"~.	c #F9B80F",
"{.	c #C6AA92",
"].	c #634E2E",
"^.	c #A2621A",
"/.	c #9E8AAA",
"(.	c #92A202",
"_.	c #B2A486",
":.	c #86720A",
"<.	c #D69A90",
"[.	c #9E5806",
"}.	c #5A9E3A",
"|.	c #5CA23A",
"1.	c #6C9022",
"2.	c #DECA22",
"3.	c #FAB62A",
"4.	c #C6960A",
"5.	c #6E5C38",
"6.	c #E6CAAC",
"7.	c #EE5E5A",
"8.	c #96464A",
"9.	c #ECE8B2",
"0.	c #72C648",
"a.	c #100E0B",
"b.	c #BE920A",
"c.	c #CCB197",
"d.	c #D22412",
"e.	c #BE6E06",
"f.	c #2DAB2B",
"g.	c #CBD0AD",
"h.	c #FBA50F",
"i.	c #FCD216",
"j.	c #B28656",
"k.	c #A62A0A",
"l.	c #926222",
"m.	c #52DA26",
"n.	c #A2661E",
"o.	c #977908",
"p.	c #9A9276",
"q.	c #68B442",
"r.	c #CACACE",
"s.	c #B8AA07",
"t.	c #4ABA06",
"u.	c #52362E",
"v.	c #6A6A6A",
"w.	c #A6461E",
"x.	c #4F8533",
"y.	c #56462E",
"z.	c #917E67",
"A.	c #CDB89C",
"B.	c #E7E1AE",
"C.	c #DBC0A3",
"D.	c #E79C0A",
"E.	c #549236",
"F.	c #928E6E",
"G.	c #EED2B2",
"H.	c #62533E",
"I.	c #816741",
"J.	c #82AE5A",
"K.	c #9E764A",
"L.	c #EDAD0E",
"M.	c #E6A29E",
"N.	c #AA1636",
"O.	c #2E9E06",
"P.	c #B89D82",
"Q.	c #AA761A",
"R.	c #7A3676",
"S.	c #C9C79C",
"T.	c #60AD39",
"U.	c #797060",
"V.	c #760202",
"W.	c #F2C40C",
"X.	c #36BE9A",
"Y.	c #DEBA16",
"Z.	c #0A0A0A",
"`.	c #4A7A2F",
" +	c #DA8606",
".+	c #326A5E",
"++	c #8A7206",
"@+	c #7D9A62",
"#+	c #F6E63A",
"$+	c #66C6A3",
"%+	c #96769A",
"&+	c #FAAE0D",
"*+	c #3AB825",
"=+	c #9E9276",
"-+	c #864703",
";+	c #826E5E",
">+	c #6EA276",
",+	c #866E3E",
"'+	c #96A772",
")+	c #986656",
"!+	c #CC900A",
"~+	c #F8CC12",
"{+	c #494847",
"]+	c #BDA389",
"^+	c #685331",
"/+	c #BEB626",
"(+	c #40D0B0",
"_+	c #96B66A",
":+	c #528B35",
"<+	c #AA9A9A",
"[+	c #846703",
"}+	c #6E9E2E",
"|+	c #FCDA22",
"1+	c #5E7206",
"2+	c #62462E",
"3+	c #FECA1A",
"4+	c #DAB226",
"5+	c #75CE4A",
"6+	c #DDDBAC",
"7+	c #BEAA90",
"8+	c #C2160A",
"9+	c #BB0202",
"0+	c #5E862A",
"a+	c #A9773B",
"b+	c #1CA803",
"c+	c #D9940A",
"d+	c #9E7242",
"e+	c #564F47",
"f+	c #8A0202",
"g+	c #6BAE3A",
"h+	c #F6920E",
"i+	c #5F5D5A",
"j+	c #A18C72",
"k+	c #9B846B",
"l+	c #6E5632",
"m+	c #BA7E3E",
"n+	c #EE7E26",
"o+	c #6AC262",
"p+	c #BE2A12",
"q+	c #BE4A36",
"r+	c #E0C6A8",
"s+	c #AD957C",
"t+	c #567A33",
"u+	c #B6221E",
"v+	c #F69E0A",
"w+	c #AE7A72",
"x+	c #B2B593",
"y+	c #423626",
"z+	c #D2CA9A",
"A+	c #2AE602",
"B+	c #526EB6",
"C+	c #589A38",
"D+	c #8A7866",
"E+	c #79623A",
"F+	c #FBC212",
"G+	c #4A864A",
"                6 @ -+@                           W.' Y.Y.                                          ",
"            G s+l.-+@ [.                        ~+F+~.~.' F+F+                                      ",
"          G {.s+K.K.j.m+                        L.&+&+~.F+~.F+).                                    ",
"  . 4 j+j+P.P.]+c.s+s+]+                        4.&.v+h.h.h.&+F+).P                                 ",
"  . I 5.U.^.^.j.c.r+C.A.                      L.e  + +Z Z Z h+&+F+F+~+                              ",
"  . . I   [.[.n.l c.6.C.                        L.D.&.&.Z : h+h.&+L.F+i.i.                A+        ",
"    .     >.} a+d+P.C.G.                        =.&+&+&+v+&.c+c+&.D.&+3+|+|+            m.3 3 3     ",
"          G 6.C.c.r+C.C.C.                        v 4+=.D.D.&.c+e v D.=./ #+g /       {.7+*.m m A+  ",
"        c.A.G c.G c.]+P.                            z z b.4.4.4.4.4.z 4+a 2.g g       7+{._+0 Y 3   ",
"        P.{.]+]+c.7+P.                                                                c.c.B *+Y m   ",
"        j+j+j+s+s+j+P.                                                                '+^ '+{ Y t.p+",
"        {.j+D+;+;+,+z.]+                                  z.A.A.              ,+I.    f.f.$   Y t d.",
"          P.k+z.k+D+Q P.                                  j+C.A.            P.,+    i x T.X O.m t 8+",
"          P.j+D+k+,+E+P.6.                              U._.'._.          G <.~     _+J.)+w.# m   8+",
"          s+z.D+!.o o j+C.                              n A.z+F             M.7.n+2.K j.b N.o.{   d.",
"        k+k+n k+I.^+].!.]+6.                      B.9.'.=+c.<+7+A.            <.l )+R.b | u+@.O     ",
"        o !.Q o l+].^+y+U.c.c.                  B.9.B.'.F _.v.F.'.6+6+            ;.J %+8.C k.      ",
"        H.l+o 5.+.H.+.  _ c._ Z..               B.B.w '.w F p.'.z+M 6+6+            r.W :+k u.U     ",
"        o o o ^+^+^++.        a.` Q.3.E       g.6+z+z+w M S.z+w w w 6+6+          g.8 *+b+$ .+7     ",
"        o o l+^+l+].].        4 2+K.a+L       w w F w w B.F 6+w z+F S.M           o+*+Y b+O c <+A.  ",
"        o l++.l+l+y.+.          {+_ i+{+      6+w F S.z+6+'.g.g.z+F x+F             , f.O (.s.]+C.  ",
"        o l+^+l+^+y.+.          {+q q y       M M 6+M w w ..W $+f '.F S.F           ; $.= s.        ",
"        o l+^+^+].+.^+            y y         g.6+6+6+M r+x+(+(+p M 6+S.S.          r $.= s.        ",
"        l+^+^+].].l+o             y y+          S.M M F ^ $+) $+g.6+S.F             h R [ s.        ",
"        l+^+^+y.+.].^+          ( ( ( (         '+..'.^ $+) X.W S.F '.x+          5 B+/.N           ",
"        l+l+].^+l+^+            a.Z.Z.Z.    0.> *.J.@+@+,.s >+^ S S @+C+T.        [ w+9 q+          ",
"          +.%.%.H.H.            . . . .     0.< > 5+T.x.G+G+`.t+`.E.C+g+5+*.        1.1+]           ",
"          I {+q j i+          . . . . .     E.T.0.5+> *.C+G+2 `.:+|.q.5+*.C+        b+b+O.          ",
"          Z.y q I v.          . . . . .     x.:+|.q.#.0.0.q.C+E.i *.0.q.E.x.        T -.-.u         ",
"          Z.( q 4 i+          . . . . .     2 2 x.d & }+*.5+*.q.g+* }+0+`.             .% -         ",
"          . I {+y {+U.        . . . . .       + A [+o.:.& T.0.q.& o.o.++        e.8+9+9+% V.        ",
"          . Z.j j j 4 4         . . . .           [+[+[+T t+C+1.:.[+[+[+          f+f+f+            "};
