/* XPM */
static char * KiDo_trans_50_xpm[] = {
"50 32 109 2",
"  	c None",
". 	c #090705",
"+ 	c #020101",
"@ 	c #0A0806",
"# 	c #5A4738",
"$ 	c #080605",
"% 	c #020201",
"& 	c #241C16",
"* 	c #745B47",
"= 	c #D0A380",
"- 	c #EBB892",
"; 	c #030202",
"> 	c #7D614D",
", 	c #E1B18B",
"' 	c #EDBA93",
") 	c #000000",
"! 	c #775E4A",
"~ 	c #DBAC88",
"{ 	c #EDBB94",
"] 	c #FFFFFF",
"^ 	c #FEFDFC",
"/ 	c #F5DAC6",
"( 	c #EDBB95",
"_ 	c #0E0C0C",
": 	c #79604D",
"< 	c #D9AB87",
"[ 	c #EEC09C",
"} 	c #F5D9C4",
"| 	c #FFFEFE",
"1 	c #FAEDE3",
"2 	c #F0C5A4",
"3 	c #EDBA94",
"4 	c #070707",
"5 	c #5A5959",
"6 	c #D7C9C0",
"7 	c #F3DCCB",
"8 	c #FAEFE6",
"9 	c #FEFDFB",
"0 	c #F8E6D8",
"a 	c #EEBF9C",
"b 	c #E7E7E7",
"c 	c #FEFEFE",
"d 	c #FDFDFD",
"e 	c #DFDFDF",
"f 	c #BBBBBB",
"g 	c #FDFAF8",
"h 	c #F4D4BD",
"i 	c #F8F8F8",
"j 	c #929292",
"k 	c #545454",
"l 	c #FCF3EC",
"m 	c #EFC4A3",
"n 	c #FCFCFC",
"o 	c #F9F9F9",
"p 	c #EBEBEB",
"q 	c #6E6E6E",
"r 	c #232323",
"s 	c #8B8B8B",
"t 	c #FBEFE6",
"u 	c #EEBF9B",
"v 	c #FBFBFB",
"w 	c #FAFAFA",
"x 	c #E0E0E0",
"y 	c #898989",
"z 	c #202020",
"A 	c #0C0C0C",
"B 	c #9D9D9D",
"C 	c #FBF2EB",
"D 	c #EFC3A1",
"E 	c #F2F2F2",
"F 	c #F0F0F0",
"G 	c #CFCFCF",
"H 	c #707070",
"I 	c #191919",
"J 	c #C3C3C3",
"K 	c #FEFCFA",
"L 	c #F7E3D3",
"M 	c #EFC2A1",
"N 	c #A0A0A0",
"O 	c #595959",
"P 	c #272727",
"Q 	c #161616",
"R 	c #343434",
"S 	c #1D1D1D",
"T 	c #464646",
"U 	c #5E5E5E",
"V 	c #363636",
"W 	c #393939",
"X 	c #686868",
"Y 	c #9C9C9C",
"Z 	c #3A3A3A",
"` 	c #6B6B6B",
" .	c #F1F1F1",
"..	c #D1D1D1",
"+.	c #CACACA",
"@.	c #DCDCDC",
"#.	c #EAEAEA",
"$.	c #AFAFAF",
"%.	c #C8C8C8",
"&.	c #F6F6F6",
"*.	c #FBF2EA",
"=.	c #FAEEE4",
"-.	c #FCF5EF",
";.	c #FEFBF9",
">.	c #F1CAAC",
",.	c #EEC19E",
"'.	c #EEBE9A",
").	c #EEC09D",
"!.	c #F2CDB1",
"        . + @ #                                                                                     ",
"      $ % & * = -                                                                                   ",
"      % ; > , ' '                 ' ' ' '                                                           ",
"      ) $ ! ~ ' {         ] ] ^ / ( ' ' '                               )         )   )             ",
"      ) _ : < [ }   ] ] ] ] ] | 1 2 3 ' '                               )   ) ) ) ) ) ) )           ",
"      4 5 6 7 8 9 ] ] ] ] ] ] ] ^ 0 a '                               )           ) )               ",
"        b ^ ^ ] ] ] ] ] ] ] ] ] ] ^                                 ) ) ) )     )   ) )             ",
"      c ] ] ] ] ] ] ] ] ] ] ] ] ] ]                                     )   ) ) ) ) ) ) ) )         ",
"      ] c ] ] ] ] ] ] ] ] ] ] ] ] ]                                           ) )     ) )           ",
"    ] ] c ] ] ] ] ] ] ] ] ] ] ] ] ]         ' '                     ) ) ) )   ) ) )   ) )           ",
"  ] ] ] c c ] ] ] ] d                       3 ' '                     )       )   )   ) )           ",
"  ] ] ] ] c ] ] ] d e f           ] ] ] g h ( ' '                             )   )   ) )           ",
"] ] ] ] c d ] ] ] i j k       ] ] ] ] ] l m ' ' '                       ) )   ) ) )   ) )           ",
"  ] ] ] n o ] ] ] p q r s i ] ] ] ] ] ] t u ' ' '                   ) )               ) )           ",
"    ] ] v w ] d x y z A B o ] ] ] ] ] ] C D ' ' '                                     )             ",
"          E F G H I A z J n ] ] ] ] ] ] K L M                                                       ",
"          N O P Q R S T b ] ] ] ] ] ] ] ] ]                                                         ",
"          U V W X Y Z `  .] ] ] ] ] ] ] ] ]                                                         ",
"          ..+.@. .#.$.%.v ] ] ] ] ] ] ] ] ]                                                         ",
"          d d c ] d &.o ] ] ] ] ] ] ] ] ] ]                           )           )   )             ",
"          ] ] ] ] ] ] ] ] ] ] ] ] ] ] ] ]                                   ) ) ) ) ) ) ) )         ",
"          ] ] ] ] ] ]                                                 ) ) )     ) ) ) ) )           ",
"          ] ] ] ] ] ]                                                   )       )       )           ",
"          ] ] ] ] ] ] ]                                               )         ) ) ) ) )           ",
"          ] ] ] ] ] ] ]                                                         ) ) ) ) )           ",
"          ] ] ] ] ] ] ]                                               )         ) ) ) ) )           ",
"          ] ] ] ] ] ] ]                                                 )       ) ) ) ) )           ",
"          ] ] ] ] ] ] ]                                                 )       )       )           ",
"          | | ] ] ] ] ]                                               )   )     )                   ",
"          *.=.C *.-.;.]                                                     ) ) ) ) ) ) ) )         ",
"          >.D ,.'.).!.                                                                              ",
"          ' ' ' ' ' '                                                                               "};
