/* XPM */
static char * KiDo_trans_26_xpm[] = {
"41 26 85 1",
" 	c None",
".	c #0A0705",
"+	c #030201",
"@	c #1E1812",
"#	c #020101",
"$	c #443529",
"%	c #BC9374",
"&	c #E9B790",
"*	c #010100",
"=	c #040303",
"-	c #7D624D",
";	c #E6B48E",
">	c #EDBA93",
",	c #000000",
"'	c #080706",
")	c #705847",
"!	c #E0B08B",
"~	c #EFC3A2",
"{	c #FFFFFF",
"]	c #F9EBDF",
"^	c #EEBF9B",
"/	c #010101",
"(	c #474746",
"_	c #D3C6BC",
":	c #F5E1D1",
"<	c #FCF5F0",
"[	c #FEFDFB",
"}	c #F6DECC",
"|	c #EDBB95",
"1	c #EBEBEB",
"2	c #FEFEFD",
"3	c #FFFEFE",
"4	c #FEFEFE",
"5	c #FDFDFD",
"6	c #EDBB94",
"7	c #D8D8D8",
"8	c #A2A2A2",
"9	c #FEFDFC",
"0	c #F5D9C3",
"a	c #FCFCFC",
"b	c #FBFBFB",
"c	c #9B9B9B",
"d	c #434343",
"e	c #FEFAF7",
"f	c #F0C8A9",
"g	c #F9F9F9",
"h	c #D4D4D4",
"i	c #4D4D4D",
"j	c #181818",
"k	c #BABABA",
"l	c #FDFAF7",
"m	c #F0C6A6",
"n	c #F4F4F4",
"o	c #EFEFEF",
"p	c #B6B6B6",
"q	c #3A3A3A",
"r	c #0D0D0D",
"s	c #313131",
"t	c #D9D9D9",
"u	c #FFFEFD",
"v	c #F8E4D5",
"w	c #EEC09D",
"x	c #909090",
"y	c #424242",
"z	c #1A1A1A",
"A	c #2E2E2E",
"B	c #272727",
"C	c #5D5D5D",
"D	c #F3F3F3",
"E	c #666666",
"F	c #878787",
"G	c #C1C1C1",
"H	c #6B6B6B",
"I	c #969696",
"J	c #FAFAFA",
"K	c #F5F5F5",
"L	c #E7E7E7",
"M	c #FEFCFA",
"N	c #FEFBF9",
"O	c #FFFDFC",
"P	c #F4D8C1",
"Q	c #F3D1B7",
"R	c #F2CFB5",
"S	c #F2D0B6",
"T	c #F6DFCD",
"   .+@                                   ",
"   #$%&                                  ",
"  *=-;>       >>>                        ",
"  ,')!~   {{{]^>>               ,,,,,    ",
"  /(_:<{{{{{{[}|                  ,      ",
"   123{{{{{{{{              ,,, ,  ,,    ",
"   {{{{{{{{{{{{                 ,, ,,    ",
"  {4{{{{{{{{{{               ,  ,,       ",
" {{44{{{5         6>        ,,           ",
" {{{4{{478    {{906>>           ,        ",
"{{{4a{{bcd  {{{{ef>>>       ,,  ,        ",
" {{ag{ahijk{{{{{lm>>                     ",
"    nopqrst{{{{{uvw                      ",
"    xyzABCD{{{{{{{                       ",
"     EFGHIJ{{{{{{{                       ",
"    KDbbLo4{{{{{{{                       ",
"    {{{{{{{{{  {{               ,,,,,    ",
"     {{{{                     ,  ,,,,    ",
"     {{{{                        ,  ,    ",
"     {{{{                        ,  ,    ",
"     {{{{{                       ,,,,    ",
"    {{{{{{                   ,   ,,,,    ",
"    {{{{{{                               ",
"    MN9O3{                     ,,,,,,    ",
"    PQRST                                ",
"     >>>>                                "};
