/* XPM */
static char * Kurai_50_xpm[] = {
"35 50 256 2",
"  	c None",
". 	c #3F363A",
"+ 	c #FABD7E",
"@ 	c #963D2F",
"# 	c #90695F",
"$ 	c #F86839",
"% 	c #766B73",
"& 	c #978691",
"* 	c #B24937",
"= 	c #DCD5DC",
"- 	c #763C32",
"; 	c #D68A6B",
"> 	c #DB6D4E",
", 	c #FA9C62",
"' 	c #645B6B",
") 	c #BE4A30",
"! 	c #B5ADB5",
"~ 	c #BE8A74",
"{ 	c #643431",
"] 	c #BE6E56",
"^ 	c #ECE8EB",
"/ 	c #DA4226",
"( 	c #FA763F",
"_ 	c #5B5058",
": 	c #C6BEC6",
"< 	c #A29AA7",
"[ 	c #B56649",
"} 	c #E3AC80",
"| 	c #5E3230",
"1 	c #D6603A",
"2 	c #B0867C",
"3 	c #8E7296",
"4 	c #F9BF87",
"5 	c #544A56",
"6 	c #E24B2E",
"7 	c #7C504B",
"8 	c #F9F2F6",
"9 	c #F9844A",
"0 	c #7D76A3",
"a 	c #928BD1",
"b 	c #563232",
"c 	c #C88984",
"d 	c #E25A3D",
"e 	c #68403D",
"f 	c #50464F",
"g 	c #F2C8D1",
"h 	c #FAB377",
"i 	c #DDA67F",
"j 	c #867B86",
"k 	c #A2888C",
"l 	c #776570",
"m 	c #90756C",
"n 	c #994739",
"o 	c #E6BAA6",
"p 	c #50383A",
"q 	c #C8928F",
"r 	c #EE824E",
"s 	c #F0D2E0",
"t 	c #F9965B",
"u 	c #9F745E",
"v 	c #DEB68E",
"w 	c #EA563E",
"x 	c #A09099",
"y 	c #DE8985",
"z 	c #E9472C",
"A 	c #736A8E",
"B 	c #684849",
"C 	c #BA6A46",
"D 	c #413A3E",
"E 	c #AC9FCD",
"F 	c #B28698",
"G 	c #FA8A4D",
"H 	c #C87C7C",
"I 	c #C5ACB8",
"J 	c #E26143",
"K 	c #D4CDD2",
"L 	c #FBF6F9",
"M 	c #FAAE6F",
"N 	c #C1A3B0",
"O 	c #8E554A",
"P 	c #D97651",
"Q 	c #5A3636",
"R 	c #D24E36",
"S 	c #F14B2A",
"T 	c #EACEB2",
"U 	c #6B6283",
"V 	c #BE7D61",
"W 	c #FAA46A",
"X 	c #A25E4A",
"Y 	c #B47E79",
"Z 	c #BA9A92",
"` 	c #7D574C",
" .	c #856A63",
"..	c #A494B5",
"+.	c #D99D6D",
"@.	c #645564",
"#.	c #A27678",
"$.	c #F2B6BE",
"%.	c #EA6245",
"&.	c #C4B4D3",
"*.	c #F2928A",
"=.	c #4A3D44",
"-.	c #DABAA2",
";.	c #E6E0E7",
">.	c #F9522B",
",.	c #C59A85",
"'.	c #E65A36",
").	c #A06C5F",
"!.	c #DE462A",
"~.	c #D6B29A",
"{.	c #BA7852",
"].	c #F9E6F4",
"^.	c #DE8A56",
"/.	c #826A8A",
"(.	c #9682AB",
"_.	c #FEFDFD",
":.	c #96624A",
"<.	c #9A92A0",
"[.	c #5A3A3A",
"}.	c #EDDFE8",
"|.	c #E49E90",
"1.	c #655054",
"2.	c #A88286",
"3.	c #AE8A8E",
"4.	c #856463",
"5.	c #8A5B4E",
"6.	c #B5A6B3",
"7.	c #563636",
"8.	c #816D75",
"9.	c #F94926",
"0.	c #706672",
"a.	c #DEC2B6",
"b.	c #C4B6BA",
"c.	c #A796A1",
"d.	c #AEA6AD",
"e.	c #F29E8E",
"f.	c #F9723E",
"g.	c #968CAC",
"h.	c #E68B7B",
"i.	c #E86650",
"j.	c #CDC6CF",
"k.	c #A97F65",
"l.	c #4A3637",
"m.	c #D09C93",
"n.	c #CA7468",
"o.	c #D8BDD0",
"p.	c #725B5D",
"q.	c #A1899A",
"r.	c #BA8D7E",
"s.	c #5D4143",
"t.	c #86747A",
"u.	c #463A3E",
"v.	c #C65232",
"w.	c #DAAAB6",
"x.	c #B6A2AF",
"y.	c #DE4A2E",
"z.	c #F27E6E",
"A.	c #917F8D",
"B.	c #B2563E",
"C.	c #725148",
"D.	c #C99473",
"E.	c #EB7042",
"F.	c #AA724E",
"G.	c #AE9FBA",
"H.	c #785D5D",
"I.	c #563A3A",
"J.	c #F76037",
"K.	c #ED7E4F",
"L.	c #877D9D",
"M.	c #E2C3D8",
"N.	c #A68E82",
"O.	c #E86D56",
"P.	c #51424A",
"Q.	c #8A82C4",
"R.	c #C39D98",
"S.	c #F8EDF5",
"T.	c #FA9053",
"U.	c #F7DBEE",
"V.	c #D68256",
"W.	c #CA7A4F",
"X.	c #948AA2",
"Y.	c #EA5A36",
"Z.	c #584E62",
"`.	c #FAAA6F",
" +	c #FB4E28",
".+	c #8A5240",
"++	c #CC8B66",
"@+	c #D2B0A6",
"#+	c #8F757B",
"$+	c #9A5647",
"%+	c #C25E43",
"&+	c #46363A",
"*+	c #FA7C42",
"=+	c #E69393",
"-+	c #99828F",
";+	c #5B4951",
">+	c #AC9BA5",
",+	c #FA9E7A",
"'+	c #978B93",
")+	c #D95538",
"!+	c #BAAAD6",
"~+	c #F8E2F2",
"{+	c #B0959F",
"]+	c #E6CEE2",
"^+	c #A68E9A",
"/+	c #6F5E6B",
"(+	c #7C7289",
"_+	c #F29272",
":+	c #F27262",
"<+	c #873E33",
"[+	c #D2462A",
"}+	c #AA8883",
"|+	c #564448",
"1+	c #CB7E62",
"2+	c #ABA2AA",
"3+	c #B67B64",
"4+	c #A58079",
"5+	c #877589",
"6+	c #463E44",
"7+	c #6E5451",
"8+	c #B16049",
"9+	c #DFDBE0",
"0+	c #EFCDE6",
"a+	c #937C80",
"b+	c #926A7A",
"c+	c #D0BDD0",
"d+	c #B47159",
"e+	c #DE8275",
"f+	c #B49BA5",
"g+	c #A8929B",
"h+	c #92625F",
"i+	c #EA8676",
"j+	c #D9C6D5",
"k+	c #B59483",
"l+	c #5C5469",
"m+	c #CA664E",
"n+	c #865A50",
"o+	c #825C5E",
"p+	c #8A828D",
"q+	c #CB714E",
"r+	c #F9562F",
"s+	c #AB7763",
"t+	c #AA6C5C",
"u+	c #EA8E5D",
"v+	c #FE4A26",
"w+	c #867DAB",
"x+	c #4A4249",
"y+	c #DAB3C4",
"z+	c #925E4A",
"A+	c #F95A31",
"B+	c #CEA68E",
"C+	c #CE5D3F",
"D+	c #7A7277",
"E+	c #D69662",
"F+	c #F66E3E",
"G+	c #86667A",
"^+^+^+g+g+^+^+k 2 {+f+{+{+{+{+>+{+{+>+>+{+{+c.{+g+>+8.D /+q.q.^+5+g+a+",
"^+q.^+g+^+q.(.Q.q.{+f+f+f+{+f+Z Z R.R.Z g+>+c.c.g+f+% u. .^+g+g+a+g+8.",
"^+g+^+^+(.w+a a (.f+f+f+m.E+_+_+*.,+W W `.i B+Z c.f+8.&+t.^+c.g+j g+l ",
"q.g+g+g+a a Q.' 5+q q i+9 9 G t ,+,+W h h h 4 h B+Z  .u.t.g+x ^+-+g+l ",
"}+#.g+{+c.A U 0 b+e+( *+9 G T.t , W `.h + 4 4 4 } h m u.a+g+N.& A.^+;+",
"g+).{+..>+Q.0 U G+F+( *+9 9 G t , W `.M + 4 4 + i + ++ .k k & & 5+-+_ ",
"c.2.F ^+^+g.U 0 w+F+*+*+9 9 9 t , W `.h + + + + i + k.u.D.-+a+k #+a+@.",
"{+{+d+g+q.Y 3 a E P ( *+*+9 G T.T., `.M h + + + +.+ k.D F.k.N.-+& 5+@.",
"f+f+Y 3.3.i.n.a (.m+( *+9 9 G T.t , W `.`.M h h E+h s+D ` ++~ a+^+t.l ",
"f+x.{+Y n.A+J.(.0 H ( *+9 9 9 T.T., W W `.M `.M E+M s+&+` u+u+a+q.l /+",
"f+N N n.i.A+J.e+w+H f.f.9 9 9 9 G T., , , W W W ++W F.l.{.^.^.s+-+1.p.",
"N x.x.H J.A+A+O.E F $ $ %+K.9 G G T.T.T., u++., V.t F.&+{.{.V.W.k 5 /+",
"I N R.i.J >.>.i.E G+%..+k+,.G 9 9 9 G T.T.T.V ^.W.T.q+C.z+7 W.8+).P.l ",
"N I m.r+6 J.>.i.(+-+$+C.m k 3+*+9 9 T.T.T.G 9 $+[ G [ I..+[ ] X V ;+5+",
"I N q r+>.d r+n.& l C.z+v } } K.V.V D.i o 2 ,.k.2 {.:.I.q+P *+8+P 1.-+",
"I I y r+>.'.>.H ....B z+B+~.-.k+,.+.+++.k+N.x 4+ .H.F.p P *+> %+E.s.-+",
"I N e+ +>.S %.y+o.M.4.).E+T m k+R.4+ .% 4.++r 9 q+a+~.|+E.*+F+B.J ;+A.",
"@+I i+v+9. +O.]+o.@+k p.` R.P.C.% k m+$ $ f.*+f.E.C E+D+1 F+F+v.C+B -+",
"y+y+y 9.9.9.i.y+4.).N.k+=.# k ).l P J.$ $ F+( F+( 1 %+x q+$ $ v.C+1.A.",
"o.o.=+z 9.v+M.u ` Y D.k.u r.F.[ %+J.J.J.J.$ $ $ $ )+C+|+,.$ J.) C+7+f+",
"M.M.y+z z J.~+7 $+1+m.4.:.8+2 c r+A+A+J.A+A+A+A+J.)+%.l.:.h.r+* n /+x.",
"M.M.o.i.z e.o.7 ] D.,.e ).n.r.c >.>.>.>.r+r+r+r+A+6 A+n n =+J.) $+#+g+",
"0+0+M.=+z U.x e %+h.k+e N.s+Z i+>.>.>.v+9. + + +>.[+ +{ | Y.y %+G+/.t.",
"0+s 0+g %.L 4.k.N.}+#+7+ .>+& z.9. +v+v+v+9.v+9.v+/ v+Q b 6 w {+/./+/+",
"s U.U.U.0+L a+@+M.j+7+p. .a+x O.E.A+9.9.9.v+9.9.9./ 9.| l.!.O.5+3 A.5+",
"U.U.U.U.8 _._.! |+j 1.;+5 o+r.} ~ i.9.9.9.9.9.9.9./ 9.| 7.R w.{+5 q.{+",
"U.~+~+~+8 _.8 k+1.c.# # & h+s+3+n.R w 9.9.v+9.9.9.!. +- l.q M.N Z.8.x.",
"].].S.].8 8 g )+:.c.k $+5.O t+,.F.i+1 9.v+9.9.9.v+S w @ I.N x.N Z.j % ",
"S.S.S.S.S.8 S.g 4.t.2+t+ .7 d+] # V >.9.v+ +9.z  +S )+c 8.G+% ' =./+<.",
"S.S.8 8 8 S.j.5.[.8.#.4+h+B t+t+{.4.P v+v+ + +S >.i.R.#+u.@.1.Z.P.t.x ",
"S.8 L L ~+-+'+t.e 7 O 8.o+p..+d+V q q S 9.9.y.d e.y+x.#+u.A.& x ' 5+c+",
"S.S.8 b. .j+_.t.B b+4.x % #+O B.V 2 q i.:+_+$.I g+j+>+A.l.{+j+G.(+6.j.",
"L ].& '+8 _._.8.s.7 # 5+;+B 7 X ; o N j+].].~+j+c+l f f . & }.G.5+M.b.",
"L b.: ^ _._._.% s.` u m 1.7 ` ).u l }+}.S.S.S.}.= = A.|+. A.b.G.X.< c.",
"_.L ;.K ^ _._.D+u.P.|+/.#.s+` s.;+O ~.L L L L ].K = ! & . j ^ ! g.9+&.",
"_.L ! ! 9+_._.D+=.;+/+8.2.I .+P.O R._._._._.8 ^ ^ = < = l+<.^ G.g._.2+",
"^ : j <.K 9+^ j 6+s.4.H.'+'+.+7 c 8 _._._._._.^ j.9+'+b.D % j.<.X.= < ",
"j.d.f j < : L j f ;+1.1./+|+C.8+}._._._._.L _.9+j.;.d.d.D ' ! (+0 G.L.",
"b.! ' ' d.j.K j.P.o+k+t.;+` >+3+s _._._._.;.^ j.< j.<.(+D P.@.Z.l+j (+",
"2+p+<.0.<.2+L _.8.:.~ k+B t.8 : a._.8 = 9+9+d.<.X.(+' l+. D l+_ U 0.A ",
"'+% '+<.'+^ _.L j.O d+,.1.'+_._.}+;.: p+D+(+0.l+l+' ' D . . x+5 l+U U ",
"' 0.'+0.d.K 8 L _.k * $+;+'+L ;.N.g+0 A f Z.Z.f Z.f f . . . D 6+6+6+5 ",
"D+l+f ' '+p+2+! j.&.B $+` 8.c+&.E g+L.' l+6+x+x+. D . . . . . . . . . ",
"f f f 0.% L.w+....!+q.<+O I &.E & d...l+f 6+D . . . . . . . D . . . . ",
"6+D 6+Z.l+U ' U p+!+&.C.` I & j U 0.: 6+6+D D . . . { l.b . . . . . D ",
"6+6+D 6+u.u.D x+5 (.6./.7+u f 6+6+x+: U 6+6+D D I.{ @ <+<+I.. . . . . ",
"6+D D D . D . D D =._ m B C.f f 6+6+% ! 6+D . . . | @ { - . . . . . D ",
"D 6+D D D D D D 6+D =.;+|+B _ 5 6+6+6+d.Z.D D . . l.p 7.. . . D . . . ",
"D D D D D D . . D u.6+x+1.n+_ 5 6+6+D Z.' D . . . . . . . . . D D . D ",
"=.=.6+u.u.D 6+6+u.6+=.I.|+p.p.;+6+6+6+6+6+D D D . . u.. . D . . . D D "};
