/* XPM */
static char * L_Schema_small_xpm[] = {
"80 40 405 2",
"  	c None",
". 	c #FFE8BC",
"+ 	c #A88E69",
"@ 	c #C8B69C",
"# 	c #BBA98F",
"$ 	c #BCAA90",
"% 	c #BFAC90",
"& 	c #C6B49A",
"* 	c #BDAB91",
"= 	c #C7B59B",
"- 	c #C4B399",
"; 	c #C3B198",
"> 	c #C7B69C",
", 	c #B49B77",
"' 	c #684F28",
") 	c #775A2E",
"! 	c #C5B296",
"~ 	c #C0AB8F",
"{ 	c #BEA98C",
"] 	c #B4B688",
"^ 	c #C4B699",
"/ 	c #8A6E45",
"( 	c #FFFFFF",
"_ 	c #979590",
": 	c #9A9A9A",
"< 	c #D3CCC1",
"[ 	c #E3E3E2",
"} 	c #E0E0E0",
"| 	c #E4E4E4",
"1 	c #E2E2E2",
"2 	c #E1E1E1",
"3 	c #EFEFEF",
"4 	c #F9F9F9",
"5 	c #DACCB7",
"6 	c #7A5C30",
"7 	c #FAF7F3",
"8 	c #CBB49B",
"9 	c #CFB99F",
"0 	c #C6BD73",
"a 	c #EAC7A8",
"b 	c #FFFEF0",
"c 	c #F4E651",
"d 	c #FFFCC7",
"e 	c #987F59",
"f 	c #9C9586",
"g 	c #888171",
"h 	c #D9D5CD",
"i 	c #D1CABF",
"j 	c #DEDDDB",
"k 	c #DCDAD4",
"l 	c #C0C0C0",
"m 	c #8F8E87",
"n 	c #CECECE",
"o 	c #EAEAEA",
"p 	c #DEDBD8",
"q 	c #BDAB97",
"r 	c #BDA68C",
"s 	c #BCBCBC",
"t 	c #E6945E",
"u 	c #E2915D",
"v 	c #F0E8FA",
"w 	c #E3E9ED",
"x 	c #E1E5DE",
"y 	c #F8E751",
"z 	c #DAE5C5",
"A 	c #E7E7E7",
"B 	c #9F9B91",
"C 	c #B6A88C",
"D 	c #DCD5C7",
"E 	c #D1CBBF",
"F 	c #DFDEDE",
"G 	c #C9C4AB",
"H 	c #999891",
"I 	c #918A6A",
"J 	c #BFBBA7",
"K 	c #D0CCB7",
"L 	c #EAE9E9",
"M 	c #EBEBEB",
"N 	c #B1AEAB",
"O 	c #816E59",
"P 	c #977A58",
"Q 	c #ABA298",
"R 	c #F1D5D2",
"S 	c #BDACA0",
"T 	c #ACA9AB",
"U 	c #E0DEEE",
"V 	c #E5EAEF",
"W 	c #9AB9A2",
"X 	c #BCB32B",
"Y 	c #899243",
"Z 	c #EDF5F1",
"` 	c #B0AA9D",
" .	c #8A7443",
"..	c #C9BEA5",
"+.	c #DFDFDE",
"@.	c #CDC9B5",
"#.	c #A39C7C",
"$.	c #7C744C",
"%.	c #A69C6E",
"&.	c #D9D8D1",
"*.	c #CCCCCC",
"=.	c #E9E9E9",
"-.	c #BBB8B5",
";.	c #6E5840",
">.	c #846038",
",.	c #F3EFEB",
"'.	c #BDB6C5",
").	c #9B9AAC",
"!.	c #C7D598",
"~.	c #EDECDE",
"{.	c #D9E9DE",
"].	c #568B48",
"^.	c #7FA06C",
"/.	c #E8ECE1",
"(.	c #AEA899",
"_.	c #A39B8A",
":.	c #EEEBE5",
"<.	c #CECBC0",
"[.	c #958B5B",
"}.	c #908657",
"|.	c #A69D76",
"1.	c #DBDBD8",
"2.	c #DEDEDE",
"3.	c #707070",
"4.	c #F5F3EF",
"5.	c #886D4D",
"6.	c #907657",
"7.	c #F3F1ED",
"8.	c #F3F1F5",
"9.	c #C4BDCF",
"0.	c #C0B8D1",
"a.	c #FEFDFC",
"b.	c #E6F0E9",
"c.	c #499A6D",
"d.	c #82BA9C",
"e.	c #FEFEFD",
"f.	c #A19D93",
"g.	c #CACACA",
"h.	c #D4CEC2",
"i.	c #F1F0F0",
"j.	c #ECEBEA",
"k.	c #CECAB8",
"l.	c #DAD7CC",
"m.	c #E2E1DE",
"n.	c #EEEEEE",
"o.	c #DBDBDB",
"p.	c #CBCBCB",
"q.	c #A2A2A2",
"r.	c #8E8E8E",
"s.	c #F9F6F2",
"t.	c #C2AF9A",
"u.	c #C5B39F",
"v.	c #F5F2EE",
"w.	c #C0D0A6",
"x.	c #AEC38D",
"y.	c #E4ECE8",
"z.	c #3F7558",
"A.	c #7AA08C",
"B.	c #7E6136",
"C.	c #85693E",
"D.	c #83663B",
"E.	c #84673D",
"F.	c #83663A",
"G.	c #85683E",
"H.	c #84673C",
"I.	c #85683D",
"J.	c #826539",
"K.	c #C3C3C3",
"L.	c #C9C9C9",
"M.	c #9C9C9C",
"N.	c #6F542B",
"O.	c #806134",
"P.	c #84673B",
"Q.	c #7D6435",
"R.	c #7B6233",
"S.	c #785B31",
"T.	c #7C6035",
"U.	c #75592F",
"V.	c #8F8F8F",
"W.	c #A7A7A7",
"X.	c #737373",
"Y.	c #82653A",
"Z.	c #7F6338",
"`.	c #795D32",
" +	c #75592E",
".+	c #7A5E33",
"++	c #B3B1AF",
"@+	c #7F7F7F",
"#+	c #999999",
"$+	c #909090",
"%+	c #BEBEBE",
"&+	c #A8A8A8",
"*+	c #A1A1A1",
"=+	c #969696",
"-+	c #AFAFAF",
";+	c #DCDCDC",
">+	c #6E6E6E",
",+	c #696969",
"'+	c #EAEAD2",
")+	c #B6AD97",
"!+	c #5F5B54",
"~+	c #B9B5AB",
"{+	c #C7C7C7",
"]+	c #F3F3F3",
"^+	c #B9B9B9",
"/+	c #8A8A8A",
"(+	c #D9D9D9",
"_+	c #8C8C8C",
":+	c #868686",
"<+	c #787878",
"[+	c #F7F9FB",
"}+	c #F2F3E9",
"|+	c #D9D8A1",
"1+	c #ECEDD9",
"2+	c #F4F7F9",
"3+	c #FBFCFD",
"4+	c #BAA88F",
"5+	c #9D937E",
"6+	c #B4ADA0",
"7+	c #C1B8A4",
"8+	c #9B9B9B",
"9+	c #B4B4B4",
"0+	c #B6B6B6",
"a+	c #C6B8A3",
"b+	c #DDDDDD",
"c+	c #DADADA",
"d+	c #D4D4D4",
"e+	c #656565",
"f+	c #818181",
"g+	c #D2D2D2",
"h+	c #F0F5F8",
"i+	c #BED0DE",
"j+	c #D5D5C3",
"k+	c #BCCAC9",
"l+	c #D4CFB7",
"m+	c #C7D4DA",
"n+	c #D4E0E9",
"o+	c #FEFEFF",
"p+	c #C1AF95",
"q+	c #ACA89B",
"r+	c #9D8F6E",
"s+	c #917B49",
"t+	c #C8C8C8",
"u+	c #FDFDFD",
"v+	c #F2F2F2",
"w+	c #D7D7D7",
"x+	c #D6D6D6",
"y+	c #8B7C67",
"z+	c #B2B2B2",
"A+	c #BBBBBB",
"B+	c #7B7B7B",
"C+	c #A6A6A6",
"D+	c #EBECE7",
"E+	c #CECAB2",
"F+	c #B8C7CB",
"G+	c #D0CCB3",
"H+	c #D7D6C7",
"I+	c #FCFCFC",
"J+	c #A79E88",
"K+	c #958A73",
"L+	c #AA976C",
"M+	c #A5A5A5",
"N+	c #919191",
"O+	c #C6C6C6",
"P+	c #838383",
"Q+	c #858585",
"R+	c #757575",
"S+	c #E7E4D5",
"T+	c #FBFBF9",
"U+	c #CBDDEC",
"V+	c #F1EFE7",
"W+	c #F0EEE4",
"X+	c #A49B85",
"Y+	c #A9A8A7",
"Z+	c #F3F1EE",
"`+	c #E3E3E3",
" @	c #BFBFBF",
".@	c #CFCFCF",
"+@	c #CCDDEC",
"@@	c #8D7859",
"#@	c #8E7C62",
"$@	c #B5A995",
"%@	c #C7B59C",
"&@	c #9E9E9E",
"*@	c #795C2F",
"=@	c #E8E8E8",
"-@	c #6D532A",
";@	c #71562C",
">@	c #D3D3D1",
",@	c #CCCECF",
"'@	c #D7C7AF",
")@	c #AEAEAE",
"!@	c #929292",
"~@	c #F4EFE8",
"{@	c #F9F7F3",
"]@	c #F9F6F3",
"^@	c #F0EDDC",
"/@	c #D8D59C",
"(@	c #D9D69E",
"_@	c #D9D5A4",
":@	c #E5E2CA",
"<@	c #977D57",
"[@	c #DDE1E3",
"}@	c #DDE3E7",
"|@	c #E7EBEF",
"1@	c #FDFDFE",
"2@	c #ECECEC",
"3@	c #FEFDFE",
"4@	c #F4EBFF",
"5@	c #ECD9FF",
"6@	c #DFD0D3",
"7@	c #CCC37B",
"8@	c #D3A059",
"9@	c #D0BD78",
"0@	c #EDEDE0",
"a@	c #FBF8F6",
"b@	c #FCFAF8",
"c@	c #D9C5B3",
"d@	c #E8DBCF",
"e@	c #FBFBFB",
"f@	c #F6F8F9",
"g@	c #F3F5F6",
"h@	c #F2F8FB",
"i@	c #EEF7FA",
"j@	c #F8F2FF",
"k@	c #E7D0FF",
"l@	c #EAD6FE",
"m@	c #DFC9EA",
"n@	c #CCBAA0",
"o@	c #D1A75F",
"p@	c #D5C582",
"q@	c #FCFCF7",
"r@	c #B79C7A",
"s@	c #BFA083",
"t@	c #BBB5AF",
"u@	c #A39A92",
"v@	c #D8C1AD",
"w@	c #FCFDFB",
"x@	c #F8EAEC",
"y@	c #F6F3C9",
"z@	c #D2D8F5",
"A@	c #FDFEFE",
"B@	c #DDEEF4",
"C@	c #DBEDF4",
"D@	c #D9CBB6",
"E@	c #F4EAFF",
"F@	c #E8D1FF",
"G@	c #F3EAFD",
"H@	c #D0BEDB",
"I@	c #B7A2A6",
"J@	c #C4A664",
"K@	c #D3C985",
"L@	c #D1B8A0",
"M@	c #B0ADAB",
"N@	c #A9A9A9",
"O@	c #BDAB9A",
"P@	c #E9E3D8",
"Q@	c #C4DBC5",
"R@	c #C3DDA1",
"S@	c #B2DBC4",
"T@	c #E4F1F6",
"U@	c #CFE7EF",
"V@	c #C4E2ED",
"W@	c #B7BAAC",
"X@	c #F9F4FF",
"Y@	c #E8D2FF",
"Z@	c #E8D3FF",
"`@	c #D8C1E2",
" #	c #B3A690",
".#	c #828153",
"+#	c #8A8965",
"@#	c #CACAC7",
"##	c #F8F8F8",
"$#	c #EADED3",
"%#	c #AE947C",
"&#	c #ADA8A3",
"*#	c #A88D74",
"=#	c #F5EFE9",
"-#	c #C1E5CC",
";#	c #9BD4AD",
">#	c #CAE8D2",
",#	c #F0ECF9",
"'#	c #D297DF",
")#	c #D0A0E0",
"!#	c #C8BAB0",
"~#	c #F7F0FF",
"{#	c #EFE0FC",
"]#	c #D5CAB6",
"^#	c #BFBD69",
"/#	c #BCBB61",
"(#	c #B1B069",
"_#	c #B9B9B4",
":#	c #D0BBA1",
"<#	c #BFA17D",
"[#	c #D5C3AB",
"}#	c #C9C4A9",
"|#	c #7DA56A",
"1#	c #C2AB89",
"2#	c #D5C6AB",
"3#	c #B5A657",
"4#	c #B3A351",
"5#	c #B1A24F",
"6#	c #AC9D60",
"7#	c #D8C9B2",
"8#	c #90744B",
"                                                                                                                                                                ",
"                                                                            . . .                                                                               ",
"    + @ # $ @ % & * = - ; > @ , '                                         . . . .                                             ) ! ~ { @ @ ] ^ @ @ @ @ @ @ /     ",
"    > ( _ : ( < [ } | 1 2 3 4 5 '                                         . . . . .                                           6 7 8 9 ( ( 0 a ( ( b c d ( e     ",
"    @ ( f g h i j k l m n } o 5 '                                         . . . . .                                           6 p q r s 4 t u v w x y z ( e     ",
"    @ A B C D E F G H I J K L 5 '     M                                   . . . .                                       M     6 N O P Q R S T U V W X Y Z e     ",
"    > ( `  ...E +.@.#.$.%.&.o 5 '     *.} =.                                . . .                                   =.} *.    6 -.;.>.,.'.).!.~.( {.].^./.e     ",
"    @ ( (._.:.i +.<.[.}.|.1.o 5 '           2.=.      3.                    . . .                       3.      =.2.          6 4.5.6.7.8.9.0.a.( b.c.d.e.e     ",
"    @ ( f.g.( h.i.j.k.l.m.2 n.5 '               o.=.p.q.r.                . . . . .                   r.q.p.=.o.              6 s.t.u.v.( w.x.( ( y.z.A.( e     ",
"    B.C.D.E.C.F.G.C.H.E.G.H.I.J.'                 K.L.=.M.            . . . . . . . . .               M.=.L.K.                N.I.O.O.P.C.Q.R.C.C.H.S.T.C.U.    ",
"                                                    V.W.X.          . . . . . . . . . . .             X.W.V.                                                    ",
"                                                                    . . . . . . . . . . .                                                                       ",
"                                                                  . . . . . . . . . . . . .                                                                     ",
"                                                                  . . . . . . . . . . . . .                                                                     ",
"                                                                . . . . . . . . . . . . . . .                                                                   ",
"    B.Y.Z.C.`. + +.+C.C.C.C.C.J.'                               . . . . . . . . . . . . . . .                                 N.I.C.C.C.C.C.C.C.C.C.C.C.C.U.    ",
"    @ ++@+#+$+%+&+*+=+-+;+( ( 5 '                     >+        . .   . . . . . . . . .   . .           ,+                    6 7 ( ( ( ( ( '+( ( ( ( ( ( e     ",
"    @ )+!+~+V.{+o.]+( ( ^+/+(+5 '                     _+:+      . .   . . . . . . . . .   . .         =+<+                    6 7 ( ( ( [+}+|+1+2+3+( ( ( e     ",
"    4+5+6+7+( 8+2.9+0+(+(+A :+a+'   b+b+b+b+b+b+b+b+c+d+p.e+    .     . . . . . . . . .     . .     f+b+g+b+b+b+b+b+b+b+b+    6 7 ( ( h+i+j+k+l+m+n+o+( ( e     ",
"    p+q+r+s+( -+t+u+v+o.;+w+x+y+'                     z+A+    .       . . . . . . . . .       .     B+n C+                    6 7 ( ( ( D+E+F+G+H+I+( ( ( e     ",
"    @ J+K+L+( ( M+N+-+z+3 O+-+5 '                     P+      .         . . . . . . .         .       Q+R+                    6 7 ( ( e.S+T+U+3+V+W+( ( ( e     ",
"    > X+Y+Z+( ( ( ( ( `+ @.@( 5 '                                       . . . . . . .                                         6 7 ( ( ( ( ( +@3+( ( ( ( ( e     ",
"    + @@#@> > > > > > > > > > , '                                       . . . . . . .                                         ) ! > > > > > $@%@> > > > > /     ",
"                                                                        . . . . . . .                                                                           ",
"                                                                        . . . . . . .                                                                           ",
"                                                                        . . .   . . . .                                                                         ",
"                                                                        . . .   . . . .                                                                         ",
"                                                    r.&@3.              . . .   . . . .               3.&@r.                                                    ",
"    ) 6 6 6 6 6 6 6 6 6 6 6 6 *@                    s =@#+              . . .   . . . .               #+=@s                   -@6 6 6 6 6 6 6 6 6 6 6 6 6 ;@    ",
"    ! 7 7 7 >@,@j.7 7 7 7 7 7 '@'               x+A d+)@!@              . . .   . . . .               !@)@d+A x+              6 ~@7 7 {@]@^@/@(@_@:@{@7 7 <@    ",
"    @ ( ( ( I+1 [@}@|@1@( ( ( 5 '           (+=@2@    X.                . . .   . . . .                 X.    2@=@(+          6 7 ( 3@4@5@6@7@8@9@0@( ( ( e     ",
"    = a@b@c@d@A g+e@f@g@( h@i@5 '     t+;+=@=.                          . . .   . . . .                           =.=@;+t+    6 7 ( j@k@l@m@n@o@p@q@( ( ( e     ",
"    r@s@t@u@v@w@x@y@z@( A@B@C@D@'   b+=.                                . . .   . . . .                                 =.b+  6 7 ( E@F@G@H@I@J@K@q@( ( ( e     ",
"    > L@M@N@O@P@Q@R@S@( T@U@V@W@'                                       . . .   . . . .                                       6 7 ( X@Y@Z@`@ #.#+#@###( ( e     ",
"    @ $#%#&#*#=#-#;#>#( ,#'#)#!#'                                       . . .     . .                                         6 7 ( 3@~#{#]#^#/#(#_#`+( ( e     ",
"    , 5 :#<#[#5 }#|#D@5 5 5 5 1#'                                       . . .     . .                                         *@'@5 5 5 2#3#4#5#6#7#5 5 5 8#    ",
"    ' ' ' ' ' ' ' ' ' ' ' ' ' '                                         . . .     . .                                           ' ' ' ' ' ' ' ' ' ' ' ' ' '     ",
"                                                                        . . .   . . .                                                                           ",
"                                                                                                                                                                ",
"                                                                                                                                                                "};
