/* XPM */
static char * Lang_Script_trans_50_xpm[] = {
"50 32 128 2",
"  	c None",
". 	c #BABABA",
"+ 	c #FFFFFF",
"@ 	c #9F9F9F",
"# 	c #979797",
"$ 	c #929292",
"% 	c #B1B0B0",
"& 	c #929191",
"* 	c #DCDCDC",
"= 	c #555555",
"- 	c #525252",
"; 	c #CCCCCC",
"> 	c #A1A0A0",
", 	c #9B9A9A",
"' 	c #CFCFCF",
") 	c #595959",
"! 	c #FBFBFB",
"~ 	c #959595",
"{ 	c #F5F5F5",
"] 	c #FCFCFC",
"^ 	c #C2C2C2",
"/ 	c #9E9E9E",
"( 	c #A8A7A7",
"_ 	c #5E5E5E",
": 	c #C3C3C3",
"< 	c #8D8D8D",
"[ 	c #CBCBCB",
"} 	c #C5C5C5",
"| 	c #000000",
"1 	c #D1D1D1",
"2 	c #B6B5B5",
"3 	c #9A9A9A",
"4 	c #D8D8D8",
"5 	c #E0E0E0",
"6 	c #F1F1F1",
"7 	c #F3F3F3",
"8 	c #F6F6F6",
"9 	c #F4F4F4",
"0 	c #B3B3B3",
"a 	c #BCBCBC",
"b 	c #D2D2D2",
"c 	c #A8A8A8",
"d 	c #A4A3A3",
"e 	c #DDDDDD",
"f 	c #FEFEFE",
"g 	c #F0F0F0",
"h 	c #858585",
"i 	c #EEEEEE",
"j 	c #646464",
"k 	c #E5E5E5",
"l 	c #999999",
"m 	c #EDEDED",
"n 	c #C7C6C6",
"o 	c #B2B1B1",
"p 	c #EFEFEF",
"q 	c #BFBFBF",
"r 	c #B7B7B7",
"s 	c #191919",
"t 	c #E3E3E3",
"u 	c #E1E1E1",
"v 	c #4E4E4E",
"w 	c #B9B9B9",
"x 	c #F8F8F8",
"y 	c #DFDFDF",
"z 	c #DBDBDB",
"A 	c #B4B3B3",
"B 	c #9C9B9B",
"C 	c #C9C9C9",
"D 	c #F9F9F9",
"E 	c #C6C6C6",
"F 	c #A5A5A5",
"G 	c #B4B4B4",
"H 	c #B8B8B8",
"I 	c #E9E9E9",
"J 	c #CDCDCD",
"K 	c #AFAEAE",
"L 	c #A3A3A3",
"M 	c #D4D3D3",
"N 	c #BDBDBD",
"O 	c #A0A0A0",
"P 	c #9C9C9C",
"Q 	c #909090",
"R 	c #757575",
"S 	c #777777",
"T 	c #F2F2F2",
"U 	c #EAEAEA",
"V 	c #AEAEAE",
"W 	c #EBEBEB",
"X 	c #838383",
"Y 	c #DADADA",
"Z 	c #282828",
"` 	c #FAFAFA",
" .	c #828282",
"..	c #717171",
"+.	c #868686",
"@.	c #C7C7C7",
"#.	c #FDFCFC",
"$.	c #E7E7E7",
"%.	c #676666",
"&.	c #6F6F6F",
"*.	c #F7F7F7",
"=.	c #FDFDFD",
"-.	c #D4D4D4",
";.	c #919191",
">.	c #8A8A8A",
",.	c #898989",
"'.	c #B0B0B0",
").	c #D6D6D6",
"!.	c #626262",
"~.	c #E6E6E6",
"{.	c #808080",
"].	c #676767",
"^.	c #A1A1A1",
"/.	c #C4C4C4",
"(.	c #ADADAD",
"_.	c #E2E2E2",
":.	c #A7A7A7",
"<.	c #ACACAC",
"[.	c #E8E8E8",
"}.	c #C1C1C1",
"|.	c #B6B6B6",
"1.	c #DEDEDE",
"2.	c #7F7E7E",
"3.	c #9A9999",
"4.	c #D9D9D9",
"5.	c #CFCECE",
"6.	c #818080",
"7.	c #484848",
"                                                                                                    ",
"                                                                                                    ",
"                                                                                                    ",
"                                                                                                    ",
"                                                                                                    ",
"                                                                                                    ",
"                                                          .             + + + + + + + + + + @ # $   ",
"                                                            % &       + + + + + + + + + + + * = -   ",
"                                                            ; > ,     + ' ) ! ~ + ~ { ! ] + ]       ",
"                                                              ^ / (   + + _ : < [ } | : 1 + +       ",
"                  ! + + + + + + + + + + + +                   * 2 3 % ! + 4 + 1 5 6 ^ 7 8 + +       ",
"    + + + + + 9 0 a 6 + + + + + + + + + + + + + + +             b c d e f + + g h i + _ j + +       ",
"    + + + + + k 3 l m + + + + + + + + + + + + + + + +             n > o p + q r s t u v w + +       ",
"      + + + + x y z ] + + + + + + + + + + + + + + + + +             A B C D + 6 E F a G H + +       ",
"          + + + ! I J e ] + + + + + + + + + + + + + + +               K L M f + + N O P J + +       ",
"              + u Q R S } T 9 f + + + + + + + + + + + + +             U a V w W + X Y Z J + +       ",
"                ` C  ...O X +.@.t p 9 + ` p ` f + + + + +             + #.$.%.&.*.+ + + + + +       ",
"                  =.-.;.L >...S # ,.'.6 y Q F ).{ ] ! ! f             + + + k !.} + + + + + +       ",
"                    e H k ~.C @ {.].].^./.J 3 / w . V (._.            + + + + p 9 + + + + + +       ",
"                    f ] + + f *.Y :.,.<.y [.. }.|.w < ~ 1.            $.g g g g g g g g g g g       ",
"                      + + + + + + f D m 6 C -.).g x k $.            g ' b b b b b b b } P 2.&       ",
"                        + + + + + + + + =.6 k p + + + +           8 x x x x x x x x x U J ].3.      ",
"                        + + + + + + + + + + + + + + +             4.5.C C C C C C C C C 6.7.        ",
"                          + + + + + + + + + + + + +                                                 ",
"                            + + + + + + + + + +                                                     ",
"                                + + + + + +                                                         ",
"                                                                                                    ",
"                                                                                                    ",
"                                                                                                    ",
"                                                                                                    ",
"                                                                                                    ",
"                                                                                                    "};
