/* XPM */
static char * Lang_trans_xpm[] = {
"50 32 253 2",
"  	c None",
". 	c #AFAFAF",
"+ 	c #9E9E9E",
"@ 	c #606060",
"# 	c #8C8C8C",
"$ 	c #575757",
"% 	c #444444",
"& 	c #535353",
"* 	c #818181",
"= 	c #959595",
"- 	c #404040",
"; 	c #FFFFFF",
"> 	c #474747",
", 	c #383838",
"' 	c #B7B7B7",
") 	c #A6A5A5",
"! 	c #B9B9B9",
"~ 	c #090909",
"{ 	c #FEFEFE",
"] 	c #F5F5F5",
"^ 	c #F8F8F8",
"/ 	c #585858",
"( 	c #555555",
"_ 	c #7E7E7E",
": 	c #545353",
"< 	c #3D3D3D",
"[ 	c #F1F1F1",
"} 	c #A9A9A9",
"| 	c #ACACAC",
"1 	c #E4E4E4",
"2 	c #846827",
"3 	c #8E8E8E",
"4 	c #060606",
"5 	c #000000",
"6 	c #0E0E0E",
"7 	c #DBDBDB",
"8 	c #898989",
"9 	c #7A7A7A",
"0 	c #D7D7D7",
"a 	c #8C6B1E",
"b 	c #B1B1B1",
"c 	c #A1A1A1",
"d 	c #EEEEEE",
"e 	c #2A2924",
"f 	c #706248",
"g 	c #4E3A12",
"h 	c #4C3812",
"i 	c #FDFDFD",
"j 	c #EAEAEA",
"k 	c #515151",
"l 	c #1A1A1A",
"m 	c #504C46",
"n 	c #7C6B49",
"o 	c #BAAF9A",
"p 	c #7F7052",
"q 	c #FAFAFA",
"r 	c #ECECEC",
"s 	c #E9E9E9",
"t 	c #FBFBFB",
"u 	c #8F7028",
"v 	c #A2A2A2",
"w 	c #8F8F8F",
"x 	c #9F9F9F",
"y 	c #989897",
"z 	c #6B5D41",
"A 	c #C5BDAA",
"B 	c #EFEBE1",
"C 	c #C0B6A1",
"D 	c #594623",
"E 	c #F4F4F4",
"F 	c #C3C3C3",
"G 	c #979797",
"H 	c #777777",
"I 	c #C2C2C2",
"J 	c #8E7333",
"K 	c #919191",
"L 	c #939393",
"M 	c #9B9B9B",
"N 	c #868583",
"O 	c #6C5C3D",
"P 	c #F8F6F2",
"Q 	c #F0EDE3",
"R 	c #E6DFCF",
"S 	c #645433",
"T 	c #DCDCDC",
"U 	c #7B7B7B",
"V 	c #717171",
"W 	c #636363",
"X 	c #6C6C6C",
"Y 	c #BBBBBB",
"Z 	c #E2E2E2",
"` 	c #B8B8B8",
" .	c #95804F",
"..	c #777165",
"+.	c #8E7F5F",
"@.	c #FAF8F5",
"#.	c #F2EFE6",
"$.	c #E5DECD",
"%.	c #908160",
"&.	c #FCFCFC",
"*.	c #D8D8D8",
"=.	c #8B8B8B",
"-.	c #828282",
";.	c #AEAEAE",
">.	c #747474",
",.	c #727272",
"'.	c #C1C1C1",
").	c #A3A3A3",
"!.	c #998453",
"~.	c #8C8576",
"{.	c #B5A78B",
"].	c #F7F4EF",
"^.	c #F4F1EA",
"/.	c #E4DCCA",
"(.	c #AE9F7E",
"_.	c #ABABAB",
":.	c #656565",
"<.	c #797979",
"[.	c #9A9A9A",
"}.	c #BEBEBE",
"|.	c #B4B4B4",
"1.	c #D9D9D9",
"2.	c #9C9C9C",
"3.	c #988352",
"4.	c #A7A7A7",
"5.	c #9D9D9D",
"6.	c #8B8373",
"7.	c #B7A98B",
"8.	c #F0EBE1",
"9.	c #F5F2EC",
"0.	c #E1D9C6",
"a.	c #AC9E7C",
"b.	c #E8E8E8",
"c.	c #909090",
"d.	c #7F7F7F",
"e.	c #C6C6C6",
"f.	c #999999",
"g.	c #6E6E6E",
"h.	c #E1E1E1",
"i.	c #B6B6B6",
"j.	c #767676",
"k.	c #F2F2F2",
"l.	c #E7E7E7",
"m.	c #F9F9F9",
"n.	c #998A68",
"o.	c #A5A5A5",
"p.	c #938B7B",
"q.	c #B2A17D",
"r.	c #DFD5C0",
"s.	c #EEE9DE",
"t.	c #DBD1BA",
"u.	c #A3926B",
"v.	c #D5D5D5",
"w.	c #D3D3D3",
"x.	c #DFDFDF",
"y.	c #B0B0B0",
"z.	c #929292",
"A.	c #676767",
"B.	c #6D6D6D",
"C.	c #595959",
"D.	c #BDBDBD",
"E.	c #C9C9C9",
"F.	c #888888",
"G.	c #949494",
"H.	c #BABABA",
"I.	c #969695",
"J.	c #A4A4A4",
"K.	c #887F6F",
"L.	c #A89468",
"M.	c #C8B893",
"N.	c #CDBF9E",
"O.	c #BCA97D",
"P.	c #937D4A",
"Q.	c #A6A6A6",
"R.	c #626262",
"S.	c #D0D0D0",
"T.	c #7C7C7C",
"U.	c #969696",
"V.	c #CBCBCB",
"W.	c #A3A097",
"X.	c #8F8676",
"Y.	c #9C8451",
"Z.	c #AE9761",
"`.	c #A18647",
" +	c #907127",
".+	c #836727",
"++	c #DDDDDD",
"@+	c #D1D1D1",
"#+	c #977F47",
"$+	c #837B6B",
"%+	c #937A43",
"&+	c #A2884A",
"*+	c #987A36",
"=+	c #8E6E23",
"-+	c #7E611E",
";+	c #EFEFEF",
">+	c #9C7F3D",
",+	c #DEDEDE",
"'+	c #746D5F",
")+	c #896F36",
"!+	c #9C803D",
"~+	c #94762F",
"{+	c #7D5F1C",
"]+	c #F7F7F7",
"^+	c #D4D4D4",
"/+	c #F6F6F6",
"(+	c #969492",
"_+	c #937E4F",
":+	c #997B37",
"<+	c #93742D",
"[+	c #7F6320",
"}+	c #CECECE",
"|+	c #C5C5C5",
"1+	c #AAAAAA",
"2+	c #83785D",
"3+	c #967933",
"4+	c #92732B",
"5+	c #8F6E23",
"6+	c #785F26",
"7+	c #DADADA",
"8+	c #787878",
"9+	c #6D6B68",
"0+	c #957730",
"a+	c #92732A",
"b+	c #8F6F24",
"c+	c #5C4517",
"d+	c #848484",
"e+	c #7D7C79",
"f+	c #846728",
"g+	c #917229",
"h+	c #816421",
"i+	c #C8C8C8",
"j+	c #71706F",
"k+	c #68501E",
"l+	c #7E6323",
"m+	c #6A521E",
"n+	c #868686",
"o+	c #CDCDCD",
"p+	c #696969",
"q+	c #CCCCCC",
"r+	c #808080",
"s+	c #686868",
"t+	c #6A6A6A",
"u+	c #957735",
"v+	c #757575",
"w+	c #6B6B6B",
"x+	c #6F6F6F",
"y+	c #9E8F72",
"z+	c #3C3C3C",
"A+	c #1B1B1B",
"B+	c #2E2E2E",
"C+	c #A0A0A0",
"D+	c #8A8A8A",
"                                                                        . . . . . . . . . . . . . . ",
"      + @ # $                                                                                       ",
"  %   & * . = -                               ; ; ; ; ; ; ; ; ; ; ; ;                               ",
"  >   , ' ) ! ~                   ; ; { ] ^ { ; ; ; ; ; ; ; ; ; ; ; ; ; ; ; ;                       ",
"  /   ( _ : * <           ; ; ; ; ; ; [ } | 1 ; ; ; ; ; ; ; ; ; ; ; ; ; ; ; ; ; ;                   ",
"  2   3 4 5 6           ; ; ; ; ; ; ; 7 8 9 0 ; ; ; ; ; ; ; ; ; ; ; ; ; ; ; ; ; ; ;                 ",
"  a     5 5 5             ; ; ; ; ; ; 1 b c d ; ; ; ; ; ; ; ; ; ; ; ; ; ; ; ; ; ; ; ;               ",
"  a     ~ 5 e f g h           ; ; ; ; i [ j i ; ; ; ; ; ; ; ; ; ; ; ; ; ; ; ; ; ; ; ; ;             ",
"  a   8 k l m n o p             ; ; ; ; ; q r s t ; ; ; ; ; ; ; ; ; ; ; ; ; ; ; ; ; ; ;             ",
"  u v w x y z A B C D             ; ; ; E F G H I ^ ; ; ; ; ; ; ; ; ; ; ; ; ; ; ; ; ; ;             ",
"  J K L M N O P Q R S                 ; T U V W X Y Z T t ; ; ; ; ; ; ; ; ; ; ; ; ; ; ; ;           ",
"`  .* 8 K ..+.@.#.$.%.                ; &.*.=.@ -.;.>.,.'.Z ^ t t ; { ^ &.; { ; ; ; ; ; ;           ",
").!.v } ).~.{.].^./.(.                  ; ; s _.-.I :.<.9 [.}.|.1.i E F Y s [ { ; ; ; ; ;           ",
"2.3.4.5.G 6.7.8.9.0.a.                    ; b.c.d.e.f.<.:._ W g.L h.j i.j.w b k.{ t l.m.{           ",
"G n.. o.).p.q.r.s.t.u.                      ^ v.w.] k.x.y.z.A.B.C.[.' D.E.F.|.4.v b G.H.d           ",
"[.I.5.J.x K.L.M.N.O.P.                      ; { i ; ; ; &.h.Q.B.R.2.v.] S.c S.b L T.T.U.            ",
"V.W.c x 5.X.Y.Z.`. +.+                        ; ; ; ; ; ; ; &.^ h.` Z ] V.++` @+b.I + b.            ",
"  #+. ;.M $+%+&+*+=+-+                        ; ; ; ; ; ; ; ; ; ; ^ q 7 ! v.h.t { m.;+{             ",
"  >+,+} _.'+)+!+~+=+{+                          ; ; ; ; ; ; ; ; ; ; ; ]+l.^+/+; ; ; ; ;             ",
"  >+w.G.J.(+_+:+<+=+[+                          ; ; ; ; ; ; ; ; ; ; ; ; { q { ; ; ; ;               ",
"  >+}+G.|+1+2+3+4+5+6+                            ; ; ; ; ; ; ; ; ; ; ; ; ; ; ; ; ; ;               ",
"  >+V.L 7+8+9+0+a+b+c+                            ; ; ; ; ; ; ; ; ; ; ; ; ; ; ; ; ;                 ",
"  >+F * S.d+e+f+g+h+                                ; ; ; ; ; ; ; ; ; ; ; ; ; ;                     ",
"  >+i+z.1.* j+k+l+m+                                  ; ; ; ; ; ; ; ; ; ; ; ;                       ",
"  >+F * S.j.*                                             ; ; ; ; ; ; ;                             ",
"  >+@+n+o+j.p+                                                                                      ",
"  >+q+r+i+,.s+                                                                                      ",
"  >+S.d.'.X t+                                                                                      ",
"  u+F v+w+x+V                                                                                       ",
"  y+g.z+A+B+v+                                                                                      ",
"  C+9 >.H W D+                                                                                      ",
"                                                                                                    "};
