/* XPM */
static char * Lang_Script_trans_50_xpm[] = {
"50 32 172 2",
"  	c None",
". 	c #4A4A42",
"+ 	c #9A9E82",
"@ 	c #BABA9E",
"# 	c #CED2AE",
"$ 	c #F6F2DA",
"% 	c #727262",
"& 	c #DEDAC2",
"* 	c #868A72",
"= 	c #B2B29A",
"- 	c #E6E2CA",
"; 	c #CECEAE",
"> 	c #CACAAA",
", 	c #8E927A",
"' 	c #A2A68A",
") 	c #EEEEDA",
"! 	c #7A7E6A",
"~ 	c #C6C6AA",
"{ 	c #FAFAE6",
"] 	c #EAE6CE",
"^ 	c #4E4E4A",
"/ 	c #BEBE9E",
"( 	c #96967E",
"_ 	c #5A5A4A",
": 	c #AEAE96",
"< 	c #7E826E",
"[ 	c #DED6C2",
"} 	c #EEEAD2",
"| 	c #DAD6BE",
"1 	c #E2DEC6",
"2 	c #C6C2AE",
"3 	c #666256",
"4 	c #928E7E",
"5 	c #AAA292",
"6 	c #9EA286",
"7 	c #FEFEEA",
"8 	c #9A9686",
"9 	c #A6A68E",
"0 	c #EEE6CE",
"a 	c #FAF6DA",
"b 	c #AAAA8E",
"c 	c #82826E",
"d 	c #DAD2BE",
"e 	c #B2B696",
"f 	c #9A9A82",
"g 	c #76766A",
"h 	c #D6CEBA",
"i 	c #EAE2CA",
"j 	c #E6DECA",
"k 	c #86866E",
"l 	c #92927A",
"m 	c #D2D2B2",
"n 	c #D2CAB6",
"o 	c #A2A28A",
"p 	c #9A9A86",
"q 	c #8A8A76",
"r 	c #FAF6E2",
"s 	c #CEC6B2",
"t 	c #F2EAD2",
"u 	c #C6BEAA",
"v 	c #AEA696",
"w 	c #929286",
"x 	c #8A8E7A",
"y 	c #BEBAA6",
"z 	c #B6B69A",
"A 	c #AAA692",
"B 	c #E2DAC6",
"C 	c #CECEB2",
"D 	c #827E72",
"E 	c #AAAA92",
"F 	c #9E9E86",
"G 	c #EEE6D2",
"H 	c #868276",
"I 	c #F6EED6",
"J 	c #7A7A66",
"K 	c #CACAAE",
"L 	c #D6D2BA",
"M 	c #CAC2AE",
"N 	c #B6B29E",
"O 	c #C2BEA6",
"P 	c #8E8A7A",
"Q 	c #625E56",
"R 	c #D2CEB6",
"S 	c #F2EEE2",
"T 	c #FAF2DA",
"U 	c #8A8676",
"V 	c #FEFADE",
"W 	c #7A7A6E",
"X 	c #A6A28E",
"Y 	c #AAAA96",
"Z 	c #C6C6AE",
"` 	c #BAB2A2",
" .	c #FEF6DE",
"..	c #FEFEEE",
"+.	c #F6F6E6",
"@.	c #FEFAE6",
"#.	c #DAD6C2",
"$.	c #A29E8A",
"%.	c #B6AE9E",
"&.	c #9A9286",
"*.	c #BEB6A6",
"=.	c #5A5E4E",
"-.	c #C2BAAA",
";.	c #9E9A8E",
">.	c #969A82",
",.	c #B2AE9A",
"'.	c #CECAB2",
").	c #666656",
"!.	c #928E82",
"~.	c #7E7E72",
"{.	c #D6D2BE",
"].	c #AEAA9A",
"^.	c #FEFEF2",
"/.	c #BAB6A2",
"(.	c #868672",
"_.	c #CAC6B2",
":.	c #969686",
"<.	c #8A8A7E",
"[.	c #A2A296",
"}.	c #EEEAD6",
"|.	c #D2CEBA",
"1.	c #F2EED6",
"2.	c #9E9A86",
"3.	c #FAF6E6",
"4.	c #6A665A",
"5.	c #AAA696",
"6.	c #969282",
"7.	c #B6B2A2",
"8.	c #F2EEDA",
"9.	c #CAC6AE",
"0.	c #DEDAC6",
"a.	c #F2EAD6",
"b.	c #F6F2DE",
"c.	c #9A968A",
"d.	c #8E8A7E",
"e.	c #8A8A72",
"f.	c #7A766A",
"g.	c #8E8E76",
"h.	c #A29E8E",
"i.	c #86867A",
"j.	c #7E7A6E",
"k.	c #AEAA96",
"l.	c #BEBAAA",
"m.	c #B2AE9E",
"n.	c #C6BEAE",
"o.	c #7E7E6A",
"p.	c #5E5E4E",
"q.	c #A6A296",
"r.	c #CAC2B2",
"s.	c #969286",
"t.	c #E6E2CE",
"u.	c #E2DECA",
"v.	c #EAE2CE",
"w.	c #F6EEDA",
"x.	c #C2BEAA",
"y.	c #8A867A",
"z.	c #A6A292",
"A.	c #CECAB6",
"B.	c #928E86",
"C.	c #AEAA9E",
"D.	c #9E9A8A",
"E.	c #CEC6B6",
"F.	c #FAF6DE",
"G.	c #969682",
"H.	c #8A8A7A",
"I.	c #FAF2DE",
"J.	c #8E8E7A",
"K.	c #727266",
"L.	c #828272",
"M.	c #66665A",
"N.	c #6A665E",
"O.	c #7E7A72",
"                                                                                                    ",
"                                                                                                    ",
"                                          _                   N 2 2 2 2 2 2 2 2 2 x.x.x.x.x.N /.[   ",
"                      T $                 =.e @             y t.3.3.3.3.3.{ { { r r r 3.3.+.) 2 n R ",
"                    R h ] G G G G         p.b @ @           h  .V V  .a $ b.b.r @.@.@.@...S B /.M s ",
"                  1.5.m.y 1 G G G G       _ f + 9 /         {.} } } } } G G G } } } } $ w.u.& /.s '.",
"              F.1.A.d.].x.j 0 0 G G G       * 6 q 9 #       d } G G G G G G G G G G I $ 1 i 1 x.u E.",
"              1.] D.D *.j L & _.- G G }     ).J., (.= m     9._.N y |.x.| h |.[ L |.v.M A.#.B /.2   ",
"            $ } B D z.].|.D.2 7.- 0 v.0 G     % k l < 9 > C y ]._./.s.W /.z.v.7.h.D.k.D D z.[ y     ",
"          I t G G 1 /.H.;.D D.z.n - 5 n.1 t     c f l J ' ; C {.|.B h n {.h 1.1 A.2 x.l.2 #.B       ",
"        T t G j 1 - A.l.d.P D z.1 #.8 m.].[ t     ! f l J G.K L {.} 0 ] B {.j & [ B & ] R G 1       ",
"       .t G - N ].A.m.v.& 2 y.5.] y 6.h.!.` j -     >.6 l o.x ~ $.4 s y &.U 8 A h.x.D._.4 G 1       ",
"     .t G G {.5._.z.N 1 0 ] | 2 j D.` 4 D.5.h z.0     ( ( f e., : P y x.D.!.h.z.6.-.5.|.r.G -       ",
"    t ] 1 1 {.z.2 y.].A.0.0 G ] [ z.,.;.8 P ,.z.$         F f e.g.z 9.1 j j - - [ A._.] v.v.-       ",
"  - [ [ [ #.#.|.].H 2 m.h.[ v.G 0 j A.N D.8 6.r.}           o ( q q 9 8 z.;.d D.h.3 N.5.d.D.|       ",
"  #.#.        #.|.5.5.y.D ].n G G G ] | k.].P 1 G           A.9.9 e.J.Y C.q.1 m.z.D f.h.j.h.[       ",
"#.[             #.[ N f.:.8 ` x.#.1 B G G {.2 } G           {.0 - Z E 2.[.{.& A.- 1 x.1 v.1 v.      ",
"                  [ 0._.D.5.A !.].N /.G 0 ] ] G             {.n !._.X p O.B.5.L.{._.Q D.%./.]       ",
"                  #.0.0 #.A.4.4 h.D.D.B 2 j t G             d n f.x.z.m.y.<.!.c.A.h h.!.z.y v.      ",
"                  #.[ v.0 - A D.5.z.P _.v n.}               & ] B [ A.1 L |.~.w _.j 1 - j - ]       ",
"                  #.#.- G G ] _.5.h.D.n 5.{.                1 h c._.!.m.N z.. ^ ~.c.1 G G G ]       ",
"                    #.- G G G ] d h.-._.{.G                 1 s K.|.y 2 m.D M.g i.y.#.0 G G ]       ",
"                      - G G G G G ] & 2 } G                 j 0 - ] v.v.v.- 1 j - 1 ] G G G ]       ",
"                        G G G G ] v.] a.                    d d d d d d {.{.L h d | | | d {.|       ",
"                                ] G T                   F.{ 3.r r r r r r r F.b.r r r r I.- {.      ",
"                                                        @.....7 ......^.^.^.^.^.^.^.^...F.n R       ",
"                                                        w.a.} 1.} G } a.}.$ 8.8.8.8.}.}.0 A.d       ",
"                                                        9.x.x.u x.x.x.O x.x.u x.x.u x.u h B |.      ",
"                                                        v h.h.h.h.h.h.D.h.h.D.D.h.$.h.h./.s M       ",
"                                                          !.y.y.y.P y.y.y.y.y.y.y.y.y.y.s.7.        ",
"                                                                                                    ",
"                                                                                                    "};
