/* XPM */
static char * left_arr_exp3_xpm[] = {
"258 25 88 1",
" 	c None",
".	c #F3E795",
"+	c #F3E797",
"@	c #F3E89A",
"#	c #F4E89A",
"$	c #F3E796",
"%	c #F4E9A0",
"&	c #F4EAA2",
"*	c #F4E89B",
"=	c #F3E898",
"-	c #F4E99C",
";	c #F5EBAC",
">	c #F8F1C9",
",	c #F9F4D3",
"'	c #F8F3CE",
")	c #FAF5D4",
"!	c #F5EBA8",
"~	c #F4E99E",
"{	c #FAF5D2",
"]	c #FDFBF0",
"^	c #FBF8E1",
"/	c #FAF5D6",
"(	c #FAF5D7",
"_	c #FCFAEB",
":	c #FEFDF9",
"<	c #FEFEFE",
"[	c #FDFDFB",
"}	c #FBF7DF",
"|	c #F4E99F",
"1	c #F7EFBA",
"2	c #FAF6DB",
"3	c #FDFCF6",
"4	c #FEFEFD",
"5	c #FEFEFB",
"6	c #F8F2C9",
"7	c #F4EAA1",
"8	c #F7EEB9",
"9	c #FBF6DC",
"0	c #FDFDF7",
"a	c #FEFEFC",
"b	c #FCFAEC",
"c	c #FCFBF0",
"d	c #FEFCF7",
"e	c #F9F4D1",
"f	c #F3E89B",
"g	c #F3E899",
"h	c #F4E9A1",
"i	c #F6EDAE",
"j	c #F7F0BD",
"k	c #FDFDF8",
"l	c #FBF9E6",
"m	c #F8F1C4",
"n	c #F4EBA9",
"o	c #F7EFBC",
"p	c #FDFBEE",
"q	c #F6EDB1",
"r	c #F4E89C",
"s	c #F5EBA9",
"t	c #F6EEB4",
"u	c #FBF7DE",
"v	c #FCF9E8",
"w	c #FEFDF5",
"x	c #FBF9E5",
"y	c #F4E9A3",
"z	c #F9F3CF",
"A	c #F4EAA4",
"B	c #F5EBA6",
"C	c #FBF8E2",
"D	c #FEFDF7",
"E	c #FBF9E3",
"F	c #FCFBF1",
"G	c #FCFAE8",
"H	c #F4E99D",
"I	c #F7F1C4",
"J	c #FAF6D9",
"K	c #FBF8E3",
"L	c #FDFCF4",
"M	c #F9F3CD",
"N	c #F5ECAE",
"O	c #F7F1C1",
"P	c #FDFCF2",
"Q	c #F9F4CF",
"R	c #F5ECAC",
"S	c #F8F1C3",
"T	c #FAF6D7",
"U	c #F8F2C7",
"V	c #F6EDB0",
"W	c #F3E89D",
"     ..  .  ..   ....  .. .   .  . .. .......   ... .. ...     . . .                                                                                                                                                            ....                              ",
"   ...... ..... . . ..  .. ... ..    ...  ...... ..  ..... . .. .....                                                                                                                                                               ........                   ...",
"      .....  . .. .. ... . . .. ..  ..... ....   ..     .. ...  ......                                                                                                                                                                  ................++@#$.... ",
"         . . . . ..... ....   ...... ... .    . . . .... ...   . .    ....                                                                                                                                                                 .....+%&*==-;>,')!..   ",
"            . ..... . .. .... . .. .  .  . .  ..... .  .. ..  ......... .....                                                                                                                                                                  .~{]^/(_:<<[}!.    ",
"              .....  .... ....  .   .  ....    ...     . ... ...       . ....  .                                                                                                                                                              ..$|123444<56=..    ",
"               ...  .     .. . .. ..   ..    .  ..  .....  ......... ... .......... ..                                                                                                                                                  .......$7890abcd5ef..     ",
"                  . ...... . .  .    ...  ...  .... ..   ... .  ..   ......... .......  . ..                                                                                                                                       ......$g-hijeb:klmnoppq...     ",
"                     .. ...  . ..  ...   .  ...   . ..   ....... . ..  ..... ......... ...  .......                                                                                                                         .........=rstjeuvw35:x1%rgyzzA...     ",
"                        .. ..  ..  ...  ... . ...  . ..   ..  .. ......  ..  ......... ........   ..... ...                                                                                                          ...............B)C]DpEvFDkGjHg@...gg....     ",
"                          . . ......  . .    ..   ....  .... . .... .. ................... ... ... ............                                                                                                  ...................Be6IJKLwKMN#$+..   ......     ",
"                              .. ..  .    ... . ....   ......    ............ ...  ....  ..... .... ... .............  ..                                                                              ..............................*OP5LQRr@+$..       ....     ",
"                                   .   .. . .. ... ... .... ... .......  ..... . ... ...... ...   .....  .... ............... . ......                                                    ...........................................-STUVWW%+$.         ....     ",
"                                       .... ...  . .. ... . .  . .... .. ......... ...  ......   ...  .......... .... ............ ...................................................................................................==+@gf.            ....     ",
"                                              .. ...... .  ..... . ....    .. .. .... .  ... . ..  .. ....................................................................................................................................                ...     ",
"                                                ..  ..... ..... . . . . ... .. ...  ........ .... ...... ....... .......................................................................................................................                  ...     ",
"                                                     .  . ....... .. .....  . . ............... .....   ... ..... ...................................................................................................................                     ...     ",
"                                                           ........  . ......... ......... ....  . ... . . ................ .....................................................................................................                          ..     ",
"                                                                    ....... ... .... ..   . .............. ....... .......... ..............................................................................................                                      ",
"                                                                            . .  ........ ... ..... ...................................................................................................................                                           ",
"                                                                                .. ..  .  .. ....... ..  ...........................................................................................................                                              ",
"                                                                                          ... ...... .  ...   .. ............... ...... .....................................................................                                                     ",
"                                                                                                     ..... .   .. ............ ......................................................................                                                             ",
"                                                                                                                   . .. . ..... .......................................................                                                                           ",
"                                                                                                                                        .........................                                                                                                 "};
