/* XPM */
static char * left_arr_exp3_xpm[] = {
"258 25 256 2",
"  	c None",
". 	c #030303",
"+ 	c #399A46",
"@ 	c #D10C42",
"# 	c #3E3122",
"$ 	c #5B4B2D",
"% 	c #B49E2E",
"& 	c #ADFDAB",
"* 	c #F27272",
"= 	c #2E9236",
"- 	c #BC3232",
"; 	c #420AB8",
"> 	c #D6D602",
", 	c #9F0A2E",
"' 	c #FA9999",
") 	c #B49FE4",
"! 	c #664E38",
"~ 	c #E638C0",
"{ 	c #AF2C2C",
"] 	c #D03A3A",
"^ 	c #390A9B",
"/ 	c #C5C502",
"( 	c #5DA153",
"_ 	c #628749",
": 	c #8B0628",
"< 	c #6D614A",
"[ 	c #A49B78",
"} 	c #942276",
"| 	c #2C5BC0",
"1 	c #787877",
"2 	c #4EA6FE",
"3 	c #C0E6DE",
"4 	c #370E86",
"5 	c #4A16B2",
"6 	c #DED09E",
"7 	c #E297B6",
"8 	c #DD5554",
"9 	c #CC32A2",
"0 	c #4AC24E",
"a 	c #765E39",
"b 	c #97856B",
"c 	c #A6CEAE",
"d 	c #A0C09E",
"e 	c #623E26",
"f 	c #9ABA9E",
"g 	c #33DF51",
"h 	c #3E84E4",
"i 	c #BC2D96",
"j 	c #AEC6A0",
"k 	c #2450A0",
"l 	c #E2AAC6",
"m 	c #521242",
"n 	c #AFA178",
"o 	c #473923",
"p 	c #4698E4",
"q 	c #2F0B73",
"r 	c #62865E",
"s 	c #62B256",
"t 	c #A1D4C7",
"u 	c #CEE6B2",
"v 	c #CA3535",
"w 	c #C890A8",
"x 	c #766E56",
"y 	c #4A703E",
"z 	c #9ECACA",
"A 	c #DE8616",
"B 	c #FEC6C8",
"C 	c #8E7606",
"D 	c #AE4E2E",
"E 	c #BACECA",
"F 	c #78A44E",
"G 	c #748875",
"H 	c #CE7A26",
"I 	c #F54B4B",
"J 	c #9989B9",
"K 	c #9A72C2",
"L 	c #1E428A",
"M 	c #A1A0B0",
"N 	c #5EE252",
"O 	c #696969",
"P 	c #A52884",
"Q 	c #DE6464",
"R 	c #E2E9E2",
"S 	c #BEB085",
"T 	c #92C6C6",
"U 	c #424E66",
"V 	c #A29A42",
"W 	c #DFDFFA",
"X 	c #4696CE",
"Y 	c #FEAEAF",
"Z 	c #66D65E",
"` 	c #739B72",
" .	c #4D3F27",
"..	c #9A7D55",
"+.	c #E64EB6",
"@.	c #26066A",
"#.	c #F77F7F",
"$.	c #6EAEAE",
"%.	c #7A6F58",
"&.	c #46226A",
"*.	c #818381",
"=.	c #96BA6A",
"-.	c #EA5A5A",
";.	c #663C80",
">.	c #5F5B46",
",.	c #C29E8A",
"'.	c #D2C2F6",
").	c #CEAB95",
"!.	c #2ACA46",
"~.	c #BAC094",
"{.	c #B6D692",
"].	c #9C9D9C",
"^.	c #62D6FE",
"/.	c #550EE1",
"(.	c #D28EAA",
"_.	c #F6EEC6",
":.	c #A0A9EF",
"<.	c #819B83",
"[.	c #A4B288",
"}.	c #9A8D90",
"|.	c #DAD6CA",
"1.	c #909094",
"2.	c #767654",
"3.	c #FED2C3",
"4.	c #E14444",
"5.	c #CAAC40",
"6.	c #AFA3A3",
"7.	c #92C1BA",
"8.	c #D692AE",
"9.	c #CEB6FE",
"0.	c #5F5640",
"a.	c #CFDAB1",
"b.	c #96B672",
"c.	c #E0A2BE",
"d.	c #7B7C94",
"e.	c #FC52EE",
"f.	c #320A26",
"g.	c #723EB4",
"h.	c #D256A6",
"i.	c #D2EABA",
"j.	c #FB6666",
"k.	c #52668E",
"l.	c #7E7050",
"m.	c #86A6CA",
"n.	c #AEBA92",
"o.	c #F60E4E",
"p.	c #8AAA8E",
"q.	c #3E2447",
"r.	c #B5AA81",
"s.	c #FCA3A3",
"t.	c #748CB0",
"u.	c #CDC093",
"v.	c #8A4E6E",
"w.	c #8D8563",
"x.	c #B6BA26",
"y.	c #A2A981",
"z.	c #FEF6CA",
"A.	c #963A26",
"B.	c #DED6A2",
"C.	c #54462B",
"D.	c #F28989",
"E.	c #8E7E2A",
"F.	c #B2EEEE",
"G.	c #877D68",
"H.	c #D9C1B3",
"I.	c #C6A658",
"J.	c #7AB6B6",
"K.	c #A48E30",
"L.	c #BAAEE5",
"M.	c #753A3B",
"N.	c #E0FCDC",
"O.	c #8E9666",
"P.	c #D24444",
"Q.	c #C5FEC3",
"R.	c #DC34B1",
"S.	c #C6E2E2",
"T.	c #707170",
"U.	c #AE4E86",
"V.	c #F9F3B1",
"W.	c #B3C2FB",
"X.	c #BAA475",
"Y.	c #685433",
"Z.	c #888852",
"`.	c #B6BAC2",
" +	c #8A2A62",
".+	c #5A365A",
"++	c #4D0DD0",
"@+	c #F85959",
"#+	c #B60A36",
"$+	c #5F6869",
"%+	c #9D906E",
"&+	c #AE3E8A",
"*+	c #836A40",
"=+	c #919993",
"-+	c #EB6565",
";+	c #8A7242",
">+	c #4A764A",
",+	c #806060",
"'+	c #DDB1B8",
")+	c #8BA691",
"!+	c #56B8FD",
"~+	c #7E7A52",
"{+	c #5F5236",
"]+	c #F43DCF",
"^+	c #6D5A3A",
"/+	c #716B51",
"(+	c #F69292",
"_+	c #7C7E7D",
":+	c #0E022A",
"<+	c #CAD2EF",
"[+	c #C2B0A2",
"}+	c #498E4E",
"|+	c #91B6A0",
"1+	c #F0F7F1",
"2+	c #BEAA9E",
"3+	c #30AA42",
"4+	c #ECC1D3",
"5+	c #8D794F",
"6+	c #BA4292",
"7+	c #C0B88E",
"8+	c #AAB5FE",
"9+	c #898786",
"0+	c #B2A294",
"a+	c #326AC6",
"b+	c #A89086",
"c+	c #822E56",
"d+	c #F3EBEA",
"e+	c #8BAE96",
"f+	c #B8D69F",
"g+	c #AB9B63",
"h+	c #D1C89D",
"i+	c #A4C7AB",
"j+	c #FD8A8A",
"k+	c #503A27",
"l+	c #F64ADE",
"m+	c #E2E0C0",
"n+	c #7C653E",
"o+	c #FEB6DA",
"p+	c #585C64",
"q+	c #B686BE",
"r+	c #88B4BA",
"s+	c #BFA877",
"t+	c #52402A",
"u+	c #A23670",
"v+	c #B5DDD4",
"w+	c #D2BA7A",
"x+	c #92D2BA",
"y+	c #4A3238",
"z+	c #8D3862",
"A+	c #5A2A9E",
"B+	c #FEF7E7",
"C+	c #B2AA2E",
"D+	c #E04E4E",
"E+	c #824666",
"F+	c #DE2642",
"G+	c #E7D2C4",
"                                                              Y.a $ C.C.t+o # # # # o  . .o  . .o  . . .t+ . . . . .# # # o                   .                                                                                                                                                                                                                                                                                                             Y.Y.$ $ C.t+o o # # # # o o o o o o o o o o  . . . .o o o # o  .        ",
"                                                            a ^+Y.Y.! $ C.t+t+o o o t+t+t+C.C.t+t+t+t+t+t+C.C.C.t+t+t+ .o C.t+                .                                                                                                                                                                       @ @                                                                                                                                 a a ^+Y.Y.$ $ $ $ C.C.C.$ $ $ $ $ $ $ $ $ $ $ $ $ $ $ C.C.C.o t+C. .      ",
"                                                          n+n+a a n+Y.Y.Y.Y.Y.Y.Y.{+{+{+{+{+{+{+{+{+Y.^+Y.^+^+^+$ $ ! ! C.t+t+t+$             .                                     ^.!+                                                                                                                            @ , , @                                                                                                                             n+n+a a a ^+Y.Y.Y.Y.Y.Y.Y.Y.Y.Y.Y.Y.Y.Y.Y.Y.^+Y.^+a a Y.Y.Y.^+Y.$ C.$ $     ",
"                      8                                 *+;+;+;+*+n+n+n+n+n+n+n+n+n+n+n+n+n+n+n+n+n+n+n+n+*+*+*+n+*+*+*+*+n+n+n+n+n+          .                               2 !+!+a+| h                                                                                                                           ,   : #+o.                                                                                      { {                               ;+;+5+5+;+;+;+;+;+;+;+;+;+;+;+;+;+;+;+;+;+;+;+;+;+;+;+;+;+;+;+;+;+;+;+;+*+*+n+",
"                    8 *                               n+;+;+;+;+;+;+;+;+;+;+;+;+;+;+;+;+;+;+;+;+;+;+;+;+;+;+;+;+;+;+;+;+5+5+;+;+;+;+*+        .                           h 2 !+p a+L k X                                                                                                                         #+,   : , @ o.                                                                                  { 4.-                               ;+;+;+;+;+;+;+;+;+;+;+;+.._ F Z.K.V V E.5+~+F %+5+;+;+;+;+;+;+;+5+..;+;+5+;+*+",
"                    Q (+                                                                  3.B+B                                               .                           G.%.k.| k   | h                                                                                                                         ,     : : , F+8                                                                               - D+* -.]                                                       ` !.N A / > C H g g n.[+                            ",
"                    Q ' D+                                                                Y 3.o+                                              .                         H.G.2+/+U L   | X                                                                                                                       q+        , D I.X.                                                                            v -+Y 3.s.* 4.                                                  X.g+y K.` x./ V g+% }+n <                             ",
"                    Q s.                                                                                                                  . . . . .                     H.[+G.< p+    | h                                                                           I                                       8+W.)         A.5.7+[+                                                                            -+s.#.s.-+' j+8                                                 X.g+*.$.J.b./ n.~.y.O.X.^+                            ",
"                    Q s.      I                                       & & & &                                                             .       .                     G.< < < <       h                                                                           I @+                                  :.<+1+<+8+      % 5.5.w+                                                                          -+j+-.P.s.4.P.#.#.4.                                              s+b d.r+S.~.C+|.R [.r.X.^+                            ",
"                    8 s.      @+@+                                    & N.1+&                                                             .       .                     < ,+U.< <                                                                                     j.-.                                W.W.W <+<+V.[ % % g...%                                                                         @+j.I ] D+Y P.- 4.@+]                                               s+G.}.)+E [.V h+6 [ y.s+<                             ",
"                    ] D.D.    I j+-+v                                 & Q.N.&                                                             .       .                     < &+]+6+< v.R.                                                                                @+j+-.-                             F.<+<+<+d+_.w.% ../.A+K.                                                                        I       -+s.P.                                                      X.b [ S 7+n X.h+r.5+Z.S n+                            ",
"                      P.Y       -.s.-+-                                 & & &                 8+W.8+                                      . . . . .                   < < i ]+9 E+< }                                                                                 v -+' 8 {                         y.j h+a.R m+n < K.;.; ++,+%                                                                             8 ' -+                                                        X.l.l.6 7+n 7+n [ %+x X./+                            ",
"                      - * ' -.  v Q Y 8 {                                                     8+d+W :.                                                                  z+]+]+i P ! Y.                                                            D+-.-+-+-+-+-+-+-+* Q Q ' j+P.-                     S 7+r.r.7+h+7+l. ..+^ ; /.5 ;.                                                                          * s.#.]                                                         s+< ~+h+n n %+n %+%+2.s+l.0.                          ",
"                        ] * s.' (+(+B ' 4.-                                                   8+W <+8+                                                                ~ e.e.R.P u+e z+                              w.!                           j.D.(+' ' ' ' (+' ' (+D.' s.@+v {                   h+u.S r.7+7+n Y.$ &.^ ^ /./.++++K                                                     8 j.#.#.#.D.D.D.s.s.-.v                                                           s+< ( r.n u.h+r.w.%.y s+5+0.                          ",
"                            8 * -+* s.j+4.{                                                   :.W.:.:.                                                                ]+l+~ P  +e M.9                     <+G+3.3.).x t+t+                          ] P.P.P.P.P.P.P.] v 4.#.#.] {                     u.r.[ [ n [ w.< t+4 ^ q ^ /./.; g.                                                    -.* D.D.D.D.D.#.-.] {                                                             s+_ g _ w.n n r.%+< = =.G.0.                          ",
"                              v v -+' -.-                                   9.'.'.) J *.*._+1 1.1.        n.f+f+f+{.                                                G++.R.i  +e M.9 ~ ~               W.<+G+G+B+_.X.0.k+t+                                            v * j+I v                       %+n 7+u.n %+%+>.t+y+y+y+q.4 ^ ^ A+                                                                                                                                    g+S 3++ }+G 2.x /+>.>+3+g w.0.                          ",
"                                -.s.j.]                                     ) W R ) M 1.1.*.1 1 1 1 _+1 9+d i.1+u {.                                              ,.H.h.i c+e M.9 ]+]+~               8+R d+G+d+G+G.o o t+t+                                          -+j+I                           G.%+n n [ w./+C.k+y+q.q.# q.q.q                                                                                                                                       n Z }+p.i+i+d T.<.v+e+` + 0 >.                          ",
"                              I #.-+                                      *.) L.'.L.M 9+*.9+1.=+=+M ].].].j a.1+u f+*.                                          ,.2+w.    z+u+R.]+]+R.9               M `.6.S S S ~+ .t+t+t+                                        4.j.-.                              2.~+%+b x t+o y+4 ; ; ^ 4 4                                                                                                                                         s = r i+i+i+c <.|+i+f+|+( + }+                          ",
"                              v 4.                                      T.O d.J J M 1.9+_+M 7.T z ].=+].=+y.f+{.{.n.  1 }.w 7 o+              & & &         5+a           ]+R.R.~ ~ i i               n n S u.6 u.a 0.t+  t+                                        v v                                   >.>.{+C.C.  ^ ; ; ; ; ; ;                                                                                                                                         ( b w.G d d e+G d i+d <.%+%+^+                          ",
"                              v                         z.z.V.    $+O T.T.T.1 1 O T.1 *.T.r+z 3 t i+1 *.9+9+=+=+=+*.].9+7 c.4+l 7             Q.1+Q.    b *+              ]+R.i 9 ]+i i             S 6 u.r.7+n 5+w.0.t+  t+                                                                                          ; ^ ; ; ++; ;                                                                                                                                         X.b ^+<.p.|+d <.c |+<.)+l.g+^+                          ",
"                                                        z.B+_.u.*.1 T.O 1 1 T._+9+9+_+_+=+T v+1+v+7.=+1.=+].M *.1 1 *.[ w 4+d+4+(.            Q.N.Q.t t.<                 R.R.i P ]+~ ~             u.u.[ [ %+n n %+>.k+t+t+                                                                                          @.@.^ ; ++^ ^                                                                                                                                         X.5+0.  d f e+  <.)+f G 5+g+<                           ",
"                                                        B.m+h+S T.T.9+9+}.,.,.0+1 O T.9+].z t S.z r+T.T.T.9+_+*._+1 1 1 w l 4+l c.            & t T m.k.                    f.m   P } m             n 7+S u.6 n w.%.t+k+t+t+                                                                                          . . . . :+:+                                                                                                                                          s+l.<   . . .   . . . .   g+n+0.                        ",
"                                                      1.7+7+r.9+T.1 _+}.).H.H.).b+1 9+].1.M v+t 7._+p+O G e+J.|+_+1 9+1.}.'+8.w b             t.d.k.p+                    . . .     . . .             w.[ r.[ n w.0.o o k+k+                                                                                          . . .   . . .                                                                                                                                         S %.^+  . . .     . .     n /+0.                        ",
"                                                  O O O T.T.O O *.T.O b ,.G+d+).b+T.O $+O =+_+T.O T.1 _+7.t v+t 7.M ].1.M 6.].1.9+9+9+1   1                             . . . .     . . .               w.w.w.G.{+t+    t+                                                                                            . . .   . . . .                                                                                                                                       S <     . . .     . .     s+/+0.                        ",
"                                                    O O p+    0.p+x 1 9+).'+H.).b+1 1 1 *.1.9+9+9+1.1.].z 3 1+3 x+    *.    _+1 1 1 1 1                                 . . .     . .                     < 0.{+{+                                                                                                      . . .   . .                                                                                                                                         s+<     . . .     . .     g+n+$                         "};
