/* XPM */
static char * left_arr_exp_xpm[] = {
"258 45 2 1",
" 	c None",
".	c #FFFFFF",
"     ..  .  ..   ....  .. .   .  . .. .......   ... .. ...     . . .                                                                                                                                                            ....                              ",
" .  .... ...... ... . .  .. . ... ... ..    ..  ... . . ..  . .. .  ..                                                                                                                                                            .......                        .",
"   ...... ..... . . ..  .. ... ..    ...  ...... ..  ..... . .. .....                                                                                                                                                               ........                   ...",
"    ......... .... .  ..  .  .. . ..   . . ..  ..  . . . .. ..  .  ..                                                                                                                                                                  .............         .... ",
"      .....  . .. .. ... . . .. ..  ..... ....   ..     .. ...  ......                                                                                                                                                                  ......................... ",
"        .... ... ......   ..... .  .  ...    .  .... .... ... ...  . ..                                                                                                                                                                   ......................  ",
"         . . . . ..... ....   ...... ... .    . . . .... ...   . .    ....                                                                                                                                                                 ....................   ",
"          .....   .. ......  .... . .   ..  .....  .    ..  . .   .... ....                                                                                                                                                                  ..................   ",
"            . ..... . .. .... . .. .  .  . .  ..... .  .. ..  ......... .....                                                                                                                                                                  ...............    ",
"              .....  .... ....  .   .  ....    ...     . ... ...       . ....  .                                                                                                                                                              ................    ",
"              .. . .... . ..   ..   ...      .  .  .... ..... .  .... .............                                                                                                                                                        ..................     ",
"               ...  .     .. . .. ..   ..    .  ..  .....  ......... ... .......... ..                                                                                                                                                  .....................     ",
"                 ........  . ......  .......   .... ..  . ....... .......................                                                                                                                                             .......................     ",
"                  . ...... . .  .    ...  ...  .... ..   ... .  ..   ......... .......  . ..                                                                                                                                       ..........................     ",
"                     .  ..  .. ...... .. .. . ..   ...   ... . ...  .. .. ..  ...... ........ .                                                                                                                                 .............................     ",
"                     .. ...  . ..  ...   .  ...   . ..   ....... . ..  ..... ......... ...  .......                                                                                                                         .................................     ",
"                       .. . . . ..  ... ..    ...    ..  .. ........ ...  ... .... .. ..........  . ...                                                                                                                  ....................................     ",
"                        .. ..  ..  ...  ... . ...  . ..   ..  .. ......  ..  ......... ........   ..... ...                                                                                                          ........................................     ",
"                          . . ......  . .    ..   ....  .... . .... .. ................... ... ... ............                                                                                                  ...................................   ......     ",
"                              .  . .. . .  ... ......    .... . .... . .  .. .......... . ..  . ......... ..........                                                                                        ........................................    .....     ",
"                              .. ..  .    ... . ....   ......    ............ ...  ....  ..... .... ... .............  ..                                                                              ...........................................       ....     ",
"                                     .  ........... .  ..  .. .   ......  .  .... . ...... .. .. .  .... ... ...... .... ......                                                                  ................................................        ....     ",
"                                   .   .. . .. ... ... .... ... .......  ..... . ... ...... ...   .....  .... ............... . ......                                                    ......................................................         ....     ",
"                                    . ..   .. ..   ..... ....... ... ... . ..  ...... . .. ..... ........ .......................................                               ..............................................................           ....     ",
"                                       .... ...  . .. ... . .  . .... .. ......... ...  ......   ...  .......... .... ............ ..........................................................................................................            ....     ",
"                                           . ... .......   . .......   .  .....   ........ .... . . ................. .................. ..................................................................................................               ...     ",
"                                              .. ...... .  ..... . ....    .. .. .... .  ... . ..  .. ....................................................................................................................................                ...     ",
"                                                ..  ..... ..... . . . . ... .. ...  ........ .... ...... ....... .......................................................................................................................                  ...     ",
"                                                 .. ........... .... .. .. .....  ... ..... .... .... . ... . ........... ............................................................................................................                    ...     ",
"                                                     .  . ....... .. .....  . . ............... .....   ... ..... ...................................................................................................................                     ...     ",
"                                                        ....... . ....... ...  ........ ..   . .. ....  . .... ...................................................................................................................                        ...     ",
"                                                           ........  . ......... ......... ....  . ... . . ................ .....................................................................................................                          ..     ",
"                                                               ...... .... ...... .......................  . ....  ... ..... .................................................................................................                                    ",
"                                                                    ....... ... .... ..   . .............. ....... .......... ..............................................................................................                                      ",
"                                                                       ....  .... .. .. .... ........ ... ... ...... ... .. ..............................................................................................                                        ",
"                                                                            . .  ........ ... ..... ...................................................................................................................                                           ",
"                                                                                .. ..  .  .. ....... ..  ...........................................................................................................                                              ",
"                                                                                     .  ...........  . ......... .......... .....................................................................................                                                 ",
"                                                                                          ... ...... .  ...   .. ............... ...... .....................................................................                                                     ",
"                                                                                               .. ... ...  ..... .....   .... ...........................................................................                                                         ",
"                                                                                                     ..... .   .. ............ ......................................................................                                                             ",
"                                                                                                           .............. .... .... ...........................................................                                                                   ",
"                                                                                                                   . .. . ..... .......................................................                                                                           ",
"                                                                                                                           ..... ... . . ...................................                                                                                      ",
"                                                                                                                                        .........................                                                                                                 "};
