/* XPM */
static char * left_arr_xpm[] = {
"296 45 3 1",
" 	c None",
".	c #FFFFFF",
"+	c #FBFCFD",
"                                                         ...................                                                                                                                                                         .....                              .                               ",
"                                                         ...................                                                                                                                                                            .......                        ..                               ",
"                                                        ....................                                                                                                                                                              .........                  ...                                ",
"                                                        ....................                                                                                                                                                                 ...............    ........                                ",
"                                                       ......................                                                                                                                                                                 .........................                                 ",
"                                                       .......................                                                                                                                                                                  ......................                                  ",
"                                                      ..........................                                                                                                                                                                 .....................                                  ",
"                                                      ...........................                                                                                                                                                                  ..................                                   ",
"                                                     ..............................                                                                                                                                                                  ...............                                    ",
"                                                     ..................................                                                                                                                                                             ................                                    ",
"                                                     ....................................                                                                                                                                                        ..................                                     ",
"                                                    ........................................                                                                                                                                                  .....................                                     ",
"                                                    ...........................................                                                                                                                                            ........................                                     ",
"                                                   ................................................                                                                                                                                     ...........................                                     ",
"                                                   ...................................................                                                                                                                               ..............................                                     ",
"                                                  ........................................................                                                                                                                        .................................                                     ",
"                                                  ...........................................................                                                                                                                 .....................................                                     ",
"                                                 ................................................................                                                                                                         .........................................                                     ",
"                                                 .....................................................................                                                                                                ....................................   ......                                     ",
"                                                ...........................................................................                                                                                      .........................................    .....                                     ",
"                                                ................................................................................                                                                            ............................................      .....                                     ",
"                                               ........................................................................................                                                               .................................................       .....                                     ",
"                                               ................................................................................................                                               ........................................................         ....                                     ",
"                                              ..............................................................................................................                     ...................................................................           ....                                     ",
"                                              .....................................................................................................................................................................................................            ....                                     ",
"                                               ...................................................................................................................................................................................................              ...                                     ",
"                                                  ..............................................................................................................................................................................................                ...                                     ",
"                                                     .........................................................................................................................................................................................                  ...                                     ",
"                                                       ......................................................................................................................................................................................                   ...                                     ",
"                                                           ................................................................................................................................................................................                     ...                                     ",
"                                                              ...........................................................................................................................................................................                       ...                                     ",
"                                                                 ......................................................................................................................................................................                         +..                                     ",
"                                                                     ................................................................................................................................................................                                                                   ",
"                                                                         .........................................................................................................................................................                                                                      ",
"                                                                            ....................................................................................................................................................                                                                        ",
"                                                                                 ............................................................................................................................................                                                                           ",
"                                                                                      ....................................................................................................................................                                                                              ",
"                                                                                           ............................................................................................................................                                                                                 ",
"                                                                                               .....................................................................................................................                                                                                    ",
"                                                                                                    ...........................................................................................................                                                                                         ",
"                                                                                                         ..................................................................................................                                                                                             ",
"                                                                                                               ......................................................................................                                                                                                   ",
"                                                                                                                      ........................................................................                                                                                                          ",
"                                                                                                                              ......................................................                                                                                                                    ",
"                                                                                                                                         ..................................                                                                                                                             "};
