/* XPM */
static char * left_arr_xpm[] = {
"296 45 16 1",
" 	c None",
".	c #FFFFFF",
"+	c #E8E8E8",
"@	c #CDCDCD",
"#	c #B0B0B0",
"$	c #F4F4F4",
"%	c #C8C8C8",
"&	c #B1B1B1",
"*	c #E5E5E5",
"=	c #E3E3E3",
"-	c #B4B4B4",
";	c #E0E0E0",
">	c #FBFBFB",
",	c #FAFAFA",
"'	c #F6F6F6",
")	c #F3F3F3",
"  ......................                                                              ....+@#                                                                                                                                                       ....                                                ",
"      .......................                                                    .........$%                                                                                                                                                          .......                        .                  ",
"       &*......................                                                ...........=-                                                                                                                                                            ........                   ...                  ",
"          -;.....................                                             ..........                                                                                                                                                                   .............         ....                   ",
"                 ..................                                          ...........                                                                                                                                                                    .........................                   ",
"                   ...................                                       ............                                                                                                                                                                     ......................                    ",
"                      ..................                                     .............                                                                                                                                                                     ....................                     ",
"                        .................                                     .............                                                                                                                                                                      ..................                     ",
"                           ................                                    .............                                                                                                                                                                       ...............                      ",
"                              ...............                                   ..............                                                                                                                                                                    ................                      ",
"                                ...............                                  ...............                                                                                                                                                               ..................                       ",
"                                  ...............                                 .................                                                                                                                                                         .....................                       ",
"                                    ...............                                 .................                                                                                                                                                     .......................                       ",
"                                      ................                               ...................                                                                                                                                               ..........................                       ",
"                                        ...............                                ...................                                                                                                                                          .............................                       ",
"                                         .................                               .....................                                                                                                                                  .................................                       ",
"                                           .................                               .......................                                                                                                                           ....................................                       ",
"                                             >...............                                ........................                                                                                                                    ........................................                       ",
"                                               ,...............                                ..........................                                                                                                            ...................................   ......                       ",
"                                                 '................                                ..........................                                                                                                    ........................................    .....                       ",
"                                                   )...............                                 ..............................                                                                                         ...........................................       ....                       ",
"                                                    )................                                  ....................................                                                                          ................................................        ....                       ",
"                                                      ..................                                  .......................................                                                             ......................................................         ....                       ",
"                                                        ...................                                   ...........................................       ...                                 ..............................................................           ....                       ",
"                                                          .....................                                  ................................................................................................................................................            ....                       ",
"                                                            .......................                                  ..........................................................................................................................................               ...                       ",
"                                                              .........................                                     ..................................................................................................................................                ...                       ",
"                                                                 ..........................                                   ..............................................................................................................................                  ...                       ",
"                                                                   ..............................                               ..........................................................................................................................                    ...                       ",
"                                                                      ................................                             ......................................................................................................................                     ...                       ",
"                                                                          .................................                             ..............................................................................................................                        ...                       ",
"                                                                             ....................................                             .......................................................................................................                          ..                       ",
"                                                                                ........................................                           ...............................................................................................                                                      ",
"                                                                                       .........................................                        ........................................................................................                                                        ",
"                                                                                           ...............................................    ...       ......................................................................................                                                          ",
"                                                                                                ...........................................................................................................................................                                                             ",
"                                                                                                    ....................................................................................................................................                                                                ",
"                                                                                                         ............................................................................................................................                                                                   ",
"                                                                                                              ...................................................................................................................                                                                       ",
"                                                                                                                   ..........................................................................................................                                                                           ",
"                                                                                                                         ................................................................................................                                                                               ",
"                                                                                                                               ....................................................................................                                                                                     ",
"                                                                                                                                      .....................................................................                                                                                             ",
"                                                                                                                                               .................................................                                                                                                        ",
"                                                                                                                                                            .........................                                                                                                                   "};
