/* XPM */
static char * LoadLang_u_Font_trans_50_xpm[] = {
"50 32 194 2",
"  	c None",
". 	c #BEBEBE",
"+ 	c #C4C4C4",
"@ 	c #CCCCCC",
"# 	c #BABABA",
"$ 	c #E5E5E5",
"% 	c #F9F9F9",
"& 	c #FFFFFF",
"* 	c #D8D8D8",
"= 	c #E9E9E9",
"- 	c #B7B6B6",
"; 	c #A5A4A4",
"> 	c #F6F6F6",
", 	c #FEFEFE",
"' 	c #9B9A9A",
") 	c #828080",
"! 	c #F2F2F2",
"~ 	c #E7E7E7",
"{ 	c #9F9F9F",
"] 	c #B9B9B9",
"^ 	c #C8C8C8",
"/ 	c #B7B7B7",
"( 	c #EEEEEE",
"_ 	c #D3D3D3",
": 	c #E6E6E6",
"< 	c #E0E0E0",
"[ 	c #F5F5F5",
"} 	c #F3F3F3",
"| 	c #828282",
"1 	c #D1D1D1",
"2 	c #E2E2E2",
"3 	c #E0DFDF",
"4 	c #CACACA",
"5 	c #A8A8A8",
"6 	c #999999",
"7 	c #989898",
"8 	c #656565",
"9 	c #C5C5C5",
"0 	c #757575",
"a 	c #C1C1C1",
"b 	c #8E8E8E",
"c 	c #666666",
"d 	c #575757",
"e 	c #AFAFAF",
"f 	c #A5A5A5",
"g 	c #A6A6A6",
"h 	c #A9A9A9",
"i 	c #ABABAB",
"j 	c #ACACAC",
"k 	c #AEAEAE",
"l 	c #ADADAD",
"m 	c #B1B1B1",
"n 	c #B8B8B8",
"o 	c #D4D4D4",
"p 	c #7E7E7E",
"q 	c #8A8A8A",
"r 	c #D7D7D7",
"s 	c #676767",
"t 	c #B0B0B0",
"u 	c #C0C0C0",
"v 	c #C6C6C6",
"w 	c #686868",
"x 	c #3F3F3F",
"y 	c #8C8C8C",
"z 	c #A2A2A2",
"A 	c #B2B2B2",
"B 	c #AAAAAA",
"C 	c #A0A0A0",
"D 	c #939393",
"E 	c #878787",
"F 	c #969696",
"G 	c #797979",
"H 	c #787878",
"I 	c #959595",
"J 	c #A1A1A1",
"K 	c #9D9D9D",
"L 	c #A7A7A7",
"M 	c #919191",
"N 	c #FCFCFC",
"O 	c #F8F8F8",
"P 	c #FBFBFB",
"Q 	c #BFBFBF",
"R 	c #D6D6D6",
"S 	c #D5D5D5",
"T 	c #9D9C9C",
"U 	c #A3A2A2",
"V 	c #9F9E9E",
"W 	c #A4A4A4",
"X 	c #7D7D7D",
"Y 	c #7C7C7C",
"Z 	c #6C6C6C",
"` 	c #767676",
" .	c #989797",
"..	c #6B6B6B",
"+.	c #CECECE",
"@.	c #525252",
"#.	c #6E6E6E",
"$.	c #858585",
"%.	c #5A5A5A",
"&.	c #A7A6A6",
"*.	c #929191",
"=.	c #9C9B9B",
"-.	c #6A6A6A",
";.	c #535353",
">.	c #929292",
",.	c #646464",
"'.	c #868686",
").	c #808080",
"!.	c #909090",
"~.	c #CFCFCF",
"{.	c #5C5C5C",
"].	c #464646",
"^.	c #636363",
"/.	c #555555",
"(.	c #707070",
"_.	c #ABE1A8",
":.	c #A0E39C",
"<.	c #AFE0AC",
"[.	c #777777",
"}.	c #737373",
"|.	c #C2C2C2",
"1.	c #7A7A7A",
"2.	c #818181",
"3.	c #8B8B8B",
"4.	c #C9C9C9",
"5.	c #D0D0D0",
"6.	c #9EE39A",
"7.	c #90E68A",
"8.	c #A3E29F",
"9.	c #979797",
"0.	c #4F4F4F",
"a.	c #EC6A6A",
"b.	c #F14E4E",
"c.	c #EA7373",
"d.	c #8F8F8F",
"e.	c #595959",
"f.	c #C7C7C7",
"g.	c #FDFDFD",
"h.	c #5E5E5E",
"i.	c #9A9A9A",
"j.	c #9B9B9B",
"k.	c #616161",
"l.	c #E3E3E3",
"m.	c #939292",
"n.	c #A2A1A1",
"o.	c #A8A7A7",
"p.	c #F7F7F7",
"q.	c #B5B5B5",
"r.	c #E1E1E1",
"s.	c #BCBBBB",
"t.	c #FAFAFA",
"u.	c #CBCBCB",
"v.	c #E8E8E8",
"w.	c #EBEBEB",
"x.	c #AAA9A9",
"y.	c #ABAAAA",
"z.	c #AFAEAE",
"A.	c #F0F0F0",
"B.	c #CDCDCD",
"C.	c #4B4B4B",
"D.	c #BCBCBC",
"E.	c #949292",
"F.	c #939191",
"G.	c #999898",
"H.	c #9E9E9E",
"I.	c #B3B3B3",
"J.	c #A9A8A8",
"K.	c #E2E1E1",
"L.	c #888888",
"M.	c #E4E4E4",
"N.	c #2C2C2C",
"O.	c #454545",
"P.	c #5F5C51",
"Q.	c #6B6A63",
"R.	c #949494",
"S.	c #E2D7A6",
"T.	c #FFF8DB",
"U.	c #EAEAEA",
"V.	c #898989",
"W.	c #A19B7E",
"X.	c #E8E5D8",
"Y.	c #E1D498",
"Z.	c #A39E85",
"`.	c #E6E5E5",
" +	c #DFDFDF",
".+	c #D1C693",
"++	c #E4CE6B",
"@+	c #8D8048",
"#+	c #E5CD63",
"$+	c #B2AB8C",
"%+	c #BBB7A5",
"&+	c #CCC297",
"*+	c #9B9682",
"=+	c #AAA489",
"                                                                      . . . . . . . . . . + @ @ @ # ",
"          $ % & & & & & & &                                           * * * * * * * * * * = - ; > @ ",
"  & & & & , , & & & & & & & & & &                                     * * * * * * * * * * = ' ) ! @ ",
"      ~ { ] ^ / ( _ : < [ ~ [ } = |                                   1 1 1 1 1 1 1 1 1 1 2 $ 3 > 4 ",
"        5 6 7 8 9 0 a | 1 { / b c d                                   e f g 5 h i j k k l m n m o . ",
"          e p q r s t j u g v w x y                                   e { z 5 h k e A A m B C D 1 . ",
"            i E r F G 0 k H g I H J                                   e K { f L i j e e l g K M 1 . ",
"              % , N % O N % P N P P                                   e k k e e e e e e e Q R S * . ",
"              & & & & & & & & & &                                     e e e e e e e e e e a * * * . ",
"                & & & & & & & &                                       e B T T T T T T U e a * * * . ",
"                    & & &           f M                               e B V V V V V V W e a * * * . ",
"                                  X Y Z `                             e 5  . . . . . .{ e a * * * . ",
"                                ..l +.@.g   M #.$.$.$.$.$.$.%.9       e &.*.*.*.*.*.*.=.e a * * * . ",
"                              -.1 a ;.>.    ,.'.C C C C C j ).!.      e e e e e e e e e e a * * * . ",
"                            ` ~.[ {.].        ^./././././.d (.        e e e e e e e e e e a _.:.<.. ",
"                            [.}.|._ 0 1.    2.X 3.3.3.3.3.3.(.        4.4.4.4.4.4.4.4.4.4.5.6.7.8.. ",
"                              9.{.E : p z   0 0./././././.^.(.        * * * * * * * * * * * a.b.c.. ",
"          & & & & & & & & / d.    [.(.e.W                             # # ] n n n n # # # f.* * * . ",
"] '       , N , , g.& & & 2 h.      i.3.                              e e j.@.@.@.k.W e e a * * * . ",
"1 k V     o | m 5./ . l., ,                                           e e { 1.1.1.2.f m.g a * * * . ",
"  4 n.o.  p.q.. m @ E r., &                                           e e e e e e e e e e a * * * . ",
"    s.n._ g.t.% u.v.: '.w.&                                           e e e 5 5 x.i y.5 e a * * * . ",
"    o z.t A.N B.C.D.k h.R &                                           e e k E.F.G.H.T F.e a * * * . ",
"        U |.[ N + + i I.$ &                                           e e k E.F.G.H.T F.e a * * * . ",
"        D.J.S P g.e A z , &                                           e e k E.F.G.H.T F.e a 1 o * . ",
"          K.q.L.M.u.r M g.&                                           e e k E.F.G.H.T F.e a N.O.~.. ",
"          , A.$.l & & & & &                                           e e k E.F.G.H.T F.e a P.Q.q.. ",
"          & & ( < & & & & &                                           e e k E.F.G.H.T F.e R.S.T.;.. ",
"          U.U.U.U.U.U.~ < 2                                           e e k G. .T n.C  .e ,.u.& w k ",
"      % v.M.M.M.M.M.r.4.V.>.                                          e e e e e e e e e e W.X.& Y.Z.",
"      `.< < < < < <  +u.-.E                                           e e e e e e e e e e .+++@+#+$+",
"                                                                      e e e e e e e e e e %+&+*+=+7 "};
