/* XPM */
static char * LoadZaub_trans_50_xpm[] = {
"50 32 334 2",
"  	c None",
". 	c #BEBEBE",
"+ 	c #C4C4C4",
"@ 	c #CCCCCC",
"# 	c #BABABA",
"$ 	c #D5ACFF",
"% 	c #D8D8D8",
"& 	c #E9E9E9",
"* 	c #B7B6B6",
"= 	c #A5A4A4",
"- 	c #F6F6F6",
"; 	c #D4A9FF",
"> 	c #D7B0FE",
", 	c #D3A8FF",
"' 	c #D6ACFF",
") 	c #D6ACFE",
"! 	c #9B9A9A",
"~ 	c #828080",
"{ 	c #F2F2F2",
"] 	c #D7B0FF",
"^ 	c #D4AAFF",
"/ 	c #D6AEFE",
"( 	c #CFA1FF",
"_ 	c #D1A2FF",
": 	c #D3A7FF",
"< 	c #D1D1D1",
"[ 	c #E2E2E2",
"} 	c #E5E5E5",
"| 	c #E0DFDF",
"1 	c #CACACA",
"2 	c #DAB7FE",
"3 	c #D5ABFF",
"4 	c #DAB6FE",
"5 	c #DCBAFF",
"6 	c #D9B4FE",
"7 	c #D0A4FF",
"8 	c #AFAFAF",
"9 	c #A5A5A5",
"0 	c #A6A6A6",
"a 	c #A8A8A8",
"b 	c #A9A9A9",
"c 	c #ABABAB",
"d 	c #ACACAC",
"e 	c #AEAEAE",
"f 	c #ADADAD",
"g 	c #B1B1B1",
"h 	c #B8B8B8",
"i 	c #D4D4D4",
"j 	c #D3A8FE",
"k 	c #DBB7FF",
"l 	c #E5CDFF",
"m 	c #EAD6FF",
"n 	c #E6CEFF",
"o 	c #DAB7FF",
"p 	c #D2A6FF",
"q 	c #CFA0FF",
"r 	c #9F9F9F",
"s 	c #A2A2A2",
"t 	c #B2B2B2",
"u 	c #AAAAAA",
"v 	c #A0A0A0",
"w 	c #939393",
"x 	c #D4A8FF",
"y 	c #E3C7FF",
"z 	c #EFE0FF",
"A 	c #F4EAFF",
"B 	c #E3C8FF",
"C 	c #9D9D9D",
"D 	c #A7A7A7",
"E 	c #919191",
"F 	c #D4B0F1",
"G 	c #D4B2ED",
"H 	c #D3B1E9",
"I 	c #E5D0F3",
"J 	c #F4ECFA",
"K 	c #F9F6FD",
"L 	c #F2EAF9",
"M 	c #E5D2F4",
"N 	c #D4B2EB",
"O 	c #D1ACEC",
"P 	c #CCAADA",
"Q 	c #BFBFBF",
"R 	c #D6D6D6",
"S 	c #D5D5D5",
"T 	c #CCB4C3",
"U 	c #CEB4CD",
"V 	c #CFB6CC",
"W 	c #E0D0E0",
"X 	c #EFE8EF",
"Y 	c #F8F5F9",
"Z 	c #EEE8EF",
"` 	c #E0CFE0",
" .	c #D1B8CE",
"..	c #D1B8D1",
"+.	c #C4B1AD",
"@.	c #A19A86",
"#.	c #ACAB82",
"$.	c #C1C1C1",
"%.	c #CAB4B7",
"&.	c #CDB3CB",
"*.	c #CFB7CB",
"=.	c #DDCBDC",
"-.	c #EADFEA",
";.	c #EFE8F5",
">.	c #E7DCE9",
",.	c #DCC9DB",
"'.	c #D1B8D0",
").	c #CEB3D0",
"!.	c #C8B5AE",
"~.	c #867F79",
"{.	c #525252",
"].	c #9D9C9C",
"^.	c #A3A2A2",
"/.	c #CAB8AC",
"(.	c #CCB2C7",
"_.	c #CDB3C9",
":.	c #D6C0D4",
"<.	c #E1D0E2",
"[.	c #DFD2EB",
"}.	c #DBCBDF",
"|.	c #D6C0D5",
"1.	c #D5BDD8",
"2.	c #D4BCD8",
"3.	c #CABAAC",
"4.	c #9F9E9E",
"5.	c #A4A4A4",
"6.	c #CABDA2",
"7.	c #CBB3BF",
"8.	c #D2B9D0",
"9.	c #D0B8CB",
"0.	c #D3BDD2",
"a.	c #B8A4CB",
"b.	c #C9B3CF",
"c.	c #CEB5CA",
"d.	c #D3B8D6",
"e.	c #D3BCD2",
"f.	c #D0C5AC",
"g.	c #7D7D7D",
"h.	c #7C7C7C",
"i.	c #6C6C6C",
"j.	c #767676",
"k.	c #989797",
"l.	c #CAC297",
"m.	c #CBB9B3",
"n.	c #CEB5CB",
"o.	c #C7ADC5",
"p.	c #957CAB",
"q.	c #BBA1C2",
"r.	c #CCB1C9",
"s.	c #CDB2CB",
"t.	c #CBB6B7",
"u.	c #CDC59C",
"v.	c #6B6B6B",
"w.	c #CECECE",
"x.	c #6E6E6E",
"y.	c #858585",
"z.	c #5A5A5A",
"A.	c #C5C5C5",
"B.	c #A7A6A6",
"C.	c #929191",
"D.	c #9C9B9B",
"E.	c #C9C58C",
"F.	c #CBBEA3",
"G.	c #CAB3B9",
"H.	c #D0B8CE",
"I.	c #C8AECB",
"J.	c #967BAE",
"K.	c #BCA1C6",
"L.	c #CEB3CB",
"M.	c #CABCA4",
"N.	c #6A6A6A",
"O.	c #535353",
"P.	c #929292",
"Q.	c #646464",
"R.	c #868686",
"S.	c #808080",
"T.	c #909090",
"U.	c #C8C683",
"V.	c #CCB789",
"W.	c #CBBDA5",
"X.	c #CEBABB",
"Y.	c #C6AEBE",
"Z.	c #967FAA",
"`.	c #B79FB9",
" +	c #C9B4B5",
".+	c #CCB78A",
"++	c #CFCFCF",
"@+	c #F5F5F5",
"#+	c #5C5C5C",
"$+	c #464646",
"%+	c #636363",
"&+	c #555555",
"*+	c #575757",
"=+	c #707070",
"-+	c #ABE1A8",
";+	c #A0E39C",
">+	c #AFE0AC",
",+	c #C8C781",
"'+	c #CCB57A",
")+	c #CAC594",
"!+	c #CCC0A4",
"~+	c #C3B4A7",
"{+	c #80718B",
"]+	c #AF9FA0",
"^+	c #CABEA1",
"/+	c #CCB88B",
"(+	c #D6875E",
"_+	c #C8C580",
":+	c #777777",
"<+	c #737373",
"[+	c #C2C2C2",
"}+	c #D3D3D3",
"|+	c #757575",
"1+	c #7A7A7A",
"2+	c #818181",
"3+	c #8B8B8B",
"4+	c #C9C9C9",
"5+	c #D0D0D0",
"6+	c #9EE39A",
"7+	c #90E68A",
"8+	c #A3E29F",
"9+	c #D19F6A",
"0+	c #D29865",
"a+	c #CAC288",
"b+	c #BEB98B",
"c+	c #605A5F",
"d+	c #A7A184",
"e+	c #C9C58A",
"f+	c #959595",
"g+	c #878787",
"h+	c #E6E6E6",
"i+	c #7E7E7E",
"j+	c #4F4F4F",
"k+	c #EC6A6A",
"l+	c #F14E4E",
"m+	c #EA7373",
"n+	c #CDAE72",
"o+	c #CBB979",
"p+	c #C9C480",
"q+	c #B6B578",
"r+	c #45443E",
"s+	c #A19871",
"t+	c #D29866",
"u+	c #D19E69",
"v+	c #CFA86F",
"w+	c #C8C680",
"x+	c #595959",
"y+	c #B9B9B9",
"z+	c #C7C7C7",
"A+	c #CCB476",
"B+	c #D5895D",
"C+	c #D0A36C",
"D+	c #B5B474",
"E+	c #404038",
"F+	c #9E9E72",
"G+	c #CCB778",
"H+	c #9A9A9A",
"I+	c #9B9B9B",
"J+	c #616161",
"K+	c #CDB174",
"L+	c #D39564",
"M+	c #CCB375",
"N+	c #B4B374",
"O+	c #9F9E72",
"P+	c #C9C17E",
"Q+	c #C9C37E",
"R+	c #C9C27E",
"S+	c #939292",
"T+	c #CAC07D",
"U+	c #CCB577",
"V+	c #CBBA79",
"W+	c #C2C174",
"X+	c #C3C276",
"Y+	c #B0AF6A",
"Z+	c #3F3F37",
"`+	c #9C9B6B",
" @	c #AAA9A9",
".@	c #ABAAAA",
"+@	c #C5C47C",
"@@	c #C0BF6E",
"#@	c #C0BF6F",
"$@	c #ACAB64",
"%@	c #3F3E36",
"&@	c #9A9967",
"*@	c #B8B65C",
"=@	c #A5A44A",
"-@	c #AAA94B",
";@	c #949292",
">@	c #939191",
",@	c #999898",
"'@	c #9E9E9E",
")@	c #C6C57C",
"!@	c #C6C57D",
"~@	c #B1B070",
"{@	c #9E9D70",
"]@	c #C5C47B",
"^@	c #C1C071",
"/@	c #B3B259",
"(@	c #929145",
"_@	c #BEBD9E",
":@	c #BBBA99",
"<@	c #B8B795",
"[@	c #9F9E81",
"}@	c #3B3B38",
"|@	c #8E8D7A",
"1@	c #A8A784",
"2@	c #67663D",
"3@	c #303030",
"4@	c #2C2C2C",
"5@	c #454545",
"6@	c #5F5C51",
"7@	c #6B6A63",
"8@	c #B5B5B5",
"9@	c #949494",
"0@	c #E2D7A6",
"a@	c #FFF8DB",
"b@	c #A2A1A1",
"c@	c #CBCBCB",
"d@	c #FFFFFF",
"e@	c #686868",
"f@	c #A19B7E",
"g@	c #E8E5D8",
"h@	c #E1D498",
"i@	c #A39E85",
"j@	c #D1C693",
"k@	c #E4CE6B",
"l@	c #8D8048",
"m@	c #E5CD63",
"n@	c #B2AB8C",
"o@	c #BBB7A5",
"p@	c #CCC297",
"q@	c #9B9682",
"r@	c #AAA489",
"s@	c #989898",
"                                                                      . . . . . . . . . . + @ @ @ # ",
"              $                                                       % % % % % % % % % % & * = - @ ",
"          ; > , ' )                                                   % % % % % % % % % % & ! ~ { @ ",
"        ] ^ / ( _ ^ :                                                 < < < < < < < < < < [ } | - 1 ",
"      2 3 3 4 5 6 7 3                                                 8 9 0 a b c d e e f g h g i . ",
"      4 j k l m n o p q                                               8 r s a b e 8 t t g u v w < . ",
"      : x y z A z B $ p                                               8 C r 9 D c d 8 8 f 0 C E < . ",
"    F G H I J K L M N O P                                             8 e e 8 8 8 8 8 8 8 Q R S % . ",
"    T U V W X Y Z `  ...+.@.#.                                        8 8 8 8 8 8 8 8 8 8 $.% % % . ",
"    %.&.*.=.-.;.>.,.'.).!.~.{.                                        8 u ].].].].].].^.8 $.% % % . ",
"    /.(._.:.<.[.}.|.1.2.3.          9 E                               8 u 4.4.4.4.4.4.5.8 $.% % % . ",
"    6.7.8.9.0.a.b.c.d.e.f.        g.h.i.j.                            8 a k.k.k.k.k.k.r 8 $.% % % . ",
"    l.m.V n.o.p.q.r.s.t.u.      v.f w.{.0   E x.y.y.y.y.y.y.z.A.      8 B.C.C.C.C.C.C.D.8 $.% % % . ",
"    E.F.G.H.I.J.K.L.G.M.E.    N.< $.O.P.    Q.R.v v v v v d S.T.      8 8 8 8 8 8 8 8 8 8 $.% % % . ",
"    U.V.W.X.Y.Z.`. +M..+U.  j.++@+#+$+        %+&+&+&+&+&+*+=+        8 8 8 8 8 8 8 8 8 8 $.-+;+>+. ",
"    ,+'+)+!+~+{+]+^+/+(+_+  :+<+[+}+|+1+    2+g.3+3+3+3+3+3+=+        4+4+4+4+4+4+4+4+4+4+5+6+7+8+. ",
"    ,+9+0+a+b+c+d+e+U.,+,+    f+#+g+h+i+s   |+j+&+&+&+&+&+%+=+        % % % % % % % % % % % k+l+m+. ",
"    n+o+p+,+q+r+s+t+u+v+w+        :+=+x+5.                            # # y+h h h h # # # z+% % % . ",
"    A+B+C+_+D+E+F+,+C+G+,+          H+3+                              8 8 I+{.{.{.J+5.8 8 $.% % % . ",
"    K+L+M+_+N+E+O+P+Q+R+,+                                            8 8 r 1+1+1+2+9 S+0 $.% % % . ",
"    ,+T+C+_+N+E+O+U+V+o+,+                                            8 8 8 8 8 8 8 8 8 8 $.% % % . ",
"    W+X+X+X+Y+Z+`+X+X+X+X+                                            8 8 8 a a  @c .@a 8 $.% % % . ",
"  +@@@#@#@#@$@%@&@@@*@=@-@                                            8 8 e ;@>@,@'@].>@8 $.% % % . ",
")@!@!@!@!@!@~@E+{@]@^@/@(@                                            8 8 e ;@>@,@'@].>@8 $.% % % . ",
"_@:@<@<@<@<@[@}@|@<@1@2@                                              8 8 e ;@>@,@'@].>@8 $.< i % . ",
"              3@                                                      8 8 e ;@>@,@'@].>@8 $.4@5@++. ",
"              3@                                                      8 8 e ;@>@,@'@].>@8 $.6@7@8@. ",
"              3@                                                      8 8 e ;@>@,@'@].>@8 9@0@a@O.. ",
"              3@                                                      8 8 e ,@k.].b@v k.8 Q.c@d@e@e ",
"              3@                                                      8 8 8 8 8 8 8 8 8 8 f@g@d@h@i@",
"                                                                      8 8 8 8 8 8 8 8 8 8 j@k@l@m@n@",
"                                                                      8 8 8 8 8 8 8 8 8 8 o@p@q@r@s@"};
