/* XPM */
static char * LoadWeapon_trans_50_xpm[] = {
"50 32 232 2",
"  	c None",
". 	c #BEBEBE",
"+ 	c #C4C4C4",
"@ 	c #CCCCCC",
"# 	c #BABABA",
"$ 	c #6585A0",
"% 	c #D8D8D8",
"& 	c #E9E9E9",
"* 	c #B7B6B6",
"= 	c #A5A4A4",
"- 	c #F6F6F6",
"; 	c #9B9A9A",
"> 	c #828080",
", 	c #F2F2F2",
"' 	c #59758D",
") 	c #5D7C94",
"! 	c #D1D1D1",
"~ 	c #E2E2E2",
"{ 	c #E5E5E5",
"] 	c #E0DFDF",
"^ 	c #CACACA",
"/ 	c #5A778F",
"( 	c #AFAFAF",
"_ 	c #A5A5A5",
": 	c #A6A6A6",
"< 	c #A8A8A8",
"[ 	c #A9A9A9",
"} 	c #ABABAB",
"| 	c #ACACAC",
"1 	c #AEAEAE",
"2 	c #ADADAD",
"3 	c #B1B1B1",
"4 	c #B8B8B8",
"5 	c #D4D4D4",
"6 	c #5C7991",
"7 	c #5E7D96",
"8 	c #9F9F9F",
"9 	c #A2A2A2",
"0 	c #B2B2B2",
"a 	c #AAAAAA",
"b 	c #A0A0A0",
"c 	c #939393",
"d 	c #5B7992",
"e 	c #607F98",
"f 	c #9D9D9D",
"g 	c #A7A7A7",
"h 	c #919191",
"i 	c #7B670A",
"j 	c #BFBFBF",
"k 	c #D6D6D6",
"l 	c #D5D5D5",
"m 	c #7C6604",
"n 	c #C1C1C1",
"o 	c #9D9C9C",
"p 	c #A3A2A2",
"q 	c #63B9FF",
"r 	c #9F9E9E",
"s 	c #A4A4A4",
"t 	c #3F6E95",
"u 	c #559DDA",
"v 	c #5CABED",
"w 	c #4987BB",
"x 	c #7D7D7D",
"y 	c #7C7C7C",
"z 	c #6C6C6C",
"A 	c #767676",
"B 	c #989797",
"C 	c #264661",
"D 	c #447FAF",
"E 	c #549CD8",
"F 	c #2F5678",
"G 	c #6B6B6B",
"H 	c #CECECE",
"I 	c #525252",
"J 	c #6E6E6E",
"K 	c #858585",
"L 	c #5A5A5A",
"M 	c #C5C5C5",
"N 	c #A7A6A6",
"O 	c #929191",
"P 	c #9C9B9B",
"Q 	c #2B5170",
"R 	c #58A3E2",
"S 	c #63B8FF",
"T 	c #3E74A0",
"U 	c #213D55",
"V 	c #6A6A6A",
"W 	c #535353",
"X 	c #929292",
"Y 	c #646464",
"Z 	c #868686",
"` 	c #808080",
" .	c #909090",
"..	c #3B6D97",
"+.	c #6197B2",
"@.	c #738562",
"#.	c #539AD6",
"$.	c #294C69",
"%.	c #CFCFCF",
"&.	c #F5F5F5",
"*.	c #5C5C5C",
"=.	c #464646",
"-.	c #636363",
";.	c #555555",
">.	c #575757",
",.	c #707070",
"'.	c #ABE1A8",
").	c #A0E39C",
"!.	c #AFE0AC",
"~.	c #2D5373",
"{.	c #56A1DF",
"].	c #60B3F7",
"^.	c #3D729E",
"/.	c #777777",
"(.	c #737373",
"_.	c #C2C2C2",
":.	c #D3D3D3",
"<.	c #757575",
"[.	c #7A7A7A",
"}.	c #818181",
"|.	c #8B8B8B",
"1.	c #C9C9C9",
"2.	c #D0D0D0",
"3.	c #9EE39A",
"4.	c #90E68A",
"5.	c #A3E29F",
"6.	c #4886BA",
"7.	c #4886B9",
"8.	c #2E5576",
"9.	c #959595",
"0.	c #878787",
"a.	c #E6E6E6",
"b.	c #7E7E7E",
"c.	c #4F4F4F",
"d.	c #EC6A6A",
"e.	c #F14E4E",
"f.	c #EA7373",
"g.	c #4E92CA",
"h.	c #315B7F",
"i.	c #595959",
"j.	c #B9B9B9",
"k.	c #C7C7C7",
"l.	c #4784B7",
"m.	c #2C5272",
"n.	c #59A6E5",
"o.	c #9A9A9A",
"p.	c #9B9B9B",
"q.	c #616161",
"r.	c #5EAFF2",
"s.	c #355D7A",
"t.	c #314A54",
"u.	c #4D90C7",
"v.	c #62B6FC",
"w.	c #939292",
"x.	c #5BA9EA",
"y.	c #4682B4",
"z.	c #384334",
"A.	c #6F600F",
"B.	c #325C80",
"C.	c #5299D3",
"D.	c #5196D0",
"E.	c #7A6505",
"F.	c #25445E",
"G.	c #3F76A3",
"H.	c #5DADF0",
"I.	c #AAA9A9",
"J.	c #ABAAAA",
"K.	c #3A6C96",
"L.	c #2A4D6B",
"M.	c #56A0DE",
"N.	c #949292",
"O.	c #939191",
"P.	c #999898",
"Q.	c #9E9E9E",
"R.	c #4C8EC5",
"S.	c #254560",
"T.	c #36658C",
"U.	c #59A6E6",
"V.	c #C0A806",
"W.	c #5EA8E0",
"X.	c #356288",
"Y.	c #2A4D6C",
"Z.	c #4D8DC0",
"`.	c #7F6E04",
" +	c #AB9A0F",
".+	c #465643",
"++	c #7D6704",
"@+	c #848026",
"#+	c #A59005",
"$+	c #635603",
"%+	c #2C2C2C",
"&+	c #454545",
"*+	c #A18D0F",
"=+	c #7B6B05",
"-+	c #9C8805",
";+	c #7F6904",
">+	c #BCA406",
",+	c #7D6D04",
"'+	c #84740A",
")+	c #BDA612",
"!+	c #5F5C51",
"~+	c #6B6A63",
"{+	c #B5B5B5",
"]+	c #D1B816",
"^+	c #92800F",
"/+	c #6C5F0B",
"(+	c #C3AB14",
"_+	c #949494",
":+	c #E2D7A6",
"<+	c #FFF8DB",
"[+	c #A28E11",
"}+	c #685C0B",
"|+	c #4E4508",
"1+	c #8B7A0F",
"2+	c #A2A1A1",
"3+	c #CBCBCB",
"4+	c #FFFFFF",
"5+	c #686868",
"6+	c #A19B7E",
"7+	c #E8E5D8",
"8+	c #E1D498",
"9+	c #A39E85",
"0+	c #D1C693",
"a+	c #E4CE6B",
"b+	c #8D8048",
"c+	c #E5CD63",
"d+	c #B2AB8C",
"e+	c #BBB7A5",
"f+	c #CCC297",
"g+	c #9B9682",
"h+	c #AAA489",
"i+	c #989898",
"                                                                      . . . . . . . . . . + @ @ @ # ",
"      $ $                                                             % % % % % % % % % % & * = - @ ",
"      $ $ $                                                           % % % % % % % % % % & ; > , @ ",
"      $ $ $ $ ' )                                                     ! ! ! ! ! ! ! ! ! ! ~ { ] - ^ ",
"      $ $ $ $ / )                                                     ( _ : < [ } | 1 1 2 3 4 3 5 . ",
"      $ $   $ 6 7                                                     ( 8 9 < [ 1 ( 0 0 3 a b c ! . ",
"      $       d e                                                     ( f 8 _ g } | ( ( 2 : f h ! . ",
"      $         i                                                     ( 1 1 ( ( ( ( ( ( ( j k l % . ",
"      $         m                                                     ( ( ( ( ( ( ( ( ( ( n % % % . ",
"                m                                                     ( a o o o o o o p ( n % % % . ",
"                m       q           _ h                               ( a r r r r r r s ( n % % % . ",
"        t u     m   v w           x y z A                             ( < B B B B B B 8 ( n % % % . ",
"        C D     m   E F         G 2 H I :   h J K K K K K K L M       ( N O O O O O O P ( n % % % . ",
"          Q R   m S T U       V ! n W X     Y Z b b b b b | `  .      ( ( ( ( ( ( ( ( ( ( n % % % . ",
"            ..+.@.#.$.      A %.&.*.=.        -.;.;.;.;.;.>.,.        ( ( ( ( ( ( ( ( ( ( n '.).!.. ",
"            ~.{.].^.        /.(._.:.<.[.    }.x |.|.|.|.|.|.,.        1.1.1.1.1.1.1.1.1.1.2.3.4.5.. ",
"              6.7.8.          9.*.0.a.b.9   <.c.;.;.;.;.;.-.,.        % % % % % % % % % % % d.e.f.. ",
"              g.h.                /.,.i.s                             # # j.4 4 4 4 # # # k.% % % . ",
"              l.m.n.                o.|.                              ( ( p.I I I q.s ( ( n % % % . ",
"            r.s.t.u.v.                                                ( ( 8 [.[.[.}._ w.: n % % % . ",
"          x.y.z.A.B.C.                                                ( ( ( ( ( ( ( ( ( ( n % % % . ",
"          D.m.  E.F.G.H.                                              ( ( ( < < I.} J.< ( n % % % . ",
"        S K.U   m   L.M.                                              ( ( 1 N.O.P.Q.o O.( n % % % . ",
"        R.S.    m     T.U.                                            ( ( 1 N.O.P.Q.o O.( n % % % . ",
"  V.  W.X.      m     Y.Z.  V.                                        ( ( 1 N.O.P.Q.o O.( n ! 5 % . ",
"    `. +.+      ++      @+#+$+                                        ( ( 1 N.O.P.Q.o O.( n %+&+%.. ",
"    *+=+-+      ;+    >+,+'+)+                                        ( ( 1 N.O.P.Q.o O.( n !+~+{+. ",
"  ]+^+          ;+        /+(+                                        ( ( 1 N.O.P.Q.o O.( _+:+<+W . ",
"  [+}+                    |+1+(+                                      ( ( 1 P.B o 2+b B ( Y 3+4+5+1 ",
"                                                                      ( ( ( ( ( ( ( ( ( ( 6+7+4+8+9+",
"                                                                      ( ( ( ( ( ( ( ( ( ( 0+a+b+c+d+",
"                                                                      ( ( ( ( ( ( ( ( ( ( e+f+g+h+i+"};
