/* XPM */
static char * LoadChar_trans_50_xpm[] = {
"51 32 256 2",
"  	c None",
". 	c #020202",
"+ 	c #025E16",
"@ 	c #96960A",
"# 	c #4E620E",
"$ 	c #C69A12",
"% 	c #035A16",
"& 	c #C6C6C6",
"* 	c #EE7302",
"= 	c #F6F60E",
"- 	c #F6D25A",
"; 	c #2E440E",
"> 	c #DABE02",
", 	c #3E3A0E",
"' 	c #EACA5E",
") 	c #B26A02",
"! 	c #165212",
"~ 	c #FAC602",
"{ 	c #2A2606",
"] 	c #B69622",
"^ 	c #5E6E2E",
"/ 	c #764E0E",
"( 	c #056619",
"_ 	c #EEDA8E",
": 	c #E6EA0A",
"< 	c #8A9662",
"[ 	c #201A02",
"} 	c #826606",
"| 	c #FEFA5E",
"1 	c #C6964E",
"2 	c #924602",
"3 	c #C2B276",
"4 	c #DEDEDE",
"5 	c #265A16",
"6 	c #43611B",
"7 	c #827236",
"8 	c #E2E2E2",
"9 	c #C69E06",
"0 	c #066E1A",
"a 	c #B68612",
"b 	c #928656",
"c 	c #F1F102",
"d 	c #5A521E",
"e 	c #8A8E12",
"f 	c #764A0A",
"g 	c #32822A",
"h 	c #ECEAE8",
"i 	c #EA8A02",
"j 	c #1E1202",
"k 	c #C25A02",
"l 	c #866222",
"m 	c #927236",
"n 	c #F2F29A",
"o 	c #F6DA52",
"p 	c #06721A",
"q 	c #D6B20A",
"r 	c #1A1202",
"s 	c #2A5E12",
"t 	c #DC6A02",
"u 	c #B2AEA2",
"v 	c #F2F1F0",
"w 	c #CACACA",
"x 	c #5A5226",
"y 	c #82824E",
"z 	c #BB8126",
"A 	c #1F791A",
"B 	c #B2A28E",
"C 	c #FAFE1A",
"D 	c #E6C24E",
"E 	c #EA8602",
"F 	c #F1F603",
"G 	c #EE9602",
"H 	c #3A3E0E",
"I 	c #5E5E5E",
"J 	c #EEC20E",
"K 	c #FEE65A",
"L 	c #120E02",
"M 	c #06761A",
"N 	c #C2C2C2",
"O 	c #8E6E22",
"P 	c #E6DAB2",
"Q 	c #F6F6F6",
"R 	c #766830",
"S 	c #CA741E",
"T 	c #2A2A2C",
"U 	c #929292",
"V 	c #4F3E0C",
"W 	c #D2B080",
"X 	c #524E36",
"Y 	c #C08C3C",
"Z 	c #EAA602",
"` 	c #62625E",
" .	c #FAB702",
"..	c #2E6A16",
"+.	c #424242",
"@.	c #FEEA5A",
"#.	c #3E1A02",
"$.	c #8E8E0E",
"%.	c #928662",
"&.	c #B77818",
"*.	c #226216",
"=.	c #5E6226",
"-.	c #9A9A9A",
";.	c #EEAA02",
">.	c #0E7A1A",
",.	c #E6CE02",
"'.	c #C2BE9A",
").	c #9A7206",
"!.	c #323206",
"~.	c #3A3A3A",
"{.	c #6A6A69",
"].	c #6E563A",
"^.	c #DAC286",
"/.	c #EAD202",
"(.	c #221E06",
"_.	c #7A7A7A",
":.	c #FA7202",
"<.	c #4A4E16",
"[.	c #627E32",
"}.	c #AA7602",
"|.	c #AE8A06",
"1.	c #525252",
"2.	c #A2A2A2",
"3.	c #898989",
"4.	c #86540A",
"5.	c #FAFE03",
"6.	c #FDFA59",
"7.	c #8E8064",
"8.	c #0A0A0A",
"9.	c #BAB692",
"0.	c #067E1E",
"a.	c #EEE602",
"b.	c #A28E6A",
"c.	c #BA6E1E",
"d.	c #EE7E02",
"e.	c #C29246",
"f.	c #BBBAB6",
"g.	c #E8B608",
"h.	c #DADADA",
"i.	c #F28602",
"j.	c #E2BE02",
"k.	c #CEA616",
"l.	c #568232",
"m.	c #6E6E6E",
"n.	c #C6A64A",
"o.	c #7E7632",
"p.	c #222222",
"q.	c #FA9E02",
"r.	c #FAFAF9",
"s.	c #F27A02",
"t.	c #3E2E0A",
"u.	c #EEDA02",
"v.	c #FAEA02",
"w.	c #07821E",
"x.	c #7E5F1F",
"y.	c #125612",
"z.	c #FAEE02",
"A.	c #168622",
"B.	c #F27E02",
"C.	c #FA8A02",
"D.	c #B28A22",
"E.	c #6E660E",
"F.	c #A96B05",
"G.	c #FAFA04",
"H.	c #BEBEBE",
"I.	c #AA7E26",
"J.	c #166A1A",
"K.	c #3A4A0E",
"L.	c #201C0E",
"M.	c #5A6E2A",
"N.	c #76520F",
"O.	c #FAC002",
"P.	c #D4D4D4",
"Q.	c #343434",
"R.	c #C87E1E",
"S.	c #FA9402",
"T.	c #62662A",
"U.	c #467A2A",
"V.	c #06861E",
"W.	c #4E4222",
"X.	c #565656",
"Y.	c #0E5E16",
"Z.	c #FBE102",
"`.	c #D3B78B",
" +	c #FAA602",
".+	c #FAD002",
"++	c #403620",
"@+	c #B6720E",
"#+	c #B2B0A6",
"$+	c #FA7602",
"%+	c #228226",
"&+	c #8A7C4A",
"*+	c #7E7232",
"=+	c #161616",
"-+	c #BEB08C",
";+	c #E6DA02",
">+	c #EDBE08",
",+	c #AAAAAA",
"'+	c #A24602",
")+	c #3A620E",
"!+	c #524A36",
"~+	c #F2AA02",
"{+	c #DEAE0E",
"]+	c #EC7A02",
"^+	c #0E5612",
"/+	c #C6B296",
"(+	c #FDFD0F",
"_+	c #FAD902",
":+	c #FA7A02",
"<+	c #1A1A1A",
"[+	c #727272",
"}+	c #FBE603",
"|+	c #524616",
"1+	c #4E4E4E",
"2+	c #C1BD96",
"3+	c #AE7202",
"4+	c #B2B2B2",
"5+	c #225212",
"6+	c #6D6127",
"7+	c #FEFEFE",
"8+	c #7E520E",
"9+	c #B7A88E",
"0+	c #B26E04",
"a+	c #BB8D05",
"b+	c #F4FA06",
"c+	c #818181",
"d+	c #82662A",
"e+	c #FAB102",
"f+	c #0A0602",
"g+	c #EDC20A",
"h+	c #0E0E0E",
"i+	c #2E2616",
"j+	c #305412",
"k+	c #281402",
"l+	c #D6C29A",
"m+	c #5A620A",
"n+	c #C29626",
"o+	c #C66E1E",
"p+	c #F98202",
"q+	c #FBF203",
"r+	c #FBFE0A",
"s+	c #CA7A1E",
"t+	c #A6A6A6",
"u+	c #F28E02",
"v+	c #5A5A5A",
"w+	c #B6B6B6",
"x+	c #225A16",
"y+	c #0A5E16",
"z+	c #FA7E02",
"A+	c #FEFE59",
"B+	c #F98602",
"C+	c #1E1E1E",
"D+	c #7B4E0E",
"E+	c #FA8E02",
"F+	c #9E9E9E",
"G+	c #423A0A",
"                                                                                                      ",
"                                                                                      ) ) ) )       '.",
"                                                                                      0+z &.)       '.",
"  . [+7+7+7+7+7+7+7+7+7+P.h 7+7+7+7+7+7+7+7+v . .                                   ) ) W W &.0+    '.",
". . _.7+7+7+7+7+7+7+h c+=+X.u 7+7+7+7+7+7+7+n . . .                                 0+Y 9+9+W &.    '.",
".   [+7+7+7+7+7+7+7+w 8.8.<+=+4+7+7+7+7+7+7+6.e   .           (+                    z W 9+B l+z   2+9.",
". . _.7+7+7+7+7+7+7+,+{.Q.3.=+c+7+7+7+7+7+7+A+= !..           (+                    &.1 -+9+`.      m ",
". . [+7+7+7+7+7+7+7+N &+&+7.I v+7+7+7+7+7+7+A+b+@ .           r+(+                  ) 0+Y e.z       D+",
". . _.7+7+7+7+7+7+7+h $ g+q V C+7+7+7+7+7+7+6.b+: e           5.(+C                 } E.F.F.        D+",
". . [+7+7+7+7+7+7+7+f.9+n.^.-.T w 7+7+7+7+7+6.F = G.          5.5.r+              % % + m+# % %     8+",
". . _.7+7+7+7+7+7+P.m.Q h r.4 Q.+.8 7+7+7+7+A+F F b+          5.5.r+C             % % + )+s + + ( A N.",
". . [+7+7+7+7+7+Q 1.w+7+7+7+r.m.=+{.7+7+7+7+6.F c b+(+        5.5.5.(+            ( + + ^+y+% % ( A N.",
". . _.7+7+7+7+7+h.X.h 7+7+7+7+h.<+p.w 7+7+7+6.c c F 5.}+      G.5.5.5.q+          w.p p p ( ( M 0.A N.",
". . [+7+7+7+7+7+{.3.7+7+7+7+7+v C+8.3.7+7+7+@.u.: q+= z.      Z.q+G.G.q+          w.w.w.w.J.0.w.V.A N.",
". . _.7+7+7+7+& !+w+7+7+7+7+7+v Q.h+3.7+7+7+K /.;+a.z.z.Z.    _+}+z.q+q+}+      V.V.w.V.w.j+A.w.V...8+",
". . p.8 7+7+7+P k.3 v r.7+7+7+_ , L.-+7+7+7+o j.> ,.Z.v.=     /._+_+u.}+q+G.    w.w.V.w.%+<.M.l.U.s / ",
". . . C+t+#+' g.g+9 X h.7+7+7+D a a+- u 2.m.}.~+Z ;. . .~ _+  e+e+e+ . .g+.+    V.w.V.V.g d *+6+M.*./ ",
". . . . . L |.g+g+g+] h.7+7+f.D.>+g+g+j . . 3+q.G u+S.u+C.     +q.S.S.u+B+      w.V.w.w.[.d *+*+*+)+N.",
". . . . . [ a+g.>+g+{+7.U 3.8.).>+>+|.L . . F.G E ]+z+$+      q.S.p+z+:+:.      w.V.V.w.=.X &+x.x.6 / ",
". . . . . . i+W.O n+I.++C+p.p.l a N.C+h+h+8.4.E ]+* s.$+      S.B+B.s.$+        V.w.w.V.y u b.8+x.6 / ",
". . . . . C+2.& & & & & & & & N _.I I v+v+1+F.E d.s.$+        S.p+z+$+          V.V.w.w.< w+7.d+R 6 N.",
". . . . . 2.& <+=+=+2.& & & & & N m.v+v+v+v+R.B+d.* :.        C.p+z+$+          w.w.V.w.T.R E.].|+K./ ",
". . . . . 4+& . . . F+& & & & & & [+I I v+I s+p+]+*           B+z+:+            V.w.M *., ++G+G+, K./ ",
". . . . . 4+& . . . F+& & & & & & [+v+v+I v+s+s.t k           p+:+$+                5+, G+G+G+, G+V D+",
". . . . . 4+& . . . F+& & & & & & [+v+v+v+I S * '+k+          :+:.                + ! , G+G+, , , V D+",
". . . . . 4+& . . . F+& & & & & & [+v+v+I v+S t #..           :+                  % ^+, , , ; , G+V D+",
". . . . . 4+& . . . F+& & & & & & [+v+v+v+v+o+2 f+.           $+                    ! , , , ; , , V f ",
". . . . . 4+& . . . F+& & & & & & [+I v+v+v+c.k+. .                                   { { {   [ { t.D+",
". . . . . U & t+t+t+N & & & & & & [+v+I v+v+].. .                                     . . .   . . j f ",
"                                                                                    . . . .   . . r f ",
"                                                                                    . . . .   . . r f ",
"                                                                                                      "};
