/* XPM */
static char * LoadChar_trans_50_xpm[] = {
"50 32 256 2",
"  	c None",
". 	c #020202",
"+ 	c #026E16",
"@ 	c #166E1A",
"# 	c #DAA606",
"$ 	c #021606",
"% 	c #0AE63A",
"& 	c #02D62B",
"* 	c #C6C6C6",
"= 	c #5E3A0A",
"- 	c #0EF246",
"; 	c #064216",
"> 	c #04C22A",
", 	c #466E22",
"' 	c #D2AE26",
") 	c #CACACA",
"! 	c #02B222",
"~ 	c #4E3E02",
"{ 	c #B26E02",
"] 	c #5A6A26",
"^ 	c #DED29E",
"/ 	c #062610",
"( 	c #3A420E",
"_ 	c #02921B",
": 	c #AE9646",
"< 	c #B26A02",
"[ 	c #DADADA",
"} 	c #548232",
"| 	c #035516",
"1 	c #362E22",
"2 	c #AA9E62",
"3 	c #A2A2A2",
"4 	c #037619",
"5 	c #E8E8E8",
"6 	c #5D5E14",
"7 	c #02EE32",
"8 	c #344A10",
"9 	c #8E720E",
"0 	c #827236",
"a 	c #6E6632",
"b 	c #C6B286",
"c 	c #CAD2CA",
"d 	c #025A16",
"e 	c #F6EEDA",
"f 	c #628A6A",
"g 	c #2A2A2A",
"h 	c #A67A16",
"i 	c #047A1C",
"j 	c #96763A",
"k 	c #F2F2F2",
"l 	c #7E5E1E",
"m 	c #BAB696",
"n 	c #02DE2F",
"o 	c #E2B008",
"p 	c #026A16",
"q 	c #6A460A",
"r 	c #06A626",
"s 	c #021206",
"t 	c #82763E",
"u 	c #564A22",
"v 	c #1A5E12",
"w 	c #CAEED2",
"x 	c #7E4E0E",
"y 	c #2C2204",
"z 	c #057E1D",
"A 	c #828282",
"B 	c #726632",
"C 	c #347220",
"D 	c #B68E1E",
"E 	c #CA9E5E",
"F 	c #F6F6F6",
"G 	c #928A7A",
"H 	c #025E16",
"I 	c #726E2E",
"J 	c #181614",
"K 	c #6E6A2E",
"L 	c #2C440E",
"M 	c #BEB276",
"N 	c #7E6A2A",
"O 	c #424242",
"P 	c #264A10",
"Q 	c #02E22E",
"R 	c #2E6A1E",
"S 	c #B69A6A",
"T 	c #D2B24E",
"U 	c #06861E",
"V 	c #1A1A1A",
"W 	c #323232",
"X 	c #DEB60A",
"Y 	c #7E7232",
"Z 	c #C6C2AE",
"` 	c #4E4E4E",
" .	c #727276",
"..	c #AAA696",
"+.	c #165E12",
"@.	c #0AF23E",
"#.	c #02A21E",
"$.	c #026616",
"%.	c #AA7A06",
"&.	c #6E4A0E",
"*.	c #03CE2B",
"=.	c #022206",
"-.	c #06FE3A",
";.	c #625E4A",
">.	c #FEFAEA",
",.	c #261E0A",
"'.	c #9A999A",
").	c #526626",
"!.	c #6A6A6A",
"~.	c #A2820A",
"{.	c #D6CEBA",
"].	c #C6B696",
"^.	c #B6AA8E",
"/.	c #06FA39",
"(.	c #03E62F",
"_.	c #6A664A",
":.	c #BA7A1A",
"<.	c #C29226",
"[.	c #625A26",
"}.	c #028E1C",
"|.	c #0A0A0A",
"1.	c #0A821E",
"2.	c #42822E",
"3.	c #76660A",
"4.	c #B6B6A2",
"5.	c #AAAAAA",
"6.	c #EABA0A",
"7.	c #5E4A06",
"8.	c #EEC20E",
"9.	c #CEB68E",
"0.	c #261E0E",
"a.	c #CA9E5A",
"b.	c #52521A",
"c.	c #CAFED6",
"d.	c #666A2A",
"e.	c #029E26",
"f.	c #B2841E",
"g.	c #C28E3E",
"h.	c #3E3A0C",
"i.	c #0AF63A",
"j.	c #6E560E",
"k.	c #3A3A39",
"l.	c #8A6808",
"m.	c #04BE26",
"n.	c #222222",
"o.	c #0E0E0E",
"p.	c #126616",
"q.	c #026216",
"r.	c #61520E",
"s.	c #6B5F27",
"t.	c #3E3E0E",
"u.	c #FAFAF9",
"v.	c #AA9A86",
"w.	c #2E7E26",
"x.	c #7E6E2E",
"y.	c #B6B6B6",
"z.	c #BB8227",
"A.	c #CAF6D2",
"B.	c #FEFEFE",
"C.	c #B6B2A2",
"D.	c #04C628",
"E.	c #92928F",
"F.	c #EEBE08",
"G.	c #CEC0A2",
"H.	c #069A22",
"I.	c #7A680A",
"J.	c #A68612",
"K.	c #626262",
"L.	c #06F636",
"M.	c #021A06",
"N.	c #4E6E2A",
"O.	c #027217",
"P.	c #0E761A",
"Q.	c #805614",
"R.	c #02EA31",
"S.	c #5A5A5A",
"T.	c #EFEEEE",
"U.	c #D0D0D0",
"V.	c #4A3E22",
"W.	c #262626",
"X.	c #C2BE97",
"Y.	c #0AFA42",
"Z.	c #5E660A",
"`.	c #726A4A",
" +	c #76520E",
".+	c #BE8A36",
"++	c #4A3A12",
"@+	c #765E22",
"#+	c #625612",
"$+	c #03B625",
"%+	c #525252",
"&+	c #02DA2D",
"*+	c #E2E2E2",
"=+	c #02AE22",
"-+	c #1A661E",
";+	c #022A0A",
">+	c #33410E",
",+	c #5E521E",
"'+	c #EDC20A",
")+	c #A6A6A6",
"!+	c #BA9E5A",
"~+	c #C2C2C2",
"{+	c #EABE22",
"]+	c #72662A",
"^+	c #4A3E0A",
"/+	c #02821B",
"(+	c #868685",
"_+	c #3E7622",
":+	c #4A4A4A",
"<+	c #7A7A7A",
"[+	c #9E9E9A",
"}+	c #B2B2B2",
"|+	c #BEBEBE",
"1+	c #5E5E60",
"2+	c #04D22E",
"3+	c #CABA9E",
"4+	c #02961E",
"5+	c #06F238",
"6+	c #8A8A8A",
"7+	c #1E1E1E",
"8+	c #B6B2AA",
"9+	c #066219",
"0+	c #06E230",
"a+	c #2A2606",
"b+	c #02BA24",
"c+	c #D6BE9A",
"d+	c #03CA27",
"e+	c #06821E",
"f+	c #625E12",
"g+	c #CEB286",
"h+	c #065A16",
"i+	c #866622",
"j+	c #E6B606",
"k+	c #423A0A",
"l+	c #664E0E",
"m+	c #BEB29A",
"n+	c #22661E",
"o+	c #020602",
"p+	c #2E2E2E",
"q+	c #767676",
"r+	c #AEAEAE",
"s+	c #565654",
"t+	c #CAFAD2",
"u+	c #12120E",
"v+	c #021E06",
"w+	c #C29248",
"x+	c #CEB25A",
"y+	c #06DE32",
"z+	c #0AFE3E",
"A+	c #066E1A",
"B+	c #06EE33",
"C+	c #06EA34",
"D+	c #DDAA06",
"E+	c #BABABA",
"F+	c #BE862E",
"G+	c #069222",
"                                                                                                    ",
"        < < <       X.                                                                              ",
"      { { F+{       X.                                                                              ",
"      < g.c+g.{     X.                            . . ) B.B.B.B.B.B.B.B.k U.B.B.B.B.B.B.B.B.B.q+.   ",
"      :.S m+b .+    X.                            . s c B.B.B.B.B.B.B.y.1+|.(+*+B.B.B.B.B.B.B.q+. . ",
"      E ].v.G.E     m                 z+            > A.B.B.B.B.B.B.u.!.|.o.V k.F B.B.B.B.B.B.q+  . ",
"      z.g+^.g+      j               z+z+          =.z+c.B.B.B.B.B.B.k <+%+%+K.n.U.B.B.B.B.B.B.q+. . ",
"      { z.g.z.      x               -.-.          r /.c.B.B.B.B.B.B.k '.0 M _.k.E+B.B.B.B.B.B.<+. . ",
"    l.3.l.< I.      x             /.5+7           Q 7 t+B.B.B.B.B.B.B.9.o '+~.0.(+B.B.B.B.B.B.q+. . ",
"    | d +.I.+.h+d    +          Y.5+7 0+        i.(.n A.B.B.B.B.B.B.T.}+!+T {.` 1+k B.B.B.B.B.q+. . ",
"  H h+h+d Z.H H H z f+          5+7 7 0+        B+Q n A.B.B.B.B.B.B.'.3 T.T.B.)+o.E.B.B.B.B.B.q+. . ",
"  $.q.H H +.d h+9+z 6         - 7 C+(.Q       @.(.Q n A.B.B.B.B.B.) O k B.B.B.[ W.n.~+B.B.B.B.q+. . ",
"  e+i p O.$.q.A+i e+6         C+R.R.(.(.    % R.0+n n t+B.B.B.B.B.(+'.B.B.B.B.F A u+1+B.B.B.B.q+. . ",
"  /+e+e+e+P.P./+e+U 6       2+(.(.0+0+&+    n R.Q &+2+A.B.B.B.B.T.W [ B.B.B.B.B.'.o.|.F B.B.B.q+. . ",
"  U U U e+@ R U /+z j.      & n Q &+d+D.  *.&+Q &+d+$+w B.B.B.B.(+;.5 B.B.B.B.B.5.J |.F B.B.B.q+. . ",
"  /+/+/+U , b.} } -+r.    2+&+& 2+*.D.m.  2+&+& d+b+$+f B.B.B.B.x+' Z B.B.B.B.F : V ^+u.B.B.5 g . . ",
"  U U /+e+d.@+s.I n+r.  y+& d+m.$+! =+$+Q 2+D.b+=+e.#./ s+)+G.{+6.F.9  .F B.B.e # %.D+^ )+3 n.. . . ",
"  e+e+U w.K a Y x., r.    4+_ _ }._ _ H.H._ }._ }.}._ v+. . y F.'+'+X 2 u.B.F G D+F.'+~.. . . . . . ",
"  U e+U C #+`.x.l 6 r.    $.+ 4 4 /+}.}.  p + O.4 /+}.v+. . ++D+6.'+F.D E.E.` ,.o F.o 7.. . . . . . ",
"  /+U /+_+..8+Q.Q.).#+      H q.p 4 /+U   d q.$.+ O.i M.. . . V.u f.<.i+n.n.n.1 %.h ++o.o.o.. . . . ",
"U /+U /+2.C.C.@+N ).#+      H q.q.+ z z     q.q.$.+ + s . . O ~+* * * * * * * ) r+K.1+S.S.S.p+. . . ",
"e+U e+e+C B B [.,+L l+        H p p O.z       q.p p 4 M.. g E+6+V J k.* * * * * * )+S.S.S.S.S.W.. . ",
"e+U 1.@ 8 k+k+++k+>+l+          $.p O.4       H $.p 4 M.. W * A . . W.* * * * * * r+1+1+1+S.S.g . . ",
"    9+h.k+k+k+k+k+h.&.          q.$.p 4         q.q.+ $ . W * A . . W.* * * * * * r+S.S.S.S.S.g . . ",
"    H L k+k+1 h.k+k+&.            H $.O.        | d + $ . W * A . . W.* * * * * * r+S.S.1+S.S.g . . ",
"    d L k+k+t.P k+k+q             | 9+p           ; q.$ . W ~+A . . W.* * * * * * r+S.S.S.1+1+g . . ",
"      >+k+k+h.L k+k+&.              H $.          / q.$ . W * A . . W.* * * * * * r+1+S.S.S.S.g . . ",
"      y y y     ,.y q                 9+          o+| $ . W ~+A . . W.* * * * * * r+S.S.S.S.1+g . . ",
"      . . .   . . . =                             . / s . g y.E+)+)+5.* * * * * * r+1+S.S.S.S.n.. . ",
"      . . .   . . . =                                                                               ",
"    . . . .     . . =                                                                               ",
"                                                                                                    "};
