/* XPM */
static char * MAGUS_Logo_Tiny_xpm[] = {
"16 26 184 2",
"  	c None",
". 	c #D4FFA6",
"+ 	c #DDFFAF",
"@ 	c #DEFFB1",
"# 	c #0E0A92",
"$ 	c #16137F",
"% 	c #D4FFA8",
"& 	c #DFFFBD",
"* 	c #E9FFD1",
"= 	c #D9FFB0",
"- 	c #D2FFA2",
"; 	c #8D7B93",
"> 	c #A9989B",
", 	c #998897",
"' 	c #A39293",
") 	c #D7FFAC",
"! 	c #EFFFDD",
"~ 	c #F7FCF0",
"{ 	c #E6FFCC",
"] 	c #D0FF9F",
"^ 	c #C0A47A",
"/ 	c #C7AD87",
"( 	c #C6AB84",
"_ 	c #BC9F76",
": 	c #D5FFA9",
"< 	c #E7FFCE",
"[ 	c #E8F2D3",
"} 	c #D3FFA5",
"| 	c #CFC1B6",
"1 	c #D1C4BE",
"2 	c #D5FEA9",
"3 	c #D8FFAC",
"4 	c #C9DE98",
"5 	c #D6FEAA",
"6 	c #908F78",
"7 	c #CECBCC",
"8 	c #D6D5D4",
"9 	c #97959C",
"0 	c #44407E",
"a 	c #E3FFB4",
"b 	c #C3DA8D",
"c 	c #010079",
"d 	c #4F5060",
"e 	c #C5C4CC",
"f 	c #DCDCDD",
"g 	c #938C87",
"h 	c #050081",
"i 	c #08008C",
"j 	c #020071",
"k 	c #45455D",
"l 	c #9B99BA",
"m 	c #C6C6CA",
"n 	c #786A74",
"o 	c #030076",
"p 	c #070089",
"q 	c #060088",
"r 	c #6A5567",
"s 	c #010071",
"t 	c #01006A",
"u 	c #313164",
"v 	c #9F9EAB",
"w 	c #AAAAAB",
"x 	c #211D7C",
"y 	c #01005D",
"z 	c #030072",
"A 	c #05007F",
"B 	c #08008A",
"C 	c #53464F",
"D 	c #030074",
"E 	c #010066",
"F 	c #36356B",
"G 	c #7E7E83",
"H 	c #393594",
"I 	c #040080",
"J 	c #010061",
"K 	c #010068",
"L 	c #07007E",
"M 	c #0A008D",
"N 	c #2A00AD",
"O 	c #554750",
"P 	c #03016F",
"Q 	c #02006E",
"R 	c #24216C",
"S 	c #1E1B72",
"T 	c #050084",
"U 	c #05017F",
"V 	c #040072",
"W 	c #0F0092",
"X 	c #0C008F",
"Y 	c #060084",
"Z 	c #554852",
"` 	c #1F1867",
" .	c #03007E",
"..	c #191673",
"+.	c #312F6F",
"@.	c #060086",
"#.	c #504386",
"$.	c #2E1F92",
"%.	c #0C0092",
"&.	c #040081",
"*.	c #070086",
"=.	c #030082",
"-.	c #05007D",
";.	c #3D3D67",
">.	c #110B85",
",.	c #160E80",
"'.	c #040082",
").	c #070087",
"!.	c #67573B",
"~.	c #070085",
"{.	c #4D4C62",
"].	c #040083",
"^.	c #05007B",
"/.	c #02006B",
"(.	c #605146",
"_.	c #4C4C64",
":.	c #040085",
"<.	c #03006E",
"[.	c #04006F",
"}.	c #030077",
"|.	c #635344",
"1.	c #060083",
"2.	c #060081",
"3.	c #2B2A6C",
"4.	c #302C7D",
"5.	c #050087",
"6.	c #04007D",
"7.	c #06007F",
"8.	c #05007C",
"9.	c #5D4E4E",
"0.	c #110A76",
"a.	c #04007B",
"b.	c #030178",
"c.	c #434169",
"d.	c #060087",
"e.	c #03007B",
"f.	c #3B2F70",
"g.	c #231A68",
"h.	c #443F8D",
"i.	c #1B1786",
"j.	c #837D8C",
"k.	c #03007F",
"l.	c #060082",
"m.	c #070084",
"n.	c #180E84",
"o.	c #3A2F5B",
"p.	c #1E1B7E",
"q.	c #666098",
"r.	c #B9B1A3",
"s.	c #534C97",
"t.	c #161380",
"u.	c #080087",
"v.	c #453955",
"w.	c #030079",
"x.	c #534D90",
"y.	c #BBB3A3",
"z.	c #151087",
"A.	c #09008A",
"B.	c #070088",
"C.	c #463A57",
"D.	c #5F5894",
"E.	c #9D978F",
"F.	c #03007A",
"G.	c #080088",
"H.	c #3D335D",
"I.	c #2A2577",
"J.	c #443D92",
"K.	c #787389",
"L.	c #0D097C",
"M.	c #04007E",
"N.	c #09008C",
"O.	c #2A216D",
"P.	c #574F6D",
"Q.	c #4B317A",
"R.	c #888483",
"S.	c #643E5E",
"T.	c #150579",
"U.	c #060085",
"V.	c #030080",
"W.	c #926A56",
"X.	c #922B19",
"Y.	c #BBB599",
"Z.	c #9B462D",
"`.	c #A53110",
"                                ",
"                                ",
"                                ",
"    . + @       # $             ",
"  % & * = -   ; > , '           ",
"  ) ! ~ { ]   ^ / ( _           ",
"  : < [ & }     | 1             ",
"  2 3 4 5     6 7 8 9 0         ",
"    a b     c d e f g h i       ",
"            j k l m n o p q     ",
"        r s t u v w x y z A B   ",
"        C D E F G H I J K L M N ",
"        O P Q R S T U V W X Y   ",
"        Z `  ...+.@.#.$.%.&.*.  ",
"            =.-.;.@.>.,.'.).    ",
"          !.T ~.{.q ].^./.      ",
"          (.T ~._.p :.<.[.}.    ",
"          |.1.2.3.4.5.6.7.8.    ",
"          9.0.a.b.c.d.e.~.7.    ",
"          f.g.h.i.j.).k.l.m.    ",
"          n.o.p.q.r.s.t.Y u.    ",
"          B v.w.x.y.z.}.T A.    ",
"          B.C.e.D.E.}.F.a.G.    ",
"          B.H.I.J.K.L.M.&.h     ",
"          N.O.P.Q.R.S.T.U.V.    ",
"              W.X.Y.Z.`.        "};
