/* XPM */
static char * MAGUS_Logo_Tiny_xpm[] = {
"25 16 85 1",
" 	c None",
".	c #ACBA6E",
"+	c #D3FBA7",
"@	c #DEFDBA",
"#	c #D7FCAC",
"$	c #716597",
"%	c #5F568A",
"&	c #DAFFB2",
"*	c #F4FCE9",
"=	c #DDFFBA",
"-	c #C6AE8A",
";	c #CAB292",
">	c #D4FFA7",
",	c #D7EFAF",
"'	c #D7FEAC",
")	c #B8B4AB",
"!	c #D0CBCB",
"~	c #4C497E",
"{	c #CFE899",
"]	c #020172",
"^	c #82828C",
"/	c #C8C5C6",
"(	c #302878",
"_	c #08008A",
":	c #50426C",
"<	c #01006A",
"[	c #68687E",
"}	c #8C8BA1",
"|	c #06036E",
"1	c #040077",
"2	c #080089",
"3	c #665774",
"4	c #02006D",
"5	c #39376C",
"6	c #191488",
"7	c #040072",
"8	c #0B0086",
"9	c #090089",
"0	c #504450",
"a	c #050080",
"b	c #423D6A",
"c	c #AB9684",
"d	c #584889",
"e	c #080088",
"f	c #070087",
"g	c #705E3D",
"h	c #060080",
"i	c #36316F",
"j	c #271E78",
"k	c #0E0876",
"l	c #03006F",
"m	c #150E76",
"n	c #3A3771",
"o	c #3A3578",
"p	c #252175",
"q	c #1F1A76",
"r	c #2B226A",
"s	c #0D0A7A",
"t	c #3E3A72",
"u	c #0A087A",
"v	c #0B0480",
"w	c #312A72",
"x	c #3B3264",
"y	c #3E3A8A",
"z	c #928AA0",
"A	c #242086",
"B	c #060086",
"C	c #2E2675",
"D	c #372E62",
"E	c #1C197F",
"F	c #8C8596",
"G	c #04007B",
"H	c #060084",
"I	c #08008C",
"J	c #2C2465",
"K	c #46408D",
"L	c #524F80",
"M	c #09047E",
"N	c #040081",
"O	c #060081",
"P	c #261C70",
"Q	c #76526B",
"R	c #76707F",
"S	c #7E242C",
"T	c #0A0180",
"                         ",
"         .               ",
"        +@# $%           ",
"        &*= -;           ",
"        >,' )!~          ",
"         { ]^/(_         ",
"          :<[}|12        ",
"          3456789        ",
"          0abcdef        ",
"          ghijkl         ",
"           mnopq         ",
"           rstuv         ",
"          wxyzABh        ",
"          CDEFGH2        ",
"          IJKLMNO        ",
"           PQRST         "};
