/* XPM */
static char * New_Art_50_xpm[] = {
"50 32 256 2",
"  	c None",
". 	c #0A0A0A",
"+ 	c #7A7A6E",
"@ 	c #C69241",
"# 	c #EAC27A",
"$ 	c #4A4A42",
"% 	c #CE9242",
"& 	c #DAA24E",
"* 	c #824622",
"= 	c #8E5223",
"- 	c #EEB251",
"; 	c #A67232",
"> 	c #B47A34",
", 	c #A6A296",
"' 	c #EAC686",
") 	c #C28E42",
"! 	c #96622A",
"~ 	c #EEA63F",
"{ 	c #CCC6B4",
"] 	c #BA7A3E",
"^ 	c #EABE76",
"/ 	c #E6D2AA",
"( 	c #BA863A",
"_ 	c #9E9A8E",
": 	c #A67A36",
"< 	c #46423E",
"[ 	c #DEB26E",
"} 	c #86867A",
"| 	c #A2622C",
"1 	c #6A665E",
"2 	c #925626",
"3 	c #DE963E",
"4 	c #EAAA42",
"5 	c #A66E32",
"6 	c #EABA6A",
"7 	c #EAC68E",
"8 	c #B27232",
"9 	c #CC8238",
"0 	c #EEAA49",
"a 	c #D6D2BE",
"b 	c #965626",
"c 	c #CE9A52",
"d 	c #EEB257",
"e 	c #9E5A2A",
"f 	c #E6A23A",
"g 	c #FAB246",
"h 	c #EEBE74",
"i 	c #B6B2A2",
"j 	c #F2AA46",
"k 	c #A26A2A",
"l 	c #66625A",
"m 	c #E6D6AE",
"n 	c #8A5626",
"o 	c #C29E62",
"p 	c #B2823A",
"q 	c #F2B256",
"r 	c #DEAA5E",
"s 	c #BA7231",
"t 	c #D48E38",
"u 	c #C6823C",
"v 	c #EAA23A",
"w 	c #FABA5A",
"x 	c #DA9240",
"y 	c #F2AA3E",
"z 	c #AA622A",
"A 	c #E2CEAA",
"B 	c #161616",
"C 	c #C27A32",
"D 	c #DEA652",
"E 	c #F2B65A",
"F 	c #FABE5E",
"G 	c #A25A2A",
"H 	c #DEDAC6",
"I 	c #FAAE46",
"J 	c #B86E30",
"K 	c #FEC262",
"L 	c #C28A3E",
"M 	c #F4B24A",
"N 	c #E6CEAA",
"O 	c #E6AA52",
"P 	c #FEBA52",
"Q 	c #F2AE4E",
"R 	c #C27E39",
"S 	c #AE823A",
"T 	c #C68E3A",
"U 	c #AA6A30",
"V 	c #F2AE46",
"W 	c #A65A2A",
"X 	c #BA7637",
"Y 	c #F2BA5E",
"Z 	c #E6D2AE",
"` 	c #F6AE42",
" .	c #D89E46",
"..	c #AA662E",
"+.	c #5A564E",
"@.	c #EEAE53",
"#.	c #EAA642",
"$.	c #FEB649",
"%.	c #E6B66A",
"&.	c #E29E3E",
"*.	c #D28A36",
"=.	c #F6AE46",
"-.	c #E2A23F",
";.	c #824E26",
">.	c #AE6E2E",
",.	c #D29A4A",
"'.	c #EAAE51",
").	c #EEAE46",
"!.	c #E2DEC6",
"~.	c #E6AE56",
"{.	c #F6B656",
"].	c #C27635",
"^.	c #BEBAAA",
"/.	c #D6CEBE",
"(.	c #BA8A3E",
"_.	c #E2A646",
":.	c #F6B256",
"<.	c #B26A30",
"[.	c #AA7E36",
"}.	c #B6863E",
"|.	c #8A4A22",
"1.	c #9E622A",
"2.	c #F6AA3E",
"3.	c #B27E32",
"4.	c #EEAA42",
"5.	c #E6A240",
"6.	c #FAB24A",
"7.	c #D69646",
"8.	c #F6BA62",
"9.	c #8E8E82",
"0.	c #A2662E",
"a.	c #EACE9A",
"b.	c #B27636",
"c.	c #1E1E1A",
"d.	c #CA923E",
"e.	c #EAA64A",
"f.	c #AE622C",
"g.	c #DE9A4A",
"h.	c #F2B24E",
"i.	c #C67A34",
"j.	c #E6DABA",
"k.	c #EEAE4A",
"l.	c #CA8E3A",
"m.	c #AA5E2A",
"n.	c #EEB65C",
"o.	c #B68239",
"p.	c #B2662A",
"q.	c #D69A45",
"r.	c #E2A64A",
"s.	c #AE7A2E",
"t.	c #FEBE5B",
"u.	c #C67E36",
"v.	c #D2CAB2",
"w.	c #A25E2A",
"x.	c #524E46",
"y.	c #D69E4A",
"z.	c #CC863C",
"A.	c #BE7632",
"B.	c #CE9647",
"C.	c #DAA65A",
"D.	c #EAAA46",
"E.	c #F6B65E",
"F.	c #F6BA5A",
"G.	c #FAB64E",
"H.	c #CA9E5E",
"I.	c #BE7232",
"J.	c #FEBA5A",
"K.	c #CE9642",
"L.	c #BE7E3A",
"M.	c #DA9646",
"N.	c #F6B652",
"O.	c #EAAE4A",
"P.	c #A65E2A",
"Q.	c #E0A246",
"R.	c #B26E31",
"S.	c #C2863A",
"T.	c #CE8A42",
"U.	c #EAAA4E",
"V.	c #7E4A22",
"W.	c #9A5A2A",
"X.	c #C67E3B",
"Y.	c #EEC682",
"Z.	c #9A6632",
"`.	c #F2AE4A",
" +	c #FAAE42",
".+	c #AE662E",
"++	c #E69E3C",
"@+	c #DA9A48",
"#+	c #A47634",
"$+	c #AAA698",
"%+	c #EAA63E",
"&+	c #EEB25E",
"*+	c #C27A37",
"=+	c #B27E36",
"-+	c #C68E42",
";+	c #EEC686",
">+	c #A6622A",
",+	c #EAAE58",
"'+	c #E6A64A",
")+	c #F6AE4A",
"!+	c #AA7A36",
"~+	c #F6B252",
"{+	c #EAAA4A",
"]+	c #C67A3A",
"^+	c #F2B65E",
"/+	c #AE6E35",
"(+	c #CECAB9",
"_+	c #BE7636",
":+	c #BE863E",
"<+	c #F6AE4E",
"[+	c #EABE7E",
"}+	c #E6AE5E",
"|+	c #F6B65A",
"1+	c #96662A",
"2+	c #A29E8E",
"3+	c #EECA8A",
"4+	c #8A5A26",
"5+	c #BE7A39",
"6+	c #BA863E",
"7+	c #F2AA42",
"8+	c #EAA646",
"9+	c #EEAE4E",
"0+	c #AE7E38",
"a+	c #F6AA42",
"b+	c #FEB244",
"c+	c #AE6A32",
"d+	c #F2AE52",
"e+	c #D69E4E",
"f+	c #B67232",
"g+	c #9A5626",
"h+	c #E2DAC6",
"i+	c #BE8A3C",
"j+	c #E6A645",
"k+	c #B67637",
"l+	c #824A21",
"m+	c #B27A3A",
"n+	c #EEAA4E",
"o+	c #C27E3E",
"p+	c #B6823E",
"q+	c #CE8642",
"r+	c #E6A652",
"s+	c #BE8A42",
"t+	c #EEC27C",
"u+	c #864E24",
"v+	c #A6662E",
"w+	c #F6B24E",
"x+	c #FEB650",
"y+	c #9E662E",
"z+	c #AE7A36",
"A+	c #B27E3A",
"B+	c #E2DECA",
"C+	c #CA9242",
"D+	c #EAAA52",
"E+	c #F2AA4A",
"F+	c #FAB24E",
"G+	c #F6BA5E",
"                                                          W.]                                       ",
"                                  x+$.I 9 w.*.b+P J.J.g...*+d+J.J.J.F %.c                           ",
"                              N.`  +y C z t `  +g F+x ..5+E+b+b+b+$.,+B.)                           ",
"                            K t.t.q u .+@+w t.t.w M.<.T.|+w V V `.}+,.i+m+                          ",
"                          w+6.6.j z.J 3 F+x+G.6.x I.t I $.6.6.E r B.6+y+2                           ",
"                        F F F F.M.z.r+F F F F F @.j+).).h.F.6 C.@ A+;.u+=                           ",
"                        8.- w+~+G+k.~+|+d h.~+G+k.)+|+- )+{.D C+5 = |.= y+                          ",
"                        ^+D.E+E+&+5.0 @.U.~ n+d 5.~ q {+E+q 7.| b b 1.z+(                           ",
"                      ].X.A.I.f+/+0.v+U R.U U /+R.s ]._+_+*+J w.v+> :+( (                           ",
"                      m.>+z p.z m.z P.e m.P.G G m.f.z z f..+f.f+L C+L 6+6+                          ",
"                      /+o+u.9 R X.u.u u u *+u.R i.i.X.*+i.u L.C+@ C+L }.(                           ",
"                        8.{+` w+E.4 )+|+Y 4.<+E.- V :.{+=.:.& K.@ C+i+}.o.                          ",
"                        8.{+` ~+G+#.Q t+;+^ t+Y.d `.:.{+V q & K.l.C+6+p p                           ",
"                        8.{+a+)+q k.' v.2+H B+!.' `.{.- 4.@.e+K.l.@ 6+p p                           ",
"                        8.{+)+~+9+Q / + B $+B+B+Z E {.E #.U.y.% l.@ 6+S =+                          ",
"                        8.{+=.)+9+Q N c.. 1 H B+m q {.E %+8+e+K.l.@ }.0+=+                          ",
"                        8.{+=.:.9+Q / (+< _ H B+/ q :.E 5.e.e+B.d.) o.S =+                          ",
"                        8.{+2.:.@.Q / (+x.(+B+!.[+`.~+d -.U.e+K.d.) p 0+A+                          ",
"                        8.{+2.:.@.Q 7 { 1 { B+j.# Q ~+d -.U.e+K.l.) p 0+A+                          ",
"                        8.{+2.~+9+V h h+a i i /.Z q ~+,+&.8+e+K.T ) p 0+p                           ",
"                        8.{+2.~+9+V ;+i , 9.$ +.A q Q '.&.U.e+K.T ) p 0+3.                          ",
"                        8.{+` :.9+`.a.$+} l ^.x.o `.`.'.&.e.y.K.T ) o.!+>                           ",
"                        8.{+a+~+9+`.h 3+' [ ^ H. .y 4.O -.8+q.K.T s+p !+s.                          ",
"                        8.{+)+:.9+7+~+G+Y 4.=.~+9+y 0 ~.-.e.q.B.T (.p #+k                           ",
"                        8.O.)+~+9+V ~+|+^+4.)+~+9+7+'.~.&.e.y.B.T p+#+n =                           ",
"                        8.{+=.~+9+7+~+|+^+4.a+:.9+0 D+r.f 8+y.B.S.Z.u+* l+                          ",
"                        ^+D.7+d+U.~ E+q n.#.7+q '.%+O Q.f j+q.-+U l+l+V.4+                          ",
"                      ]+q+u.X.5+k+>.R.k+5+8 f+k+X A.X.R C *+_+<.g+b ! 1+                            ",
"                      z z z f.>+P.P.P.e P.G e G W m.z z f..+.+>+| ; :                               ",
"                      c+5+].i.A.5+A.C X 5+A.A.X s I._+s s _+s b.=+[.                                ",
"                        ^+D.j d+^+j+y q n.#.7+'.r.++'+Q.++5.q.C+                                    ",
"                        8.{+a+~+G+#.2.|+Y 4.V D+r.f {+_.v #.@+                                      "};
