/* XPM */
static char * Oeffnen_xpm[] = {
"32 32 192 2",
"  	c None",
". 	c #8F8F8F",
"+ 	c #4F4F4F",
"@ 	c #424242",
"# 	c #878787",
"$ 	c #9D9D9D",
"% 	c #171717",
"& 	c #626262",
"* 	c #AFAFAF",
"= 	c #A5A5A5",
"- 	c #6D6D6D",
"; 	c #1D1D1D",
"> 	c #1B1B1B",
", 	c #505050",
"' 	c #6C6C50",
") 	c #787856",
"! 	c #787855",
"~ 	c #67674E",
"{ 	c #161616",
"] 	c #0B0B0B",
"^ 	c #727272",
"/ 	c #69694B",
"( 	c #F8F88B",
"_ 	c #F7F788",
": 	c #F5F584",
"< 	c #EEEE7D",
"[ 	c #6D6D54",
"} 	c #010101",
"| 	c #000000",
"1 	c #555555",
"2 	c #71713B",
"3 	c #6E6E4D",
"4 	c #D9D97A",
"5 	c #F3F380",
"6 	c #F1F17D",
"7 	c #D1D16A",
"8 	c #71713D",
"9 	c #72723D",
"0 	c #70703A",
"a 	c #707039",
"b 	c #6F6F37",
"c 	c #6E6E35",
"d 	c #6D6D34",
"e 	c #6D6D32",
"f 	c #6C6C31",
"g 	c #6B6B2F",
"h 	c #6A6A2D",
"i 	c #69692C",
"j 	c #68682A",
"k 	c #AAAAAA",
"l 	c #151515",
"m 	c #1E1E1E",
"n 	c #F5F589",
"o 	c #F1F17C",
"p 	c #EFEF79",
"q 	c #EDED75",
"r 	c #ECEC72",
"s 	c #EAEA6E",
"t 	c #E8E86A",
"u 	c #E6E667",
"v 	c #E5E563",
"w 	c #E3E35F",
"x 	c #E1E15C",
"y 	c #DFDF58",
"z 	c #DDDD54",
"A 	c #DBDB51",
"B 	c #D9D94D",
"C 	c #D8D849",
"D 	c #D6D646",
"E 	c #D2D241",
"F 	c #F3F386",
"G 	c #E6E666",
"H 	c #DADA4D",
"I 	c #D4D442",
"J 	c #D0D03D",
"K 	c #F1F182",
"L 	c #D2D23E",
"M 	c #CECE3A",
"N 	c #F0F07E",
"O 	c #D0D03A",
"P 	c #CCCC36",
"Q 	c #EEEE7B",
"R 	c #E1E164",
"S 	c #63631F",
"T 	c #6A6A19",
"U 	c #6A6A18",
"V 	c #696918",
"W 	c #686817",
"X 	c #676716",
"Y 	c #666616",
"Z 	c #666615",
"` 	c #656514",
" .	c #646413",
"..	c #636313",
"+.	c #626212",
"@.	c #616111",
"#.	c #606010",
"$.	c #505026",
"%.	c #6C6C42",
"&.	c #6B6B43",
"*.	c #5D5D42",
"=.	c #ECEC77",
"-.	c #868638",
";.	c #969604",
">.	c #A8A805",
",.	c #A7A706",
"'.	c #A6A606",
").	c #A5A507",
"!.	c #A3A308",
"~.	c #A2A208",
"{.	c #A1A109",
"].	c #A0A009",
"^.	c #9F9F0A",
"/.	c #9D9D0B",
"(.	c #9C9C0B",
"_.	c #9B9B0C",
":.	c #9A9A0C",
"<.	c #98980D",
"[.	c #97970D",
"}.	c #96960E",
"|.	c #95950E",
"1.	c #93930F",
"2.	c #929210",
"3.	c #515119",
"4.	c #EAEA74",
"5.	c #D6D65D",
"6.	c #5F5F0A",
"7.	c #88880F",
"8.	c #E8E870",
"9.	c #72722B",
"0.	c #9D9D05",
"a.	c #919110",
"b.	c #535310",
"c.	c #E7E76C",
"d.	c #B9B94E",
"e.	c #656504",
"f.	c #8C8C11",
"g.	c #E5E569",
"h.	c #E2E25F",
"i.	c #57571B",
"j.	c #A4A406",
"k.	c #909011",
"l.	c #5A5A0F",
"m.	c #E3E365",
"n.	c #9F9F42",
"o.	c #747404",
"p.	c #8A8A11",
"q.	c #E2E262",
"r.	c #DBDB59",
"s.	c #53530E",
"t.	c #8F8F11",
"u.	c #545410",
"v.	c #E0E05E",
"w.	c #7F7F31",
"x.	c #909005",
"y.	c #8E8E12",
"z.	c #818110",
"A.	c #DEDE5B",
"B.	c #CACA50",
"C.	c #5F5F08",
"D.	c #8D8D12",
"E.	c #4E4E1B",
"F.	c #DCDC57",
"G.	c #676721",
"H.	c #9F9F07",
"I.	c #72720F",
"J.	c #9B9B99",
"K.	c #A8A840",
"L.	c #757505",
"M.	c #8A8A13",
"N.	c #46460E",
"O.	c #8A8A06",
"P.	c #898907",
"Q.	c #888807",
"R.	c #878708",
"S.	c #868608",
"T.	c #858509",
"U.	c #848409",
"V.	c #83830A",
"W.	c #82820A",
"X.	c #81810B",
"Y.	c #80800B",
"Z.	c #7F7F0C",
"`.	c #7E7E0C",
" +	c #7C7C0D",
".+	c #7B7B0D",
"++	c #7A7A0E",
"@+	c #79790E",
"#+	c #78780F",
"$+	c #77770F",
"%+	c #767610",
"&+	c #4D4D12",
"                                                                ",
"                                                                ",
"                                                                ",
"                                                                ",
"                                                                ",
"                                        . + @ #                 ",
"                                    $ % & * = - ; =             ",
"                                    =           = > = , =       ",
"        ' ) ! ~                                     { ] ^       ",
"      / ( _ : < [                                 , } | 1       ",
"  2 3 4 _ : 5 6 7 8 9 2 0 a b c d e f g h i j 2     k l m       ",
"  2 n _ : 5 o p q r s t u v w x y z A B C D E 2         1       ",
"  2 F : 5 o p q r s t G v w x y z A H C D I J 2                 ",
"  2 K 5 6 p q r s t G v w x y z A B C D I L M 2                 ",
"  2 N o p q r s t u v w x y z A B C D I L O P 2                 ",
"  2 Q p q r s t R S T U V W X Y Z `  ...+.@.#.$.%.%.&.&.&.*.    ",
"  2 =.q r s t u -.;.>.,.'.).!.~.{.].^./.(._.:.<.[.}.|.1.2.3.    ",
"  2 4.r s t G 5.6.>.,.'.).!.~.{.].^./.(._.:.<.[.}.|.1.2.7.2     ",
"  2 8.s t G v 9.0.,.'.).!.~.{.].^./.(._.:.<.[.}.|.1.2.a.b.      ",
"  2 c.t u v d.e.,.'.).!.~.{.].^./.(._.:.<.[.}.|.1.2.a.f.2       ",
"  2 g.u v h.i.j.'.).!.~.{.].^./.(._.:.<.[.}.|.1.2.a.k.l.        ",
"  2 m.v w n.o.'.).!.~.{.].^./.(._.:.<.[.}.|.1.2.a.k.p.2         ",
"  2 q.w r.s.'.).!.~.{.].^./.(._.:.<.[.}.|.1.2.a.k.t.u.          ",
"  2 v.x w.x.).!.~.{.].^./.(._.:.<.[.}.|.1.2.a.k.y.z.2           ",
"  2 A.B.C.).!.~.{.].^./.(._.:.<.[.}.|.1.2.a.k.t.D.E.            ",
"  2 F.G.H.!.~.{.].^./.(._.:.<.[.}.|.1.2.a.k.t.D.I.J.            ",
"  2 K.L.!.~.{.].^./.(._.:.<.[.}.|.1.2.a.k.y.D.M.2               ",
"  2 N.O.P.Q.R.S.T.U.V.W.X.Y.Z.`. +.+++@+#+$+%+&+                ",
"    2 2 2 2 2 2 2 2 2 2 2 2 2 2 2 2 2 2 2 2 2                   ",
"                                                                ",
"                                                                ",
"                                                                "};
