/* XPM */
static char * Pfeil_R_xpm[] = {
"250 35 2 1",
" 	c None",
".	c #1A74CE",
"       ........                                                                                                                                                                                                                                           ",
"   ...............                                                                                                                                                                                                                                        ",
"....................                                                                                                                                                                                  .................                                   ",
"......................                                                                                                                                                                          ...........................                               ",
"........................                                                                                                                                                                 ....................................                             ",
".........................                                                                                                                                                            .........................................                            ",
"  .........................                                                                                                                                                    ................................................                           ",
"    .........................                                                                                                                        ............     .........................................................                           ",
"      ........................                                                                                                                    ................................................................................                        ",
"       ........................                                                                                                                 ....................................................................................                      ",
"         .......................                                                                                                               .......................................................................................                    ",
"          .......................                                                                                                              ........................................................................................                   ",
"           .......................                                                                                                              ..........................................................................................                ",
"             .......................                                                                                                             ......................................      ...............................................              ",
"              ........................                                                                                                               ..........................            ...................................................            ",
"               .........................                                                                                                                  .........                     .......................................................           ",
"                ..........................                                                                                                                                          ...............................    .........................          ",
"                  ............................                                                                                                                                  ................................          .........................       ",
"                    ..............................                                                                                                                          .................................              ..........................     ",
"                      .................................                                                                                                                 ...................................                  ..........................   ",
"                        ..................................                                                                                                          ....................................                      ..........................  ",
"                           .......................................                                                                                              .....................................                           ..........................",
"                             ...............................................                                                                                  ...................................                                 ........................",
"                                 ......................................................                                                                   ...................................                                       ......................",
"                                     ..............................................................                                                    ..................................                                             ..................  ",
"                                         ..................................................................                                        ..................................                                                  ...............    ",
"                                             .......................................................................                      .......................................                                                            ...          ",
"                                                 .............................................................................................................................                                                                            ",
"                                                         ..................................................................................................................                                                                               ",
"                                                                  ......................................................................................................                                                                                  ",
"                                                                             .......................................................................................                                                                                      ",
"                                                                                          .......................................................................                                                                                         ",
"                                                                                                   .........................................................                                                                                              ",
"                                                                                                           ........................................                                                                                                       ",
"                                                                                                                     ......................                                                                                                               "};
