/* XPM */
static char * Pfeil_L_xpm[] = {
"91 35 2 1",
" 	c None",
".	c #1A74CE",
"                                                                                     ....  ",
"                                                                                    ...... ",
"            .......                                                                ........",
"           ..........                                                              ........",
"          ..............                                                          .........",
"          ...............                                                         .........",
"          .................                                                      ......... ",
"          ....................  .....                                           .........  ",
"         .............................                                          .........  ",
"        ..............................                                          ........   ",
"       ................................                                        .........   ",
"       ................................                                        ........    ",
"      ................................                                        .........    ",
"     .................  ..............                                        ........     ",
"    ...................    ..........                                        .........     ",
"    ....................       ....                                         .........      ",
"   .......... ...........                                                   .........      ",
"  ..........   ............                                               ..........       ",
"  .........     ............                                             ...........       ",
" ..........      .............                                         ............        ",
" .........        .............                                       ............         ",
".........          .............                                   ..............          ",
".........            ............                              .................           ",
"........              .............                        ....................            ",
" ......                 ............                   .......................             ",
" ......                  ............               ........................               ",
"   ..                     ...............        ..........................                ",
"                            .............................................                  ",
"                             .........................................                     ",
"                              .....................................                        ",
"                               ................................                            ",
"                                ..........................                                 ",
"                                  .....................                                    ",
"                                      ..............                                       ",
"                                        ........                                           "};
