/* XPM */
static char * pinguin_xpm[] = {
"27 32 91 1",
" 	c None",
".	c #0A0A0A",
"+	c #322206",
"@	c #8E5E04",
"#	c #606060",
"$	c #D6AA16",
"%	c #EEBA1E",
"&	c #EEC212",
"*	c #C88E05",
"=	c #EAD28E",
"-	c #CAA206",
";	c #DADADA",
">	c #725A06",
",	c #DEDEDE",
"'	c #6A4A06",
")	c #CEAE06",
"!	c #FAE286",
"~	c #F2C21A",
"{	c #D6A21E",
"]	c #E6E6E6",
"^	c #261B06",
"/	c #6E6E6E",
"(	c #C3C3C3",
"_	c #CEAA52",
":	c #40403F",
"<	c #DEB606",
"[	c #C2B296",
"}	c #EEEEEE",
"|	c #A66E06",
"1	c #AA963E",
"2	c #E6BA06",
"3	c #1E1606",
"4	c #B29A72",
"5	c #6A560A",
"6	c #827252",
"7	c #3E361E",
"8	c #7A7662",
"9	c #E2E2E2",
"0	c #A67206",
"a	c #F2F2F2",
"b	c #505050",
"c	c #F2BE06",
"d	c #9C9A98",
"e	c #C29A08",
"f	c #828282",
"g	c #D3D3D3",
"h	c #2E220A",
"i	c #BEA276",
"j	c #AA8606",
"k	c #664206",
"l	c #121212",
"m	c #F6F6F6",
"n	c #CE9202",
"o	c #9E9E9E",
"p	c #CEA20A",
"q	c #878787",
"r	c #AE7606",
"s	c #C18903",
"t	c #F2C20A",
"u	c #DAAA02",
"v	c #764A06",
"w	c #221E0A",
"x	c #CE9606",
"y	c #A8A6A4",
"z	c #B5B5B5",
"A	c #8F8F8F",
"B	c #2F2E29",
"C	c #D2A206",
"D	c #7E5206",
"E	c #E6B606",
"F	c #FEFEFE",
"G	c #D6CEC2",
"H	c #272725",
"I	c #C6B69A",
"J	c #F6C20B",
"K	c #0E0E0E",
"L	c #DFA404",
"M	c #363636",
"N	c #D89D03",
"O	c #B0AEA9",
"P	c #1C1C1A",
"Q	c #1C160A",
"R	c #E6AD04",
"S	c #F2BA03",
"T	c #464644",
"U	c #565656",
"V	c #EACA06",
"W	c #EEB502",
"X	c #161617",
"Y	c #9A9696",
"Z	c #8A5A06",
"           .....           ",
"          ....K:K          ",
"         .....XbX.         ",
"         .........         ",
"         .MH.l#b..         ",
"         MzA.d((l..        ",
"         bBYwOlA:..        ",
"         P6p2$5OH..        ",
"         hNt&cV<^..        ",
"         hxtc)uLwMK        ",
"         M4*-N_GUT:.       ",
"         :,[iI]FgK..       ",
"        .zm,gmFFFb...      ",
"       .bFFFFFFFFz...      ",
"      ..qmFFFFFa9]X...     ",
"      .lgFFFFFFm}gqXK..    ",
"      P/FFFFFFFFFF]PH..    ",
"     KP9FFFFFFFFFFF/XP..   ",
"     lUFFFFFFFFFFFFq.X..   ",
"    .XdFFFFFFFFFFFFy.K..   ",
"    .HOFFFFFFFFFFFFO.l..   ",
"    wB(FFFFFFFFFFFFOlll.   ",
"    cp8mFFFFFFFFFF!1...7   ",
"   WtteT]FFFFFFFFF%e..Q-   ",
" RLSJJJ>HgFFFFFFF}%LZksSc  ",
"WcccttcEwX9FFFFFFa{WRWStJ  ",
"WJttttJcjH,FFFFFFysSScctttt",
"ScJJJJttc=FFFFFmfQnStttJJJc",
"WcttttJcS*o;,(AB.^NctJtttc ",
"LNLRScttSs^......+*SccSL   ",
"   |rsNN*Z3.     +|*N*     ",
"       Dv         kZ@      "};
