/* XPM */
static char * Portrait_32_xpm[] = {
"50 32 232 2",
"  	c None",
". 	c #16365A",
"+ 	c #3A5E72",
"@ 	c #76926E",
"# 	c #829A7A",
"$ 	c #96B2AA",
"% 	c #463A16",
"& 	c #D2C6B2",
"* 	c #66664E",
"= 	c #A6CAEA",
"- 	c #4A3A16",
"; 	c #5A766E",
"> 	c #5A461A",
", 	c #C6D6E6",
"' 	c #9AAEBE",
") 	c #8E8272",
"! 	c #6A8266",
"~ 	c #6A521E",
"{ 	c #E2D2C2",
"] 	c #C2D2E6",
"^ 	c #9EB2C6",
"/ 	c #36464E",
"( 	c #AEAA9E",
"_ 	c #4E4E4A",
": 	c #2E5276",
"< 	c #BAD2EA",
"[ 	c #765E22",
"} 	c #9AB2AE",
"| 	c #A2968A",
"1 	c #A2BED2",
"2 	c #766652",
"3 	c #8EA2A6",
"4 	c #4E4A3E",
"5 	c #86929E",
"6 	c #AAAEAE",
"7 	c #728296",
"8 	c #A69A86",
"9 	c #365672",
"0 	c #728A6A",
"a 	c #D2DEEE",
"b 	c #B6CAE2",
"c 	c #1E4262",
"d 	c #62562E",
"e 	c #86929A",
"f 	c #667A5E",
"g 	c #A6BED6",
"h 	c #6A5E4A",
"i 	c #66521E",
"j 	c #AECAE2",
"k 	c #B6AE9E",
"l 	c #364652",
"m 	c #7A766A",
"n 	c #5A6E86",
"o 	c #869A8E",
"p 	c #A6C2DA",
"q 	c #664E1E",
"r 	c #CABEAE",
"s 	c #564A36",
"t 	c #5A5246",
"u 	c #76866A",
"v 	c #8AA282",
"w 	c #AECEE6",
"x 	c #7E8E72",
"y 	c #CADEEE",
"z 	c #324A5E",
"A 	c #7E6A3E",
"B 	c #4E3E16",
"C 	c #6E5E46",
"D 	c #725A22",
"E 	c #86968A",
"F 	c #DEEAF6",
"G 	c #9AB6BA",
"H 	c #E6C6C2",
"I 	c #264A62",
"J 	c #624E1E",
"K 	c #A2C2E2",
"L 	c #768E6E",
"M 	c #72765A",
"N 	c #32566A",
"O 	c #8EA692",
"P 	c #5E4E3A",
"Q 	c #7E8286",
"R 	c #7A9672",
"S 	c #4E5A52",
"T 	c #6E7A5A",
"U 	c #96AABE",
"V 	c #1E3E56",
"W 	c #D6E6F2",
"X 	c #523E1A",
"Y 	c #667256",
"Z 	c #A6BECE",
"` 	c #424642",
" .	c #828E96",
"..	c #7A8A7E",
"+.	c #5E5232",
"@.	c #9E8A7A",
"#.	c #C6B2AA",
"$.	c #2A4A6E",
"%.	c #AEC6E2",
"&.	c #5A4A1A",
"*.	c #6E8266",
"=.	c #B2CEE6",
"-.	c #92AA9A",
";.	c #DEC2BE",
">.	c #2A425A",
",.	c #8A7242",
"'.	c #AACAE6",
").	c #C2D6E6",
"!.	c #5E5A42",
"~.	c #1E4666",
"{.	c #B6D2EA",
"].	c #C6DAEA",
"^.	c #52421A",
"/.	c #464E4E",
"(.	c #6A5622",
"_.	c #B6A696",
":.	c #726A5A",
"<.	c #AECAE6",
"[.	c #BAD6EE",
"}.	c #A6C6E6",
"|.	c #627E6E",
"1.	c #968A72",
"2.	c #92AAA6",
"3.	c #AAA296",
"4.	c #AAC6D6",
"5.	c #5E563E",
"6.	c #6E8666",
"7.	c #8A9A9A",
"8.	c #1E4672",
"9.	c #7A926E",
"0.	c #96A29E",
"a.	c #325A82",
"b.	c #76766A",
"c.	c #768A6A",
"d.	c #3A4E62",
"e.	c #2E567A",
"f.	c #B6CEE6",
"g.	c #62522A",
"h.	c #6E5622",
"i.	c #7A8676",
"j.	c #324E6A",
"k.	c #7A9272",
"l.	c #1E364E",
"m.	c #968672",
"n.	c #8E969A",
"o.	c #82765E",
"p.	c #7A8E72",
"q.	c #3A5662",
"r.	c #82967A",
"s.	c #727E66",
"t.	c #AAC6E6",
"u.	c #D2E2F2",
"v.	c #9EBAB6",
"w.	c #C2DAEE",
"x.	c #AECAEA",
"y.	c #1A3A5E",
"z.	c #6A6256",
"A.	c #828E7E",
"B.	c #6A7E62",
"C.	c #BED2E6",
"D.	c #56421A",
"E.	c #1A3E5E",
"F.	c #D6E2F2",
"G.	c #DAE6F2",
"H.	c #A6C6DE",
"I.	c #5E523A",
"J.	c #224A72",
"K.	c #1E426A",
"L.	c #A6C6EA",
"M.	c #AACAEA",
"N.	c #C2D6EA",
"O.	c #765A22",
"P.	c #22466A",
"Q.	c #B2CAE6",
"R.	c #728666",
"S.	c #7E9276",
"T.	c #6A562A",
"U.	c #869E7E",
"V.	c #E2D6C2",
"W.	c #9EB6C6",
"X.	c #A6C2D6",
"Y.	c #8A9E8E",
"Z.	c #CAC2AE",
"`.	c #364E5E",
" +	c #8E9E9A",
".+	c #CEDEEE",
"++	c #7E9676",
"@+	c #5E4A1E",
"#+	c #72866A",
"$+	c #4E3A16",
"%+	c #CADAEE",
"&+	c #6E7E5E",
"*+	c #36567A",
"=+	c #B2CEEE",
"-+	c #1E466E",
";+	c #9EBABE",
">+	c #224262",
",+	c #7A866E",
"'+	c #625A42",
")+	c #BED6EE",
"!+	c #1E3E5E",
"~+	c #BAD2EE",
"{+	c #765E26",
"]+	c #C2D6EE",
"^+	c #CEDEF2",
"/+	c #9EAEBA",
"(+	c #5A4A36",
"_+	c #9EB6B6",
":+	c #9AAABA",
"<+	c #728266",
"[+	c #BAA69A",
"}+	c #AAC6DE",
"|+	c #728A6E",
"1+	c #AECEEA",
"2+	c #B2CEEA",
"3+	c #C6DAEE",
"4+	c #768A6E",
"5+	c #B6CEEA",
"6+	c #C6D6EA",
"7+	c #7E967A",
"8+	c #2E527A",
"9+	c #DAE6F6",
"0+	c #6A5222",
"a+	c #6E7E62",
"b+	c #D2C6B6",
"c+	c #6A826A",
"d+	c #4E4E4E",
"e+	c #D6E6F6",
"f+	c #424646",
"g+	c #BED2EA",
"h+	c #5E523E",
"i+	c #1E3E62",
"                                              {+{+{+{+                                              ",
"                            L.L.L.L.L.L.L.= = /+0.0.0.1 = L.L.L.L.}.}.'.'.                          ",
"                            }.1+'.= = }.}.<.<.x.x.x.x.Q.=.<.}.}.M.)+~+x.L.                          ",
"                            L.)+6+, %+w.5+t.= '.w x.2+1+{.{.{.[.u.F., 5+}.                          ",
"                            }.< %+a .+F u.5+L.L.= }.M.)+e+9+u.9+F 9+W u.[.                          ",
"                            x.3+, .+a F.u.].N.N.< }.2+^+u.N.] ] ] %+, %+y                           ",
"                            6+].N.C.)+)+b b f.f.w K L.x.2+'.j =.j t.%.<.2+                          ",
"                            M.L.}.L.}.}.L.}.}.p  .Q U = '.'.M.}.}.}.}.L.L.                          ",
"                            }.L.= t.L.= = }.t.e h m.m g Q.1+1+M.M.= }.}.L.                          ",
"                            M.1+<.1+<.'.'.x.1 z.) k m.e x.Q.Q.<.4.%.M.= }.                          ",
"                            x.'.p <.Z g w x.^ I.| 3._.:.' 1+2+W.Y.3 X.1+M.                          ",
"                            }.} E $ E  +p <.:+C r & V.2 b.} _+Y.i...2.v.Z                           ",
"                            -.r.<+x a+x O $ A.m.;.H { 2 P i.Y.U.p.4+S.R 7+                          ",
"                            # L a+4+a+#+++r.M o._.#.| h+4 !.c.k.k.p.|+#+#+                          ",
"                            k.k.0 k.L c.L T h+(+_ d._ j.$./.* 0 R.R.#+#+L                           ",
"                            R k.9.9.9.@ T 5.s ` P.J.9 8+J.z !.*.6.#+0 L L                           ",
"                            k.k.@ L L 0 '+` / !+~.8+a.: c `.Y L L p.@ 9.k.                          ",
"                            @ L L L c.6.S >+>+J.8+e.: P.y.q.4+k.9.@ k.R R                           ",
"                            B.#+#+6.6.c+: a.7 5 n c E.y.y.J.|.@ R R k.9.k.                          ",
"                            0 L 6.f f 6.+ ( Z.Z.( >.l.V E.~.; R k.9.k.k.R                           ",
"                                            ,.,.A (.g.g.+.                                          ",
"                                            O.h.h.(.(.i i                                           ",
"                                          [ ~   h.h.D > @+                                          ",
"                                          D &.  q h.i   ^.~                                         ",
"                                        D q >   @+q D.  B J                                         ",
"                                        h.>     > > %     &.D                                       ",
"                                        i @+    > X -     X h.                                      ",
"                                      D @+      ^.B %     - J                                       ",
"                                      h.>       ^.-         D.[                                     ",
"                                      J ^.      X -         B h.                                    ",
"                                    h.>         > X         B @+D                                   ",
"                                    q >           B           ^.D                                   "};
