/* XPM */
static char * PP_Eingeben_trans_32_xpm[] = {
"24 32 246 2",
"  	c None",
". 	c #E5FEA0",
"+ 	c #ECFFB9",
"@ 	c #EDFFB5",
"# 	c #C0BFFC",
"$ 	c #EFEEFE",
"% 	c #D4CCFE",
"& 	c #C09DE7",
"* 	c #F9B6BE",
"= 	c #FFE5E6",
"- 	c #FFC7C9",
"; 	c #EBFEB7",
"> 	c #FAFFED",
", 	c #F1FFCD",
"' 	c #DDFFA2",
") 	c #A6FEDF",
"! 	c #A4E0ED",
"~ 	c #B0C0F7",
"{ 	c #BCC3FA",
"] 	c #BAADFD",
"^ 	c #CC9DDA",
"/ 	c #FDB6B9",
"( 	c #FFE3E4",
"_ 	c #FFC4C5",
": 	c #E7FFA8",
"< 	c #E7F5CB",
"[ 	c #D4E5BE",
"} 	c #BFE7BD",
"| 	c #AFE7E6",
"1 	c #E1F8F6",
"2 	c #C3DFF3",
"3 	c #9CBDED",
"4 	c #9290EA",
"5 	c #FFA5A9",
"6 	c #FF9E9F",
"7 	c #BDC5CA",
"8 	c #B2C0BA",
"9 	c #A6B2C2",
"0 	c #93B4D4",
"a 	c #9CCAE3",
"b 	c #CCE5F1",
"c 	c #ABD3E7",
"d 	c #8EBCDF",
"e 	c #8487DD",
"f 	c #877FDE",
"g 	c #9588D9",
"h 	c #9393E9",
"i 	c #8F90E3",
"j 	c #8080DC",
"k 	c #8089DC",
"l 	c #93C3E1",
"m 	c #8FC3E2",
"n 	c #8DBADF",
"o 	c #869CDE",
"p 	c #7D7DDC",
"q 	c #8B80DB",
"r 	c #8885DC",
"s 	c #A1A1F7",
"t 	c #9C9CF3",
"u 	c #9CA2F2",
"v 	c #A4AEF4",
"w 	c #A1B0F2",
"x 	c #9CA6F0",
"y 	c #9394E5",
"z 	c #8C88D6",
"A 	c #8F89D3",
"B 	c #9E9EEF",
"C 	c #A4A4F9",
"D 	c #A7AFF9",
"E 	c #A5A8F9",
"F 	c #A3A3F8",
"G 	c #9999E9",
"H 	c #8E8CD5",
"I 	c #8989D0",
"J 	c #8E8ED7",
"K 	c #A5AAF9",
"L 	c #A6A6F9",
"M 	c #A1A1F3",
"N 	c #8E8ED8",
"O 	c #938BD3",
"P 	c #9B93DE",
"Q 	c #B0B0FC",
"R 	c #A8A8F7",
"S 	c #9090DA",
"T 	c #9292DD",
"U 	c #B5B5FE",
"V 	c #A7A7F9",
"W 	c #9898E7",
"X 	c #A5A5F8",
"Y 	c #9E9EF1",
"Z 	c #D3C9D9",
"` 	c #B3AFDF",
" .	c #EDDDBD",
"..	c #D9CFD3",
"+.	c #A8A8FA",
"@.	c #B3AED7",
"#.	c #D7CCD1",
"$.	c #A0A0EF",
"%.	c #AFA9D0",
"&.	c #E4D6C4",
"*.	c #CFC5CF",
"=.	c #D7CBC5",
"-.	c #EDDDBC",
";.	c #E7D7B8",
">.	c #D4C7AC",
",.	c #CEC1A7",
"'.	c #D3C6AA",
").	c #E0D2B4",
"!.	c #EADBBB",
"~.	c #D3C6AB",
"{.	c #BFB49D",
"].	c #CABDA4",
"^.	c #DBCDB0",
"/.	c #E9D9BA",
"(.	c #ECDDBD",
"_.	c #E0D1B4",
":.	c #AEA591",
"<.	c #7F7B70",
"[.	c #7C786E",
"}.	c #78756B",
"|.	c #706D63",
"1.	c #837D6E",
"2.	c #C7BA9F",
"3.	c #EBDBBB",
"4.	c #DACBAE",
"5.	c #C1B59C",
"6.	c #7F7B6F",
"7.	c #77746B",
"8.	c #7B786E",
"9.	c #888376",
"0.	c #AFA592",
"a.	c #DECFB2",
"b.	c #E3D5B6",
"c.	c #9C9584",
"d.	c #747169",
"e.	c #6B6962",
"f.	c #6D6B63",
"g.	c #716F66",
"h.	c #626059",
"i.	c #686459",
"j.	c #A59984",
"k.	c #EADABA",
"l.	c #ECDCBD",
"m.	c #D0C1A6",
"n.	c #A19782",
"o.	c #7E786A",
"p.	c #6D6A62",
"q.	c #79766C",
"r.	c #7A776D",
"s.	c #737168",
"t.	c #A39B89",
"u.	c #E7D8B9",
"v.	c #D0C3A8",
"w.	c #727067",
"x.	c #6F6D66",
"y.	c #939089",
"z.	c #A7A298",
"A.	c #999180",
"B.	c #968E7E",
"C.	c #A09681",
"D.	c #B1A58D",
"E.	c #E4D5B6",
"F.	c #E6D7B8",
"G.	c #B6A992",
"H.	c #8D8371",
"I.	c #8B8474",
"J.	c #A19A8B",
"K.	c #BFB9AA",
"L.	c #C5BEB0",
"M.	c #A59F8F",
"N.	c #847F73",
"O.	c #7C786F",
"P.	c #BDB29B",
"Q.	c #A99F8C",
"R.	c #AEA89D",
"S.	c #868584",
"T.	c #CFCECD",
"U.	c #BAB2A5",
"V.	c #B0A48D",
"W.	c #A99D86",
"X.	c #B5A990",
"Y.	c #DACCAE",
"Z.	c #DDCEB0",
"`.	c #ADA18A",
" +	c #A39782",
".+	c #BDB098",
"++	c #AFA99E",
"@+	c #7E7E7D",
"#+	c #E1E1DF",
"$+	c #E4DFD4",
"%+	c #BBAF97",
"&+	c #A9A08C",
"*+	c #BCB29B",
"=+	c #D1C2A7",
"-+	c #CBBDA2",
";+	c #AA9E8A",
">+	c #AEA9A0",
",+	c #636363",
"'+	c #B7B6B4",
")+	c #B5AC9A",
"!+	c #948976",
"~+	c #A69A85",
"{+	c #D0C2A6",
"]+	c #AA9E88",
"^+	c #BBAE96",
"/+	c #AAA499",
"(+	c #686767",
"_+	c #DADAD8",
":+	c #DCD7CC",
"<+	c #BCAF96",
"[+	c #ECDCBC",
"}+	c #A09580",
"|+	c #A99F8B",
"1+	c #C2BAAB",
"2+	c #BAB19F",
"3+	c #A89C87",
"4+	c #AFA38D",
"5+	c #A19680",
"6+	c #A89C86",
"7+	c #DCCEB0",
"8+	c #ACA18A",
"9+	c #BBAE95",
"0+	c #C7BAA3",
"a+	c #C7BEAD",
"b+	c #D2CABB",
"c+	c #C6BBA5",
"d+	c #BFB299",
"e+	c #C6B89E",
"f+	c #D9CBAE",
"g+	c #E8D9B9",
"h+	c #D3C4A9",
"i+	c #DBCCAE",
"j+	c #D8C9AC",
"k+	c #DCCDB0",
"l+	c #D7C9AC",
"m+	c #DACDAF",
"n+	c #BEB197",
"o+	c #C0B399",
"p+	c #E6D6B8",
"q+	c #BFB199",
"r+	c #ADA18B",
"s+	c #CCBEA2",
"t+	c #C9BBA0",
"u+	c #C2B49B",
"v+	c #BDB097",
"w+	c #C5B79D",
"            . + @       # $ % & * = -           ",
"            ; > , ' ) ! ~ { ] ^ / ( _           ",
"            : < [ } | 1 2 3 4   5 6             ",
"            7 8 9 0 a b c d e f g               ",
"            h i j k l m n o p q r               ",
"              s t u v w x y z A B               ",
"              C C D E F G H I J                 ",
"                E K L M N O P                   ",
"                  C Q R S T                     ",
"                    U V W W                     ",
"                      X Y                       ",
"                    Z L `  .                    ",
"                 . ...+.@. . . .                ",
"               . . .#.$.%. . . . .              ",
"             . . . .&.*.=. . . . . .            ",
"           . . . . . . . . . . . . . .          ",
"         . . . . . . . . . . . . . . .-.        ",
"         . . . . . . . . . . . . . . . .        ",
"       . . . . . . . . . . . . . . . . . .      ",
"       . . . . . . . . . . . . . . . . . .      ",
"     . . . . . . . . . . . . . . . . . . . .    ",
"     . . . . . . . . . . . . . . . . . . . .    ",
"   . . . . . . . . . . . . . . . . . . . . . .  ",
"   . . . . . . . . . . . . . . . . . . . . . .  ",
"   . .;.>.>.,.'.).!. . . . . .!.~.{.].^./. . .  ",
" .(._.:.<.[.}.|.1.2. . . .3.4.5.6.7.8.9.0.a. .  ",
" .b.c.d.e.f.g.h.i.j.k. .l.m.n.o.p.q.r.s.s.t.u.(.",
" .v.w.x.y.z.A.B.C.D.E. .F.G.H.I.J.K.L.M.N.O.P.F.",
"/.).Q.R.S.T.U.V.W.X.Y. .Z.`. +.+++@+#+$+%+&+*+F.",
"=+-+;+>+,+'+)+j.!+~+{+ .4.]+j.^+/+(+_+:+<+{+;.[+",
"-+.+}+|+1+2+3+4+5+6+4. .7+8+j.9+0+a+b+c+d+e+f+g+",
"Z.h+i+j+k+Y.l+m+n+o+3. .p+q+r+s+t+e+u+v+w+e+-+k+"};
