/* XPM */
static char * PrintChar_trans_xpm[] = {
"50 32 262 2",
"  	c None",
". 	c #000000",
"+ 	c #9E9E9E",
"@ 	c #606060",
"# 	c #8C8C8C",
"$ 	c #575757",
"% 	c #444444",
"& 	c #535353",
"* 	c #818181",
"= 	c #AFAFAF",
"- 	c #959595",
"; 	c #404040",
"> 	c #474747",
", 	c #383838",
"' 	c #B7B7B7",
") 	c #A6A5A5",
"! 	c #B9B9B9",
"~ 	c #090909",
"{ 	c #585858",
"] 	c #555555",
"^ 	c #7E7E7E",
"/ 	c #545353",
"( 	c #3D3D3D",
"_ 	c #846827",
": 	c #8E8E8E",
"< 	c #060606",
"[ 	c #0E0E0E",
"} 	c #8C6B1E",
"| 	c #2A2924",
"1 	c #706248",
"2 	c #4E3A12",
"3 	c #4C3812",
"4 	c #898989",
"5 	c #515151",
"6 	c #1A1A1A",
"7 	c #504C46",
"8 	c #7C6B49",
"9 	c #BAAF9A",
"0 	c #7F7052",
"a 	c #8F7028",
"b 	c #A2A2A2",
"c 	c #8F8F8F",
"d 	c #9F9F9F",
"e 	c #989897",
"f 	c #6B5D41",
"g 	c #C5BDAA",
"h 	c #EFEBE1",
"i 	c #C0B6A1",
"j 	c #594623",
"k 	c #8E7333",
"l 	c #919191",
"m 	c #939393",
"n 	c #9B9B9B",
"o 	c #868583",
"p 	c #6C5C3D",
"q 	c #F8F6F2",
"r 	c #F0EDE3",
"s 	c #E6DFCF",
"t 	c #645433",
"u 	c #B8B8B8",
"v 	c #95804F",
"w 	c #777165",
"x 	c #8E7F5F",
"y 	c #FAF8F5",
"z 	c #F2EFE6",
"A 	c #E5DECD",
"B 	c #908160",
"C 	c #A3A3A3",
"D 	c #998453",
"E 	c #A9A9A9",
"F 	c #8C8576",
"G 	c #B5A78B",
"H 	c #F7F4EF",
"I 	c #F4F1EA",
"J 	c #E4DCCA",
"K 	c #AE9F7E",
"L 	c #F0F0F0",
"M 	c #C2C2C2",
"N 	c #DEDEDE",
"O 	c #FFFFFF",
"P 	c #DDDDDD",
"Q 	c #F3F3F3",
"R 	c #9C9C9C",
"S 	c #988352",
"T 	c #A7A7A7",
"U 	c #9D9D9D",
"V 	c #979797",
"W 	c #8B8373",
"X 	c #B7A98B",
"Y 	c #F0EBE1",
"Z 	c #F5F2EC",
"` 	c #E1D9C6",
" .	c #AC9E7C",
"..	c #BEBEBE",
"+.	c #5A5A5A",
"@.	c #070707",
"#.	c #707070",
"$.	c #343434",
"%.	c #828282",
"&.	c #747474",
"*.	c #717171",
"=.	c #848484",
"-.	c #6E6E6E",
";.	c #050505",
">.	c #CBCBCB",
",.	c #998A68",
"'.	c #A5A5A5",
").	c #938B7B",
"!.	c #B2A17D",
"~.	c #DFD5C0",
"{.	c #EEE9DE",
"].	c #DBD1BA",
"^.	c #A3926B",
"/.	c #5F5F5F",
"(.	c #494949",
"_.	c #0C0C0C",
":.	c #101010",
"<.	c #696969",
"[.	c #7A7A7A",
"}.	c #505050",
"|.	c #424242",
"1.	c #787878",
"2.	c #1C1C1C",
"3.	c #676767",
"4.	c #5D5D5D",
"5.	c #9A9A9A",
"6.	c #969695",
"7.	c #A4A4A4",
"8.	c #887F6F",
"9.	c #A89468",
"0.	c #C8B893",
"a.	c #CDBF9E",
"b.	c #BCA97D",
"c.	c #937D4A",
"d.	c #E8E8E8",
"e.	c #CDCDCD",
"f.	c #CCCCCC",
"g.	c #ECECEC",
"h.	c #A3A097",
"i.	c #A1A1A1",
"j.	c #8F8676",
"k.	c #9C8451",
"l.	c #AE9761",
"m.	c #A18647",
"n.	c #907127",
"o.	c #836727",
"p.	c #2D2D2D",
"q.	c #5C5C5C",
"r.	c #977F47",
"s.	c #AEAEAE",
"t.	c #837B6B",
"u.	c #937A43",
"v.	c #A2884A",
"w.	c #987A36",
"x.	c #8E6E23",
"y.	c #7E611E",
"z.	c #D6D6D6",
"A.	c #A0A0A0",
"B.	c #989898",
"C.	c #AAAAAA",
"D.	c #4F4F4F",
"E.	c #B3B3B3",
"F.	c #C9C9C9",
"G.	c #9C7F3D",
"H.	c #ABABAB",
"I.	c #746D5F",
"J.	c #896F36",
"K.	c #9C803D",
"L.	c #94762F",
"M.	c #7D5F1C",
"N.	c #E3E3E3",
"O.	c #949494",
"P.	c #363636",
"Q.	c #8D8D8D",
"R.	c #E0E0E0",
"S.	c #8A8A8A",
"T.	c #BCBCBC",
"U.	c #464646",
"V.	c #D3D3D3",
"W.	c #969492",
"X.	c #937E4F",
"Y.	c #997B37",
"Z.	c #93742D",
"`.	c #7F6320",
" +	c #A6A6A6",
".+	c #C8C8C8",
"++	c #E9E9E9",
"@+	c #797979",
"#+	c #CECECE",
"$+	c #C5C5C5",
"%+	c #83785D",
"&+	c #967933",
"*+	c #92732B",
"=+	c #8F6E23",
"-+	c #785F26",
";+	c #858585",
">+	c #929292",
",+	c #D0D0D0",
"'+	c #E6E6E6",
")+	c #DADADA",
"!+	c #6D6B68",
"~+	c #957730",
"{+	c #92732A",
"]+	c #8F6F24",
"^+	c #5C4517",
"/+	c #D4D4D4",
"(+	c #3E3E3E",
"_+	c #616161",
":+	c #333333",
"<+	c #C3C3C3",
"[+	c #7D7C79",
"}+	c #846728",
"|+	c #917229",
"1+	c #816421",
"2+	c #999999",
"3+	c #151515",
"4+	c #5B5B5B",
"5+	c #BBBBBB",
"6+	c #D9D9D9",
"7+	c #71706F",
"8+	c #68501E",
"9+	c #7E6323",
"0+	c #6A521E",
"a+	c #ADADAD",
"b+	c #CACACA",
"c+	c #EEEEEE",
"d+	c #767676",
"e+	c #6A6A6A",
"f+	c #3A3A3A",
"g+	c #D1D1D1",
"h+	c #868686",
"i+	c #E5E5E5",
"j+	c #A8A8A8",
"k+	c #666666",
"l+	c #808080",
"m+	c #727272",
"n+	c #686868",
"o+	c #C6C6C6",
"p+	c #1F1F1F",
"q+	c #414141",
"r+	c #8B8B8B",
"s+	c #242424",
"t+	c #BDBDBD",
"u+	c #626262",
"v+	c #7F7F7F",
"w+	c #C1C1C1",
"x+	c #6C6C6C",
"y+	c #BFBFBF",
"z+	c #957735",
"A+	c #757575",
"B+	c #6B6B6B",
"C+	c #6F6F6F",
"D+	c #B1B1B1",
"E+	c #CFCFCF",
"F+	c #9E8F72",
"G+	c #3C3C3C",
"H+	c #1B1B1B",
"I+	c #2E2E2E",
"J+	c #F1F1F1",
"K+	c #D2D2D2",
"L+	c #777777",
"M+	c #636363",
"                                            .                                                       ",
"      + @ # $               . .           . .     .     . .     .           . .       . .           ",
"  %   & * = - ;               .           .   .         . .                   . .                   ",
"  >   , ' ) ! ~               .           . . .         . .                     .                   ",
"  {   ] ^ / * (               .         .               . .                     . . .               ",
"  _   : < . [                 .         .       .       . .       . . .           . .               ",
"  }     . . .                 .                         . .       .             . . .               ",
"  }     ~ . | 1 2 3           .                         . .       .           .     . .             ",
"  }   4 5 6 7 8 9 0           .                         . .       .                   .             ",
"  a b c d e f g h i j       . .       .                 . .       .         .         . .           ",
"  k l m n o p q r s t                                             .                                 ",
"u v * 4 l w x y z A B                                             . . .                             ",
"C D b E C F G H I J K                       L M M M M M M M M M M N O P M M M M M M M M M M Q       ",
"R S T U V W X Y Z `  .                      ... +.@.& #.c $.c c %.&.O *.=.c c $.c -.] ;.+.. >.      ",
"V ,.= '.C ).!.~.{.].^.                      ../.(.R _.:.<.6 [.}.; &.O *.|.}.1.2.3.:._.+ (.4.>.      ",
"5.6.U 7.d 8.9.0.a.b.c.                      d.C C C C C C C C C C e.O f.C C C C C C C C C C g.      ",
">.h.i.d U j.k.l.m.n.o.                      O O O O O O O O O O O O p.. . . . i.p.q.q.q.q.$.>.      ",
"  r.= s.n t.u.v.w.x.y.                      z.q.q.q.A.B.C.q.D.- B.O E.C C C C F.p.q.q.q.q.$.>.      ",
"  G.N E H.I.J.K.L.x.M.                      N.c c O.O T c c P.Q.R.O S.#.#.#.#.T.U.c c c c 5 >.      ",
"  G.V.O.7.W.X.Y.Z.x.`.                      d.C C  +z.s.C C C C .+++@+q.q.q.q.' 5 C C C C 4.>.      ",
"  G.#+O.$+C.%+&+*+=+-+                      R.;+;+;+;+;+;+;+;+;+;+T.>+[.[.[.[.,+;+;+;+;+;+;+'+      ",
"  G.>.m )+1.!+~+{+]+^+                      z.q.q.q.q.q.q.q.q.q.q. +E.C C C C /+(+H._+:+q.q.N       ",
"  G.<+* ,+=.[+}+|+1+                        O O O O O O O O O O O O H.2+2+2+2+'+e.3+4+5+O O O       ",
"  G..+>+6+* 7+8+9+0+                        z.q.q.q.q.q.q.q.q.q.q. +@+q.q.q.q.e.a+' b+a+a+a+c+      ",
"  G.<+* ,+d+*                               z.q.q.q.q.q.q.q.q.q.e+O @+q.q.q.q.' . f+3.. . . >.      ",
"  G.g+h+e.d+<.                              i+2+2+2+2+j+b+2+2+2+b O H.2+2+2+2+V.k+4 7.k+k+k+R.      ",
"  G.f.l+.+m+n+                              o+p+p+p+p+q+r+p+p+p+s+ +E.C C C C /+q.q.t+u+q.q.N       ",
"  G.,+v+w+x+e+                              R.;+;+;+;+V y+;+;+;+;+T.>+[.[.[.[.,+;+;+e.4 ;+;+'+      ",
"  z+<+A+B+C+*.                              d.C C C C D+E+C C C j+++@+q.q.q.q.f.C C )+T C C g.      ",
"  F+-.G+H+I+A+                              N.c c c c A.$+c c c 2+O O O O O O J+c c K+m c c d.      ",
"  A.[.&.L+M+S.                              O O O O O O O O O O O O O O O O O O O O O O O O O       ",
"                                                                                                    "};
