/* XPM */
static char * redo_xpm[] = {
"50 32 156 2",
"  	c None",
". 	c #D60202",
"+ 	c #060602",
"@ 	c #625A42",
"# 	c #828272",
"$ 	c #9A9A8A",
"% 	c #AAAA9A",
"& 	c #7A7A6E",
"* 	c #BABAA6",
"= 	c #1A1A16",
"- 	c #7E7E72",
"; 	c #C6C6B2",
"> 	c #D60606",
", 	c #524E46",
"' 	c #827E76",
") 	c #CECEBA",
"! 	c #FA0202",
"~ 	c #DA3E36",
"{ 	c #E68A5A",
"] 	c #D2D2BE",
"^ 	c #DA5E42",
"/ 	c #DA3A36",
"( 	c #EEAEA2",
"_ 	c #F29A92",
": 	c #D6D6C2",
"< 	c #DE8E82",
"[ 	c #FE0606",
"} 	c #F20202",
"| 	c #DADAC6",
"1 	c #EABE82",
"2 	c #E2AA6A",
"3 	c #FE1E1E",
"4 	c #FE5E5E",
"5 	c #8E8E7E",
"6 	c #E2BEAA",
"7 	c #DEDEC6",
"8 	c #FE6666",
"9 	c #E6CA86",
"0 	c #E60202",
"a 	c #EAD296",
"b 	c #EECEA6",
"c 	c #FE4E4E",
"d 	c #A2A292",
"e 	c #F67E62",
"f 	c #6A665E",
"g 	c #E2E2CA",
"h 	c #FE3E3E",
"i 	c #FE3232",
"j 	c #FA1A12",
"k 	c #E6CEBA",
"l 	c #D6BE8A",
"m 	c #D62216",
"n 	c #DA766A",
"o 	c #B6B6A2",
"p 	c #EEDEBA",
"q 	c #E20202",
"r 	c #E2C692",
"s 	c #E2D2B2",
"t 	c #EEDAAA",
"u 	c #FE6A6A",
"v 	c #EAC2B2",
"w 	c #969686",
"x 	c #6A6A62",
"y 	c #8A8A7A",
"z 	c #BEBEAA",
"A 	c #EADEC2",
"B 	c #E2D6BE",
"C 	c #FE2222",
"D 	c #FE6E6E",
"E 	c #D60E0A",
"F 	c #FA827E",
"G 	c #76766A",
"H 	c #9E927A",
"I 	c #DE0202",
"J 	c #FE4646",
"K 	c #B2B2A2",
"L 	c #E2E2CE",
"M 	c #CEC2A6",
"N 	c #F2A69A",
"O 	c #E2B672",
"P 	c #FE0E0E",
"Q 	c #FE5652",
"R 	c #A6A696",
"S 	c #929282",
"T 	c #E2DECA",
"U 	c #8A867A",
"V 	c #CACAB6",
"W 	c #FA3A2A",
"X 	c #AEAE9E",
"Y 	c #FE2A2A",
"Z 	c #FE7272",
"` 	c #DA0202",
" .	c #9E9A8E",
"..	c #DA5E56",
"+.	c #FE7676",
"@.	c #FE0202",
"#.	c #C2C2AE",
"$.	c #DEDAC6",
"%.	c #D61616",
"&.	c #86867A",
"*.	c #9E9E8E",
"=.	c #FE0A0A",
"-.	c #F6B29A",
";.	c #E2D2BE",
">.	c #D2CEBE",
",.	c #DAD6C2",
"'.	c #928E82",
").	c #726E66",
"!.	c #FE6262",
"~.	c #EAD2A2",
"{.	c #F60202",
"].	c #AAA696",
"^.	c #CAC6B6",
"/.	c #FE3636",
"(.	c #6E6E62",
"_.	c #9A968A",
":.	c #D6D2BE",
"<.	c #E6E2CA",
"[.	c #EEB2A6",
"}.	c #E2C2B2",
"|.	c #D61212",
"1.	c #FE4A4A",
"2.	c #B2AE9E",
"3.	c #C6C2B2",
"4.	c #868276",
"5.	c #8E8A7E",
"6.	c #E2DAC6",
"7.	c #BEBAAA",
"8.	c #BAB6A6",
"9.	c #CECAB6",
"0.	c #AEAA9A",
"a.	c #EA0202",
"b.	c #DEDECA",
"c.	c #E6CA8E",
"d.	c #FE1A1A",
"e.	c #E6D6C6",
"f.	c #C2BEAE",
"g.	c #A29E92",
"h.	c #8E8E82",
"i.	c #929286",
"j.	c #C2C2B2",
"k.	c #9A9A8E",
"l.	c #828276",
"m.	c #C6C6B6",
"n.	c #8A8A7E",
"o.	c #BABAAA",
"p.	c #B6B6A6",
"q.	c #EAD29A",
"r.	c #96968A",
"s.	c #E6CA8A",
"t.	c #E6CEBE",
"u.	c #EEDEBE",
"v.	c #EADEC6",
"w.	c #FE5656",
"x.	c #AAA69A",
"y.	c #6E6E66",
"                                                                                                    ",
"                                                                                                    ",
"                                                                    D                               ",
"                      L L                                         D !.C                             ",
"                    g g L L                                     D u i @.@.                          ",
"                  L T T g g L                                 D u h [ @.{.`                         ",
"              L g L L T T g L L                             D D 1.[ @.! I . .                       ",
"            L g T L L L L T g g L                         D u 1.P @.! q . . .                       ",
"          g T L g g L L L T T g b.g                       D !.P @.@.0 . . .                         ",
"        L T L L T T g g L L L T 2.K g                   D !.d.@.@.a.. . .                           ",
"      g L L g L L T T g g #.: o.o.r.7 L L             D 8 Y @.@.} . . .                             ",
"    L T L g T L L L L T T ,.*.$ '.).^.g g L         D 8 /.@.@.} . . .                               ",
"L g L g T L g g L L L L b.L #.'.#.* : T g L L     D u h [ @.! ` . .                                 ",
"g T L T L L T T g $.T ) % ,.T z K b.T L T g T t.Z u 1.[ @.! I . .                                   ",
"L g L L g L L T | $ K G i.d j.b.T L L L T g 6._ D w.P @.@.q . . .                                   ",
"L T L g T L L L 7 r.y.n.- h.% g L L g L L L N Z 4 3 @.@.0 . . .                                     ",
"L g T L g g L T g ;  .R d *.L g g T g L T [.+.8 d.@.@.a.. . .                                       ",
"L T L L T b.g ) ) T ) d j.$.T T T L T g v +.8 Y @.@.} ` . .                                         ",
"L L g L >.% m.5.$ o.T ,.L L L L L L T t.F u i @.@.{.. . %.                                          ",
"L g T | o x &.y.- n.] L L g L L g L g N Z h =.@.{.` . |.< T                                         ",
"T L g ] y & l.% w d b.g L g g T g L A -.w.=.@.@.I . > n T L L                                       ",
"L L T K n.# $ r.V $.g T T T T L T T A b e W j q . . ..;.g g g L                                     ",
"g T ^.i.p.K G ^.b.T L L L L L L g g A t a 1 { E . / k L T T g L L                                   ",
"$.: d n. .n.X g L L L g L L g T 6.T p t b r 2 m / }.g g L L T g g L                                 ",
"z i.S h.) #.b.g L g L b.0.| g <.g 9.H q.a r O ^ 6 b.b.L L L T T g L L                               ",
"l.$ k.5 >.T L T $.>.,.: $ f.L L g - + @ l 9 l s T L L g g L L L T g g L                             ",
"8.d p.: L g L g 7 ; R h.U $ b.T g f = , M 6.T g g L T T g L L L T T g L L L                         ",
"d 3.] g L T L L T ] 5 X R x.L L | R d ] g <.T g g g L L T g g L L L T g g g L                       ",
": $.L T L 7 g ) >.T 9.h.: $.g g g T g g T g T T T L L L T T g L L L T T T g L L                     ",
"g L T L ] % j.l.R m.b.] $.L L L g g T g g g L L L g g L L L T g g L L L L T g g L                   ",
"g L g L V 4.&.G G S ) L g T g T g g T L L g L L T T g L L L T T g L L L L T T g L L                 ",
"L g L g $.l.n.R n.*.b.g T L T L L g L g T L g g L L T g g L L L T g g g L L L T g g L               "};
