/* XPM */
static char * Reduzieren_trans_32_xpm[] = {
"24 32 234 2",
"  	c None",
". 	c #C6C6C6",
"+ 	c #B1B1B1",
"@ 	c #A8A8A8",
"# 	c #E8E8E8",
"$ 	c #C1C1C1",
"% 	c #BBBBBB",
"& 	c #9C9C9C",
"* 	c #B5B5B5",
"= 	c #CACACA",
"- 	c #CBCBCB",
"; 	c #A1A1A1",
"> 	c #9E9E9E",
", 	c #A0A0A0",
"' 	c #B4B4B4",
") 	c #EEEEEE",
"! 	c #C8C8C8",
"~ 	c #A5A5A5",
"{ 	c #B6B6B6",
"] 	c #D3D3D3",
"^ 	c #CCCCCC",
"/ 	c #F4F4F4",
"( 	c #C0C0C0",
"_ 	c #999999",
": 	c #8B8B8B",
"< 	c #949494",
"[ 	c #7A7A7A",
"} 	c #808080",
"| 	c #919191",
"1 	c #EBEBEB",
"2 	c #AFAFAF",
"3 	c #939393",
"4 	c #888888",
"5 	c #959595",
"6 	c #929292",
"7 	c #FFFFFF",
"8 	c #BDBDBD",
"9 	c #9A9A9A",
"0 	c #989898",
"a 	c #858585",
"b 	c #7F7F7F",
"c 	c #818181",
"d 	c #FBFBFB",
"e 	c #BCBCBC",
"f 	c #ACACAC",
"g 	c #848484",
"h 	c #ECECEC",
"i 	c #EDEDED",
"j 	c #DDDDDD",
"k 	c #CDCDCD",
"l 	c #B0B0B0",
"m 	c #A2A2A2",
"n 	c #D7D7D7",
"o 	c #B9B9B9",
"p 	c #DEDEDE",
"q 	c #A3A3A3",
"r 	c #909090",
"s 	c #8F8F8F",
"t 	c #8E8E8E",
"u 	c #B2B2B2",
"v 	c #ADADAD",
"w 	c #E7D8B9",
"x 	c #CAC0AB",
"y 	c #BEBEBE",
"z 	c #BABABA",
"A 	c #979797",
"B 	c #B6B2A8",
"C 	c #EBDBBC",
"D 	c #EDDDBD",
"E 	c #DDCFB3",
"F 	c #8F8C86",
"G 	c #8C8C8C",
"H 	c #969696",
"I 	c #8F8B85",
"J 	c #DBCEB2",
"K 	c #BDB4A1",
"L 	c #7B7B7B",
"M 	c #DACDB2",
"N 	c #E5D6B8",
"O 	c #7D7D7D",
"P 	c #8D8B86",
"Q 	c #EDDDBC",
"R 	c #E8D9B8",
"S 	c #797979",
"T 	c #7C7C7C",
"U 	c #898783",
"V 	c #A39E92",
"W 	c #888683",
"X 	c #7D7C7B",
"Y 	c #99948A",
"Z 	c #E7D7B9",
"` 	c #E4D5B6",
" .	c #EADABB",
"..	c #E7D7B8",
"+.	c #D4C7AC",
"@.	c #CEC1A7",
"#.	c #D3C6AA",
"$.	c #E0D2B4",
"%.	c #EADBBB",
"&.	c #D3C6AB",
"*.	c #BFB49D",
"=.	c #CABDA4",
"-.	c #DBCDB0",
";.	c #E9D9BA",
">.	c #ECDDBD",
",.	c #E0D1B4",
"'.	c #AEA591",
").	c #7F7B70",
"!.	c #7C786E",
"~.	c #78756B",
"{.	c #706D63",
"].	c #837D6E",
"^.	c #C7BA9F",
"/.	c #EBDBBB",
"(.	c #DACBAE",
"_.	c #C1B59C",
":.	c #7F7B6F",
"<.	c #77746B",
"[.	c #7B786E",
"}.	c #888376",
"|.	c #AFA592",
"1.	c #DECFB2",
"2.	c #E3D5B6",
"3.	c #9C9584",
"4.	c #747169",
"5.	c #6B6962",
"6.	c #6D6B63",
"7.	c #716F66",
"8.	c #626059",
"9.	c #686459",
"0.	c #A59984",
"a.	c #EADABA",
"b.	c #ECDCBD",
"c.	c #D0C1A6",
"d.	c #A19782",
"e.	c #7E786A",
"f.	c #6D6A62",
"g.	c #79766C",
"h.	c #7A776D",
"i.	c #737168",
"j.	c #A39B89",
"k.	c #D0C3A8",
"l.	c #727067",
"m.	c #6F6D66",
"n.	c #939089",
"o.	c #A7A298",
"p.	c #999180",
"q.	c #968E7E",
"r.	c #A09681",
"s.	c #B1A58D",
"t.	c #E6D7B8",
"u.	c #B6A992",
"v.	c #8D8371",
"w.	c #8B8474",
"x.	c #A19A8B",
"y.	c #BFB9AA",
"z.	c #C5BEB0",
"A.	c #A59F8F",
"B.	c #847F73",
"C.	c #7C786F",
"D.	c #BDB29B",
"E.	c #A99F8C",
"F.	c #AEA89D",
"G.	c #868584",
"H.	c #CFCECD",
"I.	c #BAB2A5",
"J.	c #B0A48D",
"K.	c #A99D86",
"L.	c #B5A990",
"M.	c #DACCAE",
"N.	c #DDCEB0",
"O.	c #ADA18A",
"P.	c #A39782",
"Q.	c #BDB098",
"R.	c #AFA99E",
"S.	c #7E7E7D",
"T.	c #E1E1DF",
"U.	c #E4DFD4",
"V.	c #BBAF97",
"W.	c #A9A08C",
"X.	c #BCB29B",
"Y.	c #D1C2A7",
"Z.	c #CBBDA2",
"`.	c #AA9E8A",
" +	c #AEA9A0",
".+	c #636363",
"++	c #B7B6B4",
"@+	c #B5AC9A",
"#+	c #948976",
"$+	c #A69A85",
"%+	c #D0C2A6",
"&+	c #AA9E88",
"*+	c #BBAE96",
"=+	c #AAA499",
"-+	c #686767",
";+	c #DADAD8",
">+	c #DCD7CC",
",+	c #BCAF96",
"'+	c #ECDCBC",
")+	c #A09580",
"!+	c #A99F8B",
"~+	c #C2BAAB",
"{+	c #BAB19F",
"]+	c #A89C87",
"^+	c #AFA38D",
"/+	c #A19680",
"(+	c #A89C86",
"_+	c #DCCEB0",
":+	c #ACA18A",
"<+	c #BBAE95",
"[+	c #C7BAA3",
"}+	c #C7BEAD",
"|+	c #D2CABB",
"1+	c #C6BBA5",
"2+	c #BFB299",
"3+	c #C6B89E",
"4+	c #D9CBAE",
"5+	c #E8D9B9",
"6+	c #D3C4A9",
"7+	c #DBCCAE",
"8+	c #D8C9AC",
"9+	c #DCCDB0",
"0+	c #D7C9AC",
"a+	c #DACDAF",
"b+	c #BEB197",
"c+	c #C0B399",
"d+	c #E6D6B8",
"e+	c #BFB199",
"f+	c #ADA18B",
"g+	c #CCBEA2",
"h+	c #C9BBA0",
"i+	c #C2B49B",
"j+	c #BDB097",
"k+	c #C5B79D",
"                                                ",
"                      . + @                     ",
"                  # $ % & * =                   ",
"                  - ; > , ' ) !                 ",
"                ' ~ { ] { @ ^ / (               ",
"                _ : < ~ [ } | - 1               ",
"              2 3 4 3 5 6 < & % 7               ",
"              8 9 0 a } b c a 0 d               ",
"              e 3 f e 9 g b a > h               ",
"                9 ~ i # j k ' l =               ",
"                m | ; e k n o e p               ",
"                @ q r | s t t &                 ",
"                  ' 8 ( e { u v                 ",
"              w x 4 . y z + A B C               ",
"            D D E F G 9 f H I J D D             ",
"          D D D D K L L L L M D D D D           ",
"        D D D D D N O O O P D D D D D Q         ",
"        D D D D D R S L T U D D D D D D         ",
"      D D D D D D D V W X Y D D D D D D D       ",
"      D D D D D D D D Z `  .D D D D D D D       ",
"    D D D D D D D D D D D D D D D D D D D D     ",
"    D D D D D D D D D D D D D D D D D D D D     ",
"  D D D D D D D D D D D D D D D D D D D D D D   ",
"  D D D D D D D D D D D D D D D D D D D D D D   ",
"  D D ..+.+.@.#.$.%.D D D D D %.&.*.=.-.;.D D   ",
"D >.,.'.).!.~.{.].^.D D D /.(._.:.<.[.}.|.1.D   ",
"D 2.3.4.5.6.7.8.9.0.a.D b.c.d.e.f.g.h.i.i.j.w >.",
"D k.l.m.n.o.p.q.r.s.` D t.u.v.w.x.y.z.A.B.C.D.t.",
";.$.E.F.G.H.I.J.K.L.M.D N.O.P.Q.R.S.T.U.V.W.X.t.",
"Y.Z.`. +.+++@+0.#+$+%+D (.&+0.*+=+-+;+>+,+%+..'+",
"Z.Q.)+!+~+{+]+^+/+(+(.D _+:+0.<+[+}+|+1+2+3+4+5+",
"N.6+7+8+9+M.0+a+b+c+/.D d+e+f+g+h+3+i+j+k+3+Z.9+"};
