/* XPM */
static char * Regio_Alba_50_xpm[] = {
"50 32 232 2",
"  	c None",
". 	c #020202",
"+ 	c #1A562E",
"@ 	c #7EB28E",
"# 	c #020602",
"$ 	c #4A5662",
"% 	c #428E5E",
"& 	c #3E260E",
"* 	c #3A7E62",
"= 	c #422A0E",
"- 	c #769682",
"; 	c #667A8A",
"> 	c #6A563E",
", 	c #9E7E5E",
"' 	c #4A3E2E",
") 	c #96BEA6",
"! 	c #929292",
"~ 	c #727272",
"{ 	c #322A1E",
"] 	c #424A52",
"^ 	c #527E62",
"/ 	c #B2B2B2",
"( 	c #6E5A42",
"_ 	c #A6CAB2",
": 	c #B28E6A",
"< 	c #1A5E32",
"[ 	c #464646",
"} 	c #9E7A5E",
"| 	c #967E66",
"1 	c #0A2612",
"2 	c #3E3222",
"3 	c #AA967E",
"4 	c #6A6E72",
"5 	c #C2C2C2",
"6 	c #564632",
"7 	c #166632",
"8 	c #4E4232",
"9 	c #765A3A",
"0 	c #C2DACA",
"a 	c #3A664A",
"b 	c #6EA682",
"c 	c #967A5A",
"d 	c #767676",
"e 	c #2A7E4A",
"f 	c #5E7E86",
"g 	c #76AE8A",
"h 	c #5A4A36",
"i 	c #6A8296",
"j 	c #56665A",
"k 	c #52422E",
"l 	c #A29282",
"m 	c #3A3A3A",
"n 	c #32463A",
"o 	c #5E7282",
"p 	c #8A725A",
"q 	c #6E6E6E",
"r 	c #A29686",
"s 	c #6AA67E",
"t 	c #221E16",
"u 	c #7AAE8E",
"v 	c #724E26",
"w 	c #826242",
"x 	c #5E3E16",
"y 	c #563612",
"z 	c #06120A",
"A 	c #423A2E",
"B 	c #1A6E3A",
"C 	c #B29E8A",
"D 	c #6E869A",
"E 	c #7E6E5E",
"F 	c #3E464E",
"G 	c #9AA29A",
"H 	c #6E4E2A",
"I 	c #DEDEDA",
"J 	c #92BEA2",
"K 	c #CACACA",
"L 	c #664622",
"M 	c #56626A",
"N 	c #52966A",
"O 	c #321E0A",
"P 	c #765E46",
"Q 	c #363632",
"R 	c #CABEAE",
"S 	c #BAD6C6",
"T 	c #120E0A",
"U 	c #566676",
"V 	c #768EA2",
"W 	c #766246",
"X 	c #8A8A8A",
"Y 	c #767A7E",
"Z 	c #B6D2BE",
"` 	c #9E9E9E",
" .	c #4E3212",
"..	c #62523A",
"+.	c #3A424A",
"@.	c #1A723A",
"#.	c #826642",
"$.	c #768A9A",
"%.	c #227A42",
"&.	c #869EA6",
"*.	c #726252",
"=.	c #5E5E5E",
"-.	c #BE9672",
";.	c #667E8E",
">.	c #A2A2A2",
",.	c #121212",
"'.	c #423626",
").	c #AA8662",
"!.	c #B2BEB6",
"~.	c #969696",
"{.	c #6E4E2E",
"].	c #0A0A06",
"^.	c #5A6A76",
"/.	c #3A8A56",
"(.	c #46525A",
"_.	c #DAEADE",
":.	c #2A1E16",
"<.	c #623E16",
"[.	c #362A22",
"}.	c #725E42",
"|.	c #AAAA9A",
"1.	c #5E9E76",
"2.	c #6A8A92",
"3.	c #4E9666",
"4.	c #927256",
"5.	c #CEDEDA",
"6.	c #866A4E",
"7.	c #9AC2AA",
"8.	c #624222",
"9.	c #664216",
"0.	c #6E5236",
"a.	c #6E7E8A",
"b.	c #76828A",
"c.	c #B6926E",
"d.	c #D6CECA",
"e.	c #265A3A",
"f.	c #BEBEBE",
"g.	c #328652",
"h.	c #7A664E",
"i.	c #969E96",
"j.	c #6E5642",
"k.	c #728A9E",
"l.	c #2A2A2A",
"m.	c #667A8E",
"n.	c #86B69A",
"o.	c #0E0E0E",
"p.	c #7E664A",
"q.	c #62421E",
"r.	c #4A2E0E",
"s.	c #62768A",
"t.	c #A6A6A6",
"u.	c #161616",
"v.	c #927656",
"w.	c #8A6E52",
"x.	c #725A42",
"y.	c #4A3A2E",
"z.	c #66523E",
"A.	c #A2C6AE",
"B.	c #6A7E92",
"C.	c #222222",
"D.	c #1A763A",
"E.	c #6A5646",
"F.	c #72869A",
"G.	c #8E7662",
"H.	c #A28262",
"I.	c #3E4A4E",
"J.	c #529A6E",
"K.	c #2A824A",
"L.	c #5A6E7E",
"M.	c #2E2E2E",
"N.	c #7E624A",
"O.	c #82664E",
"P.	c #462E0E",
"Q.	c #1E1E1E",
"R.	c #768AA2",
"S.	c #A27E5E",
"T.	c #6A523E",
"U.	c #6A7A86",
"V.	c #7A5E42",
"W.	c #7A624A",
"X.	c #6A421A",
"Y.	c #1E763E",
"Z.	c #424E56",
"`.	c #72AA86",
" +	c #76522E",
".+	c #B2A28A",
"++	c #CECECE",
"@+	c #B6D6C2",
"#+	c #CEE2D6",
"$+	c #9EC6AA",
"%+	c #6E8296",
"&+	c #BA926E",
"*+	c #6A5642",
"=+	c #664626",
"-+	c #0A0A0A",
";+	c #92765E",
">+	c #725A46",
",+	c #8E7256",
"'+	c #160E06",
")+	c #267A46",
"!+	c #16120E",
"~+	c #66768A",
"{+	c #2E824E",
"]+	c #725E46",
"^+	c #060606",
"/+	c #5E4A32",
"(+	c #5A3612",
"_+	c #463A2A",
":+	c #6A461E",
"<+	c #523212",
"[+	c #0E0A02",
"}+	c #66421E",
"|+	c #96765A",
"1+	c #66421A",
"2+	c #1A763E",
"3+	c #7E664E",
"4+	c #6E829A",
"5+	c #52966E",
"6+	c #72869E",
"7+	c #7EB292",
"8+	c #9E7E62",
"9+	c #564636",
"0+	c #667E92",
"a+	c #4E966A",
"b+	c #866A52",
"c+	c #3E3226",
"d+	c #524232",
"e+	c #9AA29E",
"f+	c #363636",
"g+	c #AA8666",
"h+	c #7A6652",
"i+	c #8E725A",
"                            a.M                               . . .                                 ",
"                            Z.]                             ` >.>.q                                 ",
"M ^.+.                      +.+.                              . .             .                     ",
"F F +.                    +.+.                                / ` @.D.        l.u..                 ",
"+.+.+.+.+.                +.                                  . # 7   `.g     X 5 ,..               ",
"      +.+.+.+.          +.+.                                  . .         2+^ ,.l.                  ",
"          +.+.+.+.      +.                                    . .           >.t.                    ",
"              +.+.+.+.+.]                                     . .         . . + N                   ",
"                +.+.+.F L.F.                                  -+-+        . .   _.N           . .   ",
"                  +.+.$ U o F.                                t.e+a+S   . .       K.D.        f+. . ",
"                  +.F U ^.L.m.k.R.                            . .   5+e.u..         n.)+  . l.5 Q.  ",
"                  +.    m.s.; B.D R.V                         . .     =.++          J < . . .       ",
"                +.+.        s.s.; m.6+$.V                     . .     . n e         z !.[ .         ",
"                +.              m.m.m.B.6+V                   . .   . .   7.7+    . . l.a           ",
"              +.+.                  ~+s.~+%+k.V               >.f.f+. .     B 1 . . .   Y.          ",
"            U.F             } |+4.    ; |.r U.4+V R.          . Q.! .       j ~..       e Z         ",
"            F +.        { }.h.W.N.w.6.  , H.p ;+H., | G.i+  t . o.t.    . . . - D.D.      b         ",
"            +.          Q.t h.}.W.P j.W.>+V.W.4.&+-.&+: )., O.[.^+. f+d o..     2+$+      %.        ",
"                      C I Q   > ( > z.E d 8 > p.).: c.c.S.,+O.p.*+T u.~.!         )       @         ",
"                      <.C     ..z.z.}. +#.( *+>+6.4.w.6.6.N.W.W.W.> u..           %.      S         ",
"                    r.&       z.j.z.j.<.{.T.z.P W.N.W.W.p.N.N.N.W.N.*.            {+      2+D.      ",
"                   .x x       T.W.T.}+X./+d+j.W.p.h.N.W.W.h.W.W.N.W.h+b.        _ /.      {+a+      ",
"                  [+<+        }.h.9 9.8.' 6 V.W.N.h.N.N.N.p.p.W.N.N.N.Y V R.    1.D.      % _       ",
"                r.<.          V.V.X.<.d+y.( h.N.W.N.h.W.W.W.W.p.h.W.W.q m.D 2.5.s Z 3.    u 5+      ",
"                [+X.          V.H X.L _+' V.W W.W W.W.W.W.p.W.N.P }.( q m.s.f &.* u #+    J a+$+    ",
"              X.9.            r #.q.k 2 z.x.x.}.P P }.}.P x.x.j.> z.*+    m.~+s.i R.R.R.            ",
"            [+<.X.            ~ d...c+6 > > T.T.> > T.> j.> > z.T.z.        U.~+s.0+D $.V           ",
"            O 9.              Q.A y.c+z.z.z.> > z.z.> z.z.z.z.> z.z.            m.~+s.0+4+k.        ",
"          R v               Q.Q.  y.9+z.z.z.z.z.> z.T.> z.z.z.> >                   m.s.m.;.%+k.    ",
"      9.:+3 |+                        > > z.z.z.z.z.z.z.> > z.                          ~+~+m.B.%+  ",
"      <+= x                                 > z.z.> ..z.                                            ",
"      = & (+                                                                                        "};
