/* XPM */
static char * Regio_H_u_D_F_50_xpm[] = {
"50 32 517 2",
"  	c None",
". 	c #5E3734",
"+ 	c #5E3833",
"@ 	c #653A33",
"# 	c #5A312F",
"$ 	c #72312D",
"% 	c #81332D",
"& 	c #7C362C",
"* 	c #573025",
"= 	c #482C24",
"- 	c #20140E",
"; 	c #22130B",
"> 	c #402E2E",
", 	c #572F29",
"' 	c #7E3129",
") 	c #8D2E27",
"! 	c #933129",
"~ 	c #812F25",
"{ 	c #592F25",
"] 	c #4C2C22",
"^ 	c #513229",
"/ 	c #22140A",
"( 	c #211107",
"_ 	c #452F34",
": 	c #603032",
"< 	c #592D24",
"[ 	c #7E3025",
"} 	c #8A2921",
"| 	c #9A261D",
"1 	c #86291D",
"2 	c #632B1E",
"3 	c #4F2A20",
"4 	c #562E26",
"5 	c #5A3530",
"6 	c #23140A",
"7 	c #201105",
"8 	c #22140B",
"9 	c #593239",
"0 	c #5D3235",
"a 	c #552F26",
"b 	c #702E21",
"c 	c #682B21",
"d 	c #8A281F",
"e 	c #842820",
"f 	c #5D2C24",
"g 	c #652C22",
"h 	c #572A21",
"i 	c #592C25",
"j 	c #6A332C",
"k 	c #86433D",
"l 	c #24150C",
"m 	c #211105",
"n 	c #22130A",
"o 	c #413539",
"p 	c #463436",
"q 	c #6C3A31",
"r 	c #793529",
"s 	c #702C21",
"t 	c #662A21",
"u 	c #863025",
"v 	c #5E2E26",
"w 	c #592D26",
"x 	c #482721",
"y 	c #5A281F",
"z 	c #722E24",
"A 	c #86382F",
"B 	c #8A3E35",
"C 	c #8D413A",
"D 	c #703B32",
"E 	c #5A392D",
"F 	c #221209",
"G 	c #321F24",
"H 	c #34252B",
"I 	c #4C313D",
"J 	c #392E35",
"K 	c #2B2829",
"L 	c #322E30",
"M 	c #685461",
"N 	c #8A6A86",
"O 	c #AB7486",
"P 	c #AF727E",
"Q 	c #9A6872",
"R 	c #845656",
"S 	c #864E4A",
"T 	c #A64235",
"U 	c #84352A",
"V 	c #6E291E",
"W 	c #682E23",
"X 	c #813429",
"Y 	c #863527",
"Z 	c #663025",
"` 	c #572B22",
" .	c #60271D",
"..	c #702F23",
"+.	c #933629",
"@.	c #723228",
"#.	c #5B3027",
"$.	c #543229",
"%.	c #55362F",
"&.	c #5B3A34",
"*.	c #664648",
"=.	c #271C21",
"-.	c #211416",
";.	c #2D1E22",
">.	c #3B2933",
",.	c #2E242B",
"'.	c #363032",
").	c #40393A",
"!.	c #3B3637",
"~.	c #3B3638",
"{.	c #3B3739",
"].	c #312D2E",
"^.	c #3A3433",
"/.	c #504445",
"(.	c #8A6061",
"_.	c #906670",
":.	c #6C5561",
"<.	c #815B5D",
"[.	c #A26A68",
"}.	c #935D56",
"|.	c #A26163",
"1.	c #904139",
"2.	c #BE4739",
"3.	c #933429",
"4.	c #973326",
"5.	c #663125",
"6.	c #7C3326",
"7.	c #903528",
"8.	c #7C3226",
"9.	c #6C2D22",
"0.	c #863228",
"a.	c #7E2C1F",
"b.	c #842D1D",
"c.	c #773324",
"d.	c #903B30",
"e.	c #863D35",
"f.	c #6C3D38",
"g.	c #814F51",
"h.	c #2A1E21",
"i.	c #312427",
"j.	c #3D2E36",
"k.	c #3E2934",
"l.	c #362D33",
"m.	c #453B3B",
"n.	c #604E4C",
"o.	c #5E4E4C",
"p.	c #56494C",
"q.	c #41393B",
"r.	c #4B3E3B",
"s.	c #604B47",
"t.	c #745756",
"u.	c #544950",
"v.	c #363236",
"w.	c #4E4242",
"x.	c #795757",
"y.	c #845D5D",
"z.	c #9E656A",
"A.	c #6A4240",
"B.	c #AB4134",
"C.	c #AB3C2E",
"D.	c #AF392B",
"E.	c #90382C",
"F.	c #6A3226",
"G.	c #7C3529",
"H.	c #843326",
"I.	c #8D3425",
"J.	c #8D3529",
"K.	c #843429",
"L.	c #9E3528",
"M.	c #843121",
"N.	c #703021",
"O.	c #72372A",
"P.	c #773E35",
"Q.	c #904E4C",
"R.	c #3E3339",
"S.	c #382C32",
"T.	c #291B1F",
"U.	c #1F1A1C",
"V.	c #211E1F",
"W.	c #4E4348",
"X.	c #4D4346",
"Y.	c #4E4143",
"Z.	c #4A3E3F",
"`.	c #554442",
" +	c #604C4B",
".+	c #52484E",
"++	c #39363D",
"@+	c #3D3738",
"#+	c #3D3636",
"$+	c #4D413E",
"%+	c #544544",
"&+	c #775656",
"*+	c #745660",
"=+	c #7E4743",
"-+	c #7C3526",
";+	c #933528",
">+	c #9E3428",
",+	c #8D3E32",
"'+	c #973D31",
")+	c #72352C",
"!+	c #723227",
"~+	c #933324",
"{+	c #7E392C",
"]+	c #723329",
"^+	c #B43B2E",
"/+	c #AF4035",
"(+	c #9E433B",
"_+	c #9A4946",
":+	c #A65A61",
"<+	c #211413",
"[+	c #221414",
"}+	c #332829",
"|+	c #362F31",
"1+	c #383135",
"2+	c #433B3F",
"3+	c #57484E",
"4+	c #5D4C4D",
"5+	c #554A4E",
"6+	c #6E595E",
"7+	c #453E40",
"8+	c #4E4542",
"9+	c #4B433B",
"0+	c #5E4D47",
"a+	c #8A6165",
"b+	c #705460",
"c+	c #703D35",
"d+	c #903729",
"e+	c #902E21",
"f+	c #AF2F22",
"g+	c #C33D2E",
"h+	c #A23C31",
"i+	c #703831",
"j+	c #8D382A",
"k+	c #A2402F",
"l+	c #863E31",
"m+	c #793A2F",
"n+	c #934137",
"o+	c #AB4E46",
"p+	c #975152",
"q+	c #8D5B68",
"r+	c #382B2D",
"s+	c #563B3E",
"t+	c #74484E",
"u+	c #5B3F44",
"v+	c #48393B",
"w+	c #3E3539",
"x+	c #3E3135",
"y+	c #68565B",
"z+	c #3B3838",
"A+	c #483F39",
"B+	c #635144",
"C+	c #66524B",
"D+	c #906561",
"E+	c #815D60",
"F+	c #6A4647",
"G+	c #7C392D",
"H+	c #813324",
"I+	c #9E3325",
"J+	c #B43325",
"K+	c #A63629",
"L+	c #9A3B2F",
"M+	c #903D31",
"N+	c #A24132",
"O+	c #B44433",
"P+	c #AB4D3C",
"Q+	c #CE5641",
"R+	c #D46350",
"S+	c #503D43",
"T+	c #794348",
"U+	c #A64F56",
"V+	c #9E4E5B",
"W+	c #904B54",
"X+	c #664543",
"Y+	c #3A2C32",
"Z+	c #251D24",
"`+	c #151924",
" @	c #3A3734",
".@	c #443D33",
"+@	c #604E3B",
"@@	c #846351",
"#@	c #976A68",
"$@	c #A26E74",
"%@	c #614E50",
"&@	c #5E4445",
"*@	c #6C372E",
"=@	c #773629",
"-@	c #8A3729",
";@	c #9A3325",
">@	c #A63224",
",@	c #B43D2E",
"'@	c #B44535",
")@	c #B94E41",
"!@	c #B4594D",
"~@	c #C36E66",
"{@	c #563E43",
"]@	c #8D454E",
"^@	c #9A4A50",
"/@	c #794651",
"(@	c #AF4E63",
"_@	c #AB5051",
":@	c #3A3743",
"<@	c #212B48",
"[@	c #1C2335",
"}@	c #161E2F",
"|@	c #141D34",
"1@	c #222635",
"2@	c #3A3933",
"3@	c #484033",
"4@	c #6E5643",
"5@	c #A27263",
"6@	c #B97777",
"7@	c #5A4743",
"8@	c #4E454A",
"9@	c #844338",
"0@	c #814135",
"a@	c #7E3D31",
"b@	c #9A3B2B",
"c@	c #A63A2B",
"d@	c #B43E2F",
"e@	c #B44737",
"f@	c #AF5144",
"g@	c #C36865",
"h@	c #614348",
"i@	c #93464E",
"j@	c #A24855",
"k@	c #4D3A41",
"l@	c #7C454E",
"m@	c #B44C50",
"n@	c #32334D",
"o@	c #1F2A5D",
"p@	c #26316E",
"q@	c #273474",
"r@	c #1F2B4D",
"s@	c #151F33",
"t@	c #1D222B",
"u@	c #282625",
"v@	c #312D2B",
"w@	c #3D3635",
"x@	c #483F3E",
"y@	c #423A3A",
"z@	c #2B2728",
"A@	c #9A4D41",
"B@	c #A24B3F",
"C@	c #B4483A",
"D@	c #B44F40",
"E@	c #AF4E3E",
"F@	c #86424A",
"G@	c #A24955",
"H@	c #63444D",
"I@	c #4C3A3D",
"J@	c #774043",
"K@	c #393342",
"L@	c #263179",
"M@	c #28358D",
"N@	c #1F2D90",
"O@	c #2A39B9",
"P@	c #243174",
"Q@	c #202A45",
"R@	c #21283B",
"S@	c #1D2029",
"T@	c #1A1A20",
"U@	c #181719",
"V@	c #171619",
"W@	c #2D3142",
"X@	c #8D3F46",
"Y@	c #C94957",
"Z@	c #8D4F56",
"`@	c #3D3032",
" #	c #4E3639",
".#	c #2C335B",
"+#	c #2D3A9E",
"@#	c #2434BE",
"##	c #2F3FCE",
"$#	c #31409E",
"%#	c #263574",
"&#	c #243470",
"*#	c #253681",
"=#	c #2B3B93",
"-#	c #2E3A77",
";#	c #273568",
">#	c #263572",
",#	c #222B4B",
"'#	c #AB434C",
")#	c #D44B5D",
"!#	c #9E525B",
"~#	c #36282C",
"{#	c #2D272E",
"]#	c #222C4E",
"^#	c #2A388A",
"/#	c #2E3CA6",
"(#	c #303FA6",
"_#	c #2A3A9E",
":#	c #25368A",
"<#	c #2A3A90",
"[#	c #293993",
"}#	c #2A3990",
"|#	c #202F72",
"1#	c #1F2C57",
"2#	c #1A2440",
"3#	c #86474F",
"4#	c #A24857",
"5#	c #934E5B",
"6#	c #382A2F",
"7#	c #322326",
"8#	c #171C2B",
"9#	c #1C2542",
"0#	c #1E2A51",
"a#	c #222E5D",
"b#	c #263584",
"c#	c #2A3BA6",
"d#	c #2B3879",
"e#	c #293781",
"f#	c #28367C",
"g#	c #1A274F",
"h#	c #1E2A4D",
"i#	c #172037",
"j#	c #24262E",
"k#	c #2F272C",
"l#	c #2D2229",
"m#	c #30262A",
"n#	c #2D2428",
"o#	c #1B171C",
"p#	c #121826",
"q#	c #1C243D",
"r#	c #1D2845",
"s#	c #222F56",
"t#	c #2B397C",
"u#	c #273363",
"v#	c #253056",
"w#	c #242F51",
"x#	c #16213B",
"y#	c #162344",
"z#	c #101A31",
"A#	c #1F242F",
"B#	c #1D181B",
"C#	c #20171C",
"D#	c #362830",
"E#	c #241F21",
"F#	c #1E181D",
"G#	c #1D1B22",
"H#	c #171D2C",
"I#	c #1A2239",
"J#	c #1C2845",
"K#	c #212E5B",
"L#	c #1C294F",
"M#	c #1D2847",
"N#	c #232D48",
"O#	c #172039",
"P#	c #101E43",
"Q#	c #131C33",
"R#	c #3E303B",
"S#	c #1C191C",
"T#	c #1C191D",
"U#	c #191316",
"V#	c #251A20",
"W#	c #362A32",
"X#	c #1E191C",
"Y#	c #1F1A1F",
"Z#	c #1C181C",
"`#	c #1A2132",
" $	c #1A2546",
".$	c #182655",
"+$	c #172451",
"@$	c #1B2545",
"#$	c #0E1523",
"$$	c #141E34",
"%$	c #141213",
"&$	c #171516",
"*$	c #151213",
"=$	c #171415",
"-$	c #131112",
";$	c #1A1E28",
">$	c #1A191E",
",$	c #211B19",
"'$	c #1F130A",
")$	c #22160C",
"!$	c #231306",
"~$	c #221205",
"{$	c #20140B",
"]$	c #231307",
"^$	c #241305",
"/$	c #2A1809",
"($	c #2D1906",
"_$	c #2E1809",
":$	c #2F1806",
"<$	c #311907",
"[$	c #291809",
"}$	c #281608",
"|$	c #291505",
"1$	c #2C1606",
"2$	c #2B1809",
"3$	c #140F0A",
"4$	c #18110B",
"5$	c #16100B",
"6$	c #251405",
"7$	c #241303",
"8$	c #301A0A",
"9$	c #291607",
"0$	c #281505",
"a$	c #291402",
"b$	c #311A09",
"c$	c #311A08",
"d$	c #2C1707",
"e$	c #2B1709",
"f$	c #251305",
"g$	c #251303",
"h$	c #2F1908",
"i$	c #301806",
"j$	c #2A1605",
"k$	c #281607",
"l$	c #271607",
"m$	c #2C1909",
"n$	c #2E1908",
"o$	c #351A07",
"p$	c #2C1604",
"q$	c #261507",
"r$	c #2D1807",
"                                                    . + @                                           ",
"                                                  # $ % & * =                                       ",
"  - ;                                           > , ' ) ! ~ { ] ^                                   ",
"    / (                                         _ : < [ } | 1 2 3 4 5                               ",
"      6 7 8                                     9 0 a b c d e f g h i j k                           ",
"        l m n                                   o p q r s t u v w x y z A B C D E                   ",
"            F G H I J K L               M N O P Q R S T U V W X Y Z `  ...+.@.#.$.%.&.*.            ",
"              =.-.;.>.,.'.).!.~.{.].^./.(._.:.<.[.}.|.1.2.3.4.5.6.7.8.9.0.a.b.c.d.e.f.g.            ",
"                h.i.j.k.l.m.n.o.p.q.r.s.t.u.v.w.x.y.z.A.B.C.D.E.F.G.H.I.J.K.L.M.N.O.P.Q.            ",
"                  R.S.T.U.V.W.X.Y.Z.`. +.+++@+#+$+%+&+*+=+-+;+>+,+'+)+!+~+{+]+^+/+(+_+:+            ",
"                      <+[+}+|+1+2+3+4+    5+6+7+8+9+0+a+b+c+d+e+f+g+h+i+j+k+l+m+n+o+p+q+            ",
"                        r+s+t+u+v+w+x+      y+z+A+B+C+D+E+F+G+H+I+J+K+L+M+N+O+P+Q+R+                ",
"                        S+T+U+V+W+X+v+Y+Z+`+   @.@+@@@#@$@%@&@*@=@-@;@>@,@'@)@!@~@                  ",
"                        {@]@^@/@(@_@:@<@[@}@|@1@2@3@4@5@6@7@8@  9@0@a@b@c@d@e@f@g@                  ",
"                        h@i@j@k@l@m@n@o@p@q@r@s@t@u@v@w@x@y@z@      A@B@C@D@E@                      ",
"                          F@G@H@I@J@K@L@M@N@O@P@Q@R@S@T@U@V@T@W@                                    ",
"                          X@Y@Z@  `@ #.#+#@###$#%#&#*#=#-#;#>#,#                                    ",
"                          '#)#!#    ~#{#]#^#/#(#_#:#<#[#}#|#1#2#                                    ",
"                          3#4#5#    6#7#8#9#0#a#b#c#d#e#f#g#h#i#j#                                  ",
"                          k#l#m#      n#o#p#q#r#s#t#u#v#w#x#y#z#A#                                  ",
"                          B#C#D#      E#F#G#H#I#J#K#L#M#N#O#P#Q#                                    ",
"                    R#S#T#U#V#W#      X#Y#Z#    `# $.$+$@$#$$$                                      ",
"                        %$&$*$      =$-$          ;$>$,$'$,$                                        ",
"                                                      )$!$~${$                                      ",
"                                                          ]$^$/$($                                  ",
"                                                          _$:$<$[$}$                                ",
"                                                            |$1$2$3$4$                              ",
"                                                                '$5$2$6$7$                          ",
"                                                                    8$:$9$0$a$                      ",
"                                                                      b$c$d$e$f$g$                  ",
"                                                                        h$<$i$j$k$l$                ",
"                                                                          m$n$o$p$q$r$              "};
