/* XPM */
static char * Regio_Nahuatlan_50_xpm[] = {
"50 32 209 2",
"  	c None",
". 	c #727256",
"+ 	c #C2C292",
"@ 	c #9A9A72",
"# 	c #B6B68E",
"$ 	c #DEDEAE",
"% 	c #AEAE86",
"& 	c #D6D6A6",
"* 	c #86826A",
"= 	c #D2D2A2",
"- 	c #A2A276",
"; 	c #CECE9E",
"> 	c #8E8E6A",
", 	c #A6A67A",
"' 	c #C6C6B2",
") 	c #E2E2D2",
"! 	c #BEBE96",
"~ 	c #DADAAE",
"{ 	c #D6D2AA",
"] 	c #CACA9A",
"^ 	c #AEAE9A",
"/ 	c #A6A686",
"( 	c #92926E",
"_ 	c #B6B69E",
": 	c #C2C2AE",
"< 	c #CECEB2",
"[ 	c #DEDECA",
"} 	c #D2D2B6",
"| 	c #76765A",
"1 	c #B2AE86",
"2 	c #A2A282",
"3 	c #BABA96",
"4 	c #AAAA86",
"5 	c #EAEAB2",
"6 	c #9E9A72",
"7 	c #C2C2AA",
"8 	c #96966E",
"9 	c #E6E6B2",
"0 	c #B2B28A",
"a 	c #BEBE9E",
"b 	c #C6C6A2",
"c 	c #9E9E7A",
"d 	c #AEAA82",
"e 	c #D6D6BE",
"f 	c #AEAE8E",
"g 	c #AAAA92",
"h 	c #BABA9E",
"i 	c #8A8A66",
"j 	c #C6C296",
"k 	c #B6B69A",
"l 	c #CACAB2",
"m 	c #AAA686",
"n 	c #DADAC6",
"o 	c #A29E82",
"p 	c #B2B296",
"q 	c #BAB692",
"r 	c #7A7A5A",
"s 	c #AAAA7E",
"t 	c #B6B28E",
"u 	c #969672",
"v 	c #A6A27E",
"w 	c #AAAA8E",
"x 	c #BEBEA6",
"y 	c #AAA67E",
"z 	c #D2D2BA",
"A 	c #C2C29A",
"B 	c #A6A282",
"C 	c #BEBA96",
"D 	c #CAC6AE",
"E 	c #E2E2AE",
"F 	c #C6C29E",
"G 	c #CACA9E",
"H 	c #C6C2AA",
"I 	c #9A9676",
"J 	c #96926E",
"K 	c #B6B296",
"L 	c #A29E76",
"M 	c #DADAA6",
"N 	c #B2AE8E",
"O 	c #9E9A76",
"P 	c #CECAA2",
"Q 	c #CECEBA",
"R 	c #BAB69E",
"S 	c #AEAA86",
"T 	c #D6D2BA",
"U 	c #827E5E",
"V 	c #9A9A7A",
"W 	c #A6A68E",
"X 	c #CECAB2",
"Y 	c #CAC6A2",
"Z 	c #9E9A7E",
"` 	c #DAD6C6",
" .	c #B2B292",
"..	c #A6A27A",
"+.	c #D6D2A2",
"@.	c #C6C6AE",
"#.	c #928E6A",
"$.	c #AAA68A",
"%.	c #C2C2A6",
"&.	c #E6E2D2",
"*.	c #BEBA9E",
"=.	c #C2BE9E",
"-.	c #AEAA8E",
";.	c #D2CEBA",
">.	c #B6B696",
",.	c #96967E",
"'.	c #A29E7A",
").	c #A6A67E",
"!.	c #C2BE9A",
"~.	c #8E8A6A",
"{.	c #DAD6C2",
"].	c #C2BEA6",
"^.	c #CACAAA",
"/.	c #EAE6DA",
"(.	c #868666",
"_.	c #C6C6AA",
":.	c #D2D2BE",
"<.	c #D2CEA6",
"[.	c #7E7E5E",
"}.	c #BABA9A",
"|.	c #B6B292",
"1.	c #969276",
"2.	c #A6A68A",
"3.	c #CAC6B2",
"4.	c #C6C2AE",
"5.	c #D6D2C2",
"6.	c #CECABA",
"7.	c #DEDAAA",
"8.	c #B6B29A",
"9.	c #D2CEB6",
"0.	c #EAE6B2",
"a.	c #B2B28E",
"b.	c #E6E2AE",
"c.	c #CAC6AA",
"d.	c #E2E2CE",
"e.	c #BAB696",
"f.	c #A6A682",
"g.	c #D6D6C2",
"h.	c #A2A27A",
"i.	c #AAA682",
"j.	c #B2AE8A",
"k.	c #C6C2A2",
"l.	c #9E9E7E",
"m.	c #B6B692",
"n.	c #DAD6AA",
"o.	c #AEAA92",
"p.	c #929272",
"q.	c #BAB69A",
"r.	c #DEDACA",
"s.	c #AAAA8A",
"t.	c #AEAE92",
"u.	c #E2DEAE",
"v.	c #B2AE96",
"w.	c #A6A286",
"x.	c #BEBA9A",
"y.	c #CECEA6",
"z.	c #96967A",
"A.	c #C2C2A2",
"B.	c #CACAA6",
"C.	c #9A967A",
"D.	c #9E9A7A",
"E.	c #AEAE8A",
"F.	c #D6D2B6",
"G.	c #AAA68E",
"H.	c #A2A286",
"I.	c #8E8E6E",
"J.	c #B2B29A",
"K.	c #8E8A6E",
"L.	c #CACAB6",
"M.	c #CECAB6",
"N.	c #D2D2C2",
"O.	c #D2D2A6",
"P.	c #BEBE9A",
"Q.	c #9A9A7E",
"R.	c #C2BEA2",
"S.	c #9A9A76",
"T.	c #DADAAA",
"U.	c #D6D2BE",
"V.	c #CECEB6",
"W.	c #BEBEA2",
"X.	c #A29E86",
"Y.	c #969676",
"Z.	c #CECAA6",
"`.	c #827E62",
" +	c #D2CEBE",
".+	c #B6B29E",
"++	c #969272",
"@+	c #AEAA8A",
"#+	c #C6C6A6",
"$+	c #BABAA2",
"%+	c #DADACA",
"&+	c #D6D2A6",
"*+	c #A29E7E",
"=+	c #86866A",
"-+	c #AAAA82",
";+	c #CACAA2",
">+	c #B2AE92",
",+	c #BEBAA2",
"'+	c #C2BEAA",
")+	c #C2C29E",
"!+	c #928E6E",
"~+	c #CECEA2",
"{+	c #8A8A6A",
"]+	c #BEBEAA",
"^+	c #D6D6AA",
"/+	c #AAAA96",
"(+	c #A6A692",
"_+	c #E6E2D6",
":+	c #E6E2B2",
"                                          % 1 =.b k.!.#                                             ",
"                                    k.O.;+t -+3 9.B.e.S q b $                                       ",
"                                k.b.Y !.|.4 d >.` 7 i.4 $.C & k.k.                                  ",
"                              O.b P.@+Z 2 i.4 '+g.' 2.d m o 1.N F u.                                ",
"                            Z.&+|.I.++Z / -.R L.^ 3.$+K p $.Y.Y.l.x.Y 9                             ",
"                          <.Y q.s.++l.w .+g _ v.* ^ t. .J.h 8.w.$.h F.{                             ",
"                        Z.u.W.U.L..+v.x v.C.a.m.f.>+l.|.o w $+3.Q e ,+m.k.                          ",
"                      O.;+f o @.n n #+-.3 P.l.I.E.q =+N # m./ _ ` _.2 1.E u.                        ",
"                      P <.w.o 8.n l.p >.t S x.j.% j.Y.N L v f.[.3.3.$.~.E.k.k.                      ",
"                    T.B.Y.p.w.$+R.{+O L @ - 0 t v % P.% J ~.8 L f.R $+w ++3 P                       ",
"                    :+j I.l.-.J.1.j.L ~.( J ).0 ..1 # , 8 (.{+L 0 Z z.p !+/ E                       ",
"                    F 2.C.o $+R l.# ( (.#.@ # H g.l H # y I J ..B 2 '+3.o 1.=.k.                    ",
"                  k.e.++Y.w 7 G.{+|.h.c y j.}.;.&.g.D E.# q 0 0 V B J.Q 2.1.|.k.                    ",
"                  &+~+l.2.3.z s.w.# 1 q q *+( I.V.G.I.E.|.3 P.t m.P.p Q R Z 3 T.                    ",
"                  k.F ,+e ;.8.$.j.O '.).% / ;.{.) ) {._.@+S 0 O D.B >+l e _.q.Y                     ",
"                  Y c.e {.H Q.{+% S.c f.-+N e d././.r.^. .-+-+'.c ..{+Q.].U.9.k.                    ",
"                  ;+Y 2.7 F.l -.1 O v i.% e.>./ q.>.*+=.i.1 ).S.h.v @+_.e D 3 { {                   ",
"                  Z.d ++V p r.k m.-+y >.t A.K J.:.Q 2.E.a a.m.y i.a.k ` ].2.|.y.                    ",
"                  k.a w.Y.w.:.2.* 3 d s % j.m >.W.a / i.1 i.++-+e.1.t.:./ p.v k.                    ",
"                  u.<.++o 2. +J.4 q - (.(.> ).4 h.2 B ).[.| | ..m.l.o.Q X.D.>+P                     ",
"                    O.*+Y.2.3.]+p.a.L . . r '.t S % t ..[.. * - t 2.o.l z.u b 7.                    ",
"                    k.3 K.D.h Q J.i., U [.[.).S m.|.S v r 8 @ ..i.x Q ^ 2 $.k.                      ",
"                    y.0.Y.K.w.,+Q k I.q @ #.c 0 t 0 0 t #.~.).I.v.:.8.B Y.G ^+                      ",
"                      b x.V Z G.M.X v.@+*+m I D.- y V u 4 3 s.2.*.U.$.!+2 k.k.                      ",
"                      k.Z.O./ f T {.[ v./ / x.1.).y Y.e.B !+^ :.T e _ w.!.Y                         ",
"                        E ;+w : :.%.7 N.(+(+h f * p R _ _ G.].k J.9.X Y 7.                          ",
"                          F =.W.p Z Y._ 3.L.Q l o.;.V.3.L.L.8.*+l.t.k.b                             ",
"                            k.<.|.!+++I V w.,+n :.< w.H.l.X.o I.o <.n.                              ",
"                              Z.b >.f m.&+T.K 5.g.7.&+&+3 l.l.m.T.b                                 ",
"                                k.Y b.K E.Y ; 7 F.:++ / m !.x.F &+                                  ",
"                                    P F j 0.+.3 P 0.n.0 C n.0.                                      ",
"                                          b.! !.)+G ^+!                                             "};
