/* XPM */
static char * Regio_Arkanum_50_xpm[] = {
"50 32 256 2",
"  	c None",
". 	c #5E2E06",
"+ 	c #906B42",
"@ 	c #E6DAD0",
"# 	c #B6946A",
"$ 	c #D2BEB6",
"% 	c #845F38",
"& 	c #A393B9",
"* 	c #E6E2E6",
"= 	c #7E561A",
"- 	c #E66A6A",
"; 	c #D6AAB2",
"> 	c #947EA4",
", 	c #983A0C",
"' 	c #C2A6D2",
") 	c #9F7C4F",
"! 	c #764E20",
"~ 	c #C05230",
"{ 	c #C56245",
"] 	c #F8F0ED",
"^ 	c #AE9EC6",
"/ 	c #CA7054",
"( 	c #AE4A1E",
"_ 	c #C8C0D4",
": 	c #7E461E",
"< 	c #AA6A8C",
"[ 	c #BE7A52",
"} 	c #E2BED4",
"| 	c #8E663E",
"1 	c #7A4E26",
"2 	c #CA9AC6",
"3 	c #CA9A7A",
"4 	c #A6A7FE",
"5 	c #CE82A6",
"6 	c #CAA6D6",
"7 	c #824216",
"8 	c #C6BADA",
"9 	c #C26C5E",
"0 	c #CED2FE",
"a 	c #F7F6FA",
"b 	c #9E96FE",
"c 	c #864E2A",
"d 	c #BAC0FE",
"e 	c #B66642",
"f 	c #D2BEE2",
"g 	c #E05658",
"h 	c #CEAA8E",
"i 	c #AA3E0C",
"j 	c #F6D6D7",
"k 	c #9A86A6",
"l 	c #AE320A",
"m 	c #E2766E",
"n 	c #C292CA",
"o 	c #927A92",
"p 	c #A64612",
"q 	c #8A727E",
"r 	c #E2AE9E",
"s 	c #AA3A06",
"t 	c #C6A6DE",
"u 	c #A24226",
"v 	c #BE9ECF",
"w 	c #CE7A5E",
"x 	c #AA729E",
"y 	c #B65244",
"z 	c #FAE2E2",
"A 	c #CECEFE",
"B 	c #BE4E2A",
"C 	c #D2B2DE",
"D 	c #9E88A6",
"E 	c #B2AEFE",
"F 	c #BA625D",
"G 	c #A19AFE",
"H 	c #BEC6FE",
"I 	c #EED2DA",
"J 	c #E25E5E",
"K 	c #BA92B6",
"L 	c #C28A96",
"M 	c #CE725A",
"N 	c #C6668E",
"O 	c #B68E5A",
"P 	c #E2DEE6",
"Q 	c #BA663E",
"R 	c #DE4A4A",
"S 	c #AE5E66",
"T 	c #EA9296",
"U 	c #AE6A82",
"V 	c #FBFAFD",
"W 	c #9C8078",
"X 	c #E0AAC0",
"Y 	c #D4C2EE",
"Z 	c #EFBFBD",
"` 	c #F6E2E6",
" .	c #B17EA6",
"..	c #B2524E",
"+.	c #E67A7A",
"@.	c #A48458",
"#.	c #EE9696",
"$.	c #CEBEEA",
"%.	c #B73A16",
"&.	c #CE526A",
"*.	c #FEF1F1",
"=.	c #926C66",
"-.	c #A49EFE",
";.	c #E4B6AA",
">.	c #A68EB2",
",.	c #DFD6E6",
"'.	c #B69E9E",
").	c #DA9A86",
"!.	c #C86A88",
"~.	c #EDEAEE",
"{.	c #EA7E7E",
"].	c #6B4215",
"^.	c #B2A2BE",
"/.	c #97754B",
"(.	c #C2C6FE",
"_.	c #C4B6D0",
":.	c #DEA696",
"<.	c #E6CECE",
"[.	c #AE8E76",
"}.	c #B692BE",
"|.	c #DAC6EA",
"1.	c #B94221",
"2.	c #AE626E",
"3.	c #D8D6FE",
"4.	c #CAC6EE",
"5.	c #B5B7FE",
"6.	c #AD5A6B",
"7.	c #BE4622",
"8.	c #B63610",
"9.	c #C2A68A",
"0.	c #BE4E2E",
"a.	c #CCAACC",
"b.	c #A68E96",
"c.	c #ACA6FE",
"d.	c #E4B2BE",
"e.	c #DCC7E1",
"f.	c #BEC2FE",
"g.	c #EA8E90",
"h.	c #B684A8",
"i.	c #E6E2EA",
"j.	c #EEEFFE",
"k.	c #E6BEB0",
"l.	c #AB6F96",
"m.	c #E69CA2",
"n.	c #C6866E",
"o.	c #BEBAFE",
"p.	c #CEC6F9",
"q.	c #A6764A",
"r.	c #BE4A26",
"s.	c #845A32",
"t.	c #FEFEFE",
"u.	c #B83E1C",
"v.	c #DA6A76",
"w.	c #BA9EC2",
"x.	c #CE8A76",
"y.	c #AA5E76",
"z.	c #F6C8C8",
"A.	c #C2A2C6",
"B.	c #BAB2FE",
"C.	c #AE9EC2",
"D.	c #D2BAD2",
"E.	c #CAACDD",
"F.	c #BE7AAE",
"G.	c #B6B2FE",
"H.	c #EDD5CD",
"I.	c #AEAAFE",
"J.	c #F2AAAA",
"K.	c #F2B6B6",
"L.	c #AA8E66",
"M.	c #AE8AB6",
"N.	c #EEA3A3",
"O.	c #D6C6C2",
"P.	c #DAC2AA",
"Q.	c #C5B2E3",
"R.	c #A6A2FE",
"S.	c #C6C2EE",
"T.	c #E4E3FD",
"U.	c #DA8EA6",
"V.	c #EBEAFC",
"W.	c #CA929A",
"X.	c #DEDAFE",
"Y.	c #D2CEEE",
"Z.	c #E0DEFE",
"`.	c #A28668",
" +	c #EBE5FA",
".+	c #B74631",
"++	c #B27692",
"@+	c #AA7E5E",
"#+	c #FAE8E8",
"$+	c #CCB2DE",
"%+	c #D6CEE0",
"&+	c #92725E",
"*+	c #AB97BB",
"=+	c #BE8A6E",
"-+	c #B64E43",
";+	c #EADCEA",
">+	c #FEF6F6",
",+	c #F6F2F2",
"'+	c #D6BAA2",
")+	c #B69EB2",
"!+	c #B25652",
"~+	c #B74A36",
"{+	c #AA627A",
"]+	c #C3BEFA",
"^+	c #C45A3A",
"/+	c #E8BAC8",
"(+	c #F2DAD2",
"_+	c #BE6256",
":+	c #DAD2FA",
"<+	c #BAB7FE",
"[+	c #B67286",
"}+	c #C8CAFE",
"|+	c #BE7272",
"1+	c #C04A2C",
"2+	c #E98687",
"3+	c #B88AB0",
"4+	c #B07AA0",
"5+	c #DA7E76",
"6+	c #D2CADA",
"7+	c #C6A1D6",
"8+	c #9A7E5E",
"9+	c #AAA2FE",
"0+	c #D4708A",
"a+	c #8A623B",
"b+	c #CCC1F4",
"c+	c #DADAFE",
"d+	c #D4B8DE",
"e+	c #AF585F",
"f+	c #E5716F",
"g+	c #BAADCA",
"h+	c #F6E9EA",
"i+	c #C9C6FE",
"j+	c #EE9E9E",
"k+	c #D2CDFD",
"l+	c #BE5A46",
"m+	c #E46666",
"n+	c #D8CAB8",
"o+	c #D4D2FE",
"p+	c #CECAFE",
"q+	c #E8CCE0",
"r+	c #DFD6F1",
"s+	c #F6D2D2",
"t+	c #B286B6",
"u+	c #D2BEDA",
"v+	c #C49EBE",
"w+	c #C5C2FE",
"x+	c #CA7A66",
"y+	c #F3F2FC",
"z+	c #BA727A",
"A+	c #B2AAFE",
"B+	c #AA6487",
"C+	c #7B5327",
"D+	c #966E46",
"E+	c #B6320A",
"F+	c #B6AEFE",
"G+	c #AA845A",
"                        O s E+E+E+E+E+E+E+E+E+E+E+E+E+E+E+8.%.1..+.+-+                              ",
"                        O s E+E+E+E+E+E+E+E+E+E+E+8.E+l 8.u.1.~+-+..e+                              ",
"                        O s l E+l E+l E+l E+l E+8.B 1.u.1.~+....e+6.{+  G.5.4                       ",
"                        O s E+E+E+E+E+E+E+E+E+E+l 1.{ y ~+..e+6.6.{+< R.d H d 4 c.F+                ",
"                        O s l E+E+E+E+E+E+E+8.1+7.8.l+9 2.e+6.B+l. .t+5.0 c+0 f.<+R.                ",
"                        O s E+E+l E+l r./ :.Z f+m.<.; W.L < B+4+t+4+x -.w+}+f.5.<+F+c.b             ",
"                        O s E+E+E+%.w I V t.z m+2+i. +r+$.A.M.4+< < l.-.5.5.5.4 G -.G.c.b           ",
"                        O s E+E+r.k.V t.t.t.z.K.#.q+Z.o+i+}+$.x B+4+3+G.d o.G.E R.b b E I.b         ",
"                        O s E+1.k.t.t.t.t.,+j+I /+} 3.p+p+}+p+Q.h.h.A.b+}+}+w+o.G.E -.-.I.R.        ",
"                        O s %.k.t.t.t.t.t.z.T ~.q+X o+k+p+p.}+A $.v+a.3.3.3.o+k+}+]+c.b -.F+G       ",
"                        O s M #+>+V V >+*.T T I } 5 E.p.p+p.p+p+Y.u+D.T.T.Z.Z.3.o+w+F+-.b A+-.      ",
"                        O i f+2+j+j+j+N.g.R g v.0+N F.E.7+7+6 d+d+e.%+ +j.j.V. +3.p+o.c.b R.c.      ",
"                        O e Z - J.z #+z #.J.` ;+%+Y n Q.$.$.$.d+d+I P  +,+a y+j.T.A ]+I.G 9+E b     ",
"                        O 3 V s+{.N.*.*.N.(+a ]  +r+E.E.}+p.6 E.6+r+P ] y+V y+V.Z.3.i+B.c.I.]+<+    ",
"                        O '+t.t.#+{.2+Z 2+*.V y+ +3.Y E.t 2 A.Q._ %+P  +] a a j.Z.o+w+F+R.c.B.c.    ",
"                        O n+t.t.t.#+j+g 2+t.a y+T.3.i+7+D >.*+g+8 6+,.* ~.y+y+ +Z.o+w+E G R.I.b     ",
"                        O P.t.t.t.t.*.J m+j a j.X._ *+*+& D & ^.g+_.%+i.j.j.V.T.3.i+o.A+-.G.I.      ",
"                        O h t.t.t.t.#++.f+f+H.O.'.D k *+^.k k & g+0 3.T.T.T.Z.3.A w+E R.c.w+<+      ",
"                        O [ t.t.t.V K.#.I n.G+@.W W o k & k & S.Y.3.u+0 3.3.o+p+]+o.I.b 9+F+I.o.    ",
"                        O ( #+t.t.#+5+=+L.) /.&+&+=.q o >.Q.}+A A p.w.w+i+i+w+i+G.I.A+c.F+-.        ",
"                        O s ).V @ 9.@./.D+| % % % =.)+S.7+$+o+p+p.' h.E <+<+E <+c.b c.}+F+          ",
"                        O p e # @./.D+| % C+s.8+$ X U.|.$.d+p+p+]+4+l.-.I.c.G -.R.R.E F+G.          ",
"                        # q.@+/./.a+s.C+! `.n+a t.j.X U.e.2 ]+b+A.}.4+-.E c.-.9+E A+9+b             ",
"                    G+@.) /.+ a+= C+c [.@ t.t.t.t.V ,+/+0+!.6  .x h.}.}+A w+A+I.R.G                 ",
"                @.) ) /.+ a+s.1 : u n.>+t.t.t.t.t.t.V ] d.&.!.2.[+B+4+H }+G.b b                     ",
"              @.) /.a+s.C+! 7 , 8.8.E+9 r (+,+t.t.,+H.d.x+.+-+_+z+S ++d H                           ",
"              D+| s.1 ].= , l l E+E+E+E+8.r.^+{ { ^+B %.8.u..+9 F !+++                              ",
"              s.1 ]..   O s 8.E+E+E+E+E+l E+l E+E+8.E+E+E+8.1.{ ~+.+l+                              ",
"                ].      O s E+E+E+E+E+E+E+E+E+E+E+E+E+E+l 8.~ ~ %.%.1.                              ",
"                        O s E+E+E+E+l E+E+E+E+E+E+E+l E+E+8.B u.l E+l                               ",
"                        O s l E+E+E+E+E+E+E+E+E+E+E+E+E+E+%.u.8.l E+E+                              ",
"                        O s E+E+E+E+E+E+E+E+l E+l E+l E+E+E+8.E+E+E+E+                              "};
