/* XPM */
static char * Regio_H_u_D_26_xpm[] = {
"41 26 256 2",
"  	c None",
". 	c #4E361E",
"+ 	c #5E5E66",
"@ 	c #7E5A5E",
"# 	c #BEB29E",
"$ 	c #967A82",
"% 	c #B2969C",
"& 	c #7A6A72",
"* 	c #BA9A9E",
"= 	c #6C3A12",
"- 	c #6A768E",
"; 	c #BEA2AA",
"> 	c #E4D2D0",
", 	c #8E7E86",
"' 	c #E6B2A2",
") 	c #5E5260",
"! 	c #C2826E",
"~ 	c #864A0E",
"{ 	c #D29E8E",
"] 	c #7A7692",
"^ 	c #DACAB6",
"/ 	c #6E8ECC",
"( 	c #868A8A",
"_ 	c #A68296",
": 	c #D2826A",
"< 	c #DAB6AE",
"[ 	c #4E5E82",
"} 	c #3A5282",
"| 	c #E09A7A",
"1 	c #624A56",
"2 	c #D28A6E",
"3 	c #8692C2",
"4 	c #E8B6A8",
"5 	c #DEA286",
"6 	c #62769A",
"7 	c #9A969A",
"8 	c #6A86BA",
"9 	c #666676",
"0 	c #7A420E",
"a 	c #E2BAB2",
"b 	c #86A6DE",
"c 	c #DA8A6E",
"d 	c #E2A288",
"e 	c #DAC6C6",
"f 	c #563A22",
"g 	c #DC8E70",
"h 	c #3A62A6",
"i 	c #C29292",
"j 	c #B4A2A4",
"k 	c #C6BAAA",
"l 	c #6A7EA6",
"m 	c #463E42",
"n 	c #DEC2C2",
"o 	c #9296C6",
"p 	c #6A4E3A",
"q 	c #F2CEC2",
"r 	c #E6A68A",
"s 	c #58566C",
"t 	c #7A5662",
"u 	c #7A4A3A",
"v 	c #D2AEBA",
"w 	c #7A96E2",
"x 	c #769ADA",
"y 	c #566A9A",
"z 	c #EE9272",
"A 	c #8E4E16",
"B 	c #C48A72",
"C 	c #AEA6A2",
"D 	c #E67E66",
"E 	c #526692",
"F 	c #D2C2C2",
"G 	c #DA9676",
"H 	c #EE9A7A",
"I 	c #F6D2BE",
"J 	c #D2AEA6",
"K 	c #76461A",
"L 	c #F2C6B2",
"M 	c #5272BA",
"N 	c #7A9AD6",
"O 	c #E6AA96",
"P 	c #5276BA",
"Q 	c #A69E92",
"R 	c #8E7284",
"S 	c #DA968A",
"T 	c #C6928E",
"U 	c #D6CABE",
"V 	c #C6BAC0",
"W 	c #EAC2CD",
"X 	c #7A9EE3",
"Y 	c #F2BEAA",
"Z 	c #BEAEAC",
"` 	c #564A56",
" .	c #684220",
"..	c #F2AA8A",
"+.	c #6E92E6",
"@.	c #C2B6AE",
"#.	c #9E9296",
"$.	c #E6BEC6",
"%.	c #86626A",
"&.	c #86521A",
"*.	c #CEC2C6",
"=.	c #EADAD2",
"-.	c #E6CAC6",
";.	c #CC8E78",
">.	c #627294",
",.	c #6E5666",
"'.	c #F2BAA0",
").	c #D2927E",
"!.	c #D8BAB8",
"~.	c #E69A7A",
"{.	c #6A5246",
"].	c #A496AC",
"^.	c #CAAAB2",
"/.	c #E6AE92",
"(.	c #E6926E",
"_.	c #DE826A",
":.	c #D2A69C",
"<.	c #804A16",
"[.	c #6286CE",
"}.	c #B6AAAE",
"|.	c #D6A296",
"1.	c #7E9EDE",
"2.	c #92561A",
"3.	c #625E62",
"4.	c #F2DAD6",
"5.	c #A28692",
"6.	c #8EAEF2",
"7.	c #A6969E",
"8.	c #CEBAB6",
"9.	c #E68A72",
"0.	c #466AAC",
"a.	c #EEA682",
"b.	c #DEA68E",
"c.	c #D2B2BA",
"d.	c #E2D6DE",
"e.	c #6E421E",
"f.	c #5A76B2",
"g.	c #DCCACC",
"h.	c #A27A8A",
"i.	c #A88A9A",
"j.	c #E6A284",
"k.	c #824610",
"l.	c #F0B294",
"m.	c #CE8672",
"n.	c #D28E7A",
"o.	c #E2BAC6",
"p.	c #767A92",
"q.	c #6E4646",
"r.	c #CE969E",
"s.	c #869ED6",
"t.	c #5672A6",
"u.	c #E2866A",
"v.	c #6A6272",
"w.	c #965212",
"x.	c #AE92AA",
"y.	c #D6B2BE",
"z.	c #B6AEBA",
"A.	c #BEB2B2",
"B.	c #EAD2D2",
"C.	c #6A86C6",
"D.	c #7EA2EA",
"E.	c #DABAC6",
"F.	c #DA866A",
"G.	c #E29E7E",
"H.	c #8E5216",
"I.	c #EAC6C4",
"J.	c #EACED2",
"K.	c #AA9EA2",
"L.	c #CEBEBC",
"M.	c #EDBAC7",
"N.	c #E28E7A",
"O.	c #8E6674",
"P.	c #6E3E1E",
"Q.	c #864A14",
"R.	c #E6AEA2",
"S.	c #5B7AB5",
"T.	c #7A9EEE",
"U.	c #DEA69A",
"V.	c #723E12",
"W.	c #8AAAEA",
"X.	c #727A9E",
"Y.	c #E29686",
"Z.	c #6A5A66",
"`.	c #EAD6DE",
" +	c #B696A6",
".+	c #C6B6BA",
"++	c #E29675",
"@+	c #EABAA8",
"#+	c #7C4610",
"$+	c #864E1A",
"%+	c #EEB29A",
"&+	c #DE9A82",
"*+	c #D29E96",
"=+	c #CE9282",
"-+	c #EAAA8C",
";+	c #EEC6CE",
">+	c #E2CED2",
",+	c #BAAEAD",
"'+	c #DAB6BF",
")+	c #6A8AC9",
"!+	c #E79E81",
"~+	c #A79A9F",
"{+	c #EABEC6",
"]+	c #6E3E16",
"^+	c #E6D6D2",
"/+	c #D2866C",
"(+	c #D6A694",
"_+	c #82A2DE",
":+	c #EAD6D6",
"<+	c #EAA285",
"[+	c #E2A692",
"}+	c #DE967E",
"|+	c #6886C2",
"1+	c #84A6E6",
"2+	c #9A7E8A",
"3+	c #CEA28A",
"4+	c #E2BEBA",
"5+	c #DEC6CA",
"6+	c #769EDE",
"7+	c #566E9A",
"8+	c #EE9E82",
"9+	c #EEC2AA",
"0+	c #D2967E",
"a+	c #CAAEB2",
"b+	c #9E8A8E",
"c+	c #9E7E92",
"d+	c #DEAA9A",
"e+	c #EEB69E",
"f+	c #E69676",
"g+	c #E29A81",
"h+	c #E6A68F",
"i+	c #B696A2",
"j+	c #4A5E8A",
"k+	c #DA8E76",
"l+	c #724622",
"m+	c #6A4226",
"n+	c #EADADA",
"o+	c #CABABE",
"p+	c #5676BA",
"q+	c #DACAD2",
"r+	c #D68E82",
"s+	c #C2B2BA",
"t+	c #DE9E86",
"u+	c #E2967A",
"v+	c #BAAEB2",
"w+	c #6A8ACE",
"x+	c #625262",
"y+	c #728ECA",
"z+	c #DE8A6E",
"A+	c #4A3E46",
"B+	c #DE9678",
"C+	c #EAAA96",
"D+	c #8A5218",
"E+	c #724222",
"F+	c #82A2E6",
"G+	c #925218",
"                                          *+|.(+                                  ",
"                                        T S Y.g+;.B                               ",
"  m+P.                                  i r+N.9.u./+B ;.                          ",
"    e.= e.                              r.=+k+_.D F./+m.).U.                      ",
"      l+= E+                            ; :.t+c z+k+n.! : }+O R.(+3+              ",
"          u O.h.i., #.          q+d.`.n+B.-.4 j.g B+g+G 2 c ++B+0+{ :.!.          ",
"            t %._ c+7.,+A.v+~+Z e q+s+e > B.a %+<+!+| G.++u+++(.++d d+4+          ",
"              5.i.O.& ~+V .+Z 8.F z.K.,+L.g.5+' j.!+r h+&+| !+g+<+C+4 I.          ",
"                  q.@ b+~+}.o+L.  V *.,+@.L.> n [+f+z ..h+d -+/.O @+I.J.          ",
"                    * '+'+a+j %     *.C k U ^+>+< 5 ~.H 8+-+%+'.L I               ",
"                    c.$.W W !.].] [ 7+7 # ^ =.:+L.J b.h+<+a.l.Y q 4.              ",
"                    '+{+y.o.E.3 C.C.f.>.( Q @.L.j       @+e+'.9+                  ",
"                      M.'+^.v o w +.X )+l - 9 3.+ p.                              ",
"                      M.W   % ].s.T.6.W.6+X 1+b x /                               ",
"                      M.;+    2+X.y+1.F+D.1+F+X [.S.6                             ",
"                      i+ +    $ v.j+S.)+1._+N / P 0.>.                            ",
"                      ,.R       Z.s E S.)+w+|+8 0.h                               ",
"                x.) ` 1 R       x+)     t.p+M y }                                 ",
"                    m A+      m           s {.m+p                                 ",
"                                              V.]+K D+                            ",
"                                                Q.A &.<.                          ",
"                                                  ~ $+. f                         ",
"                                                     .f $+0 0                     ",
"                                                        2.A Q.k.                  ",
"                                                          G+G+A #+#+              ",
"                                                            D+H.w.k.<.            "};
