/* XPM */
static char * Regio_H_u_D_F_50_xpm[] = {
"50 32 184 2",
"  	c None",
". 	c #898989",
"+ 	c #909090",
"@ 	c #858585",
"# 	c #727272",
"$ 	c #707070",
"% 	c #706F6E",
"& 	c #6C6C6C",
"* 	c #717171",
"= 	c #7B7B7B",
"- 	c #8C8C8C",
"; 	c #848484",
"> 	c #696969",
", 	c #686868",
"' 	c #696767",
") 	c #726E6B",
"! 	c #5C5C5C",
"~ 	c #4E4E4E",
"{ 	c #4D4D4D",
"] 	c #535353",
"^ 	c #555555",
"/ 	c #747474",
"( 	c #7D7D7D",
"_ 	c #757575",
": 	c #606060",
"< 	c #5D5D5D",
"[ 	c #626262",
"} 	c #6D6C6C",
"| 	c #5A5A5A",
"1 	c #4C4C4C",
"2 	c #6E6E6E",
"3 	c #5B5B5B",
"4 	c #585858",
"5 	c #6D696A",
"6 	c #6A6A6A",
"7 	c #505050",
"8 	c #4A4A4A",
"9 	c #333333",
"0 	c #393939",
"a 	c #484848",
"b 	c #414141",
"c 	c #454545",
"d 	c #5F5F5F",
"e 	c #706F70",
"f 	c #5E5E5E",
"g 	c #646464",
"h 	c #737373",
"i 	c #171717",
"j 	c #010101",
"k 	c #000000",
"l 	c #050505",
"m 	c #1C1C1C",
"n 	c #383838",
"o 	c #595959",
"p 	c #777777",
"q 	c #6D6B6B",
"r 	c #787878",
"s 	c #7F7F7F",
"t 	c #494949",
"u 	c #0B0000",
"v 	c #3A0000",
"w 	c #5F0000",
"x 	c #260000",
"y 	c #010000",
"z 	c #060000",
"A 	c #0A0000",
"B 	c #0D0505",
"C 	c #1B1919",
"D 	c #8F8E8E",
"E 	c #818181",
"F 	c #797979",
"G 	c #262121",
"H 	c #610000",
"I 	c #D60000",
"J 	c #F00000",
"K 	c #730000",
"L 	c #3C0000",
"M 	c #AD0000",
"N 	c #980000",
"O 	c #3E0000",
"P 	c #0C0303",
"Q 	c #8E8E8E",
"R 	c #6B6B6B",
"S 	c #6F6F6F",
"T 	c #211919",
"U 	c #FD0000",
"V 	c #FF0000",
"W 	c #350000",
"X 	c #2B0000",
"Y 	c #EB0000",
"Z 	c #FC0000",
"` 	c #5C0000",
" .	c #8D8D8D",
"..	c #656565",
"+.	c #636363",
"@.	c #2C2B2B",
"#.	c #1F0101",
"$.	c #400000",
"%.	c #480000",
"&.	c #040000",
"*.	c #020000",
"=.	c #600000",
"-.	c #E50000",
";.	c #500000",
">.	c #090707",
",.	c #8F8F8F",
"'.	c #838383",
").	c #030303",
"!.	c #030000",
"~.	c #130000",
"{.	c #121212",
"].	c #888888",
"^.	c #989898",
"/.	c #575757",
"(.	c #212121",
"_.	c #353535",
":.	c #939393",
"<.	c #969696",
"[.	c #525252",
"}.	c #060606",
"|.	c #101010",
"1.	c #878787",
"2.	c #979797",
"3.	c #616161",
"4.	c #808080",
"5.	c #0C0C0C",
"6.	c #828282",
"7.	c #131313",
"8.	c #222222",
"9.	c #868686",
"0.	c #8B8B8B",
"a.	c #7E7E7E",
"b.	c #0F0F0F",
"c.	c #2D2D2D",
"d.	c #111111",
"e.	c #191919",
"f.	c #7C7C7C",
"g.	c #1D1D1D",
"h.	c #161616",
"i.	c #767676",
"j.	c #474747",
"k.	c #545454",
"l.	c #676767",
"m.	c #8A8A8A",
"n.	c #232323",
"o.	c #4B4B4B",
"p.	c #4F4F4F",
"q.	c #323232",
"r.	c #020202",
"s.	c #3D3D3D",
"t.	c #565656",
"u.	c #666666",
"v.	c #515151",
"w.	c #949494",
"x.	c #0E0E0E",
"y.	c #0A0A0A",
"z.	c #1E1E1E",
"A.	c #6D6D6D",
"B.	c #6D6B6C",
"C.	c #6C6666",
"D.	c #706866",
"E.	c #7A7A7A",
"F.	c #6C6B6B",
"G.	c #6B6869",
"H.	c #6D6A69",
"I.	c #3F3F3F",
"J.	c #303030",
"K.	c #6B6A6A",
"L.	c #6C6A6A",
"M.	c #6E6D6C",
"N.	c #929292",
"O.	c #6D6C6B",
"P.	c #919191",
"Q.	c #736F67",
"R.	c #A5A5A5",
"S.	c #B4B4B4",
"T.	c #6F6E6C",
"U.	c #A2A2A2",
"V.	c #6E6D6D",
"W.	c #706F6F",
"X.	c #9D9D9D",
"Y.	c #9E9E9E",
"Z.	c #959595",
"`.	c #AAAAAA",
"                                                                                                    ",
"                                            . + @ # $ $ %                                           ",
"                                        & $ * = - ; # > , , ' )                                     ",
"                                      ! ~ { ] ^ / ( _ : ! < ! [ }                                   ",
"                                    | ] 1 > 2 & , , , | 3 < 4 3 > 5                                 ",
"                                  | 4 ! * 6 7 8 9 0 a b c ^ d : > e                                 ",
"                                  f g h , i j k k k k k k l m n o p q                               ",
"                                r 2 $ s t u v w x k k k y z A B C : D                               ",
"                                E F * _ G H U U K k k k L U N O P 7 Q                               ",
"                              [ R # S _ T N U U U k k k U U U ` B :  ...                            ",
"                              $ R +.> . @.#.U U U k k k U U -.;.>.R ,...                            ",
"                              '.Q g [  .o ).U U U k k k U U ~.&.{.; ].                              ",
"                               .^.& /.r 6 (.j k k k k k k k k j _.:.p                               ",
"                            r :.<.6 [.6 = c }.k k k k k k k k |.R 1.*                               ",
"                            '.2. .3.] [ 4.o 5.k k k k k k k k o ; $ S                               ",
"                             .2.6.d ] f s R 7.k k k k k k j 8.9.* S $                               ",
"                            '.0.r d ! g a._ b.k k k k k k c.F / : <                                 ",
"                          f [ s p d < g 1.( d.k k k k j e./ f.: < 3                                 ",
"                        , o o $ # d < g <. .g.k k k k h.i.6.g < < +.6                               ",
"                        ! j.7 k.l.[ ^ g m.Q n.k k k 5.: m.> < ! ..2 S                               ",
"                      > ] o.p.k.< > k.g E Q q.j r.j s. ._ 7 t.f g u.u.[ g 2 &                       ",
"                      $ 4 v.{ 3 $ R k.d _ w.~ x.y.z.. 4.< [...f f < 3.A.h a._ * B.C.D.              ",
"                    $ 6 < f c /.i.S 4 ] * w.< 8.g.u.,.# o g g d 3.< > # E.'.'.E.$ F.G.H.            ",
"                  A.* l.# E A.3 g S [ [.2  .= I.J.@ '.< 3 u.| /.3.3.t.4 3.u.i.f.i.2 K.L.M.          ",
"                , s r F N.^.S o./.+.o ^ R a.9.3 ^ :.> [.! ^ k.+.S 2 6 : /.t.l._ r # A.K.O.          ",
"          : / @ 4.s m.<.- $ +.d < ~ v.u.S & f.p P.E 3./.4 v.u.( '.6.4.F , | 4 , # h $ R q Q.        ",
"        u.r E E 1.w.^.6.u.: l.u.t c ] R 2 R A.R.S.r < | p.d $ = F f.s 4.F > | ! 6 $ $ K.F.T.        ",
"      > i.( s E ( r S : f d /.] [.4 3 2 R S E U.+ ..< ! 3 6 6 6 6 A.h h E.p ..3 d R 2 F.V.W.$       ",
"    [ # i.i.S > d 3 ! : u.[ ../ _ 3.! S  .X.Y.Z.i.d f d 3.> R > ..g , , R F & 3.! g 2 2 S $ $       ",
"    , * * 6 +.d 3.u.2 # 2 / f.4.= * / m.`.U.. ( / [ u.....A.$ $ & u.g ..g A.# > +.l.2 $ $ $ $       ",
"    ..2 & , u.A.$ / / h p r _ # p :.:.a.r # * * S 6 6 , > S $ $ $ 2 , +.g , 2 A.2 $ $ $ $ $ $       ",
"    f R & A.2 * # h h / # * $ F 9.m._ # / $ $ $ A.R A.A.A.$ $ $ $ $ 2 ..u.& R & S $ $ $ $ $ $       "};
