/* XPM */
static char * Regio_Hausregel_small_xpm[] = {
"17 7 39 1",
" 	c None",
".	c #306A85",
"+	c #306984",
"@	c #316C89",
"#	c #2A5B72",
"$	c #295971",
"%	c #2B5F78",
"&	c #2F6884",
"*	c #2C5E76",
"=	c #2D627C",
"-	c #2F6681",
";	c #2F657F",
">	c #30667F",
",	c #2E6580",
"'	c #2E6681",
")	c #326C88",
"!	c #316B87",
"~	c #2D6682",
"{	c #2F6985",
"]	c #336F8C",
"^	c #306782",
"/	c #2D617A",
"(	c #2C6079",
"_	c #2B5E77",
":	c #2A5D75",
"<	c #275A6A",
"[	c #306A86",
"}	c #2B5C74",
"|	c #27556B",
"1	c #265267",
"2	c #265268",
"3	c #265369",
"4	c #265167",
"5	c #255065",
"6	c #2F6782",
"7	c #295A72",
"8	c #275166",
"9	c #255166",
"0	c #264F60",
".+@              ",
"#$%&             ",
"  *=-;>,'.)))!~{]",
"  ^//((((%%___: <",
"  [}|11234441115 ",
"6678             ",
" 90              "};
