/* XPM */
static char * Regio_Waeland_26_xpm[] = {
"41 26 256 2",
"  	c None",
". 	c #020202",
"+ 	c #8496B4",
"@ 	c #CD0202",
"# 	c #5A461A",
"$ 	c #DA4242",
"% 	c #77530A",
"& 	c #E6E2DE",
"* 	c #8C6C2E",
"= 	c #DE9E9A",
"- 	c #D52D2C",
"; 	c #184286",
"> 	c #9E6A42",
", 	c #5E7296",
"' 	c #DE5A5A",
") 	c #EFB2B2",
"! 	c #A22E0E",
"~ 	c #BABEC2",
"{ 	c #E26E6E",
"] 	c #4E6A9A",
"^ 	c #8B7659",
"/ 	c #BA5246",
"( 	c #A9967B",
"_ 	c #DAC6B6",
": 	c #06327E",
"< 	c #96320A",
"[ 	c #CA221E",
"} 	c #AAA296",
"| 	c #525456",
"1 	c #AE7652",
"2 	c #E58281",
"3 	c #76869E",
"4 	c #463A2E",
"5 	c #62523A",
"6 	c #9A8268",
"7 	c #F2F2EE",
"8 	c #8A3E1E",
"9 	c #CE0A0A",
"0 	c #E2C6BE",
"a 	c #DEDADA",
"b 	c #7E5A12",
"c 	c #1E4688",
"d 	c #9D866B",
"e 	c #BEA686",
"f 	c #52586C",
"g 	c #8E826E",
"h 	c #755E36",
"i 	c #A2A2A6",
"j 	c #2A3E62",
"k 	c #76664D",
"l 	c #82828E",
"m 	c #5A4A36",
"n 	c #234A8B",
"o 	c #C24232",
"p 	c #FEFAFA",
"q 	c #7A4E0A",
"r 	c #C2120A",
"s 	c #667A9A",
"t 	c #D26662",
"u 	c #8E7236",
"v 	c #9E968E",
"w 	c #F2CACA",
"x 	c #9C8E7C",
"y 	c #425676",
"z 	c #143E83",
"A 	c #DA4646",
"B 	c #A8A8A8",
"C 	c #BE9A7C",
"D 	c #BE7A66",
"E 	c #D63232",
"F 	c #8D9DB6",
"G 	c #E68686",
"H 	c #E2DEDA",
"I 	c #EEA6A6",
"J 	c #2E528E",
"K 	c #81725E",
"L 	c #967E5A",
"M 	c #C6BEB6",
"N 	c #E6DAD6",
"O 	c #C1B9B1",
"P 	c #E57D7D",
"Q 	c #7A869E",
"R 	c #DA6666",
"S 	c #DA4E4C",
"T 	c #625E5E",
"U 	c #724622",
"V 	c #9E461A",
"W 	c #BAB2AA",
"X 	c #0A367F",
"Y 	c #EAE6E2",
"Z 	c #9A9A9E",
"` 	c #7E7A72",
" .	c #DABEB2",
"..	c #6E86AD",
"+.	c #A2968E",
"@.	c #ACB6C4",
"#.	c #846C46",
"$.	c #4A5A7A",
"%.	c #CA1A16",
"&.	c #F2B6B6",
"*.	c #5B4B32",
"=.	c #32425E",
"-.	c #A28E75",
";.	c #888282",
">.	c #323E5E",
",.	c #3A5686",
"'.	c #6E5A42",
").	c #8E929A",
"!.	c #FAE2E2",
"~.	c #E68A8A",
"{.	c #C61612",
"].	c #D63636",
"^.	c #A78A6F",
"/.	c #D6D2CB",
"(.	c #D2C6B6",
"_.	c #C6725E",
":.	c #1A3E84",
"<.	c #8A7258",
"[.	c #F6D6D6",
"}.	c #4E668E",
"|.	c #925A26",
"1.	c #887660",
"2.	c #3F5E96",
"3.	c #8E420E",
"4.	c #8A4E12",
"5.	c #8E9296",
"6.	c #828A9A",
"7.	c #969EAE",
"8.	c #E37676",
"9.	c #FEF6F6",
"0.	c #664E26",
"a.	c #7A623A",
"b.	c #A2927E",
"c.	c #6E5630",
"d.	c #766652",
"e.	c #AEAEAE",
"f.	c #958673",
"g.	c #EEAAAA",
"h.	c #D12625",
"i.	c #AF977D",
"j.	c #DA5252",
"k.	c #7E8EA2",
"l.	c #4E6E9E",
"m.	c #F2C5C5",
"n.	c #6B82A9",
"o.	c #8E8E8A",
"p.	c #F6DADA",
"q.	c #BAA686",
"r.	c #0F367B",
"s.	c #738AAB",
"t.	c #827A6E",
"u.	c #CE1212",
"v.	c #624A21",
"w.	c #9A3A26",
"x.	c #C65E4E",
"y.	c #6A7692",
"z.	c #70603E",
"A.	c #C0AE9C",
"B.	c #6A5632",
"C.	c #A2866A",
"D.	c #A59D91",
"E.	c #F2BABA",
"F.	c #E79292",
"G.	c #786B58",
"H.	c #9EA6B3",
"I.	c #D21616",
"J.	c #EA9C9C",
"K.	c #FBEEEE",
"L.	c #7E6642",
"M.	c #2E4A7E",
"N.	c #F5D2D1",
"O.	c #D63A3A",
"P.	c #92A2BA",
"Q.	c #D2CEC6",
"R.	c #D21E1E",
"S.	c #7D8EAE",
"T.	c #B0AA9E",
"U.	c #705E46",
"V.	c #AAAEB2",
"W.	c #A49888",
"X.	c #B6B6B6",
"Y.	c #A69276",
"Z.	c #96A2BA",
"`.	c #B6AA9A",
" +	c #325691",
".+	c #0E3A82",
"++	c #9E8A6A",
"@+	c #CD0606",
"#+	c #8192AE",
"$+	c #D11A1A",
"%+	c #526E9E",
"&+	c #E27272",
"*+	c #868A8E",
"=+	c #C24A3A",
"-+	c #FEFEFE",
";+	c #8692AA",
">+	c #7A624A",
",+	c #647AA4",
"'+	c #968A77",
")+	c #8A7A64",
"!+	c #CEC9C3",
"~+	c #BDC2CE",
"{+	c #A68E7A",
"]+	c #EEAEAE",
"^+	c #9E321E",
"/+	c #866E52",
"(+	c #365692",
"_+	c #426296",
":+	c #FCF2F2",
"<+	c #D12221",
"[+	c #5672A0",
"}+	c #AEB2BE",
"|+	c #0A327E",
"1+	c #95826B",
"2+	c #E16969",
"3+	c #D10E0E",
"4+	c #F8DEDE",
"5+	c #D63E3E",
"6+	c #73624A",
"7+	c #3A5A92",
"8+	c #A68E73",
"9+	c #947E63",
"0+	c #5A4E40",
"a+	c #69563E",
"b+	c #FAE6E6",
"c+	c #768EB0",
"d+	c #667EA7",
"e+	c #8A7E6B",
"f+	c #7E684E",
"g+	c #9D8A71",
"h+	c #1E4286",
"i+	c #62769E",
"j+	c #7A6236",
"k+	c #929AAE",
"l+	c #9EA2A6",
"m+	c #D62626",
"n+	c #AA9E92",
"o+	c #828EA6",
"p+	c #123A80",
"q+	c #D62222",
"r+	c #5E4A1E",
"s+	c #DE5656",
"t+	c #7A664D",
"u+	c #D21212",
"v+	c #A7AEBB",
"w+	c #A28A6F",
"x+	c #7286A8",
"y+	c #9E9286",
"z+	c #5A76A2",
"A+	c #C2A692",
"B+	c #7E7A7E",
"C+	c #AA9277",
"D+	c #DE5E5E",
"E+	c #E98E8E",
"F+	c #DAD6CE",
"G+	c #F2BEBE",
"                                        %                                         ",
"                                        %           u+2+b+{ @+_.                  ",
"                                      % b 4.< o  .N.A - 4+]+<+s+/.# #             ",
"                                    q |.e x.r <+) p { I.I [.5+^+z.# #             ",
"                                b * ! h.) m.h.@+s+!.P 3+&+p 2 U # #               ",
"                              3.1 _ h.$+I -+s+9 { K.P 3+{ -+F.8 # #               ",
"                            V %.2 K.O.$+I -+s+u+E+-+8.3+&+-+F.w.#                 ",
"                            8.I.F.9.' R.g.[.- u.E+K.' $+G+:+= > v.                ",
"                          p.s+E G+p O.R.g.g.I.h.m.N.- $+p.N A+^ c.L               ",
"                          2 <+2+!.G+I.E G+' @+S :+E.q+- 0 A.i.9+a.8+              ",
"                        P <+O.&.4+' @+D+m.].3+]+9.8.9 t A.C+i.^ h 8+              ",
"                      J.A u.~.b+G u+$+I J.$+$ K.w O.{.D {+C+^.#.c.8+              ",
"                      2 $+h.4+) m+@ E+N.j.@+G 9.E+[ / ^.8+8+6 h h (               ",
"                      5+I.]+K.{ @ I.C C =+@+      i.C+C.C+w+C+j+a.Y.              ",
"                    R u.s+4+!.S @   % u q.        C+d C+^.8+6 0./+w+              ",
"                    2+u.&+          * (.& /.    ( 8+8+++6 ++L.v.<.8+              ",
"                                    `.7 Y !+W i.w+8+w+d f.)+B.r+<.g+              ",
"                  .           /.    F+Y a O n+d 8+Y.-.W.B v U.v.1.Z i i v         ",
"                  .           /.W   M O } '+g+8+( W.T.~ ~+V.K U.).H.v+H.o.G.      ",
"                  Q.!+H     H O y+d.D.x G.k 9+b.D.e.X.~+~+V.t.B+;+F Z.k+*+`       ",
"              4 m +.D.!+f.G.T.e+d.a+1+e+k 6+1++.B }+@.@.v+7.6.k.S.+ + ;+3 }.; :.p+",
"              5 f+f+K 1+'./+'+G.5 >+-.e+d.t+'+l+H.P.F F #+S.S.#+S.c+..n.n.[+(+:.r.",
"              m K t+6 k a+-.++t+a+++C+g+f.f.5.o+s.s.s.d+[+l.%+....,+] %+d+[+J p+|+",
"              m 0+K )+6+^ 6 9+U.t+w+8+x ;.l Q x+..n.z+2.J n n _+[+] J J 2.7+n p+|+",
"(+x+S.#+c+s | m =.f 6+9+8+8+^ 5 6+g ;.y., i+,+d+[+_+ +c z r.X z J  +c z z z p+.+|+",
";  +J J (+2.M.j r.>.0+f $.T 5 0+| y ,.J (+7+2.2.J h+z p+|+|+: |+X .+.+X X : : : : "};
