/* XPM */
static char * Regio_DFR_4_26_xpm[] = {
"42 26 256 2",
"  	c None",
". 	c #322A26",
"+ 	c #743A20",
"@ 	c #82824E",
"# 	c #5E5E3A",
"$ 	c #725F4E",
"% 	c #B65E2E",
"& 	c #47525A",
"* 	c #8E613B",
"= 	c #5B3524",
"- 	c #A88351",
"; 	c #9E421E",
"> 	c #335E87",
", 	c #C9A773",
"' 	c #907D45",
") 	c #443626",
"! 	c #B68242",
"~ 	c #944521",
"{ 	c #76764E",
"] 	c #7A4A2F",
"^ 	c #4F4F3E",
"/ 	c #8E7450",
"( 	c #C0A06D",
"_ 	c #3D5E7A",
": 	c #B76C38",
"< 	c #BE9965",
"[ 	c #667A8E",
"} 	c #A35F32",
"| 	c #776645",
"1 	c #8C4D2B",
"2 	c #534A3D",
"3 	c #B0976A",
"4 	c #664E37",
"5 	c #4D5E69",
"6 	c #563625",
"7 	c #745237",
"8 	c #8E6E53",
"9 	c #4376A5",
"0 	c #5C432E",
"a 	c #728A9A",
"b 	c #A07D52",
"c 	c #964C26",
"d 	c #42627E",
"e 	c #4E462E",
"f 	c #42668A",
"g 	c #B2743E",
"h 	c #CD8545",
"i 	c #6B6B4C",
"j 	c #B68C5A",
"k 	c #767C7A",
"l 	c #88663E",
"m 	c #7D5336",
"n 	c #CA7738",
"o 	c #AB7549",
"p 	c #8A3E1E",
"q 	c #A59272",
"r 	c #BA5A27",
"s 	c #868672",
"t 	c #6E6048",
"u 	c #503626",
"v 	c #5E6A6C",
"w 	c #906744",
"x 	c #9E4622",
"y 	c #E09850",
"z 	c #473024",
"A 	c #62422E",
"B 	c #747676",
"C 	c #5A697A",
"D 	c #515151",
"E 	c #7A5E3A",
"F 	c #463A33",
"G 	c #95532E",
"H 	c #908468",
"I 	c #695A3F",
"J 	c #7E6A44",
"K 	c #A46B40",
"L 	c #9F542B",
"M 	c #6E3D26",
"N 	c #3B322D",
"O 	c #5C605F",
"P 	c #A67548",
"Q 	c #C1723A",
"R 	c #3B719F",
"S 	c #6E4F37",
"T 	c #8A522E",
"U 	c #864626",
"V 	c #7A5A34",
"W 	c #A28E6E",
"X 	c #864D2D",
"Y 	c #37597B",
"Z 	c #8E8A7A",
"` 	c #A67D52",
" .	c #564631",
"..	c #E2AE62",
"+.	c #7E5F3A",
"@.	c #3D414A",
"#.	c #645E4C",
"$.	c #C68E54",
"%.	c #BA8551",
"&.	c #7F7645",
"*.	c #556E89",
"=.	c #9E5F36",
"-.	c #9B663D",
";.	c #733E25",
">.	c #A48A5D",
",.	c #B25A2A",
"'.	c #6A3C26",
").	c #68432D",
"!.	c #927C58",
"~.	c #6C747A",
"{.	c #C6763A",
"].	c #766A46",
"^.	c #CB9256",
"/.	c #496F93",
"(.	c #926E4A",
"_.	c #5A3B29",
":.	c #9E7448",
"<.	c #4A3E26",
"[.	c #D2B37A",
"}.	c #C9975E",
"|.	c #835233",
"1.	c #C56B32",
"2.	c #945A37",
"3.	c #81724A",
"4.	c #A15A31",
"5.	c #64644A",
"6.	c #A3663B",
"7.	c #B69264",
"8.	c #824C2D",
"9.	c #555850",
"0.	c #826658",
"a.	c #817D4B",
"b.	c #5E5144",
"c.	c #3A2D29",
"d.	c #978352",
"e.	c #B57B47",
"f.	c #74462B",
"g.	c #6E4A31",
"h.	c #3E5266",
"i.	c #885F39",
"j.	c #6A6E62",
"k.	c #CAA169",
"l.	c #585746",
"m.	c #545A66",
"n.	c #9A613A",
"o.	c #AF8A5A",
"p.	c #768A92",
"q.	c #766A62",
"r.	c #4A6886",
"s.	c #6A6C6E",
"t.	c #503E30",
"u.	c #4A4640",
"v.	c #B08258",
"w.	c #6E6662",
"x.	c #AA5224",
"y.	c #C28249",
"z.	c #663E2C",
"A.	c #685341",
"B.	c #6E8696",
"C.	c #564232",
"D.	c #B0926A",
"E.	c #AE9A7C",
"F.	c #64727C",
"G.	c #376591",
"H.	c #7C4429",
"I.	c #D6AA6E",
"J.	c #95744B",
"K.	c #696357",
"L.	c #855A3C",
"M.	c #966A43",
"N.	c #AD7C49",
"O.	c #645A4E",
"P.	c #6E664A",
"Q.	c #726E4C",
"R.	c #AE6232",
"S.	c #444039",
"T.	c #AD6637",
"U.	c #7A766A",
"V.	c #524638",
"W.	c #B56433",
"X.	c #C27C41",
"Y.	c #52667B",
"Z.	c #6E4329",
"`.	c #6A644B",
" +	c #4A4038",
".+	c #947E64",
"++	c #5E664A",
"@+	c #92948C",
"#+	c #9F7E5F",
"$+	c #8A7246",
"%+	c #362E2A",
"&+	c #D18B4E",
"*+	c #D07E3C",
"=+	c #887D4D",
"-+	c #7B4E33",
";+	c #55595C",
">+	c #866C52",
",+	c #8C5834",
"'+	c #9C6E45",
")+	c #624932",
"!+	c #59513F",
"~+	c #7C5444",
"{+	c #A68359",
"]+	c #876141",
"^+	c #945E38",
"/+	c #AC6A3A",
"(+	c #DABA7E",
"_+	c #565F6A",
":+	c #5E4A36",
"<+	c #BD8C59",
"[+	c #8A6A42",
"}+	c #9E825A",
"|+	c #848E8E",
"1+	c #74563A",
"2+	c #B28E66",
"3+	c #AA5A2A",
"4+	c #BE925D",
"5+	c #BE662E",
"6+	c #9E9682",
"7+	c #625646",
"8+	c #C8AE76",
"9+	c #6A7256",
"0+	c #6E563A",
"a+	c #6A7270",
"b+	c #42322A",
"c+	c #AB7D53",
"d+	c #454242",
"e+	c #896649",
"f+	c #9A7349",
"g+	c #966E52",
"h+	c #5C5E49",
"i+	c #B29E66",
"j+	c #563B2B",
"k+	c #865635",
"l+	c #94623B",
"m+	c #646262",
"n+	c #78604E",
"o+	c #887648",
"p+	c #5F3C28",
"q+	c #362A27",
"r+	c #A65428",
"s+	c #5E5632",
"t+	c #C2864F",
"u+	c #403630",
"v+	c #B97540",
"w+	c #9A552D",
"x+	c #9A5A32",
"y+	c #79704B",
"z+	c #A64E22",
"A+	c #BE7E4C",
"B+	c #846D46",
"C+	c #B68452",
"D+	c #8E4420",
"E+	c #44586C",
"F+	c #997D55",
"G+	c #3E648C",
"N c.c.q+q+c.S.2 A.O.b.h+++i 5.!+!+`.m+F+Z _ Y.a+U.r.r./.r.f r./.C a+H H O.j+Z.] w+w+",
"N %+%+q+c.N  +2 7+O.5.++h+t 7+9.9.j.m+J.|+G+d O.L.r.R R /.*.*.r.Y.k s a+S._.).8.w+4.",
"%+q+%+q+N F V.l.5.P.9+++#.P._+r.& v O.K {+w.C n+v+k 9 9 9 r.f 5 s.~.v 5 u+0 g.k+^+2.",
"%+c.N u+S.u.u.l.#.i i ++5.h+r.d _+*.A.x+Q 4.s.0.}.@+9 9 R G.G.;+s.v m.u.= 0 m ,+,+k+",
"c.u+S.S.d+d+& h+P.y+P.++5.O /.E+Y.C 8 T.5+T.8 i.}.p.9 Y.;+G+f ;+E+& D t.M _.L.^+x+i.",
". N F u.d+^ h+t | ].i ++t O.^ ;+Y.m g e.G X.K c 1.#+[ ~+X _+G.E+Y & t.= Z.S i.G 4.0.",
"q+q+u+d+D 9.P.t >+Q.{ Q.$+$+7+O m.H.4.L c R.p 4.1.^.J.: C+F.G.> Y _ @.= ).f.8.L L q.",
". q+N d+9.9.i y+!.=+@ 3.J.b $ K.;+] c R.{.<+R.$.X.t+#+{.y.F.G.> Y _ @.6 + f.8.6.4.i.",
"q+. c. +l.#.Q.y+/ o+&.M.P N.B+K.;+S 1 W.*+o n ..k.D.@+A+t+[ G.> h.E+@.= '.H.,+o G k+",
". . N  +l.t 3.3.J.!.l W.&+&+J.O O 1+-+=.: ~ : I.k.>.6+2+D.B.9 f h.& V.= p+H.^+o X ~+",
"%+. q+<.7+J J B+>., '+% y.t+P m+j.1+g.1 1 X =.<+c+K >+q E.|+a B #.$ f+` e+|.M.K G m ",
". . c. +b.].B+J / 3 l+x.X.t+c+&.' 1+-+k+^+w l '+l+-.] .+q 3 i+W 8 ^+e.}.7.* '+-.,+|.",
". . c.F S.A.].I ~+:.6.T.g %.- >.d.B++.-+-.]++.M.L.'+X L.!.3 q j.I M.t+}.%.w 2.k+|.1 ",
"q+. q+N u+!+`.n+` < t+C+4+< 7.[.( B+| V l+|.w :.n.M.,+|.'+{+B 5 t ` y.$.v+n.L.e+L.2.",
"q+. q+b+F  .y+!.( < - {+D.k.D.< 8+F+=+$+l ] n.K K 6.1 8.` j .+b.w v+n h v+4.-+m -+x+",
"q+%+N F F t.1+:.'+f+7.b ` , 8+:.7.>.a.a.y+1+i.2.N.-.|.8.-./+v+Q Q 1.n &+^.<+H.;.Z.L ",
"F S.F  +F t.1+` [+c+, - o C+<+'+4+i+' d.a.{ 3.w :.^+Z.Z.-+-+-+).} *+h y h $.X + H.n.",
"2 D  +2  +C.^+o [+e+o.M.C+<+b :.o.3 =+=+a.3.o+' f+]+M ).).z.j+t.-.: y.y n A+H.U U G ",
"5.`.P.i 2 0 ,+} i.m ]+8.K N.b {+- {+=+a.&.,+=.'+J.1+6 _.= _.0 0+]+} t+t+} X.8.D+x c ",
"l.i P.K.b.j+S ] |.-.! M.{+F+J.b J.B+' a.| /+z+G ]+S z u z z 7 - +.6.C+o.] T.G x r /+",
"d+^ 5.#.u.j+j+p+f.2.N.+.d.}+}+N.J.2 # ].1+X.z+T E  .) z q+N A i.0 '+v.3 S c 3+D+z+,.",
"2 2 7+)+_._.A ).-+m m l b < - C+- V.s+4 j+8.l+M.>+0 ;.f.6 c.) V.z.} A+<+` ;.W.~ ~ x.",
"e  .-+=.L ).).z.m L.k+w - ( < <+-.4  .).z.f.7 |.-.] r+: k+N u+<.g.1 c+}.<+] L L ~ r+",
"V.:+^+: W.|.0 p+m l ` #+b < [.( ]+S 0 A.4 ] ]+1+L.8.W.y.* b+N t.7 ;.M.^.e.P } } ~ L ",
"V.t.,+v+}.P p+p+-+]+<+( }+o.k.[.[+1+S 4 z.|.(.[+7 H.r X.l+u ) b.L.Z.L.^.6.v.o =.D+D+",
"u.$ '+$.4+l+k+).Z.|.j k.F+b 4+(+b V m )+)+w g+[+-+D+r n % ; '.]+e.).)+N.} l+c+w+U c "};
