/* XPM */
static char * Regio_Gilde_26_xpm[] = {
"41 26 192 2",
"  	c None",
". 	c #020202",
"+ 	c #1E6E06",
"@ 	c #529A42",
"# 	c #96C28E",
"$ 	c #C2D2BA",
"% 	c #262626",
"& 	c #DAE2D2",
"* 	c #2E5A02",
"= 	c #5E9A4E",
"- 	c #6A6E3A",
"; 	c #62964E",
"> 	c #323232",
", 	c #F2F2EE",
"' 	c #464646",
") 	c #7E7E7E",
"! 	c #9A9696",
"~ 	c #9ABE8E",
"{ 	c #4A822E",
"] 	c #4E4E4E",
"^ 	c #9EBA8E",
"/ 	c #76A262",
"( 	c #525252",
"_ 	c #AEBA96",
": 	c #A2A2A2",
"< 	c #E6E2E2",
"[ 	c #626262",
"} 	c #F2F6F2",
"| 	c #C6D2BA",
"1 	c #6E864A",
"2 	c #B6CAAA",
"3 	c #A6B28E",
"4 	c #CED2C2",
"5 	c #5A863E",
"6 	c #AAAAAA",
"7 	c #565656",
"8 	c #060606",
"9 	c #6E723E",
"0 	c #FAFAF6",
"a 	c #D2DECA",
"b 	c #0A0A0A",
"c 	c #C2C2C2",
"d 	c #625E5E",
"e 	c #6A8A4E",
"f 	c #B2AEAE",
"g 	c #E6EADE",
"h 	c #8E8E8E",
"i 	c #6E6E6E",
"j 	c #6A5A2A",
"k 	c #529242",
"l 	c #767676",
"m 	c #CACAB6",
"n 	c #2E5E02",
"o 	c #0E0E0E",
"p 	c #EAEAE2",
"q 	c #BABABA",
"r 	c #DAEAD6",
"s 	c #3A3A3A",
"t 	c #FEFEFE",
"u 	c #B2B2B2",
"v 	c #DAD2C6",
"w 	c #726236",
"x 	c #366E16",
"y 	c #5E7636",
"z 	c #121212",
"A 	c #868686",
"B 	c #CACACA",
"C 	c #5E8642",
"D 	c #D6DECE",
"E 	c #CEC6B6",
"F 	c #CADEC6",
"G 	c #2A6206",
"H 	c #E2E2DE",
"I 	c #D2D2D2",
"J 	c #DADADA",
"K 	c #2A2A2A",
"L 	c #EEEEEA",
"M 	c #1A1A1A",
"N 	c #B6B2B2",
"O 	c #CAC6C6",
"P 	c #5E7E3A",
"Q 	c #DAE6D2",
"R 	c #666666",
"S 	c #9A9A9A",
"T 	c #568E42",
"U 	c #727272",
"V 	c #F6F2EE",
"W 	c #DEDED2",
"X 	c #F6F6F6",
"Y 	c #BEBEBE",
"Z 	c #766A3A",
"` 	c #226606",
" .	c #92CA92",
"..	c #D2CABE",
"+.	c #DAD6C6",
"@.	c #CECACA",
"#.	c #868282",
"$.	c #BEDABA",
"%.	c #424242",
"&.	c #668646",
"*.	c #FAF6F6",
"=.	c #F2EEEA",
"-.	c #2E2E2E",
";.	c #DEDED6",
">.	c #A6A2A2",
",.	c #B6B6B6",
"'.	c #E6E6DE",
").	c #E6EEE2",
"!.	c #D6D2D2",
"~.	c #6E6A6A",
"{.	c #AAB28E",
"].	c #FEFAFA",
"^.	c #5E8A42",
"/.	c #6A6A6A",
"(.	c #9E9E9E",
"_.	c #DAD6D6",
":.	c #DAE2DA",
"<.	c #828282",
"[.	c #226A06",
"}.	c #CECEC6",
"|.	c #DEE2D2",
"1.	c #5A9E4E",
"2.	c #E2EEDE",
"3.	c #A2B68E",
"4.	c #72663A",
"5.	c #568A3E",
"6.	c #CAD2C2",
"7.	c #DEDADA",
"8.	c #EAE6E6",
"9.	c #5E9E4E",
"0.	c #C6C6C6",
"a.	c #AEAAAA",
"b.	c #EEEAEA",
"c.	c #767272",
"d.	c #C2D6BA",
"e.	c #4A4A4A",
"f.	c #8A8A8A",
"g.	c #E2E6DA",
"h.	c #AAA6A6",
"i.	c #F2F2F2",
"j.	c #DEE6D6",
"k.	c #BEBABA",
"l.	c #C2BEBE",
"m.	c #96C692",
"n.	c #9AC28E",
"o.	c #CED6BE",
"p.	c #6A8E4E",
"q.	c #CACEBA",
"r.	c #3E3E3E",
"s.	c #161616",
"t.	c #1E1E1E",
"u.	c #E2DEDE",
"v.	c #524E4E",
"w.	c #569242",
"x.	c #BAB6B6",
"y.	c #F2EEEE",
"z.	c #DEDEDE",
"A.	c #E6E6E6",
"B.	c #CECECE",
"C.	c #6E8A4E",
"D.	c #7A7A7A",
"E.	c #628242",
"F.	c #5A8A3E",
"G.	c #226E06",
"H.	c #C6C2C2",
"I.	c #628642",
"J.	c #A29E9E",
"K.	c #EAEAEA",
"L.	c #4A4646",
"M.	c #827E7E",
"N.	c #928E8E",
"O.	c #8A8686",
"P.	c #2E2A2A",
"Q.	c #5A8E42",
"R.	c #266606",
"S.	c #DAD6CA",
"T.	c #A2BA8E",
"U.	c #9E9A9A",
"V.	c #D2CECE",
"W.	c #DAE6D6",
"X.	c #F6F2F2",
"Y.	c #EEEEEE",
"Z.	c #5A8A42",
"`.	c #FAFAFA",
" +	c #E6EAE2",
".+	c #DAD2CA",
"++	c #E2E2E2",
"@+	c #DEE2D6",
"#+	c #96C292",
"$+	c #CED2C6",
"%+	c #CACABA",
"&+	c #DEE6DA",
"                      t t t t t t t t t t t t t t t t t                           ",
"                      t i.8.X.b.Y.K.].t t y.`.].X `.].y.                          ",
"                      t B.z.7.0.B c X.*.*.!.X.X.< b.y.8.                          ",
"                      b._.b.I u a.a.l.O x.f x.x.x.k.c J                           ",
"                      Y.J u.l.U.! f h.B (.u u 6 J.f 7.i.                          ",
"                      ].B J !.a.(.6 N O h.k.k.,.q x.@.8.                          ",
"                      t X A.*.X X.y.i.i.X i.y.*.*.y.X.].                          ",
"                      2.F q.d.| d.$.| | d.$ m E E E ..0                           ",
"                      _ w.P k T k 5.5 F.w.T 9 Z Z w j V                           ",
"                      3 = ).i.++X.t *.++A.X Y.b.].v 4.=.                          ",
"                      T.1 p k.D.l.X X S i <.) 7.t .+4.,                           ",
"                      ~ p. +H./.d M.L f z b c.t t S.4.,                           ",
"                       .=  +f f.q #.X.@.> . /.].t +.4.=.                          ",
"                      ^ 9.).u c.l.d < !.( o s.l : v 4.,                           ",
"                      3 ; ).b.x./.r.h _.A K -.*.Y.S.4.y.                          ",
"                      3.e g 6 R v.i i Y >.<.R 8.X.S.4.,                           ",
"                      n.p.;.-.> /.-.U ~.N.i P.v.O +.4.,                           ",
"                      m.= :.M [ !.-.% U N r.' 7.*.S.4.=.                          ",
"                      #+1.&+' t.e.% ] h.7 s #.].].+.4.,                           ",
"                      {.= :.s.8 K U h %.8 M x.O c %+4.,                           ",
"                      3.C.'.A c.Y z.u.(.L.] ) O.V.4 - ,                           ",
"                      ~ &.o.D a W.j.H D 6.}.6.$+|.2 y ,                           ",
"                      # { [.[.G.R.+ * G.G.n R.* ` G x ,                           ",
"                      2 / Z.Q.Z.Z.@ E.C Z.^.^.C I.C ; }                           ",
"                      =.g.@+& W.W.Q & & & & W & |.Q r ].                          ",
"                      ].t ].t ].].t t t t t t ].t t ].].                          "};
