/* XPM */
static char * Regio_Nahuatlan_26_xpm[] = {
"41 26 173 2",
"  	c None",
". 	c #76765A",
"+ 	c #C2C296",
"@ 	c #A2A27A",
"# 	c #AEAE86",
"$ 	c #D6D6A6",
"% 	c #82825E",
"& 	c #BEBE96",
"* 	c #D2D2A6",
"= 	c #8A866A",
"- 	c #BABA92",
"; 	c #CACA9E",
"> 	c #96966E",
", 	c #B2B28A",
"' 	c #A6A67A",
") 	c #E2DECE",
"! 	c #CACAB6",
"~ 	c #9A9A7A",
"{ 	c #B6B29E",
"] 	c #C2C2AE",
"^ 	c #AEAA82",
"/ 	c #D2D2BA",
"( 	c #B2B292",
"_ 	c #A6A686",
": 	c #D6D6BE",
"< 	c #CACAB2",
"[ 	c #9E9E76",
"} 	c #BABAA2",
"| 	c #CAC69E",
"1 	c #AEAE92",
"2 	c #B6B692",
"3 	c #E2DEB2",
"4 	c #AAAA86",
"5 	c #BEBE9E",
"6 	c #8A8A6A",
"7 	c #C2C2A2",
"8 	c #CECAA2",
"9 	c #BEBEA2",
"0 	c #9E9E7E",
"a 	c #AEAA92",
"b 	c #AAAA7E",
"c 	c #CECEA2",
"d 	c #A2A282",
"e 	c #B2AE86",
"f 	c #CECEB6",
"g 	c #928E6A",
"h 	c #B6B69A",
"i 	c #C6C6AE",
"j 	c #C6C6A2",
"k 	c #AAA686",
"l 	c #DEDAAE",
"m 	c #A29E7E",
"n 	c #7A7A5E",
"o 	c #B6B68E",
"p 	c #9E9A76",
"q 	c #BABA9E",
"r 	c #C2BEA2",
"s 	c #969676",
"t 	c #B2B296",
"u 	c #AEAA8A",
"v 	c #AAA682",
"w 	c #AAAA8E",
"x 	c #EAE6DA",
"y 	c #AEAE8A",
"z 	c #C2C2AA",
"A 	c #CACAAE",
"B 	c #BAB692",
"C 	c #BEBA92",
"D 	c #B6B28E",
"E 	c #C6C29A",
"F 	c #BAB69E",
"G 	c #B2AE92",
"H 	c #D2CEB6",
"I 	c #D2CEA2",
"J 	c #CECEB2",
"K 	c #D6D2A2",
"L 	c #A6A282",
"M 	c #AAA68A",
"N 	c #A6A27A",
"O 	c #BEBAA2",
"P 	c #CAC6AE",
"Q 	c #9A9672",
"R 	c #B6B29A",
"S 	c #9E9A7A",
"T 	c #A29E76",
"U 	c #A6A68A",
"V 	c #DAD6A6",
"W 	c #96926E",
"X 	c #B2AE8E",
"Y 	c #D2CEAE",
"Z 	c #C2BEA6",
"` 	c #B6B292",
" .	c #C6C2A2",
"..	c #9A9676",
"+.	c #CAC6A6",
"@.	c #C6C69E",
"#.	c #BAB69A",
"$.	c #B6B69E",
"%.	c #92926E",
"&.	c #DADAAA",
"*.	c #A6A67E",
"=.	c #D6D2A6",
"-.	c #9E9E86",
";.	c #CECAB6",
">.	c #BABA9A",
",.	c #A6A286",
"'.	c #C6C2AE",
").	c #7E7E5E",
"!.	c #AAAA8A",
"~.	c #D6D2BE",
"{.	c #CECAB2",
"].	c #C6C2AA",
"^.	c #C2C29E",
"/.	c #C6C6AA",
"(.	c #BEBEA6",
"_.	c #A29E82",
":.	c #C2BE9A",
"<.	c #DEDAB6",
"[.	c #AEAE8E",
"}.	c #E2E2D2",
"|.	c #E6E2AE",
"1.	c #9E9A7E",
"2.	c #C2BE9E",
"3.	c #B2B28E",
"4.	c #CACAA6",
"5.	c #BEBA9A",
"6.	c #A6A682",
"7.	c #D6D2AA",
"8.	c #868262",
"9.	c #CECEBA",
"0.	c #B6B696",
"a.	c #AEAA8E",
"b.	c #BABA96",
"c.	c #B2B29A",
"d.	c #AAA68E",
"e.	c #9E9E7A",
"f.	c #BEBA9E",
"g.	c #B2AE96",
"h.	c #BEBAA6",
"i.	c #C2BEAA",
"j.	c #A2A27E",
"k.	c #AEAA86",
"l.	c #9E9E82",
"m.	c #B2AE8A",
"n.	c #D2CEA6",
"o.	c #CAC6A2",
"p.	c #AEAE96",
"q.	c #CECAA6",
"r.	c #AAAA82",
"s.	c #BAB6A2",
"t.	c #A6A68E",
"u.	c #A6A27E",
"v.	c #CACAA2",
"w.	c #BAB696",
"x.	c #C6C29E",
"y.	c #D2CEBA",
"z.	c #CECEA6",
"A.	c #96967A",
"B.	c #BEBA96",
"C.	c #DAD6AA",
"D.	c #C6C2A6",
"E.	c #A6A28A",
"F.	c #C2C29A",
"G.	c #D6D6AA",
"H.	c #969672",
"I.	c #D6D6C2",
"J.	c #C2C2A6",
"K.	c #A29E7A",
"L.	c #969272",
"M.	c #9A967A",
"N.	c #828262",
"O.	c #AAAA92",
"P.	c #D6D2C2",
"                                  , , ^.+.2.o                                     ",
"                            C.o.@.D # 7 J w.u 2 c 7.                              ",
"                          j ; ` u 4 y '.9.( k.M m.2 2.l                           ",
"                        * b.~ S d !.#.] i.} ` 1 _.~ _ x.*                         ",
"                      q.r 1 ~ _ g.O.h U -.p.( c.h a a.9 Y n.                      ",
"                    z.^.P 9.(.F h M !.4 y _.X M ( h.9.f t B.7.                    ",
"                  n.F.,.R I.9 #.2 2 u L , ~ u ^ 4 l.'.].m k.n.+.                  ",
"                &.j d 0 t ].s L u.' D m.k.3.y Q Q Q !.O 1 0 3.o.                  ",
"                3 C s _ t _.v Q %.> r.m.k.o b W 6 Q k._.E.,.m $                   ",
"                2.d 1.g.F 0 y %.%.[ b.;.~.P 2 v K.N L _ i.F M.w. .                ",
"              q.x.~ U z t ~ 3.r.k.k.!.Z 9.h y 2 - o 4 X } (._.( z.                ",
"              q.o.R P i G u *.v m.k F i P.z 5 X D k.6.[.q ;.9 >.n.                ",
"              o.+./ / t s r.p j.r.y : }.x ) A X r.u.e.@ A.R ;.{. .                ",
"              v.x.U J.J F m.K.v # w.0.1 f.!.w.k.# j.@ v 0.f P >.7.7.              ",
"              +.B S _.'.9 _ # # 3.b.G } < t u 2 y r.k.4 (.P U u 4.                ",
"              7.q.1._.h.s.0 D T H.p v [.[.k 6.%.= Q D 0 F } 1.k o.                ",
"                * 0 0 } i.0 m.g . ).u.m.4 m.u.).n L.m.U $.c...b.C.                ",
"                o.2 L.w i $.v Q 8.% *.m.` m.u.N.> [ v (.z d.k x.                  ",
"                z.=.1.~ g.! h L 6.Q e.k.e # 4 ..m e.a f a.S - n.                  ",
"                  j :.u M {.y.O M _ k S *.e.6.k M $./.y.d._ :. .                  ",
"                    G.b.$.y.< ! { t.h 0 m 1 h 1 a (.(.H D.| n.                    ",
"                      2.r h _.U (.] ! (.O < '.i (.!.d h +.v.                      ",
"                        q.b.~ S 6.X Z I./ 5.[.,._.S 4 q.C.                        ",
"                          j :.:.& n.^.y.<.K F.3.u 2 * v.                          ",
"                            n.8 B.=.I 7 l V 3.B.=.n.                              ",
"                                  |.E :.v.$ +                                     "};
