/* XPM */
static char * Regio_H_u_D_50_xpm[] = {
"50 32 524 2",
"  	c None",
". 	c #D1A19B",
"+ 	c #D1A398",
"@ 	c #D5A799",
"# 	c #CE9590",
"$ 	c #DC948B",
"% 	c #E2988A",
"& 	c #E09F89",
"* 	c #CC9177",
"= 	c #BD8973",
"- 	c #67432E",
"; 	c #6E3D24",
"> 	c #B08D8E",
", 	c #CC9082",
"' 	c #E19481",
") 	c #E68D7B",
"! 	c #E89382",
"~ 	c #E28F76",
"{ 	c #CD8F75",
"] 	c #C1896F",
"^ 	c #C79781",
"/ 	c #6E4120",
"( 	c #6B3814",
"_ 	c #B8909A",
": 	c #D29197",
"< 	c #CD8B73",
"[ 	c #E19277",
"} 	c #E5816A",
"| 	c #EA795F",
"1 	c #E4825F",
"2 	c #D48662",
"3 	c #C58468",
"4 	c #CB8D79",
"5 	c #CE9C91",
"6 	c #71431F",
"7 	c #69360D",
"8 	c #6D4221",
"9 	c #CD97A5",
"0 	c #D0979C",
"a 	c #CA8F79",
"b 	c #DB8C6C",
"c 	c #D7866C",
"d 	c #E57E64",
"e 	c #E37E67",
"f 	c #D08872",
"g 	c #D5886D",
"h 	c #CC836B",
"i 	c #CD8875",
"j 	c #D89889",
"k 	c #E4B5AC",
"l 	c #734625",
"m 	c #6B370F",
"n 	c #6F401F",
"o 	c #B39CA5",
"p 	c #BA9A9F",
"q 	c #D9A694",
"r 	c #DF9C80",
"s 	c #DB896B",
"t 	c #D6846A",
"u 	c #E49176",
"v 	c #D18C78",
"w 	c #CD8B79",
"x 	c #BC7C6B",
"y 	c #CE7D65",
"z 	c #DC8E73",
"A 	c #E4A38F",
"B 	c #E5AD9D",
"C 	c #E6B3A7",
"D 	c #DBA996",
"E 	c #CEA48A",
"F 	c #6D3C1A",
"G 	c #976674",
"H 	c #9B7685",
"I 	c #C195AB",
"J 	c #A48E9D",
"K 	c #877D82",
"L 	c #968E91",
"M 	c #D7C9D3",
"N 	c #E5D8E4",
"O 	c #EEDDE4",
"P 	c #EFDCE1",
"Q 	c #EAD7DC",
"R 	c #E3CBCB",
"S 	c #E4C3BF",
"T 	c #EDB49D",
"U 	c #E39D84",
"V 	c #DA8162",
"W 	c #D78D70",
"X 	c #E29B80",
"Y 	c #E49C7C",
"Z 	c #D69175",
"` 	c #CC856E",
" .	c #D27C60",
"..	c #DB9071",
"+.	c #E89E81",
"@.	c #DC977F",
"#.	c #CF917B",
"$.	c #C99682",
"%.	c #CA9E90",
"&.	c #CFA69A",
"*.	c #D6BABC",
"=.	c #7C5C6C",
"-.	c #6A4247",
";.	c #8B636F",
">.	c #A98299",
",.	c #8C7485",
"'.	c #9E9197",
").	c #B0A5A7",
"!.	c #A89FA1",
"~.	c #A89FA2",
"{.	c #A9A1A5",
"].	c #948A8E",
"^.	c #A69A99",
"/.	c #C6B7B8",
"(.	c #E5D2D3",
"_.	c #E7D6DB",
":.	c #D9CAD3",
"<.	c #E2CFD0",
"[.	c #ECD8D7",
"}.	c #E8D0CB",
"|.	c #ECD3D4",
"1.	c #E7B3A4",
"2.	c #F2BBA5",
"3.	c #E89A80",
"4.	c #E99879",
"5.	c #D69476",
"6.	c #E0997A",
"7.	c #E79D7D",
"8.	c #E09778",
"9.	c #D98A6F",
"0.	c #E4967D",
"a.	c #E18964",
"b.	c #E38A5F",
"c.	c #DE9874",
"d.	c #E7A891",
"e.	c #E4AC9C",
"f.	c #D9ABA2",
"g.	c #E2C5C7",
"h.	c #84636C",
"i.	c #93737C",
"j.	c #AC8C9E",
"k.	c #AD829A",
"l.	c #9E8A99",
"m.	c #B8A9A9",
"n.	c #D2C4C1",
"o.	c #D1C3C1",
"p.	c #CBBEC1",
"q.	c #B3A4A8",
"r.	c #C0ADA9",
"s.	c #D2C0BB",
"t.	c #DDCCCB",
"u.	c #C9BEC6",
"v.	c #9F969F",
"w.	c #C4B4B4",
"x.	c #DFCCCC",
"y.	c #E3D0D0",
"z.	c #EBD5D8",
"A.	c #D8B4B1",
"B.	c #EEB29A",
"C.	c #EEAA8E",
"D.	c #EFA487",
"E.	c #E7A388",
"F.	c #D8967A",
"G.	c #E09C82",
"H.	c #E39978",
"I.	c #E69A75",
"J.	c #E69D80",
"K.	c #E39B82",
"L.	c #EB9C7E",
"M.	c #E3936B",
"N.	c #DB926C",
"O.	c #DCA084",
"P.	c #DEAD9C",
"Q.	c #E7C4C1",
"R.	c #AD99A5",
"S.	c #A28896",
"T.	c #825A64",
"U.	c #65545B",
"V.	c #6B6264",
"W.	c #C4B6BD",
"X.	c #C2B5BA",
"Y.	c #C4B3B6",
"Z.	c #BFAEAF",
"`.	c #CAB7B4",
" +	c #D2C1C0",
".+	c #C8BDC4",
"++	c #A59FAB",
"@+	c #ABA1A3",
"#+	c #AC9E9E",
"$+	c #C2B2AD",
"%+	c #C9B9B7",
"&+	c #DECBCB",
"*+	c #DDCBD2",
"=+	c #E1BBB6",
"-+	c #E09D7A",
";+	c #E89C7D",
">+	c #EB9B7D",
",+	c #E6AD96",
"'+	c #E9AC94",
")+	c #DC9C88",
"!+	c #DC967C",
"~+	c #E89973",
"{+	c #E1A489",
"]+	c #DC9980",
"^+	c #F0A88D",
"/+	c #EFB19D",
"(+	c #EBB5A9",
"_+	c #EABEBA",
":+	c #EDCED3",
"<+	c #6A4140",
"[+	c #6F4343",
"}+	c #997F82",
"|+	c #9E9095",
"1+	c #A2949C",
"2+	c #B6A9AF",
"3+	c #CCBDC4",
"4+	c #D0C1C2",
"5+	c #CABFC4",
"6+	c #DACDD1",
"7+	c #B9ADB1",
"8+	c #C4B8B4",
"9+	c #C0B5A9",
"0+	c #D1C2BB",
"a+	c #E5D3D5",
"b+	c #DBC9D2",
"c+	c #DBAB9D",
"d+	c #E7A180",
"e+	c #E78E6C",
"f+	c #EF906E",
"g+	c #F3AC8D",
"h+	c #ECAA94",
"i+	c #DBA293",
"j+	c #E6A284",
"k+	c #ECB18F",
"l+	c #E4AE93",
"m+	c #DFA690",
"n+	c #E8B3A0",
"o+	c #EEC4BA",
"p+	c #E9C7C8",
"q+	c #E6CFD7",
"r+	c #A2858A",
"s+	c #CBA9AE",
"t+	c #DDBDC3",
"u+	c #CFAFB7",
"v+	c #BDA5A9",
"w+	c #AD9DA4",
"x+	c #AE939D",
"y+	c #D7CBCF",
"z+	c #A9A3A3",
"A+	c #BCAFA4",
"B+	c #D4C7B7",
"C+	c #D6C8C0",
"D+	c #E7D5D3",
"E+	c #E2D0D2",
"F+	c #D8BABB",
"G+	c #E0A58B",
"H+	c #E29974",
"I+	c #EB9877",
"J+	c #F09875",
"K+	c #ED9F82",
"L+	c #EAA88F",
"M+	c #E7AC93",
"N+	c #ECB296",
"O+	c #F0B799",
"P+	c #EEC2AA",
"Q+	c #F5CBB3",
"R+	c #F6D4C6",
"S+	c #C6ACB5",
"T+	c #DFB6BC",
"U+	c #EDC5CB",
"V+	c #EBC4CF",
"W+	c #E7C0C9",
"X+	c #D6B9B5",
"Y+	c #BDA4A8",
"Z+	c #A78896",
"`+	c #755F73",
" @	c #445273",
".@	c #A7A09B",
"+@	c #B7AB98",
"@@	c #D2C4A8",
"#@	c #E3D4C7",
"$@	c #E9D8D7",
"%@	c #ECDADD",
"&@	c #D3C3C6",
"*@	c #D1B7B8",
"=@	c #D9A18C",
"-@	c #DE9E80",
";@	c #E5A081",
">@	c #EA9977",
",@	c #ED9674",
"'@	c #F0AC8D",
")@	c #F0B89D",
"!@	c #F1C3B2",
"~@	c #F0CDC2",
"{@	c #F3DAD6",
"]@	c #CBADB5",
"^@	c #E6B8C3",
"/@	c #EABFC6",
"(@	c #DFBAC7",
"_@	c #EFC4D4",
":@	c #EEC6C7",
"<@	c #A6A0B6",
"[@	c #6B85BD",
"}@	c #5C719D",
"|@	c #4A6390",
"1@	c #42609A",
"2@	c #6D7A9D",
"3@	c #A6A499",
"4@	c #BDB098",
"5@	c #DACBB5",
"6@	c #ECDCD4",
"7@	c #F1DEDE",
"8@	c #CEBBB5",
"9@	c #C3B9BF",
"0@	c #E3B5A3",
"a@	c #E2B29C",
"b@	c #E1AB93",
"c@	c #EAA887",
"d@	c #EDA785",
"e@	c #F0AD8F",
"f@	c #F0BBA1",
"g@	c #EFC7B7",
"h@	c #F3D7D5",
"i@	c #D3B5BD",
"j@	c #E8BAC4",
"k@	c #ECBDCA",
"l@	c #C2A6B3",
"m@	c #E0B8C3",
"n@	c #F0C1C6",
"o@	c #9698C2",
"p@	c #6483D0",
"q@	c #7895DA",
"r@	c #7B9ADD",
"s@	c #6585C2",
"t@	c #456498",
"u@	c #5E6D85",
"v@	c #7D7976",
"w@	c #958B86",
"x@	c #AC9F9D",
"y@	c #BCAFAD",
"z@	c #B4A7A6",
"A@	c #867B7F",
"B@	c #EAC2B2",
"C@	c #ECC0AF",
"D@	c #F0BDA6",
"E@	c #F0C5B1",
"F@	c #EFC4AD",
"G@	c #E4B4BF",
"H@	c #ECBECA",
"I@	c #D4B7C2",
"J@	c #C1A6AC",
"K@	c #DEB0B5",
"L@	c #A598B4",
"M@	c #7A95DF",
"N@	c #7E9CE6",
"O@	c #648BE7",
"P@	c #83A5F1",
"Q@	c #7395DD",
"R@	c #6984B9",
"S@	c #6B7FA8",
"T@	c #606982",
"U@	c #565769",
"V@	c #4E4C53",
"W@	c #4C4952",
"X@	c #565667",
"Y@	c #8A94B4",
"Z@	c #E6AFBA",
"`@	c #F4BECC",
" #	c #E6C5CB",
".#	c #AC9297",
"+#	c #C39EA5",
"@#	c #8999CF",
"##	c #8AA7EB",
"$#	c #749AF2",
"%#	c #90AFF5",
"&#	c #93B1EB",
"*#	c #789DDD",
"=#	c #749ADB",
"-#	c #779FE2",
";#	c #86A9E8",
">#	c #8DA7DE",
",#	c #7B9CD7",
"'#	c #7A9CDC",
")#	c #6D86C0",
"!#	c #EEB5C1",
"~#	c #F6C0D0",
"{#	c #EBC8CF",
"]#	c #9F7F88",
"^#	c #8A7C8C",
"/#	c #6D88C4",
"(#	c #84A2E5",
"_#	c #8CAAED",
":#	c #91AFED",
"<#	c #84A7EB",
"[#	c #779FE5",
"}#	c #83A6E7",
"|#	c #82A5E8",
"1#	c #83A5E7",
"2#	c #688FDC",
"3#	c #6488CC",
"4#	c #5674B0",
"5#	c #E4BBC5",
"6#	c #ECBCCC",
"7#	c #E8C3CF",
"8#	c #A2838F",
"9#	c #97707A",
"0#	c #4C5D85",
"a#	c #5B77B4",
"b#	c #6383C7",
"c#	c #6E8ED0",
"d#	c #7A9DE3",
"e#	c #83A8ED",
"f#	c #86A3DF",
"g#	c #80A0E2",
"h#	c #7F9FE0",
"i#	c #547BC5",
"j#	c #6184C2",
"k#	c #4B68A1",
"l#	c #72788D",
"m#	c #8F7C88",
"n#	c #8B6F81",
"o#	c #927983",
"p#	c #8A727D",
"q#	c #584D5B",
"r#	c #3A4F7A",
"s#	c #5C74AB",
"t#	c #5E7EB9",
"u#	c #6D8FCB",
"v#	c #86A4E0",
"w#	c #7B98D4",
"x#	c #7591CB",
"y#	c #738FC7",
"z#	c #496AA9",
"A#	c #4971B7",
"B#	c #335795",
"C#	c #657390",
"D#	c #5F505A",
"E#	c #674B5B",
"F#	c #9E7F91",
"G#	c #72646B",
"H#	c #634F60",
"I#	c #5F596F",
"J#	c #4B5E88",
"K#	c #546FA4",
"L#	c #5C7EB9",
"M#	c #6B8CCF",
"N#	c #5D80C5",
"O#	c #5F7EBB",
"P#	c #708ABC",
"Q#	c #4B69A5",
"R#	c #3463B6",
"S#	c #3D5D98",
"T#	c #AD92A8",
"U#	c #5D535D",
"V#	c #5B515E",
"W#	c #533F4A",
"X#	c #775768",
"Y#	c #9F8397",
"Z#	c #63535C",
"`#	c #665465",
" $	c #5B505D",
".$	c #566B96",
"+$	c #5676BA",
"@$	c #507ACA",
"#$	c #4B74C7",
"$$	c #5977B9",
"%$	c #2E4470",
"&$	c #43619B",
"*$	c #423B3F",
"=$	c #4C4448",
"-$	c #453B40",
";$	c #4D4145",
">$	c #3F383B",
",$	c #57627F",
"'$	c #575261",
")$	c #6C5953",
"!$	c #653D20",
"~$	c #6B5A51",
"{$	c #6D4727",
"]$	c #703D11",
"^$	c #6E3A0F",
"/$	c #694222",
"($	c #704016",
"_$	c #743F0F",
":$	c #834E1C",
"<$	c #8B5112",
"[$	c #8C501B",
"}$	c #8F4F12",
"|$	c #955315",
"1$	c #814E1C",
"2$	c #7E4A17",
"3$	c #81460D",
"4$	c #884A10",
"5$	c #864F1A",
"6$	c #41301F",
"7$	c #4F3924",
"8$	c #64401E",
"9$	c #4A3521",
"0$	c #854F1B",
"a$	c #77420F",
"b$	c #743D09",
"c$	c #91571F",
"d$	c #904F12",
"e$	c #804814",
"f$	c #7E440D",
"g$	c #824205",
"h$	c #93541A",
"i$	c #955417",
"j$	c #894D15",
"k$	c #854D1B",
"l$	c #75400F",
"m$	c #773F09",
"n$	c #8F5117",
"o$	c #935113",
"p$	c #924F11",
"q$	c #84470F",
"r$	c #7D4714",
"s$	c #7B4713",
"t$	c #89511D",
"u$	c #8E5118",
"v$	c #9C5616",
"w$	c #89480C",
"x$	c #7A4614",
"y$	c #8B4F15",
"                                                    . + @                                           ",
"                                                  # $ % & * =                                       ",
"  - ;                                           > , ' ) ! ~ { ] ^                                   ",
"    / (                                         _ : < [ } | 1 2 3 4 5                               ",
"      6 7 8                                     9 0 a b c d e f g h i j k                           ",
"        l m n                                   o p q r s t u v w x y z A B C D E                   ",
"            F G H I J K L               M N O P Q R S T U V W X Y Z `  ...+.@.#.$.%.&.*.            ",
"              =.-.;.>.,.'.).!.~.{.].^./.(._.:.<.[.}.|.1.2.3.4.5.6.7.8.9.0.a.b.c.d.e.f.g.            ",
"                h.i.j.k.l.m.n.o.p.q.r.s.t.u.v.w.x.y.z.A.B.C.D.E.F.G.H.I.J.K.L.M.N.O.P.Q.            ",
"                  R.S.T.U.V.W.X.Y.Z.`. +.+++@+#+$+%+&+*+=+-+;+>+,+'+)+!+~+{+]+^+/+(+_+:+            ",
"                      <+[+}+|+1+2+3+4+    5+6+7+8+9+0+a+b+c+d+e+f+g+h+i+j+k+l+m+n+o+p+q+            ",
"                        r+s+t+u+v+w+x+      y+z+A+B+C+D+E+F+G+H+I+J+K+L+M+N+O+P+Q+R+                ",
"                        S+T+U+V+W+X+Y+Z+`+ @  .@+@@@#@$@%@&@*@=@-@;@>@,@'@)@!@~@{@                  ",
"                        ]@^@/@(@_@:@<@[@}@|@1@2@3@4@5@6@7@8@9@  0@a@b@c@d@e@f@g@h@                  ",
"                        i@j@k@l@m@n@o@p@q@r@s@t@u@v@w@x@y@z@A@      B@C@D@E@F@                      ",
"                          G@H@I@J@K@L@M@N@O@P@Q@R@S@T@U@V@W@X@Y@                                    ",
"                          Z@`@ #  .#+#@###$#%#&#*#=#-#;#>#,#'#)#                                    ",
"                          !#~#{#    ]#^#/#(#_#:#<#[#}#|#1#2#3#4#                                    ",
"                          5#6#7#    8#9#0#a#b#c#d#e#f#g#h#i#j#k#l#                                  ",
"                          m#n#o#      p#q#r#s#t#u#v#w#x#y#z#A#B#C#                                  ",
"                          D#E#F#      G#H#I#J#K#L#M#N#O#P#Q#R#S#                                    ",
"                    T#U#V#W#X#Y#      Z#`# $    .$+$@$#$$$%$&$                                      ",
"                        *$=$-$      ;$>$          ,$'$)$!$~$                                        ",
"                                                      {$]$^$/$                                      ",
"                                                          ($_$:$<$                                  ",
"                                                          [$}$|$1$2$                                ",
"                                                            3$4$5$6$7$                              ",
"                                                                8$9$0$a$b$                          ",
"                                                                    c$d$e$f$g$                      ",
"                                                                      h$i$j$k$l$m$                  ",
"                                                                        n$o$p$q$r$s$                ",
"                                                                          t$u$v$w$x$y$              "};
