/* XPM */
static char * Regio_Rawindra_26_xpm[] = {
"41 26 166 2",
"  	c None",
". 	c #020202",
"+ 	c #3E3E4E",
"@ 	c #769E6A",
"# 	c #96C286",
"$ 	c #FE021E",
"% 	c #9ACA8A",
"& 	c #8A725E",
"* 	c #9AA2CE",
"= 	c #060A06",
"- 	c #DECA5E",
"; 	c #BAA67A",
"> 	c #A2D692",
", 	c #CA8E5E",
"' 	c #969EC6",
") 	c #9EBA86",
"! 	c #8A92BA",
"~ 	c #A63652",
"{ 	c #AAE29A",
"] 	c #DACA5E",
"^ 	c #161616",
"/ 	c #E2A26A",
"( 	c #4A6242",
"_ 	c #AE8A72",
": 	c #C2B65A",
"< 	c #8E7A62",
"[ 	c #161A12",
"} 	c #8286A6",
"| 	c #7EA672",
"1 	c #868EB2",
"2 	c #6E2A2A",
"3 	c #1E1E1E",
"4 	c #DE9E66",
"5 	c #566E4E",
"6 	c #A69A5A",
"7 	c #AA9E66",
"8 	c #C6B65E",
"9 	c #AEE69E",
"0 	c #2A2A2A",
"a 	c #9A7E66",
"b 	c #5E5E5E",
"c 	c #CEC25E",
"d 	c #BAAA62",
"e 	c #626262",
"f 	c #A6DE96",
"g 	c #323232",
"h 	c #AEEA9E",
"i 	c #B2CE92",
"j 	c #6E666A",
"k 	c #8E9672",
"l 	c #A68A72",
"m 	c #B2A662",
"n 	c #4E4E4E",
"o 	c #AABE8A",
"p 	c #9ACE8E",
"q 	c #C68A5E",
"r 	c #726E46",
"s 	c #D69E6E",
"t 	c #969696",
"u 	c #BEB25E",
"v 	c #CABE5E",
"w 	c #62564E",
"x 	c #A2DA96",
"y 	c #B2EEA2",
"z 	c #7A6252",
"A 	c #AAD292",
"B 	c #E6D65A",
"C 	c #B29A76",
"D 	c #AAA27E",
"E 	c #D69662",
"F 	c #363636",
"G 	c #9EA6D2",
"H 	c #9A8EB6",
"I 	c #9ED28E",
"J 	c #8E96BE",
"K 	c #AA9A7A",
"L 	c #8A8266",
"M 	c #CA966E",
"N 	c #3A3A3A",
"O 	c #9E8E86",
"P 	c #A2866E",
"Q 	c #BAAE5A",
"R 	c #C6BA5E",
"S 	c #B6AA5E",
"T 	c #DAC65E",
"U 	c #9AC286",
"V 	c #DEA66E",
"W 	c #565656",
"X 	c #AADE9A",
"Y 	c #BEAE5E",
"Z 	c #AEA262",
"` 	c #4A4E62",
" .	c #362A26",
"..	c #766E46",
"+.	c #AADA96",
"@.	c #3E3636",
"#.	c #96C686",
"$.	c #0E120A",
"%.	c #E2D25A",
"&.	c #526A4A",
"*.	c #6E6E6E",
"=.	c #C2926E",
"-.	c #B6EEA2",
";.	c #A2AAD2",
">.	c #363A46",
",.	c #9AA2CA",
"'.	c #AEE29A",
").	c #D2C25E",
"!.	c #9ECE8E",
"~.	c #C2B262",
"{.	c #929ABE",
"].	c #D6C65E",
"^.	c #CABA5E",
"/.	c #BAAE62",
"(.	c #A2D292",
"_.	c #C2B662",
":.	c #B6A662",
"<.	c #D2BE5E",
"[.	c #A6DA96",
"}.	c #B2EAA2",
"|.	c #FE0622",
"1.	c #A69A66",
"2.	c #8A7662",
"3.	c #B2A262",
"4.	c #E6A26A",
"5.	c #7A7246",
"6.	c #9A9ECA",
"7.	c #DECE5E",
"8.	c #DA9A66",
"9.	c #8E866A",
"0.	c #9ED292",
"a.	c #A2D696",
"b.	c #B2E69E",
"c.	c #9A826A",
"d.	c #AED296",
"e.	c #C68E5E",
"f.	c #CE9A6E",
"g.	c #B2EA9E",
"h.	c #CEBE5E",
"i.	c #AA8A72",
"j.	c #A6D696",
"k.	c #DE9E6E",
"l.	c #EAD65A",
"m.	c #A68672",
"n.	c #A2AAD6",
"o.	c #AEA266",
"p.	c #9ACA8E",
"q.	c #929AC2",
"r.	c #BEA67A",
"s.	c #8E92BA",
"t.	c #8A8EB2",
"u.	c #8E8266",
"v.	c #9EC286",
"w.	c #96C68A",
"x.	c #AAE29E",
"y.	c #A6DE9A",
"z.	c #BEAE62",
"A.	c #E2A26E",
"B.	c #B6AA62",
"C.	c #C6B662",
"D.	c #BEB262",
"E.	c #726E4A",
"F.	c #C6BA62",
"G.	c #AEE29E",
"H.	c #8286AA",
"I.	c #D69666",
"              $ $                                                                 ",
"                $ $                                                               ",
"                  $ |.                                                            ",
"        n.n.n.n.' H ~                                                             ",
"      * n.n.n.' q.G H.                            0 3 F                           ",
"    6.s.' 6.{.! ' ,.G                           N N W n                           ",
"    n.' 1 t.{.{.J J                           2 @.b t b                           ",
"    ,.q.{.* ;.;.}                               @.*.e N N                         ",
"      ` >.+ j O w m.                                N N N                         ",
"    . .  .z l P P _                                   N N                         ",
"    . . L D K c.a f.                                  N N                         ",
"    $.( U A d.o     / / I.=.l l                       N N                         ",
"  . [ | 9 }.g.[.9 -.    V ; l i.M / 4.4.              N N                         ",
"  . &.{ y [.f { % p }.}.g.}.i C s / , e./         N N N N                         ",
"  = 5 I { f p % w.!.[.[.0.> j.r.k.4 q E           N N N                           ",
"    @ (.!.9 f p w.(.G.'.X p.      A.8.          N N N                             ",
"    p > p [.a.{ 9 }.}.[.!.    -.                N N       .     T /.] ).          ",
"    #.#.!.X I 0.[.> p.    }.{ 9 }.-.            N N       ^       )._.^.C.^.z.m   ",
"    # #.x 0.> > %       y X x 9 }.-.            N N N N N N g F     h.d Z /.F.D.  ",
"    # !.g.[.[.!.0.y -.-.}.I }.y X }.          6 E.r ......r r 5.7.<.] ~./.d ].h.  ",
"    # % g.9 [.> X '.g.-.y.[.y 9 [.}.        ).^.u Q : : : Q S Y R v c B._.m B.C.  ",
"    [.0.{ { [.h 9 > f f 0.}.9 a.{           z.m /.Z z.^.z.h.8 D.B.o.Z ~.  )././.].",
"    X I p [.g.y y }.X > 9 9 > [.+.          B ^.h.~.z.~././.~.C.d 7 R     B ).:.] ",
"      [.'.}.9 9 { { X 9 9 > +.v.k <         l.- z.3.:.D./.B.D./.B.m _.      7.~.^.",
"      -.[.X [.a.X 9 { f > X ) 9.2.&             C.3.7 R /.z.^.Z ~.m           ] h.",
"        x.I (.I f 9 X f 9 b.u.& & &                 7 Z d :.o.1.                %."};
