/* XPM */
static char * Regio_Hausregel_50_xpm[] = {
"50 32 116 2",
"  	c None",
". 	c #326F8C",
"+ 	c #33708D",
"@ 	c #316D89",
"# 	c #336F8C",
"$ 	c #34718E",
"% 	c #2E657F",
"& 	c #2C617B",
"* 	c #2D637E",
"= 	c #2D6580",
"- 	c #2F6A85",
"; 	c #326E8B",
"> 	c #2C6079",
", 	c #2C6078",
"' 	c #2B5D76",
") 	c #2B5F78",
"! 	c #2B607A",
"~ 	c #2C637D",
"{ 	c #2E6883",
"] 	c #326E8A",
"^ 	c #28566D",
"/ 	c #27556C",
"( 	c #27556B",
"_ 	c #28576E",
": 	c #2A5C75",
"< 	c #2C627C",
"[ 	c #2F6884",
"} 	c #275369",
"| 	c #295970",
"1 	c #2C607A",
"2 	c #2D647E",
"3 	c #326D8A",
"4 	c #347392",
"5 	c #346F89",
"6 	c #377188",
"7 	c #3B7188",
"8 	c #3C7288",
"9 	c #376F89",
"0 	c #316D8A",
"a 	c #2D617A",
"b 	c #2D627C",
"c 	c #2F6682",
"d 	c #2E6581",
"e 	c #2D647F",
"f 	c #2E647F",
"g 	c #2E6580",
"h 	c #2D6681",
"i 	c #2E6783",
"j 	c #2F6A86",
"k 	c #2E6B86",
"l 	c #2D6783",
"m 	c #2D6683",
"n 	c #2E6885",
"o 	c #306B88",
"p 	c #35738F",
"q 	c #2D6079",
"r 	c #2D627B",
"s 	c #2E627C",
"t 	c #2A5F78",
"u 	c #2A607B",
"v 	c #2A617C",
"w 	c #2E6680",
"x 	c #336D89",
"y 	c #2A5E76",
"z 	c #26596C",
"A 	c #2D6377",
"B 	c #2A5E77",
"C 	c #295D76",
"D 	c #295D75",
"E 	c #295C75",
"F 	c #295B74",
"G 	c #295C74",
"H 	c #295B73",
"I 	c #215161",
"J 	c #22535D",
"K 	c #316E8B",
"L 	c #2B5F77",
"M 	c #28576D",
"N 	c #27546A",
"O 	c #27566D",
"P 	c #27576F",
"Q 	c #27576E",
"R 	c #26546A",
"S 	c #265469",
"T 	c #26536A",
"U 	c #27546B",
"V 	c #265369",
"W 	c #265167",
"X 	c #255065",
"Y 	c #204A5B",
"Z 	c #1F4755",
"` 	c #2F6984",
" .	c #2B5D75",
"..	c #265267",
"+.	c #265166",
"@.	c #244F63",
"#.	c #34708D",
"$.	c #306B87",
"%.	c #275165",
"&.	c #306985",
"*.	c #306A87",
"=.	c #27566E",
"-.	c #265268",
";.	c #275065",
">.	c #2D617B",
",.	c #2B5E77",
"'.	c #285970",
").	c #265165",
"!.	c #245368",
"~.	c #234F63",
"{.	c #244E62",
"].	c #244D61",
"^.	c #255064",
"/.	c #234E62",
"(.	c #244C5E",
"_.	c #274C5B",
"                                                                                                    ",
"                                                                                                    ",
"                                                                                                    ",
"                                                                                                    ",
"                                                                                                    ",
"                                                                                                    ",
"                                                                                                    ",
"                                                                                                    ",
"              . + @ @ # $                                                                           ",
"              % % & * = - ;                                                                         ",
"              > , ' ) ! ~ { ]                                                                       ",
"              ^ / ( _ : > < [ #                                                                     ",
"                    } | , 1 2 3 4 # 5 6 7 8 9 3 0 0 0 . + $ $ $ $ $ $ $ $ $ + . # + $ $             ",
"                        , a b c d e e f f f g = = h i j ; + $ $ $ $ $ $ $ + k l m n o + p           ",
"                        q a a a a a a a a a a a a a a r r b s s s s s s s r 1 t t u v w x           ",
"                        a a a a a a a a a a a a a a a a a a a a a a a a a a > ) y     z A           ",
"                        # f a a > > > > > > > > ) ) B C C C C D E F G : : : F : H     I J           ",
"                        K % a L H M ( N ( ( ( / O P Q R R R R S T R R ( N N U / V W X Y Z           ",
"                      + ` 1  .( ..+.+.+.+.+.+.+.+.+.+.+.+.+.+.+.+.+.+.+.+.+.+.+.+.+.+.@.            ",
"              # #.+ + $.1 | } %.                                                                    ",
"              &.*.o &.! =.-.;.                                                                      ",
"              r >.> ,.'.W +.).                                                                      ",
"              a  .!.~.{.].^.                                                                        ",
"                  /.(._.                                                                            ",
"                                                                                                    ",
"                                                                                                    ",
"                                                                                                    ",
"                                                                                                    ",
"                                                                                                    ",
"                                                                                                    ",
"                                                                                                    ",
"                                                                                                    "};
