/* XPM */
static char * Resistenz_trans_32_xpm[] = {
"50 32 236 2",
"  	c None",
". 	c #020202",
"+ 	c #322206",
"@ 	c #3E3636",
"# 	c #363252",
"$ 	c #060606",
"% 	c #5E9A76",
"& 	c #B26A02",
"* 	c #3E6E6A",
"= 	c #6A9A9A",
"- 	c #366E16",
"; 	c #CEC2EE",
"> 	c #0A0A0E",
", 	c #025E16",
"' 	c #6A5EA2",
") 	c #BEAE96",
"! 	c #52464A",
"~ 	c #066216",
"{ 	c #2A5612",
"] 	c #BAB69A",
"^ 	c #72660A",
"/ 	c #BE8A46",
"( 	c #8E6A52",
"_ 	c #7A76AE",
": 	c #B6B2AA",
"< 	c #5A420E",
"[ 	c #665A22",
"} 	c #9A9E76",
"| 	c #668A96",
"1 	c #2A9242",
"2 	c #BA9EBA",
"3 	c #867ABE",
"4 	c #2A2606",
"5 	c #066E1A",
"6 	c #B6AAFA",
"7 	c #5A6A5E",
"8 	c #568232",
"9 	c #466222",
"0 	c #BABAAE",
"a 	c #165212",
"b 	c #5E5632",
"c 	c #8676D2",
"d 	c #06721A",
"e 	c #6A869E",
"f 	c #D2DAFE",
"g 	c #224A12",
"h 	c #726632",
"i 	c #AE9AE2",
"j 	c #067A1E",
"k 	c #AA6E0A",
"l 	c #B69ECA",
"m 	c #CAA26A",
"n 	c #A2866A",
"o 	c #465A16",
"p 	c #CAB6B2",
"q 	c #6E7E36",
"r 	c #62622A",
"s 	c #9A8EDA",
"t 	c #768256",
"u 	c #B6BAEE",
"v 	c #A28AA2",
"w 	c #D2B692",
"x 	c #BAAEFE",
"y 	c #8E8E66",
"z 	c #96A2D2",
"A 	c #322E1A",
"B 	c #2A4A12",
"C 	c #1A7A1E",
"D 	c #5A762E",
"E 	c #7E7236",
"F 	c #7A4E0E",
"G 	c #BA7A1A",
"H 	c #D6CEFE",
"I 	c #BEB6FE",
"J 	c #AA9EFE",
"K 	c #AA92BA",
"L 	c #AEA6FE",
"M 	c #BA8656",
"N 	c #1E8222",
"O 	c #AEA28A",
"P 	c #928EDE",
"Q 	c #8A827E",
"R 	c #363E0E",
"S 	c #867642",
"T 	c #4E8246",
"U 	c #7E96BE",
"V 	c #9A8EF2",
"W 	c #827236",
"X 	c #C2BE96",
"Y 	c #067E1E",
"Z 	c #167E1E",
"` 	c #A2869E",
" .	c #3E7266",
"..	c #B6A692",
"+.	c #165E12",
"@.	c #7E5212",
"#.	c #B27622",
"$.	c #A696FE",
"%.	c #5E726E",
"&.	c #86624A",
"*.	c #BABEEE",
"=.	c #5A521E",
"-.	c #3E3A0E",
";.	c #464E0E",
">.	c #1E1A2A",
",.	c #427226",
"'.	c #6A5E2A",
").	c #425212",
"!.	c #B6B2FE",
"~.	c #E6DEEE",
"{.	c #726222",
"].	c #C6BAFE",
"^.	c #0E5E16",
"/.	c #A69AFE",
"(.	c #C69E72",
"_.	c #C6CAF2",
":.	c #6E722E",
"<.	c #1A8A36",
"[.	c #826A1A",
"}.	c #B2A2F2",
"|.	c #8E6A4A",
"1.	c #06821E",
"2.	c #12761A",
"3.	c #463E16",
"4.	c #166A1A",
"5.	c #4E360A",
"6.	c #B6720E",
"7.	c #3E7E56",
"8.	c #9E722A",
"9.	c #56620A",
"0.	c #867246",
"a.	c #B2A6FE",
"b.	c #06861E",
"c.	c #A292FE",
"d.	c #BEAE92",
"e.	c #EAE6FE",
"f.	c #7A82AE",
"g.	c #4E822E",
"h.	c #765E1A",
"i.	c #2E822A",
"j.	c #967646",
"k.	c #0E8622",
"l.	c #C29246",
"m.	c #464612",
"n.	c #AA96F2",
"o.	c #C6BEFE",
"p.	c #365612",
"q.	c #CAC6FE",
"r.	c #DED6FE",
"s.	c #8E6E4A",
"t.	c #2E5E12",
"u.	c #BEBAFE",
"v.	c #0A5E16",
"w.	c #BAB2FE",
"x.	c #CAC2FE",
"y.	c #6E6A2A",
"z.	c #16762E",
"A.	c #126E26",
"B.	c #8A624A",
"C.	c #423A0A",
"D.	c #AE9AFE",
"E.	c #72A29A",
"F.	c #C2BE9A",
"G.	c #466A26",
"H.	c #BE822A",
"I.	c #766A2E",
"J.	c #C2BEFE",
"K.	c #B6A6FE",
"L.	c #BAAAFE",
"M.	c #0E5E22",
"N.	c #AEA2FE",
"O.	c #AA96FE",
"P.	c #CECAFE",
"Q.	c #BEAEFE",
"R.	c #DEDAFE",
"S.	c #826A2A",
"T.	c #B26E02",
"U.	c #AA869E",
"V.	c #065E16",
"W.	c #B2A2FE",
"X.	c #AA9AF6",
"Y.	c #C6B292",
"Z.	c #CABEFE",
"`.	c #D6D2FE",
" +	c #8A664A",
".+	c #C2B6FE",
"++	c #463A12",
"@+	c #2E8E4E",
"#+	c #C6C6FE",
"$+	c #4A5E1A",
"%+	c #86664A",
"&+	c #AA9AFE",
"*+	c #06761A",
"=+	c #CAA66E",
"-+	c #D2BA8E",
";+	c #926E4A",
">+	c #AE9EFE",
",+	c #A692FE",
"'+	c #BEB2FE",
")+	c #CEC2FE",
"!+	c #6E62A6",
"~+	c #026616",
"{+	c #66662E",
"]+	c #1A7E1E",
"^+	c #168222",
"/+	c #72662A",
"(+	c #926A4A",
"_+	c #0A8222",
":+	c #C2BAFE",
"<+	c #BE8A4E",
"[+	c #7E723E",
"}+	c #7E521A",
"|+	c #427E5E",
"1+	c #0E862A",
"2+	c #BE924E",
"3+	c #B66E0A",
"4+	c #362206",
"5+	c #4A5A16",
"6+	c #CEC6FE",
"7+	c #BAB2AA",
"8+	c #1A5212",
"9+	c #B6761E",
"0+	c #5E521E",
"a+	c #7A5E1E",
"b+	c #4A4612",
"c+	c #DAD2FE",
"d+	c #8E664A",
"e+	c #B6AAFE",
"f+	c #423A0E",
"g+	c #065E1A",
"h+	c #8E6A4E",
"i+	c #B67212",
"j+	c #365616",
"k+	c #0E5E26",
"l+	c #D2BA92",
"m+	c #926E4E",
"                                                                                                    ",
"                                            & & & &       X                                         ",
"                                            T.H.6.&       X                                         ",
"                                        ~.6.G -+m 9+      F.                                        ",
"                                        ; <+2+d...m       F.                                        ",
"                                        >+(.w O d.l+U.X.7+]                                         ",
"                                c+W.$.,+,+M =+d.Y.p n.X.v n :+                                      ",
"                                .+'+O.N.2 #.#./ / 2 '+x ` ( &+$.                                    ",
"                              $.$.'+Q.'+K [.E k 8.f.V X.` (+W.$.,+a.`.                              ",
"                              ,+&+w.I P * M.^.^ t.M. .U Q ( x e+>+].].                              ",
"                          H W.&+K.K.$.e V., , 9.v.V.g+z.,.&.,+w..+W.&+                              ",
"                          L.:+.+'+$.$.e , , , +.V., , d - &.>+W.'+>+c.                              ",
"                          ,+D..+e+J a.= Y 5 5 ~+~ 4.j 1.-  +e+,+W.L.$.$.                            ",
"                          $.N.x $.K.w.E.1.1.1.b.4.1.1.1.- |.L.&+$.'+D.,+                            ",
"                        ,+$.x >+,+e+u.<.b.1.1.1.j+_+b.1 t s.:+e+c.x N.,+                            ",
"                        &+Q.6+'+a.x J.b.1.b.b.i.b+D 8 T 9 s.x.x $.a.K.$.O.                          ",
"                        $.O.Q.>+W..+q.b.1.1.b.g.=.I.h G.p.(+Z.e+O.N.K.$.$.                          ",
"                        ,+&+x $.D.x o.1.b.b.^+q =.E E :.o s.].K./.>+e+c.$.                          ",
"                        ,+$.'+>+>+I J.1.1.1.2.r 0+S h.h.5+s.].W.,+a.K.,+O.                          ",
"                        a.e+Z.:+>+6 I b.b.b.N y : j.@.{.$+|.I W.$.x W.c.                            ",
"                      c+Z.x e+x ,+N.x 1.b.1.N } 0 0.S./+o |.'+>+O.'+>+,+                            ",
"                          $.O.x >+$.6 b.1.b.Z {+h '.[ m.). +N.N.I I $.$.                            ",
"                          &+$.W.'+>+/.@+1+2.{ -.-.f+C.-.;.B.,+&+'+.+].                              ",
"                            &+e+I 6 /.u % B -.-.5.C.f+C.< &.D.'+W.$.x r.                            ",
"                            x.x &+e+w.*.7.8+-.C.-.R -.C.< |.o.e+O.,+                                ",
"                          e.)+D./.L u.#+7.a -.-.-.g 5.C.< d+.+Q.$.                                  ",
"                                !.I _.x.z %.++5.-.7 f+C.< B.$.].:+                                  ",
"                                J.P.r.u.N.3 A 4 ! s @ 4 5.&.$.x                                     ",
"                                  P.P.u.N.' $ . # c . . 4+F                                         ",
"                                  f     _ . . . >.!+. . 4+F                                         ",
"                                        . . . . .   . . 4+F                                         ",
"                                                                                                    "};
