/* XPM */
static char * right_arr_exp3_xpm[] = {
"144 25 256 2",
"  	c None",
". 	c #020202",
"+ 	c #ACAB02",
"@ 	c #B32E2E",
"# 	c #483B23",
"$ 	c #6E6E02",
"% 	c #AF5E21",
"& 	c #83A97F",
"* 	c #ABFEA8",
"= 	c #AE6A3E",
"- 	c #9D9A04",
"; 	c #DEAEC2",
"> 	c #F66D6D",
", 	c #5A6E8A",
"' 	c #A5B2FB",
") 	c #AD7BA7",
"! 	c #8A312E",
"~ 	c #ADDDA5",
"{ 	c #765E1A",
"] 	c #923E42",
"^ 	c #453621",
"/ 	c #C0B616",
"( 	c #DEDE02",
"_ 	c #AF9BD4",
": 	c #A6962E",
"< 	c #464602",
"[ 	c #CEFDCC",
"} 	c #E4D806",
"| 	c #A1AB86",
"1 	c #938607",
"2 	c #EE6C6C",
"3 	c #E9B9CD",
"4 	c #3C321E",
"5 	c #96C6B6",
"6 	c #ACBBFE",
"7 	c #AA8A66",
"8 	c #F68383",
"9 	c #777676",
"0 	c #B2AA2E",
"a 	c #80928C",
"b 	c #7B663E",
"c 	c #CFCD02",
"d 	c #DA4646",
"e 	c #CA5E22",
"f 	c #BD86B6",
"g 	c #D7CA97",
"h 	c #5B4A2C",
"i 	c #9B6D90",
"j 	c #AEC295",
"k 	c #DECEFA",
"l 	c #8E7606",
"m 	c #9E8A16",
"n 	c #546E50",
"o 	c #FCF5B0",
"p 	c #AA9A17",
"q 	c #AFA984",
"r 	c #5A523E",
"s 	c #778785",
"t 	c #E75252",
"u 	c #AE96A6",
"v 	c #D6EBCD",
"w 	c #A2CFD2",
"x 	c #EA7373",
"y 	c #9B9BD3",
"z 	c #A6769E",
"A 	c #F98C8C",
"B 	c #C98FC2",
"C 	c #AF8F8D",
"D 	c #D1C99E",
"E 	c #B6BC90",
"F 	c #BE3232",
"G 	c #C6CCF8",
"H 	c #FECE9E",
"I 	c #90C5B5",
"J 	c #6C644A",
"K 	c #C6AF7A",
"L 	c #9A665A",
"M 	c #8A9492",
"N 	c #A28E36",
"O 	c #BBBB02",
"P 	c #A26242",
"Q 	c #8CA69E",
"R 	c #BE6C20",
"S 	c #633B25",
"T 	c #E45A5A",
"U 	c #C8A08F",
"V 	c #5A7252",
"W 	c #E0D09E",
"X 	c #DAEEEE",
"Y 	c #838483",
"Z 	c #70541E",
"` 	c #924A56",
" .	c #DD9DD1",
"..	c #9E6226",
"+.	c #FB9595",
"@.	c #EE7272",
"#.	c #DC98B5",
"$.	c #CF4141",
"%.	c #9BCBC2",
"&.	c #A47A96",
"*.	c #76966E",
"=.	c #A49B87",
"-.	c #8E7E2A",
";.	c #C2A2FE",
">.	c #C3AAF3",
",.	c #465A42",
"'.	c #C1DFA0",
").	c #CAC296",
"!.	c #A29A42",
"~.	c #AD996D",
"{.	c #9EA6A8",
"].	c #8A6282",
"^.	c #F5F502",
"/.	c #8A8C8C",
"(.	c #A27A59",
"_.	c #7C785B",
":.	c #B6A642",
"<.	c #9D724A",
"[.	c #8A4236",
"}.	c #8DA2A9",
"|.	c #CA3838",
"1.	c #D17423",
"2.	c #C5661E",
"3.	c #BBAA7C",
"4.	c #F75F5F",
"5.	c #C6E2DA",
"6.	c #523E2A",
"7.	c #856942",
"8.	c #806064",
"9.	c #B2DDD9",
"0.	c #E2AAC2",
"a.	c #E2F6E8",
"b.	c #706142",
"c.	c #CDA998",
"d.	c #79797C",
"e.	c #DAD2EE",
"f.	c #896E41",
"g.	c #BFAF9D",
"h.	c #6EAEAE",
"i.	c #1A1A02",
"j.	c #EAAEE2",
"k.	c #645A3F",
"l.	c #D9CFBA",
"m.	c #78726E",
"n.	c #C2A280",
"o.	c #9D9E9D",
"p.	c #B682AE",
"q.	c #C2EA96",
"r.	c #9A8CB2",
"s.	c #F4E0D2",
"t.	c #D68416",
"u.	c #FB5353",
"v.	c #724222",
"w.	c #F57676",
"x.	c #988D87",
"y.	c #A29A52",
"z.	c #C0B489",
"A.	c #FC9E9E",
"B.	c #EE8A8A",
"C.	c #9E581A",
"D.	c #FEDCB8",
"E.	c #53452A",
"F.	c #928762",
"G.	c #42563E",
"H.	c #F6EEC2",
"I.	c #ADA077",
"J.	c #96BB85",
"K.	c #6C6A69",
"L.	c #897C5C",
"M.	c #F44848",
"N.	c #F8F5EF",
"O.	c #8E5839",
"P.	c #D8D802",
"Q.	c #EEE3E3",
"R.	c #7AB6B6",
"S.	c #817E81",
"T.	c #BACECA",
"U.	c #656460",
"V.	c #AA8A9A",
"W.	c #8E96BA",
"X.	c #B29A8A",
"Y.	c #99B6B6",
"Z.	c #4E5E76",
"`.	c #9F8B6B",
" +	c #C09CD2",
".+	c #BAA671",
"++	c #5E4F31",
"@+	c #CD97AD",
"#+	c #6A492F",
"$+	c #9EC696",
"%+	c #BAE6B2",
"&+	c #7A6E4F",
"*+	c #FEAAAB",
"=+	c #927647",
"-+	c #5E7656",
";+	c #B9FEB6",
">+	c #D1B59A",
",+	c #A0A072",
"'+	c #82523E",
")+	c #E6DE96",
"!+	c #E16464",
"~+	c #8E82A6",
"{+	c #9E5E62",
"]+	c #D8504B",
"^+	c #BAA6DE",
"/+	c #B4B402",
"(+	c #FDB5C1",
"_+	c #7CA27A",
":+	c #FEC9CA",
"<+	c #A05040",
"[+	c #63563A",
"}+	c #A6C2C2",
"|+	c #B65A4A",
"1+	c #D2DAFE",
"2+	c #CA7E46",
"3+	c #E3E2FA",
"4+	c #C8BC8D",
"5+	c #544C37",
"6+	c #E7D0C5",
"7+	c #C3C302",
"8+	c #9C3032",
"9+	c #6C5735",
"0+	c #8E827C",
"a+	c #969276",
"b+	c #EE6262",
"c+	c #959493",
"d+	c #E64848",
"e+	c #F6AECE",
"f+	c #C67E1E",
"g+	c #8A7242",
"h+	c #AEDACA",
"i+	c #6E84A0",
"j+	c #BE8464",
"k+	c #E8E802",
"l+	c #707070",
"m+	c #A29671",
"n+	c #77603B",
"o+	c #B6A271",
"p+	c #8C566A",
"q+	c #F4FEF4",
"r+	c #665232",
"s+	c #DF7222",
"t+	c #6A7E9E",
"u+	c #86A2A2",
"v+	c #623E4A",
"w+	c #C6AEBA",
"x+	c #D33939",
"y+	c #D2E6BE",
"z+	c #060606",
"A+	c #927B4A",
"B+	c #928EA2",
"C+	c #D196CA",
"D+	c #ADCB93",
"E+	c #F67E7E",
"F+	c #8AB9BE",
"G+	c #82A6C2",
"      r+r+++h E.E.# ^ 4 4 4 4 # # # # # # # # # # # # # # # ^ ^ 4 # 6.                                                                                                            .                   # ^ 4 ^ # # # # # # # # # # # # # # # ^ 4 4 4 ^ # E.E.E.h r+r+                        T ]+",
"    n+n+9+9+9+++++h h E.E.E.h h h h ++h h h h h h h h h h E.E.E.# E.E.#                                                                                                           .               # E.E.# E.E.E.E.h h h h h h h h h ++++h h h E.E.E.E.h h ++r+9+9+n+n+                      E+T ",
"  n+b n+n+n+9+r+9+9+9+9+9+r+r+r+r+r+r+r+r+r+r+9+9+9+n+n+[+r+9+9+9+h E.h h                                                               ~ $+%+~                                   .             ++h E.h r+9+9+r+r+n+n+n+9+9+[+r+r+r+r+r+r+r+r+r+9+9+9+9+9+9+[+n+n+n+b b                   d++.!+",
"g+g+=+=+g+g+g+f.g+g+g+g+g+g+g+g+g+g+g+g+g+g+g+g+g+g+g+f.g+g+g+g+g+g+g+g+f.f.b                                                           & n ,.J.%+D+                              .           7.f.f.g+g+g+g+g+g+g+g+f.g+g+g+g+g+g+g+g+g+g+g+g+g+g+g+g+g+g+f.g+g+g+=+=+g+f.7.              d+A.!+",
"f.g+g+g+g+g+g+g+g+g+g+g+A+O.= <.N : p -.A+7.P `.A+g+g+g+g+g+g+g+=+A+g+g+=+g+7.                                                          & n G.V _+J.,+L.                          .           g+=+g+g+=+=+g+g+g+g+g+g+g+g+g+g+=+(.7 ~.7 (.=+g+g+g+g+g+g+g+g+g+g+g+g+g+g+g+                  A.!+",
"                          L F ]+t.7+P.l f+$.|.n.g.                                                                                      & V   ,.n ..<.`.                          .                                               :+N.:+A.                                          u.      A.T ",
"                        .+~.#+e _+/ 7+!.~.2+! I.b.                                                                                      & -+    O.= g.x.D                       . . .                                             *+(+*+                                        $.> u.      A.d+",
"                        .+~.Y h.R.J.7+E ).| F.o+k.                              @ @                                                     *.n     R 2.O.X.c.                    .       .                                                               *                       $.E+E+M.    +.x F ",
"                        .+F.S.R.5.E 0 l.Q.| q .+k.                            @ x+x+@                                                   &       s+s+% C.=                     .       .                                                             * [ ;+*                 |.8 +.d+    !+*+$.  ",
"                        3.L.B+Q T.| y.D l.,+j+3.b.                          x+d 2 > $.@                                                       / s+R } t.2.                    .       .                                                             ;+q+a.*             @ F 2 (+!+$.t w.A.T @   ",
"                        o+F.m+3.z.I..+D 3.L.<.K J                           t A *+:+A.]+                                                    + f+1.c P.+ 2.                    .       .                                       6 '                   * [ ;+*             F d+A.:+A.*+*+A t       ",
"                        .+&+&+W 4+I.z.I.~.`.&+.+&+                        b+A.8 w.A.B.A.]+                                                  1 1.1 7+^./+C.2.                    . . .                                       ' G G '                   * ;+              @ x+w.A.t d ]+d         ",
"                        .+b._.g I.I.m+I.a+a+&+3.&+[+                    t A 2 $.b++.$.@.A t                                                 C.v.- + k+^.p                                                                   ' 3+N.6                                       F d++.8 |.F           ",
"                        3.b.<+q I.4+g 3.F.&+#+3.L.[+                  F d+4.x+F 2 +.x+d 4.4.u.                6.h _..+D.H                   p S m 1 O P.^./+                                                                6 G G '                                           t A.b+            ",
"                        .+'+|.O.F.I.I.3.`.J ! j+L.[+                          |.T *+d+      M.                6.6.J >+D.s.6+e.'           k+^.m S { - c c O                                                     '.'.'.      W.y ' y           >.;.;.                            t > d+          ",
"                      ~.n.8+` p+8._.&+J r v+8+x+g+[+                            d 8 8                       6.6.^ ++m+N.N.6+s.1+6         k+^.^.p S Z - + O 6+                                                D+'.y+'.j Y     S.  Y 9 S./.Y r._ 3+k >.                            x+F           ",
"                      I.]+` p.C+C+@+8.&.j.) i ] <+k.                              d +.+.                    6.6.^ # L.z.6+6+Q.3+6         7+( k+P.p #+Z + :.g.>+                                              q.y+N.v j o.Y Y Y 9 Y /./././._ ^+3+e._                                           ",
"                      |+! p+C+ . . .) f C+ .f {+! [.                                x+x *++.E+E+w.b+        6.  6.5+&+g ).3.=.q o.        O O k+k+c ( /       m+~.(.            *                         9 Y D+'.v '.j c+c+o.o.{.}.M S.d./.c+^+^+_ u S.                                        ",
"                      <+`.F.i B B f ].B  .B z `.m+k.                                  @ $.@.B.B.8 b+T       6.  6.r b.o+4+4+3.z.z.        /+O ( c 7+P.^.          9+7.(.      ;+[ ;+              (+#.#.V.S.Y | j D+j M /.c+/.Y.9.w w Y.Y Y B+B+r.~+9 U.l+K.K.      o o o                       ",
"                      o+F.k.&.) p.B z  .f z ) &+~.k.                                                        6.  6.k.a+F.q z.q 3.W 4+      /+/+k+O + c P.              n+L.}.  [ q+[             @+0.s.; #.x.o.S.Y Y c+c+c+/.Y 5 w X w F+l+Y d.9 U.l+l+l+l+l+9 K.l+)+o N.o o                     ",
"                      .+L.[+  B B p.  z ) B i g+~.b.                                                        6.6.# r F.m+=.m+=.I.4+z.      ( k+c - + O +                   t+%.;+[ ;+            #.3 Q.3 @+x.Y Y Y Y o.o.Y /.a F+h+X 9.5 o.Y d.Y c+c+0+0+S.l+l+9 Y 4+H.N.H.o                     ",
"                      3.g+b.  z+z+z+  z+z+z+z+  ~.J [+                                                      6.6.# ^ J 0+=.).).3.I.I.      i.< $   . .                     Z.i+G+F+%.             . .e+j.C m.l+l+9 a s s l+K.U.Q I h+9.w o.c+l+U.S.c.c.U X.c+/.K.K.q ).g g                       ",
"                      K &+k.  z+z+z+    z+z+    I.&+[+                                                      6.^ ^ E.5+L.3.I.I.m+L.      . . .     . . .                       Z., i+Y         d.S.u @+w+c+c+o.Y a I I I a 9 l+d.u+I }+/.9 Y S.m.C c.6+6+c.x.9 S.x.m.a+,+=.9                     ",
"                      K b.    z+z+z+    z+z+    3.&+[+                                                        E.    5+5+J &+&+_.          . . .   . . . .                             9 9 9 Y Y Y /./.o.u Y c+{.5 h+X 9.w M Y Y l+l+9 }.l+l+l+d.C c.Q.6+U 0+l+K.K.U.U.U.U.U.U.U.                ",
"                      .+b.    . . .     . .     m+b 5+                                                                                      . .                                                 9 9               5.N.5.I M /./././.Y M Y 9     =.U >+c.U                                       "};
