/* XPM */
static char * right_arr_xpm[] = {
"144 45 2 1",
" 	c None",
".	c #FFFFFF",
"                 ..                                                                                     ..                                ......",
"              ....                                                                                      ...                              .......",
" .           ....                                                                                       ....                           .........",
" ..     .......                                                                                         ....                          ........  ",
" .............                                                                                         .....                         ........   ",
"  ...........                                                                                          .....                         .......    ",
"  ...........                                                                                         .....                         .......     ",
"  ..........                                                                                         ......                        .......      ",
"   ........                                                                                         ......                        .......       ",
"   ........                                                                                        ......                        ........       ",
"   ..........                                                                                    ........                       ........        ",
"   ...........                                                                                 .........                      .........         ",
"   .............                                                                              .........                      .........          ",
"   ..............                                                                           ..........                      ..........          ",
"   ................                                                                       ...........                      ..........           ",
"   ..................                                                                   ............                     ...........            ",
"   ....................                                                               .............                     ..........              ",
"   ......................                                                           ..............                    ...........               ",
"   ...  ...................                                                       ...............                    ...........                ",
"   ...  ......................                                                 .................                   ............                 ",
"   ..    ........................                                           ..................                    ............                  ",
"   ..     ..........................                                     ....................                   .............                   ",
"   ..     ..............................                            .......................                   ..............                    ",
"   ..       .................................                  ...........................                  ...............                     ",
"   ..       ............................................................................                 ................                       ",
"   ..        ..........................................................................                .................                        ",
"   ..         .......................................................................               ..................                          ",
"   ..          ...................................................................               ....................                           ",
"   ..           ................................................................              .....................                             ",
"   ..            ............................................................              ......................                               ",
"   ..             .........................................................             ........................                                ",
"   .               ......................................................            .........................                                  ",
"                    ......................................................      ............................                                    ",
"                      ....................................................................................                                      ",
"                       .................................................................................                                        ",
"                        .............................................................................                                           ",
"                          ........................................................................                                              ",
"                            ....................................................................                                                ",
"                              ...............................................................                                                   ",
"                                ..........................................................                                                      ",
"                                  .....................................................                                                         ",
"                                      .............................................                                                             ",
"                                          ......................................                                                                ",
"                                                ...........................                                                                     ",
"                                                      .............                                                                             "};
