/* XPM */
static char * right_arr_xpm[] = {
"144 45 3 1",
" 	c None",
".	c #FFFFFF",
"+	c #FBFCFD",
"                 ...                                                                                    ..........                              ",
".             ....                                                                                      ...........                             ",
"..          .....                                                                                       ...........                             ",
" ....  ........                                                                                         ...........                             ",
" ..............                                                                                        ............                             ",
" .............                                                                                         .............                            ",
"  ...........                                                                                         ..............                            ",
"  ..........                                                                                         ...............                            ",
"   ........                                                                                         .................                           ",
"   ........                                                                                       ...................                           ",
"   ..........                                                                                    ....................                           ",
"   ............                                                                                ......................                           ",
"   .............                                                                              .......................                           ",
"   ...............                                                                          ..........................                          ",
"   ................                                                                       ............................                          ",
"   ..................                                                                   ..............................                          ",
"   ....................                                                               .................................                         ",
"   .......................                                                          ...................................                         ",
"   ...  ....................                                                     ......................................                         ",
"   ...  .......................                                               .........................................                         ",
"   ...   ........................                                          .............................................                        ",
"   ...    ...........................                                   ................................................                        ",
"   ..     ...............................                          .....................................................                        ",
"   ..      .....................................            ............................................................                        ",
"   ..       .............................................................................................................                       ",
"   ..        ...........................................................................................................                        ",
"   ..         ........................................................................................................                          ",
"   ..          ......................................................................................................                           ",
"   ..          ....................................................................................................                             ",
"   ..           ..................................................................................................                              ",
"   ..             ..............................................................................................                                ",
"   .+              ...........................................................................................                                  ",
"                    ........................................................................................                                    ",
"                     .....................................................................................                                      ",
"                      ..................................................................................                                        ",
"                        .............................................................................                                           ",
"                          .........................................................................                                             ",
"                           .....................................................................                                                ",
"                             ................................................................                                                   ",
"                                ...........................................................                                                     ",
"                                  ......................................................                                                        ",
"                                     ................................................                                                           ",
"                                         ........................................                                                               ",
"                                               .............................                                                                    ",
"                                                    ..................                                                                          "};
