/* XPM */
static char * SaveChar_trans_xpm[] = {
"50 32 288 2",
"  	c None",
". 	c #BEBEBE",
"+ 	c #C4C4C4",
"@ 	c #CCCCCC",
"# 	c #BABABA",
"$ 	c #9E9E9E",
"% 	c #606060",
"& 	c #8C8C8C",
"* 	c #575757",
"= 	c #D8D8D8",
"- 	c #E9E9E9",
"; 	c #B7B6B6",
"> 	c #A5A4A4",
", 	c #F6F6F6",
"' 	c #444444",
") 	c #535353",
"! 	c #818181",
"~ 	c #AFAFAF",
"{ 	c #959595",
"] 	c #404040",
"^ 	c #9B9A9A",
"/ 	c #828080",
"( 	c #F2F2F2",
"_ 	c #474747",
": 	c #383838",
"< 	c #B7B7B7",
"[ 	c #A6A5A5",
"} 	c #B9B9B9",
"| 	c #090909",
"1 	c #D1D1D1",
"2 	c #E2E2E2",
"3 	c #E5E5E5",
"4 	c #E0DFDF",
"5 	c #CACACA",
"6 	c #585858",
"7 	c #555555",
"8 	c #7E7E7E",
"9 	c #545353",
"0 	c #3D3D3D",
"a 	c #A5A5A5",
"b 	c #A6A6A6",
"c 	c #A8A8A8",
"d 	c #A9A9A9",
"e 	c #ABABAB",
"f 	c #ACACAC",
"g 	c #AEAEAE",
"h 	c #ADADAD",
"i 	c #B1B1B1",
"j 	c #B8B8B8",
"k 	c #D4D4D4",
"l 	c #846827",
"m 	c #8E8E8E",
"n 	c #060606",
"o 	c #000000",
"p 	c #0E0E0E",
"q 	c #9F9F9F",
"r 	c #A2A2A2",
"s 	c #B2B2B2",
"t 	c #AAAAAA",
"u 	c #A0A0A0",
"v 	c #939393",
"w 	c #8C6B1E",
"x 	c #9D9D9D",
"y 	c #A7A7A7",
"z 	c #919191",
"A 	c #2A2924",
"B 	c #706248",
"C 	c #4E3A12",
"D 	c #4C3812",
"E 	c #BFBFBF",
"F 	c #D6D6D6",
"G 	c #D5D5D5",
"H 	c #898989",
"I 	c #515151",
"J 	c #1A1A1A",
"K 	c #504C46",
"L 	c #7C6B49",
"M 	c #BAAF9A",
"N 	c #7F7052",
"O 	c #C1C1C1",
"P 	c #8F7028",
"Q 	c #8F8F8F",
"R 	c #989897",
"S 	c #6B5D41",
"T 	c #C5BDAA",
"U 	c #EFEBE1",
"V 	c #C0B6A1",
"W 	c #594623",
"X 	c #9D9C9C",
"Y 	c #A3A2A2",
"Z 	c #8E7333",
"` 	c #9B9B9B",
" .	c #868583",
"..	c #6C5C3D",
"+.	c #F8F6F2",
"@.	c #F0EDE3",
"#.	c #E6DFCF",
"$.	c #645433",
"%.	c #9F9E9E",
"&.	c #A4A4A4",
"*.	c #95804F",
"=.	c #777165",
"-.	c #8E7F5F",
";.	c #FAF8F5",
">.	c #F2EFE6",
",.	c #E5DECD",
"'.	c #908160",
").	c #929292",
"!.	c #989797",
"~.	c #A3A3A3",
"{.	c #998453",
"].	c #8C8576",
"^.	c #B5A78B",
"/.	c #F7F4EF",
"(.	c #F4F1EA",
"_.	c #E4DCCA",
":.	c #AE9F7E",
"<.	c #666666",
"[.	c #6F6F6F",
"}.	c #C2C2C2",
"|.	c #595959",
"1.	c #A7A6A6",
"2.	c #929191",
"3.	c #9C9B9B",
"4.	c #9C9C9C",
"5.	c #988352",
"6.	c #979797",
"7.	c #8B8373",
"8.	c #B7A98B",
"9.	c #F0EBE1",
"0.	c #F5F2EC",
"a.	c #E1D9C6",
"b.	c #AC9E7C",
"c.	c #656565",
"d.	c #858585",
"e.	c #989898",
"f.	c #7A7A7A",
"g.	c #D9D9D9",
"h.	c #B0B0B0",
"i.	c #998A68",
"j.	c #938B7B",
"k.	c #B2A17D",
"l.	c #DFD5C0",
"m.	c #EEE9DE",
"n.	c #DBD1BA",
"o.	c #A3926B",
"p.	c #616161",
"q.	c #5C5C5C",
"r.	c #7B7B7B",
"s.	c #4F4F4F",
"t.	c #C9C9C9",
"u.	c #757575",
"v.	c #BBBBBB",
"w.	c #ABE1A8",
"x.	c #A0E39C",
"y.	c #AFE0AC",
"z.	c #9A9A9A",
"A.	c #969695",
"B.	c #887F6F",
"C.	c #A89468",
"D.	c #C8B893",
"E.	c #CDBF9E",
"F.	c #BCA97D",
"G.	c #937D4A",
"H.	c #727272",
"I.	c #464646",
"J.	c #505050",
"K.	c #D0D0D0",
"L.	c #9EE39A",
"M.	c #90E68A",
"N.	c #A3E29F",
"O.	c #CBCBCB",
"P.	c #A3A097",
"Q.	c #A1A1A1",
"R.	c #8F8676",
"S.	c #9C8451",
"T.	c #AE9761",
"U.	c #A18647",
"V.	c #907127",
"W.	c #836727",
"X.	c #6D6D6D",
"Y.	c #828282",
"Z.	c #BDBDBD",
"`.	c #EC6A6A",
" +	c #F14E4E",
".+	c #EA7373",
"++	c #977F47",
"@+	c #837B6B",
"#+	c #937A43",
"$+	c #A2884A",
"%+	c #987A36",
"&+	c #8E6E23",
"*+	c #7E611E",
"=+	c #909090",
"-+	c #6A6A6A",
";+	c #BCBCBC",
">+	c #747474",
",+	c #C7C7C7",
"'+	c #9C7F3D",
")+	c #DEDEDE",
"!+	c #746D5F",
"~+	c #896F36",
"{+	c #9C803D",
"]+	c #94762F",
"^+	c #7D5F1C",
"/+	c #737373",
"(+	c #6E6E6E",
"_+	c #525252",
":+	c #D3D3D3",
"<+	c #949494",
"[+	c #969492",
"}+	c #937E4F",
"|+	c #997B37",
"1+	c #93742D",
"2+	c #7F6320",
"3+	c #939292",
"4+	c #CECECE",
"5+	c #C5C5C5",
"6+	c #83785D",
"7+	c #967933",
"8+	c #92732B",
"9+	c #8F6E23",
"0+	c #785F26",
"a+	c #DADADA",
"b+	c #787878",
"c+	c #6D6B68",
"d+	c #957730",
"e+	c #92732A",
"f+	c #8F6F24",
"g+	c #5C4517",
"h+	c #AAA9A9",
"i+	c #ABAAAA",
"j+	c #C3C3C3",
"k+	c #848484",
"l+	c #7D7C79",
"m+	c #846728",
"n+	c #917229",
"o+	c #816421",
"p+	c #949292",
"q+	c #939191",
"r+	c #999898",
"s+	c #C8C8C8",
"t+	c #71706F",
"u+	c #68501E",
"v+	c #7E6323",
"w+	c #6A521E",
"x+	c #767676",
"y+	c #868686",
"z+	c #CDCDCD",
"A+	c #696969",
"B+	c #2C2C2C",
"C+	c #454545",
"D+	c #CFCFCF",
"E+	c #808080",
"F+	c #686868",
"G+	c #5F5C51",
"H+	c #6B6A63",
"I+	c #B5B5B5",
"J+	c #7F7F7F",
"K+	c #6C6C6C",
"L+	c #E2D7A6",
"M+	c #FFF8DB",
"N+	c #957735",
"O+	c #6B6B6B",
"P+	c #717171",
"Q+	c #A2A1A1",
"R+	c #646464",
"S+	c #FFFFFF",
"T+	c #9E8F72",
"U+	c #3C3C3C",
"V+	c #1B1B1B",
"W+	c #2E2E2E",
"X+	c #A19B7E",
"Y+	c #E8E5D8",
"Z+	c #E1D498",
"`+	c #A39E85",
" @	c #777777",
".@	c #636363",
"+@	c #8A8A8A",
"@@	c #D1C693",
"#@	c #E4CE6B",
"$@	c #8D8048",
"%@	c #E5CD63",
"&@	c #B2AB8C",
"*@	c #BBB7A5",
"=@	c #CCC297",
"-@	c #9B9682",
";@	c #AAA489",
"                                                                      . . . . . . . . . . + @ @ @ # ",
"      $ % & *                                                         = = = = = = = = = = - ; > , @ ",
"  '   ) ! ~ { ]                                                       = = = = = = = = = = - ^ / ( @ ",
"  _   : < [ } |                                                       1 1 1 1 1 1 1 1 1 1 2 3 4 , 5 ",
"  6   7 8 9 ! 0                                                       ~ a b c d e f g g h i j i k . ",
"  l   m n o p                                                         ~ q r c d g ~ s s i t u v 1 . ",
"  w     o o o                                                         ~ x q a y e f ~ ~ h b x z 1 . ",
"  w     | o A B C D                                                   ~ g g ~ ~ ~ ~ ~ ~ ~ E F G = . ",
"  w   H I J K L M N                                                   ~ ~ ~ ~ ~ ~ ~ ~ ~ ~ O = = = . ",
"  P r Q q R S T U V W                                                 ~ t X X X X X X Y ~ O = = = . ",
"  Z z v `  ...+.@.#.$.                                                ~ t %.%.%.%.%.%.&.~ O = = = . ",
"j *.! H z =.-.;.>.,.'.                            ).) H               ~ c !.!.!.!.!.!.q ~ O = = = . ",
"~.{.r d ~.].^./.(._.:.        <.7 7 7 7 7 7 [.    [.}.Q |.b           ~ 1.2.2.2.2.2.2.3.~ O = = = . ",
"4.5.y x 6.7.8.9.0.a.b.      c.v d.d.d.d.d.d.|.    e.f.g.h.6 <.        ~ ~ ~ ~ ~ ~ ~ ~ ~ ~ O = = = . ",
"6.i.~ a ~.j.k.l.m.n.o.        p.q.q.q.q.q.q.r.        s.t.( u.v.      ~ ~ ~ ~ ~ ~ ~ ~ ~ ~ O w.x.y.. ",
"z.A.x &.q B.C.D.E.F.G.      H.u.7 7 7 7 7 7 %       4.I.O 2 J.        t.t.t.t.t.t.t.t.t.t.K.L.M.N.. ",
"O.P.Q.q x R.S.T.U.V.W.      8 g }.}.}.}.}.}.X.    Y.7 . Z.% h         = = = = = = = = = = = `. +.+. ",
"  ++~ g ` @+#+$+%+&+*+      i v =+=+=+=+=+=+a     -+;+$ >+            # # } j j j j # # # ,+= = = . ",
"  '+)+d e !+~+{+]+&+^+                              /+(+              ~ ~ ` _+_+_+p.&.~ ~ O = = = . ",
"  '+:+<+&.[+}+|+1+&+2+                                                ~ ~ q f.f.f.! a 3+b O = = = . ",
"  '+4+<+5+t 6+7+8+9+0+                                                ~ ~ ~ ~ ~ ~ ~ ~ ~ ~ O = = = . ",
"  '+O.v a+b+c+d+e+f+g+                                                ~ ~ ~ c c h+e i+c ~ O = = = . ",
"  '+j+! K.k+l+m+n+o+                                                  ~ ~ g p+q+r+$ X q+~ O = = = . ",
"  '+s+).g.! t+u+v+w+                                                  ~ ~ g p+q+r+$ X q+~ O = = = . ",
"  '+j+! K.x+!                                                         ~ ~ g p+q+r+$ X q+~ O 1 k = . ",
"  '+1 y+z+x+A+                                                        ~ ~ g p+q+r+$ X q+~ O B+C+D+. ",
"  '+@ E+s+H.F+                                                        ~ ~ g p+q+r+$ X q+~ O G+H+I+. ",
"  '+K.J+O K+-+                                                        ~ ~ g p+q+r+$ X q+~ <+L+M+) . ",
"  N+j+u.O+[.P+                                                        ~ ~ g r+!.X Q+u !.~ R+O.S+F+g ",
"  T+(+U+V+W+u.                                                        ~ ~ ~ ~ ~ ~ ~ ~ ~ ~ X+Y+S+Z+`+",
"  u f.>+ @.@+@                                                        ~ ~ ~ ~ ~ ~ ~ ~ ~ ~ @@#@$@%@&@",
"                                                                      ~ ~ ~ ~ ~ ~ ~ ~ ~ ~ *@=@-@;@e."};
