/* XPM */
static char * SaveChar_trans_50_xpm[] = {
"50 32 256 2",
"  	c None",
". 	c #020202",
"+ 	c #C6C6C6",
"@ 	c #076E1A",
"# 	c #376E16",
"$ 	c #025A16",
"% 	c #0248FE",
"& 	c #021F98",
"* 	c #1A5212",
"= 	c #8E720E",
"- 	c #CACACA",
"; 	c #026FFE",
"> 	c #2E2E2E",
", 	c #DCA906",
"' 	c #02167F",
") 	c #023EF9",
"! 	c #7D4E0E",
"~ 	c #A68612",
"{ 	c #02136A",
"] 	c #B6CEEA",
"^ 	c #2B2606",
"/ 	c #1A56AA",
"( 	c #227AF2",
"_ 	c #8E8E66",
": 	c #AE9646",
"< 	c #363E0E",
"[ 	c #6E7232",
"} 	c #2E2202",
"| 	c #DED29E",
"1 	c #041466",
"2 	c #124EBE",
"3 	c #261E0A",
"4 	c #DADADA",
"5 	c #071862",
"6 	c #B26A02",
"7 	c #365614",
"8 	c #9A9E76",
"9 	c #0E76F2",
"0 	c #1E66BE",
"a 	c #CAA56A",
"b 	c #5C521E",
"c 	c #025EFE",
"d 	c #E8E8E8",
"e 	c #857543",
"f 	c #191818",
"g 	c #0229BA",
"h 	c #1E5ECE",
"i 	c #EEC20E",
"j 	c #024AFA",
"k 	c #C29246",
"l 	c #5272AA",
"m 	c #F6EEDA",
"n 	c #BAB692",
"o 	c #BE8A38",
"p 	c #826A2A",
"q 	c #06721A",
"r 	c #323232",
"s 	c #4E4E4E",
"t 	c #F2F2F2",
"u 	c #BE822A",
"v 	c #767676",
"w 	c #BEB276",
"x 	c #5A5A5A",
"y 	c #12120E",
"z 	c #0E427E",
"A 	c #0E8AFE",
"B 	c #E2B008",
"C 	c #06761A",
"D 	c #1E96FE",
"E 	c #96764A",
"F 	c #0D0E10",
"G 	c #122266",
"H 	c #826606",
"I 	c #0256FA",
"J 	c #166A1A",
"K 	c #424242",
"L 	c #022DCD",
"M 	c #5E5632",
"N 	c #D2AE26",
"O 	c #C0C0C0",
"P 	c #5A762E",
"Q 	c #0E264A",
"R 	c #06287E",
"S 	c #F6F6F6",
"T 	c #034EFE",
"U 	c #067A1A",
"V 	c #B46E04",
"W 	c #0232A6",
"X 	c #4A3E0A",
"Y 	c #C1BD98",
"Z 	c #828282",
"` 	c #625E12",
" .	c #1A7C1E",
"..	c #0682FE",
"+.	c #0B236F",
"@.	c #D0B254",
"#.	c #061A56",
"$.	c #E2B608",
"%.	c #165E12",
"&.	c #4A6212",
"*.	c #2E822A",
"=.	c #BABAB7",
"-.	c #A2820A",
";.	c #0232DA",
">.	c #926E36",
",.	c #9A969A",
"'.	c #D4BA91",
").	c #9E6A06",
"!.	c #FEFAEA",
"~.	c #0864DE",
"{.	c #B2A48E",
"].	c #090A0D",
"^.	c #1878FE",
"/.	c #362E22",
"(.	c #4E3E02",
"_.	c #6A6A6A",
":.	c #06227A",
"<.	c #0262FE",
"[.	c #025AFE",
"}.	c #056517",
"|.	c #262626",
"1.	c #9A9A9A",
"2.	c #067E1E",
"3.	c #464E0E",
"4.	c #685C26",
"5.	c #7A5E1E",
"6.	c #D6CEBA",
"7.	c #878786",
"8.	c #66662E",
"9.	c #06122E",
"0.	c #022CAC",
"a.	c #222222",
"b.	c #D2D2D2",
"c.	c #067AFE",
"d.	c #EABA0A",
"e.	c #72660A",
"f.	c #92928F",
"g.	c #167E1E",
"h.	c #A1A1A0",
"i.	c #B68E1E",
"j.	c #4C380E",
"k.	c #125212",
"l.	c #2E9EFE",
"m.	c #4A822E",
"n.	c #0260FA",
"o.	c #A67A16",
"p.	c #3A5612",
"q.	c #766A0E",
"r.	c #362206",
"s.	c #2088FE",
"t.	c #56620A",
"u.	c #807236",
"v.	c #2C5A12",
"w.	c #66624A",
"x.	c #046AFE",
"y.	c #0A1E6A",
"z.	c #626262",
"A.	c #AEAEAE",
"B.	c #321E06",
"C.	c #06821E",
"D.	c #0226B0",
"E.	c #023ACA",
"F.	c #BEAE95",
"G.	c #B6740F",
"H.	c #423A0B",
"I.	c #3A3A39",
"J.	c #0256FE",
"K.	c #060E2A",
"L.	c #1666CA",
"M.	c #3E5212",
"N.	c #5E4A06",
"O.	c #021E7E",
"P.	c #06861E",
"Q.	c #1E4E12",
"R.	c #B6B6B6",
"S.	c #7A520E",
"T.	c #0C76FE",
"U.	c #0235E6",
"V.	c #FAFAF9",
"W.	c #746226",
"X.	c #021A70",
"Y.	c #021E8D",
"Z.	c #C6C2AE",
"`.	c #0468F4",
" +	c #FEFEFE",
".+	c #AA9E62",
"++	c #0446F4",
"@+	c #495B17",
"#+	c #0232C2",
"$+	c #EEBE08",
"%+	c #866622",
"&+	c #564A22",
"*+	c #6E7E36",
"=+	c #9E824A",
"-+	c #568232",
";+	c #0E5E16",
">+	c #765E1A",
",+	c #746830",
"'+	c #021A83",
")+	c #CEC2A6",
"!+	c #2A2A2A",
"~+	c #1A8AFE",
"{+	c #122A7A",
"]+	c #B2821A",
"^+	c #128222",
"/+	c #BA9E5A",
"(+	c #035E16",
"_+	c #A6A6A6",
":+	c #484614",
"<+	c #AA7A06",
"[+	c #EFEEEE",
"}+	c #1E1E1E",
"|+	c #CCCED0",
"1+	c #0252FE",
"2+	c #5A420E",
"3+	c #0870FE",
"4+	c #928A7A",
"5+	c #274911",
"6+	c #0646D6",
"7+	c #4A3E22",
"8+	c #62622A",
"9+	c #466A2A",
"0+	c #021574",
"a+	c #B4B2AE",
"b+	c #545453",
"c+	c #E2E2E2",
"d+	c #0252F8",
"e+	c #BE924A",
"f+	c #6E6A2A",
"g+	c #EDC20A",
"h+	c #C6B28C",
"i+	c #367226",
"j+	c #107EFE",
"k+	c #1266E2",
"l+	c #2A8AFA",
"m+	c #0A5E16",
"n+	c #EABE22",
"o+	c #021242",
"p+	c #B67A1A",
"q+	c #B28622",
"r+	c #12761A",
"s+	c #0E56EA",
"t+	c #AA6A02",
"u+	c #127AFE",
"v+	c #C29226",
"w+	c #3AA6FE",
"x+	c #0238F0",
"y+	c #0E8622",
"z+	c #061A66",
"A+	c #7A7A7A",
"B+	c #5E5E60",
"C+	c #4A4A4A",
"D+	c #0232D2",
"E+	c #0A3AA6",
"F+	c #1A8222",
"G+	c #0266FE",
"                                                                                                    ",
"      6 6 6 6       Y                                                                               ",
"      V u G.6       Y                                                                               ",
"    V G.'.a G.      Y                             . . -  + + + + + + + +t |+ + + + + + + + + +v .   ",
"    G.e+F.{.a       Y                   A         . . -  + + + + + + +R.B+].7.c+ + + + + + + +v . . ",
"    u '.{.F.'.    Y n     D             ..w+          +  + + + + + +V._.].F f I.S  + + + + + +v   . ",
"    G.a F.h+'.    =+>.    c.l.          ; A       . . -  + + + + + +t A+b+b+B+a.b. + + + + + +v . . ",
"    6 G.k o         S.    x...          x.; ~+    . . +  + + + + + +t h.u.w ,+I.=. + + + + + +A+. . ",
"    H e.t+).        !     <.3+s.        c G+T.    . . -  + + + + + + +h+B g+-.}+7. + + + + + +v . . ",
"  $ $ m+e.v.$ $   ` S.    J.c 3+        J.c x.^.  . . +  + + + + + +d a+/+@.6.s B+t  + + + + +v . . ",
"  $ $ $ t.;+$ $ @ # S.    T J.G+^.      j T c 3+/ . . -  + + + + + +1.h.[+[+ +_+F f. + + + + +v . . ",
"  }.(+(+%.(+(+(+q # S.    T I <.3+(     % 1+[.x.k+Q . +  + + + + +- C+t  + + +4 |.a.O  + + + +v . . ",
"  2.@ q @ }.}.U C.# S.    T [.x.3+s.    % 1+c x.T.0 K.-  + + + + +Z 1. + + + +S Z f x  + + + +v . . ",
"  C.P.C.2.J 2.C.C.# S.    j c x.x.3+j+  ) 1+G+; `.~.z |+ + + + +d r 4  +V. + + +,.F ].S  + + +v . . ",
"P.C.P.P.C.7 P.P.C.@+S.    T J.G+; x.u+l+T 1+[.x.G+~.L.]  + + + +7.x d  + + + + +_+f ].S  + + +v . . ",
"C.P.C.C.*.:+P -+i+7 !     ++T T 1+d+s+h ++++d+T d+6+2 l  + + + +@.N Z. +V. + +S : f (.V. + +d !+. . ",
"C.P.P.P.m.b ,+f+9+7 S.    x+) x+D+E.E+  U.x+) U.#+W +.F b+_+)+n+$+$+= v S  + +m , <+, | _+h.a.. . . ",
"P.C.C.^+*+b p u.[ @+!     U.U.;.g 0.R   L x+U.L D.:.9.. . . } $+g+i $..+V. +S _ , $+g+-.. . . . . . ",
"P.P.C.r+8+M e 5.>+@+S.    g D.& Y.:.    g g D.& O.#.. . . . j., d.g+$+i.f.f.s 3 B $+B N.. . . . . . ",
"C.C.P.F+_ R.E S.W.@+!     & & Y.'++.    Y.Y.'+O.X.K.. . . . . 7+&+q+v+%+a.a.a.!+]+o.H.F F F . . . . ",
"P.P.C.F+8 =.u.p f+@+S.    ' ' '+0+      ' ' '+'+o+. . . . . K O - + + + + + + + A.z.B+x x x > . . . ",
"C.C.P.g.8.,+4.4.:+M.!     ' ' 0+        ' ' ' 1   . . . . !+O 7.f f I.+ + + + + + _+x x x x x |.. . ",
"P.C.r+v.H.H.H.H.H.3.!     0+0+z+        ' { X.    . . . . r + Z . . |.+ + + + + + A.B+B+B+x x !+. . ",
"  @ 5+H.H.j./.H.H.2+!     { z+          { { z+    . . . . r + Z . . |.+ + + + + + A.x x x x x !+. . ",
"  $ Q.H.H.H.< H.H.2+!     { G           { 5       . . . . r + Z . . |.+ + + + + + A.x x B+x x !+. . ",
"  (+k.H.H.H.5+/.H.2+!     y.            5 y.      . . . . r O Z . . |.+ + + + + + A.x x x B+B+!+. . ",
"    Q.H./.X 5+H.H.2+!     {+            +.        . . . . I.O Z . . |.+ + + + + + A.B+x x x x !+. . ",
"      } ^ }   3 } j.!                             . . . . r + Z . . |.+ + + + + + A.x x x x B+!+. . ",
"      . . .   . . B.!                             . . . . !+R.=._+_+A.+ + + + + + A.B+x x x x a.. . ",
"    . . . .   . . B.!                                                                               ",
"  . . . . .   . . B.!                                                                               ",
"                                                                                                    "};
