/* XPM */
static char * Schliessen1_50_xpm[] = {
"50 32 363 2",
"  	c None",
". 	c #000000",
"+ 	c #565400",
"@ 	c #E6E200",
"# 	c #FFFA00",
"$ 	c #ABA700",
"% 	c #1A1900",
"& 	c #212100",
"* 	c #D0CC00",
"= 	c #FCF700",
"- 	c #827F00",
"; 	c #0A0A00",
"> 	c #212000",
", 	c #D6D200",
"' 	c #F7F200",
") 	c #777400",
"! 	c #070600",
"~ 	c #2E2D00",
"{ 	c #DCD700",
"] 	c #020200",
"^ 	c #424100",
"/ 	c #E1DC00",
"( 	c #FDF800",
"_ 	c #C1BD00",
": 	c #1C1C00",
"< 	c #252400",
"[ 	c #B6B200",
"} 	c #FAF500",
"| 	c #989500",
"1 	c #0C0C00",
"2 	c #1B1B00",
"3 	c #AAA700",
"4 	c #F9F400",
"5 	c #878400",
"6 	c #201F00",
"7 	c #B9B500",
"8 	c #4C4B00",
"9 	c #E3DE00",
"0 	c #B3B000",
"a 	c #1E1D00",
"b 	c #C4C000",
"c 	c #898600",
"d 	c #0D0D00",
"e 	c #141300",
"f 	c #BCB800",
"g 	c #7A7800",
"h 	c #C5C100",
"i 	c #484600",
"j 	c #414000",
"k 	c #4B4A00",
"l 	c #DAD500",
"m 	c #EA0E0E",
"n 	c #FDE4E4",
"o 	c #EDE800",
"p 	c #E1DD00",
"q 	c #EA1010",
"r 	c #ED3232",
"s 	c #F05353",
"t 	c #F15A5A",
"u 	c #F15959",
"v 	c #F05151",
"w 	c #EC2727",
"x 	c #EA0F0F",
"y 	c #F81D1D",
"z 	c #FBADAD",
"A 	c #FFFEFE",
"B 	c #E7A2A2",
"C 	c #C12828",
"D 	c #ECE700",
"E 	c #666400",
"F 	c #EA1212",
"G 	c #EF4E4E",
"H 	c #F8B1B1",
"I 	c #FDEAEA",
"J 	c #FEF8F8",
"K 	c #FFFAFA",
"L 	c #FEF7F7",
"M 	c #FCE3E3",
"N 	c #F7A3A3",
"O 	c #ED3838",
"P 	c #EA1111",
"Q 	c #FAC4C4",
"R 	c #EC3434",
"S 	c #E33939",
"T 	c #DBC1C1",
"U 	c #B4ADAD",
"V 	c #9F4747",
"W 	c #900D0D",
"X 	c #EBE600",
"Y 	c #555400",
"Z 	c #EB1A1A",
"` 	c #F27070",
" .	c #FFFFFF",
"..	c #FFFDFD",
"+.	c #FBD7D7",
"@.	c #F05656",
"#.	c #EA1414",
"$.	c #FD2E2E",
"%.	c #FBCECE",
"&.	c #FDFAFA",
"*.	c #F19494",
"=.	c #D12121",
"-.	c #B85B5B",
";.	c #9A9393",
">.	c #8B7C7C",
",.	c #7B2525",
"'.	c #676400",
").	c #040400",
"!.	c #F59292",
"~.	c #FEEEEE",
"{.	c #F26F6F",
"].	c #ED3535",
"^.	c #F9ADAD",
"/.	c #E72323",
"(.	c #D54141",
"_.	c #CABDBD",
":.	c #BCB0B0",
"<.	c #A63C3C",
"[.	c #861111",
"}.	c #8D6565",
"|.	c #FEF900",
"1.	c #C6C200",
"2.	c #F16161",
"3.	c #FEF4F4",
"4.	c #EE3838",
"5.	c #EB1B1B",
"6.	c #E25454",
"7.	c #A91A1A",
"8.	c #9D5A5A",
"9.	c #9E9B9B",
"0.	c #927575",
"a.	c #861B1B",
"b.	c #C9C400",
"c.	c #262500",
"d.	c #EC2828",
"e.	c #FAC7C7",
"f.	c #F8AFAF",
"g.	c #EB1D1D",
"h.	c #CF1010",
"i.	c #901818",
"j.	c #8A6F6F",
"k.	c #C2BE00",
"l.	c #302F00",
"m.	c #FEF9F9",
"n.	c #FDE8E8",
"o.	c #EF4949",
"p.	c #E50E0E",
"q.	c #070700",
"r.	c #626000",
"s.	c #5F0606",
"t.	c #F7A7A7",
"u.	c #F3F3F3",
"v.	c #9F9F9F",
"w.	c #FCFCFC",
"x.	c #C2C2C2",
"y.	c #AFAFAF",
"z.	c #949494",
"A.	c #FAFAFA",
"B.	c #D3D3D3",
"C.	c #858585",
"D.	c #B0B0B0",
"E.	c #F37D7D",
"F.	c #2D0303",
"G.	c #A70A0A",
"H.	c #AA8181",
"I.	c #AEAEAE",
"J.	c #C9C9C9",
"K.	c #414141",
"L.	c #C6C6C6",
"M.	c #C3C3C3",
"N.	c #848484",
"O.	c #777777",
"P.	c #999999",
"Q.	c #B4B4B4",
"R.	c #B8B8B8",
"S.	c #E7E7E7",
"T.	c #575757",
"U.	c #BEBEBE",
"V.	c #484848",
"W.	c #DEDEDE",
"X.	c #AF6666",
"Y.	c #A10A0A",
"Z.	c #9E0909",
"`.	c #EFEB00",
" +	c #520505",
".+	c #9C0909",
"++	c #403030",
"@+	c #B3B3B3",
"#+	c #3E3E3E",
"$+	c #A3A3A3",
"%+	c #525252",
"&+	c #7A7A7A",
"*+	c #5E5E5E",
"=+	c #282828",
"-+	c #686868",
";+	c #8E8E8E",
">+	c #555555",
",+	c #4F4F4F",
"'+	c #535353",
")+	c #A9A9A9",
"!+	c #5D0F0F",
"~+	c #6C0606",
"{+	c #160101",
"]+	c #171700",
"^+	c #0A0101",
"/+	c #530505",
"(+	c #443A3A",
"_+	c #F0F0F0",
":+	c #CDCDCD",
"<+	c #3F3F3F",
"[+	c #494949",
"}+	c #4A4A4A",
"|+	c #CACACA",
"1+	c #CCCCCC",
"2+	c #444444",
"3+	c #959595",
"4+	c #2C0303",
"5+	c #540505",
"6+	c #2E0303",
"7+	c #121100",
"8+	c #A19E00",
"9+	c #101010",
"0+	c #362E2E",
"a+	c #350C0C",
"b+	c #A50A0A",
"c+	c #472525",
"d+	c #6C6C6C",
"e+	c #ACACAC",
"f+	c #E1E1E1",
"g+	c #585858",
"h+	c #828282",
"i+	c #6B6B6B",
"j+	c #393939",
"k+	c #909090",
"l+	c #7C7C7C",
"m+	c #DBDBDB",
"n+	c #5D5D5D",
"o+	c #BBBBBB",
"p+	c #606060",
"q+	c #C4C3C3",
"r+	c #5B2323",
"s+	c #640606",
"t+	c #4F0505",
"u+	c #161600",
"v+	c #F9C9C9",
"w+	c #F03636",
"x+	c #F05757",
"y+	c #FEFAFA",
"z+	c #FDE9E9",
"A+	c #EF4A4A",
"B+	c #A6A300",
"C+	c #FF2020",
"D+	c #FF3131",
"E+	c #FBCACA",
"F+	c #EBEBEB",
"G+	c #C17878",
"H+	c #A01414",
"I+	c #D91212",
"J+	c #EC2929",
"K+	c #FAC9C9",
"L+	c #EB1E1E",
"M+	c #F3EE00",
"N+	c #FFC5C5",
"O+	c #FD2C2C",
"P+	c #E84C4C",
"Q+	c #C4AFAF",
"R+	c #8A8080",
"S+	c #7C2A2A",
"T+	c #750A0A",
"U+	c #C61717",
"V+	c #EA1313",
"W+	c #F26E6E",
"X+	c #FEF6F6",
"Y+	c #FDEDED",
"Z+	c #EE4040",
"`+	c #EFEA00",
" @	c #716E00",
".@	c #FF4646",
"+@	c #FDE6E6",
"@@	c #F5F2F2",
"#@	c #DD7C7C",
"$@	c #AD1919",
"%@	c #975E5E",
"&@	c #838181",
"*@	c #796C6C",
"=@	c #EB1515",
"-@	c #F59191",
";@	c #FDECEC",
">@	c #F27171",
",@	c #F0EB00",
"'@	c #060600",
")@	c #FB8585",
"!@	c #E2D9D9",
"~@	c #AF9D9D",
"{@	c #902727",
"]@	c #7F0F0F",
"^@	c #896262",
"/@	c #F48787",
"(@	c #F16666",
"_@	c #EB1616",
":@	c #737100",
"<@	c #060500",
"[@	c #B7B6B6",
"}@	c #967777",
"|@	c #F05555",
"1@	c #F7A6A6",
"2@	c #FCDFDF",
"3@	c #FBD5D5",
"4@	c #F69B9B",
"5@	c #EE3E3E",
"6@	c #030300",
"7@	c #D4D000",
"8@	c #EE3B3B",
"9@	c #F05B5B",
"0@	c #F05A5A",
"a@	c #F05454",
"b@	c #ED3333",
"c@	c #EB1919",
"d@	c #D0CB00",
"e@	c #2C2B00",
"f@	c #CFCB00",
"g@	c #3C3B00",
"h@	c #514F00",
"i@	c #2D2C00",
"j@	c #5D5B00",
"k@	c #E8E400",
"l@	c #575500",
"m@	c #E7E300",
"n@	c #100F00",
"o@	c #959200",
"p@	c #D7D300",
"q@	c #2B2A00",
"r@	c #151500",
"s@	c #9F9C00",
"t@	c #434100",
"u@	c #7D7B00",
"v@	c #080800",
"w@	c #525000",
"x@	c #E7E200",
"y@	c #121200",
"z@	c #9D9A00",
"A@	c #FBF600",
"B@	c #C7C300",
"C@	c #313000",
"D@	c #151400",
"E@	c #ACA900",
"F@	c #F5F000",
"G@	c #8B8800",
"H@	c #DEDA00",
"I@	c #F2ED00",
"J@	c #7B7900",
"K@	c #5A5800",
"L@	c #E6E100",
"M@	c #090900",
"N@	c #928F00",
"O@	c #F8F300",
"P@	c #D9D400",
"Q@	c #363500",
"R@	c #9C9800",
"S@	c #8E8B00",
"T@	c #E2DD00",
"U@	c #807E00",
"V@	c #454300",
". . . . . + @ # # # # # $ % . . . . & * # # # # # = - ; . . . . > , # # # # # ' ) ! . . . . ~ { # # ",
". . . ] ^ / # # # # ( _ : . . . . < [ # # # # # } | 1 . . . . 2 3 # # # # # 4 5 ; . . . . 6 7 # # # ",
". . . 8 9 # # # # # 0 a . . . . > b # # # # # # c d . . . . e f # # # # # ( g ; . . . . a h # # # # ",
". ] i                                                                                         # # # ",
". j /                                                                                         # # # ",
"k l #                                   m m m m m m m m                               n       # # o ",
"p # #                               m m q r s t u v w x m m                     y z A B C     # D E ",
"# # #                             m F G H I J K K L M N O P m               Q R S T U V W     X Y ] ",
"# # #                           m Z ` I  . . . . . . ...+.@.#.m       $.%.&.*.=.-.;.>.,.      '.).. ",
"# # #                         m q !.L  . . . . . . . . . .~.{.x ].^./.(._.:.<.[.}.            . . . ",
"# |.1.                        F 2.3. . . . . . . . . . . . .M 4.5.6.7.8.9.0.a.                . . . ",
"# b.c.                      m d.e.A  . . . . . . . . . . . . .f.g.h.i.j.                      . . . ",
"k.l..                       m @.m. . . . . . . . . . . . . . .n.o.p.                          . q.r.",
"c.. .                   . s.m t. .u.v.w. .x.y.z.A. . . .B.C.D.J E.m                           . '.D ",
". . .                 .   F.G.H.I.J.K.L.M.N.O.P.B.Q.R.S.T.U.V.W.X.Y.Z.                        '.`.# ",
". . .                   .  +.+++@+I.#+$+%+&+*+=+-+;+>+x.,+Q.'+)+!+~+{+.   .                   X # # ",
". . ]+                    ^+/+(+_+:+<+W.[+O.*+=+T.}+>+|+,+1+2+3+4+5+6+.   .                   # # # ",
". 7+8+                9+0+a+b+c+d+e+,+f+g+h+i+j+k+i+l+m+n+o+p+q+r+s+t+.   .                   # # # ",
"u+8+#                  .v+w+m x+y+ . . . . . . . . . . . . . .z+A+m                           # # # ",
"B+4 #           C+D+E+F+G+H+I+J+K+A  . . . . . . . . . . . . .H L+m                           # # M+",
"# # #        .N+O+P+Q+R+S+T+U+V+W+X+ . . . . . . . . . . . .Y+Z+m                             # `+ @",
"# # #   .@+@@@#@$@%@&@*@      m =@-@3. . . . . . . . . . .;@>@q m                             ,@E '@",
"# # #   )@!@~@{@]@^@            m g./@L  . . . . . . .A ;@(@_@m                               :@<@. ",
"# # #     [@}@                    m P |@1@2@m. .A J 3@4@5@P m                                 6@. . ",
"# # 7@                              m x 5.8@@.9@0@a@b@c@m m                                   . . . ",
"# d@e@                                  m m m m m m m m                                       . . . ",
"f@g@.                                                                                         . ).h@",
"i@. .                                                                                         . j@k@",
". . .                                                                                         l@m@# ",
". . . n@o@= # # # # # p@q@. . . . r@s@# # # # # # = 5 d . . . . t@9 # # # # # ' u@v@. . . . w@x@# # ",
". . y@z@A@# # # # # B@C@. . . . D@E@= # # # # # F@G@'@. . . . h@H@# # # # # I@J@<@. . . ] K@L@# # # ",
". M@N@O@# # # # # P@Q@. . . . n@R@A@# # # # # # S@n@. . . . Q@T@# # # # # ( U@1 . . . . V@x@# # # # "};
