/* XPM */
static char * Schliessen_xpm[] = {
"32 32 130 2",
"  	c None",
". 	c #A5A5A5",
"+ 	c #752E2E",
"@ 	c #5B2E2E",
"# 	c #6E2828",
"$ 	c #AE0202",
"% 	c #762121",
"& 	c #880D0D",
"* 	c #873232",
"= 	c #837070",
"- 	c #774E4E",
"; 	c #DA0000",
"> 	c #7F6868",
", 	c #877D7D",
"' 	c #FD0000",
") 	c #FF0000",
"! 	c #EC0000",
"~ 	c #673B3B",
"{ 	c #8B7676",
"] 	c #DD0000",
"^ 	c #711E1E",
"/ 	c #B30000",
"( 	c #E50000",
"_ 	c #673C3C",
": 	c #C10101",
"< 	c #A80101",
"[ 	c #6C4444",
"} 	c #F90000",
"| 	c #6C3C3C",
"1 	c #A20707",
"2 	c #E80000",
"3 	c #7E6A6A",
"4 	c #762B2B",
"5 	c #EF0000",
"6 	c #6C3B3B",
"7 	c #7F1616",
"8 	c #712424",
"9 	c #7B5757",
"0 	c #D30000",
"a 	c #613232",
"b 	c #6D2929",
"c 	c #FA0000",
"d 	c #A40303",
"e 	c #8D8282",
"f 	c #AB0202",
"g 	c #613131",
"h 	c #6D4343",
"i 	c #867575",
"j 	c #820F0F",
"k 	c #FB0000",
"l 	c #856F6F",
"m 	c #792C2C",
"n 	c #6D2A2A",
"o 	c #633131",
"p 	c #A99F9F",
"q 	c #C80000",
"r 	c #A60404",
"s 	c #725050",
"t 	c #F20000",
"u 	c #6C3131",
"v 	c #ACABAB",
"w 	c #AB0707",
"x 	c #8B7A7A",
"y 	c #908383",
"z 	c #B00202",
"A 	c #A10000",
"B 	c #782C2C",
"C 	c #851010",
"D 	c #FC0000",
"E 	c #A10505",
"F 	c #7D0505",
"G 	c #6F1C1C",
"H 	c #7B6767",
"I 	c #F60000",
"J 	c #6E2727",
"K 	c #999393",
"L 	c #C10000",
"M 	c #A70303",
"N 	c #B50101",
"O 	c #642727",
"P 	c #A60505",
"Q 	c #857A7A",
"R 	c #8F0D0D",
"S 	c #622727",
"T 	c #8C1212",
"U 	c #642C2C",
"V 	c #702626",
"W 	c #6D2727",
"X 	c #712626",
"Y 	c #910404",
"Z 	c #734E4E",
"` 	c #D80000",
" .	c #7A2727",
"..	c #F10000",
"+.	c #DE0000",
"@.	c #867B7B",
"#.	c #8F7F7F",
"$.	c #B80202",
"%.	c #7C6A6A",
"&.	c #DC0000",
"*.	c #FE0000",
"=.	c #733030",
"-.	c #AAA8A8",
";.	c #8F0808",
">.	c #722020",
",.	c #979292",
"'.	c #BF0000",
").	c #9E0707",
"!.	c #721E1E",
"~.	c #EE0000",
"{.	c #6B1F1F",
"].	c #A30303",
"^.	c #938686",
"/.	c #6C4040",
"(.	c #D20000",
"_.	c #6C1F1F",
":.	c #7C1919",
"<.	c #763939",
"[.	c #806F6F",
"}.	c #773434",
"|.	c #930000",
"1.	c #990909",
"2.	c #621010",
"3.	c #A50000",
"4.	c #C60000",
"5.	c #8D8686",
"6.	c #730F0F",
"7.	c #8E0E0E",
"8.	c #9B9494",
"9.	c #9D9D9D",
"                                                                ",
"                                                      .         ",
"                                                    + @         ",
"                                                  # $ .         ",
"    . % & * =                                   - ; >           ",
"    , ' ) ) ! ~                               { ] ^             ",
"    . / ) ) ) ( _                           . : < .             ",
"      [ } ) ) ) ! |                       . 1 2 3               ",
"        4 5 ) ) ) ! 6                     7 ) 8                 ",
"          9 0 ) ) ) ! a                 b c d .                 ",
"            e f ) ) ) ! g             h 5 ( i                   ",
"              . j k ) ) ! g         l ] ) m                     ",
"                  n ! ) ) ! o     p q ) r .                     ",
"                    s 0 ) ) t u v w ) ( x                       ",
"                      y z ) ) t A ) ) B                         ",
"                        . C D ) ) ) E                           ",
"                            F ) ) ) G                           ",
"                          H ] ) ) ) I J                         ",
"                        K L ) ) M N ) I O                       ",
"                      . P ) ) ; Q . R ' t S                     ",
"                      T ) ) D U       V 5 t W                   ",
"                    X ' ) ) Y .         Z ` }  .                ",
"                  [ ..) ) +.@.            #.$.c  .              ",
"                %.&.) ) *.=.                -.;.} >.            ",
"              ,.'.) ) ) ).                      !.~.{.          ",
"            . ].) ) ) &.^.                        /.(._.        ",
"            :.) ) ) ' <.                            [./ }.      ",
"            |.) ) ) 1.                                . 2..     ",
"            3.) ) 4.5.                                          ",
"            6.( 7.8.                                            ",
"            . 9.                                                ",
"                                                                "};
