/* XPM */
static char * Select2_trans_xpm[] = {
"100 44 204 2",
"  	c None",
". 	c #FBFBFB",
"+ 	c #AEAEAE",
"@ 	c #F0F0F0",
"# 	c #A9A9A9",
"$ 	c #DEDEDE",
"% 	c #A6A6A6",
"& 	c #D5D5D5",
"* 	c #5A5A5A",
"= 	c #7A7A7A",
"- 	c #B4B4B4",
"; 	c #000000",
"> 	c #CCCCCC",
", 	c #CDCDCD",
"' 	c #1F1F1F",
") 	c #8C8C8C",
"! 	c #A0A0A0",
"~ 	c #2E2E2E",
"{ 	c #D4D4D4",
"] 	c #636363",
"^ 	c #E5E5E5",
"/ 	c #6F6F6F",
"( 	c #EFEFEF",
"_ 	c #919191",
": 	c #D0D0D0",
"< 	c #C9C9C9",
"[ 	c #B2B2B2",
"} 	c #AAAAAA",
"| 	c #E6E6E6",
"1 	c #606060",
"2 	c #DBDBDB",
"3 	c #CECECE",
"4 	c #C4C4C4",
"5 	c #A2A2A2",
"6 	c #E1E1E1",
"7 	c #A1A1A1",
"8 	c #B7B7B7",
"9 	c #B0B0B0",
"0 	c #DADADA",
"a 	c #BFBFBF",
"b 	c #767676",
"c 	c #EDEDED",
"d 	c #828282",
"e 	c #4F4F4F",
"f 	c #868686",
"g 	c #C7C7C7",
"h 	c #353535",
"i 	c #969696",
"j 	c #656565",
"k 	c #909090",
"l 	c #929292",
"m 	c #595959",
"n 	c #E8E8E8",
"o 	c #7D7D7D",
"p 	c #B6B6B6",
"q 	c #CACACA",
"r 	c #AFAFAF",
"s 	c #6D6D6D",
"t 	c #959595",
"u 	c #D2D2D2",
"v 	c #1E1E1E",
"w 	c #626262",
"x 	c #D9D9D9",
"y 	c #939393",
"z 	c #6B6B6B",
"A 	c #9E9E9E",
"B 	c #3C3C3C",
"C 	c #9A9A9A",
"D 	c #ACACAC",
"E 	c #BDBDBD",
"F 	c #A5A5A5",
"G 	c #A7A7A7",
"H 	c #393939",
"I 	c #E9E9E9",
"J 	c #787878",
"K 	c #575757",
"L 	c #191919",
"M 	c #9F9F9F",
"N 	c #363636",
"O 	c #D6D6D6",
"P 	c #404040",
"Q 	c #696969",
"R 	c #CFCFCF",
"S 	c #474747",
"T 	c #D3D3D3",
"U 	c #EBEBEB",
"V 	c #848484",
"W 	c #C5C5C5",
"X 	c #7F7F7F",
"Y 	c #ABABAB",
"Z 	c #4B4B4B",
"` 	c #898989",
" .	c #E3E3E3",
"..	c #7B7B7B",
"+.	c #5F5F5F",
"@.	c #757575",
"#.	c #DDDDDD",
"$.	c #535353",
"%.	c #E2E2E2",
"&.	c #818181",
"*.	c #8B8B8B",
"=.	c #747474",
"-.	c #CBCBCB",
";.	c #D1D1D1",
">.	c #9B9B9B",
",.	c #F7F7F7",
"'.	c #B9B9B9",
").	c #D7D7D7",
"!.	c #333333",
"~.	c #0B0B0B",
"{.	c #545454",
"].	c #6E6E6E",
"^.	c #565656",
"/.	c #A4A4A4",
"(.	c #A8A8A8",
"_.	c #131313",
":.	c #1D1D1D",
"<.	c #525252",
"[.	c #9D9D9D",
"}.	c #252525",
"|.	c #010101",
"1.	c #0C0C0C",
"2.	c #0A0A0A",
"3.	c #151515",
"4.	c #515151",
"5.	c #121212",
"6.	c #B8B8B8",
"7.	c #DFDFDF",
"8.	c #0F0F0F",
"9.	c #BCBCBC",
"0.	c #555555",
"a.	c #8E8E8E",
"b.	c #020202",
"c.	c #FEFEFE",
"d.	c #B3B3B3",
"e.	c #E4E4E4",
"f.	c #989898",
"g.	c #3A3A3A",
"h.	c #070707",
"i.	c #040404",
"j.	c #DCDCDC",
"k.	c #2F2F2F",
"l.	c #8A8A8A",
"m.	c #383838",
"n.	c #C3C3C3",
"o.	c #F9F9F9",
"p.	c #F6F6F6",
"q.	c #C0C0C0",
"r.	c #202020",
"s.	c #666666",
"t.	c #808080",
"u.	c #373737",
"v.	c #888888",
"w.	c #616161",
"x.	c #B5B5B5",
"y.	c #292929",
"z.	c #4C4C4C",
"A.	c #BEBEBE",
"B.	c #3F3F3F",
"C.	c #3D3D3D",
"D.	c #060606",
"E.	c #E7E7E7",
"F.	c #C1C1C1",
"G.	c #6C6C6C",
"H.	c #464646",
"I.	c #505050",
"J.	c #2A2A2A",
"K.	c #F1F1F1",
"L.	c #BABABA",
"M.	c #2C2C2C",
"N.	c #C8C8C8",
"O.	c #414141",
"P.	c #272727",
"Q.	c #E0E0E0",
"R.	c #0E0E0E",
"S.	c #878787",
"T.	c #FCFCFC",
"U.	c #080808",
"V.	c #585858",
"W.	c #171717",
"X.	c #090909",
"Y.	c #050505",
"Z.	c #3E3E3E",
"`.	c #BBBBBB",
" +	c #F4F4F4",
".+	c #4D4D4D",
"++	c #737373",
"@+	c #303030",
"#+	c #ADADAD",
"$+	c #A3A3A3",
"%+	c #727272",
"&+	c #5D5D5D",
"*+	c #838383",
"=+	c #484848",
"-+	c #8F8F8F",
";+	c #999999",
">+	c #282828",
",+	c #646464",
"'+	c #D8D8D8",
")+	c #3B3B3B",
"!+	c #313131",
"~+	c #5B5B5B",
"{+	c #101010",
"]+	c #2D2D2D",
"                                                                                                                                                                                                        ",
"                                                                                                                                                                                                        ",
"                                                                                                                                                                                                        ",
"                                                                                                                                                                                                        ",
"                                                                                                                                                  .     +             @ #                               ",
"                                                                                                                        $ % & *                     = - ;           > , '                               ",
"                                                                                                                        ) ; ! ~                 { ]                 ^ /                                 ",
"                                                                                                      ( _ : : < [ }   | 1   2 1 3 4 & 5 6 7 8 9 % %       0 &       a b | c 7 d 4                       ",
"                                                                                                    a e f g h i j   k l m n o   p q i r s   t u v w o x y z A     @ B   C D y E F                       ",
"                                                                                                    G H I J * E ;   , K   > L     M N       O *       - E   P     % ;   6 Q f R S                       ",
"                                                        u T u T T T u                             U V _ W X Y Z   3 Y `  ...    4 H         l       W +.  @.    #.m   #.= $.%.&.                        ",
"                                                    *.    =.y -.;., >.                          ,.c '.).{ r !.~.  ( D {.x ].  O ^.        $ ;       : - /.      > b (.  _.  g b                         ",
"                3 | :.                                ; <.[.3 9 (.A }.|.                          }.1.1.:.2.        3.4.                  /         f ] ;       4.'           5.                        ",
"        0 6.*.6.6.7.Q 8.                              T R 9.0.Q a.!.b.                                                                                                                                  ",
"      c.d.:.      e.W '                         T T W f.g.h.0.5 B i.                                                                                                                                    ",
"      ,._ L       j.: k.                    { T 3 l.m.~.;   n.K |.                                                                                                                                      ",
"      o.D s       p.q.r.                T T Y J 1.; ;     u s.|.                                                                                                                                        ",
"        7.t.u.    c v._.            { $ R w.v ;           ].;                                                                                                                                           ",
"                | x.y.          @ | % z.; ;                                                                                                                                                             ",
"              > A.B.        O O V C.D.;                                                                                                                                                                 ",
"            E.9 C.          8 F.G.H.                                                                                                                                                                    ",
"            ;.I.            J.j a u T                                                                                                                                                                   ",
"          K.L.M.                8.z.7 N.{                                                                                                                                                               ",
"          4 ^ =                     3.O.[.R ;.            W                                                                                                                                             ",
"                                        ; P.d L.Q.U       0.Y                                                                                                                                           ",
"                                            R.k.S. .T.T.    _ }                                                                                                                                         ",
"                                                ; U.V.C < ;.i J 9                                                                                                                                       ",
"          x F '                                       W.Z i ;.8 d.g                                                                                                                                     ",
"          p.(.3.                                        l.$./ 6.O ).>                                                                                                                                   ",
"                                                      x T #.N.# x.'.[                                                                                                                                   ",
"                                                      ; 2.b.b.X.Y.2.i.Y.                                                                                    -.      -.                    5 p P.        ",
"                                                                                                              r                                           p.Z.      I.                    -.K           ",
"                                                                                                e.`.  j.    -.L.     +K.    j.e.                        ! 6.}   $ %     % 6.Y             > /.u         ",
"                                                                                      3 A (..+  L.w.6 k ; [.+ ++@+u l #+$+  3 (.A R %+N.&+    3 A (..+  '.*+S   R =+  $ y v.@+W d.x.    ^ % x -+        ",
"                                                                                    8 ;+6.o   c C >.[ ~   n ;     q >+W ,+  q.b ) J >.Y ;   8 ;+6.o   #./     | V 0.    -.    '+;       /.z.9.h         ",
"                                                                                  $ F $+a &+  7.l.# ! Z.  [       &.}   )+& S.w #+  x *+  $ F $+a &+  $ ^.    U / ).f   9.u.  t _     O 5.F.r !+        ",
"                                                                                  n.b V.#+  3 /.~+F.{.,+Y Z     j.F.= {+%.  w :     5 H   n.b V.#+  3 ++      3 ]+  d `.      6.s O.        {.          ",
"                                                                                                                                                                                                        ",
"                                                                                                                                                                                                        ",
"                                                                                                                                                                                                        ",
"                                                                                                                                                                                                        ",
"                                                                                                                                                                                                        ",
"                                                                                                                                                                                                        ",
"                                                                                                                                                                                                        "};
