/* XPM */
static char * select_wuerfeln_xpm[] = {
"41 9 117 2",
"  	c None",
". 	c #FBFBFB",
"+ 	c #AEAEAE",
"@ 	c #F0F0F0",
"# 	c #A9A9A9",
"$ 	c #DEDEDE",
"% 	c #A6A6A6",
"& 	c #D5D5D5",
"* 	c #5A5A5A",
"= 	c #7A7A7A",
"- 	c #B4B4B4",
"; 	c #000000",
"> 	c #CCCCCC",
", 	c #CDCDCD",
"' 	c #1F1F1F",
") 	c #8C8C8C",
"! 	c #A0A0A0",
"~ 	c #2E2E2E",
"{ 	c #D4D4D4",
"] 	c #636363",
"^ 	c #E5E5E5",
"/ 	c #6F6F6F",
"( 	c #EFEFEF",
"_ 	c #919191",
": 	c #D0D0D0",
"< 	c #C9C9C9",
"[ 	c #B2B2B2",
"} 	c #AAAAAA",
"| 	c #E6E6E6",
"1 	c #606060",
"2 	c #DBDBDB",
"3 	c #CECECE",
"4 	c #C4C4C4",
"5 	c #A2A2A2",
"6 	c #E1E1E1",
"7 	c #A1A1A1",
"8 	c #B7B7B7",
"9 	c #B0B0B0",
"0 	c #DADADA",
"a 	c #BFBFBF",
"b 	c #767676",
"c 	c #EDEDED",
"d 	c #828282",
"e 	c #4F4F4F",
"f 	c #868686",
"g 	c #C7C7C7",
"h 	c #353535",
"i 	c #969696",
"j 	c #656565",
"k 	c #909090",
"l 	c #929292",
"m 	c #595959",
"n 	c #E8E8E8",
"o 	c #7D7D7D",
"p 	c #B6B6B6",
"q 	c #CACACA",
"r 	c #AFAFAF",
"s 	c #6D6D6D",
"t 	c #959595",
"u 	c #D2D2D2",
"v 	c #1E1E1E",
"w 	c #626262",
"x 	c #D9D9D9",
"y 	c #939393",
"z 	c #6B6B6B",
"A 	c #9E9E9E",
"B 	c #3C3C3C",
"C 	c #9A9A9A",
"D 	c #ACACAC",
"E 	c #BDBDBD",
"F 	c #A5A5A5",
"G 	c #A7A7A7",
"H 	c #393939",
"I 	c #E9E9E9",
"J 	c #787878",
"K 	c #575757",
"L 	c #191919",
"M 	c #9F9F9F",
"N 	c #363636",
"O 	c #D6D6D6",
"P 	c #404040",
"Q 	c #696969",
"R 	c #CFCFCF",
"S 	c #474747",
"T 	c #EBEBEB",
"U 	c #848484",
"V 	c #C5C5C5",
"W 	c #7F7F7F",
"X 	c #ABABAB",
"Y 	c #4B4B4B",
"Z 	c #898989",
"` 	c #E3E3E3",
" .	c #7B7B7B",
"..	c #5F5F5F",
"+.	c #757575",
"@.	c #DDDDDD",
"#.	c #535353",
"$.	c #E2E2E2",
"%.	c #818181",
"&.	c #F7F7F7",
"*.	c #B9B9B9",
"=.	c #D7D7D7",
"-.	c #333333",
";.	c #0B0B0B",
">.	c #545454",
",.	c #6E6E6E",
"'.	c #565656",
").	c #A4A4A4",
"!.	c #A8A8A8",
"~.	c #131313",
"{.	c #252525",
"].	c #0C0C0C",
"^.	c #1D1D1D",
"/.	c #0A0A0A",
"(.	c #151515",
"_.	c #515151",
":.	c #121212",
"                                                  .     +             @ #         ",
"                        $ % & *                     = - ;           > , '         ",
"                        ) ; ! ~                 { ]                 ^ /           ",
"      ( _ : : < [ }   | 1   2 1 3 4 & 5 6 7 8 9 % %       0 &       a b | c 7 d 4 ",
"    a e f g h i j   k l m n o   p q i r s   t u v w o x y z A     @ B   C D y E F ",
"    G H I J * E ;   , K   > L     M N       O *       - E   P     % ;   6 Q f R S ",
"  T U _ V W X Y   3 X Z `  .    4 H         l       V ..  +.    @.m   @.= #.$.%.  ",
"&.c *.=.{ r -.;.  ( D >.x ,.  O '.        $ ;       : - ).      > b !.  ~.  g b   ",
"  {.].].^./.        (._.                  /         f ] ;       _.'           :.  "};
