/* XPM */
static char * Select_trans_50_xpm[] = {
"50 32 158 2",
"  	c None",
". 	c #919191",
"+ 	c #555555",
"@ 	c #5F5F5F",
"# 	c #5B5B5B",
"$ 	c #8C8C8C",
"% 	c #464646",
"& 	c #3F3F3F",
"* 	c #E8E8E8",
"= 	c #F8F8F8",
"- 	c #616161",
"; 	c #777777",
"> 	c #666666",
", 	c #F6F6F6",
"' 	c #F4F4F4",
") 	c #8B8B8B",
"! 	c #303030",
"~ 	c #767676",
"{ 	c #A6A6A6",
"] 	c #C4C4C4",
"^ 	c #C8C8C8",
"/ 	c #BEBEBE",
"( 	c #3D3D3D",
"_ 	c #4C4C4C",
": 	c #444444",
"< 	c #505050",
"[ 	c #484848",
"} 	c #535353",
"| 	c #DBDBDB",
"1 	c #838383",
"2 	c #888888",
"3 	c #D1D1D1",
"4 	c #595959",
"5 	c #333333",
"6 	c #898989",
"7 	c #E3E3E3",
"8 	c #F5F5F5",
"9 	c #D4D4D4",
"0 	c #868686",
"a 	c #383838",
"b 	c #858585",
"c 	c #000000",
"d 	c #676767",
"e 	c #DEDEDE",
"f 	c #585858",
"g 	c #353535",
"h 	c #E2E2E2",
"i 	c #727272",
"j 	c #ACACAC",
"k 	c #FCFCFC",
"l 	c #F7F7F7",
"m 	c #C9C9C9",
"n 	c #F1F1F1",
"o 	c #2B2B2B",
"p 	c #646464",
"q 	c #D7D7D7",
"r 	c #C0C0C0",
"s 	c #BABABA",
"t 	c #E0E0E0",
"u 	c #B2B2B2",
"v 	c #AAAAAA",
"w 	c #4F4F4F",
"x 	c #B6B6B6",
"y 	c #414141",
"z 	c #434343",
"A 	c #565656",
"B 	c #C2C2C2",
"C 	c #7F7F7F",
"D 	c #5A5A5A",
"E 	c #232323",
"F 	c #8E8E8E",
"G 	c #3C3C3C",
"H 	c #DCDCDC",
"I 	c #E7E7E7",
"J 	c #3A3A3A",
"K 	c #ADADAD",
"L 	c #BBBBBB",
"M 	c #4B4B4B",
"N 	c #9C9C9C",
"O 	c #DADADA",
"P 	c #959595",
"Q 	c #ABABAB",
"R 	c #797979",
"S 	c #4D4D4D",
"T 	c #0F0F0F",
"U 	c #323232",
"V 	c #EBEBEB",
"W 	c #656565",
"X 	c #AFAFAF",
"Y 	c #494949",
"Z 	c #CDCDCD",
"` 	c #FAFAFA",
" .	c #474747",
"..	c #313131",
"+.	c #B9B9B9",
"@.	c #CFCFCF",
"#.	c #FDFDFD",
"$.	c #E1E1E1",
"%.	c #6D6D6D",
"&.	c #2C2C2C",
"*.	c #C6C6C6",
"=.	c #626262",
"-.	c #9A9A9A",
";.	c #B5B5B5",
">.	c #FFFFFF",
",.	c #AEAEAE",
"'.	c #393939",
").	c #4A4A4A",
"!.	c #8F8F8F",
"~.	c #939393",
"{.	c #707070",
"].	c #A4A4A4",
"^.	c #878787",
"/.	c #515151",
"(.	c #A5A5A5",
"_.	c #989898",
":.	c #262626",
"<.	c #1F1F1F",
"[.	c #9E9E9E",
"}.	c #282828",
"|.	c #525252",
"1.	c #EAEAEA",
"2.	c #6E6E6E",
"3.	c #2E2E2E",
"4.	c #747474",
"5.	c #F3F3F3",
"6.	c #2A2A2A",
"7.	c #6F6F6F",
"8.	c #6B6B6B",
"9.	c #E4E4E4",
"0.	c #A2A2A2",
"a.	c #5E5E5E",
"b.	c #292929",
"c.	c #A7A7A7",
"d.	c #2D2D2D",
"e.	c #F9F9F9",
"f.	c #3E3E3E",
"g.	c #404040",
"h.	c #E9E9E9",
"i.	c #7C7C7C",
"j.	c #1E1E1E",
"k.	c #B1B1B1",
"l.	c #929292",
"m.	c #343434",
"n.	c #D0D0D0",
"o.	c #D8D8D8",
"p.	c #CECECE",
"q.	c #828282",
"r.	c #212121",
"s.	c #A1A1A1",
"t.	c #969696",
"u.	c #424242",
"v.	c #6A6A6A",
"w.	c #DFDFDF",
"x.	c #DDDDDD",
"y.	c #7B7B7B",
"z.	c #5C5C5C",
"A.	c #696969",
"                                                                                                    ",
"                                                                                      . +           ",
"                                                                                    @ # $ %         ",
"                                                                                    & * = - ;       ",
"                                                                                    > , ' ) !       ",
"                                                                                  ~ { ] ^ / %       ",
"          ( _ : < [                                                               } | 1 2 3 4       ",
"        5 6 7 8 9 0 a b                                 c c c c c c c c           d e f g h i :     ",
"        j k l m n e i o                                       c c c c c         d p q r s t m u 4   ",
"        ^ v w 5 } n x y z                                 c c c   c c           A 0 B l ] 2 2 C D   ",
"        f _ E F G H I b J                             c c c       c           K > L M N O P Q R G   ",
"        S T U @ G 7 V 2 (                         c c c         c             W X 3 G Y > Z ` L  .  ",
"        $ ..+.@.O #.$.%.&                   c c c c           c               &.*.P @   =.w -.;.}   ",
"        + } >.>.>.>.,.'.).              c c c                                 !.+ ).~.    {.z a %   ",
"        . ).n ^ ].^./.'.            c c c                                                     (.    ",
"        _.( h ].:.<.(           c c c                                                               ",
"        '.1 (.[.Q }.W           c c c                                                               ",
"        |.n b l 1.2.3.              c c c                                                           ",
"        . 1.4.) 5.v 6.                  c c c                                     4 {.{.7.=.W       ",
"        8., O 9.7 2 U                       c c c c           c                   0.l $.V m a. .    ",
"        b.+.Z K c.} w                             c c c         c                 { u d./.e.{.D     ",
"          f.a.=...g.                                  c c c       c               { -.&.# h.i.a.    ",
"                                                          c c c   c c             { -.j.k.B l.m.    ",
"                                                              c c c c c           0.,.n.o._.h 4.4   ",
"                                                        c c c c c c c c           P p.p.q.r.N ~.y   ",
"                                                                                  [.s.( S 8.t.(.+   ",
"                                                                                  { [.&.$ > L Q u.  ",
"                                                                                  { H k.c.*.$.v.G   ",
"                                                                                  !.w.x.x.p.y.y K   ",
"                                                                                  z.D + + + A.      ",
"                                                                                                    ",
"                                                                                                    "};
