/* XPM */
static char * Skills_trans_50_xpm[] = {
"50 32 143 2",
"  	c None",
". 	c #7D8D9B",
"+ 	c #5C6E7B",
"@ 	c #1D2023",
"# 	c #7C8D9B",
"$ 	c #778C9D",
"% 	c #95A7B5",
"& 	c #8B9FAF",
"* 	c #7B91A4",
"= 	c #96A8B6",
"- 	c #879BAD",
"; 	c #7A90A4",
"> 	c #859AAB",
", 	c #FFFFFF",
"' 	c #92A4B4",
") 	c #8297A9",
"! 	c #91A3B3",
"~ 	c #8095A8",
"{ 	c #8C9FB0",
"] 	c #7C92A5",
"^ 	c #9BACBA",
"/ 	c #8A9DAE",
"( 	c #7F95A7",
"_ 	c #9E6632",
": 	c #C2E1EC",
"< 	c #BBDEEA",
"[ 	c #C3E2EC",
"} 	c #9C6531",
"| 	c #966130",
"1 	c #C9E5EE",
"2 	c #BDDFEA",
"3 	c #986230",
"4 	c #6F4823",
"5 	c #2B1C0E",
"6 	c #BFE0EB",
"7 	c #CBE6EF",
"8 	c #BDDFEB",
"9 	c #9A6331",
"0 	c #452D16",
"a 	c #030201",
"b 	c #010100",
"c 	c #7A4F27",
"d 	c #BCDFEA",
"e 	c #C3E1EC",
"f 	c #4D3219",
"g 	c #C1E1EB",
"h 	c #C5E2EC",
"i 	c #BFDFEB",
"j 	c #774D26",
"k 	c #000000",
"l 	c #061CE2",
"m 	c #C7E3ED",
"n 	c #BEDFEA",
"o 	c #050302",
"p 	c #CB1B3A",
"q 	c #E20636",
"r 	c #FFEE00",
"s 	c #1243BC",
"t 	c #C4E1EC",
"u 	c #C6E3ED",
"v 	c #C1E1EC",
"w 	c #BEDFEB",
"x 	c #598750",
"y 	c #568950",
"z 	c #E9E709",
"A 	c #8AC732",
"B 	c #33AA57",
"C 	c #C4E2EC",
"D 	c #C9E4EE",
"E 	c #CAE5EE",
"F 	c #C2E1EB",
"G 	c #D1E8EF",
"H 	c #D8EBF2",
"I 	c #DBEDF3",
"J 	c #D6EBF1",
"K 	c #CFE7F0",
"L 	c #CDE7EF",
"M 	c #CBE5EF",
"N 	c #459A65",
"O 	c #6A7883",
"P 	c #60817B",
"Q 	c #D0E7F0",
"R 	c #D6EAF1",
"S 	c #DDEEF4",
"T 	c #C0E1EB",
"U 	c #499669",
"V 	c #B436BE",
"W 	c #598776",
"X 	c #CBE5EE",
"Y 	c #CEE6EF",
"Z 	c #C0E0EB",
"` 	c #BEE0EB",
" .	c #38A65B",
"..	c #D1E8F0",
"+.	c #D0E8F0",
"@.	c #D2E9F0",
"#.	c #CEE7F0",
"$.	c #CCE6EF",
"%.	c #C5E3ED",
"&.	c #6A4422",
"*.	c #CDE6EF",
"=.	c #D28FE6",
"-.	c #D384E5",
";.	c #C7B2E8",
">.	c #C893E5",
",.	c #C3A9E6",
"'.	c #CAA0E7",
").	c #C8D0EB",
"!.	c #CD8DE5",
"~.	c #CAA9E7",
"{.	c #C0C1E8",
"].	c #7E5128",
"^.	c #C592E4",
"/.	c #CF4FDE",
"(.	c #D42BDB",
"_.	c #CE52DF",
":.	c #D045DE",
"<.	c #D048DE",
"[.	c #C87CE2",
"}.	c #D239DD",
"|.	c #CD5AE0",
"1.	c #BCD1E9",
"2.	c #935F2F",
"3.	c #22160B",
"4.	c #050301",
"5.	c #120B06",
"6.	c #84552A",
"7.	c #C0AFDD",
"8.	c #CA61C6",
"9.	c #CC55C9",
"0.	c #C681CE",
"a.	c #CB60D4",
"b.	c #C86FCD",
"c.	c #C775C2",
"d.	c #7B4F27",
"e.	c #8E5C2D",
"f.	c #56371B",
"g.	c #52351A",
"h.	c #7F5228",
"i.	c #C75C9B",
"j.	c #C56FA7",
"k.	c #996330",
"l.	c #976130",
"                                                                                                    ",
"                            . +                                                                     ",
"                              @ # $                                                                 ",
"                                  % & *                                                             ",
"                                      = - ;                                                         ",
"                                          % > *                                 , ,                 ",
"                                              ' )                               ,                   ",
"                                                  ! ~                                               ",
"                                                      { ]                     , ,                   ",
"                                                        ^ / (                   ,                   ",
"                                                                                                    ",
"                    _ _ _ _                                                     : <                 ",
"                    _ _                                                         [ <                 ",
"                  } | _                                                         1 2                 ",
"    _ _       3 4   5 } _                                                     6 7 8                 ",
"_ _ _ _ 9 9 0   a   b c _ _                                                   d e 6                 ",
"_ _   _ f               _ _                                                   g h i 2               ",
"      _ j a   k   k   k   _ _                           l                     m n < <               ",
"      _ _ o   k   k   k   _ _           p q   r r r r   s                 t u u v [ w < <           ",
"      _ _                   _ _         x y     z A   B                 w h g C D E 7 1 w <         ",
"      _ _   k   k   k   k   _ _                 B B   B               F G H I J K L M E [ <         ",
"      _ _   k                 _ _           B   N O P   B             Q R S I R E u T 8 d < <       ",
"      _ _                     _ _       B       U V W   B             D X Y 1 u Z 2 ` 2 < < <       ",
"        _ _   k   k   k   b   _ _       B          .                  ..+.@.#.$.C %.X u w < <       ",
"        _ _                 &._           B   B B B   B               *.=.-.;.>.,.'.).!.~.{.        ",
"        _ _             k   ]._           B     B     B                 ^./.(._.:.<.[.}.|.1.        ",
"          _ _ 2.3.  4.  5.6._ _           B B   B   B                     7.8.9.0.a.b.c.            ",
"            _ _ d.e.f.g.h.2._               B   B B B                           i.j.                ",
"              _ _ _ k.l._                   B B B B B                                               ",
"                                              B B B                                                 ",
"                                              B B B                                                 ",
"                                                                                                    "};
