/* XPM */
static char * Sort_Skill_trans_50_xpm[] = {
"50 32 110 2",
"  	c None",
". 	c #677887",
"+ 	c #1D2023",
"@ 	c #6D7E8C",
"# 	c #899CAD",
"$ 	c #899DAE",
"% 	c #000000",
"& 	c #8B9FAF",
"* 	c #FFFFFF",
"= 	c #8EA1B1",
"- 	c #7F94A7",
"; 	c #7E93A6",
"> 	c #8FA2B2",
", 	c #8196A8",
"' 	c #93A5B5",
") 	c #9E6632",
"! 	c #C6E3ED",
"~ 	c #BFE0EB",
"{ 	c #C2E1EC",
"] 	c #835429",
"^ 	c #C5E3ED",
"/ 	c #58391C",
"( 	c #2B1C0E",
"_ 	c #9D6532",
": 	c #976130",
"< 	c #794E26",
"[ 	c #8C5A2C",
"} 	c #C2E1EB",
"| 	c #87572B",
"1 	c #C1E1EB",
"2 	c #BDDFEA",
"3 	c #945F2F",
"4 	c #170F07",
"5 	c #071DE1",
"6 	c #C5E2ED",
"7 	c #BEDFEB",
"8 	c #BCDEEA",
"9 	c #20150A",
"0 	c #996330",
"a 	c #944F45",
"b 	c #FDED01",
"c 	c #C3E2EC",
"d 	c #548B51",
"e 	c #E1E40D",
"f 	c #7DC337",
"g 	c #35AB56",
"h 	c #C3E1EC",
"i 	c #C8E3ED",
"j 	c #C9E5EE",
"k 	c #BBDEEA",
"l 	c #33AA57",
"m 	c #C7E3ED",
"n 	c #D3E8F0",
"o 	c #D4E9F1",
"p 	c #CFE7EF",
"q 	c #CBE6EF",
"r 	c #BCDFEA",
"s 	c #36A759",
"t 	c #D6EAF1",
"u 	c #E1F0F5",
"v 	c #DAECF3",
"w 	c #CDE6EF",
"x 	c #C4E2EC",
"y 	c #C0E0EB",
"z 	c #895D9C",
"A 	c #816495",
"B 	c #CAE5EE",
"C 	c #CFE7F0",
"D 	c #C8E4ED",
"E 	c #9A6431",
"F 	c #449B64",
"G 	c #558B72",
"H 	c #CCE6EF",
"I 	c #130C06",
"J 	c #905D2E",
"K 	c #D3D5EF",
"L 	c #D4C6ED",
"M 	c #C7C3EA",
"N 	c #C4C6E9",
"O 	c #CAD3EC",
"P 	c #C6C4EA",
"Q 	c #BED2E9",
"R 	c #89592B",
"S 	c #C99AE6",
"T 	c #CF56E0",
"U 	c #CC65E1",
"V 	c #CC65E0",
"W 	c #CB86E4",
"X 	c #CE68E1",
"Y 	c #C1B9E7",
"Z 	c #010100",
"` 	c #714924",
" .	c #996331",
"..	c #C875DD",
"+.	c #CF4AD6",
"@.	c #CD59DB",
"#.	c #CB67D9",
"$.	c #CA6ADA",
"%.	c #9D6632",
"&.	c #492F17",
"*.	c #2E1D0E",
"=.	c #87582B",
"-.	c #C76FC0",
";.	c #C76EBC",
">.	c #C772C2",
",.	c #8F5C2D",
"'.	c #86562A",
").	c #85562A",
"!.	c #9A6331",
"~.	c #9C6532",
"                                                                                                    ",
"                  .                                                                                 ",
"                  + @                                                                               ",
"                      #                                                                             ",
"                        $                                                   %             %         ",
"                          &                                                 %             %         ",
"                            &                     *                         % %           %         ",
"                              = -                                         % % %           %         ",
"                                = ;                                       % % % %         %         ",
"                                  > ,             *                       % % % %         %         ",
"                                    '                                   % % % % %         %         ",
"                )                                 !                       % % % %         %         ",
"            ) ) )                                 ~                         %             %         ",
"            )                                     {                         %             %         ",
"            ] )                                   ^                         %             %         ",
"  ) )     / ( _                                   ^                         %             %         ",
") ) : <       [ )                                 } ~                       %             %         ",
")   |           )                               1 1 2                       %             %         ",
"    3 4         )                 5             6 7 8                       %             %         ",
"    _ 9         0 )     a     b               c ! { ~ 8                     %             %         ",
"    )             )     d     e f g         7 h { i j { k                   %         % % % % %     ",
"    )             )               l         m n o p q ! r                   %         % % % % %     ",
"    )             )             s           t u v w x y k                   %           % % %       ",
"    )             )           z A           B C D ~ r 8 k                   %           % % %       ",
"    ) E           )           F G           H H B x ^ y k                   %           % % %       ",
"    ) )         I J           l             K L M N O P Q                   %             %         ",
"      )           R           l             S T U V W X Y                   %             %         ",
"      )     Z   `  .      l   l               ..+.@.#.$.                                            ",
"      ) %.&.*.  =.)       l   l l               -.;.>.                                              ",
"        ) ,.'.).!.          l l l                                                                   ",
"          ) %.~.            l l l                                                                   ",
"                            l l                                                                     "};
