/* XPM */
static char * Sort_Zauber_50_xpm[] = {
"50 32 293 2",
"  	c None",
". 	c #C8C76F",
"+ 	c #000000",
"@ 	c #C5C46C",
"# 	c #94933F",
"$ 	c #A5A446",
"% 	c #C9C678",
"& 	c #C8C770",
"* 	c #C4C36C",
"= 	c #908F3C",
"- 	c #959439",
"; 	c #73722B",
"> 	c #CCC196",
", 	c #C9C679",
"' 	c #C8C771",
") 	c #CAC974",
"! 	c #C9C871",
"~ 	c #D2A25A",
"{ 	c #C8C66F",
"] 	c #D2A45C",
"^ 	c #D0A95E",
"/ 	c #CBBD6A",
"( 	c #A6A554",
"_ 	c #757432",
": 	c #CEBAAF",
"< 	c #CBC18A",
"[ 	c #CBC77F",
"} 	c #CECD82",
"| 	c #C9C872",
"1 	c #E8532E",
"2 	c #D79151",
"3 	c #DA854A",
"4 	c #F1311B",
"5 	c #DC7D45",
"6 	c #D2A6FF",
"7 	c #D5ABFF",
"8 	c #D3A9FF",
"9 	c #D3A8FF",
"0 	c #D1A3FF",
"a 	c #D7B1FF",
"b 	c #CCAFC7",
"c 	c #CBBBA1",
"d 	c #D1C99B",
"e 	c #CECA84",
"f 	c #E2683A",
"g 	c #E8522E",
"h 	c #D49B56",
"i 	c #ED4124",
"j 	c #D0AA5F",
"k 	c #D2A7FF",
"l 	c #D5ACFF",
"m 	c #D0A3FF",
"n 	c #D1A4FF",
"o 	c #CF9FFF",
"p 	c #D7B0FE",
"q 	c #D0B0DC",
"r 	c #CFB9BE",
"s 	c #CFC2A6",
"t 	c #CBC487",
"u 	c #C9C673",
"v 	c #CCB867",
"w 	c #D2A25B",
"x 	c #D1A75D",
"y 	c #EF3A20",
"z 	c #CFAC60",
"A 	c #D0A2FF",
"B 	c #D9B3FE",
"C 	c #D0A1FF",
"D 	c #D8B1FE",
"E 	c #CFA2FE",
"F 	c #DABCEC",
"G 	c #DCC6DC",
"H 	c #CCB6B2",
"I 	c #CABF93",
"J 	c #C9C67B",
"K 	c #C9C26C",
"L 	c #CFAE61",
"M 	c #C9C36D",
"N 	c #D2A7FE",
"O 	c #DAB7FF",
"P 	c #E1C4FF",
"Q 	c #E4CAFE",
"R 	c #E0C0FF",
"S 	c #D8B2FF",
"T 	c #D7BAE3",
"U 	c #D9C1D9",
"V 	c #CCB2BD",
"W 	c #CAB99E",
"X 	c #CAC383",
"Y 	c #C8C671",
"Z 	c #D1A85E",
"` 	c #CABE6A",
" .	c #CDB665",
"..	c #C8C66E",
"+.	c #DAB6FF",
"@.	c #D6ADFF",
"#.	c #CE9FFF",
"$.	c #DAB6FE",
"%.	c #E5CBFF",
"&.	c #EBD8FE",
"*.	c #EDDCFF",
"=.	c #EAD5FF",
"-.	c #E1C3FF",
";.	c #D3B6DE",
">.	c #CFB3C9",
",.	c #CDB1C3",
"'.	c #C9B5A6",
").	c #CAC189",
"!.	c #C9C473",
"~.	c #D49B57",
"{.	c #CCB967",
"].	c #CE9EFF",
"^.	c #D2A5FF",
"/.	c #ECDAFF",
"(.	c #F4E9FE",
"_.	c #F3EBFC",
":.	c #F1E5FD",
"<.	c #E8D2FF",
"[.	c #D8BFDE",
"}.	c #CCB2BF",
"|.	c #CEB4C8",
"1.	c #C9B2AD",
"2.	c #CAC090",
"3.	c #C9C476",
"4.	c #F42615",
"5.	c #D9894D",
"6.	c #E8542F",
"7.	c #CDB464",
"8.	c #D1A4FE",
"9.	c #E6CCFF",
"0.	c #F1E3FF",
"a.	c #F8F3FE",
"b.	c #F5F1F8",
"c.	c #ECE6F4",
"d.	c #E1D1F3",
"e.	c #D8C0DD",
"f.	c #CCB2BE",
"g.	c #D0B5C9",
"h.	c #CAB2B2",
"i.	c #C9C479",
"j.	c #DD7943",
"k.	c #DC8047",
"l.	c #D7B1FE",
"m.	c #E7CFFE",
"n.	c #F2E5FF",
"o.	c #FAF6FF",
"p.	c #FBF9FD",
"q.	c #F1ECF8",
"r.	c #D8C9E5",
"s.	c #BDA7CE",
"t.	c #B69CBC",
"u.	c #C8ADCA",
"v.	c #C8B0B2",
"w.	c #CABE94",
"x.	c #C9C579",
"y.	c #D5AAFF",
"z.	c #E4C9FF",
"A.	c #F0E0FF",
"B.	c #F8F2FF",
"C.	c #F9F3FF",
"D.	c #F4EBFD",
"E.	c #DDCDED",
"F.	c #AB95C1",
"G.	c #9176AA",
"H.	c #A78BBD",
"I.	c #A992AC",
"J.	c #B9AE91",
"K.	c #C2BF78",
"L.	c #C7C66F",
"M.	c #D8B3FF",
"N.	c #DEBDFF",
"O.	c #E8D3FF",
"P.	c #F0E1FF",
"Q.	c #F1E4FF",
"R.	c #EEDDFF",
"S.	c #DFC7F7",
"T.	c #B096C2",
"U.	c #9177A1",
"V.	c #9980B0",
"W.	c #7E6A92",
"X.	c #726876",
"Y.	c #7E7C69",
"Z.	c #A09F6B",
"`.	c #B8B86E",
" +	c #C6C56F",
".+	c #D5ADFF",
"++	c #D7AFFF",
"@+	c #E7CFFF",
"#+	c #E9D3FF",
"$+	c #DDBBFF",
"%+	c #CDAFD4",
"&+	c #C3A8BE",
"*+	c #B9A1B7",
"=+	c #9C8D96",
"-+	c #5E585D",
";+	c #393838",
">+	c #4D4D48",
",+	c #6C6C5B",
"'+	c #929168",
")+	c #B2B16D",
"!+	c #C3C26F",
"~+	c #D8B1FF",
"{+	c #DCBBFE",
"]+	c #CF9EFF",
"^+	c #DDBCFF",
"/+	c #DBB8FF",
"(+	c #D1A5FF",
"_+	c #D2B2DE",
":+	c #D1B8CB",
"<+	c #C9B2B2",
"[+	c #C8BA98",
"}+	c #AAA671",
"|+	c #68673E",
"1+	c #2A2A1F",
"2+	c #272726",
"3+	c #40403F",
"4+	c #5F5F56",
"5+	c #838366",
"6+	c #DFC1FE",
"7+	c #DBB8FE",
"8+	c #D4AAFF",
"9+	c #D4ABFF",
"0+	c #D2B2E0",
"a+	c #D0B9C1",
"b+	c #CCBAA5",
"c+	c #CAC18B",
"d+	c #C8C676",
"e+	c #C4C36D",
"f+	c #AFAE61",
"g+	c #767643",
"h+	c #3C3B26",
"i+	c #2D2D27",
"j+	c #373736",
"k+	c #4C4C4C",
"l+	c #5C5C5C",
"m+	c #E3C9FE",
"n+	c #D7B0FF",
"o+	c #D4A9FF",
"p+	c #DBB9FF",
"q+	c #CCACCF",
"r+	c #CCB8AB",
"s+	c #CEC39B",
"t+	c #CAC580",
"u+	c #C7C66E",
"v+	c #B4B364",
"w+	c #85844A",
"x+	c #4D4D2E",
"y+	c #262621",
"z+	c #2E2E2E",
"A+	c #474747",
"B+	c #575757",
"C+	c #636363",
"D+	c #CE9DFF",
"E+	c #CD9CFF",
"F+	c #CCB3BA",
"G+	c #CBBF93",
"H+	c #CAC583",
"I+	c #C8C774",
"J+	c #C3C26C",
"K+	c #777743",
"L+	c #141414",
"M+	c #242424",
"N+	c #393939",
"O+	c #CABBA0",
"P+	c #C8C380",
"Q+	c #C7C473",
"R+	c #C6C56D",
"S+	c #101010",
"T+	c #C9BE8E",
"U+	c #B5B163",
"V+	c #B1AF54",
"W+	c #B0AE51",
"X+	c #AFAE50",
"Y+	c #ACAB48",
"Z+	c #989739",
"`+	c #979639",
" @	c #C9C57D",
".@	c #C8C673",
"+@	c #C7C66D",
"@@	c #BEBD58",
"#@	c #A3A242",
"$@	c #8B8A35",
"%@	c #C6C568",
"&@	c #C5C468",
"*@	c #C4C365",
"=@	c #A8A748",
"-@	c #777632",
";@	c #BAB94F",
">@	c #BAB94D",
",@	c #BAB94E",
"'@	c #BBBA4F",
")@	c #888734",
"!@	c #737235",
"                                                                                                    ",
"                                                                                                    ",
"                                                                                                    ",
"                                                                                                    ",
"                              . . . . . .                                 +                         ",
"                            . . . . . . . . . @ # $                       +             +           ",
"                          % & . . . . . . . . * = - ;                   + +             +           ",
"                          > , ' ) ! ~ { ] ^ / . ( _                     + + +           +           ",
"                          : < [ } | 1 2 3 4 5 .                       + + + +           +           ",
"              6 7 8 9 0 a b c d e & f g h i j .                       + + + +           +           ",
"            k 9 l m n o p q r s t u v w x y z .                       + + + + +         +           ",
"          A B C 0 7 D 8 E F G H I J & . K L M .                       + + + +           +           ",
"          6 N 9 O P Q R S T U V W X Y Z `  ....                           +             +           ",
"        +.@.#.$.%.&.*.=.-.;.>.,.'.).!.1 ~.g {..                           +             +           ",
"        ].0 ^.P /.(._.:.<.[.}.|.1.2.3.4.5.6.7..                           +             +           ",
"        8.6 @.9.0.a.b.c.d.e.f.g.h.I i.j.x k.{..                           +             +           ",
"        l.B $.m.n.o.p.q.r.s.t.u.v.w.x.. . . . .                           +             +           ",
"        ].9 y.z.A.B.C.D.E.F.G.H.I.J.K.L.. . . .                           +             +           ",
"        6 M.8 N.O.P.Q.R.S.T.U.V.W.X.Y.Z.`. +. .                           +             +           ",
"          .+m ++R @+#+%.$+%+&+*+=+-+;+>+,+'+)+!+                          +             +           ",
"          ~+{+]+7 O ^+/+(+_+:+<+[+}+|+1+2+3+4+5+                          +         + + + + +       ",
"          6+7+8+(+C 9+6 l 0+a+b+c+d+e+f+g+h+i+j+k+l+                      +         + + + + +       ",
"          m+  9 n+n o+7 p+q+r+s+t+' . . u+v+w+x+y+z+A+B+C+                +         + + + +         ",
"                n D+o E+  F+G+H+I+. . . . . L.J+K+  L+M+N+                +           + + +         ",
"                          O+P+Q+R+R+R+R+R+R+R+R+        S+                +           + + +         ",
"                        T+U+V+W+X+X+X+X+X+Y+Z+`+                          +             +           ",
"                       @.@& . . . . . . +@@@#@$@                          +             +           ",
"                      %@%@%@%@%@%@%@%@%@&@*@=@-@                                                    ",
"                      ;@>@>@,@'@'@,@>@>@>@>@)@!@                                                    ",
"                                                                                                    ",
"                                                                                                    ",
"                                                                                                    "};
