/* XPM */
static char * Sort_Lang_trans_50_xpm[] = {
"50 32 194 2",
"  	c None",
". 	c #707070",
"+ 	c #919191",
"@ 	c #6A6A6A",
"# 	c #444444",
"$ 	c #808080",
"% 	c #929191",
"& 	c #8E8E8E",
"* 	c #FFFFFF",
"= 	c #000000",
"- 	c #4D4D4D",
"; 	c #949393",
"> 	c #878787",
", 	c #EDEDED",
"' 	c #CFCFCF",
") 	c #F1F1F1",
"! 	c #424242",
"~ 	c #0F0F0F",
"{ 	c #545454",
"] 	c #FEFEFE",
"^ 	c #CCCCCC",
"/ 	c #898989",
"( 	c #C8C8C8",
"_ 	c #040404",
": 	c #0C0B0A",
"< 	c #FDFDFD",
"[ 	c #D4D4D4",
"} 	c #A0A0A0",
"| 	c #E0E0E0",
"1 	c #151515",
"2 	c #030303",
"3 	c #453F33",
"4 	c #594723",
"5 	c #F6F6F6",
"6 	c #F8F8F8",
"7 	c #6C6C6C",
"8 	c #403F3F",
"9 	c #695E48",
"0 	c #ACA089",
"a 	c #857659",
"b 	c #F7F7F7",
"c 	c #DADADA",
"d 	c #E9E9E9",
"e 	c #999791",
"f 	c #969696",
"g 	c #8F8E8B",
"h 	c #8A7B5E",
"i 	c #E7E1D6",
"j 	c #A79B82",
"k 	c #FCFCFC",
"l 	c #C3C3C3",
"m 	c #939393",
"n 	c #E4E4E4",
"o 	c #938460",
"p 	c #888681",
"q 	c #979797",
"r 	c #7D7A72",
"s 	c #A5987D",
"t 	c #F2EFE6",
"u 	c #B6AC95",
"v 	c #A5A5A5",
"w 	c #9D9D9D",
"x 	c #B6B6B6",
"y 	c #E1E1E1",
"z 	c #A0967F",
"A 	c #918F89",
"B 	c #959595",
"C 	c #807868",
"D 	c #DDD6C6",
"E 	c #F3F0E9",
"F 	c #D6CDB6",
"G 	c #685632",
"H 	c #F4F4F4",
"I 	c #BBBBBB",
"J 	c #787878",
"K 	c #AFAFAF",
"L 	c #656565",
"M 	c #8D8D8D",
"N 	c #C9C9C9",
"O 	c #DFDFDF",
"P 	c #EEEEEE",
"Q 	c #E7E7E7",
"R 	c #F9F9F9",
"S 	c #9F957E",
"T 	c #A5A39E",
"U 	c #A4A4A4",
"V 	c #8D8472",
"W 	c #E5DECE",
"X 	c #F4F0E9",
"Y 	c #DBD1BA",
"Z 	c #5F4E2A",
"` 	c #909090",
" .	c #B3B3B3",
"..	c #7B7B7B",
"+.	c #717171",
"@.	c #7E7E7E",
"#.	c #B2B2B2",
"$.	c #B9B9B9",
"%.	c #949494",
"&.	c #C6C6C6",
"*.	c #9C9582",
"=.	c #A9A7A3",
"-.	c #8F8572",
";.	c #D9CFB8",
">.	c #ECE7DB",
",.	c #D5CAAE",
"'.	c #5A4927",
").	c #D3D3D3",
"!.	c #A8A8A8",
"~.	c #626262",
"{.	c #BEBEBE",
"].	c #C0C0C0",
"^.	c #A6A6A6",
"/.	c #B8B8B8",
"(.	c #C7C7C7",
"_.	c #B0B0B0",
":.	c #989794",
"<.	c #A09F9F",
"[.	c #A1A1A1",
"}.	c #8C816D",
"|.	c #C7B793",
"1.	c #D0C2A2",
"2.	c #BCA87B",
"3.	c #5B4720",
"4.	c #7D7D7D",
"5.	c #676767",
"6.	c #BFBFBF",
"7.	c #9F9F9F",
"8.	c #7C7C7C",
"9.	c #B5B5B5",
"0.	c #ABA9A4",
"a.	c #A1A09F",
"b.	c #8B816D",
"c.	c #B09A66",
"d.	c #A2884A",
"e.	c #92722A",
"f.	c #5A4417",
"g.	c #D0D0D0",
"h.	c #C4C4C4",
"i.	c #DDDDDD",
"j.	c #B2B0AC",
"k.	c #827865",
"l.	c #A48A4F",
"m.	c #997C38",
"n.	c #8E6E23",
"o.	c #594315",
"p.	c #FAFAFA",
"q.	c #FBFBFB",
"r.	c #F3F3F3",
"s.	c #C9C6C1",
"t.	c #A3A3A3",
"u.	c #857F70",
"v.	c #9C8040",
"w.	c #957730",
"x.	c #8E6D22",
"y.	c #5A4415",
"z.	c #EBEBEB",
"A.	c #F2F2F2",
"B.	c #BDBAB5",
"C.	c #A8A6A3",
"D.	c #917638",
"E.	c #93752D",
"F.	c #8D6D24",
"G.	c #66532A",
"H.	c #BAB8B3",
"I.	c #7D6E4C",
"J.	c #92742B",
"K.	c #7E611F",
"L.	c #B1AFAA",
"M.	c #ACACAC",
"N.	c #81755A",
"O.	c #8F7129",
"P.	c #7A5E1F",
"Q.	c #B3B1AC",
"R.	c #6F6653",
"S.	c #7E6224",
"T.	c #725820",
"U.	c #B1AEA9",
"V.	c #AAAAAA",
"W.	c #9B9B9B",
"X.	c #7A7874",
"Y.	c #B8B5B0",
"Z.	c #989898",
"`.	c #B6B4AF",
" +	c #B9B7B1",
".+	c #8C8C8C",
"++	c #848484",
"@+	c #8D8B87",
"#+	c #3E3E3E",
"$+	c #525252",
"%+	c #828282",
"&+	c #6F6E6E",
"*+	c #535353",
"=+	c #929292",
"                                                                                                    ",
"                                                                                                    ",
"                                                                                                    ",
"          . + @                                                                                     ",
"      #   $ % &                   * * * * * * * * * * *                       = =           =       ",
"      -   & ; >           * * * , ' ) * * * * * * * * * * * *                 = =           =       ",
"          ! ~ {       * * * * ] ^ / ( * * * * * * * * * * * * *               = =           =       ",
"          _ = :         * * * < [ } | * * * * * * * * * * * * * *           = = = =         =       ",
"          1 2 3 4         * * * 5 | 6 * * * * * * * * * * * * * *           = = = =         =       ",
"          7 8 9 0 a         * * * b c d < * * * * * * * * * * * * *       = = = = =         =       ",
"        e f g h i j           * k l / m n k ] * * * * * * * * * * *       = = = = =         =       ",
"      o p q r s t u             k v 7 7 w x y < * * * * * * * * * *           = =           =       ",
"      z A B C D E F G             H I J K L M N O P < Q d R * * * *           = =           =       ",
"      S T U V W X Y Z             * n `  ...+.+ @.#.) $.%.&.6 ] 5 <           = =           =       ",
"      *.=.w -.;.>.,.'.              d #.y ).!.$ ~.7 {.].^.} /.(._.c           = =           =       ",
"      :.<.[.}.|.1.2.3.              ] 6 < < H &.4.5.$.n {.6.7.[.8.9.          = =           =       ",
"      0.a.w b.c.d.e.f.                * * * * ] R | N , g.h.).i.[.)           = =           =       ",
"        j.U k.l.m.n.o.                * * * * * * * p.y (.O q.q.r.            = =           =       ",
"        s.t.u.v.w.x.y.                  * * * * * * * p.z.A.* * *             = =           =       ",
"        B.[.C.D.E.F.G.                  * * * * * * * * ] ] * * *             = =       = = = = =   ",
"        H./.[.I.J.K.                    * * * * * * * * * * * *               = =       = = = = =   ",
"        L.M.} N.O.P.                      * * * * * * * * * *                 = =         = = = =   ",
"        Q. .} R.S.T.                        * * * * * * * *                   = =         = = = =   ",
"        U.V.W.X.                              * * * * *                       = =           = =     ",
"        Y.v Z.@                                                               = =           = =     ",
"        `.} m 7                                                               = =           =       ",
"         +.+++J                                                                                     ",
"        @+#+$+%+                                                                                    ",
"        &+*+$+=+                                                                                    ",
"                                                                                                    ",
"                                                                                                    ",
"                                                                                                    "};
