/* XPM */
static char * SP_Anleitung_xpm[] = {
"22 22 316 2",
"  	c None",
". 	c #784E41",
"+ 	c #B4563E",
"@ 	c #B3543D",
"# 	c #B1533C",
"$ 	c #AE513B",
"% 	c #AD4E39",
"& 	c #AB4D38",
"* 	c #A84B38",
"= 	c #A64936",
"- 	c #A44836",
"; 	c #A34636",
"> 	c #A04533",
", 	c #9F4433",
"' 	c #9D4131",
") 	c #9B4031",
"! 	c #993D30",
"~ 	c #963A2E",
"{ 	c #705653",
"] 	c #824434",
"^ 	c #E65B3A",
"/ 	c #E25939",
"( 	c #BA482D",
"_ 	c #864D26",
": 	c #875628",
"< 	c #845527",
"[ 	c #845426",
"} 	c #815123",
"| 	c #805121",
"1 	c #7E4F20",
"2 	c #7B4C1F",
"3 	c #773D1B",
"4 	c #AB3421",
"5 	c #BD3723",
"6 	c #BA3622",
"7 	c #6D4742",
"8 	c #7F4334",
"9 	c #E35939",
"0 	c #E05636",
"a 	c #9E3C26",
"b 	c #C8BD49",
"c 	c #F1F15A",
"d 	c #F0F057",
"e 	c #EDED53",
"f 	c #B6B33C",
"g 	c #D2D445",
"h 	c #E9E948",
"i 	c #E6E645",
"j 	c #E5E542",
"k 	c #A8972C",
"l 	c #9B2D1C",
"m 	c #B73321",
"n 	c #7E4233",
"o 	c #DD5335",
"p 	c #9C3A24",
"q 	c #CCC14A",
"r 	c #FAFA5A",
"s 	c #F7F756",
"t 	c #E5E44B",
"u 	c #54511B",
"v 	c #84872A",
"w 	c #EEEF47",
"x 	c #EEEE44",
"y 	c #EDED40",
"z 	c #AC9C2B",
"A 	c #982C1C",
"B 	c #B4301E",
"C 	c #6C4641",
"D 	c #7D4133",
"E 	c #DA5232",
"F 	c #993924",
"G 	c #CBC148",
"H 	c #F6F652",
"I 	c #C7C640",
"J 	c #888529",
"K 	c #3A3D12",
"L 	c #D8D93F",
"M 	c #ECEC40",
"N 	c #EAEA3D",
"O 	c #AB9B29",
"P 	c #962A1B",
"Q 	c #B12D1D",
"R 	c #6B4541",
"S 	c #7C4032",
"T 	c #D74F32",
"U 	c #983723",
"V 	c #C9BE44",
"W 	c #F1F04E",
"X 	c #A9A833",
"Y 	c #ABAC33",
"Z 	c #2C2B0D",
"` 	c #A2A32D",
" .	c #EAEA38",
"..	c #A99825",
"+.	c #942718",
"@.	c #AE2A1A",
"#.	c #6A4440",
"$.	c #D44C30",
"%.	c #963420",
"&.	c #C8BD40",
"*.	c #F3F34F",
"=.	c #E9E949",
"-.	c #90902C",
";.	c #C3C337",
">.	c #71711E",
",.	c #595B18",
"'.	c #E4E437",
").	c #E7E735",
"!.	c #A79723",
"~.	c #912517",
"{.	c #AB271A",
"].	c #694340",
"^.	c #7B3D32",
"/.	c #D1492E",
"(.	c #933220",
"_.	c #C7BC3E",
":.	c #ECEA4A",
"<.	c #A3A231",
"[.	c #8D902B",
"}.	c #E7E73F",
"|.	c #9F9E27",
"1.	c #2A290A",
"2.	c #B6B82B",
"3.	c #E6E631",
"4.	c #A79620",
"5.	c #902216",
"6.	c #A92619",
"7.	c #69433F",
"8.	c #773B31",
"9.	c #CE462E",
"0.	c #91321F",
"a.	c #C4BA3C",
"b.	c #EDED46",
"c.	c #DEDE3F",
"d.	c #DDDD3C",
"e.	c #E8E83D",
"f.	c #DEDE34",
"g.	c #D5D530",
"h.	c #DADA2E",
"i.	c #E3E32D",
"j.	c #A3931E",
"k.	c #8C2016",
"l.	c #A82618",
"m.	c #A52316",
"n.	c #68423F",
"o.	c #763B31",
"p.	c #CF472E",
"q.	c #CB452B",
"r.	c #902F1E",
"s.	c #C4B938",
"t.	c #EEEE45",
"u.	c #E8E83F",
"v.	c #B0B02D",
"w.	c #949425",
"x.	c #9A9D25",
"y.	c #C9CA2C",
"z.	c #E2E229",
"A.	c #A3931B",
"B.	c #8B2013",
"C.	c #A62416",
"D.	c #A32115",
"E.	c #67423E",
"F.	c #763A30",
"G.	c #C8422A",
"H.	c #8C2D1D",
"I.	c #C0B635",
"J.	c #E8E83C",
"K.	c #BBB82B",
"L.	c #A1A124",
"M.	c #A6A923",
"N.	c #CBCC29",
"O.	c #E2E228",
"P.	c #DFDF25",
"Q.	c #A19118",
"R.	c #871C12",
"S.	c #A22115",
"T.	c #A01D12",
"U.	c #66413E",
"V.	c #753A2D",
"W.	c #C9432A",
"X.	c #C64028",
"Y.	c #8B2C1C",
"Z.	c #C0B533",
"`.	c #EBEB3D",
" +	c #DBD935",
".+	c #969622",
"++	c #B2B226",
"@+	c #B0B023",
"#+	c #AFAF21",
"$+	c #DCDC25",
"%+	c #DEDE21",
"&+	c #9F8F16",
"*+	c #861B11",
"=+	c #A01E12",
"-+	c #9D1B12",
";+	c #66403E",
">+	c #74392D",
",+	c #C63F27",
"'+	c #C23D26",
")+	c #892A1A",
"!+	c #BFB42F",
"~+	c #B5B329",
"{+	c #959520",
"]+	c #BDBC25",
"^+	c #514F0E",
"/+	c #54570E",
"(+	c #D8D820",
"_+	c #DBDB1E",
":+	c #9E8E15",
"<+	c #821810",
"[+	c #9A1810",
"}+	c #653F3D",
"|+	c #72382C",
"1+	c #C33D26",
"2+	c #C03A26",
"3+	c #872719",
"4+	c #BCB12D",
"5+	c #E2E22D",
"6+	c #AEAB21",
"7+	c #2C2C08",
"8+	c #AFB21A",
"9+	c #DADA1B",
"0+	c #9C8C12",
"a+	c #81160F",
"b+	c #97150E",
"c+	c #643E3D",
"d+	c #70352C",
"e+	c #842618",
"f+	c #BBB129",
"g+	c #E6E630",
"h+	c #C3C224",
"i+	c #3C3B0C",
"j+	c #8D8F16",
"k+	c #D9D91D",
"l+	c #DADA1A",
"m+	c #D8D817",
"n+	c #9A8B0F",
"o+	c #7E140D",
"p+	c #94120C",
"q+	c #633E3C",
"r+	c #6F342B",
"s+	c #832518",
"t+	c #B9AE27",
"u+	c #DDDB28",
"v+	c #615F12",
"w+	c #4D4F0C",
"x+	c #CFCE1A",
"y+	c #D4D417",
"z+	c #D6D613",
"A+	c #9A8A0C",
"B+	c #7C110C",
"C+	c #92110A",
"D+	c #633D3C",
"E+	c #6E332B",
"F+	c #812316",
"G+	c #B8AE24",
"H+	c #A7A41C",
"I+	c #2F2F08",
"J+	c #888A12",
"K+	c #A8A816",
"L+	c #78780D",
"M+	c #CECE12",
"N+	c #D4D410",
"O+	c #99890A",
"P+	c #7A100A",
"Q+	c #900E0A",
"R+	c #623D3C",
"S+	c #6D332B",
"T+	c #7E2016",
"U+	c #A59B1F",
"V+	c #CBCB22",
"W+	c #AFAE1B",
"X+	c #9E9E15",
"Y+	c #9D9D13",
"Z+	c #9D9D11",
"`+	c #A4A40E",
" @	c #BFBF0E",
".@	c #BFBF0A",
"+@	c #8A7A05",
"@@	c #780E09",
"#@	c #8D0B07",
"$@	c #623C3B",
"%@	c #6D322A",
"&@	c #962518",
"*@	c #7A3513",
"=@	c #7B3D12",
"-@	c #793D11",
";@	c #78390E",
">@	c #75390D",
",@	c #75380C",
"'@	c #72350B",
")@	c #71340A",
"!@	c #6F3107",
"~@	c #682306",
"{@	c #830D09",
"]@	c #8E0B07",
"^@	c #8A0A06",
"/@	c #613C3B",
"(@	c #633B36",
"_@	c #8B3126",
":@	c #872F23",
"<@	c #862D23",
"[@	c #842B23",
"}@	c #822921",
"|@	c #802820",
"1@	c #7F261E",
"2@	c #7D241E",
"3@	c #7A221D",
"4@	c #79211C",
"5@	c #761E19",
"6@	c #741E18",
"7@	c #741C18",
"8@	c #711916",
"9@	c #6F1815",
"0@	c #6E1615",
"a@	c #634A4A",
"                                            ",
"    . + @ # $ % & * = - ; > , ' ) ! ~ {     ",
"    ] ^ / ( _ : < [ } | | 1 2 3 4 5 6 7     ",
"    8 9 0 a b c d e f g h i j k l 6 m 7     ",
"    n 0 o p q r s t u v w x y z A m B C     ",
"    D o E F G s H I J K L M N O P B Q R     ",
"    S E T U V H W X Y Z ` N  ...+.Q @.#.    ",
"    S T $.%.&.*.=.-.;.>.,.'.).!.~.@.{.].    ",
"    ^.$./.(._.:.<.[.}.|.1.2.3.4.5.{.6.7.    ",
"    8./.9.0.a.b.c.d.e.f.g.h.i.j.k.l.m.n.    ",
"    o.p.q.r.s.t.u.v.w.x.y.i.z.A.B.C.D.E.    ",
"    F.q.G.H.I.y J.K.L.M.N.O.P.Q.R.S.T.U.    ",
"    V.W.X.Y.Z.`. +.+++@+#+$+%+&+*+=+-+;+    ",
"    >+,+'+)+!+ .~+{+]+^+/+(+_+:+<+-+[+}+    ",
"    |+1+2+3+4+).h.5+6+7+8+_+9+0+a+[+b+c+    ",
"    d+2+5 e+f+g+i.h+i+j+k+l+m+n+o+b+p+q+    ",
"    r+5 6 s+t+i.u+v+w+k+x+y+z+A+B+p+C+D+    ",
"    E+6 m F+G+z.H+I+J+K+L+M+N+O+P+C+Q+R+    ",
"    S+m B T+U+V+W+X+Y+Z+`+ @.@+@@@Q+#@$@    ",
"    %@B Q &@*@=@-@;@>@,@'@)@!@~@{@]@^@/@    ",
"    (@_@:@<@[@}@|@1@2@3@4@5@6@7@8@9@0@a@    ",
"                                            "};
