/* XPM */
static char * SP_Drucken_xpm[] = {
"22 22 210 2",
"  	c None",
". 	c #ACACAD",
"+ 	c #CCCECF",
"@ 	c #CACDCF",
"# 	c #C8CCCF",
"$ 	c #C5CBCF",
"% 	c #C4CACF",
"& 	c #C2C9CF",
"* 	c #C0C8CF",
"= 	c #BDC6CF",
"- 	c #8D9298",
"; 	c #C4C6C7",
"> 	c #F7FBFF",
", 	c #F3F9FF",
"' 	c #F0F8FF",
") 	c #EDF6FF",
"! 	c #EAF5FF",
"~ 	c #E6F3FF",
"{ 	c #E3F1FF",
"] 	c #E0F0FF",
"^ 	c #AEBAC5",
"/ 	c #AAB5BF",
"( 	c #878B8E",
"_ 	c #C2C5C7",
": 	c #F4F9FF",
"< 	c #EDF7FF",
"[ 	c #DDEEFF",
"} 	c #AAB9C7",
"| 	c #C7DEF3",
"1 	c #9EB1C4",
"2 	c #83868A",
"3 	c #C1C4C7",
"4 	c #E2E9EF",
"5 	c #D3DBE2",
"6 	c #D5DEE6",
"7 	c #DEEAF6",
"8 	c #C8D8E8",
"9 	c #A0AFBF",
"0 	c #94A7B8",
"a 	c #8CA1B6",
"b 	c #7C8A97",
"c 	c #BEC3C7",
"d 	c #A2A6A9",
"e 	c #7D8186",
"f 	c #999FA5",
"g 	c #B2BBC5",
"h 	c #DCEEFF",
"i 	c #DAEDFF",
"j 	c #949EA9",
"k 	c #94A5B5",
"l 	c #9FACB9",
"m 	c #B5CDE4",
"n 	c #BBD1E7",
"o 	c #808080",
"p 	c #BDC2C7",
"q 	c #DCE6EF",
"r 	c #979FA6",
"s 	c #C3CFDB",
"t 	c #B7C0C8",
"u 	c #86909A",
"v 	c #909FAC",
"w 	c #C2D5E8",
"x 	c #C9DDF2",
"y 	c #74818D",
"z 	c #96A8BB",
"A 	c #C7E2FD",
"B 	c #B9D1E7",
"C 	c #BBC1C7",
"D 	c #DEE9F5",
"E 	c #7A7F84",
"F 	c #A4ADB5",
"G 	c #CBDAE7",
"H 	c #77848F",
"I 	c #B6C7D9",
"J 	c #C5DAEF",
"K 	c #BED4E8",
"L 	c #96A8B9",
"M 	c #6F7F8F",
"N 	c #BBD7F3",
"O 	c #B6CFE7",
"P 	c #B9C0C7",
"Q 	c #DEECF9",
"R 	c #BCC8D4",
"S 	c #C3D1DF",
"T 	c #C7D7E5",
"U 	c #788592",
"V 	c #B8CCDF",
"W 	c #C2D8EF",
"X 	c #95A1AB",
"Y 	c #B3CCE4",
"Z 	c #8E9FAF",
"` 	c #8F98A1",
" .	c #AEC5DC",
"..	c #B7BFC7",
"+.	c #D9EDFF",
"@.	c #BAC9D7",
"#.	c #818E9B",
"$.	c #8494A2",
"%.	c #ABC1D7",
"&.	c #C9E4FF",
"*.	c #C6E3FF",
"=.	c #C2E1FF",
"-.	c #BFDFFF",
";.	c #B1CCE7",
">.	c #7D7F7F",
",.	c #6B6C6D",
"'.	c #939AA2",
").	c #AFBBC6",
"!.	c #ADBAC6",
"~.	c #AAB8C5",
"{.	c #A4B3C1",
"].	c #9DACBA",
"^.	c #9AAABA",
"/.	c #9DB0C1",
"(.	c #9DB1C4",
"_.	c #9BB0C3",
":.	c #98AEC3",
"<.	c #96ACC2",
"[.	c #879BAE",
"}.	c #636465",
"|.	c #787878",
"1.	c #7A7A7A",
"2.	c #ADADAD",
"3.	c #C2C2C2",
"4.	c #BFBFBF",
"5.	c #BDBDBD",
"6.	c #BABABA",
"7.	c #B8B8B8",
"8.	c #B5B5B5",
"9.	c #B3B3B3",
"0.	c #B0B0B0",
"a.	c #AEAEAE",
"b.	c #ABABAB",
"c.	c #A9A9A9",
"d.	c #A6A6A6",
"e.	c #8B8B8B",
"f.	c #828282",
"g.	c #A8A8A8",
"h.	c #969696",
"i.	c #989898",
"j.	c #A0A0A0",
"k.	c #9F9F9F",
"l.	c #9E9E9E",
"m.	c #9D9D9D",
"n.	c #9C9C9C",
"o.	c #959595",
"p.	c #C0C0C0",
"q.	c #D3D3D3",
"r.	c #A3A3A3",
"s.	c #A2A2A2",
"t.	c #E6E6E6",
"u.	c #CBCBCB",
"v.	c #979797",
"w.	c #848484",
"x.	c #949594",
"y.	c #89AF89",
"z.	c #87A787",
"A.	c #B1A1A5",
"B.	c #9A8087",
"C.	c #CFCFCF",
"D.	c #CDCDCD",
"E.	c #C9C9C9",
"F.	c #C7C7C7",
"G.	c #C5C5C5",
"H.	c #C3C3C3",
"I.	c #C1C1C1",
"J.	c #B7B7B7",
"K.	c #BCBCBC",
"L.	c #8F928F",
"M.	c #54B654",
"N.	c #52A552",
"O.	c #B78491",
"P.	c #9E4C60",
"Q.	c #D8D8D8",
"R.	c #D6D6D6",
"S.	c #D4D4D4",
"T.	c #D2D2D2",
"U.	c #C8C8C8",
"V.	c #C6C6C6",
"W.	c #C4C4C4",
"X.	c #BEBEBE",
"Y.	c #DADADA",
"Z.	c #9C9D9C",
"`.	c #C9D3C9",
" +	c #C7CFC7",
".+	c #D1CDCE",
"++	c #CAC1C3",
"@+	c #D1D1D1",
"#+	c #D7D7D7",
"$+	c #DDDDDD",
"%+	c #DBDBDB",
"&+	c #B4B4B4",
"*+	c #B2B2B2",
"=+	c #9B9B9B",
"-+	c #949494",
";+	c #D9D9D9",
">+	c #D0D0D0",
",+	c #7C7C7C",
"'+	c #6E6E6E",
")+	c #676767",
"!+	c #6B6B6B",
"~+	c #6D6D6D",
"{+	c #636363",
"]+	c #616161",
"^+	c #6A6A6A",
"/+	c #737373",
"(+	c #898989",
"_+	c #B6B6B6",
":+	c #B1B1B1",
"<+	c #A1A1A1",
"                                            ",
"      . + @ # $ % & * = -                   ",
"      ; > , ' ) ! ~ { ] ^ / (               ",
"      _ : ' < ! ~ { ] [ } | 1 2             ",
"      3 4 5 6 7 { ] [ 8 9 0 a b             ",
"      c d e f g ] h i j k l m n o           ",
"      p q r s t u v w x y z A B o           ",
"      C D E F G H I J K L M N O o           ",
"      P Q R S T U V W X Y Z `  .o           ",
"    o ..] h +.@.#.$.%.&.*.=.-.;.>.          ",
"    ,.'.).!.~.{.].^./.(._.:.<.[.}.          ",
"  |.1.2.3.4.5.6.7.8.9.0.a.b.c.d.e.f.        ",
"  g.h.i.j.j.k.k.k.l.l.l.m.m.m.n.m.m.o.      ",
"  p.q.r.0.9.9.9.9.9.9.9.9.9.9.9.9.9.s.m.    ",
"  p.t.u.v.o.o.o.o.o.o.o.o.o.o.o.o.o.o.w.    ",
"  p.t.t.x.y.z.A.B.C.D.u.E.F.G.H.I.4.5.J.1.  ",
"  K.t.t.L.M.N.O.P.Q.R.S.T.C.D.u.U.V.W.X.o   ",
"  j.Y.t.Z.`. +.+++R.S.@+C.D.u.U.V.W.3.K.o   ",
"    c.#+l.$+%+Q.R.S.T.K.J.&+9.*+a.b.b.c.o   ",
"      =+-+%+;+R.S.@+>+,+'+)+!+~+{+]+^+/+o   ",
"        (+7._+8.9.*+:+<+l.n.=+=+i.v.v.h.o   ",
"                                            "};
