/* XPM */
static char * SP_Hilfe_xpm[] = {
"22 22 298 2",
"  	c None",
". 	c #ADADAE",
"+ 	c #8D9095",
"@ 	c #BCC1C6",
"# 	c #CAD1D8",
"$ 	c #C5CCD5",
"% 	c #C4CDD6",
"& 	c #C5D0D9",
"* 	c #B4BBC4",
"= 	c #90949A",
"- 	c #A2A2A3",
"; 	c #999CA1",
"> 	c #C4C9D0",
", 	c #E5EFF7",
"' 	c #E7F3FC",
") 	c #E6F2FE",
"! 	c #E5F2FE",
"~ 	c #E2F2FE",
"{ 	c #DFEFFE",
"] 	c #DAECFB",
"^ 	c #D5E8F8",
"/ 	c #B0BFCE",
"( 	c #8B949D",
"_ 	c #B8BBC0",
": 	c #DCE3EA",
"< 	c #ECF6FE",
"[ 	c #E9F5FE",
"} 	c #CEDBE5",
"| 	c #9CB0C5",
"1 	c #85A2C1",
"2 	c #86A0C0",
"3 	c #99ACC4",
"4 	c #C5D8E8",
"5 	c #D9EDFE",
"6 	c #D5EAFE",
"7 	c #C0D4E7",
"8 	c #A5AFBA",
"9 	c #B1B6B9",
"0 	c #E3EBF3",
"a 	c #EBF5FD",
"b 	c #CAD9E5",
"c 	c #658EB6",
"d 	c #2272C8",
"e 	c #1A7CED",
"f 	c #217BEA",
"g 	c #2376EA",
"h 	c #1E6EEA",
"i 	c #2762C2",
"j 	c #6A89BB",
"k 	c #BAD2E9",
"l 	c #D0E8FE",
"m 	c #C4DAF1",
"n 	c #A6B3BE",
"o 	c #979C9F",
"p 	c #BACBDC",
"q 	c #3A7ABB",
"r 	c #0877ED",
"s 	c #3E98FA",
"t 	c #93C3FC",
"u 	c #B2D2FC",
"v 	c #B4D2FC",
"w 	c #9BC0FB",
"x 	c #508CF5",
"y 	c #1358E2",
"z 	c #3F68BC",
"A 	c #A6BEDB",
"B 	c #CBE6FE",
"C 	c #B9D2E9",
"D 	c #8B96A4",
"E 	c #A8A9AA",
"F 	c #C8CFD6",
"G 	c #CADAE7",
"H 	c #3A7DC1",
"I 	c #0A7CF2",
"J 	c #55A3FB",
"K 	c #D9EAFD",
"L 	c #F8FAFE",
"M 	c #E8F0FD",
"N 	c #E5EDFD",
"O 	c #F4F7FE",
"P 	c #749AF7",
"Q 	c #1750E6",
"R 	c #3E5FB9",
"S 	c #B1CBE7",
"T 	c #C6E2FE",
"U 	c #A5BBCF",
"V 	c #9FA0A2",
"W 	c #989BA0",
"X 	c #E6F0F8",
"Y 	c #E8F4FD",
"Z 	c #648EB8",
"` 	c #0678EE",
" .	c #1B84F9",
"..	c #CCE3FD",
"+.	c #FBFCFE",
"@.	c #9EC2FA",
"#.	c #307AF5",
"$.	c #236CF3",
"%.	c #77A0F7",
"&.	c #E7EEFD",
"*.	c #3060EF",
"=.	c #1241DD",
"-.	c #617AB4",
";.	c #C3E2FE",
">.	c #BEDCF8",
",.	c #858F9A",
"'.	c #BFC4C9",
").	c #E8F3FC",
"!.	c #C7D3DE",
"~.	c #2073CB",
"{.	c #0879F8",
"].	c #2081F7",
"^.	c #BAD5FD",
"/.	c #CFE0FD",
"(.	c #2A76F5",
"_.	c #0E60F2",
":.	c #0E5AF2",
"<.	c #1F60F2",
"[.	c #F1F4FD",
"}.	c #FEFEFE",
"|.	c #496EEF",
"1.	c #1641EA",
"2.	c #2A47BD",
"3.	c #B1CFE9",
"4.	c #BEDEFC",
"5.	c #A4B7C7",
"6.	c #CAD2D8",
"7.	c #95AAC2",
"8.	c #1277EB",
"9.	c #0A73F6",
"0.	c #0A6DF6",
"a.	c #0B67F5",
"b.	c #0D63F2",
"c.	c #0E5FF2",
"d.	c #1B5CF1",
"e.	c #799EF6",
"f.	c #E8ECFC",
"g.	c #3357EE",
"h.	c #163BEA",
"i.	c #1E3BDF",
"j.	c #839AC0",
"k.	c #BDDEFE",
"l.	c #A6BED5",
"m.	c #C4CED6",
"n.	c #7C9DC0",
"o.	c #0E6FE9",
"p.	c #0A68F5",
"q.	c #0D63F3",
"r.	c #1055F0",
"s.	c #8AA9F6",
"t.	c #ECF2FD",
"u.	c #F4F6FD",
"v.	c #8299F4",
"w.	c #1C40EA",
"x.	c #1635EA",
"y.	c #1C33DC",
"z.	c #6F88BE",
"A.	c #BADEFE",
"B.	c #A1BCD6",
"C.	c #C3CCD5",
"D.	c #7B9AC0",
"E.	c #0E69E9",
"F.	c #0D62F2",
"G.	c #0E59F2",
"H.	c #1557F0",
"I.	c #83A5F6",
"J.	c #EAEEFC",
"K.	c #6D85F3",
"L.	c #173CEA",
"M.	c #192FE7",
"N.	c #1D2EDB",
"O.	c #6E86BD",
"P.	c #B7DBFE",
"Q.	c #A0BBD6",
"R.	c #C4D0D9",
"S.	c #8EA6C3",
"T.	c #1368E9",
"U.	c #1054F0",
"V.	c #2F65F0",
"W.	c #CDD9FB",
"X.	c #F2F5FD",
"Y.	c #7E94F3",
"Z.	c #193DEA",
"`.	c #182FE8",
" +	c #1A2BE6",
".+	c #202FDA",
"++	c #7B94BC",
"@+	c #B6DAFE",
"#+	c #A0BCD5",
"$+	c #BAC3CD",
"%+	c #DBEDFD",
"&+	c #BCCDDC",
"*+	c #2162CC",
"=+	c #124EEE",
"-+	c #3966F0",
";+	c #BBC9F9",
">+	c #BBC6F9",
",+	c #3B59EE",
"'+	c #1A2AE6",
")+	c #1A27E6",
"!+	c #2933BC",
"~+	c #A2C4E4",
"{+	c #B1D8FC",
"]+	c #9EB4C9",
"^+	c #8E949C",
"/+	c #D7EBFE",
"(+	c #5779B3",
"_+	c #0E56E9",
":+	c #1249EE",
"<+	c #2755F0",
"[+	c #6E89F4",
"}+	c #6D83F2",
"|+	c #2844EB",
"1+	c #1921D9",
"2+	c #5567AF",
"3+	c #B2DAFE",
"4+	c #ACD3F8",
"5+	c #7C8B9A",
"6+	c #98989A",
"7+	c #B9C8D7",
"8+	c #D6EAFE",
"9+	c #B2C7E1",
"0+	c #305AB5",
"a+	c #124DEA",
"b+	c #1248EE",
"c+	c #1345ED",
"d+	c #4064EF",
"e+	c #CFD7FB",
"f+	c #CAD1F9",
"g+	c #3D4FEB",
"h+	c #1B22DF",
"i+	c #3540B0",
"j+	c #9ABCE4",
"k+	c #B0D8FE",
"l+	c #96B5D3",
"m+	c #A4A6A8",
"n+	c #989FA5",
"o+	c #C7DCEE",
"p+	c #CFE7FD",
"q+	c #9FB7D7",
"r+	c #3154B8",
"s+	c #1342E4",
"t+	c #1641EB",
"u+	c #3F5EEE",
"v+	c #C7CEFA",
"w+	c #C2C7F8",
"x+	c #3C4AEA",
"y+	c #1A21DC",
"z+	c #343EB1",
"A+	c #8DABD5",
"B+	c #AFD7FD",
"C+	c #A1C5EA",
"D+	c #7C91A6",
"E+	c #A7B3BF",
"F+	c #C7DEF5",
"G+	c #CBE5FD",
"H+	c #A8C2E2",
"I+	c #506AAA",
"J+	c #2443C2",
"K+	c #233FDE",
"L+	c #384BDF",
"M+	c #3845DD",
"N+	c #2533DB",
"O+	c #2833BF",
"P+	c #5163AF",
"Q+	c #99BBE4",
"R+	c #A8CEF4",
"S+	c #96ABC1",
"T+	c #A3B2BF",
"U+	c #BCD5ED",
"V+	c #C2E0FC",
"W+	c #A6C0DA",
"X+	c #7A90BC",
"Y+	c #6980BD",
"Z+	c #687EBC",
"`+	c #768EBC",
" @	c #9DBEE0",
".@	c #B2D9FE",
"+@	c #A2C7EC",
"@@	c #95ABBF",
"#@	c #949EA9",
"$@	c #ADC6DF",
"%@	c #BEDDF8",
"&@	c #BFDFFD",
"*@	c #B2D9FD",
"=@	c #ADD4F8",
"-@	c #9ABADB",
";@	c #7D92A8",
">@	c #979C9E",
",@	c #8794A2",
"'@	c #A7BBCE",
")@	c #A3BDD5",
"!@	c #9FBCD7",
"~@	c #9FBBD6",
"{@	c #9FBAD5",
"]@	c #A0B7CE",
"^@	c #8191A0",
"/@	c #A1A3A5",
"                                            ",
"            . + @ # $ % & * = -             ",
"          ; > , ' ) ! ~ { ] ^ / (           ",
"        _ : < [ } | 1 2 3 4 5 6 7 8         ",
"      9 0 a b c d e f g h i j k l m n       ",
"    o : a p q r s t u v w x y z A B C D     ",
"  E F < G H I J K L M N O N P Q R S T U V   ",
"  W X Y Z `  ...+.@.#.$.%.L &.*.=.-.;.>.,.  ",
"  '.).!.~.{.].^./.(._.:.<.[.}.|.1.2.3.4.5.  ",
"  6.) 7.8.9.0.a.b.c.:.d.e.L f.g.h.i.j.k.l.  ",
"  m.! n.o.0.p.q._.:.r.s.t.u.v.w.x.y.z.A.B.  ",
"  C.~ D.E.a.F.c.G.H.I.}.J.K.L.x.M.N.O.P.Q.  ",
"  R.{ S.T.q.c.:.U.V.W.X.Y.Z.x.`. +.+++@+#+  ",
"  $+%+&+*+c.:.U.=+-+;+>+,+x.M.'+)+!+~+{+]+  ",
"  ^+^ /+(+_+U.=+:+<+[+}+|+M. +)+1+2+3+4+5+  ",
"  6+7+8+9+0+a+b+c+d+e+f+g+'+)+h+i+j+k+l+m+  ",
"    n+o+p+q+r+s+t+u+v+w+x+)+y+z+A+B+C+D+    ",
"      E+F+G+H+I+J+K+L+M+N+O+P+Q+B+R+S+      ",
"        T+U+T V+W+X+Y+Z+`+ @.@k++@@@        ",
"          #@$@%@&@k.A.P.@+*@=@-@;@          ",
"            >@,@'@)@!@~@{@]@^@/@            ",
"                                            "};
