/* XPM */
static char * SP_Info_xpm[] = {
"22 22 137 2",
"  	c None",
". 	c #A4A4A4",
"+ 	c #9F9F9F",
"@ 	c #959595",
"# 	c #9B9B9B",
"$ 	c #9A9A9A",
"% 	c #A1A1A1",
"& 	c #8E8E8E",
"* 	c #B1B1B1",
"= 	c #C6C6C6",
"- 	c #DFDFDF",
"; 	c #E3E3E3",
"> 	c #E4E4E4",
", 	c #DEDEDE",
"' 	c #C4C4C4",
") 	c #B2B2B2",
"! 	c #8F8F8F",
"~ 	c #D2D2D2",
"{ 	c #E0E0E0",
"] 	c #E6E6E6",
"^ 	c #DDE1E6",
"/ 	c #A6C1E3",
"( 	c #A3BEE1",
"_ 	c #DBE0E6",
": 	c #D4D4D4",
"< 	c #9D9D9D",
"[ 	c #A3A3A3",
"} 	c #DBDBDB",
"| 	c #E2E2E2",
"1 	c #E5E5E5",
"2 	c #E8E8E8",
"3 	c #E9E9E9",
"4 	c #9FBDE4",
"5 	c #0F66D6",
"6 	c #0D60D2",
"7 	c #9AB7E1",
"8 	c #E7E7E7",
"9 	c #DADADA",
"0 	c #A9A9A9",
"a 	c #D8D8D8",
"b 	c #EBEBEB",
"c 	c #ECEDED",
"d 	c #A0BEE5",
"e 	c #1262D3",
"f 	c #115CCE",
"g 	c #9CB7E2",
"h 	c #ECECEC",
"i 	c #EAEAEA",
"j 	c #E1E1E1",
"k 	c #D7D7D7",
"l 	c #989898",
"m 	c #848484",
"n 	c #EEEEEE",
"o 	c #F0F0F0",
"p 	c #E7EBF1",
"q 	c #A4BEE7",
"r 	c #7EA1DE",
"s 	c #D5DEED",
"t 	c #EDEDED",
"u 	c #D0D0D0",
"v 	c #AEAEAE",
"w 	c #CDD8EC",
"x 	c #789DDD",
"y 	c #527FD4",
"z 	c #3063C9",
"A 	c #B0C1E5",
"B 	c #F2F2F2",
"C 	c #EFEFEF",
"D 	c #BCBCBC",
"E 	c #A6BDE5",
"F 	c #1351C6",
"G 	c #0340BE",
"H 	c #0C41BC",
"I 	c #A8B8E3",
"J 	c #F5F5F5",
"K 	c #F1F1F1",
"L 	c #B9B9B9",
"M 	c #E2E7F1",
"N 	c #87A2DD",
"O 	c #0D40BC",
"P 	c #0C3AB7",
"Q 	c #A8B7E1",
"R 	c #BDBDBD",
"S 	c #ACBBE3",
"T 	c #103AB6",
"U 	c #0C31B1",
"V 	c #A8B3DF",
"W 	c #F4F4F4",
"X 	c #B3B3B3",
"Y 	c #DCDCDC",
"Z 	c #F3F3F3",
"` 	c #ABB7E0",
" .	c #1033B1",
"..	c #0C2AAC",
"+.	c #A6AFDC",
"@.	c #AFAFAF",
"#.	c #7D7D7D",
"$.	c #D3D3D3",
"%.	c #EDEEEF",
"&.	c #A2ACDA",
"*.	c #0E2AAB",
"=.	c #0A20A5",
"-.	c #9CA2D4",
";.	c #EDEDEF",
">.	c #868686",
",.	c #B9BFDD",
"'.	c #3F51B7",
").	c #061BA3",
"!.	c #04139D",
"~.	c #3B42AD",
"{.	c #AEAFD5",
"].	c #AAAAAA",
"^.	c #A5ACD4",
"/.	c #2B3AAC",
"(.	c #2B36AA",
"_.	c #2B32A6",
":.	c #2B2DA3",
"<.	c #9797CA",
"[.	c #DDDDDD",
"}.	c #B0B0B0",
"|.	c #E3E4E5",
"1.	c #E0E1E5",
"2.	c #E1E1E6",
"3.	c #E0E0E5",
"4.	c #E3E3E5",
"5.	c #B7B7B7",
"6.	c #9C9C9C",
"7.	c #C8C8C8",
"8.	c #BFBFBF",
"9.	c #8C8C8C",
"0.	c #BABABA",
"a.	c #BBBBBB",
"b.	c #C5C5C5",
"c.	c #A0A0A0",
"d.	c #979797",
"e.	c #838383",
"f.	c #878787",
"                                            ",
"                                            ",
"              . + @ # $ @ + %               ",
"          & * = - ; > > ; , ' ) !           ",
"      * % ~ { > ] ^ / ( _ ] > { : < %       ",
"    [ * } | 1 2 3 4 5 6 7 3 8 1 | 9 0 %     ",
"    # a | 1 2 b c d e f g h i 2 1 j k l     ",
"  m ~ { > 8 i n o p q r s o t i 8 ; { u m   ",
"  v } j 1 3 h o w x y z A B C h 2 1 j 9 [   ",
"  D , | ] i t B E F G H I J K t i ] | , L   ",
"  L - ; ] i n B M N O P Q J K n i ] | , D   ",
"  R , | ] i n B J S T U V W K t 3 ] | , L   ",
"  X Y j 1 3 h o Z `  ...+.Z o h 3 1 j Y @.  ",
"  #.$.{ > 8 b n %.&.*.=.-.;.t i 8 ; { $.>.  ",
"    0 , | 1 3 b ,.'.).!.~.{.b 2 1 | , ].    ",
"      ) , ; ] 2 ^./.(._.:.<.2 1 ; [.}.      ",
"      & v Y ; 1 |.1.2.2.3.4.1 | { 5.        ",
"          6.7.k { > > > > { k Y [.8.        ",
"              9.0.a.D 0.L 5.! }.b.: c.      ",
"                                d.# ].      ",
"                                    e.f.    ",
"                                            "};
