/* XPM */
static char * SP_Menue_xpm[] = {
"22 22 272 2",
"  	c None",
". 	c #5D5D7A",
"+ 	c #5A5A7A",
"@ 	c #93949C",
"# 	c #9296A6",
"$ 	c #A0A0A3",
"% 	c #0A0A76",
"& 	c #070783",
"* 	c #07077F",
"= 	c #94949C",
"- 	c #949471",
"; 	c #B2B2A0",
"> 	c #E4E5E6",
", 	c #EAEAEB",
"' 	c #EAEBEC",
") 	c #E9E9EA",
"! 	c #E9EAEB",
"~ 	c #E5E6E7",
"{ 	c #9FA2AF",
"] 	c #070579",
"^ 	c #040287",
"/ 	c #040284",
"( 	c #86868B",
"_ 	c #838336",
": 	c #8C8C57",
"< 	c #D0D0D1",
"[ 	c #D3D3D3",
"} 	c #C0BFBF",
"| 	c #C2C2C2",
"1 	c #CECECD",
"2 	c #CFCFCE",
"3 	c #CACACA",
"4 	c #C9CACA",
"5 	c #989CAA",
"6 	c #090581",
"7 	c #06028F",
"8 	c #06028A",
"9 	c #9A9AAA",
"0 	c #A5A9A1",
"a 	c #DFE0DB",
"b 	c #F7F7F7",
"c 	c #F5F5F5",
"d 	c #F6F6F6",
"e 	c #F9F9F9",
"f 	c #F8F8F8",
"g 	c #F4F4F4",
"h 	c #A1A4B2",
"i 	c #16128A",
"j 	c #342EA6",
"k 	c #080290",
"l 	c #9598AB",
"m 	c #A2B3C2",
"n 	c #D4D7DB",
"o 	c #D1D1D1",
"p 	c #C8C8C8",
"q 	c #CACCCD",
"r 	c #D5D3D4",
"s 	c #C4C4C5",
"t 	c #D4D4D5",
"u 	c #C7C6C7",
"v 	c #979AA8",
"w 	c #272297",
"x 	c #807ACC",
"y 	c #21179E",
"z 	c #9595AA",
"A 	c #8B92A5",
"B 	c #CFD0D8",
"C 	c #F2F2F2",
"D 	c #ECECEC",
"E 	c #EBECEC",
"F 	c #EFEEEE",
"G 	c #E8E8E9",
"H 	c #EBEBEB",
"I 	c #EFEFF0",
"J 	c #EFEEEF",
"K 	c #9FA3B0",
"L 	c #261D9D",
"M 	c #7970CB",
"N 	c #251AA6",
"O 	c #76749E",
"P 	c #3232AA",
"Q 	c #61619F",
"R 	c #E0E0E0",
"S 	c #DFDFE0",
"T 	c #DCDBDB",
"U 	c #D9D9D9",
"V 	c #E1E0E1",
"W 	c #E0E0E1",
"X 	c #F2F2F3",
"Y 	c #D1D0D1",
"Z 	c #150A99",
"` 	c #5147BF",
" .	c #2114AA",
"..	c #7978A1",
"+.	c #5555C3",
"@.	c #6565A7",
"#.	c #D9D9DA",
"$.	c #D2D1D1",
"%.	c #D2D2D2",
"&.	c #D6D5D5",
"*.	c #CDCDCD",
"=.	c #E0E2E2",
"-.	c #DCDBDD",
";.	c #9A9DAC",
">.	c #13059D",
",.	c #8179D5",
"'.	c #291AB0",
").	c #AEACC0",
"!.	c #AFB6BC",
"~.	c #A8B0B8",
"{.	c #F4F5F5",
"].	c #F2F2F1",
"^.	c #FEFEFE",
"/.	c #FCFCFB",
"(.	c #DBDADA",
"_.	c #9A9DAB",
":.	c #1405A1",
"<.	c #8076D7",
"[.	c #2B1AB5",
"}.	c #B4ADC2",
"|.	c #A9A4AE",
"1.	c #94A0AD",
"2.	c #DADBDB",
"3.	c #C2C1C2",
"4.	c #CAC9C9",
"5.	c #B9BABA",
"6.	c #DADADA",
"7.	c #FBFBFA",
"8.	c #D5D6D6",
"9.	c #999DAA",
"0.	c #1A09A5",
"a.	c #8C82DE",
"b.	c #3422BC",
"c.	c #B3AFC5",
"d.	c #CCCACD",
"e.	c #D9D9DB",
"f.	c #A3A6B4",
"g.	c #1F0BAD",
"h.	c #8F84E2",
"i.	c #3724C1",
"j.	c #8587A2",
"k.	c #335F98",
"l.	c #536B95",
"m.	c #DDDCDD",
"n.	c #EAE9EA",
"o.	c #E8E6E7",
"p.	c #E8E8E8",
"q.	c #1D08AE",
"r.	c #8B7FE2",
"s.	c #341FC4",
"t.	c #8A8AA6",
"u.	c #3C5A97",
"v.	c #596891",
"w.	c #CACAC9",
"x.	c #C5C5C6",
"y.	c #CCCCCC",
"z.	c #DDDBDC",
"A.	c #F6F6F7",
"B.	c #2C1AB8",
"C.	c #9A8EE7",
"D.	c #3821CA",
"E.	c #B0ADC4",
"F.	c #AEAFAF",
"G.	c #B5B7B8",
"H.	c #FCFCFD",
"I.	c #FDFDFE",
"J.	c #3019BF",
"K.	c #9E91EB",
"L.	c #351BCE",
"M.	c #A0A0BC",
"N.	c #8CAAC7",
"O.	c #96B4CF",
"P.	c #D0CECE",
"Q.	c #C2C2C3",
"R.	c #C1C1C1",
"S.	c #CCCACA",
"T.	c #CDCDCC",
"U.	c #F0F0F1",
"V.	c #230EA0",
"W.	c #442FBA",
"X.	c #2109AB",
"Y.	c #848297",
"Z.	c #919AA1",
"`.	c #9DA3A7",
" +	c #CDCCCC",
".+	c #BCBBBB",
"++	c #BEBEBE",
"@+	c #BDBDBE",
"#+	c #C2C2C1",
"$+	c #C5C5C4",
"%+	c #CCCCCD",
"&+	c #8F929A",
"*+	c #9B9BA8",
"=+	c #1EA837",
"-+	c #20AE39",
";+	c #21AE3D",
">+	c #36CB48",
",+	c #41D355",
"'+	c #41D159",
")+	c #3FC057",
"!+	c #2C79B0",
"~+	c #2B6DE4",
"{+	c #2B69E4",
"]+	c #2C63E2",
"^+	c #2E5FE1",
"/+	c #2E59E0",
"(+	c #3052DE",
"_+	c #2A47D7",
":+	c #2E46DD",
"<+	c #3041DB",
"[+	c #313CDA",
"}+	c #3940D0",
"|+	c #6D6DB2",
"1+	c #1DA822",
"2+	c #4A9004",
"3+	c #349419",
"4+	c #20AE32",
"5+	c #22B338",
"6+	c #25BA3F",
"7+	c #26B644",
"8+	c #126CB3",
"9+	c #0E5BF2",
"0+	c #0F55F1",
"a+	c #124FEE",
"b+	c #1249EE",
"c+	c #1440EC",
"d+	c #163AEA",
"e+	c #1634EA",
"f+	c #192EE7",
"g+	c #1A29E6",
"h+	c #1B23E5",
"i+	c #4140C0",
"j+	c #1EAA26",
"k+	c #3D850A",
"l+	c #2B961F",
"m+	c #24BB39",
"n+	c #26BA3F",
"o+	c #27BB47",
"p+	c #29B74B",
"q+	c #1467B4",
"r+	c #0F55F0",
"s+	c #124FED",
"t+	c #1248ED",
"u+	c #1440EB",
"v+	c #163AE9",
"w+	c #1634E9",
"x+	c #192EE6",
"y+	c #1A28E5",
"z+	c #1A23E5",
"A+	c #1D1DE2",
"B+	c #4F4DB8",
"C+	c #9390C1",
"D+	c #52B05F",
"E+	c #4DB461",
"F+	c #4FB364",
"G+	c #4FB165",
"H+	c #4FAE69",
"I+	c #50AC6C",
"J+	c #4FA06C",
"K+	c #4370A6",
"L+	c #4066CB",
"M+	c #4262C9",
"N+	c #425EC9",
"O+	c #445BC7",
"P+	c #4557C6",
"Q+	c #4554C6",
"R+	c #4750C4",
"S+	c #474CC4",
"T+	c #4749C4",
"U+	c #4845C3",
"V+	c #4A42BF",
"W+	c #494295",
"                                            ",
"  . + + @ # # # # # # # # # # $             ",
"  % & * = - ; > , ' ' ) ! ) ~ {             ",
"  ] ^ / ( _ : < [ } | 1 2 3 4 5             ",
"  6 7 8 9 0 a b b c d e f b g h             ",
"  i j k l m n o p q r s p t u v             ",
"  w x y z A B C D E F G H I J K             ",
"  L M N O P Q R S T U V W X Y v             ",
"  Z `  ...+.@.U #.$.%.&.*.=.-.;.            ",
"  >.,.'.).!.~.{.d C ].b ^./.(._.            ",
"  :.<.[.}.|.1.2.3.4.5.6.^.7.8.9.            ",
"  0.a.b.c.d.e.^.^.^.^.^.^.^.^.f.            ",
"  g.h.i.j.k.l.m.n.o.p.p.f ^.^.f.            ",
"  q.r.s.t.u.v.U w.x.y.z.A.^.^.f.            ",
"  B.C.D.E.F.G.g ^.H.I.^.^.^.^.f.            ",
"  J.K.L.M.N.O.*.P.Q.R.S.T.U.^.f.            ",
"  V.W.X.Y.Z.`. +.+++@+#+$+%+%.&+# # # # *+  ",
"  =+-+;+>+,+'+)+!+~+{+]+^+/+(+_+:+<+[+}+|+  ",
"  1+2+3+4+5+6+7+8+9+0+a+b+c+d+e+f+g+h+i+    ",
"  j+k+l+m+n+o+p+q+r+s+t+u+v+w+x+y+z+A+B+C+  ",
"  D+E+F+G+H+I+J+K+L+M+N+O+P+Q+R+S+T+U+V+W+  ",
"                                            "};
