/* XPM */
static char * SP_Neu_xpm[] = {
"22 22 241 2",
"  	c None",
". 	c #96989A",
"+ 	c #CACCCE",
"@ 	c #D0D2D5",
"# 	c #CED1D5",
"$ 	c #CCD0D5",
"% 	c #CAD0D5",
"& 	c #C8CFD5",
"* 	c #C7CED5",
"= 	c #C4CDD5",
"- 	c #C2CCD5",
"; 	c #B3BBC4",
"> 	c #8A8D8F",
", 	c #898C8F",
"' 	c #ECEFF1",
") 	c #F8FBFF",
"! 	c #F5FAFF",
"~ 	c #F2F8FF",
"{ 	c #EFF7FF",
"] 	c #ECF5FF",
"^ 	c #E9F4FF",
"/ 	c #E5F2FF",
"( 	c #E2F1FF",
"_ 	c #CAD7E3",
": 	c #B4BBC3",
"< 	c #A2A9B1",
"[ 	c #EAEDF1",
"} 	c #E6FCD7",
"| 	c #E6FCD2",
"1 	c #EAF7F4",
"2 	c #9399D5",
"3 	c #939BCE",
"4 	c #E0F0FF",
"5 	c #C8D6E3",
"6 	c #B7C2CD",
"7 	c #C6DAEE",
"8 	c #96A4B1",
"9 	c #E7ECF1",
"0 	c #E6FCD9",
"a 	c #E0FFC0",
"b 	c #E4FFC6",
"c 	c #D8FDB4",
"d 	c #CCCEDA",
"e 	c #9D8D98",
"f 	c #9B8A94",
"g 	c #CBD1DA",
"h 	c #C7D6E4",
"i 	c #A7B2BD",
"j 	c #B2C8DE",
"k 	c #9FB8D0",
"l 	c #818B95",
"m 	c #E5EBF1",
"n 	c #E3FBD5",
"o 	c #E8FECF",
"p 	c #EAFBD5",
"q 	c #D7FEB0",
"r 	c #DCE3E6",
"s 	c #CDBDA8",
"t 	c #CBBCA9",
"u 	c #D4DEE5",
"v 	c #D1E3F5",
"w 	c #B5C2CD",
"x 	c #ACBAC7",
"y 	c #ABB9C7",
"z 	c #A4B1BE",
"A 	c #E2E9F1",
"B 	c #E2FAD9",
"C 	c #DAFBB1",
"D 	c #D3EDAC",
"E 	c #DCF4E1",
"F 	c #B3BDCA",
"G 	c #BCBAB6",
"H 	c #C6C4C5",
"I 	c #74759F",
"J 	c #BBCDEF",
"K 	c #D1E8FF",
"L 	c #CEE6FF",
"M 	c #CAE5FF",
"N 	c #BDD5ED",
"O 	c #DFE8F1",
"P 	c #E8F4FF",
"Q 	c #E2F6DA",
"R 	c #D8EADB",
"S 	c #D2E1F6",
"T 	c #1D1C6D",
"U 	c #9291A4",
"V 	c #BBB8BA",
"W 	c #352F7D",
"X 	c #23219A",
"Y 	c #A7BAE8",
"Z 	c #C7E3FF",
"` 	c #BAD4ED",
" .	c #DCE7F1",
"..	c #E5F3FF",
"+.	c #E3F1FF",
"@.	c #B9BDCC",
"#.	c #484890",
"$.	c #151468",
"%.	c #7C7B95",
"&.	c #8583A0",
"*.	c #15116C",
"=.	c #040078",
"-.	c #222097",
";.	c #AFC4F1",
">.	c #C4E2FF",
",.	c #B8D2ED",
"'.	c #D9E6F1",
").	c #DFF0FF",
"!.	c #A1A5B2",
"~.	c #171269",
"{.	c #13116A",
"].	c #4D4B77",
"^.	c #1B178A",
"/.	c #030070",
"(.	c #07007A",
"_.	c #090087",
":.	c #6A64CD",
"<.	c #C1E0FF",
"[.	c #B5D1ED",
"}.	c #D7E4F1",
"|.	c #DDEEFF",
"1.	c #A0A5B3",
"2.	c #251D64",
"3.	c #0C0A76",
"4.	c #262470",
"5.	c #160E85",
"6.	c #2A1F86",
"7.	c #0D018E",
"8.	c #070085",
"9.	c #AAC4F0",
"0.	c #BFDFFF",
"a.	c #B2D0ED",
"b.	c #D4E3F1",
"c.	c #DCEEFF",
"d.	c #DAEDFF",
"e.	c #D7EBFF",
"f.	c #B0BCCD",
"g.	c #040081",
"h.	c #2F2D6E",
"i.	c #080286",
"j.	c #0F0981",
"k.	c #141287",
"l.	c #899CDB",
"m.	c #BEDFFF",
"n.	c #BBDDFF",
"o.	c #AFCEED",
"p.	c #D2E2F1",
"q.	c #D4EAFF",
"r.	c #797475",
"s.	c #060084",
"t.	c #37346E",
"u.	c #060087",
"v.	c #040079",
"w.	c #15157D",
"x.	c #8BA2DA",
"y.	c #BCDDFF",
"z.	c #B9DCFF",
"A.	c #ADCDED",
"B.	c #CFE1F1",
"C.	c #777278",
"D.	c #080280",
"E.	c #1A1774",
"F.	c #24207D",
"G.	c #040080",
"H.	c #06007E",
"I.	c #6B7CC6",
"J.	c #B6DAFF",
"K.	c #AACCED",
"L.	c #CDDFF1",
"M.	c #CDE6FF",
"N.	c #676489",
"O.	c #201977",
"P.	c #181482",
"Q.	c #494480",
"R.	c #060083",
"S.	c #6A7BC8",
"T.	c #B3D9FF",
"U.	c #A8CBED",
"V.	c #CADEF1",
"W.	c #D0E8FF",
"X.	c #47479F",
"Y.	c #2F2769",
"Z.	c #47428E",
"`.	c #8E879C",
" +	c #211D86",
".+	c #070184",
"++	c #697BCB",
"@+	c #B2D9FF",
"#+	c #AFD7FF",
"$+	c #A5C9ED",
"%+	c #C7DDF1",
"&+	c #3B3CA3",
"*+	c #2D2464",
"=+	c #3E398B",
"-+	c #7A7491",
";+	c #06037B",
">+	c #050081",
",+	c #677ACB",
"'+	c #ACD6FF",
")+	c #A3C8ED",
"!+	c #C4DBF1",
"~+	c #3A3BA3",
"{+	c #352D67",
"]+	c #3F3788",
"^+	c #605A84",
"/+	c #0C067B",
"(+	c #6479C8",
"_+	c #A9D5FF",
":+	c #A0C7ED",
"<+	c #C2D9F1",
"[+	c #7382CD",
"}+	c #6C6A91",
"|+	c #6C3C56",
"1+	c #947E77",
"2+	c #63284A",
"3+	c #4F5AB3",
"4+	c #82A1E0",
"5+	c #A6D3FF",
"6+	c #9DC6ED",
"7+	c #BFD8F1",
"8+	c #B5D1EF",
"9+	c #ADB3CA",
"0+	c #B1C7DD",
"a+	c #ABB0C6",
"b+	c #ACD3FB",
"c+	c #A3D2FF",
"d+	c #9BC4ED",
"e+	c #ABBCCE",
"f+	c #ADC1D5",
"g+	c #ABC0D5",
"h+	c #A9BFD5",
"i+	c #A7BED5",
"j+	c #A5BDD5",
"k+	c #A3BCD5",
"l+	c #A1BBD5",
"m+	c #9FBAD5",
"n+	c #9DBAD5",
"o+	c #9CB9D5",
"p+	c #9AB8D5",
"q+	c #98B7D5",
"r+	c #95B0CB",
"                                            ",
"      . + @ # $ % & * = - ; >               ",
"      , ' ) ! ~ { ] ^ / ( _ : <             ",
"      , [ ! } | 1 ^ 2 3 4 5 6 7 8           ",
"      , 9 0 a b c d e f g h i j k l         ",
"      , m n o p q r s t u v w x y z ,       ",
"      , A B C D E F G H I J K L M N ,       ",
"      , O P Q R S T U V W X Y M Z ` ,       ",
"      ,  ...+.@.#.$.%.&.*.=.-.;.>.,.,       ",
"      , '.( ).!.~.{.].^./.(._.:.<.[.,       ",
"      , }.4 |.1.2.3.4.5.6.7.8.9.0.a.,       ",
"      , b.c.d.e.f.g.h.i.j.k.l.m.n.o.,       ",
"      , p.d.e.q.r.s.t.u.v.w.x.y.z.A.,       ",
"      , B.e.q.K C.D.E.F.G.H.I.z.J.K.,       ",
"      , L.q.K M.N.O.P.Q.g.R.S.J.T.U.,       ",
"      , V.W.M.M X.Y.Z.`. +.+++@+#+$+,       ",
"      , %+M.M Z &+*+=+-+;+>+,+#+'+)+,       ",
"      , !+M Z >.~+{+]+^+/+>+(+'+_+:+,       ",
"      , <+Z >.<.[+}+|+1+2+3+4+_+5+6+,       ",
"      , 7+>.<.m.y.8+9+0+a+b+_+5+c+d+,       ",
"      . e+f+g+h+i+j+k+l+m+n+o+p+q+r+.       ",
"                                            "};
