/* XPM */
static char * SP_Neu2_xpm[] = {
"32 32 272 2",
"  	c None",
". 	c #ABABAB",
"+ 	c #898C8F",
"@ 	c #FDFEFF",
"# 	c #FBFDFF",
"$ 	c #F9FCFF",
"% 	c #F7FBFF",
"& 	c #F5FAFF",
"* 	c #F3F9FF",
"= 	c #F1F8FF",
"- 	c #EFF7FF",
"; 	c #EDF6FF",
"> 	c #EBF5FF",
", 	c #E9F4FF",
"' 	c #E6F3FF",
") 	c #E4F2FF",
"! 	c #E2F1FF",
"~ 	c #8C8E8F",
"{ 	c #E0F0FF",
"] 	c #D9E2EC",
"^ 	c #DEEFFF",
"/ 	c #E0EFFE",
"( 	c #C9DBED",
"_ 	c #858A8F",
": 	c #D4FFA6",
"< 	c #DDFFAF",
"[ 	c #DEFFB1",
"} 	c #0E0A92",
"| 	c #16137F",
"1 	c #DCEEFF",
"2 	c #D7EBFE",
"3 	c #CFE7FF",
"4 	c #B9D3EE",
"5 	c #81888F",
"6 	c #D4FFA8",
"7 	c #DFFFBD",
"8 	c #E9FFD1",
"9 	c #D9FFB0",
"0 	c #D2FFA2",
"a 	c #8D7B93",
"b 	c #A9989B",
"c 	c #998897",
"d 	c #A39293",
"e 	c #DAEDFF",
"f 	c #C0D7ED",
"g 	c #B9D4EE",
"h 	c #B0CFEE",
"i 	c #9CBDDD",
"j 	c #767D84",
"k 	c #D7FFAC",
"l 	c #EFFFDD",
"m 	c #F7FCF0",
"n 	c #E6FFCC",
"o 	c #D0FF9F",
"p 	c #C0A47A",
"q 	c #C7AD87",
"r 	c #C6AB84",
"s 	c #BC9F76",
"t 	c #D8ECFF",
"u 	c #D5FFA9",
"v 	c #E7FFCE",
"w 	c #E8F2D3",
"x 	c #D3FFA5",
"y 	c #CFC1B6",
"z 	c #D1C4BE",
"A 	c #D6EBFF",
"B 	c #D4EAFF",
"C 	c #D2E9FF",
"D 	c #D0E8FF",
"E 	c #CEE6FF",
"F 	c #CBE5FF",
"G 	c #C5DFF9",
"H 	c #D5FEA9",
"I 	c #D8FFAC",
"J 	c #C9DE98",
"K 	c #D6FEAA",
"L 	c #908F78",
"M 	c #CECBCC",
"N 	c #D6D5D4",
"O 	c #97959C",
"P 	c #44407E",
"Q 	c #C9E4FF",
"R 	c #C3DEF9",
"S 	c #E8F4FF",
"T 	c #E3FFB4",
"U 	c #C3DA8D",
"V 	c #010079",
"W 	c #4F5060",
"X 	c #C5C4CC",
"Y 	c #DCDCDD",
"Z 	c #938C87",
"` 	c #050081",
" .	c #08008C",
"..	c #CDE6FF",
"+.	c #C7E3FF",
"@.	c #C1DDF9",
"#.	c #020071",
"$.	c #45455D",
"%.	c #9B99BA",
"&.	c #C6C6CA",
"*.	c #786A74",
"=.	c #030076",
"-.	c #070089",
";.	c #060088",
">.	c #C5E2FF",
",.	c #BFDCF9",
"'.	c #6A5567",
").	c #010071",
"!.	c #01006A",
"~.	c #313164",
"{.	c #9F9EAB",
"].	c #AAAAAB",
"^.	c #211D7C",
"/.	c #01005D",
"(.	c #030072",
"_.	c #05007F",
":.	c #08008A",
"<.	c #C3E1FF",
"[.	c #BDDBF9",
"}.	c #53464F",
"|.	c #030074",
"1.	c #010066",
"2.	c #36356B",
"3.	c #7E7E83",
"4.	c #393594",
"5.	c #040080",
"6.	c #010061",
"7.	c #010068",
"8.	c #07007E",
"9.	c #0A008D",
"0.	c #2A00AD",
"a.	c #C1E0FF",
"b.	c #BBDAF9",
"c.	c #554750",
"d.	c #03016F",
"e.	c #02006E",
"f.	c #24216C",
"g.	c #1E1B72",
"h.	c #050084",
"i.	c #05017F",
"j.	c #040072",
"k.	c #0F0092",
"l.	c #0C008F",
"m.	c #060084",
"n.	c #BFDFFF",
"o.	c #B9D9F9",
"p.	c #554852",
"q.	c #1F1867",
"r.	c #03007E",
"s.	c #191673",
"t.	c #312F6F",
"u.	c #060086",
"v.	c #504386",
"w.	c #2E1F92",
"x.	c #0C0092",
"y.	c #040081",
"z.	c #070086",
"A.	c #BDDEFF",
"B.	c #B6D8F9",
"C.	c #030082",
"D.	c #05007D",
"E.	c #3D3D67",
"F.	c #110B85",
"G.	c #160E80",
"H.	c #040082",
"I.	c #070087",
"J.	c #BBDDFF",
"K.	c #B4D7F9",
"L.	c #67573B",
"M.	c #070085",
"N.	c #4D4C62",
"O.	c #040083",
"P.	c #05007B",
"Q.	c #02006B",
"R.	c #B9DCFF",
"S.	c #B2D6F9",
"T.	c #605146",
"U.	c #4C4C64",
"V.	c #040085",
"W.	c #03006E",
"X.	c #04006F",
"Y.	c #030077",
"Z.	c #B7DBFF",
"`.	c #B0D5F9",
" +	c #635344",
".+	c #060083",
"++	c #060081",
"@+	c #2B2A6C",
"#+	c #302C7D",
"$+	c #050087",
"%+	c #04007D",
"&+	c #06007F",
"*+	c #05007C",
"=+	c #B5DAFF",
"-+	c #AED4F9",
";+	c #5D4E4E",
">+	c #110A76",
",+	c #04007B",
"'+	c #030178",
")+	c #434169",
"!+	c #060087",
"~+	c #03007B",
"{+	c #B3D9FF",
"]+	c #ACD3F9",
"^+	c #3B2F70",
"/+	c #231A68",
"(+	c #443F8D",
"_+	c #1B1786",
":+	c #837D8C",
"<+	c #03007F",
"[+	c #060082",
"}+	c #070084",
"|+	c #B0D8FF",
"1+	c #AAD2F9",
"2+	c #180E84",
"3+	c #3A2F5B",
"4+	c #1E1B7E",
"5+	c #666098",
"6+	c #B9B1A3",
"7+	c #534C97",
"8+	c #161380",
"9+	c #080087",
"0+	c #B2D9FF",
"a+	c #AED7FF",
"b+	c #A8D1F9",
"c+	c #453955",
"d+	c #030079",
"e+	c #534D90",
"f+	c #BBB3A3",
"g+	c #151087",
"h+	c #09008A",
"i+	c #ACD6FF",
"j+	c #A6D0F9",
"k+	c #CFE8FF",
"l+	c #070088",
"m+	c #463A57",
"n+	c #5F5894",
"o+	c #9D978F",
"p+	c #03007A",
"q+	c #080088",
"r+	c #AAD5FF",
"s+	c #A4CFF9",
"t+	c #3D335D",
"u+	c #2A2577",
"v+	c #443D92",
"w+	c #787389",
"x+	c #0D097C",
"y+	c #04007E",
"z+	c #A8D4FF",
"A+	c #A2CEF9",
"B+	c #09008C",
"C+	c #2A216D",
"D+	c #574F6D",
"E+	c #4B317A",
"F+	c #888483",
"G+	c #643E5E",
"H+	c #150579",
"I+	c #060085",
"J+	c #030080",
"K+	c #A6D3FF",
"L+	c #A0CDF9",
"M+	c #926A56",
"N+	c #922B19",
"O+	c #BBB599",
"P+	c #9B462D",
"Q+	c #A53110",
"R+	c #A4D2FF",
"S+	c #9ECCF9",
"T+	c #A2D1FF",
"U+	c #9CCBF9",
"V+	c #A0D0FF",
"W+	c #9ACAF9",
"                                                                ",
"          . + + + + + + + + + + + + + + +                       ",
"          + @ # $ % & * = - ; > , ' ) ! + ~                     ",
"          + # $ % & * = - ; > , ' ) ! { + ] +                   ",
"          + $ % & * = - ; > , ' ) ! { ^ + / ( _                 ",
"          + % & * : < [ > , ' } | { ^ 1 + 2 3 4 5               ",
"          + & * 6 7 8 9 0 ' a b c d 1 e + f g h i j             ",
"          + * = k l m n o ) p q r s e t . + + + + + +           ",
"          + = - u v w 7 x ! { y z e t A B C D E F G +           ",
"          + - ; H I J K ! { L M N O P B C D E F Q R +           ",
"          + ; > S T U ! { V W X Y Z `  .D ..F Q +.@.+           ",
"          + > S ' ) ! { ^ #.$.%.&.*.=.-.;.F Q +.>.,.+           ",
"          + S ' ) ! { '.).!.~.{.].^./.(._.:.+.>.<.[.+           ",
"          + ' ) ! { ^ }.|.1.2.3.4.5.6.7.8.9.0.<.a.b.+           ",
"          + ) ! { ^ 1 c.d.e.f.g.h.i.j.k.l.m.<.a.n.o.+           ",
"          + ! { ^ 1 e p.q.r.s.t.u.v.w.x.y.z.a.n.A.B.+           ",
"          + { ^ 1 e t A B C.D.E.u.F.G.H.I.a.n.A.J.K.+           ",
"          + ^ 1 e t A B L.h.M.N.;.O.P.Q.a.n.A.J.R.S.+           ",
"          + 1 e t A B C T.h.M.U.-.V.W.X.Y.A.J.R.Z.`.+           ",
"          + e t A B C D  +.+++@+#+$+%+&+*+J.R.Z.=+-++           ",
"          + t A B C D ..;+>+,+'+)+!+~+M.&+R.Z.=+{+]++           ",
"          + A B C 3 ..F ^+/+(+_+:+I.<+[+}+Z.=+{+|+1++           ",
"          + B C 3 ..F Q 2+3+4+5+6+7+8+m.9+=+0+|+a+b++           ",
"          + C D ..F Q +.:.c+d+e+f+g+Y.h.h+0+|+a+i+j++           ",
"          + k+..F Q +.>.l+m+~+n+o+Y.p+,+q+|+a+i+r+s++           ",
"          + ..F Q +.>.<.l+t+u+v+w+x+y+y.` a+i+r+z+A++           ",
"          + F Q +.>.<.a.B+C+D+E+F+G+H+I+J+i+r+z+K+L++           ",
"          + Q +.>.<.a.n.A.J.M+N+O+P+Q+a+i+r+z+K+R+S++           ",
"          + +.>.<.a.n.A.J.R.Z.=+0+|+a+i+r+z+K+R+T+U++           ",
"          + >.<.a.n.A.J.R.Z.=+0+|+a+i+r+z+K+R+T+V+W++           ",
"          . + + + + + + + + + + + + + + + + + + + + .           ",
"                                                                "};
