/* XPM */
static char * SP_Vorwaerts_xpm[] = {
"22 22 220 2",
"  	c None",
". 	c #838671",
"+ 	c #718233",
"@ 	c #9CB15D",
"# 	c #9BB657",
"$ 	c #98B655",
"% 	c #92AD59",
"& 	c #607B2D",
"* 	c #7D8471",
"= 	c #899069",
"- 	c #86983E",
"; 	c #AECB3E",
"> 	c #B1D43C",
", 	c #AED83A",
"' 	c #AAD739",
") 	c #A3D636",
"! 	c #9DD335",
"~ 	c #95CD32",
"{ 	c #8AC232",
"] 	c #6D9338",
"^ 	c #7F916B",
"/ 	c #6C7B34",
"( 	c #A3BB3D",
"_ 	c #BAD93D",
": 	c #B6DA3D",
"< 	c #B1DA3A",
"[ 	c #A5D637",
"} 	c #9FD535",
"| 	c #99D333",
"1 	c #93D231",
"2 	c #8ED22F",
"3 	c #86CD2D",
"4 	c #73AE2F",
"5 	c #557831",
"6 	c #6C7931",
"7 	c #ACC73B",
"8 	c #BBDB3E",
"9 	c #B0DA3A",
"0 	c #ABD739",
"a 	c #A4D636",
"b 	c #99D232",
"c 	c #93D232",
"d 	c #8DD22F",
"e 	c #88D02E",
"f 	c #82CE2B",
"g 	c #7CCD2A",
"h 	c #6DB828",
"i 	c #4B742C",
"j 	c #838964",
"k 	c #A1B83C",
"l 	c #87D02E",
"m 	c #7CCE2A",
"n 	c #76CB27",
"o 	c #70CA26",
"p 	c #60A928",
"q 	c #758C66",
"r 	c #83963B",
"s 	c #B9D93D",
"t 	c #A5D636",
"u 	c #A0D638",
"v 	c #B9E275",
"w 	c #DAEFB9",
"x 	c #DCF0BF",
"y 	c #CDEBA3",
"z 	c #8CD23D",
"A 	c #6BC923",
"B 	c #63C421",
"C 	c #528B2E",
"D 	c #80866A",
"E 	c #B1CF3F",
"F 	c #9ED535",
"G 	c #9AD541",
"H 	c #CAEBA3",
"I 	c #FEFEFE",
"J 	c #D3EDB3",
"K 	c #86D13F",
"L 	c #6AC923",
"M 	c #65C622",
"N 	c #5FC61F",
"O 	c #57B820",
"P 	c #64745B",
"Q 	c #758932",
"R 	c #B2D53C",
"S 	c #9FD636",
"T 	c #94D233",
"U 	c #8FD33C",
"V 	c #D0ECB3",
"W 	c #FCFDFB",
"X 	c #FBFDF8",
"Y 	c #D1EDB2",
"Z 	c #78CE37",
"` 	c #65C722",
" .	c #59C51E",
"..	c #52BD1C",
"+.	c #37711D",
"@.	c #9DB35A",
"#.	c #A8DA4A",
"$.	c #BEE47F",
"%.	c #BEE586",
"&.	c #BDE586",
"*.	c #BAE384",
"=.	c #B6E384",
"-.	c #BAE690",
";.	c #EAF7E1",
">.	c #D0EDB7",
",.	c #73CD39",
"'.	c #59C41E",
").	c #53C21B",
"!.	c #4DC01A",
"~.	c #60A045",
"{.	c #9AB651",
"].	c #B1DF67",
"^.	c #F4FAEB",
"/.	c #FBFDF9",
"(.	c #C2E9A7",
"_.	c #60C62A",
":.	c #4EC21A",
"<.	c #48C018",
"[.	c #58A73A",
"}.	c #96B44F",
"|.	c #A8DC5C",
"1.	c #E0F2C9",
"2.	c #E8F5D8",
"3.	c #E7F5D7",
"4.	c #E6F5D7",
"5.	c #E5F5D7",
"6.	c #E5F5D9",
"7.	c #F6FBF2",
"8.	c #EEF8E7",
"9.	c #91D86B",
"0.	c #50C31D",
"a.	c #47C018",
"b.	c #42BE16",
"c.	c #54A63A",
"d.	c #95B257",
"e.	c #9ED435",
"f.	c #91D237",
"g.	c #98D54C",
"h.	c #94D64C",
"i.	c #90D54B",
"j.	c #8BD349",
"k.	c #87D349",
"l.	c #A3DD79",
"m.	c #EEF9E9",
"n.	c #F7FBF1",
"o.	c #97DA72",
"p.	c #51C41F",
"q.	c #3CBD14",
"r.	c #56A141",
"s.	c #658429",
"t.	c #95CD31",
"u.	c #8DD12F",
"v.	c #87CE2E",
"w.	c #71CA29",
"x.	c #8AD455",
"y.	c #EDF8E8",
"z.	c #FDFEFD",
"A.	c #ECF8E5",
"B.	c #92D96D",
"C.	c #51C31E",
"D.	c #3CBE14",
"E.	c #35B912",
"F.	c #2A7A16",
"G.	c #677255",
"H.	c #8BC632",
"I.	c #88CE2E",
"J.	c #71CA27",
"K.	c #8ED65D",
"L.	c #E2F4D9",
"M.	c #F6FBF1",
"N.	c #92D96B",
"O.	c #36BD12",
"P.	c #32B114",
"Q.	c #597051",
"R.	c #699031",
"S.	c #86CC2D",
"T.	c #6BCA24",
"U.	c #77CF41",
"V.	c #84D255",
"W.	c #80D253",
"X.	c #73CE43",
"Y.	c #50C31E",
"Z.	c #30B910",
"`.	c #338821",
" +	c #718259",
".+	c #70AE2B",
"++	c #30BA10",
"@+	c #2DA016",
"#+	c #5F8459",
"$+	c #507926",
"%+	c #6DBA26",
"&+	c #53C21C",
"*+	c #4DC21A",
"=+	c #2AA710",
"-+	c #266B1B",
";+	c #4D7A26",
">+	c #60AE28",
",+	c #64C521",
"'+	c #36BC12",
")+	c #30B810",
"!+	c #2D9D15",
"~+	c #266A1B",
"{+	c #708B5E",
"]+	c #518F2B",
"^+	c #57BA22",
"/+	c #52BE1C",
"(+	c #4DC11A",
"_+	c #41BE16",
":+	c #35B712",
"<+	c #32B015",
"[+	c #338420",
"}+	c #5C8156",
"|+	c #607657",
"1+	c #3C7E1D",
"2+	c #5FA244",
"3+	c #55A237",
"4+	c #51A137",
"5+	c #58A142",
"6+	c #2B7C17",
"7+	c #5D7657",
"                                            ",
"              . + @ # $ % & *               ",
"          = - ; > , ' ) ! ~ { ] ^           ",
"        / ( _ : < ' [ } | 1 2 3 4 5         ",
"      6 7 8 : 9 0 a } b c d e f g h i       ",
"    j k 8 : 9 ' [ } | 1 2 l f m n o p q     ",
"    r s : 9 0 t u v w x y z m n o A B C     ",
"  D E : 9 ' t F | G H I I J K o L M N O P   ",
"  Q R 9 ' [ S | T 2 U V W X Y Z ` N  ...+.  ",
"  @., ' a #.$.%.&.*.=.-.;.I I >.,.'.).!.~.  ",
"  {.' [ } ].^.I I I I I I I I /.(._.:.<.[.  ",
"  }.a F b |.1.2.3.4.5.6.7.I I 8.9.0.a.b.c.  ",
"  d.e.| c f.g.h.i.j.k.l.m.I n.o.p.<.b.q.r.  ",
"  s.t.1 u.v.f m n w.x.y.z.A.B.C.a.b.D.E.F.  ",
"  G.H.u.I.f m n J.K.L.I M.N.p.<.b.D.O.P.Q.  ",
"    R.S.f m n o T.U.V.W.X.Y.<.b.D.O.Z.`.    ",
"     +.+g n o L ` N  .).:.a.b.D.O.++@+#+    ",
"      $+%+o A M N '.&+*+<.b.D.O.++=+-+      ",
"        ;+>+,+N  .).:.a.b.D.'+)+!+~+        ",
"          {+]+^+/+(+<._+q.:+<+[+}+          ",
"              |+1+2+3+4+5+6+7+              ",
"                                            "};
