/* XPM */
static char * Speichern_xpm[] = {
"32 32 162 2",
"  	c None",
". 	c #022A86",
"+ 	c #CECECE",
"@ 	c #023686",
"# 	c #7E7E7E",
"$ 	c #02429A",
"% 	c #0282FE",
"& 	c #E6E6E6",
"* 	c #36366A",
"= 	c #025A96",
"- 	c #025AC6",
"; 	c #0E16A2",
"> 	c #0E628A",
", 	c #464266",
"' 	c #02A6FE",
") 	c #026AC6",
"! 	c #2E5276",
"~ 	c #525252",
"{ 	c #124272",
"] 	c #F6F6F6",
"^ 	c #929292",
"/ 	c #029AFE",
"( 	c #0A2ACA",
"_ 	c #0262D2",
": 	c #0A36F6",
"< 	c #027AFE",
"[ 	c #0E16AA",
"} 	c #026AD2",
"| 	c #028EFE",
"1 	c #566672",
"2 	c #828282",
"3 	c #121EE6",
"4 	c #26227A",
"5 	c #0252C6",
"6 	c #063AFA",
"7 	c #026AFE",
"8 	c #3E668E",
"9 	c #2A567E",
"0 	c #AAAAAA",
"a 	c #FAFAFA",
"b 	c #5E6A7E",
"c 	c #1E06D6",
"d 	c #025EEA",
"e 	c #1A12DE",
"f 	c #2A628E",
"g 	c #2A527E",
"h 	c #024EFE",
"i 	c #0276EE",
"j 	c #2A6A8E",
"k 	c #0232CE",
"l 	c #2A427E",
"m 	c #3E568E",
"n 	c #028AFA",
"o 	c #023A86",
"p 	c #9E9E9E",
"q 	c #3E768E",
"r 	c #1E2A6E",
"s 	c #626262",
"t 	c #5A667A",
"u 	c #026696",
"v 	c #868686",
"w 	c #0266FE",
"x 	c #02B2FE",
"y 	c #2A467E",
"z 	c #0272E6",
"A 	c #1616DE",
"B 	c #0292FE",
"C 	c #024686",
"D 	c #2A4E76",
"E 	c #0E2AF2",
"F 	c #3E4E6A",
"G 	c #0262A6",
"H 	c #425E7A",
"I 	c #8A8A8A",
"J 	c #025EC6",
"K 	c #02A2EA",
"L 	c #969696",
"M 	c #666666",
"N 	c #0A529A",
"O 	c #62767E",
"P 	c #8E8E8E",
"Q 	c #029EFE",
"R 	c #3A5A66",
"S 	c #222A7E",
"T 	c #0286FE",
"U 	c #0262FE",
"V 	c #2A728E",
"W 	c #3E628E",
"X 	c #0272FE",
"Y 	c #027EFE",
"Z 	c #023E86",
"` 	c #4E4E4E",
" .	c #026296",
"..	c #2A5E8E",
"+.	c #1E0ADA",
"@.	c #0252FE",
"#.	c #3A5666",
"$.	c #025AFE",
"%.	c #02AAFE",
"&.	c #5E6E7E",
"*.	c #0266C6",
"=.	c #6A6A6A",
"-.	c #026EFE",
";.	c #022E86",
">.	c #161AE2",
",.	c #3E5E7E",
"'.	c #026ED2",
").	c #0296FE",
"!.	c #1222E6",
"~.	c #2A4A7E",
"{.	c #0276FE",
"].	c #2A668E",
"^.	c #2A6E8E",
"/.	c #4E4A62",
"(.	c #0256FE",
"_.	c #1A0EDA",
":.	c #124A7E",
"<.	c #B2B2B2",
"[.	c #FEFEFE",
"}.	c #02A2FE",
"|.	c #024282",
"1.	c #1616EA",
"2.	c #025EFE",
"3.	c #023286",
"4.	c #0E2EF2",
"5.	c #1A12E2",
"6.	c #025E96",
"7.	c #0256C6",
"8.	c #0262C6",
"9.	c #161AE6",
"0.	c #0266D2",
"a.	c #9A9A9A",
"b.	c #62727E",
"c.	c #02AEFE",
"d.	c #026A96",
"e.	c #1E0EE2",
"f.	c #565656",
"g.	c #26267E",
"h.	c #222E82",
"i.	c #0272D2",
"j.	c #2A4E7E",
"k.	c #1222EE",
"l.	c #1A16E6",
"m.	c #1E0AE2",
"n.	c #0E1AA6",
"o.	c #062ECA",
"p.	c #0E1AAA",
"q.	c #A2A2A2",
"r.	c #02B6FE",
"s.	c #3E5E6E",
"t.	c #161EE6",
"u.	c #626A7E",
"v.	c #3E5666",
"w.	c #028AFE",
"x.	c #1A12E6",
"y.	c #161EEA",
"z.	c #161AEA",
"A.	c #024286",
"B.	c #1616E2",
"C.	c #26227E",
"D.	c #222A82",
"E.	c #1A0EDE",
"                                                                ",
"    O q q s.v P P P P P P P P P P P P P P P P P P I v.8 8 b.    ",
"    V r.x d.& [.[.[.[.[.[.[.[.[.[.[.[.[.[.[.[.[.[.] C T % 9     ",
"    V > > u & [.[.[.[.[.[.[.[.[.[.[.[.[.[.[.[.[.[.] C { N 9     ",
"    ^.R #.u & [.<.L L L L L L L L L L L L L L q.[.] |.f.D g     ",
"    ^.K K u & [.a ] ] ] ] ] ] ] ] ] ] ] ] ] ] a [.] C z i g     ",
"    ^.c.%. .& [.[.[.[.[.[.[.[.[.[.[.[.[.[.[.[.[.[.] A.Y < g     ",
"    ^.%.%. .& [.[.[.[.[.[.[.[.[.[.[.[.[.[.[.[.[.[.] A.< < g     ",
"    ^.%.'  .& [.p # # # # # # # # # # # # # # P [.] A.< {.g     ",
"    j ' ' 6.& [.[.[.[.[.[.[.[.[.[.[.[.[.[.[.[.[.[.] Z {.{.g     ",
"    j ' }.6.& [.[.[.[.[.[.[.[.[.[.[.[.[.[.[.[.[.[.] Z {.X j.    ",
"    j }.}.6.& [.[.[.[.[.[.[.[.[.[.[.[.[.[.[.[.[.[.] Z X X j.    ",
"    j }.Q 6.& [.0 P P P P P P P P P P P P P P a.[.] Z X -.j.    ",
"    j Q Q = & [.[.[.[.[.[.[.[.[.[.[.[.[.[.[.[.[.[.] o -.-.j.    ",
"    ].Q / = & [.[.[.[.[.[.[.[.[.[.[.[.[.[.[.[.[.[.] o -.7 j.    ",
"    ]./ / G 1 &.&.&.&.&.&.&.&.&.&.&.&.&.&.&.&.b b t $ 7 7 j.    ",
"    ]./ ).).B B | | w.w.T T % % Y Y < < {.{.X X -.-.7 7 w ~.    ",
"    ].).).B B | | w.w.T T % % Y Y < < {.{.X X -.-.7 7 w w ~.    ",
"    ].).B B | | n ) ) *.*.8.8.8.J J - - - 7.7.5 5 5 d w U ~.    ",
"    f B B | | w.i.s ^ ^ ^ ^ ^ ^ ^ ^ ^ ^ ^ ` n.p.[ ; @ U U ~.    ",
"    f B | | w.w.'.I + M k o.( r + + + + + =.!.k.y.>.@ U 2.~.    ",
"    f | | w.w.T '.I + M 6 : 4.h.+ + + + + =.3 y.z.A 3.2.2.~.    ",
"    f | w.w.T T } I + M : 4.E D.+ + + + + =.t.z.z.A 3.2.$.y     ",
"    f w.w.T T % } I + M 4.E k.S + + + + + =.9.z.l.e 3.$.$.y     ",
"    ..w.T T % % } I + M E k.y.g.+ + + + + =.>.l.x.e ;.(.(.y     ",
"    ..T T % % Y 0.I + M k.y.1.C.+ + + + + =.B.x.x._.;.(.(.y     ",
"    ..T % % Y Y 0.I + M y.1.x.4 + + + + + =.5.x.e.+.;.(.@.y     ",
"    ! % % Y Y < _ I + 2 * * * /.+ + + + + =.e e.e.+.;.@.@.y     ",
"    8 :.Y Y < < _ I + + + + + + + + + + + =.E.e.m.c . @.h l     ",
"      8 H 8 8 W ,.f.s s s s s s s s s s s ~ , , , , F m m u.    ",
"                                                                ",
"                                                                "};
