/* XPM */
static char * Steigern_small_xpm[] = {
"80 40 301 2",
"  	c None",
". 	c #000000",
"+ 	c #201A14",
"@ 	c #100E0B",
"# 	c #9C744D",
"$ 	c #C8A27B",
"% 	c #29221A",
"& 	c #AC947B",
"* 	c #DDBA96",
"= 	c #8E755B",
"- 	c #E5BF97",
"; 	c #DDB78E",
"> 	c #E5BC93",
", 	c #977C61",
"' 	c #EAC197",
") 	c #EAC196",
"! 	c #E2BA91",
"~ 	c #1A1510",
"{ 	c #B68E73",
"] 	c #A36D63",
"^ 	c #6F5A47",
"/ 	c #CFAA84",
"( 	c #3B3026",
"_ 	c #1E1212",
": 	c #7D6750",
"< 	c #262019",
"[ 	c #43372B",
"} 	c #C55351",
"| 	c #DFDAC9",
"1 	c #100D0A",
"2 	c #4D3F32",
"3 	c #15110D",
"4 	c #C13F3F",
"5 	c #CB716B",
"6 	c #E1E0CE",
"7 	c #030302",
"8 	c #AA8B6D",
"9 	c #AE8F70",
"0 	c #BD9B79",
"a 	c #3B3126",
"b 	c #B19271",
"c 	c #C96662",
"d 	c #E0DFCE",
"e 	c #E1E2D0",
"f 	c #C3A17D",
"g 	c #392F24",
"h 	c #9C8164",
"i 	c #DDB68E",
"j 	c #D8B28B",
"k 	c #CDAA84",
"l 	c #655441",
"m 	c #9D8164",
"n 	c #E0B98F",
"o 	c #E9C095",
"p 	c #DED5C5",
"q 	c #D8B3A7",
"r 	c #CE7F78",
"s 	c #C44C4B",
"t 	c #E5BD93",
"u 	c #DEB78E",
"v 	c #E7BE94",
"w 	c #E0B88F",
"x 	c #DFB88F",
"y 	c #E5BD92",
"z 	c #EBC196",
"A 	c #993434",
"B 	c #AA3838",
"C 	c #BF3E3E",
"D 	c #B55B57",
"E 	c #BB6D68",
"F 	c #C34B4A",
"G 	c #E9C096",
"H 	c #E1BA90",
"I 	c #E3BB92",
"J 	c #E4BC92",
"K 	c #EAC195",
"L 	c #973333",
"M 	c #933232",
"N 	c #983333",
"O 	c #B93D3D",
"P 	c #A43737",
"Q 	c #AF3A3A",
"R 	c #B4554C",
"S 	c #E8C095",
"T 	c #E9C196",
"U 	c #E7BF94",
"V 	c #E2BA90",
"W 	c #010100",
"X 	c #0C0C0C",
"Y 	c #9D9D9D",
"Z 	c #858585",
"` 	c #C03F3F",
" .	c #AB3939",
"..	c #943232",
"+.	c #983434",
"@.	c #A23636",
"#.	c #B03A3A",
"$.	c #953333",
"%.	c #B46757",
"&.	c #4D3F31",
"*.	c #181818",
"=.	c #C0C0C0",
"-.	c #B2B2B2",
";.	c #BD3E3E",
">.	c #9C3535",
",.	c #AC3939",
"'.	c #CB685A",
").	c #E6BE93",
"!.	c #E3BB91",
"~.	c #E0B990",
"{.	c #E3BC92",
"].	c #E8BF95",
"^.	c #78634D",
"/.	c #1D1D1D",
"(.	c #131313",
"_.	c #963333",
":.	c #A83838",
"<.	c #BF3F3F",
"[.	c #BC3E3E",
"}.	c #A13636",
"|.	c #9C3434",
"1.	c #BA3D3D",
"2.	c #CB5E54",
"3.	c #E6BE94",
"4.	c #DCB58D",
"5.	c #D2AD87",
"6.	c #D4AF88",
"7.	c #D4AE88",
"8.	c #1A1611",
"9.	c #9A3434",
"0.	c #C8574F",
"a.	c #BB9A78",
"b.	c #201A15",
"c.	c #010101",
"d.	c #9F3535",
"e.	c #A53737",
"f.	c #9E3B39",
"g.	c #D3AE87",
"h.	c #DBB48C",
"i.	c #E6BD93",
"j.	c #E8BF94",
"k.	c #E2BB91",
"l.	c #963736",
"m.	c #A33737",
"n.	c #AD3939",
"o.	c #D8B28A",
"p.	c #D9B38B",
"q.	c #D7B18A",
"r.	c #D3AE88",
"s.	c #CF856D",
"t.	c #C5846B",
"u.	c #9F4640",
"v.	c #B83D3D",
"w.	c #E1B990",
"x.	c #DCB68D",
"y.	c #D6B089",
"z.	c #DBB58C",
"A.	c #020202",
"B.	c #E5B08B",
"C.	c #DDAC87",
"D.	c #B24C46",
"E.	c #C7574F",
"F.	c #C95950",
"G.	c #E7B78F",
"H.	c #DAB48C",
"I.	c #E5BC92",
"J.	c #BC8856",
"K.	c #C89766",
"L.	c #C99867",
"M.	c #CA9A6A",
"N.	c #D1A475",
"O.	c #CDA073",
"P.	c #C89D70",
"Q.	c #D1A375",
"R.	c #D3A577",
"S.	c #CD9D6D",
"T.	c #BF8C59",
"U.	c #95581F",
"V.	c #7F3D00",
"W.	c #8F5B2A",
"X.	c #BFB5A5",
"Y.	c #C6C3B8",
"Z.	c #AB8F71",
"`.	c #814004",
" +	c #7F4000",
".+	c #7F3E00",
"++	c #A98D6D",
"@+	c #C9C8BF",
"#+	c #C7C4B9",
"$+	c #874B14",
"%+	c #7B5007",
"&+	c #756811",
"*+	c #795B0C",
"=+	c #7A5208",
"-+	c #7B4D07",
";+	c #865B1D",
">+	c #AEA685",
",+	c #B6B499",
"'+	c #9A8757",
")+	c #7A540B",
"!+	c #785B0C",
"~+	c #756912",
"{+	c #727316",
"]+	c #767918",
"^+	c #787B18",
"/+	c #777A18",
"(+	c #757818",
"_+	c #757918",
":+	c #9BA321",
"<+	c #9AA221",
"[+	c #92991F",
"}+	c #898F1C",
"|+	c #7B7F18",
"1+	c #7B7E18",
"2+	c #797C18",
"3+	c #7C7F19",
"4+	c #7A7D18",
"5+	c #7A7E18",
"6+	c #888F1C",
"7+	c #8C931D",
"8+	c #91991E",
"9+	c #99A120",
"0+	c #949C1F",
"a+	c #8A911C",
"b+	c #818718",
"c+	c #7C8017",
"d+	c #7D8018",
"e+	c #7E8119",
"f+	c #7C7F17",
"g+	c #7E8317",
"h+	c #878E1A",
"i+	c #90981E",
"j+	c #98A020",
"k+	c #979F20",
"l+	c #8D941D",
"m+	c #808617",
"n+	c #7B7F17",
"o+	c #797C17",
"p+	c #777B16",
"q+	c #787C15",
"r+	c #7C8215",
"s+	c #838917",
"t+	c #888F1A",
"u+	c #8B921C",
"v+	c #969D1F",
"w+	c #8B921D",
"x+	c #848B18",
"y+	c #7B8117",
"z+	c #727717",
"A+	c #727716",
"B+	c #747915",
"C+	c #777D16",
"D+	c #858C19",
"E+	c #888E1A",
"F+	c #888E1C",
"G+	c #868D1B",
"H+	c #868D1A",
"I+	c #7A7F16",
"J+	c #747916",
"K+	c #747917",
"L+	c #747A15",
"M+	c #7A8017",
"N+	c #888F1B",
"O+	c #878D1C",
"P+	c #89901C",
"Q+	c #8C921D",
"R+	c #80861A",
"S+	c #737816",
"T+	c #737815",
"U+	c #757A15",
"V+	c #797F16",
"W+	c #797E18",
"X+	c #787D19",
"Y+	c #858B1B",
"Z+	c #8A911D",
"`+	c #7F841A",
" @	c #717417",
".@	c #707316",
"+@	c #717616",
"@@	c #777D17",
"#@	c #757A17",
"$@	c #717516",
"%@	c #727517",
"&@	c #848A1B",
"*@	c #7F8218",
"=@	c #757315",
"-@	c #737416",
";@	c #747616",
">@	c #767A15",
",@	c #757915",
"'@	c #737415",
")@	c #757415",
"!@	c #878E1C",
"~@	c #8B8011",
"{@	c #896702",
"]@	c #856905",
"^@	c #836906",
"/@	c #7E6908",
"(@	c #806A07",
"_@	c #866804",
":@	c #8A7C0F",
"                                                                                                                                                                ",
"                                                                            . . . . .                                                                           ",
"                                                                            + @ . . . .                                                                         ",
"                                                                            # $ % . . . .                                                                       ",
"                                                                            & * = . . . .                                                                       ",
"                                                                          - ; > , . . . .                                                                       ",
"                                                                          ' ) ) ! ~ . . .                                                                       ",
"                                                                          { ] ^ / ( . . .                                                                       ",
"                                                                            _ : < [ . . .                                                                       ",
"                                        } |                         )       1 2 % 3 . . .   ) ) ) )                                                             ",
"                                        4 5 6                   ) ) ) )     7 8 9 0 a . . b ) ) ) ) )                                                           ",
"                                        4 4 c d       e e e     ) ) ) ) f g h i j ! k l m n o ) ) ) ) )                                                         ",
"                                        4 4 4 c 6 e p q r s 4   t ) ) ) ) ) ) ) o t u v o w x y z ) ) ) )                 . . . . .                             ",
"                                        A B C 4 D E F 4 4 4 4 u t G H o ) ) ) ) ! I o ) ) o t J K K ) ) )                 . . . . . .                           ",
"                                        L M N O P P 4 4 4 Q R S T U u ) ) ) ) ) V I ) S x y ) ) o S ) ) ) )             W . X Y Z . .                           ",
"                                        `  ...L +.@.#.P $.M %.) ) J x ) ) ) ) ) V I ) ) J u ! G ) ) ) ) ) )           ) &.. *.=.-.. . .                         ",
"                                        ;.4 O L M M M ..>.,.'.) ) ).J ) ) ) ) ) V !.) ) ) v ~.S U {.U S ].v       ) ) ) ^.. . /.(.. .                           ",
"                                        _.:.<.[.}.|.#.1.4 4 2.) ) ) ) ) ) ) ) ) 3.U ) ) ) ) o T ].4.5.6.7.i !.) ) ) ) ) 5.8.. . . . .                           ",
"                                        9.M @.` P P 4 4 4 4 0.) )   v o ) ) ) ) ) ) ) ) ) ].x   ) o t I J S ) o S ) ) ) ) a.b.c.. .                             ",
"                                        C d.M e.P P 4 4 O }.f.)     g.h.t ) ) ) i.!.j.) v x ~.      ) ) ~.J o x k.) ) )                                         ",
"                                          C d.l.+.m.n.9.M ..P       w o.p.n T ).q.r.u ~.u ! o           t i.!.w o )                                             ",
"                                            C s.t.u.M N e.v.4         w.x.x J H y.5.z.).v H u             )                           A.                        ",
"                                              B.) C.D.E.F.4           u 4.h.z.x 5.5.j 3.x n 3.                                                                  ",
"                                              ) ) ) G.)               o t ! H u 5.r.H.v I.G )                                                                   ",
"                                                ) ) )                 J.K.L.M.N.O.P.Q.R.S.T.U.                                                                  ",
"                                                                      V.V.V.V.W.X.Y.Z.`.V.V. +                                                                  ",
"                                                                      .+V.V.V.++@+@+#+$+V..+%+                                                                  ",
"                                                                      &+*+=+-+;+>+,+'+)+!+~+{+                                                                  ",
"                                                                      ]+^+/+/+/+/+(+(+]+/+^+_+                                                                  ",
"                                                                :+<+[+}+|+1+1+2+^+^+2+3+4+5+6+7+8+                                                              ",
"                                                              9+:+0+7+a+b+c+d+e+e+d+f+c+g+h+7+i+:+j+                                                            ",
"                                                              k+[+l+7+7+h+m+n+4+o+p+q+r+s+t+u+l+v+i+                                                            ",
"                                                              7+7+7+7+w+u+x+y+z+A+B+C+b+D+E+F+w+7+7+                                                            ",
"                                                              7+7+7+w+G+H+m+I+J+K+L+M+N+6+O+P+w+7+7+                                                            ",
"                                                              7+7+7+Q+F+R+S+T+U+L+L+V+W+X+Y+Z+7+7+7+                                                            ",
"                                                              7+7+7+7+7+`+ @.@+@@@#@$@%@%@&@w+7+7+7+                                                            ",
"                                                              7+7+7+7+7+*@=@-@;@>@,@'@=@)@!@w+7+7+7+                                                            ",
"                                                                7+7+7+7+~@{@]@^@/@(@_@{@{@7+7+7+7+7+                                                            ",
"                                                                7+7+7+7+~@{@{@{@{@{@{@{@{@7+7+7+7+7+                                                            ",
"                                                                7+7+7+7+:@{@{@{@{@{@{@{@{@7+7+7+7+7+                                                            "};
