/* XPM */
static char * Teacher_trans32_xpm[] = {
"26 32 175 2",
"  	c None",
". 	c #000000",
"+ 	c #7C7C7C",
"@ 	c #434343",
"# 	c #D7C3B4",
"$ 	c #CBC9C7",
"% 	c #494949",
"& 	c #F9D9C2",
"* 	c #8B796C",
"= 	c #F1D9C7",
"- 	c #E6D8CE",
"; 	c #F8D8C2",
"> 	c #EED9C9",
", 	c #F5D7C2",
"' 	c #618DD3",
") 	c #D8D8D8",
"! 	c #D9D8D7",
"~ 	c #E3D8D0",
"{ 	c #EBD2C4",
"] 	c #7C9AD0",
"^ 	c #CBD0D7",
"/ 	c #7FA0D4",
"( 	c #8898B9",
"_ 	c #879AC0",
": 	c #D0D2D5",
"< 	c #7693C0",
"[ 	c #577FBF",
"} 	c #567EBD",
"| 	c #608BD0",
"1 	c #5F8ACF",
"2 	c #567DBC",
"3 	c #95ADD2",
"4 	c #738FBB",
"5 	c #577EBD",
"6 	c #5E89CC",
"7 	c #CCA151",
"8 	c #618DD2",
"9 	c #5C85C7",
"0 	c #567EBC",
"a 	c #5981C1",
"b 	c #557CBA",
"c 	c #5A83C4",
"d 	c #5C86C8",
"e 	c #CDA355",
"f 	c #E5C090",
"g 	c #D1A75D",
"h 	c #E2BC87",
"i 	c #D2A960",
"j 	c #608CD2",
"k 	c #5278B4",
"l 	c #5981C2",
"m 	c #547AB7",
"n 	c #5881C1",
"o 	c #5A84C5",
"p 	c #5379B5",
"q 	c #5B85C7",
"r 	c #DAB274",
"s 	c #E8C497",
"t 	c #5C87C9",
"u 	c #5379B4",
"v 	c #577FBE",
"w 	c #547BB8",
"x 	c #5379B6",
"y 	c #EFCDAA",
"z 	c #547AB6",
"A 	c #C2A04D",
"B 	c #95993C",
"C 	c #ADB87A",
"D 	c #CEC9A0",
"E 	c #CBC89D",
"F 	c #B4C08B",
"G 	c #B3B88A",
"H 	c #5B84C6",
"I 	c #5278B3",
"J 	c #5D88CC",
"K 	c #5E9128",
"L 	c #508F23",
"M 	c #17870D",
"N 	c #389328",
"O 	c #307F22",
"P 	c #126C0A",
"Q 	c #106209",
"R 	c #14750B",
"S 	c #C2C596",
"T 	c #937549",
"U 	c #5982C3",
"V 	c #537AB6",
"W 	c #557CB9",
"X 	c #16810C",
"Y 	c #116809",
"Z 	c #157D0C",
"` 	c #157E0C",
" .	c #17840D",
"..	c #157A0C",
"+.	c #157A0B",
"@.	c #17850D",
"#.	c #5FA147",
"$.	c #E8D3B5",
"%.	c #6E8CBF",
"&.	c #5579B3",
"*.	c #5F8ACE",
"=.	c #16800C",
"-.	c #116409",
";.	c #0F5B08",
">.	c #116609",
",.	c #13720B",
"'.	c #13700A",
").	c #13730B",
"!.	c #116509",
"~.	c #13710A",
"{.	c #9EB577",
"].	c #C4A583",
"^.	c #A4865D",
"/.	c #DDCBC5",
"(.	c #9DA4BB",
"_.	c #5880C0",
":.	c #5075AF",
"<.	c #126D0A",
"[.	c #116709",
"}.	c #16820C",
"|.	c #717A38",
"1.	c #C7BCBF",
"2.	c #126A0A",
"3.	c #278515",
"4.	c #4D7F27",
"5.	c #827741",
"6.	c #B7B8C9",
"7.	c #668ECE",
"8.	c #5E89CD",
"9.	c #567DBB",
"0.	c #0F5C08",
"a.	c #126B0A",
"b.	c #5982C2",
"c.	c #5880BF",
"d.	c #608CD1",
"e.	c #258514",
"f.	c #5A82C3",
"g.	c #106109",
"h.	c #167F0C",
"i.	c #13740B",
"j.	c #238513",
"k.	c #707A38",
"l.	c #5B84C5",
"m.	c #17860D",
"n.	c #126E0A",
"o.	c #11680A",
"p.	c #187B0D",
"q.	c #618CD2",
"r.	c #39821D",
"s.	c #577C2C",
"t.	c #807840",
"u.	c #5D88CB",
"v.	c #837741",
"w.	c #8B7645",
"x.	c #248313",
"y.	c #136F0A",
"z.	c #74783A",
"A.	c #5177B2",
"B.	c #507F29",
"C.	c #807140",
"D.	c #1B8010",
"E.	c #82A563",
"F.	c #C8C69B",
"G.	c #DACEA9",
"H.	c #A6875F",
"I.	c #5A83C5",
"J.	c #549D3E",
"K.	c #9E8057",
"L.	c #5176B0",
"M.	c #547BB7",
"N.	c #5E88CC",
"O.	c #A78961",
"P.	c #B2936E",
"Q.	c #9B7C52",
"R.	c #5F8BCF",
"                                          . . .     ",
"                                              . . . ",
"                                              . . . ",
"                                              + @ . ",
"                                              # $ % ",
"                                    &         * = - ",
"                                    &         & & & ",
"                                    ;         > & & ",
"                                    , '     ) ! ~ ~ ",
"                                    { ] '   ) ) ^ / ",
"                                    ( _ '   ) : < [ ",
"                                    } | 1 2 3 4 5 6 ",
"          7 7 7 7                   8 9 } 0 a b c d ",
"      7 7 e f g h i                 j k l m n o p q ",
"    7 7 r s & & &                     t u v b v w x ",
"    7 7 y & & & &                       p d 0 z v n ",
"  7 A B C D E F G                       ' H u m I J ",
"  K L M M N O P Q R M S &     T T       5 U V W v ' ",
"  X Y Z ` M  ...+.@.#.$.&   T T T       %.&.c W *.b ",
"=.-.;.>.,.'.=.).!.~.M {.].^.T T T       /.(._.V c :.",
"..<.Y Z ` [.    }.=.M |.T T T T T       & 1.:.d c :.",
"..;.P ;.2.).      3.4.5.T T T T T       6.7.[ 8.9.b ",
"..0.Q a.Y M M M   T T T T T T T T       b.c.d.1 :.d ",
"` ,.,.Q X M M e.T T T T T T T T T       _.t p f.z d ",
"` g.R h.M M i.j.k.T T T T T T T T       l.9.a b c d ",
"m.@.M M n.o.<.!.p.    T T     T T     q l.W q.b d c ",
"M M M r.s.2.Y i.>.'.M t.T     T T     q l.b ' b u.k ",
"  v.v.w.w.x.<.a.h.!.y.z.T     T T     A.l.b ' b c o ",
"T T T T T B.M Q !.Z 2.C.T     T T     :.l.b ' b c d ",
"  T     T   M D.E.F.G.H.T     T T   :.A.I.W I.m c d ",
"  T     T   M J.& & & K.T   T T T   L.*.M.n n N.c d ",
"T T T T T T T T O.P.P.Q.T T T T T     R.d q.n N.c d "};
