/* XPM */
static char * Trash_32_xpm[] = {
"50 32 193 2",
"  	c None",
". 	c #B26B00",
"+ 	c #B26C01",
"@ 	c #B46F08",
"# 	c #C18C3D",
"$ 	c #D1B281",
"% 	c #B5730E",
"& 	c #B47009",
"* 	c #C6A87B",
"= 	c #D3C2A6",
"- 	c #CCAC7A",
"; 	c #B5720C",
"> 	c #CEAA73",
", 	c #AEA28F",
"' 	c #A89C88",
") 	c #CDBDA2",
"! 	c #C4954D",
"~ 	c #D4B88C",
"{ 	c #C6B69A",
"] 	c #A89A83",
"^ 	c #D4C3A6",
"/ 	c #C79A56",
"( 	c #B87817",
"_ 	c #D1B68B",
": 	c #C9B99D",
"< 	c #C7A063",
"[ 	c #B36C03",
"} 	c #B46F07",
"| 	c #B4700A",
"1 	c #4A5E0D",
"2 	c #2F5F12",
"3 	c #886807",
"4 	c #AF6B00",
"5 	c #356014",
"6 	c #035915",
"7 	c #035C15",
"8 	c #105D13",
"9 	c #646409",
"0 	c #035914",
"a 	c #035B15",
"b 	c #0F5D14",
"c 	c #59630B",
"d 	c #04751B",
"e 	c #05841E",
"f 	c #046F19",
"g 	c #046B18",
"h 	c #035F16",
"i 	c #057C1C",
"j 	c #05821E",
"k 	c #057E1D",
"l 	c #056C19",
"m 	c #036416",
"n 	c #046418",
"o 	c #06721B",
"p 	c #057F1D",
"q 	c #147119",
"r 	c #0B7C1C",
"s 	c #37943F",
"t 	c #BCBF97",
"u 	c #206216",
"v 	c #297520",
"w 	c #057D1C",
"x 	c #5EA159",
"y 	c #DBC9AB",
"z 	c #CCBB9E",
"A 	c #0C8420",
"B 	c #516121",
"C 	c #58551E",
"D 	c #5D8132",
"E 	c #2C6D23",
"F 	c #036317",
"G 	c #0C8623",
"H 	c #AEBB8D",
"I 	c #A7987F",
"J 	c #776A57",
"K 	c #0F8420",
"L 	c #6C6027",
"M 	c #7B6E31",
"N 	c #675B24",
"O 	c #786C2F",
"P 	c #346924",
"Q 	c #9C8D76",
"R 	c #716453",
"S 	c #726654",
"T 	c #4A7E2C",
"U 	c #786B2F",
"V 	c #817435",
"W 	c #807233",
"X 	c #727532",
"Y 	c #655A4A",
"Z 	c #766956",
"` 	c #496521",
" .	c #5A4E1B",
"..	c #746C48",
"+.	c #776A2E",
"@.	c #826120",
"#.	c #825D1A",
"$.	c #6F6251",
"%.	c #635849",
"&.	c #6A5E4E",
"*.	c #CFCFCF",
"=.	c #BCBCBC",
"-.	c #B2B2B2",
";.	c #627028",
">.	c #ACAAA1",
",.	c #B5ADA0",
"'.	c #825916",
").	c #7D4F0D",
"!.	c #836D2C",
"~.	c #045C15",
"{.	c #7A5941",
"].	c #665B4B",
"^.	c #BDBDBD",
"/.	c #6A863F",
"(.	c #C6C6C6",
"_.	c #B4AFA5",
":.	c #75571A",
"<.	c #7F6526",
"[.	c #7F7335",
"}.	c #006B47",
"|.	c #BB4808",
"1.	c #D34300",
"2.	c #BBBBBB",
"3.	c #A8A8A8",
"4.	c #878787",
"5.	c #5A762D",
"6.	c #827742",
"7.	c #80743E",
"8.	c #6E6229",
"9.	c #4A4111",
"0.	c #838484",
"a.	c #727F7A",
"b.	c #6D7A75",
"c.	c #818E89",
"d.	c #A2948D",
"e.	c #998880",
"f.	c #AFA39E",
"g.	c #A2A2A2",
"h.	c #C8C8C8",
"i.	c #CDCDCD",
"j.	c #AFAFAF",
"k.	c #979797",
"l.	c #7F7F7F",
"m.	c #12741A",
"n.	c #3B410D",
"o.	c #42380B",
"p.	c #848484",
"q.	c #818181",
"r.	c #7B7B7B",
"s.	c #909090",
"t.	c #9E9E9E",
"u.	c #ABABAB",
"v.	c #B3B3B3",
"w.	c #C9C9C9",
"x.	c #285312",
"y.	c #403A0C",
"z.	c #41390B",
"A.	c #858585",
"B.	c #9C9C9C",
"C.	c #C1C1C1",
"D.	c #0F5513",
"E.	c #838383",
"F.	c #B4B4B4",
"G.	c #B8B8B8",
"H.	c #C2C2C2",
"I.	c #40390B",
"J.	c #373E0D",
"K.	c #254810",
"L.	c #A9A9A9",
"M.	c #898989",
"N.	c #383E0D",
"O.	c #27470F",
"P.	c #C3C3C3",
"Q.	c #B1B1B1",
"R.	c #AEAEAE",
"S.	c #7A7A7A",
"T.	c #ACACAC",
"U.	c #B5B5B5",
"V.	c #0B0902",
"W.	c #0A0802",
"X.	c #717171",
"Y.	c #787878",
"Z.	c #CBCBCB",
"`.	c #000000",
" +	c #737373",
".+	c #B6B6B6",
"++	c #797979",
"@+	c #6E6E6E",
"#+	c #929292",
"$+	c #9F9F9F",
"%+	c #A5A5A5",
"&+	c #9B9B9B",
"*+	c #A4A4A4",
"                                                                                                    ",
"                        . + @ .                                                                     ",
"                      . . # $ % .                                                                   ",
"                      . & * = - ;                                                                   ",
"                      . > , ' ) !                                                                   ",
"                      . ~ { ] ^ /                                                                   ",
"                      . ( _ : <                                                                     ",
"                      . [ @ } |                                                                     ",
"                      1 2 3 4 5                                                                     ",
"                    6 7 7 8 9 7 7 0                                                                 ",
"                  a 7 7 7 b c 7 7 a d e                                                             ",
"                  f g 7 7 7 7 7 7 h i e e e                                                         ",
"                  e j k l i m n o p e e e e e e e e e                                               ",
"                  e e e e e q r e e e e e e e e e e s t                                             ",
"                  e e e e e u v e e e w e e e e e e x y z                                           ",
"                  e e e e A B C D D E F   e e e e G H y I J                                         ",
"                  e e e e K L M N O P 7     e e e     y Q R S J                                     ",
"                  e e e e T L U V W X 7                   Y Y Z                                     ",
"                  e e e e `  ...+.@.#.7                   $.%.&.    *.=.-.                          ",
"                  e e e e ;.>.,.'.).!.~.                    {.].      ^.-.                          ",
"                  e e e e /.(._.:.<.[.~.            }.}.}.|.1.        2.-.3.4.                      ",
"                e e e e e 5.6.7.U 8.9.            0.a.b.c.d.e.f.g.h.i.  -.j.k.l.l.                  ",
"                e e e e m.n.o.o.o.o.o.            p.q.r.s.t.s.u.g.h.*.  -.v.w.  l.                  ",
"                    p x.y.o.o.o.o.o.o.z.          p.q.r.A.B.s.u.g.h.(.  -.-.C.  l.l.                ",
"                    7 D.z.o.o.o.z.o.o.o.          p.q.r.E.B.s.u.g.h.F.    -.G.H.q.l.                ",
"                    7 7 I.o.o.J.K.o.o.o.          p.q.r.s.t.s.u.g.h.F.    -.-.L.M.                  ",
"                      7 z.o.o.N.O.o.o.o.          p.q.r.s.t.s.u.g.P.Q.      -.R.u.                  ",
"                        o.o.o.o.  o.o.o.          p.l.S.s.t.s.u.g.G.T.      -.U.h.                  ",
"                        V.V.V.    W.V.V.          E.X.Y.s.t.s.u.g.G.T.        U.Z.                  ",
"                        `.`.`.  `.`.`.`.          E.X. +s.t.s.u.g..+T.                              ",
"                      `.`.`.`.  `.`.`.`.`.        p.++@+#+t.s.T.$+%+^.                              ",
"                      `.`.`.`.    `.`.`.`.`.      p.A.E.&+$+#+v.*+j.i.                              "};
