/* XPM */
static char * Trash_32_xpm[] = {
"50 32 194 2",
"  	c None",
". 	c #B26B00",
"+ 	c #B26C01",
"@ 	c #B46F08",
"# 	c #C18C3D",
"$ 	c #D1B281",
"% 	c #B5730E",
"& 	c #B47009",
"* 	c #C6A87B",
"= 	c #D3C2A6",
"- 	c #CCAC7A",
"; 	c #B5720C",
"> 	c #CEAA73",
", 	c #AEA28F",
"' 	c #A89C88",
") 	c #CDBDA2",
"! 	c #C4954D",
"~ 	c #D4B88C",
"{ 	c #C6B69A",
"] 	c #A89A83",
"^ 	c #D4C3A6",
"/ 	c #C79A56",
"( 	c #B87817",
"_ 	c #D1B68B",
": 	c #C9B99D",
"< 	c #C7A063",
"[ 	c #B36C03",
"} 	c #B46F07",
"| 	c #B4700A",
"1 	c #4A5E0D",
"2 	c #2F5F12",
"3 	c #886807",
"4 	c #AF6B00",
"5 	c #356014",
"6 	c #035915",
"7 	c #035C15",
"8 	c #105D13",
"9 	c #646409",
"0 	c #035914",
"a 	c #035B15",
"b 	c #0F5D14",
"c 	c #59630B",
"d 	c #04751B",
"e 	c #05841E",
"f 	c #046F19",
"g 	c #046B18",
"h 	c #035F16",
"i 	c #057C1C",
"j 	c #05821E",
"k 	c #057E1D",
"l 	c #056C19",
"m 	c #036416",
"n 	c #046418",
"o 	c #06721B",
"p 	c #057F1D",
"q 	c #147119",
"r 	c #0B7C1C",
"s 	c #37943F",
"t 	c #BCBF97",
"u 	c #206216",
"v 	c #297520",
"w 	c #057D1C",
"x 	c #5EA159",
"y 	c #DBC9AB",
"z 	c #CCBB9E",
"A 	c #0C8420",
"B 	c #516121",
"C 	c #58551E",
"D 	c #5D8132",
"E 	c #2C6D23",
"F 	c #036317",
"G 	c #0C8623",
"H 	c #AEBB8D",
"I 	c #A7987F",
"J 	c #776A57",
"K 	c #0F8420",
"L 	c #6C6027",
"M 	c #7B6E31",
"N 	c #675B24",
"O 	c #786C2F",
"P 	c #346924",
"Q 	c #9C8D76",
"R 	c #716453",
"S 	c #726654",
"T 	c #4A7E2C",
"U 	c #786B2F",
"V 	c #817435",
"W 	c #807233",
"X 	c #727532",
"Y 	c #655A4A",
"Z 	c #766956",
"` 	c #5B5B5B",
" .	c #565656",
"..	c #496521",
"+.	c #5A4E1B",
"@.	c #746C48",
"#.	c #776A2E",
"$.	c #826120",
"%.	c #825D1A",
"&.	c #6F6251",
"*.	c #635849",
"=.	c #6A5E4E",
"-.	c #646464",
";.	c #5A5A5A",
">.	c #627028",
",.	c #ACAAA1",
"'.	c #B5ADA0",
").	c #825916",
"!.	c #7D4F0D",
"~.	c #836D2C",
"{.	c #045C15",
"].	c #7A5941",
"^.	c #665B4B",
"/.	c #525252",
"(.	c #6A863F",
"_.	c #C6C6C6",
":.	c #B4AFA5",
"<.	c #75571A",
"[.	c #7F6526",
"}.	c #7F7335",
"|.	c #006B47",
"1.	c #BB4808",
"2.	c #D34300",
"3.	c #575757",
"4.	c #535353",
"5.	c #434343",
"6.	c #3D3D3D",
"7.	c #5A762D",
"8.	c #827742",
"9.	c #80743E",
"0.	c #6E6229",
"a.	c #4A4111",
"b.	c #5B5C5C",
"c.	c #4F5C58",
"d.	c #4C5955",
"e.	c #5A6762",
"f.	c #786A62",
"g.	c #726159",
"h.	c #7F736E",
"i.	c #717171",
"j.	c #8B8B8B",
"k.	c #454545",
"l.	c #12741A",
"m.	c #3B410D",
"n.	c #42380B",
"o.	c #5C5C5C",
"p.	c #6E6E6E",
"q.	c #777777",
"r.	c #707070",
"s.	c #8F8F8F",
"t.	c #606060",
"u.	c #3E3E3E",
"v.	c #5D5D5D",
"w.	c #285312",
"x.	c #403A0C",
"y.	c #41390B",
"z.	c #6D6D6D",
"A.	c #8A8A8A",
"B.	c #404040",
"C.	c #0F5513",
"D.	c #6C6C6C",
"E.	c #7D7D7D",
"F.	c #40390B",
"G.	c #373E0D",
"H.	c #254810",
"I.	c #4C4C4C",
"J.	c #383E0D",
"K.	c #27470F",
"L.	c #888888",
"M.	c #7B7B7B",
"N.	c #595959",
"O.	c #555555",
"P.	c #808080",
"Q.	c #787878",
"R.	c #585858",
"S.	c #636363",
"T.	c #0B0902",
"U.	c #0A0802",
"V.	c #4F4F4F",
"W.	c #545454",
"X.	c #000000",
"Y.	c #4E4E4E",
"Z.	c #505050",
"`.	c #7F7F7F",
" +	c #4D4D4D",
".+	c #666666",
"++	c #737373",
"@+	c #838383",
"#+	c #6F6F6F",
"$+	c #656565",
"%+	c #7C7C7C",
"&+	c #727272",
"*+	c #7A7A7A",
"=+	c #8E8E8E",
"                                                                                                    ",
"                        . + @ .                                                                     ",
"                      . . # $ % .                                                                   ",
"                      . & * = - ;                                                                   ",
"                      . > , ' ) !                                                                   ",
"                      . ~ { ] ^ /                                                                   ",
"                      . ( _ : <                                                                     ",
"                      . [ @ } |                                                                     ",
"                      1 2 3 4 5                                                                     ",
"                    6 7 7 8 9 7 7 0                                                                 ",
"                  a 7 7 7 b c 7 7 a d e                                                             ",
"                  f g 7 7 7 7 7 7 h i e e e                                                         ",
"                  e j k l i m n o p e e e e e e e e e                                               ",
"                  e e e e e q r e e e e e e e e e e s t                                             ",
"                  e e e e e u v e e e w e e e e e e x y z                                           ",
"                  e e e e A B C D D E F   e e e e G H y I J                                         ",
"                  e e e e K L M N O P 7     e e e     y Q R S J                                     ",
"                  e e e e T L U V W X 7                   Y Y Z       `  .                          ",
"                  e e e e ..+.@.#.$.%.7                   &.*.=.    -.;. .                          ",
"                  e e e e >.,.'.).!.~.{.                    ].^.      `  ./.                        ",
"                  e e e e (._.:.<.[.}.{.            |.|.|.1.2.        3. .4.5.6.                    ",
"                e e e e e 7.8.9.U 0.a.            b.c.d.e.f.g.h.i.j.j.   . .`   k.                  ",
"                e e e e l.m.n.n.n.n.n.            o.;. .-.p.-.q.r.j.s.   . .t.  u.v.                ",
"                    p w.x.n.n.n.n.n.n.y.          o.;. .v.z.-.q.r.j.A.     .;.t.u.B.                ",
"                    7 C.y.n.n.n.y.n.n.n.          o.;. .` D.-.q.r.j.E.     .3. .B.                  ",
"                    7 7 F.n.n.G.H.n.n.n.          o.;. .-.p.-.q.r.j.E.       ./.I.                  ",
"                      7 y.n.n.J.K.n.n.n.          o.;. .-.p.-.q.r.L.M.       .3.o.                  ",
"                        n.n.n.n.  n.n.n.          o.N.O.-.p.-.q.r.P.Q.        R.S.                  ",
"                        T.T.T.    U.T.T.          ` V.W.-.p.-.q.r.P.Q.                              ",
"                        X.X.X.  X.X.X.X.          ` Y.Z.-.p.-.q.r.`.Q.                              ",
"                      X.X.X.X.  X.X.X.X.X.        o.W. +.+p.-.Q.p.++@+                              ",
"                      X.X.X.X.    X.X.X.X.X.      o.o.o.D.#+$+%+&+*+=+                              "};
