/* XPM */
static char * TuT_50_xpm[] = {
"50 32 255 2",
"  	c None",
". 	c #DA8E26",
"+ 	c #D17E0B",
"@ 	c #BA6E09",
"# 	c #CA7A0A",
"$ 	c #AA762D",
"% 	c #A56612",
"& 	c #B26A0A",
"* 	c #C68222",
"= 	c #DB9A3E",
"- 	c #DB9E4B",
"; 	c #E6B675",
"> 	c #DEA24D",
", 	c #C57E1B",
"' 	c #995E08",
") 	c #A66E1F",
"! 	c #D28620",
"~ 	c #A6722E",
"{ 	c #885A14",
"] 	c #8E5206",
"^ 	c #9E5E08",
"/ 	c #AA6A12",
"( 	c #C5862B",
"_ 	c #D8A256",
": 	c #E2AA5C",
"< 	c #EAC289",
"[ 	c #E6BA7E",
"} 	c #BE7614",
"| 	c #7A4602",
"1 	c #764606",
"2 	c #C39553",
"3 	c #A67838",
"4 	c #765626",
"5 	c #5A3603",
"6 	c #683E02",
"7 	c #965E10",
"8 	c #B67E30",
"9 	c #C68E32",
"0 	c #E2AE68",
"a 	c #E2A24B",
"b 	c #DE9632",
"c 	c #DA8A1A",
"d 	c #D6820B",
"e 	c #E6BA76",
"f 	c #DE9E43",
"g 	c #BF7A19",
"h 	c #86520A",
"i 	c #764E16",
"j 	c #E0B680",
"k 	c #CA9A56",
"l 	c #A37E4C",
"m 	c #705224",
"n 	c #7A521A",
"o 	c #926A2F",
"p 	c #B4905E",
"q 	c #B6823A",
"r 	c #D39743",
"s 	c #C67A12",
"t 	c #D68A22",
"u 	c #E5AE60",
"v 	c #E2A655",
"w 	c #CE7A0A",
"x 	c #BA7206",
"y 	c #9E6616",
"z 	c #D6A65E",
"A 	c #CE8A29",
"B 	c #CC9E60",
"C 	c #83653A",
"D 	c #563202",
"E 	c #906E3B",
"F 	c #E6C696",
"G 	c #D3AA6E",
"H 	c #AA8656",
"I 	c #764C0E",
"J 	c #7D4E0B",
"K 	c #9E7232",
"L 	c #C6A678",
"M 	c #C2A682",
"N 	c #D6963A",
"O 	c #CD8628",
"P 	c #CE8217",
"Q 	c #D28A22",
"R 	c #D28E2A",
"S 	c #C6760A",
"T 	c #8E560A",
"U 	c #D19239",
"V 	c #B67A25",
"W 	c #CEB28E",
"X 	c #826A4E",
"Y 	c #B6966A",
"Z 	c #E8BE82",
"` 	c #E2AA62",
" .	c #CAAE82",
"..	c #D0B280",
"+.	c #96723C",
"@.	c #9A6E30",
"#.	c #AB6E16",
"$.	c #BA7212",
"%.	c #BE720A",
"&.	c #BA720C",
"*.	c #C2760B",
"=.	c #A7660A",
"-.	c #AE721A",
";.	c #EED2AA",
">.	c #86622A",
",.	c #805618",
"'.	c #CFAE81",
").	c #EABE86",
"!.	c #B4823E",
"~.	c #9A661A",
"{.	c #C78F3B",
"].	c #B66E0A",
"^.	c #925A09",
"/.	c #AE6A09",
"(.	c #BA8A46",
"_.	c #C28A42",
":.	c #926222",
"<.	c #7E5212",
"[.	c #C29E6E",
"}.	c #E6C292",
"|.	c #E4B26A",
"1.	c #BD8E4B",
"2.	c #BA9860",
"3.	c #BE965A",
"4.	c #B26E0E",
"5.	c #DEAA5C",
"6.	c #B67622",
"7.	c #AA6A0A",
"8.	c #9E620B",
"9.	c #AE6606",
"0.	c #D89230",
"a.	c #A66209",
"b.	c #864E06",
"c.	c #A26E2A",
"d.	c #E2C292",
"e.	c #E6B66E",
"f.	c #CA821D",
"g.	c #9E6A20",
"h.	c #D2A266",
"i.	c #DAA860",
"j.	c #CA9246",
"k.	c #925606",
"l.	c #7E4A02",
"m.	c #CEA056",
"n.	c #CA7E16",
"o.	c #C2822E",
"p.	c #C59A5F",
"q.	c #C69E66",
"r.	c #C67A0C",
"s.	c #EDC691",
"t.	c #D48614",
"u.	c #D69238",
"v.	c #C3965D",
"w.	c #9E7A42",
"x.	c #986A2C",
"y.	c #976213",
"z.	c #BC8231",
"A.	c #BA7E2E",
"B.	c #AA7224",
"C.	c #9E6212",
"D.	c #F2DAB6",
"E.	c #B48A50",
"F.	c #9A764A",
"G.	c #A56A17",
"H.	c #AC8042",
"I.	c #AE7626",
"J.	c #AE7A32",
"K.	c #925A12",
"L.	c #E4BE8A",
"M.	c #8A6232",
"N.	c #A2620C",
"O.	c #8A560C",
"P.	c #63625F",
"Q.	c #82520E",
"R.	c #BE9E6A",
"S.	c #B58745",
"T.	c #918F8E",
"U.	c #362E2A",
"V.	c #DEB276",
"W.	c #EECA9A",
"X.	c #965A0A",
"Y.	c #4A3616",
"Z.	c #CEB672",
"`.	c #6A4E22",
" +	c #DEC690",
".+	c #CA922E",
"++	c #C6B292",
"@+	c #85817F",
"#+	c #8E6632",
"$+	c #967242",
"%+	c #9A8A72",
"&+	c #E4CAA0",
"*+	c #DAAE5E",
"=+	c #BDBAB9",
"-+	c #7A623E",
";+	c #8A8A89",
">+	c #C2C2C2",
",+	c #CEBA9A",
"'+	c #DED2AA",
")+	c #DECE96",
"!+	c #DEBA76",
"~+	c #E68A0A",
"{+	c #B2B2B1",
"]+	c #704408",
"^+	c #BEBEBE",
"/+	c #D6D6D5",
"(+	c #C29E5A",
"_+	c #D2A242",
":+	c #DACA9A",
"<+	c #DACA8A",
"[+	c #DEB66A",
"}+	c #F2EADA",
"|+	c #D2CABE",
"1+	c #A67A42",
"2+	c #B2A08A",
"3+	c #9A9A9A",
"4+	c #B6B6B6",
"5+	c #CEC6BA",
"6+	c #824E0A",
"7+	c #C68A1E",
"8+	c #D6C64A",
"9+	c #D6BE3A",
"0+	c #DAAA56",
"a+	c #B6761A",
"b+	c #FAEEDA",
"c+	c #FEFEFE",
"d+	c #DADADA",
"e+	c #AFAEAD",
"f+	c #717171",
"g+	c #7E7A7A",
"h+	c #664616",
"i+	c #12120A",
"j+	c #261A06",
"k+	c #C6BEAE",
"l+	c #A2968A",
"m+	c #8E5A12",
"n+	c #1A120A",
"o+	c #020202",
"p+	c #5E4E32",
"q+	c #927A56",
"r+	c #A6A6A6",
"s+	c #8E8A86",
"t+	c #767266",
"u+	c #868686",
"v+	c #927E62",
"w+	c #060606",
"x+	c #A2A2A2",
"y+	c #DED6D2",
"z+	c #8E6A3A",
"A+	c #AAAAA9",
"B+	c #767676",
"C+	c #F6F6F6",
"D+	c #DEDEDE",
"E+	c #7E7E7E",
"F+	c #6A6A6A",
"                                                                                                    ",
"                                                                                                    ",
"                                                                            . + @ #                 ",
"                  $ % & * = -                                           ; > , ' ) !                 ",
"                  ~ { ] ^ / ( _ :                                   < [ = } | 1 2 ;                 ",
"                  3 4 5 6 1 7 8 9 _ 0               a b c d       e ; f g h 5 i j                   ",
"                  k l m 6 n o p p q r - s t a u u : v a t w x y z ; r A B C D E F                   ",
"                    G H I J K L M l $ N O g P Q R ! P # S ^ T q 0 U V j W X 5 Y Z                   ",
"                    ` G o J l  ...+.@.#.A ( $.%.&.*.%.=.' ^ #.= t -.G ;.L >.,.'.).                  ",
"                    : ; !.E l '.'.~.h {.v , / %.*.S ].' ^./.R > O y (._.:.<.[.}.                    ",
"                      |.z 1.$ 2.3.4.O |.5.6./ # + + 7.8.^ 9.t : 0.a.h b.| c.d.e.                    ",
"                        0 N f.g.#.U : h.i.j.U ! d + /.@ &./.*.5.> } k.l.7 m.;                       ",
"                        : f n.& o.p.q.p.p.1.( n.d w &.w # S r.z s.: Q # t.f                         ",
"                          0.. u.2 v.v.2 w.x.y.#.+ S %.w S /.].! u ).s.v c                           ",
"                            U v.1.z.V A.8 B.,.g.z.&.%.&.C.C.*.d = < D.< u                           ",
"                          n.E.F.) & /.G.l E { H.1.I.%.4.J.E.K.9.t.v L.L.s.v                         ",
"                          V H.M.7 ^ N.O.P.P.Q.( R.S.&.=.C T.U.D # P , V.W.v                         ",
"                          $.B.@.y.X.^ a.i Y.^.f.Z.2.g =.7 `.T *.S /.*.A f a                         ",
"                            +.x.% 8.a.T k.8.J z. +...+y.].d w @ 7.7 & S B ++                        ",
"                            @+#+$+%+S.G.T ^.h 1.&+ +*+) r.+ ].&.=.T G.E.=+                          ",
"                              -+n ;+>+,+) O.8.m.'+)+!+O w &.%.~+u.4.$ {+                            ",
"                                ]+E ^+/+(+^.' _+:+<+[+f.N.z.&+}+|+1+2+=+                            ",
"                                    3+4+5+G.6+7+8+9+0+a+9 b+c+d+2+1+e+^+                            ",
"                                      f+g+h+h m i+j+C U k+/+/+l+o @+{+                              ",
"                                          Q.m+n+o+o+p+j.q+T.r+s+t+u+                                ",
"                                          v+=+;+w+w+x+y+z+  3+x+A+                                  ",
"                                          T.{+^+B+f+C+D+A+                                          ",
"                                          B+;+e+r+A+e+e+^+                                          ",
"                                            P.E+F+B+@+                                              ",
"                                                f+                                                  ",
"                                                                                                    ",
"                                                                                                    "};
