/* XPM */
static char * Undo_xpm[] = {
"50 32 185 2",
"  	c None",
". 	c #8A8A7E",
"+ 	c #AAAA9A",
"@ 	c #BABAA6",
"# 	c #F692B6",
"$ 	c #CACAB6",
"% 	c #F292BA",
"& 	c #F6AAC6",
"* 	c #929AF2",
"= 	c #D2D2BE",
"- 	c #EA9AC2",
"; 	c #8E96EE",
"> 	c #FABAD2",
", 	c #EEAABE",
"' 	c #DADAC2",
") 	c #DE92C2",
"! 	c #EABEC2",
"~ 	c #AEB6F6",
"{ 	c #A2AAF2",
"] 	c #FACADA",
"^ 	c #DEB6B6",
"/ 	c #9E96E6",
"( 	c #FADAE6",
"_ 	c #969686",
": 	c #E6BEBE",
"< 	c #BABEF6",
"[ 	c #FAD2DE",
"} 	c #DADAFA",
"| 	c #DEDEC6",
"1 	c #CEB2B2",
"2 	c #C6CAF6",
"3 	c #E6CEC6",
"4 	c #CED2FA",
"5 	c #DAC6BE",
"6 	c #AAA696",
"7 	c #9A9A8A",
"8 	c #AEAE9E",
"9 	c #C6C6B2",
"0 	c #F69EBE",
"a 	c #E2E2CA",
"b 	c #C6B6E6",
"c 	c #C6BEEE",
"d 	c #A2A292",
"e 	c #D6C2BA",
"f 	c #E2D2C6",
"g 	c #B2B29E",
"h 	c #DADAF6",
"i 	c #BEBEAA",
"j 	c #DACEC2",
"k 	c #CA9AD2",
"l 	c #F2DADE",
"m 	c #F296BA",
"n 	c #E6DEF2",
"o 	c #F2AEC6",
"p 	c #DAD2C2",
"q 	c #D6CABA",
"r 	c #C6B6AE",
"s 	c #EECAE2",
"t 	c #D6AADA",
"u 	c #B69ADE",
"v 	c #F29ABA",
"w 	c #A2A2EE",
"x 	c #FAC6D6",
"y 	c #D6D6BE",
"z 	c #CECEBA",
"A 	c #C2C2AE",
"B 	c #E2DECA",
"C 	c #F69ABA",
"D 	c #E2A2B6",
"E 	c #B6B6A2",
"F 	c #8E8E7E",
"G 	c #EE9EBA",
"H 	c #EEB2BE",
"I 	c #DEDAC6",
"J 	c #F6C2D6",
"K 	c #FADEEA",
"L 	c #F2A2BA",
"M 	c #F6A6C2",
"N 	c #9EA2EE",
"O 	c #A6A696",
"P 	c #F2B6C6",
"Q 	c #E2E2CE",
"R 	c #9AA2F2",
"S 	c #AAB2F2",
"T 	c #A29E8E",
"U 	c #CECABA",
"V 	c #929282",
"W 	c #FAC2D6",
"X 	c #EAA2B6",
"Y 	c #CEC6B6",
"Z 	c #9E9E8E",
"` 	c #EEA6CA",
" .	c #C2C6F6",
"..	c #C6C2AE",
"+.	c #D6D2BE",
"@.	c #DEE2FA",
"#.	c #F6A2BE",
"$.	c #D2CEBA",
"%.	c #B6B2A2",
"&.	c #CAC6B2",
"*.	c #929AEE",
"=.	c #C2BEAE",
"-.	c #F696B6",
";.	c #A2A6F2",
">.	c #F6B2CA",
",.	c #B2AE9E",
"'.	c #E2C6C2",
").	c #BAB6A6",
"!.	c #EAAEBE",
"~.	c #FACEDA",
"{.	c #FAD6E2",
"].	c #FEE2EA",
"^.	c #DEDECA",
"/.	c #BEBAAA",
"(.	c #A6A296",
"_.	c #969286",
":.	c #E6B6BE",
"<.	c #D6B2B2",
"[.	c #E2DACA",
"}.	c #B2B6F2",
"|.	c #D2D6FA",
"1.	c #DAD6C2",
"2.	c #AEAA9A",
"3.	c #F29EBA",
"4.	c #F2A6BA",
"5.	c #FABED6",
"6.	c #DADEFA",
"7.	c #E2D6CA",
"8.	c #B6B6A6",
"9.	c #9A968A",
"0.	c #969EF2",
"a.	c #EAC2C2",
"b.	c #E6C2C2",
"c.	c #C6CEF6",
"d.	c #EAA6BA",
"e.	c #BEBEAE",
"f.	c #928E82",
"g.	c #E6CECE",
"h.	c #C2C2B2",
"i.	c #D2CABE",
"j.	c #F6B6CE",
"k.	c #DA96C6",
"l.	c #A6AEF2",
"m.	c #EECEE6",
"n.	c #EAB6BE",
"o.	c #F6C6DA",
"p.	c #FEDAE6",
"q.	c #BABAAA",
"r.	c #9E9A8E",
"s.	c #E2C6CA",
"t.	c #F6AECA",
"u.	c #FEDEEA",
"v.	c #EEAEBE",
"w.	c #DEDEFA",
"x.	c #C6C6B6",
"y.	c #B2B2A2",
"z.	c #929286",
"A.	c #9296EE",
"B.	c #E2B6BA",
"C.	c #DECEC2",
"D.	c #AEB2F2",
"E.	c #CACEFA",
"F.	c #EEA6BA",
"G.	c #96968A",
"H.	c #D6D2C2",
"I.	c #D2CEBE",
"J.	c #CACABA",
"K.	c #DADAC6",
"L.	c #D6D6C2",
"M.	c #DEDACA",
"N.	c #F2A2BE",
"O.	c #DAD6C6",
"P.	c #C6C2B2",
"Q.	c #A29E92",
"R.	c #CAC6B6",
"S.	c #FACADE",
"T.	c #8E8E82",
"U.	c #F6A2C2",
"V.	c #F6B2CE",
"W.	c #E6BEC2",
"X.	c #FAD2E2",
"Y.	c #D6CABE",
"Z.	c #FAC6DA",
"`.	c #F696BA",
" +	c #FACEDE",
"                                                                                                    ",
"                                                                                                    ",
"                            Q Q Q                                                                   ",
"                          Q a a a                                     *.                            ",
"                        a B B B Q Q                                 ; R }.                          ",
"                      Q B Q Q Q a a Q                             *.0.S |.@.                        ",
"                    a Q Q Q Q B B a Q Q                           *.;. .6.E.                        ",
"                Q Q B Q a a a Q Q B a a Q                       *.0.< 6.4 D.*                       ",
"              a a Q a B B B Q B K.K.^.a Q Q                   A.*.l.4 w.< R *.                      ",
"            Q B B Q B Q Q Q | K.z R.H.B a a Q                 / ;. .6.2 ;.*.                        ",
"          a Q Q a Q Q Q ^.K.= 9 8.E J.^.B a Q Q             ) k b h |.~ *.;                         ",
"        Q B Q Q B Q a a B K.9 8 d 6 ..I Q B a a           % m ` s n c w *.                          ",
"    Q a Q a a Q a B B ^.I L.&.8 O E $ ^.Q B B Q Q         % v J ( m.t u /                           ",
"  Q a B Q B B Q B ^.L.= $ U J./.q.R.O.B Q Q Q a a Q     # C t.( ( V.G )                             ",
"a B Q a Q Q a Q a 1.A y.O + i z = ' a a Q ^.^.B a B 3 , m &  +].J 3.m                               ",
"B Q Q B Q Q B Q ^.= %.Z V _ g z K.^.^.^.I L.+.^.B B a.F.0 > u.X.& `.%                               ",
"Q a Q a a Q a Q a L.8.7 _ r.E H.Q Q ^.K.I.h.e.L.[.3 v.L >.{.K V.v #                                 ",
"a B Q B B a B M.K.= R.8.2.8.U | a B 1.$ @ + 2.R.f ! 3.M W K ] 0 #                                   ",
"Q a Q Q B K.z h.E E $ z $ = ^.B a B O.h.+ Z O P.b., 3.> p.X.& % #                                   ",
"Q B Q Q ^.R.,.Z _.G.%.z K.^.^.^.K.K.y $ %.8 ).e !.3.t. +( > 0 v                                     ",
"Q a a ^.' @ _ . F T.2.z ^.a ^.= x.e.=.$ 9 9 i.: L U.o.{.o.#.3.H                                     ",
"Q B B B = 8 z.F 9.+ h.1.a B = ).O 7 Z @ z p p H L j.X.X.>.3., f B                                   ",
"Q Q Q O.h.O 9.7 + h.L.B a ^.= 8 9.V z.8 z B 7.W.P ~.p.5.N.F.! [.Q Q                                 ",
"Q a K.z ,.d O O e.' ^.^.^.^.= i O Z + A K.B | f s.l o.M v :.f B B a Q                               ",
"^.| z @ d Z + 8.I.B B M.1.z J.U =.8.h.+.^.B L.z U s.v.G d.b.M.Q B a Q                               ",
"= h.2.Z 9.+ =.+.| ^.L.A ,.O + A z = K.a ^.L.R./.).1 d.d.^ j | B Q B a Q                             ",
"i O Z Q.O e.= ^.Q K.A O z.T._ y.$.I ^.| = 9 i q.).r 1 ^ 5 H.K.^.Q B a Q Q                           ",
"=.O + E A = ^.Q ^.L.y.z.. f.G.y.= ^.^.L.U i y.).i =.e Y +.K.| B Q Q B a a Q                         ",
"= e.e.U L.^.B a ^.z 6 _ z.d E z ' B M.= 9 @ 8 y.i 9 = L.I ^.a a Q Q B B a Q Q                       ",
"^.O.L.K.B a a B 1.q.O T d %.z K.a ^.' z =.E 8 g A = I B a B Q B a Q Q Q B a a Q                     ",
"a Q Q a B Q a L.9 O Z 6 8 R.I B K.= $ i 8.E %.i $.K.a ^.Q B Q B a Q Q Q B B a Q Q                   ",
"Q Q a Q Q ^.O.x.y.Z d + e.= a ^.= /.8 d + /.x.z | a Q Q a Q Q Q B a a Q Q Q B a a                   "};
