/* XPM */
static char * Verlernen_trans_32_xpm[] = {
"26 32 213 2",
"  	c None",
". 	c #4578B7",
"+ 	c #4977B7",
"@ 	c #B768AB",
"# 	c #7D70B2",
"$ 	c #5276B6",
"% 	c #4678B7",
"& 	c #3F6DA7",
"* 	c #DD63A8",
"= 	c #DA63A8",
"- 	c #CB66AA",
"; 	c #A26BAE",
"> 	c #6773B3",
", 	c #4A77B6",
"' 	c #406EA8",
") 	c #3A659A",
"! 	c #CB65AA",
"~ 	c #936DAF",
"{ 	c #6074B5",
"] 	c #4271AC",
"^ 	c #3A6499",
"/ 	c #DC63A8",
"( 	c #D264A9",
"_ 	c #3D689F",
": 	c #DC63A7",
"< 	c #BF5893",
"[ 	c #4C5E92",
"} 	c #EC6AB4",
"| 	c #E165AB",
"1 	c #D35FA0",
"2 	c #B45289",
"3 	c #FF73C4",
"4 	c #FC72C2",
"5 	c #F36EBA",
"6 	c #E667AF",
"7 	c #DF64AA",
"8 	c #D45FA1",
"9 	c #BB548E",
"0 	c #FC71C1",
"a 	c #F06CB8",
"b 	c #E366AD",
"c 	c #BE5691",
"d 	c #B8538C",
"e 	c #EDDDBD",
"f 	c #FD72C3",
"g 	c #F770BD",
"h 	c #D560A2",
"i 	c #B9548D",
"j 	c #F26DBA",
"k 	c #C15793",
"l 	c #EADABA",
"m 	c #E9D9BA",
"n 	c #E8D9B9",
"o 	c #E6D7B8",
"p 	c #ECDCBC",
"q 	c #E7D8B9",
"r 	c #DFD1B4",
"s 	c #E4D5B7",
"t 	c #EBDBBB",
"u 	c #ECDCBD",
"v 	c #DED0B2",
"w 	c #B6AC97",
"x 	c #ABA28F",
"y 	c #A89F8C",
"z 	c #A29A88",
"A 	c #B2A891",
"B 	c #D6C8AC",
"C 	c #DDCFB1",
"D 	c #AEA591",
"E 	c #958F80",
"F 	c #BAB099",
"G 	c #DACCB0",
"H 	c #EBDBBC",
"I 	c #D1C4A9",
"J 	c #948D7F",
"K 	c #716F67",
"L 	c #6E6C65",
"M 	c #66645D",
"N 	c #53524C",
"O 	c #8B8372",
"P 	c #D6C7AA",
"Q 	c #D8C9AD",
"R 	c #BEB298",
"S 	c #908A78",
"T 	c #6C6961",
"U 	c #716F66",
"V 	c #837E73",
"W 	c #BEB39D",
"X 	c #E9DABA",
"Y 	c #DFD1B3",
"Z 	c #938E7F",
"` 	c #706D65",
" .	c #696760",
"..	c #6A6860",
"+.	c #767269",
"@.	c #737066",
"#.	c #646158",
"$.	c #908674",
"%.	c #C8BA9F",
"&.	c #EADABB",
"*.	c #B1A48E",
"=.	c #928876",
"-.	c #6D695F",
";.	c #8B8578",
">.	c #8C8779",
",.	c #7B786D",
"'.	c #706E66",
").	c #8B8579",
"!.	c #D3C6AB",
"~.	c #EBDCBC",
"{.	c #D4C7AC",
"].	c #827D72",
"^.	c #7D7971",
"/.	c #9B9892",
"(.	c #C4C0B8",
"_.	c #B7B0A2",
":.	c #A19785",
"<.	c #ADA28C",
"[.	c #B2A68E",
"}.	c #C9BCA1",
"|.	c #D9CBAD",
"1.	c #A19682",
"2.	c #A59C88",
"3.	c #B5AD9E",
"4.	c #C5C1B6",
"5.	c #DAD5C9",
"6.	c #C0B9A9",
"7.	c #9B9382",
"8.	c #807C71",
"9.	c #9C9484",
"0.	c #E1D3B5",
"a.	c #E6D6B8",
"b.	c #E1D2B4",
"c.	c #B6AB95",
"d.	c #AEA79A",
"e.	c #6F6E6D",
"f.	c #A5A5A5",
"g.	c #D1CEC7",
"h.	c #A99E88",
"i.	c #A79B85",
"j.	c #ACA089",
"k.	c #E5D6B7",
"l.	c #CCBEA3",
"m.	c #A69A85",
"n.	c #A79A85",
"o.	c #C3B69E",
"p.	c #9D9991",
"q.	c #636363",
"r.	c #D9D9D8",
"s.	c #E9E4DB",
"t.	c #C4B79E",
"u.	c #B8AD96",
"v.	c #BDB29C",
"w.	c #CDBEA3",
"x.	c #C7B99F",
"y.	c #A89C88",
"z.	c #ADA59A",
"A.	c #838280",
"B.	c #AAA8A6",
"C.	c #C0B9AC",
"D.	c #978C78",
"E.	c #A29681",
"F.	c #B3A68F",
"G.	c #E3D3B5",
"H.	c #C7BAA0",
"I.	c #A59984",
"J.	c #C0B39B",
"K.	c #AFA99E",
"L.	c #7F7E7C",
"M.	c #DFDEDB",
"N.	c #DBD4C9",
"O.	c #BAAD95",
"P.	c #CDBFA3",
"Q.	c #E3D4B6",
"R.	c #CDBFA4",
"S.	c #BFB299",
"T.	c #A69A84",
"U.	c #A69C87",
"V.	c #BDB4A3",
"W.	c #C0B7A6",
"X.	c #ABA08A",
"Y.	c #ADA18A",
"Z.	c #AA9E88",
"`.	c #BDAF97",
" +	c #E7D7B8",
".+	c #CEC0A4",
"++	c #C0B39A",
"@+	c #C7BBA2",
"#+	c #CAC0AD",
"$+	c #CFC6B6",
"%+	c #C4B8A2",
"&+	c #C1B39A",
"*+	c #C4B79D",
"=+	c #D2C4A8",
"-+	c #E3D4B5",
";+	c #DDCDB0",
">+	c #DECFB1",
",+	c #DACCAE",
"'+	c #DDCEB1",
")+	c #DCCDAF",
"!+	c #D1C3A7",
"~+	c #B6AA91",
"{+	c #D9CAAD",
"]+	c #DFD0B3",
"^+	c #B2A68F",
"/+	c #B1A58E",
"(+	c #D0C2A6",
"_+	c #C8BAA0",
":+	c #C6B89E",
"<+	c #C2B59C",
"[+	c #BDB098",
"}+	c #C4B69C",
"|+	c #DBCCAF",
"                                                    ",
"                                .                   ",
"                              . . . .               ",
"                            . . . . . .             ",
"                            + . . . . . .           ",
"                          @ # $ % . . . . &         ",
"                        * = - ; > , . . ' )         ",
"                        * * * * ! ~ { ] ^           ",
"                      * * * * * / ( @ _ ^           ",
"                      * * * * * * : < [             ",
"                    } | * * * * * 1 2               ",
"                  3 4 5 6 7 * * 8 9                 ",
"                    3 3 0 a b * c d                 ",
"              e       3 3 f g h i                   ",
"            e e           3 j k d                   ",
"          e e e                                     ",
"        e e e e e                                   ",
"      e e e e e e                                   ",
"      e e e e e e                   e e e e         ",
"    e e e e e e e e e e e e e e e e e e e e e       ",
"    e e e e e e e e e e e e e e e e e e e e e       ",
"    e e e e e e e e e e e e e e e e e e e e e e     ",
"  e e e e e e e e e e e e e e e e e e e e e e e     ",
"  e e e l m n o p e e e e e e e p q r s t e e e     ",
"  e u v w x y z A B p e e e e e C D E z F G t e e   ",
"e H I J K L L M N O P e e e Q R S T K U U V W X e   ",
"e Y Z `  ...+.@.#.$.%.H e &.*.=.-.+.;.>.,.'.).!.~.  ",
"e {.].^./.(._.:.<.[.}.m e |.1.=.2.3.4.5.6.7.8.9.0.  ",
"a.b.c.d.e.f.g.h.i.j.R k.e l.m.n.o.p.q.r.s.t.u.v.k.  ",
"w.x.y.z.A.B.C.m.D.E.F.G.e H.m.I.J.K.L.M.N.O.P.Q.p   ",
"R.S.T.U.V.W.X.Y.Z.I.`. +e .+i.m.++@+#+$+%+&+*+=+k.  ",
"-+;+>+,+'+C ,+)+!+~+{+p e ]+^+/+(+_+:+<+[+}+x._+|+  "};
