/* XPM */
static char * Vorgabe_32_xpm[] = {
"50 32 256 2",
"  	c None",
". 	c #363632",
"+ 	c #3E3A3A",
"@ 	c #767676",
"# 	c #928E87",
"$ 	c #A2A29A",
"% 	c #B6B2A9",
"& 	c #7A665E",
"* 	c #CA1212",
"= 	c #C2BEB2",
"- 	c #DA7E7A",
"; 	c #964E3A",
"> 	c #CAC6BA",
", 	c #D27655",
"' 	c #86726A",
") 	c #E68E86",
"! 	c #BE1212",
"~ 	c #BE1616",
"{ 	c #E24642",
"] 	c #DA967A",
"^ 	c #D6D2C6",
"/ 	c #DA1616",
"( 	c #DEAE96",
"_ 	c #D68E72",
": 	c #8A5A4A",
"< 	c #C27E6A",
"[ 	c #6A3232",
"} 	c #E61616",
"| 	c #96726A",
"1 	c #BE1A0E",
"2 	c #DAD6CA",
"3 	c #DAA286",
"4 	c #EAB2A6",
"5 	c #CA5227",
"6 	c #82827E",
"7 	c #5A5A56",
"8 	c #A24E32",
"9 	c #BE8E86",
"0 	c #E2C2B2",
"a 	c #C21E1E",
"b 	c #AA726A",
"c 	c #DE5E56",
"d 	c #DEB6A1",
"e 	c #EA1A1A",
"f 	c #DEDACE",
"g 	c #B66242",
"h 	c #E2C6B2",
"i 	c #AE421E",
"j 	c #F21612",
"k 	c #C63A36",
"l 	c #9A9A9A",
"m 	c #E2322E",
"n 	c #D2320A",
"o 	c #C22A2A",
"p 	c #B64A26",
"q 	c #CAA28E",
"r 	c #DE564A",
"s 	c #DEBEAE",
"t 	c #CE6A42",
"u 	c #BE2626",
"v 	c #9A867E",
"w 	c #E6322E",
"x 	c #F22A28",
"y 	c #625E5A",
"z 	c #B63E16",
"A 	c #EE7672",
"B 	c #96766E",
"C 	c #DE2E2A",
"D 	c #E2DED2",
"E 	c #CE2A26",
"F 	c #CE6A62",
"G 	c #BAAE92",
"H 	c #E2D2C2",
"I 	c #FA1E1E",
"J 	c #726E6A",
"K 	c #F24E4A",
"L 	c #8A8A84",
"M 	c #D27E7A",
"N 	c #BE3A0E",
"O 	c #CA524E",
"P 	c #7A7A72",
"Q 	c #E29A92",
"R 	c #C63606",
"S 	c #DABEB2",
"T 	c #96928A",
"U 	c #C2BAB2",
"V 	c #D6CEC2",
"W 	c #BA421A",
"X 	c #AEAA9E",
"Y 	c #E2CABA",
"Z 	c #D68262",
"` 	c #867A76",
" .	c #CA4212",
"..	c #CA4616",
"+.	c #F23E3A",
"@.	c #76726A",
"#.	c #D22222",
"$.	c #A26662",
"%.	c #6A6662",
"&.	c #CE6642",
"*.	c #BAB6AA",
"=.	c #BE9A7E",
"-.	c #EE827A",
";.	c #CE1616",
">.	c #E27266",
",.	c #F25652",
"'.	c #D69A92",
").	c #E6DACA",
"!.	c #EE6256",
"~.	c #E6DED2",
"{.	c #CECABF",
"].	c #F62222",
"^.	c #D65242",
"/.	c #86827E",
"(.	c #7E7E76",
"_.	c #DAAEA6",
":.	c #D27E5D",
"<.	c #C23A0A",
"[.	c #969692",
"}.	c #DE1616",
"|.	c #EA4642",
"1.	c #EAAAA2",
"2.	c #9E9A91",
"3.	c #C2AEA6",
"4.	c #C63E0E",
"5.	c #AAA69A",
"6.	c #FA2221",
"7.	c #D2724E",
"8.	c #C61212",
"9.	c #EE221E",
"0.	c #B2AEA6",
"a.	c #D68A6A",
"b.	c #6A6A66",
"c.	c #9E9E96",
"d.	c #DED6CA",
"e.	c #86867E",
"f.	c #D23E3A",
"g.	c #C6C2B7",
"h.	c #F21A1A",
"i.	c #BEBAAF",
"j.	c #E2DACE",
"k.	c #D21616",
"l.	c #C64226",
"m.	c #EACABE",
"n.	c #9A968F",
"o.	c #FE1E1E",
"p.	c #D2CEC3",
"q.	c #7E7E7E",
"r.	c #DA9E86",
"s.	c #C2322E",
"t.	c #CA4A1D",
"u.	c #868682",
"v.	c #7A7A7A",
"w.	c #DECEC2",
"x.	c #7E6E6A",
"y.	c #F2423E",
"z.	c #8A8A8A",
"A.	c #CABAA6",
"B.	c #C6827A",
"C.	c #968E86",
"D.	c #EABEB2",
"E.	c #C21616",
"F.	c #D26E4A",
"G.	c #DAD2C7",
"H.	c #D66E6A",
"I.	c #CA3E11",
"J.	c #E2CEBE",
"K.	c #E6D2C6",
"L.	c #F61A1A",
"M.	c #EE1A1A",
"N.	c #BEB6AE",
"O.	c #E21616",
"P.	c #7E6A66",
"Q.	c #EE8E86",
"R.	c #925E4E",
"S.	c #FA3E3E",
"T.	c #72726A",
"U.	c #E6E2D6",
"V.	c #EE4642",
"W.	c #827E76",
"X.	c #C21212",
"Y.	c #C21A1A",
"Z.	c #8A8684",
"`.	c #929292",
" +	c #8E8A82",
".+	c #D61616",
"++	c #CA1616",
"@+	c #DA9A7F",
"#+	c #DEBAA6",
"$+	c #E6C2B8",
"%+	c #F61E1E",
"&+	c #8E8E8E",
"*+	c #E2CEC3",
"=+	c #C63A07",
"-+	c #D2CAC2",
";+	c #D69276",
">+	c #DEC2B6",
",+	c #E69E94",
"'+	c #D68666",
")+	c #E6AEA2",
"!+	c #BAB2A8",
"~+	c #AAA69E",
"{+	c #CEC6BE",
"]+	c #A29E96",
"^+	c #E2D6CA",
"/+	c #766A66",
"(+	c #DAA68E",
"_+	c #C63E3A",
":+	c #C22E2A",
"<+	c #F2524E",
"[+	c #D2827A",
"}+	c #BE9E82",
"|+	c #EE867E",
"1+	c #AEA69E",
"2+	c #A6A29A",
"3+	c #C6BEB6",
"4+	c #6E6666",
"5+	c #CAC2BA",
"6+	c #9E9692",
"7+	c #DED6CE",
"8+	c #7A7672",
"9+	c #D26A46",
"0+	c #8A827E",
"a+	c #8A867E",
"b+	c #E6CEC2",
"c+	c #DE5652",
"d+	c #DEBEB6",
"e+	c #AEAAA2",
"f+	c #E6DACE",
"g+	c #F2625E",
"h+	c #727272",
"i+	c #7E7A72",
"j+	c #C61616",
"k+	c #EAC2B6",
"l+	c #6A6A6A",
"m+	c #868686",
"n+	c #BAB6AE",
"o+	c #827E7A",
"p+	c #DE7E7A",
"q+	c #F61616",
"r+	c #9E867A",
"s+	c #F24642",
"t+	c #EAAEA6",
"u+	c #C2BEB6",
"v+	c #D6CEC6",
"w+	c #6A6666",
"x+	c #96928E",
"y+	c #CA4216",
"z+	c #CA461A",
"A+	c #76726E",
"B+	c #969696",
"C+	c #828282",
"D+	c #8E8A86",
"E+	c #AAA6A2",
"F+	c #E2C6B6",
"G+	c #E2D2C6",
"                            R R R R R R R R t.'+F.R                                                 ",
"                        R R R <.W p R R t.@+~.~.J.5 R                                               ",
"                  w+w+w+z i R.0+B+u.g 3 f+~.~.~.~.G+y+R                                             ",
"              l+b.l+l+b.P.m+l B+m+v.[.U.~.~.~.~.~.~.( =+R                                           ",
"        R R ; 4+l+l+v.&+l `.C+v.q.m+C+{.~.~.~.~.~.~.~.;+R                                           ",
"  R R R R R N : q.n.6+L q.v.q.m+v.q.E+2 ~.~.~.~.~.~.~.).t R                               o.o.      ",
"R R R R R 8 ` l [.C+v.v.C+m+v.6 % j.~.~.~.~.j.~.~.~.~.~.J.z+R                           o.o.%+e     ",
"R R R R <.& &+C+v.v.C+z.q.Z.n+D ~.~.~.~.j.G.~+(.D ~.~.~.~.d  .R                     o.o.I M.O.k.    ",
"R R =+=+..' @ z.u.z.q.x+u+D ~.~.7+~.2 {+/.]+a+2+j.~.~.~.~.~.] R R               o.o.o.h.O..+8.!     ",
"=+4.t d ~.> h+q.v.c.-+~.~.~.~.f 8+0.n+@.(.]+d.j.~.~.~.~.~.~.f+F.R             o.o.L.} / * ! !       ",
", 0 ~.~.~.~.g.$ p.~.~.~.d.g.f p.T P # P U d.~.~.~.~.~.~.~.~.~.H 5 R       o.o.I e }.;.! !           ",
"a.~.~.~.~.~.~.~.~.~.~.~.j. +L W.a+J *.^ ~.~.~.~.~.~.~.~.~.D D ~.h I.n o.o.I M.O.k.X.!               ",
"I.J.~.~.~.~.~.~.~.~.~.~.~.v+T /.i.^ ~.~.~.~.~.~.~.~.~.~.~.U 2+D m.!.6.o.h.} / 8.!                   ",
"R :.~.~.~.~.V 2+T *.~.~.~.~.i.j.~.~.~.~.~.~.~.~.~.~.~.~.D = x.- S.o.L.e }.++! !                     ",
"  z+F+~.~.7+]+j.j.J N.~.~.~.~.~.~.~.~.~.~.~.~.~.~.~.f 0.# b |.6.I e O.;.X.1                         ",
"  R , ~.~.-+2.~.~.T  +~.~.~.~.~.~.~.~.~.~.~.~.~.~.U n.B c+].o.h.O..+E.k l.R                         ",
"    ..H ~.D A+o+(.+ p.~.~.~.~.~.~.~.~.~.g.2 f e+]+v H.x o.h.} / j+:+[+*+( R R                       ",
"    R , ~.~.~.*.X d.~.~.~.~.~.~.~.~.~.j.0. +W./+B.+.o.L.e }.++a F >+~.~.~.;+R R                     ",
"      4.Y ~.~.~.~.~.~.~.~.D.|+~.g.G.G.]+e.C.9 f.6.I M.O.k.Y.O _.f+~.~.~.~.).9+R R                   ",
"      =+a.~.~.~.b+-.$+~.K.,.g+~.2.o+= T ]+r+r 6.h.} .+j+_+'.^+~.~.~.~.~.~.~.H 5 R R                 ",
"        4.F+~.~.Q.y.<+Q p+y.1.~.N.~+8+2+!+G =.C / ++o M *+~.~.~.~.~.~.~.~.~.~.#+I.R                 ",
"        R @+~.~.K.A m w e #.3.~.% 5+^ w.>.^.}+< s.F d+~.~.~.~.~.~.~.~.~.~.~.~.~.r.R R               ",
"          y+F+~.~.f+$.K q+x u t+f j.~.) j 9.q A.S ~.~.~.~.~.~.~.j.u+T V ~.~.~.~.~.&.R R             ",
"          R a.~.~.~.| { s+c ~ )+~.~.~.,+,+$+j.~.~.~.~.~.~.~.2 u+i.T X W.2 ~.~.~.~.~.t.R R           ",
"            4.J.~.k+V.E [ .  +~.~.~.~.~.~.~.~.~.~.~.~.~.d.~+n.a+A+{.2.{+j.~.~.~.~.~.s 4.R R         ",
"            R Z ~.K.4 K.^ j.~.~.~.~.~.~.~.~.~.f g.2.d.~+e+T.{.n.*.^ ~.~.~.~.~.~.~.~.~.(+R R R       ",
"               .F+~.~.~.~.~.~.~.~.~.~.~.~.~.^ (.G.i+e+W.% 5.X ~.~.~.~.~.~.~.~.~.~.~.~.~.'+R R       ",
"              R :.~.~.~.~.~.~.V 3+7+~.~.~.~.~.]+T !+8+n.2.2 D ~.~.~.~.~.~.~.~.~.~.~.~.~.).t R R     ",
"                I.*+~.~.~.D X 1+i.T ~+D ~.~.~.2 @.> 2+^ ~.~.~.~.~.~.~.~.~.~.~.~.~.~.~.~.~.H 5 R R   ",
"                R :.~.~.~.f  +j.~.~.Z.5.~.~.~.~.N.v+~.~.~.~.~.~.~.~.~.~.~.~.~.~.~.~.~.~.~.~.d I.R R ",
"                  t.).~.~.D /.X j.D # %.D ~.~.~.~.~.~.~.~.~.~.~.~.~.~.~.~.~.~.~.~.~.~.~.~.~.~._ R R ",
"                  R @+~.~.~.{.%.7 y . D+~.~.~.~.~.~.~.~.~.~.~.~.~.~.~.~.~.~.~.~.~.~.~.~.~.~.~.~.7.R "};
