/* XPM */
static char * Vorwaerts_xpm[] = {
"32 32 188 2",
"  	c None",
". 	c #225A1A",
"+ 	c #BEDA3E",
"@ 	c #227E0A",
"# 	c #5A7A1E",
"$ 	c #668A22",
"% 	c #868A82",
"& 	c #7EA62A",
"* 	c #C6EA9A",
"= 	c #92AE32",
"- 	c #9E9E9E",
"; 	c #368212",
"> 	c #A2BA36",
", 	c #C6EAA6",
"' 	c #3E9A16",
") 	c #B6E286",
"! 	c #5AB21E",
"~ 	c #AAE282",
"{ 	c #3E5E2A",
"] 	c #6AC222",
"^ 	c #269E0E",
"/ 	c #EAF6D6",
"( 	c #B6E69A",
"_ 	c #AADE7E",
": 	c #3EA216",
"< 	c #6E8226",
"[ 	c #2EA212",
"} 	c #B6DA3E",
"| 	c #56A61E",
"1 	c #5E6E26",
"2 	c #7EB62A",
"3 	c #A6BE36",
"4 	c #8ED22E",
"5 	c #72AE26",
"6 	c #6E7642",
"7 	c #26A60E",
"8 	c #A6C236",
"9 	c #EAF6DA",
"0 	c #72B626",
"a 	c #FEFEFE",
"b 	c #7ECE2A",
"c 	c #AADE76",
"d 	c #B2DA3A",
"e 	c #96B632",
"f 	c #2AAA0E",
"g 	c #52B21A",
"h 	c #92D232",
"i 	c #7ACE46",
"j 	c #3EBE16",
"k 	c #5A662A",
"l 	c #A2D236",
"m 	c #6E726A",
"n 	c #2AAE0E",
"o 	c #72CE42",
"p 	c #72766E",
"q 	c #AECA3A",
"r 	c #6ECA26",
"s 	c #226A12",
"t 	c #96D232",
"u 	c #46BE16",
"v 	c #2EBA0E",
"w 	c #7AC62A",
"x 	c #7A7A7A",
"y 	c #E6F6DA",
"z 	c #8ACE2E",
"A 	c #3A6E1A",
"B 	c #5AC61E",
"C 	c #52B61E",
"D 	c #AAD23A",
"E 	c #32BA12",
"F 	c #7A8276",
"G 	c #AEDE62",
"H 	c #9ECE36",
"I 	c #36562E",
"J 	c #4A5A32",
"K 	c #A2DA5A",
"L 	c #66CA32",
"M 	c #56C21E",
"N 	c #76CA26",
"O 	c #62722A",
"P 	c #86C22E",
"Q 	c #3AB612",
"R 	c #86CE2E",
"S 	c #AAD63A",
"T 	c #62C622",
"U 	c #8E8E8A",
"V 	c #4EC21A",
"W 	c #5A5E3E",
"X 	c #7ACE3E",
"Y 	c #326626",
"Z 	c #4AC21A",
"` 	c #828282",
" .	c #66C622",
"..	c #AEDA3A",
"+.	c #466A22",
"@.	c #5E6642",
"#.	c #42622A",
"$.	c #36BA12",
"%.	c #A2A2A2",
"&.	c #4E6242",
"*.	c #6ACA22",
"=.	c #5E6E46",
"-.	c #96D63E",
";.	c #72CE3A",
">.	c #7ACA2A",
",.	c #A6D23A",
"'.	c #9ED636",
").	c #8E928A",
"!.	c #42BE16",
"~.	c #9AD232",
"{.	c #52C21A",
"].	c #72CA26",
"^.	c #2AB60E",
"/.	c #8AD22E",
"(.	c #36BE12",
"_.	c #B2E282",
":.	c #226212",
"<.	c #3A661E",
"[.	c #526E26",
"}.	c #2E5E22",
"|.	c #BAD63E",
"1.	c #82CE2A",
"2.	c #929292",
"3.	c #5EC61E",
"4.	c #3ABE12",
"5.	c #B6E27E",
"6.	c #4E622A",
"7.	c #728A26",
"8.	c #8AB62E",
"9.	c #2E7212",
"0.	c #6A7246",
"a.	c #EAF6E6",
"b.	c #566646",
"c.	c #CAEA9A",
"d.	c #7A7E76",
"e.	c #BADA3E",
"f.	c #66CA2E",
"g.	c #8ED23A",
"h.	c #365E32",
"i.	c #8AD23A",
"j.	c #828682",
"k.	c #76CE42",
"l.	c #A6A6A6",
"m.	c #4E6E1E",
"n.	c #BAE286",
"o.	c #2E9E0E",
"p.	c #A2D636",
"q.	c #86D236",
"r.	c #7ACE2A",
"s.	c #A6D636",
"t.	c #BEDE3E",
"u.	c #E6F6E2",
"v.	c #CAEAA2",
"w.	c #9ED63E",
"x.	c #3E662A",
"y.	c #7E867E",
"z.	c #929692",
"A.	c #92D23A",
"B.	c #5EC626",
"C.	c #868682",
"D.	c #7E827E",
"E.	c #7E7E7E",
"F.	c #AED63A",
"G.	c #6AC626",
"H.	c #C6EAA2",
"I.	c #AEE27A",
"J.	c #4A663A",
"K.	c #4A662E",
"L.	c #EAFAE6",
"M.	c #6ACA36",
"N.	c #969692",
"O.	c #B2E28E",
"P.	c #AEE282",
"Q.	c #3ABA12",
"R.	c #9AD63E",
"S.	c #B6E282",
"T.	c #7E7E7A",
"U.	c #7ACE42",
"V.	c #CEEAA2",
"W.	c #EAF6DE",
"X.	c #6ACA26",
"Y.	c #9ED63A",
"Z.	c #82CE2E",
"`.	c #7A827A",
" +	c #969696",
".+	c #5A662E",
"++	c #727672",
"@+	c #8E928E",
"                                                                ",
"                          l.2.` `  +l.                          ",
"                    N.0.< = D ,.l H & # =.N.                    ",
"                U O 8 e.} d ..S s.p.'.~.t 2 [.z.                ",
"              @.3 t.e.} d ..S s.p.'.~.t h 4 /.5 b.              ",
"            .+|.t.e.} d ..S s.p.'.~.t h 4 /.R 1.w K.            ",
"          k + t.e.} d ..S s.p.'.~.t h 4 /.R 1.b r.N #.          ",
"        W |.t.e.} d ..S s.p.'.~.t h 4 /.R 1.b r.N ].] &.        ",
"      C.> t.e.} d ..S s.p.'.~.t h 4 /.R 1.b r.N ].r *.| @+      ",
"      1 t.e.} d ..S s.p.'.G / 9 9 9 c.Z.b r.N ].r *. .T <.      ",
"    ).q e.} d ..S s.p.'.~.t 5.a a a a V.r.N ].r *. .T 3.g j.    ",
"    6 e.} d ..S s.p.'.~.t h 4 I.a a a a v.].r *. .T 3.B M {     ",
"    7.} d ..S s.p.'.~.t h 4 /.R c a a a a v.X. .T 3.B M {.9.    ",
"  l.e d ..S s.p.Y.w.R.-.-.A.g.i.q.~ a a a a H.T 3.B M {.V ' %.  ",
"  C.F...S s.p.'.c.a a a a a a a a a a a a a a , 3.M {.V Z u x   ",
"  ++..S s.p.'.~.* a a a a a a a a a a a a a a a O.{.V Z u !.F   ",
"  p S s.p.'.~.t * a a a a a a a a a a a a a a W.M.V Z u !.j F   ",
"  C.p.p.'.~.t h K n.) S._._.P.P._ ( a a a a W.L V Z u !.j Q.x   ",
"  %.8.'.~.t h 4 z R 1.b r.N ].r X u.a a a 9 L V Z u !.j 4.[ -   ",
"    $ ~.t h 4 z R 1.b r.N ].r X u.a a a y L V Z u !.j 4.(.@     ",
"    6.t h 4 z R 1.b r.N ].r U.a.a a a y L V Z u !.j 4.(.E }.    ",
"    d.P 4 z R 1.b r.N ].r U.L.a a a y f.V Z u !.j 4.(.E n d.    ",
"      m.z R 1.b r.N ].r *.;.i i k.o B.V Z u !.j 4.(.E v s       ",
"      T.0 1.b r.N ].r *. .T 3.B M {.V Z u !.j 4.(.E v 7 j.      ",
"        J >.r.N ].r *. .T 3.B M {.V Z u !.j 4.(.E v ^.h.        ",
"          +.N ].r *. .T 3.B M {.V Z u !.j 4.(.E v ^..           ",
"            +.G.*. .T 3.B M {.V Z u !.j 4.(.E v ^..             ",
"              J.! T 3.B M {.V Z u !.j 4.$.E v ^ I               ",
"                % A C M {.V Z u !.j 4.$.E f :.y.                ",
"                    `.x.; : u !.j Q o.@ Y D.                    ",
"                          - x m m E.l.                          ",
"                                                                "};
