/* XPM */
static char * Weapon_trans_50_xpm[] = {
"50 32 197 2",
"  	c None",
". 	c #3A525A",
"+ 	c #7AB2BE",
"@ 	c #9A8E4A",
"# 	c #867E52",
"$ 	c #C6B676",
"% 	c #6EA2AE",
"& 	c #7A6E46",
"* 	c #C2B672",
"= 	c #8E8252",
"- 	c #9ADAE2",
"; 	c #BEB262",
"> 	c #F2E67A",
", 	c #6A827A",
"' 	c #726636",
") 	c #8ECED6",
"! 	c #6A9AA6",
"~ 	c #B6B27E",
"{ 	c #EEE27A",
"] 	c #46666E",
"^ 	c #EADE72",
"/ 	c #A69A52",
"( 	c #A6B28E",
"_ 	c #628E9A",
": 	c #86C2CE",
"< 	c #6E6E56",
"[ 	c #868A6A",
"} 	c #E6DA72",
"| 	c #AEA65A",
"1 	c #4E727A",
"2 	c #D2D27E",
"3 	c #929E86",
"4 	c #96A28A",
"5 	c #76AEBE",
"6 	c #7EB6C6",
"7 	c #869686",
"8 	c #5E8A96",
"9 	c #A6CABA",
"0 	c #3A565E",
"a 	c #62726A",
"b 	c #B6C2A6",
"c 	c #7A724A",
"d 	c #CEC672",
"e 	c #AAAE86",
"f 	c #7A8E7E",
"g 	c #567E86",
"h 	c #6696A2",
"i 	c #8EB2A6",
"j 	c #AEA256",
"k 	c #76AABA",
"l 	c #3E5A5E",
"m 	c #7E764A",
"n 	c #4A6A72",
"o 	c #CAC266",
"p 	c #AADAD2",
"q 	c #82A2A6",
"r 	c #6E9EB6",
"s 	c #968A4A",
"t 	c #5A828E",
"u 	c #9AD2D6",
"v 	c #AAC296",
"w 	c #9A9A5E",
"x 	c #A2964E",
"y 	c #82BECE",
"z 	c #52767E",
"A 	c #A2E6EE",
"B 	c #42626A",
"C 	c #B2A66A",
"D 	c #8ECADE",
"E 	c #AEA266",
"F 	c #CABE7A",
"G 	c #6EA2BA",
"H 	c #86AEAE",
"I 	c #A29A62",
"J 	c #766A46",
"K 	c #66929E",
"L 	c #6E765A",
"M 	c #C2BE86",
"N 	c #566662",
"O 	c #BAAE6E",
"P 	c #9E924E",
"Q 	c #425E66",
"R 	c #568292",
"S 	c #566E72",
"T 	c #8AC6D2",
"U 	c #867A42",
"V 	c #72A6B6",
"W 	c #76724A",
"X 	c #527A8E",
"Y 	c #5A8692",
"Z 	c #6A7A72",
"` 	c #928A5E",
" .	c #82BAC6",
"..	c #9E9662",
"+.	c #A2DEE6",
"@.	c #6E9EAE",
"#.	c #4A6E76",
"$.	c #92D2DA",
"%.	c #F2EE8E",
"&.	c #B2AA62",
"*.	c #667A6E",
"=.	c #BEB272",
"-.	c #AECAB2",
";.	c #9A8E5A",
">.	c #AA9E66",
",.	c #DED272",
"'.	c #DACA6E",
").	c #4A6266",
"!.	c #8E865A",
"~.	c #8A8246",
"{.	c #827A4E",
"].	c #527A82",
"^.	c #9A925E",
"/.	c #B6AA6E",
"(.	c #76AEC6",
"_.	c #C6BA76",
":.	c #8ECEE2",
"<.	c #E6DE82",
"[.	c #96D6DE",
"}.	c #4E6E7A",
"|.	c #CEBE7A",
"1.	c #82BACA",
"2.	c #72A2AE",
"3.	c #628A96",
"4.	c #3E5E6E",
"5.	c #9ADEE6",
"6.	c #5A828A",
"7.	c #72A6BE",
"8.	c #766E46",
"9.	c #7E724A",
"0.	c #EAE282",
"a.	c #7AB2C2",
"b.	c #F2EA82",
"c.	c #426272",
"d.	c #8A8252",
"e.	c #86C2D2",
"f.	c #8A7E52",
"g.	c #D2C266",
"h.	c #5A8296",
"i.	c #AA9E52",
"j.	c #6E9AAA",
"k.	c #46626A",
"l.	c #425E6A",
"m.	c #7EB2C2",
"n.	c #EEE686",
"o.	c #82764A",
"p.	c #968A5A",
"q.	c #CABA7A",
"r.	c #6A96A2",
"s.	c #A69A62",
"t.	c #C2B676",
"u.	c #6EA2B6",
"v.	c #8AC6DA",
"w.	c #867A4E",
"x.	c #4A6672",
"y.	c #7AAEBA",
"z.	c #86BED2",
"A.	c #76A6B6",
"B.	c #726A36",
"C.	c #AAB696",
"D.	c #66766A",
"E.	c #82BACE",
"F.	c #928656",
"G.	c #5E8692",
"H.	c #A2965E",
"I.	c #567A86",
"J.	c #B2AA5A",
"K.	c #6A9AAA",
"L.	c #72A2B2",
"M.	c #425E6E",
"N.	c #9E925E",
"O.	c #EADE7A",
"P.	c #628E9E",
"Q.	c #AEA26A",
"R.	c #86C2D6",
"S.	c #EEE282",
"T.	c #6692A2",
"U.	c #7AB2C6",
"V.	c #96D6E2",
"W.	c #82764E",
"X.	c #8AC6D6",
"Y.	c #6A96A6",
"Z.	c #EEDE76",
"`.	c #AA9A52",
" +	c #867A52",
".+	c #7A6E4A",
"++	c #4E727E",
"@+	c #7EB6CA",
"#+	c #567E8A",
"$+	c #4A6A76",
"%+	c #527682",
"&+	c #9A8E5E",
"*+	c #B6AA72",
"=+	c #C2B67A",
"-+	c #B2A66E",
";+	c #42626E",
">+	c #EAE286",
"                                                  >                                                 ",
"                                                b.{ g.                                              ",
"                                                '.`.U                                               ",
"                                                b.j B.                                              ",
"                                                > i.'                                               ",
"            8 $+l                               >+`.B.                            l $+8             ",
"          : T Y.#.0                   %.,.^ Z.S.o @ x } { O.n.                  0 #.r.X.e.          ",
"          y.V.[.k I.Q .               0.o i.i.&.&.@ ~.P i.; }               . Q %+y.V.V.+           ",
"          8 y.[.[.+ 6.]                         2 | L                       ] t y.[.$.y.3.          ",
"        n I.h m.$.- D 2., <                     v w l.                  < , % D 5.$.m.h ].n         ",
"k L._ ++++#+8 %  .D 5.[.i [ 9.                  H f 4.                c [ i [.5.)  .r 8 #+z %+_ L.k ",
"5 5 Y.8 G.8 8 K ! % z.A p ( ` W.                r t M.              W.` e p A z.% K.K 3.8 t G.Y.5 5 ",
"  6 L.T._ _ 8 8 6.g     +.9 ( ..# J             r R M.          J # ..( 9 +.    g t 8 3.P._ h % 6   ",
"  1.5 K.P.3._ t ++]       u -.~ H.f.c           G h.4.        c f.H.~ -.u       k.++t _ 3.P.K.5 E.  ",
"    y k K.P._ #+$+l.          M * >.p.m         r h.M.      9.` E =.M           Q #.#+_ K K.k E.    ",
"      R.a.@.T.t }.B               _.&.;.{.8.    G h.4.  8.{.;./._.              ;+}.Y T.@.+ R.      ",
"        D 1.A.h #+#.k.              F =.s.= c q r h.).8.= s.=.F               k.$+#+K V @+D         ",
"          D y V ! #+#.x.k.            |.t.>.F.7 r R N !.>.* F             k.x.#.t Y.k y :.          ",
"              v.@+L.P.#+}.1               _.C 4 r R a -+_.              }.1 #+P.L.6 v.              ",
"                e.y + V ! T.! @.A.          s.3 r h.*./.          A.@.! h h V 5 y R.                ",
"                    R.e.z.E.1.1.E.@+a.      # 3 r R a !.      a.@+y @+1.E.z.X.R.                    ",
"                                        & # ^.C.r h.D.^.# .+                                        ",
"                                      c f.H.O b r R D.*+I d.c                                       ",
"                                    o.p.C _.|.  G h.S t.$ Q.p.o.                                    ",
"                                J {.^./.$       G Y c.    q./.&+w.J                                 ",
"                              c d.>.O |.        r R ;+      F =.>.d.c                               ",
"                            o.p.Q.$ F           G R c.        F $ E p.W.                            ",
"                        &  +N.O F               G h.4.            q./... +&                         ",
"                      9.!.s.O q.                7.#+4.              q.=.s.F.9.                      ",
"                    o.` C * |.                  k h.M.                F * Q.p.W.                    ",
"                  # H./._.                      (.X                       _./.H.f.                  ",
"                    =.q.                          X                         F =.                    "};
