/* XPM */
static char * Weapon_trans_50_xpm[] = {
"50 32 86 1",
" 	c None",
".	c #C7BF54",
"+	c #AFB26A",
"@	c #BDBA5D",
"#	c #C6BF54",
"$	c #DFCD3E",
"%	c #ABAF6D",
"&	c #A4AC73",
"*	c #A8AE70",
"=	c #B8B761",
"-	c #B9B761",
";	c #A7AE70",
">	c #A5AC72",
",	c #CBC250",
"'	c #C7BF53",
")	c #D6C846",
"!	c #D4C748",
"~	c #C2BD58",
"{	c #B7B663",
"]	c #CCD7B1",
"^	c #ACBA98",
"/	c #91B0C8",
"(	c #88A9C2",
"_	c #86A6C1",
":	c #87A8C2",
"<	c #8FAEC6",
"[	c #BCD8EE",
"}	c #8AABCC",
"|	c #90AFC7",
"1	c #85A6C1",
"2	c #8CABC4",
"3	c #95B3CA",
"4	c #94B3CA",
"5	c #90AEC7",
"6	c #8CABC5",
"7	c #9CAB8F",
"8	c #847214",
"9	c #817B38",
"0	c #8CA8B7",
"a	c #92B0C8",
"b	c #6B5803",
"c	c #7A6404",
"d	c #7B6709",
"e	c #6B5D13",
"f	c #635103",
"g	c #715E03",
"h	c #958D4A",
"i	c #8AAAC8",
"j	c #7C7945",
"k	c #725E04",
"l	c #645204",
"m	c #817C46",
"n	c #89A7BF",
"o	c #6B693A",
"p	c #9A9559",
"q	c #88A6BF",
"r	c #797640",
"s	c #7F6804",
"t	c #81783A",
"u	c #88A8C5",
"v	c #6B683A",
"w	c #776204",
"x	c #826B04",
"y	c #735E04",
"z	c #604F03",
"A	c #7D6704",
"B	c #7E6704",
"C	c #635203",
"D	c #746003",
"E	c #836C04",
"F	c #756003",
"G	c #625003",
"H	c #685503",
"I	c #7B6504",
"J	c #806904",
"K	c #625103",
"L	c #705D04",
"M	c #786204",
"N	c #675503",
"O	c #6A5703",
"P	c #7A6504",
"Q	c #8AACCC",
"R	c #BBD7ED",
"S	c #8CADCD",
"T	c #B3D0E8",
"U	c #94B4D3",
"                                                  ",
"                       .+                         ",
"                       @#                         ",
"                        $                         ",
"                        $                         ",
"                        $                         ",
"                    %&*=-;>                       ",
"                    ,')))!~{                      ",
"                       ]^      /(                 ",
"               _:<     [}     |12                 ",
"             334567    [}   890a3333              ",
"            33333  bc  [}  de    333              ",
"             333    fgh[ijkl    333               ",
"               33     m[no     33                 ",
"                333   p[qr    3                   ",
"                     st[uvw                       ",
"                   xyz [}  bA                     ",
"                  Bb   [}   CDE                   ",
"                EFG    [}     HI                  ",
"               Jb      [}      KLE                ",
"              MN       [}        OP               ",
"                       [}                         ",
"                       [}                         ",
"                       [}                         ",
"                       [}                         ",
"                       [}                         ",
"                       [}                         ",
"                       [}                         ",
"                       [Q                         ",
"                       RS                         ",
"                       TU                         ",
"                                                  "};
