/* XPM */
static char * wizzard_trans_50_xpm[] = {
"50 32 770 2",
"  	c None",
". 	c #7E3EFF",
"+ 	c #7D3DFF",
"@ 	c #7B3BFF",
"# 	c #7838FF",
"$ 	c #7535FF",
"% 	c #7131FF",
"& 	c #6F2FFF",
"* 	c #7434FF",
"= 	c #8646FF",
"- 	c #8E4EFF",
"; 	c #9252FF",
"> 	c #8343FF",
", 	c #8748FF",
"' 	c #8C53FF",
") 	c #8647FF",
"! 	c #8445FF",
"~ 	c #8C4FFF",
"{ 	c #955AFF",
"] 	c #A76DFF",
"^ 	c #AF75FF",
"/ 	c #B177FF",
"( 	c #B076FF",
"_ 	c #BA81FF",
": 	c #B279FF",
"< 	c #C086FE",
"[ 	c #AC72FF",
"} 	c #965DFF",
"| 	c #AD7FFF",
"1 	c #9E65FF",
"2 	c #8848FF",
"3 	c #7939FF",
"4 	c #8444FF",
"5 	c #8F4FFF",
"6 	c #8545FF",
"7 	c #8242FF",
"8 	c #8141FF",
"9 	c #7F3FFF",
"0 	c #7C3CFF",
"a 	c #7333FF",
"b 	c #8747FF",
"c 	c #9555FF",
"d 	c #8243FF",
"e 	c #9A64FF",
"f 	c #9D6AFF",
"g 	c #9359FF",
"h 	c #995FFE",
"i 	c #9A60FF",
"j 	c #A66CFF",
"k 	c #BA7FFF",
"l 	c #B379FF",
"m 	c #B77CFF",
"n 	c #C58FFF",
"o 	c #BE89FF",
"p 	c #BE84FE",
"q 	c #A571FF",
"r 	c #B281FE",
"s 	c #9E64FF",
"t 	c #9256FF",
"u 	c #8749FF",
"v 	c #8B4BFF",
"w 	c #8A4AFF",
"x 	c #8949FF",
"y 	c #8040FF",
"z 	c #7636FF",
"A 	c #9050FF",
"B 	c #9A5AFF",
"C 	c #8E53FF",
"D 	c #AC7CFF",
"E 	c #A876FE",
"F 	c #9F65FE",
"G 	c #A56AFF",
"H 	c #A76CFF",
"I 	c #BC82FF",
"J 	c #B981FF",
"K 	c #C68FFF",
"L 	c #CE9EFF",
"M 	c #CA99FF",
"N 	c #BC83FF",
"O 	c #B585FF",
"P 	c #B47CFF",
"Q 	c #A066FF",
"R 	c #9B60FF",
"S 	c #894EFF",
"T 	c #8D4EFF",
"U 	c #9051FF",
"V 	c #9858FF",
"W 	c #8C4CFF",
"X 	c #9151FF",
"Y 	c #A264FF",
"Z 	c #A166FF",
"` 	c #A169FE",
" .	c #B584FF",
"..	c #AE78FF",
"+.	c #AB71FE",
"@.	c #B681FF",
"#.	c #C492FF",
"$.	c #D09FFF",
"%.	c #D09AFF",
"&.	c #D29FFF",
"*.	c #D7A6FF",
"=.	c #CD9EFF",
"-.	c #CBA1FF",
";.	c #CEA8FE",
">.	c #B47EFF",
",.	c #A96EFF",
"'.	c #9A5FFF",
").	c #9B61FF",
"!.	c #9F63FE",
"~.	c #995AFE",
"{.	c #8D4DFF",
"].	c #9454FF",
"^.	c #9656FF",
"/.	c #8446FF",
"(.	c #7F42FE",
"_.	c #8143FF",
":.	c #9B5FFF",
"<.	c #AE74FF",
"[.	c #AD74FF",
"}.	c #BC8CFF",
"|.	c #BF8EFF",
"1.	c #C393FE",
"2.	c #BA7DFE",
"3.	c #D090FE",
"4.	c #CD8CFF",
"5.	c #D294FF",
"6.	c #DEA5FE",
"7.	c #CD8FFF",
"8.	c #D4ADFF",
"9.	c #E3C8FF",
"0.	c #C79AFF",
"a.	c #AA71FF",
"b.	c #AC72FE",
"c.	c #8F52FE",
"d.	c #9757FF",
"e.	c #9C5CFF",
"f.	c #9557FE",
"g.	c #A16DFE",
"h.	c #A170FE",
"i.	c #9B66FE",
"j.	c #A269FF",
"k.	c #B278FF",
"l.	c #C394FF",
"m.	c #C28FFF",
"n.	c #B97AFE",
"o.	c #C384FF",
"p.	c #DDAAFE",
"q.	c #E1A8FF",
"r.	c #DEA3FF",
"s.	c #E4BEFE",
"t.	c #DBA1FF",
"u.	c #D099FE",
"v.	c #D29CFF",
"w.	c #C691FF",
"x.	c #BE8BFF",
"y.	c #B87DFE",
"z.	c #AD72FE",
"A.	c #A065FF",
"B.	c #A365FF",
"C.	c #AC6CFF",
"D.	c #B474FF",
"E.	c #7A3AFF",
"F.	c #9D5DFF",
"G.	c #9F5FFF",
"H.	c #A060FF",
"I.	c #A161FF",
"J.	c #A565FF",
"K.	c #A666FF",
"L.	c #A466FE",
"M.	c #AD77FE",
"N.	c #B789FE",
"O.	c #B588FE",
"P.	c #AA72FE",
"Q.	c #C18EFF",
"R.	c #CC96FF",
"S.	c #C183FF",
"T.	c #C98FFF",
"U.	c #D79CFF",
"V.	c #E2B0FE",
"W.	c #EAC1FF",
"X.	c #EABEFF",
"Y.	c #E9C9FF",
"Z.	c #E2ADFF",
"`.	c #DFA1FF",
" +	c #CE8CFF",
".+	c #C07CFF",
"++	c #BE86FE",
"@+	c #AD71FF",
"#+	c #BC81FF",
"$+	c #C488FF",
"%+	c #B273FF",
"&+	c #A464FF",
"*+	c #A868FF",
"=+	c #B678FF",
"-+	c #BB81FF",
";+	c #BD84FF",
">+	c #BC84FE",
",+	c #C495FE",
"'+	c #C89DFE",
")+	c #BD7FFE",
"!+	c #D799FF",
"~+	c #DDA6FF",
"{+	c #E3B1FF",
"]+	c #E9BDFE",
"^+	c #F0D3FF",
"/+	c #EFDCFF",
"(+	c #EED2FF",
"_+	c #ECC1FF",
":+	c #E9B8FF",
"<+	c #E1A9FF",
"[+	c #DB9AFE",
"}+	c #CC89FF",
"|+	c #D2A2FF",
"1+	c #CA90FF",
"2+	c #CD92FF",
"3+	c #C48AFF",
"4+	c #A86DFF",
"5+	c #9556FF",
"6+	c #B073FE",
"7+	c #C187FF",
"8+	c #C68CFE",
"9+	c #C78BFF",
"0+	c #D1A0FF",
"a+	c #CE96FE",
"b+	c #C98BFE",
"c+	c #D49BFE",
"d+	c #E5B6FF",
"e+	c #EECCFF",
"f+	c #F0D3FE",
"g+	c #F3E4FF",
"h+	c #F4E9FF",
"i+	c #F3E6FF",
"j+	c #EDC5FF",
"k+	c #E8B8FF",
"l+	c #E1A3FF",
"m+	c #DC97FF",
"n+	c #DEAEFF",
"o+	c #D19AFF",
"p+	c #BC80FF",
"q+	c #A66BFE",
"r+	c #985EFE",
"s+	c #8C4EFF",
"t+	c #9353FF",
"u+	c #9B5BFF",
"v+	c #9B5CFF",
"w+	c #9C5EFF",
"x+	c #AE75FF",
"y+	c #B57BFE",
"z+	c #C188FE",
"A+	c #D3A3FF",
"B+	c #DA9FFE",
"C+	c #E4B0FF",
"D+	c #E8BCFF",
"E+	c #EAC5FE",
"F+	c #F1D9FF",
"G+	c #F5E9FF",
"H+	c #F8F2FE",
"I+	c #F9F4FF",
"J+	c #F8F2FF",
"K+	c #F4E7FF",
"L+	c #F0DAFF",
"M+	c #EBCBFF",
"N+	c #E7BFFF",
"O+	c #DFABFE",
"P+	c #CE8FFE",
"Q+	c #C48FFE",
"R+	c #AA6EFF",
"S+	c #9F64FF",
"T+	c #9457FF",
"U+	c #9959FF",
"V+	c #A768FF",
"W+	c #B57CFE",
"X+	c #C595FF",
"Y+	c #CCA2FF",
"Z+	c #D1A9FF",
"`+	c #D2A7FF",
" @	c #D5A9FF",
".@	c #D59AFF",
"+@	c #DCA5FF",
"@@	c #E8C1FE",
"#@	c #EDDAFF",
"$@	c #F2E3FE",
"%@	c #F7F0FF",
"&@	c #FBF8FF",
"*@	c #FDFBFF",
"=@	c #FBF7FF",
"-@	c #F6EFFF",
";@	c #F2E4FF",
">@	c #ECD2FF",
",@	c #E7B4FF",
"'@	c #DB96FF",
")@	c #CD89FF",
"!@	c #CA93FF",
"~@	c #B578FF",
"{@	c #AA70FF",
"]@	c #A368FF",
"^@	c #9659FF",
"/@	c #9758FF",
"(@	c #A469FF",
"_@	c #B67CFF",
":@	c #BF86FF",
"<@	c #CC99FF",
"[@	c #D292FF",
"}@	c #E8C2FF",
"|@	c #EED4FF",
"1@	c #FCFAFF",
"2@	c #FEFDFF",
"3@	c #F2E6FF",
"4@	c #EDD9FF",
"5@	c #E8BFFF",
"6@	c #E2A3FF",
"7@	c #D594FF",
"8@	c #BB8CFF",
"9@	c #AF7EFF",
"0@	c #A067FF",
"a@	c #9455FF",
"b@	c #7232FF",
"c@	c #7737FF",
"d@	c #A167FF",
"e@	c #AB71FF",
"f@	c #B37AFF",
"g@	c #C290FF",
"h@	c #BD7DFE",
"i@	c #C98DFF",
"j@	c #DDA8FE",
"k@	c #EBC5FE",
"l@	c #F2E1FF",
"m@	c #F6EEFF",
"n@	c #FAF6FF",
"o@	c #FAF7FF",
"p@	c #F5ECFF",
"q@	c #F1E3FF",
"r@	c #EBD7FF",
"s@	c #E7C6FF",
"t@	c #E4B7FF",
"u@	c #E0A6FF",
"v@	c #DAA5FF",
"w@	c #CC94FF",
"x@	c #BC86FF",
"y@	c #AD72FF",
"z@	c #9F60FF",
"A@	c #8A4DFF",
"B@	c #985EFF",
"C@	c #A66BFF",
"D@	c #D1A7FE",
"E@	c #CD97FE",
"F@	c #D49AFE",
"G@	c #E7B9FF",
"H@	c #EBC1FF",
"I@	c #EFDAFF",
"J@	c #F3E5FF",
"K@	c #F2E5FF",
"L@	c #EEDDFF",
"M@	c #EAD1FF",
"N@	c #E09DFF",
"O@	c #CE98FF",
"P@	c #C689FE",
"Q@	c #B97FFF",
"R@	c #B277FF",
"S@	c #AF71FF",
"T@	c #AD6EFF",
"U@	c #6C2CFF",
"V@	c #6E2EFF",
"W@	c #7030FF",
"X@	c #9F63FF",
"Y@	c #AB72FF",
"Z@	c #B57DFE",
"`@	c #C28EFE",
" #	c #D2A0FF",
".#	c #D191FF",
"+#	c #E3A7FF",
"@#	c #E6BCFF",
"##	c #EBC3FF",
"$#	c #EED7FF",
"%#	c #F0E0FF",
"&#	c #F1E2FF",
"*#	c #EEDCFF",
"=#	c #EBD5FF",
"-#	c #E3B7FF",
";#	c #E2B3FF",
">#	c #DFB1FF",
",#	c #CC95FF",
"'#	c #AF74FF",
")#	c #8F50FF",
"!#	c #945AFF",
"~#	c #A56EFF",
"{#	c #BE87FF",
"]#	c #B37AFE",
"^#	c #CE9DFF",
"/#	c #CF91FF",
"(#	c #D69EFF",
"_#	c #DEA8FF",
":#	c #E8B5FF",
"<#	c #EACBFE",
"[#	c #ECD0FF",
"}#	c #ECCFFF",
"|#	c #EDCCFF",
"1#	c #E9CCFF",
"2#	c #E8BEFF",
"3#	c #E7B8FF",
"4#	c #DF9AFF",
"5#	c #D497FF",
"6#	c #DCACFF",
"7#	c #DCA8FE",
"8#	c #CC9CFF",
"9#	c #9C60FF",
"0#	c #8548FF",
"a#	c #975EFF",
"b#	c #A771FF",
"c#	c #B37EFF",
"d#	c #B07BFF",
"e#	c #A26DFF",
"f#	c #B57EFE",
"g#	c #B67BFE",
"h#	c #C390FF",
"i#	c #D0A7FE",
"j#	c #D095FF",
"k#	c #D291FF",
"l#	c #DAA3FE",
"m#	c #E7BBFF",
"n#	c #E7B5FF",
"o#	c #E9BEFF",
"p#	c #E4B3FF",
"q#	c #E5B2FF",
"r#	c #E2ABFF",
"s#	c #D6A0FF",
"t#	c #BE81FF",
"u#	c #C68EFF",
"v#	c #C993FF",
"w#	c #C688FF",
"x#	c #AB6BFF",
"y#	c #AB77FF",
"z#	c #A977FF",
"A#	c #A16EFF",
"B#	c #9C67FF",
"C#	c #9861FF",
"D#	c #A872FF",
"E#	c #A973FF",
"F#	c #AE79FF",
"G#	c #B987FF",
"H#	c #C793FF",
"I#	c #CF9CFF",
"J#	c #C98FFE",
"K#	c #D89CFE",
"L#	c #D58FFF",
"M#	c #E0A1FF",
"N#	c #E4ABFF",
"O#	c #E4ACFF",
"P#	c #E2A7FF",
"Q#	c #DA93FF",
"R#	c #DBA3FF",
"S#	c #DEB0FF",
"T#	c #D19BFF",
"U#	c #BC7EFF",
"V#	c #B075FF",
"W#	c #B074FF",
"X#	c #BF81FF",
"Y#	c #B878FF",
"Z#	c #B777FF",
"`#	c #8B4EFF",
" $	c #965FFF",
".$	c #A272FF",
"+$	c #A273FF",
"@$	c #9C6DFF",
"#$	c #9665FF",
"$$	c #905DFD",
"%$	c #8D59FF",
"&$	c #925CFF",
"*$	c #8F57FF",
"=$	c #9B67FF",
"-$	c #B378FF",
";$	c #C79BFF",
">$	c #E2C6FE",
",$	c #CC97FE",
"'$	c #D498FF",
")$	c #D79DFF",
"!$	c #DE9FFF",
"~$	c #E2A6FF",
"{$	c #CD93FF",
"]$	c #D69FFF",
"^$	c #D39FFF",
"/$	c #C589FF",
"($	c #C790FF",
"_$	c #BA80FE",
":$	c #AC71FF",
"<$	c #9A5BFE",
"[$	c #B171FF",
"}$	c #B979FF",
"|$	c #8344FF",
"1$	c #8D50FF",
"2$	c #9761FE",
"3$	c #9D6EFF",
"4$	c #A276FF",
"5$	c #A275FF",
"6$	c #996BFC",
"7$	c #8657F7",
"8$	c #8150F5",
"9$	c #8B59FE",
"0$	c #854FFF",
"a$	c #8246FF",
"b$	c #8547FF",
"c$	c #995FFF",
"d$	c #AC77FF",
"e$	c #D0A6FE",
"f$	c #C89CFE",
"g$	c #BC84FF",
"h$	c #C992FF",
"i$	c #D1A3FF",
"j$	c #D39EFF",
"k$	c #D8A1FF",
"l$	c #C38BFF",
"m$	c #C58AFF",
"n$	c #BE80FF",
"o$	c #BD81FE",
"p$	c #B97FFE",
"q$	c #A366FF",
"r$	c #A360FF",
"s$	c #A766FF",
"t$	c #9E5EFF",
"u$	c #8F58FE",
"v$	c #9163FB",
"w$	c #9E74FE",
"x$	c #A77EFF",
"y$	c #9F74FA",
"z$	c #8457EC",
"A$	c #794BEA",
"B$	c #7F4FF4",
"C$	c #824FFC",
"D$	c #7840FD",
"E$	c #7E40FF",
"F$	c #A262FF",
"G$	c #9D60FF",
"H$	c #C296FF",
"I$	c #D8BAFE",
"J$	c #B583FE",
"K$	c #BE8EFF",
"L$	c #C287FF",
"M$	c #B073FF",
"N$	c #B67AFF",
"O$	c #B277FE",
"P$	c #B77DFE",
"Q$	c #B274FF",
"R$	c #AB64FF",
"S$	c #C587FF",
"T$	c #BE7CFF",
"U$	c #AC66FF",
"V$	c #874AFE",
"W$	c #8551FA",
"X$	c #8E62F8",
"Y$	c #9D75FC",
"Z$	c #A47CFD",
"`$	c #9971F6",
" %	c #7C53E1",
".%	c #6C41D6",
"+%	c #7549E3",
"@%	c #7D4DF3",
"#%	c #7942FD",
"$%	c #7A3EFE",
"%%	c #9E60FF",
"&%	c #C28CFE",
"*%	c #BC94FE",
"=%	c #A56DFF",
"-%	c #AD73FF",
";%	c #B479FF",
">%	c #B67DFF",
",%	c #A268FF",
"'%	c #B276FF",
")%	c #A769FF",
"!%	c #AF70FF",
"~%	c #B271FF",
"{%	c #C482FF",
"]%	c #CBA6FF",
"^%	c #D5A4FF",
"/%	c #B066FF",
"(%	c #7E3FFF",
"_%	c #7B45F6",
":%	c #865AF1",
"<%	c #9D78F9",
"[%	c #AA85FE",
"}%	c #9C76F4",
"|%	c #7E57DF",
"1%	c #6840CC",
"2%	c #6C42D3",
"3%	c #7549E2",
"4%	c #7643F5",
"5%	c #753AFC",
"6%	c #7B3CFF",
"7%	c #7C3DFF",
"8%	c #B071FE",
"9%	c #B17FFE",
"0%	c #A36CFE",
"a%	c #985CFF",
"b%	c #C085FF",
"c%	c #9E63FF",
"d%	c #A96CFF",
"e%	c #A467FF",
"f%	c #A96AFF",
"g%	c #A867FF",
"h%	c #C27CFF",
"i%	c #CA86FF",
"j%	c #CC91FF",
"k%	c #AD68FF",
"l%	c #773BFD",
"m%	c #7A45F5",
"n%	c #885EEE",
"o%	c #9E7BF2",
"p%	c #AB88FB",
"q%	c #9672EC",
"r%	c #7752D2",
"s%	c #613ABF",
"t%	c #633CC5",
"u%	c #7045DA",
"v%	c #7442ED",
"w%	c #7439FB",
"x%	c #7839FF",
"y%	c #8C51FF",
"z%	c #B37DFF",
"A%	c #B27BFE",
"B%	c #9152FE",
"C%	c #995AFF",
"D%	c #995BFF",
"E%	c #AA6DFF",
"F%	c #A062FF",
"G%	c #A263FF",
"H%	c #AD6DFF",
"I%	c #A969FF",
"J%	c #B875FF",
"K%	c #AE6CFF",
"L%	c #7741F7",
"M%	c #885EEF",
"N%	c #A07CF5",
"O%	c #B290FA",
"P%	c #9F7DEE",
"Q%	c #7D5AD2",
"R%	c #5F3CB8",
"S%	c #5B37B6",
"T%	c #663EC8",
"U%	c #6D40DF",
"V%	c #7139F5",
"W%	c #7435FE",
"X%	c #8346FF",
"Y%	c #AC7BFF",
"Z%	c #D4B1FF",
"`%	c #AC7FFE",
" &	c #9D65FE",
".&	c #8E4FFF",
"+&	c #A363FF",
"@&	c #B676FF",
"#&	c #9958FF",
"$&	c #A767FF",
"%&	c #8B63F0",
"&&	c #A180F2",
"*&	c #B091F9",
"=&	c #A181EA",
"-&	c #7655C7",
";&	c #5A38AE",
">&	c #5532AB",
",&	c #633DC1",
"'&	c #6E42DC",
")&	c #723BF5",
"!&	c #7335FF",
"~&	c #BC8AFF",
"{&	c #BF9AFF",
"]&	c #A675FF",
"^&	c #9457FE",
"/&	c #AA69FF",
"(&	c #AF6CFF",
"_&	c #9451FF",
":&	c #B373FF",
"<&	c #AB69FF",
"[&	c #C087FF",
"}&	c #AD69FF",
"|&	c #9E5DFF",
"1&	c #AA6AFF",
"2&	c #743EF5",
"3&	c #875FEA",
"4&	c #A07EF3",
"5&	c #AC8DF7",
"6&	c #9F80EA",
"7&	c #7859C5",
"8&	c #5939A9",
"9&	c #4F2EA1",
"0&	c #5733AE",
"a&	c #643AC9",
"b&	c #6F3BED",
"c&	c #7135FC",
"d&	c #7334FF",
"e&	c #935BFF",
"f&	c #B470FF",
"g&	c #BA87FF",
"h&	c #A765FF",
"i&	c #B874FF",
"j&	c #D1ACFF",
"k&	c #B36DFF",
"l&	c #A362FF",
"m&	c #A564FF",
"n&	c #AD6CFF",
"o&	c #A665FF",
"p&	c #AB6AFF",
"q&	c #835BE6",
"r&	c #A181EE",
"s&	c #AD91F6",
"t&	c #A083E8",
"u&	c #7759C1",
"v&	c #5637A2",
"w&	c #482996",
"x&	c #502EA0",
"y&	c #5F37BE",
"z&	c #6E3AE7",
"A&	c #7135FE",
"B&	c #9354FF",
"C&	c #AD75FF",
"D&	c #8D51FF",
"E&	c #B976FF",
"F&	c #D5BDFF",
"G&	c #AD78FF",
"H&	c #A864FF",
"I&	c #B372FF",
"J&	c #AB6EFF",
"K&	c #BD7CFF",
"L&	c #B06BFF",
"M&	c #A05DFF",
"N&	c #B57CFF",
"O&	c #9D5AFF",
"P&	c #9878E5",
"Q&	c #B498F2",
"R&	c #A084E5",
"S&	c #7A5EC1",
"T&	c #583BA0",
"U&	c #492B93",
"V&	c #4C2C9B",
"W&	c #5A34B5",
"X&	c #6939DD",
"Y&	c #7437F9",
"Z&	c #B17DFF",
"`&	c #BD98FF",
" *	c #9057FF",
".*	c #B06FFF",
"+*	c #A96DFF",
"@*	c #9652FF",
"#*	c #A460FF",
"$*	c #9C5BFF",
"%*	c #C295FF",
"&*	c #BD89FF",
"**	c #9973F1",
"=*	c #8165C5",
"-*	c #573B9C",
";*	c #462B8C",
">*	c #472A92",
",*	c #5432AB",
"'*	c #6638D0",
")*	c #7338F7",
"!*	c #BF95FF",
"~*	c #A579FF",
"{*	c #8A4EFF",
"]*	c #9D5CFF",
"^*	c #9A59FF",
"/*	c #A162FF",
"(*	c #A463FF",
"_*	c #6631E4",
":*	c #492A95",
"<*	c #45298D",
"[*	c #512FA4",
"}*	c #6337CE",
"|*	c #7138F6",
"1*	c #9761FF",
"2*	c #884DFF",
"3*	c #5F30CF",
"4*	c #5E34C8",
"5*	c #6E38EC",
"                        . + @ # $ % & * . = - ; > . , ' ) ! ~ { ] ^ / ( _ : < [ } | 1 , 2 3 3 4 2 5 ",
"                      6 > 7 8 9 0 3 $ % a + b 5 c 2 d e f g h i j k l m n o p ^ q r s t u # 6 v ; 4 ",
"                      w v w x b 6 7 y @ z a 3 6 A B 5 C D E F G H I J K L M N : O P Q R S T U V 4 0 ",
"                    2 2 w W 5 5 - W x = 7 . # z > X Y Z `  ...+.@.#.$.%.&.*.=.-.;.>.,.'.).!.~.4 > 2 ",
"                    w W {.{.5 X ].^.c ; - v b /.(._.:.<.^ [.}.|.1.2.3.4.5.6.7.8.9.0.a.G b.H c.w X d.",
"                  @ . 7 b W X ].c ^.V e.e.B d.f.g.h.i.j.k.N l.m.n.o.p.q.r.s.t.u.v.w.x.y.z.Q A.B.C.D.",
"                  # # E.0 9 4 x A d.F.G.H.I.J.K.L.M.N.O.P.Q.R.S.T.U.V.W.X.Y.Z.`. +.+u.++@+( #+$+%+F.",
"                  8 8 y 9 . 9 9 8 4 x ; e.&+*+C.=+-+;+>+,+'+)+!+~+{+]+^+/+(+_+:+<+[+}+|+1+2+3+4+5+W ",
"                  b 2 x x x w w x 2 2 2 x 5 d.H.6+7+8+9+0+a+b+c+d+e+f+g+h+i+^+j+k+l+m+n+o+p+q+r+s+> ",
"                4 = b w W {.5 ; t+^.V u+e.e.v+w+j x+y+z+A+B+C+D+E+F+G+H+I+J+K+L+M+N+O+P+Q+R+j S+T+- ",
"                9 y 7 > = b w {.5 ; c U+e.I.V+W+X+Y+Z+`+ @.@+@@@#@$@%@&@*@=@-@;@>@,@'@)@!@~@{@]@^@{.",
"                # 3 E.E.0 + 9 y > 4 = 2 v - X /@(@x+_@:@<@[@~+}@|@i+J+1@2@&@-@3@4@5@6@7@|+X+8@9@0@a@",
"                b@a * $ c@c@3 @ 0 . . y 8 > 6 x { d@e@f@g@h@i@j@k@l@m@n@o@I+p@q@r@s@t@u@v@w@n x@y@z@",
"                z z z c@# # # # # c@z z c@c@3 0 A@B@C@f@D@E@F@G@H@I@J@-@-@p@K@L@M@D+N@5.O@P@Q@R@S@T@",
"                U@U@U@U@U@V@W@b@* c@@ 9 > x 5 ^.X@Y@f@Z@`@ #.#+#@###$#%#&#&#*#=#N+-#;#>#,#'#C@,.z@V ",
"                V@& W@b@* z 3 0 y 4 x 5 c t+A )#!#~#{#]#7+^#/#(#_#:#<#[#}#|#1#2#3#4#5#6#7#8#_ 9#; t+",
"                $ c@3 @ . 8 6 b 2 x b > y 0#a#b#c#d#e#f#g#h#i#j#k#l#+#G@m#n#o#p#q#r#s#t#2.u#v#w#x#F.",
"                @ + y > 6 > 8 . @ @ 0 /.} y#z#A#B#C#D#E#F#G#H#I#J#K#L#M#N#O#P#Q#R#S#T#U#V#4+W#X#Y#Z#",
"                9 9 0 3 c@z z 3 9 `# $.$+$@$#$$$%$&$*$=$9@_@-$;$>$,$'$)$!$~${$]$^$/$($_$^ :$<$^.[$}$",
"                z * * $ c@@ |$1$2$3$4$5$6$7$8$9$0$a$b$c$^ {@d$e$f$g$h$i$j$k$l$m$n$o$p p$R@q$&+r$s$t$",
"                a * 3 . 2 `#u$v$w$x$y$z$A$B$C$D$E$8 A F$G$c$H$I$J$W#p+K$L$i@M$N$O$P$'#N$Q$*+R$S$T$U$",
"                @ 7 b V$W$X$Y$Z$`$ %.%+%@%#%$%. 9 A G.; b %%&%*%=%-%;%..>%L$,%<.'#4+'%)%!%~%{%]%^%/%",
"                7 (%_%:%<%[%}%|%1%2%3%4%5%6%7%+ X d.{.7 x 8%9%0%a%V#G ]@/ b%c%@+d%e%f%I.x#g%h%i%j%k%",
"              l%m%n%o%p%q%r%s%t%u%v%w%x%E.3 9 A A W 7 y%z%A%g.B%C%)%D%G$E%n$F%%%G%I.t$H%B I%g%J%K%U+",
"            L%M%N%O%P%Q%R%S%T%U%V%W%c@# c@. ; {.x 4 X%Y%Z%`% &.&H.+&; V +&@&*+#&K%x#t$F$I.U+*+F.$&$&",
"        4%%&&&*&=&-&;&>&,&'&)&!&z # c@c@y ].x b > 0 U ~&{&]&^&^./&(&_&u++&:&<&J.[&}&|&d.1&F.$&I%B H%",
"    2&3&4&5&6&7&8&9&0&a&b&c&d&$ z $ c@8 X = 4 > 3 4 z@C@e&{ W I.f&g&(@h&K.Z#i&9@j&k&l&d.m&n&o&p&F.u+",
"  q&r&s&t&u&v&w&x&y&z&A&% b@* * a $ y - 8 8 y a . B&C&D&= W x l&E&F&G&H&K.D.I&J&K&L&l&|&M&N&R+O&J.V ",
"P&Q&R&S&T&U&V&W&X&Y&% % a * a a z > w 9 9 8 * @ v Z&`& *v x 5 H..*+*f%p&&+H%p&@*#*$*B +&H.%*&*F$G.F$",
"**=*-*;*>*,*'*)*    % a a b@a z > 2 0 . y b@c@8 w+!*~*{*x 6 c u+$&]*^*t$e.[$1&t+; u+t+G./*/ @&(*c u+",
"_*:*<*[*}*|*        b@% W@% c@> 6 3 @ + b@* 9 5 %%1*2*x 4 b ^.F.e.{.W ^.F.H%+&X 2 u+X ; B ]*|&+&t+v ",
"  3*4*5*            W@& W@$ 7 > c@3 . b@b@0 b e.v 0 7 6 9 {.t+V {.> W c u+*+F$5 > V X W V c t+t$^.= "};
