/* XPM */
static char * Yellow_Dice_trans_50_xpm[] = {
"50 32 256 2",
"  	c None",
". 	c #685E0E",
"+ 	c #C6B216",
"@ 	c #A2960E",
"# 	c #BAB25A",
"$ 	c #CAC6BA",
"% 	c #827A06",
"& 	c #A2963A",
"* 	c #7E7A4C",
"= 	c #B6B286",
"- 	c #A29E76",
"; 	c #9E920B",
"> 	c #827A3C",
", 	c #E2D63A",
"' 	c #A69E3E",
") 	c #C6C286",
"! 	c #6E660E",
"~ 	c #968A0A",
"{ 	c #DAD6BE",
"] 	c #787240",
"^ 	c #CEC65A",
"/ 	c #BEB246",
"( 	c #ACA250",
"_ 	c #B6AA16",
": 	c #867E2E",
"< 	c #C6C2A2",
"[ 	c #6E6A32",
"} 	c #D2C626",
"| 	c #726A0C",
"1 	c #8E8207",
"2 	c #8E8647",
"3 	c #EAEAE8",
"4 	c #C6BA5E",
"5 	c #BAAE4A",
"6 	c #BEB236",
"7 	c #DACE52",
"8 	c #EAE6DA",
"9 	c #E2DA92",
"0 	c #9E922E",
"a 	c #9E963E",
"b 	c #726E26",
"c 	c #BAB6A2",
"d 	c #AEAA76",
"e 	c #968E5E",
"f 	c #C6BE62",
"g 	c #A49A34",
"h 	c #7A7209",
"i 	c #8A8226",
"j 	c #A6A261",
"k 	c #928A3A",
"l 	c #9C9652",
"m 	c #968A22",
"n 	c #BAAE3A",
"o 	c #D6D2B4",
"p 	c #BAB688",
"q 	c #928E4A",
"r 	c #DADAD2",
"s 	c #C1BA75",
"t 	c #8A8222",
"u 	c #CCBE26",
"v 	c #B2AA6E",
"w 	c #B0A21A",
"x 	c #AAAA82",
"y 	c #C4C29C",
"z 	c #C6BA46",
"A 	c #CECEA2",
"B 	c #78721C",
"C 	c #867A16",
"D 	c #9A9666",
"E 	c #9C9226",
"F 	c #CAC272",
"G 	c #8A8237",
"H 	c #BEB232",
"I 	c #CECEC0",
"J 	c #D2CA82",
"K 	c #A29E66",
"L 	c #B6AA46",
"M 	c #BAB26B",
"N 	c #DED25E",
"O 	c #C2BE8F",
"P 	c #B6AA28",
"Q 	c #8A7A0E",
"R 	c #C2BA42",
"S 	c #968A1E",
"T 	c #828256",
"U 	c #7E7607",
"V 	c #AAAA92",
"W 	c #7C7636",
"X 	c #DAD6CA",
"Y 	c #A39616",
"Z 	c #D2CA6E",
"` 	c #B2A644",
" .	c #C8C6B4",
"..	c #8E821A",
"+.	c #9E921C",
"@.	c #A2A27A",
"#.	c #EADE42",
"$.	c #6E6626",
"%.	c #827A11",
"&.	c #B6AA4E",
"*.	c #766E1C",
"=.	c #B4AA32",
"-.	c #928A5A",
";.	c #C7C28C",
">.	c #CECAA4",
",.	c #C4BE86",
"'.	c #CECA9E",
").	c #6A6222",
"!.	c #8E860E",
"~.	c #AA9E22",
"{.	c #C6B616",
"].	c #DED26A",
"^.	c #AEA666",
"/.	c #A6A27E",
"(.	c #9C9670",
"_.	c #BEBAA2",
":.	c #827614",
"<.	c #968E4E",
"[.	c #7E7626",
"}.	c #AEA656",
"|.	c #CEC24A",
"1.	c #C2BE9C",
"2.	c #DEDEC6",
"3.	c #E2E2DE",
"4.	c #9E8E12",
"5.	c #B2AA56",
"6.	c #C1BA6E",
"7.	c #BEAE2E",
"8.	c #B2B296",
"9.	c #D2CEB2",
"0.	c #BCB256",
"a.	c #C9C27E",
"b.	c #AAA686",
"c.	c #867E07",
"d.	c #CAC692",
"e.	c #AEA23C",
"f.	c #D6D2C0",
"g.	c #DACE36",
"h.	c #CAC25E",
"i.	c #C6BA2A",
"j.	c #92863A",
"k.	c #A19215",
"l.	c #AEAA8A",
"m.	c #C6BE7E",
"n.	c #928A42",
"o.	c #BAB276",
"p.	c #A2961E",
"q.	c #7E720F",
"r.	c #8A7E12",
"s.	c #DADABA",
"t.	c #867E10",
"u.	c #8E8232",
"v.	c #7A6E0E",
"w.	c #AAA678",
"x.	c #B6AE52",
"y.	c #9E9662",
"z.	c #9E8E22",
"A.	c #B2AE7E",
"B.	c #C6B626",
"C.	c #BEAE1E",
"D.	c #BFBA7B",
"E.	c #6A620E",
"F.	c #857E38",
"G.	c #928622",
"H.	c #CABE3A",
"I.	c #908210",
"J.	c #706618",
"K.	c #C6B620",
"L.	c #CAC6A6",
"M.	c #766E0E",
"N.	c #DDDACA",
"O.	c #827606",
"P.	c #C2B642",
"Q.	c #AEA662",
"R.	c #B6AE5C",
"S.	c #AA9A0E",
"T.	c #C2B65A",
"U.	c #7E7646",
"V.	c #B2A64A",
"W.	c #9A9262",
"X.	c #AA9E32",
"Y.	c #9A9246",
"Z.	c #D2BE26",
"`.	c #BAAE66",
" +	c #7E761A",
".+	c #B2AE92",
"++	c #F2E24A",
"@+	c #96860E",
"#+	c #DEDED6",
"$+	c #8A7E08",
"%+	c #BEBA96",
"&+	c #7E7209",
"*+	c #9A8E0A",
"=+	c #8E8636",
"-+	c #C2B220",
";+	c #9C9238",
">+	c #928E6A",
",+	c #988E2C",
"'+	c #D2CA78",
")+	c #AAA670",
"!+	c #9A9258",
"~+	c #BAAE46",
"{+	c #898232",
"]+	c #C2BE6E",
"^+	c #867A11",
"/+	c #B6AE66",
"(+	c #BEB66E",
"_+	c #BEBEA2",
":+	c #9E9A5E",
"<+	c #C2BE7E",
"[+	c #9C965A",
"}+	c #C8C292",
"|+	c #8E8A4A",
"1+	c #8A7E0E",
"2+	c #AEA64E",
"3+	c #B2AE7A",
"4+	c #A69E32",
"5+	c #8A7E1C",
"6+	c #D2D2BA",
"7+	c #A6A26C",
"8+	c #BAAE26",
"9+	c #BEB656",
"0+	c #82760C",
"a+	c #A2920E",
"b+	c #968A12",
"c+	c #8A823E",
"d+	c #928612",
"e+	c #AAA67E",
"f+	c #E6E6E1",
"g+	c #AA9E3E",
"h+	c #C6BA4E",
"i+	c #DCDAC2",
"j+	c #B0AE86",
"k+	c #C2B62E",
"l+	c #766E16",
"m+	c #C2BEAA",
"n+	c #A29A66",
"o+	c #CAC682",
"p+	c #D6CA2A",
"q+	c #C2B636",
"r+	c #969262",
"s+	c #8E862A",
"t+	c #968E36",
"u+	c #D6CE8A",
"v+	c #9A8E1E",
"w+	c #AEAE96",
"x+	c #928616",
"y+	c #C6BA16",
"z+	c #AEAE8E",
"A+	c #BEB676",
"B+	c #BEBE96",
"C+	c #867A08",
"D+	c #92860C",
"E+	c #8E7E0A",
"F+	c #9A8A0A",
"G+	c #92820A",
"                                                                                                    ",
"                                                                                                    ",
"                                                        a }.                                        ",
"                                                q.q.:.G.g+R.2+                                      ",
"                                          D+G+^+0+0+r.g /+/+'                                       ",
"                                    P k.k.; D+0+&+Q v+v s 5.0                                       ",
"                                N u+# p.` g 1+q.0+x+g+D.s ` S                                       ",
"                                9 r p j _.3+E ( Q.;+/+d.6.g :.!                                     ",
"                              u '+6+M (+r ) L 6+o o.}+'.x.G.! E.                                    ",
"                              -+k+/ 8+R ^ P.9+f.i+A { d.'  +E..                                     ",
"                              {.{._ w 8+6 n # L.6+2.2.D.k M.. E.                                    ",
"                            u y+K.8+=.x.9+(+;.9.i+8 { d {+J.. ! 5+                                  ",
"                            H.q+R 4 6.<+;.L.L.< 1.{ { v > $.).E...                                  ",
"                          ].h.f a.) ,.O O p )+W.!+%+i+= F.* (.> 5+                                  ",
"                          o+a.) <+A+M /+Q.[+@.V q n+I ,.<./.f+/.=+0                                 ",
"                          o+]+# v x.V.e.g |+$ 3./.|+1.>.}.d L.e+j.x+                                ",
"                          6.5.j K ;+~.w Y {+m+#+- G w.>.(+` g+X.p.p.                                ",
"                          &.j  .I l +.S.4.:.2 D u.s+:+1.<+~+P 8+-+B.                                ",
"                            - X 3.:+I.F+Q v.&+1+@+v+q = }+9+H + Z.,                                 ",
"                            l z+w+=+t.^+2 e 5+~ a+z.n.e+y 6.P.k+} #.                                ",
"                            {+[.b M.&+:  .#+K *+; b+: r+1.) H.B.} ++                                ",
"                              | ! v.U F.I 3.)+1 c.U B U.x }+f H.g.                                  ",
"                              U U % c.t.[+)+,+c.h *.b [ >+%+F |.7                                   ",
"                              ^+C+c.$+1 !.@+1 &+2 c l.] * A.a.h.                                    ",
"                              ^+O.U h ^+c.$+C+h @.3 X * U./.d.'+                                    ",
"                                %. +D .+2 0+C+v.|+_+8.> ] :+<                                       ",
"                                :.F.$ 3 l.C+D+$+ +{+: %.*                                           ",
"                                  G _.r )+D+*+; ~ !.                                                ",
"                                  t =+l m Y S.@                                                     ",
"                                  v+4.k.                                                            ",
"                                                                                                    ",
"                                                                                                    "};
