/* XPM */
static char * Z_NewChar_xpm[] = {
"80 40 256 2",
"  	c None",
". 	c #020202",
"+ 	c #067A1E",
"@ 	c #128222",
"# 	c #5EB064",
"$ 	c #C6E22E",
"% 	c #9EBE92",
"& 	c #6A560E",
"* 	c #0A0A08",
"= 	c #E2FE4E",
"- 	c #92CA8A",
"; 	c #387E34",
"> 	c #CACA96",
", 	c #025A16",
"' 	c #185212",
") 	c #B6D7A5",
"! 	c #827A36",
"~ 	c #C2D6B2",
"{ 	c #9A7E46",
"] 	c #B26B03",
"^ 	c #2A460E",
"/ 	c #E6E6BE",
"( 	c #6A6E76",
"_ 	c #52565E",
": 	c #C29143",
"< 	c #919382",
"[ 	c #766E2E",
"} 	c #92B88A",
"| 	c #4E6612",
"1 	c #D6D8A2",
"2 	c #D2EAC2",
"3 	c #ADAD9C",
"4 	c #507E2E",
"5 	c #221E06",
"6 	c #E2F2C7",
"7 	c #3E4612",
"8 	c #E5E59F",
"9 	c #DADA8E",
"0 	c #E0FC20",
"a 	c #8E6A06",
"b 	c #B6BECD",
"c 	c #42A24E",
"d 	c #42464E",
"e 	c #9A9D7B",
"f 	c #CFAB71",
"g 	c #4A2E06",
"h 	c #EAF6D2",
"i 	c #A6ACAC",
"j 	c #FEE222",
"k 	c #989A96",
"l 	c #366211",
"m 	c #7E7E3A",
"n 	c #FEFE63",
"o 	c #866606",
"p 	c #505E14",
"q 	c #1D5D15",
"r 	c #B6B8A6",
"s 	c #06751A",
"t 	c #717572",
"u 	c #EEEEA2",
"v 	c #EAEA8E",
"w 	c #474949",
"x 	c #4A8A4A",
"y 	c #FEFEE6",
"z 	c #EAFD3E",
"A 	c #848478",
"B 	c #C0C8D8",
"C 	c #7A7D76",
"D 	c #5A4E1A",
"E 	c #966A02",
"F 	c #22862E",
"G 	c #C2C282",
"H 	c #BA7A17",
"I 	c #949AA4",
"J 	c #A6AE76",
"K 	c #6A5E26",
"L 	c #70746E",
"M 	c #EEFE39",
"N 	c #F4F4CB",
"O 	c #FEEA2A",
"P 	c #EAEAB2",
"Q 	c #91948C",
"R 	c #999EA7",
"S 	c #82868B",
"T 	c #066E1A",
"U 	c #F9FAD6",
"V 	c #5E9A62",
"W 	c #3EA24A",
"X 	c #12761A",
"Y 	c #D6D6B6",
"Z 	c #F2F296",
"` 	c #5C5E64",
" .	c #ABB2BF",
"..	c #F2F2B9",
"+.	c #FEFEC8",
"@.	c #D6C19F",
"#.	c #056A1A",
"$.	c #CBA66D",
"%.	c #D6E6C2",
"&.	c #FEFEDE",
"*.	c #E6CA96",
"=.	c #FEFE5E",
"-.	c #FEF67A",
";.	c #2F4E13",
">.	c #555510",
",.	c #4A4A42",
"'.	c #F2FE32",
").	c #128A2A",
"!.	c #B8AA90",
"~.	c #C1C1AC",
"{.	c #EEEE8E",
"].	c #D3FE27",
"^.	c #5A3A0A",
"/.	c #FEEE22",
"(.	c #423A0A",
"_.	c #4C5612",
":.	c #077E1E",
"<.	c #C7C7AC",
"[.	c #8D7336",
"}.	c #4A7626",
"|.	c #F2F2AE",
"1.	c #268A32",
"2.	c #B0A694",
"3.	c #756A32",
"4.	c #E6E6C8",
"5.	c #B1B29F",
"6.	c #F2FA3A",
"7.	c #F6F6B6",
"8.	c #06821E",
"9.	c #B6A68E",
"0.	c #EEDEB2",
"a.	c #BABAAE",
"b.	c #BAD2A6",
"c.	c #FEFE46",
"d.	c #A0A49E",
"e.	c #666E76",
"f.	c #DEDEAA",
"g.	c #B87614",
"h.	c #6E6E62",
"i.	c #898C86",
"j.	c #909494",
"k.	c #4E5258",
"l.	c #F0EECC",
"m.	c #D1B78B",
"n.	c #5A7A2E",
"o.	c #725E22",
"p.	c #767A82",
"q.	c #FEFE82",
"r.	c #A5A69A",
"s.	c #CABA9A",
"t.	c #DADAB8",
"u.	c #BABE92",
"v.	c #327A3E",
"w.	c #72660A",
"x.	c #269436",
"y.	c #1C1A10",
"z.	c #06661A",
"A.	c #B3B494",
"B.	c #FEFE4A",
"C.	c #FAFE16",
"D.	c #32322E",
"E.	c #C69B57",
"F.	c #8C8C7E",
"G.	c #FEFE98",
"H.	c #7D4E0E",
"I.	c #5C6C22",
"J.	c #B5720C",
"K.	c #9CA2AE",
"L.	c #F6F6A6",
"M.	c #A69682",
"N.	c #D1D2BA",
"O.	c #BE8529",
"P.	c #666A71",
"Q.	c #627632",
"R.	c #F6FE33",
"S.	c #C0C08C",
"T.	c #D2BE9E",
"U.	c #CCCCB9",
"V.	c #FEFEFE",
"W.	c #A89C84",
"X.	c #878C96",
"Y.	c #1E641C",
"Z.	c #06861E",
"`.	c #FEFEAC",
" +	c #5D5B18",
".+	c #FEFED9",
"++	c #A8AB90",
"@+	c #364A0E",
"#+	c #A4AAB6",
"$+	c #4C6926",
"%+	c #7D8082",
"&+	c #DEEEC6",
"*+	c #73632A",
"=+	c #F6FC3E",
"-+	c #E3FE31",
";+	c #A2A6B2",
">+	c #8A929D",
",+	c #B3BAC9",
"'+	c #7F5310",
")+	c #815E1B",
"!+	c #025F16",
"~+	c #FDFD8D",
"{+	c #B8B89E",
"]+	c #726A4A",
"^+	c #C2BE98",
"/+	c #24722E",
"(+	c #9EA098",
"_+	c #FEFE1A",
":+	c #319A41",
"<+	c #4A4313",
"[+	c #FEFEE2",
"}+	c #BCB090",
"|+	c #AA6A02",
"1+	c #FDFDBE",
"2+	c #FEF62E",
"3+	c #7C808C",
"4+	c #EEDDAE",
"5+	c #EAECCD",
"6+	c #FEFEFA",
"7+	c #606468",
"8+	c #FEFDA3",
"9+	c #0E8A26",
"0+	c #A7AEBB",
"a+	c #AFB6C4",
"b+	c #CECEA6",
"c+	c #DFE1BE",
"d+	c #9EA6B0",
"e+	c #FEF652",
"f+	c #FEFEB5",
"g+	c #FEFE6D",
"h+	c #5E5626",
"i+	c #244A12",
"j+	c #FDFE3E",
"k+	c #7F7639",
"l+	c #A4A482",
"m+	c #BAB896",
"n+	c #FEFE33",
"o+	c #FEFE52",
"p+	c #CEBEA2",
"q+	c #565957",
"r+	c #FEFD7A",
"s+	c #65470E",
"t+	c #90959F",
"u+	c #BABEAE",
"v+	c #CEE2BE",
"w+	c #9C9E8C",
"x+	c #688236",
"y+	c #BBC2D2",
"z+	c #0A5E18",
"A+	c #71757E",
"B+	c #FDFE27",
"C+	c #6AB66E",
"D+	c #363E0E",
"E+	c #7F7135",
"F+	c #F3F4D6",
"G+	c #BADEA6",
"                                                                                                                                                                ",
"                                                                                                                U y y   ] ] ] ] ] ]       ^+^+                  ",
"                                                                                                            [+y y U l.O.] ] : J.] ]       ^+^+                  ",
"                                                                                                        [+y U y y y 4+H ] : T.f g.]       ^+^+                  ",
"                                                                                                    &.U y y y y y y 4+g.J.E.@.p+f H       ^+^+                  ",
"                                                                          d                     U &.y y y y y y y U 4+O.E.W.!.F.@.$.      ^+^+                  ",
"                                                                  7+A+  k.(                 &.&.U [+&.[+[+[+[+[+y y 0.E.m.s.M.9.@.f       A.}+                  ",
"                                                                    t+X.t+X.`         .+.+.+&.[+[+[+[+U &.&.&.[+[+y 4+O.: m.9.}+m.m.      { [.                  ",
"                                                                _ 3+#+,+,+,+#+t+%+a.N U .+.+&.&..+.+&.&.[+y y y y U *.H ] : $.$.O.        H.H.                  ",
"                                                                3+K. .X.P.I #+w+<.l.U .+l.c+N .+U &.&.[+y y y y y l.f J.J.] ] |+]         H.'+                  ",
"                                                                  3+K.A+k.>+#+d.<.l.U / Q ` {+U &.[+[+[+[+y y y y 5+J I.l w.|+E Y.        H.H.                  ",
"                                                                P.>+#+d+d+ .;+i.F.<.N m+%+X.d.4.[+[+[+[+[+[+y y 5+} v.z+, q a l z+, ,     & '+                  ",
"                                                                p.w+K.#+#+#+X.A < ~.l.2.t R C U.&.l.N.t.F+y y y ~ v.z+, !+, o q !+, , z.+ p '+                  ",
"                              -+].-+B+n+B+B+n+                1+7.f.r.k {+r.p.%+k ++Y k A+K.P.a.U.(+i.S N.[+[+&.b./+, , , z+l z+, , !+z.:.| H.                  ",
"                          o+B+n+R.'.B+n+_+B+B+B+          f+f+f+f+f.e A...Y F.%+K.K.w+< t+,+X.C j.K.>+%+<..+&.U ) F T !+!+!+, !+!+, !+s 8.| '+                  ",
"                        n c.j+n+=+B.n+j+n+n+B+B+n+    `.8+`.8+f+f+7./ N +.+.c+3 k 0+ . .B B y+b ,+#+< a.N &..+&.G+x.:.s s + T z.z.s :.8.Z.| H.                  ",
"                        j+o+o+c.=+c.j+n+n+n+j+j+n+=.-.G.~+8+`.f+f++.+.+.+.+.N Y r.;+b y+b  .a+b a+I 5.5+.+.+.+U G+x.Z.8.Z.Z.8.Y.+ 8.8.8.8.| '+                  ",
"                      B+B+n+=.g+=.B.c.n+c.B.o+2+e+r+r+~+`.`.f+f++.1+1+f+..> l+F.i.;+a+ .%+7+3+#+0+X.C F.{+4.[+h # 9+Z.8.8.8.8.@+:.Z.Z.Z.Z. +H.                  ",
"                      B+j+j+c.~+`.g+g+r+=.g+c.B.e+r+G.G.8+`.`.8+8+`.`.8+e d p.K. .b ,+d+h.k.q+I y+b #+X.A+d a.2 :+8.Z.Z.Z.Z.8.7 n.@ 8.8.#.>.H.                  ",
"                    6.n+R.j+B.=.f++.f+f+f+n o+c.o+g+r+q.q.G.G.G.`.`.1+1+S.h.%+i.>+;+a+R L ,.7+R b a+I X.%+L b+&+:+Z.8.8.8.8.x+<+h+k+! Q.Y._.'+                  ",
"                    -+-+M o+o+=.G.y V.y G.q.B.B+n+B.g+q.G.G.`.`.`.f+f+1+|.b+S.A.A S  . .I S K.y+b R k 5.<.5+U &+:+Z.Z.Z.Z.8.x+<+E+K *+I.Y._.H.                  ",
"                    -+-+M =.r+g+~+y V.+.G.=.c.n+c.n q.8+G.8+G.|.v u 8+|.m+< ++{+< I a+,+,+,+B B ,+;+a.5+.+.+&.6 :+8.8.8.Z.; m <+k+k+k+k+$+>.H.                  ",
"                      = ].= n g+`.`.y G.=.B.B.j+B.=.g+q.G.G.Z u.e l+N.b+i.%+Q A X.K.R R a+b ;+t+K.#+r.N.U &..+&+:+Z.Z.8.Z.l [ <+h+*+o.)+_._.H.                  ",
"                      z '.M n+n q.q.G.~+r+c.c.c.=.g+q.q.-.{.Z G Q (+A.J t S t 7+A+%+i.i.t+;+S 5.5.R S k 4.[+y 6 :+8.8.Z.Z.4 3.]+2.[.)+)+$+>.'+                  ",
"                      $ M R.j+B.B.o+n j+B.B.R.R.n+=.q.G.v 9 ~+1 3 d.0+(+t+K.S C C i.5.{+I >+t+t.l.U.w+r.4.y y 2 :+Z.8.8.8.}.++~.9.'+'+)+| >.H.                  ",
"                        B.j+B.c.j+c.=.r+c.c.M 0 0       L.8 9 b+A.i a+,+b b  .;+(+Q m+t.Q 7+++l..+U l.F+U &.U C+9+8.Z.Z.Z.4 3 a.l+*+3.3.$+>.'+                  ",
"                          =.n+n+2+/.B.n c.B+z ].            C < k ;+a+0+K.0+,+0+r.r c+7.F.D.5..+.+.+.+&.&.&.U W 8.8.8.8.Z.}.E+E+E+3.*+D ;._.H.                  ",
"                              n+O j j+c.C.B+R.              7+X.d+a+#+A 7+%+#+;+r f.N .+N c+N .+.+.+.+.+.+.+U W 9+Z.Z.8.X ;.(.(.(.(.(.(.^ D H.                  ",
"                                                                A+K.K.A+q+C  .#+>+j.3 t..+.+.+.+.+.+.+&.&..+U ) - # F Y.;.D+(.(.(.g (.g ^ D H.                  ",
"                                                                3+d+0+R X.;+a+0+t+S F.~.N .+.+.+.+.+&.&.&.&.&..+U ) x ;.(.(.g (.(.(.(.(.(.s+H.                  ",
"                                                              ( X.K.#+,+b y+a+3 r ~.<./ +..+.+.+.+.+.+&.&.&.[+[+F+% /+' (.(.(.(.(.D+(.(.g s+H.                  ",
"                                                              _ 7+P.X.#+I t+K.d+U.N U .+.+.+.+.+&.&.[+&.[+&.&.&.U } Y.' D+(.D.(.D+i+(.(.(.s+H.                  ",
"                                                                    A+S e.  S 3+    .+.+.+.+.+.+&..+&.&.[+[+[+[+[+v+V q D+(.(.(.D+i+D.(.(.s+H.                  ",
"                                                                    k.7+                  .+.+&.&.[+[+&.&.[+[+[+y U v+  (.g (.(.(.  (.g (.s+H.                  ",
"                                                                                              &.&.&.&.[+[+[+[+y [+y y   5 5 y.y.    y.5 y.^.H.                  ",
"                                                                                                  &.[+&.&.[+y [+y y y   . . . .     . . . g H.                  ",
"                                                                                                      y [+[+[+[+y [+~.y.. . . .     . . . g H.                  ",
"                                                                                                          [+[+[+[+U.q+* . . . .     . . . g H.                  ",
"                                                                                                              y U ~.w . . . . .     . . . g H.                  ",
"                                                                                                                  F+<.                                          "};
