/* XPM */
static char * Zauber_trans_50_xpm[] = {
"50 32 403 2",
"  	c None",
". 	c #C8C76F",
"+ 	c #BAB960",
"@ 	c #9E9D4D",
"# 	c #C3C26A",
"$ 	c #8B8A38",
"% 	c #98973C",
"& 	c #AFAE4A",
"* 	c #C9C675",
"= 	c #C8C770",
"- 	c #C4C36C",
"; 	c #8B8A3E",
"> 	c #939237",
", 	c #8D8B35",
"' 	c #6B6A28",
") 	c #CBC38D",
"! 	c #C9C67A",
"~ 	c #C8C773",
"{ 	c #C9C873",
"] 	c #CAC974",
"^ 	c #D0A95E",
"/ 	c #CAC06B",
"( 	c #CEB062",
"_ 	c #CBBB68",
": 	c #CDB565",
"< 	c #C1C068",
"[ 	c #6E6D2D",
"} 	c #8A8A41",
"| 	c #CCBCA1",
"1 	c #CBC28A",
"2 	c #CAC580",
"3 	c #CAC97A",
"4 	c #CFCE81",
"5 	c #CCCB7A",
"6 	c #EB4929",
"7 	c #D69553",
"8 	c #D2A15A",
"9 	c #E46337",
"0 	c #EF3B21",
"a 	c #F1311C",
"b 	c #C8C56E",
"c 	c #D6AFFF",
"d 	c #CFA0FF",
"e 	c #D1A5FF",
"f 	c #D4A9FF",
"g 	c #D1A3FF",
"h 	c #CFA1FF",
"i 	c #D2A7FF",
"j 	c #D6AFFE",
"k 	c #C9B0B6",
"l 	c #CABB9C",
"m 	c #CDC294",
"n 	c #D4CF99",
"o 	c #CECC84",
"p 	c #C9C771",
"q 	c #ED4325",
"r 	c #F32A17",
"s 	c #DF7441",
"t 	c #D2A25A",
"u 	c #E55F35",
"v 	c #DE7642",
"w 	c #CE9DFF",
"x 	c #D8B1FF",
"y 	c #D7B1FF",
"z 	c #D5ABFE",
"A 	c #D3A8FF",
"B 	c #D1A4FF",
"C 	c #D9B5FE",
"D 	c #D5ACFF",
"E 	c #CAABC9",
"F 	c #CAB4AF",
"G 	c #D1C3AD",
"H 	c #D1C99D",
"I 	c #CAC582",
"J 	c #C8C673",
"K 	c #D39F59",
"L 	c #DE7742",
"M 	c #DF7642",
"N 	c #DD7B45",
"O 	c #D8B1FE",
"P 	c #D7AFFE",
"Q 	c #D6AEFF",
"R 	c #D0A2FF",
"S 	c #CD9CFF",
"T 	c #D2A6FE",
"U 	c #D2A7FE",
"V 	c #D8BBE5",
"W 	c #D6BFD4",
"X 	c #D1BAC0",
"Y 	c #CABA9E",
"Z 	c #CBC18D",
"` 	c #CAC57D",
" .	c #C8C671",
"..	c #D9894C",
"+.	c #E9502C",
"@.	c #D59A56",
"#.	c #D9B4FE",
"$.	c #D2A5FE",
"%.	c #CE9EFF",
"&.	c #D5ABFF",
"*.	c #DCBAFE",
"=.	c #DAB7FE",
"-.	c #D7B0FF",
";.	c #D0A3FF",
">.	c #DCC3E7",
",.	c #E2CFE5",
"'.	c #D1B7CD",
").	c #C9B3AA",
"!.	c #CABD97",
"~.	c #CAC386",
"{.	c #CE9EFE",
"].	c #D1A5FE",
"^.	c #D8B2FF",
"/.	c #DEBEFF",
"(.	c #E3C7FF",
"_.	c #E7D0FE",
":.	c #E6CEFE",
"<.	c #E2C5FF",
"[.	c #DCBAFF",
"}.	c #D5B9DC",
"|.	c #D8BFD8",
"1.	c #D2B7D2",
"2.	c #C9AFB4",
"3.	c #CAB9A0",
"4.	c #CAC18D",
"5.	c #C9C26D",
"6.	c #E2673A",
"7.	c #CEB264",
"8.	c #CBBC69",
"9.	c #DBB7FF",
"0.	c #CD9DFE",
"a.	c #D6AEFE",
"b.	c #E0C2FE",
"c.	c #E7D0FF",
"d.	c #ECDAFF",
"e.	c #EEDFFF",
"f.	c #EEDEFF",
"g.	c #EAD7FF",
"h.	c #E5CDFF",
"i.	c #DDBCFF",
"j.	c #D1B3D6",
"k.	c #CCB0C4",
"l.	c #D0B4CC",
"m.	c #CBAFBE",
"n.	c #C9B4A7",
"o.	c #CABE93",
"p.	c #CAC480",
"q.	c #CBBC6C",
"r.	c #EC4627",
"s.	c #D1A75D",
"t.	c #E56035",
"u.	c #ED3F23",
"v.	c #D59754",
"w.	c #CD9BFF",
"x.	c #DCB9FE",
"y.	c #E6CDFF",
"z.	c #EDDCFE",
"A.	c #F3E8FF",
"B.	c #F4EBFD",
"C.	c #F4ECFE",
"D.	c #F2E5FF",
"E.	c #ECD9FF",
"F.	c #E3C9FF",
"G.	c #D6BDD8",
"H.	c #CCB2BC",
"I.	c #CDB2C4",
"J.	c #CEB3C7",
"K.	c #C9B1AD",
"L.	c #CABC99",
"M.	c #CAC485",
"N.	c #CBBC6F",
"O.	c #F52514",
"P.	c #F1311B",
"Q.	c #E65A32",
"R.	c #D49D57",
"S.	c #E0C2FF",
"T.	c #EAD6FF",
"U.	c #F8F2FF",
"V.	c #F6F3FA",
"W.	c #F2EEF6",
"X.	c #EDE6F5",
"Y.	c #E8DAF6",
"Z.	c #E2CCF9",
"`.	c #D8BFD9",
" +	c #CCB2BE",
".+	c #D0B4CA",
"++	c #C9B0B2",
"@+	c #CABA9D",
"#+	c #CBC388",
"$+	c #CBBF72",
"%+	c #E16D3D",
"&+	c #E2693B",
"*+	c #DA854A",
"=+	c #D98A4D",
"-+	c #D79151",
";+	c #D5ACFE",
">+	c #DEBEFE",
",+	c #DBB8FE",
"'+	c #E3C7FE",
")+	c #F3E9FF",
"!+	c #FAF5FF",
"~+	c #FCFAFD",
"{+	c #F8F6FA",
"]+	c #EEE9F4",
"^+	c #DED4E9",
"/+	c #CDBBDF",
"(+	c #C5AED0",
"_+	c #C5ABBF",
":+	c #CAAEBD",
"<+	c #D2B7CF",
"[+	c #C8AFB2",
"}+	c #CBC389",
"|+	c #C9C677",
"1+	c #D6ADFF",
"2+	c #CC99FF",
"3+	c #F3E6FF",
"4+	c #F9F4FF",
"5+	c #FBF8FF",
"6+	c #FAF6FF",
"7+	c #F4EDFC",
"8+	c #E8DCF4",
"9+	c #CDBCDF",
"0+	c #A993C0",
"a+	c #997FB2",
"b+	c #A287B8",
"c+	c #BA9EC5",
"d+	c #BCA4B0",
"e+	c #C5B69D",
"f+	c #CAC387",
"g+	c #CB98FF",
"h+	c #D5ADFF",
"i+	c #E7CFFF",
"j+	c #F5EBFF",
"k+	c #F6EFFF",
"l+	c #F6EDFF",
"m+	c #F3E7FF",
"n+	c #EBDBFC",
"o+	c #C5B0DA",
"p+	c #957DAC",
"q+	c #81679B",
"r+	c #8D73A9",
"s+	c #9D81B8",
"t+	c #8F78A2",
"u+	c #948594",
"v+	c #A49E83",
"w+	c #B8B674",
"x+	c #C4C36F",
"y+	c #C7C66F",
"z+	c #D4AAFF",
"A+	c #DBB9FF",
"B+	c #D9B3FF",
"C+	c #ECDBFF",
"D+	c #EFDFFF",
"E+	c #EBD7FF",
"F+	c #E6CEFF",
"G+	c #DBBAFC",
"H+	c #BEA2C6",
"I+	c #9F84A4",
"J+	c #A189B2",
"K+	c #947EA9",
"L+	c #79678C",
"M+	c #64586F",
"N+	c #5C5760",
"O+	c #5D5D5D",
"P+	c #7B7B65",
"Q+	c #9B9A6D",
"R+	c #B4B36E",
"S+	c #C6C56F",
"T+	c #DFBFFF",
"U+	c #E4C9FF",
"V+	c #E8D2FF",
"W+	c #E2C7FF",
"X+	c #D8B3FF",
"Y+	c #CEB1CC",
"Z+	c #CCB1C2",
"`+	c #CAAFC6",
" @	c #BEA7B2",
".@	c #AA9C9C",
"+@	c #7C7476",
"@@	c #403D3D",
"#@	c #2A2929",
"$@	c #393939",
"%@	c #4B4B4B",
"&@	c #63635A",
"*@	c #7E7E67",
"=@	c #9D9C6B",
"-@	c #BBBA6E",
";@	c #C2C26F",
">@	c #DEBDFF",
",@	c #CF9FFE",
"'@	c #CF9FFF",
")@	c #D9B4FF",
"!@	c #DCBBFF",
"~@	c #DCB9FF",
"{@	c #DAB7FF",
"]@	c #CC9BFF",
"^@	c #D3B6D8",
"/@	c #D4BBD0",
"(@	c #CBB1BE",
"_@	c #C9B3A9",
":@	c #CABD98",
"<@	c #C5BE86",
"[@	c #97965C",
"}@	c #5F5F35",
"|@	c #2E2E1E",
"1@	c #1A1A18",
"2@	c #282828",
"3@	c #3B3B3B",
"4@	c #4C4C4C",
"5@	c #65655E",
"6@	c #828267",
"7@	c #92926E",
"8@	c #DDBBFE",
"9@	c #D2A6FF",
"0@	c #D4B6DE",
"a@	c #D2BBC7",
"b@	c #CEB8B5",
"c@	c #CAC18C",
"d@	c #C9C57D",
"e@	c #C8C771",
"f@	c #C4C36D",
"g@	c #B8B766",
"h@	c #959453",
"i@	c #585832",
"j@	c #2F2E1F",
"k@	c #23231E",
"l@	c #2A2A2A",
"m@	c #5B5B5B",
"n@	c #646464",
"o@	c #ECDBFE",
"p@	c #DCBBFE",
"q@	c #DFC0FF",
"r@	c #D4ABFF",
"s@	c #CBABCA",
"t@	c #CAB4B0",
"u@	c #D1C2AD",
"v@	c #CEC397",
"w@	c #CAC482",
"x@	c #C9C674",
"y@	c #B0B062",
"z@	c #8B8A4D",
"A@	c #504F2E",
"B@	c #212017",
"C@	c #1B1B1B",
"D@	c #2D2D2D",
"E@	c #3F3F3F",
"F@	c #525252",
"G@	c #696969",
"H@	c #D0A1FF",
"I@	c #D2A5FF",
"J@	c #D3A6FF",
"K@	c #D3A7FF",
"L@	c #CAAFB7",
"M@	c #CABB9B",
"N@	c #CBC191",
"O@	c #CBC585",
"P@	c #C5C46D",
"Q@	c #BEBD6A",
"R@	c #747341",
"S@	c #040404",
"T@	c #0E0E0E",
"U@	c #1A1A1A",
"V@	c #3E3E3E",
"W@	c #4F4F4F",
"X@	c #5F5F5F",
"Y@	c #CBBBA5",
"Z@	c #CBC28C",
"`@	c #CAC481",
" #	c #C9C676",
".#	c #080808",
"+#	c #0F0F0F",
"@#	c #1F1F1F",
"##	c #303030",
"$#	c #B8B172",
"%#	c #B9B566",
"&#	c #B7B65E",
"*#	c #B7B65B",
"=#	c #B7B65A",
"-#	c #CBC485",
";#	c #C7C279",
">#	c #BFBD69",
",#	c #BEBD65",
"'#	c #BEBD63",
")#	c #B9B857",
"!#	c #A1A03C",
"~#	c #807F30",
"{#	c #949337",
"]#	c #9E9D3B",
"^#	c #BDBB52",
"/#	c #BCBA56",
"(#	c #9C9B3C",
"_#	c #858432",
":#	c #ACAB44",
"<#	c #C6C56A",
"[#	c #C5C466",
"}#	c #AEAD50",
"|#	c #A3A23F",
"1#	c #6E6E2E",
"2#	c #BAB94C",
"3#	c #B9B84C",
"4#	c #9A993C",
"5#	c #76752D",
"6#	c #6C6B39",
"                                                                                                    ",
"                                                                                                    ",
"                                      . . . . . . . . . . . . . . + @                               ",
"                                    . . . . . . . . . . . . . . # $ % &                             ",
"                                    * = . . . . . . . . . . . . - ; > , '                           ",
"                                    ) ! ~ = { ] . ^ . / ( _ : . . < [ }                             ",
"                                    | 1 2 3 4 5 . 6 7 8 9 0 a b . .                                 ",
"                    c d e f g h i j k l m n o p . q r s t u v . . .                                 ",
"                  w x y z A g B C D E F G H I J . K L M t u N . . .                                 ",
"              O P Q R e S z g S T U V W X Y Z `  .. . . ..+.@.. . .                                 ",
"              A #.$.%.&.x *.=.-.A ;.>.,.'.).!.~.* . . . . . . . . .                                 ",
"            R z {.].^./.(._.:.<.[.^.}.|.1.2.3.4.! 5.6.7.7 8.. . . .                                 ",
"          -.9.A 0.a.b.c.d.e.f.g.h.i.j.k.l.m.n.o.p.q.r.s.t.u.v.. . .                                 ",
"            f w.e x.y.z.A.B.C.D.E.F.G.H.I.J.K.L.M.N.O.P.@.Q.R.. . .                                 ",
"          w f S &.S.T.D.U.V.W.X.Y.Z.`. +m..+++@+#+$+%+&+*+=+-+. . .                                 ",
"          ;+>+a.,+'+E.)+!+~+{+]+^+/+(+_+:+<+[+Y }+|+. . . . . . . .                                 ",
"          w.1+2+&.S.T.3+4+5+6+7+8+9+0+a+b+c+d+e+f+* . . . . . . . .                                 ",
"          g+Q R h+i.i+f.j+k+l+m+n+o+p+q+r+s+t+u+v+w+x+y+. . . . . .                                 ",
"          z+A+B+R c S.c.C+D+f.E+F+G+H+I+J+K+L+M+N+O+P+Q+R+S+. . . .                                 ",
"            g Q d T B+T+U+V+F+W+i.X+Y+Z+`+ @.@+@@@#@$@%@&@*@=@-@;@.                                 ",
"            %.>@>+,@'@D )@!@~@{@h+]@^@/@(@_@:@<@[@}@|@1@2@3@4@5@6@7@                                ",
"            8@b.,+^.g g w c 9@R x B 0@a@b@@+c@d@e@f@g@h@i@j@k@l@3@4@m@n@                            ",
"            o@p@  w )@-.h f 9@Q q@r@s@t@u@v@w@x@. . . . . y@z@A@B@C@D@E@F@O+G@                      ",
"                    )@d H@I@J@H@B K@L@M@N@O@* . . . . . . . . P@Q@R@S@T@U@l@V@W@X@                  ",
"                                    Y@Z@`@ #= . . . . . . . . . . .       .#+#@###                  ",
"                                    $#%#&#*#=#=#=#=#=#=#=#=#=#=#=#=#                                ",
"                                -#;#>#,#'#'#'#'#'#'#'#'#'#)#!#~#{#]#                                ",
"                              x@ .= . . . . . . . . . . . ^#/#(#_#:#                                ",
"                              <#<#<#<#<#<#<#<#<#<#<#<#<#<#[#}#|#1#                                  ",
"                              2#3#3#3#3#3#3#3#3#3#3#3#3#3#3#4#5#6#                                  ",
"                                                                                                    ",
"                                                                                                    "};
