/* XPM */
static char * Zaubermittel_50_xpm[] = {
"50 32 154 2",
"  	c None",
". 	c #061CE2",
"+ 	c #0C2ED1",
"@ 	c #FFFB44",
"# 	c #FFEE00",
"$ 	c #2E9B66",
"% 	c #FFFFFF",
"& 	c #FEEE01",
"* 	c #CADC17",
"= 	c #66BB41",
"- 	c #33AA57",
"; 	c #F2ECEC",
"> 	c #F2C1C1",
", 	c #F4AAAA",
"' 	c #E5E50B",
") 	c #8BC732",
"! 	c #F2E0E0",
"~ 	c #F38888",
"{ 	c #F56C6C",
"] 	c #9C4843",
"^ 	c #A34142",
"/ 	c #4B956A",
"( 	c #6D7685",
"_ 	c #F2F2F2",
": 	c #F3A0A0",
"< 	c #F29898",
"[ 	c #F38D8D",
"} 	c #F3B6B6",
"| 	c #3CA15F",
"1 	c #A543B2",
"2 	c #7F6594",
"3 	c #F2EAEA",
"4 	c #F49C9C",
"5 	c #F2A1A1",
"6 	c #F2B4B4",
"7 	c #F2C4C4",
"8 	c #479867",
"9 	c #429D63",
"0 	c #F3F383",
"a 	c #F2F288",
"b 	c #F4A2A2",
"c 	c #F57C7C",
"d 	c #F29B9B",
"e 	c #F2AFAF",
"f 	c #F49191",
"g 	c #C7E3EE",
"h 	c #E5EAC7",
"i 	c #F76767",
"j 	c #F48080",
"k 	c #F48181",
"l 	c #F57777",
"m 	c #C2E1EC",
"n 	c #BBDEEA",
"o 	c #F67A7A",
"p 	c #C6E3ED",
"q 	c #BCDFEA",
"r 	c #CBE5EE",
"s 	c #BDDFEB",
"t 	c #BEDFEB",
"u 	c #C2E1EB",
"v 	c #C0E0EB",
"w 	c #D3D3C4",
"x 	c #C1E1EB",
"y 	c #BDDFEA",
"z 	c #BCDEEA",
"A 	c #C8E4ED",
"B 	c #CBE6EF",
"C 	c #BFE0EB",
"D 	c #C3E1EC",
"E 	c #C1E1EC",
"F 	c #C1E0EB",
"G 	c #C6E2ED",
"H 	c #C7E4ED",
"I 	c #CDE6EF",
"J 	c #CCE6EE",
"K 	c #CEE7EF",
"L 	c #6E6E66",
"M 	c #191918",
"N 	c #919187",
"O 	c #484843",
"P 	c #B7B7AA",
"Q 	c #C9E4EE",
"R 	c #D8EBF2",
"S 	c #E2F0F5",
"T 	c #E1F0F5",
"U 	c #D9ECF2",
"V 	c #CFE7EF",
"W 	c #CBE6EE",
"X 	c #C8E4EE",
"Y 	c #C3E2EC",
"Z 	c #606059",
"` 	c #000000",
" .	c #88887F",
"..	c #353532",
"+.	c #B3B3A6",
"@.	c #CCE6EF",
"#.	c #CFE7F0",
"$.	c #D7EBF2",
"%.	c #D5EAF1",
"&.	c #C4E2EC",
"*.	c #CECEC0",
"=.	c #CBCBBC",
"-.	c #A4A499",
";.	c #8F8F85",
">.	c #BCBCAE",
",.	c #D2D2C3",
"'.	c #CCE5EF",
").	c #CCE5EE",
"!.	c #C5E2EC",
"~.	c #4B4B45",
"{.	c #9E9E92",
"].	c #D5EBF2",
"^.	c #D5E5F1",
"/.	c #D7E5F1",
"(.	c #CFE4EF",
"_.	c #C8DFED",
":.	c #C2DEEB",
"<.	c #C6DFED",
"[.	c #CBE4EE",
"}.	c #C7DEED",
"|.	c #C0DDEB",
"1.	c #BCDCEA",
"2.	c #818178",
"3.	c #54544E",
"4.	c #CC6EE1",
"5.	c #D140DD",
"6.	c #C974E1",
"7.	c #CB67E1",
"8.	c #CA73E1",
"9.	c #CD68E1",
"0.	c #C8A6E7",
"a.	c #D155E0",
"b.	c #CF71E2",
"c.	c #C1B9E7",
"d.	c #CCCCBD",
"e.	c #BABAAC",
"f.	c #C6C6B8",
"g.	c #C0B5E7",
"h.	c #C87AE1",
"i.	c #D330D8",
"j.	c #CF48DB",
"k.	c #CD57DD",
"l.	c #CF4CDD",
"m.	c #C87FE0",
"n.	c #CF4BD9",
"o.	c #CB6CE0",
"p.	c #98988D",
"q.	c #65655E",
"r.	c #C489C4",
"s.	c #C863BA",
"t.	c #C47CB7",
"u.	c #C86AC1",
"v.	c #C674C2",
"w.	c #C290BD",
"                                                                                                    ",
"                                                                                                    ",
"                                                                                                    ",
"                                                                                        .           ",
"                                                                                        +           ",
"            @ @                                                                     #   $           ",
"          @ @ @ @                                                 % %           # & * = -           ",
"          @ @ @ @                       ; > ,                                     ' )       -       ",
"          @ @ @ @                       ! ~ {                             ] ^         / (   -       ",
"          @ @ @ @                     _ : < [ }                 % %           - -   | 1 2 - -       ",
"          @ @ @ @                     3 4 5 6 7                                   -   8 9   -       ",
"            0 0 a                     b c d e f                   g                   - -   -       ",
"            h h h                       i j k l                   m n         - -     - -   -       ",
"            h h h                         o                       p q           - -     - - - -     ",
"            h h h                                                 r s             - -     - - -     ",
"            h h h                                               t r t               - -   - - -     ",
"            h h h                                               s u v v               - - - - -     ",
"            h h h                 w w w w w                     x m y z                   - -       ",
"            h h h               w w w w w w w w               A B C t z n                           ",
"            h h h             w w w w w w w w w           z D D v E p E t z                         ",
"            h h h           w w w w w w w w w w w         F G H r I J K B F n                       ",
"            h h h           w w L M N w O M P w w       Q R S T U V W X A Y n n                     ",
"            h h h           w w Z `  .w ..` +.w w       @.#.$.%.#.&.v s n n n n                     ",
"            h h h           w w *.=.-.;.>.=.,.w w       '.).@.X Q !.v &.E q n n                     ",
"            h h h           w w w w ~.` {.w w w w       ].^./.(._.:.<.[.}.|.1.n                     ",
"            h h h             w w w 2.3.+.w w w           4.5.6.7.8.9.0.a.b.c.                      ",
"            h h h               w d.e.e.e.f.w w           g.h.i.j.k.l.m.n.o.                        ",
"            h h h               w p.` ` ` q.w                 r.s.t.u.v.w.                          ",
"                                  p.` ` ` q.w                                                       ",
"                                                                                                    ",
"                                                                                                    ",
"                                                                                                    "};
