/* XPM */
static char * Zauber_trans_50_xpm[] = {
"50 32 256 2",
"  	c None",
". 	c #663A0A",
"+ 	c #9A9685",
"@ 	c #E2DECA",
"# 	c #B2AE9B",
"$ 	c #825A2E",
"% 	c #C8C2AE",
"& 	c #AA98BD",
"* 	c #9D8AAB",
"= 	c #B2AEAE",
"- 	c #C4C2E8",
"; 	c #956E45",
"> 	c #D27A6E",
", 	c #9E96FE",
"' 	c #EEECD4",
") 	c #B6B2DE",
"! 	c #DA968A",
"~ 	c #987C80",
"{ 	c #D7D2BD",
"] 	c #DEDAE2",
"^ 	c #C2A2CE",
"/ 	c #BE322E",
"( 	c #E2B3A6",
"_ 	c #B2AEFE",
": 	c #C6727E",
"< 	c #BC9ECE",
"[ 	c #9E7A4F",
"} 	c #E6C2AE",
"| 	c #F6F2DC",
"1 	c #CB9FB5",
"2 	c #CED2EE",
"3 	c #A39EFE",
"4 	c #D3C6DB",
"5 	c #C6BEB2",
"6 	c #CA968A",
"7 	c #DCB0A4",
"8 	c #C66A6E",
"9 	c #E2DED2",
"0 	c #B9B7D9",
"a 	c #9A92FE",
"b 	c #8A867A",
"c 	c #A68A8A",
"d 	c #D2CEBB",
"e 	c #CACEEE",
"f 	c #C2C2D2",
"g 	c #EBD2BF",
"h 	c #B47EAC",
"i 	c #BEB8E2",
"j 	c #C2766A",
"k 	c #BEBAFE",
"l 	c #6E460E",
"m 	c #FEFAE2",
"n 	c #D2B6AA",
"o 	c #C5C2FE",
"p 	c #F2F2FB",
"q 	c #A78659",
"r 	c #ACA8C0",
"s 	c #B6A2CE",
"t 	c #A692B2",
"u 	c #969284",
"v 	c #E2DFED",
"w 	c #A6664E",
"x 	c #C68272",
"y 	c #AAA6E2",
"z 	c #ACA896",
"A 	c #BAB6A2",
"B 	c #D8C4B2",
"C 	c #8A6239",
"D 	c #C2BEAE",
"E 	c #BC9BC8",
"F 	c #F2EADE",
"G 	c #DA9A8A",
"H 	c #C6929A",
"I 	c #DAD2DA",
"J 	c #CAAED2",
"K 	c #C7C5C9",
"L 	c #C9CAEC",
"M 	c #D0BCD7",
"N 	c #D28276",
"O 	c #724A1E",
"P 	c #9A86A2",
"Q 	c #B69A76",
"R 	c #8A6E72",
"S 	c #E6D2C0",
"T 	c #E5CEB9",
"U 	c #BEBEE7",
"V 	c #AFAAFE",
"W 	c #8A728A",
"X 	c #785025",
"Y 	c #B686B6",
"Z 	c #BAB6FE",
"` 	c #CAC2EB",
" .	c #BEA9D7",
"..	c #EAE6EA",
"+.	c #E0C8D0",
"@.	c #C2A2CA",
"#.	c #DAA090",
"$.	c #AEA6EA",
"%.	c #EAEAEE",
"&.	c #C4B090",
"*.	c #F6F4F0",
"=.	c #C8C4C2",
"-.	c #DAB5B5",
";.	c #DEDAC4",
">.	c #A6A292",
",.	c #D3D2F4",
"'.	c #AE92BA",
").	c #DBD8FC",
"!.	c #B2A2C4",
"~.	c #C64642",
"{.	c #9E869A",
"].	c #D0CAB6",
"^.	c #D48C82",
"/.	c #BAB2DE",
"(.	c #AA9272",
"_.	c #D6BEAE",
":.	c #CEB2D2",
"<.	c #9781A3",
"[.	c #8A6A5A",
"}.	c #ECEAF7",
"|.	c #C2A6B6",
"1.	c #B2AEBE",
"2.	c #8E6E62",
"3.	c #A2826E",
"4.	c #DED6C2",
"5.	c #C4B6DE",
"6.	c #C2BEAA",
"7.	c #B296C6",
"8.	c #7E421E",
"9.	c #C9C6FE",
"0.	c #C1BCCB",
"a.	c #DEAA9B",
"b.	c #E1DEFC",
"c.	c #D2D2EE",
"d.	c #FEFEEE",
"e.	c #EAE6F2",
"f.	c #A6A2FE",
"g.	c #927252",
"h.	c #EBD9C4",
"i.	c #CBC6F3",
"j.	c #C7BAE8",
"k.	c #CECEDA",
"l.	c #916A41",
"m.	c #D3CAEA",
"n.	c #7F562C",
"o.	c #C4AED8",
"p.	c #C3AAD5",
"q.	c #D7BDC3",
"r.	c #D2A7AF",
"s.	c #A38255",
"t.	c #C2B2DF",
"u.	c #C2BEDC",
"v.	c #C8C2D2",
"w.	c #A19AFE",
"x.	c #CAC6EC",
"y.	c #AEA6EE",
"z.	c #A88668",
"A.	c #E2DAEA",
"B.	c #D6CEE2",
"C.	c #B6B6E6",
"D.	c #FBF6E0",
"E.	c #B8A8C0",
"F.	c #CABAD6",
"G.	c #D2CECE",
"H.	c #D2C2A2",
"I.	c #EAE6E2",
"J.	c #D1CEF2",
"K.	c #BEB0CD",
"L.	c #DAD6C1",
"M.	c #CABAD0",
"N.	c #BEAE92",
"O.	c #D6D2E8",
"P.	c #FEFAE8",
"Q.	c #AAA2FE",
"R.	c #B7B2FE",
"S.	c #D6BECE",
"T.	c #E4C7B4",
"U.	c #C8BEE2",
"V.	c #E2BAA8",
"W.	c #E6DABE",
"X.	c #D69282",
"Y.	c #BA8AB2",
"Z.	c #C6C2F1",
"`.	c #D9D6F1",
" +	c #EADECB",
".+	c #AAA6F2",
"++	c #B991BD",
"@+	c #EEE6CE",
"#+	c #E2D6D0",
"$+	c #967247",
"%+	c #B28E82",
"&+	c #EFEEF4",
"*+	c #E2DEF4",
"=+	c #A29EAE",
"-+	c #DACAC2",
";+	c #BAB6C2",
">+	c #CBC6B4",
",+	c #B29DBD",
"'+	c #C6AAC8",
")+	c #C4BAE0",
"!+	c #AE8E66",
"~+	c #CFC5D3",
"{+	c #D3D2FE",
"]+	c #E3DFE2",
"^+	c #DCD2E9",
"/+	c #C2BEFE",
"(+	c #CFC2E5",
"_+	c #D7CDDB",
":+	c #CFC6E7",
"<+	c #DFC2BA",
"[+	c #CCCAFE",
"}+	c #E3CEC3",
"|+	c #EEEEFE",
"1+	c #9D9A8A",
"2+	c #F6F6FA",
"3+	c #D9DAEE",
"4+	c #CEAABE",
"5+	c #B6B2A0",
"6+	c #DEB6A6",
"7+	c #8E8A7E",
"8+	c #A6928E",
"9+	c #D6BEAA",
"0+	c #CECAC6",
"a+	c #CECAC2",
"b+	c #9A764B",
"c+	c #BAB2A2",
"d+	c #FBFAEE",
"e+	c #D6CEBA",
"f+	c #F4F2E8",
"g+	c #CECAEA",
"h+	c #BEA2D2",
"i+	c #E7E2EC",
"j+	c #A28EB2",
"k+	c #FAF6E6",
"l+	c #BEBAA6",
"m+	c #E9E6FC",
"n+	c #DAA29E",
"o+	c #AAA6FE",
"p+	c #B6AEFE",
"q+	c #855E37",
"r+	c #A27E4F",
"s+	c #AA8A5E",
"t+	c #8B663D",
"u+	c #D29A9A",
"v+	c #CE8A8E",
"w+	c #E6DACE",
"x+	c #C6BEEA",
"y+	c #F0ECE9",
"z+	c #D2A2AA",
"A+	c #BABAE5",
"B+	c #E5E2F4",
"C+	c #DEBEB2",
"D+	c #AEA6FE",
"E+	c #CAB9DF",
"F+	c #D3CEEE",
"G+	c #D2CEFE",
"                                  >.    z     # #   #   =   1.  r   =+  g+        [+                ",
"                                    d d d d d d d d d a+K =.0.0.  0.;+0.~+  /+                      ",
"                                % ' P.P.P.P.P.P.d+*.y+%.i+v 3+,.,.,.L A+0 0   /+                    ",
"                                ;.D.m m m D.D.k+f+y+..v `.F+g+i.i.i.L U A+) R.    o+                ",
"                                4.h.h.( ' @+ +}+i+]+O.:+5.x+x+Z.Z.L 3+c.L U   w.      V             ",
"                                ;.T.G / X.7 C+v+4+S.F.E < p.t.x+/.- e - A+A+Z     ,   Q.            ",
"                                ;.g T.> ! <+<+z+4+F.U.p.t. .t.i i - - A+C..+w.D+p+3 a               ",
"                              A 6. +h.V. +w+#+_+M 5.j.` x+5.j.)+` x.- C.      ,   p+  a     R.      ",
"                                % T.a.~.( 6+r.1 Y.Y h+<  .h+< o.(+J.g+Z./+Z _   ,   V   ,           ",
"                              >+L.B h.#.T.-.q.M p.p.o. .o.E+5.:+^+).`.,.G+[+9.R.3   _ Q.  3         ",
"                                { >+B g C+-.B.'+)+` o.t.` (+(+`.*+B+B+b.  ).  k D+  f.  ,     R.    ",
"                              % e+9+j a.n+: M.++++E E ++o.J M ^+e.&+}.}.m+b.{+o   3 w.V 3   Q.      ",
"                              % ].@ B _.}+q.4 o.t.t.t.5.:+m.^+B+e.&+p p |+m+  9.  Q.  p+  ,         ",
"                                ].h.} B <++.4 E+j.t.p.5.` :+B.A...&+2+2+p   ).[+k V   /+Z   o {+    ",
"                              % ].T.N a.u++.1 @.o.p.++E K.M.4 ] i+&+*.2+p m+).  k   w.  _     o     ",
"                                d  +T g -+I 4 )+t.s t & !.K.v.O.]+..&+p |+  ).[+Z f.  _   , f.      ",
"                              % L.V.6+6+7 H |.,+& & * t ,+E.K.~+^+}.|+}.m+b.  o   o+  Z w.    p+    ",
"                                4.! ^.X.6 %+c {.j+!.j+P * & o.m.^+*+B+b.  {+9.k D+  Z   V   D+      ",
"                                4.W.H.Q z.3.~ ~ <.j+* <.'.U.:+F+`.`.`.,.  9.  R.  w.p+V             ",
"                              N.&.!+s.b+$+g.2.R W <.7.< h ++^ :+m.J.F+Z.9.k V   V   V   w.p+        ",
"                            s+q r+b+; t+q+q+[.8+E.p.t.` o. .o.` x.x.x.      w.  o     ,             ",
"                        q   [ $+l.C $ X n.z.n q.~+'+(+E+j. .t.t. .j.- $.w.Q.w.  _ R.V   o+  k       ",
"                    s+q [ $+l.q+n.X 8.w x #.^.8 r.z+:.Y h+E ^ < h t.-     D+  V   w.    _           ",
"                q s.b+; t+q+n.X g.N.T T S h.S }+#+I _+F.t.5.x+j.Z.,.J.  V   3 ,                     ",
"          q s.r+b+; t+q+n.X   (.% d e+e+e+d d d d 0+K v.u.u.)+/.U e x.y.,       3 D+  Z             ",
"        q r+b+l.C $ X O     | D.D.D.D.D.D.D.D.D.| F I...i+i+A.O.2 L u.y   w.f.o+                    ",
"      [   l.C n.O   l     D.P.d.d.d.d.d.d.d.d.d.d.d.d+2+*.p %.B+3+k.f                               ",
"        q+n.O             D.P.P.m m P.k+k+P.P.P.d.P.P.P.d+*.f+y+G.K =.r   Z                         ",
"            .           4.  { { L.{ { e+{ { { L.L.L.L.;.@ { { ;.L.9 >+                              ",
"                          6.A A A A 5+5+5+5+5+A c+A c+l+D A A 6.].L.  5                             ",
"                          z 1+u + + + + + u u u u u + 1+1++ u >.% >+                                ",
"                              7+b b b b b b b b b b b b b b b 7+  l+                                "};
