/* XPM */
static char * ZF_G1_Char_32_xpm[] = {
"50 32 256 2",
"  	c None",
". 	c #020202",
"+ 	c #06791D",
"@ 	c #167A1E",
"# 	c #4EA656",
"$ 	c #DEF62A",
"% 	c #BCBC97",
"& 	c #423A0A",
"* 	c #EEFE56",
"= 	c #92CA8E",
"- 	c #262206",
"; 	c #A2D296",
"> 	c #825A16",
", 	c #3E822E",
"' 	c #A6D29E",
") 	c #566A26",
"! 	c #DEDEAA",
"~ 	c #B67612",
"{ 	c #7E4E0E",
"] 	c #035E16",
"^ 	c #DEDEBE",
"/ 	c #565A1E",
"( 	c #6AB66E",
"_ 	c #DEDE92",
": 	c #8A7632",
"< 	c #848672",
"[ 	c #383E0E",
"} 	c #E8EABE",
"| 	c #B2A27A",
"1 	c #56540E",
"2 	c #DEEAC6",
"3 	c #595C65",
"4 	c #7E7236",
"5 	c #AE9A6E",
"6 	c #A2A490",
"7 	c #8E9264",
"8 	c #6A460E",
"9 	c #E2FE22",
"0 	c #E7F5CD",
"a 	c #8A6A06",
"b 	c #B3BAC9",
"c 	c #32620F",
"d 	c #787836",
"e 	c #BBC3D3",
"f 	c #264A0E",
"g 	c #A2A6A2",
"h 	c #757775",
"i 	c #B2B6C6",
"j 	c #96927A",
"k 	c #F6FADA",
"l 	c #E2E28E",
"m 	c #4E5252",
"n 	c #FEE622",
"o 	c #AAACA4",
"p 	c #623E0A",
"q 	c #C2C28A",
"r 	c #066F1A",
"s 	c #BE862E",
"t 	c #404448",
"u 	c #8E6A06",
"v 	c #CECEA6",
"w 	c #EEEEB2",
"x 	c #365E0E",
"y 	c #544E1A",
"z 	c #EEEEBA",
"A 	c #E6FE36",
"B 	c #83877F",
"C 	c #8C9395",
"D 	c #D0B690",
"E 	c #3A9E4A",
"F 	c #FEFE73",
"G 	c #FEFE7A",
"H 	c #06821E",
"I 	c #C8AC82",
"J 	c #1A4E12",
"K 	c #5A6626",
"L 	c #EEF6D2",
"M 	c #56360A",
"N 	c #92AA76",
"O 	c #626668",
"P 	c #CA9E5E",
"Q 	c #327A3A",
"R 	c #AEB6C3",
"S 	c #9A9E92",
"T 	c #A66C06",
"U 	c #FEFEF8",
"V 	c #FEFE65",
"W 	c #F2EE3E",
"X 	c #6A672B",
"Y 	c #324E12",
"Z 	c #C8CAAF",
"` 	c #E6FE2E",
" .	c #2A5A12",
"..	c #72767A",
"+.	c #DABA7E",
"@.	c #7A5616",
"#.	c #FEFEE6",
"$.	c #828687",
"%.	c #4E9E52",
"&.	c #F2F292",
"*.	c #C2924A",
"=.	c #165212",
"-.	c #F6F6A0",
";.	c #DAC29E",
">.	c #FEF636",
",.	c #A5AAB6",
"'.	c #B6A68E",
").	c #F2F2BE",
"!.	c #C2DAB2",
"~.	c #6A5E26",
"{.	c #FDFDA9",
"].	c #AAAEAA",
"^.	c #F6FD29",
"/.	c #F5FAD4",
"(.	c #229236",
"_.	c #FEFE7E",
":.	c #7D6B2E",
"<.	c #564A1A",
"[.	c #826A2A",
"}.	c #FEF63A",
"|.	c #BDBDAD",
"1.	c #E6EECE",
"2.	c #D3D3B3",
"3.	c #126622",
"4.	c #939AA6",
"5.	c #BAAA8E",
"6.	c #AEB09A",
"7.	c #625632",
"8.	c #2F450E",
"9.	c #6D706C",
"0.	c #F6F6DE",
"a.	c #988C6C",
"b.	c #128322",
"c.	c #8EB68A",
"d.	c #CAA66A",
"e.	c #F1FE3B",
"f.	c #FEFE5C",
"g.	c #7C818C",
"h.	c #878B8D",
"i.	c #FEFC88",
"j.	c #1A6E1A",
"k.	c #DADAAA",
"l.	c #36362E",
"m.	c #625A12",
"n.	c #B26A02",
"o.	c #FEF64E",
"p.	c #969E9E",
"q.	c #4E4616",
"r.	c #989C8A",
"s.	c #FEFEB6",
"t.	c #FCFCC6",
"u.	c #DAF246",
"v.	c #A29680",
"w.	c #4A8A4E",
"x.	c #F6EAC6",
"y.	c #C3C5A2",
"z.	c #624E0E",
"A.	c #1E5E12",
"B.	c #7F817E",
"C.	c #B2B19F",
"D.	c #F6FADE",
"E.	c #C2BE97",
"F.	c #A6AEBA",
"G.	c #929696",
"H.	c #62625E",
"I.	c #BA8026",
"J.	c #FEFE9F",
"K.	c #4E6226",
"L.	c #AEA28E",
"M.	c #FAFAD4",
"N.	c #E5E5C1",
"O.	c #B6720A",
"P.	c #C2CADA",
"Q.	c #6E7232",
"R.	c #22661E",
"S.	c #F6F692",
"T.	c #696D77",
"U.	c #A6A6A2",
"V.	c #8E8E80",
"W.	c #5E521E",
"X.	c #868A94",
"Y.	c #036216",
"Z.	c #FEFE1E",
"`.	c #DADABF",
" +	c #AAAEBD",
".+	c #FEFEE2",
"++	c #F6EAC2",
"@+	c #929482",
"#+	c #FAFE42",
"$+	c #FEFE91",
"%+	c #5EAE62",
"&+	c #EEDEB6",
"*+	c #5E5511",
"=+	c #8E8E7A",
"-+	c #7E7E62",
";+	c #06861E",
">+	c #F6FE4A",
",+	c #9E9E8C",
"'+	c #9BA2AD",
")+	c #F6FE36",
"!+	c #FDFE34",
"~+	c #FEFECA",
"{+	c #BABECE",
"]+	c #FEFE22",
"^+	c #BEBEA6",
"/+	c #C6C2C2",
"(+	c #4E620E",
"_+	c #B6B6A5",
":+	c #FEFE3A",
"<+	c #6D727B",
"[+	c #8C939E",
"}+	c #FAFADE",
"|+	c #D6D6A2",
"1+	c #898E97",
"2+	c #FEFEB0",
"3+	c #E6E6CC",
"4+	c #A2A6B4",
"5+	c #ACB2C0",
"6+	c #A6AA9E",
"7+	c #168220",
"8+	c #DCFE2A",
"9+	c #C8CA92",
"0+	c #C28E3E",
"a+	c #36822A",
"b+	c #C69A58",
"c+	c #969676",
"d+	c #FEFEDA",
"e+	c #0A5E1A",
"f+	c #576112",
"g+	c #FEFED5",
"h+	c #E2FE32",
"i+	c #CAAA7E",
"j+	c #7A7E76",
"k+	c #9EA282",
"l+	c #5A6222",
"m+	c #B26E04",
"n+	c #FEFE50",
"o+	c #90948D",
"p+	c #FEFE41",
"q+	c #827236",
"r+	c #DAFA3E",
"s+	c #CACA9E",
"t+	c #AAAA96",
"u+	c #9EA6B1",
"v+	c #FEFEDE",
"w+	c #EDEDCC",
"x+	c #9A9A9E",
"y+	c #CABAA2",
"z+	c #FEFE4A",
"A+	c #FEFEBD",
"B+	c #999EA8",
"C+	c #F5F5CF",
"D+	c #5F626A",
"E+	c #B6BECC",
"F+	c #9EA29E",
"G+	c #FEFE2D",
"                                                                            }+                      ",
"                                                                        #.#.#.  n.m+m+n.      E.E.  ",
"                                                                    .+.+#.#.x.n.O.d.P m+n.    E.E.  ",
"                                                                .+.+.+#.#.#.x.m+I.D y+b+O.    E.E.  ",
"                                          t D+              v+v+.+.+.+.+.+.+++I.I L.v.;.0+    ^+E.  ",
"                                      [+3 g.3           d+v+v+.+.+v+v+v+.+#.x.s D 5.'.;.*.    | 5   ",
"                                    D+,.5+b [+X.O   g+d+d+v+v+v+v+v+.+#.#.#.&+n.s i+i+b+      { {   ",
"                                  3 1+5+g.X.5+C 2.M.g+3+`.d+d+v+.+.+#.#.#.#.+.T T ~ ~         { {   ",
"                                    <+ +<+g.R x+y.C+} h.h w+v+.+.+#.#.#.#.D.N x c u a e+      { {   ",
"                                  m C u+5+R B+j+c+N.2...[+_+.+}+w+}+#.#.}+c.3.] ] (+c ] ] ] + m.{   ",
"          8+^.!+:+                |+! S F+6.$.B ,+Z Z T.[+V.3+_+G.^+#..+k w.] ] ] c A.] ] Y.+ f+{   ",
"      G+!+e.!+!+Z.G+]+        2+2+A+A+j v } S B. +G.6+4. +$.G.,.g.6 v+v+/.%.r Y.Y.Y.] ] Y.r H f+{   ",
"    n+p+:+>+p+!+!+G+!+G+W i.{.2+{.s.A+z t.~+C+6.B+i i P.P.e {+'+G.w+d+d+/.# H + + + r r + H ;+f+{   ",
"  ^.p+V n+z+p+!+:+z+p+p+G i.J.J.2+A+A+A+~+).k.y.C R {+'+[+5+b 1+_+^ C+v+0 E ;+;+;+;+ .H ;+;+;+f+{   ",
"  G+!+z+$+G f.f.V n+p+o._.$+J.2+2+2+2+2+{.-+j+G.,.E+F.9.m X.b ,.X.$.B.`.' ;+;+;+;+;+Y a+;+;++ *+{   ",
"e.)+p+n+V g+A+A+$+V p+n+F _.$+$+J.{.2+A+A+< B 1+1+5+,.T.m X.e 5+1+$.j+`.; ;+;+;+;+a+y X d d R.1 {   ",
"h+` #+n+V ~+U .+_.f.G+!+f.F $+J.J.2+2+s.t.|+% s+9.u+b B+4.e e G.C.2.w+v+; ;+;+;+;+, y :.~.X R.1 {   ",
"u.h+* G F 2+U 2+_.n+!+#+F $+J.J.-.q 9+w |+B S ,+X.F.F.E+e R R ,.|.M.d+v+; ;+;+;+b.Q.<.4 q+: K *+{   ",
"  e.A p+F $+2+$+V n+p+f.F G i.S.&.c+r.y.k+g.B.H.X.X.G.B+u+G.U.B+h.`..+.+; ;+;+;+b.X 7.a.[.> l+*+{   ",
"  $ )+#+z+z+V p+n+#+^.:+V $+&.l -.E.F+].G.4+h.h B.=+2.o+[+^+/.Z V.2.#.#.= ;+;+;+7+7 /+v.{ @.) *+{   ",
"    p+z+:+p+z+F p+#+8+9     {._ 9+% g b b e R ,.p.k+} @+O 3+d+g+C+}+v+L (.;+;+;+7+7 6.a.:.:.K.*+{   ",
"      p+G+n >.n+G+!+r+          ..G.F.5+C 1+5+,.C.N.~+% =+g+g+d+d+v+v+0 ;+;+;+;+@ / W.W.W.q.8.1 {   ",
"            }.p+                  <+'+4+9.H.,.,.C C.N.M.M.d+d+d+d+d+v+/.( %+b.j.Y & & & & & [ z.{   ",
"                                  T.'+ +[+4.b F.1+$.6.g+d+d+d+d+v+v+v+v+.+L w.8.& & & & & & & 8 {   ",
"                                t g.G.,.i b R 6+Z 2.N.g+d+d+v+v+v+v+v+v+.+2 3.J & & & [ [ & & 8 {   ",
"                                      g.4.g.4.1+  M.g+d+d+v+v+v+v+.+.+.+.+1.Q =.& & & 8.8.& & 8 {   ",
"                                      3 T.    3       v+d+v+v+v+v+v+.+.+.+.+!.f & & & [ [ & & 8 {   ",
"                                                          v+v+v+.+.+.+.+.+.+#.  - - -     - - p {   ",
"                                                              .+.+.+.+.+#.#.0.  . . .   . . . M {   ",
"                                                                  #..+.+.+#.t+. . . .   . . . M {   ",
"                                                                      #.#.3+l.. . . .   . . . M {   ",
"                                                                            |.                      "};
