/* XPM */
static char * Ulf_Nein_xpm[] = {
"32 32 251 2",
"  	c None",
". 	c #9D7E7E",
"+ 	c #9A5E5E",
"@ 	c #8C4D4D",
"# 	c #8D4E4E",
"$ 	c #996060",
"% 	c #9C807F",
"& 	c #8E5151",
"* 	c #AA1616",
"= 	c #EB1C1C",
"- 	c #FC1D1E",
"; 	c #FC1D1D",
"> 	c #FB1C1C",
", 	c #FA1B1B",
"' 	c #F91A1A",
") 	c #F9191A",
"! 	c #E21616",
"~ 	c #9D1313",
"{ 	c #8A5757",
"] 	c #7F4646",
"^ 	c #C91919",
"/ 	c #FE1F1F",
"( 	c #FD1E1E",
"_ 	c #FC1E1E",
": 	c #FC1C1D",
"< 	c #F8191A",
"[ 	c #F81919",
"} 	c #F71818",
"| 	c #F61717",
"1 	c #F51616",
"2 	c #BA1010",
"3 	c #7F5050",
"4 	c #A51E1F",
"5 	c #FD2020",
"6 	c #FD1F1F",
"7 	c #FD1D1E",
"8 	c #F91919",
"9 	c #F81819",
"0 	c #F51515",
"a 	c #F41515",
"b 	c #EF1313",
"c 	c #8D1B1B",
"d 	c #C81B1B",
"e 	c #FE2020",
"f 	c #FD1E1F",
"g 	c #FB1B1B",
"h 	c #EB1818",
"i 	c #D71615",
"j 	c #D71515",
"k 	c #EA1616",
"l 	c #F31314",
"m 	c #F21313",
"n 	c #F11212",
"o 	c #AE1010",
"p 	c #C41919",
"q 	c #FD1E1D",
"r 	c #D31717",
"s 	c #8D2C2C",
"t 	c #917373",
"u 	c #EB7777",
"v 	c #886767",
"w 	c #8A2222",
"x 	c #D71212",
"y 	c #F31414",
"z 	c #F01111",
"A 	c #F01010",
"B 	c #B31110",
"C 	c #A01D1D",
"D 	c #F51C1C",
"E 	c #993333",
"F 	c #787070",
"G 	c #C90F0F",
"H 	c #F21212",
"I 	c #F01211",
"J 	c #F01110",
"K 	c #EF0F0F",
"L 	c #EE0F0F",
"M 	c #951919",
"N 	c #7F4141",
"O 	c #FD1F1E",
"P 	c #E71A1A",
"Q 	c #875858",
"R 	c #991717",
"S 	c #F11111",
"T 	c #EF100F",
"U 	c #ED0E0E",
"V 	c #EA0D0D",
"W 	c #7F4E4E",
"X 	c #D01A1A",
"Y 	c #F01B1B",
"Z 	c #845A5A",
"` 	c #EF1110",
" .	c #EC0D0D",
"..	c #EB0D0D",
"+.	c #B30909",
"@.	c #8D4848",
"#.	c #FE1F20",
"$.	c #8A3030",
"%.	c #EF1010",
"&.	c #CE0C0C",
"*.	c #EB0C0C",
"=.	c #EA0B0B",
"-.	c #8A5554",
";.	c #AF1515",
">.	c #D11717",
",.	c #9E1111",
"'.	c #786E6E",
").	c #CC0B0B",
"!.	c #E90A0A",
"~.	c #9A0B0B",
"{.	c #F21D1D",
"].	c #893030",
"^.	c #F01112",
"/.	c #F01011",
"(.	c #892121",
"_.	c #E80909",
":.	c #D40807",
"<.	c #9A7070",
"[.	c #F91B1B",
"}.	c #8A7A7A",
"|.	c #F11213",
"1.	c #F11112",
"2.	c #8E6A6A",
"3.	c #E80808",
"4.	c #E70807",
"5.	c #947878",
"6.	c #9B5151",
"7.	c #FA1C1B",
"8.	c #DC1717",
"9.	c #DE0809",
"0.	c #E70808",
"a.	c #E60808",
"b.	c #E60707",
"c.	c #8A4D4D",
"d.	c #914040",
"e.	c #FB1B1C",
"f.	c #C81414",
"g.	c #F11211",
"h.	c #CA0707",
"i.	c #E70708",
"j.	c #E50606",
"k.	c #8E4545",
"l.	c #903E3E",
"m.	c #FB1C1B",
"n.	c #C61413",
"o.	c #C80607",
"p.	c #E40505",
"q.	c #8F4545",
"r.	c #9C4F4F",
"s.	c #FA1A1B",
"t.	c #DA1515",
"u.	c #F21312",
"v.	c #D90606",
"w.	c #E30405",
"x.	c #884B4B",
"y.	c #9C6F6F",
"z.	c #F81818",
"A.	c #928282",
"B.	c #9E1112",
"C.	c #886A6A",
"D.	c #E30504",
"E.	c #E30404",
"F.	c #F01818",
"G.	c #F61716",
"H.	c #8A3838",
"I.	c #F21213",
"J.	c #811F1F",
"K.	c #D10302",
"L.	c #B31111",
"M.	c #F71718",
"N.	c #C11111",
"O.	c #8F8D8D",
"P.	c #C50504",
"Q.	c #E40405",
"R.	c #E20303",
"S.	c #940505",
"T.	c #8B403F",
"U.	c #C30F0F",
"V.	c #832222",
"W.	c #E40504",
"X.	c #E30403",
"Y.	c #E10202",
"Z.	c #864C4C",
"`.	c #CF1212",
" +	c #F11313",
".+	c #7A4E4E",
"++	c #DC0405",
"@+	c #B20101",
"#+	c #7E3636",
"$+	c #F31313",
"%+	c #EE100F",
"&+	c #7E5050",
"*+	c #D10404",
"=+	c #DE0101",
"-+	c #794242",
";+	c #A91313",
">+	c #EF1011",
",+	c #C50C0C",
"'+	c #827E7E",
")+	c #8F2B2C",
"!+	c #DD0505",
"~+	c #E00101",
"{+	c #890D0D",
"]+	c #C70F0F",
"^+	c #EE0F10",
"/+	c #BE0A0A",
"(+	c #822F2F",
"_+	c #8B7D7D",
":+	c #8F7A7A",
"<+	c #872D2D",
"[+	c #BB0404",
"}+	c #E00102",
"|+	c #AA0202",
"1+	c #C10D0D",
"2+	c #EE0F0E",
"3+	c #E80A0A",
"4+	c #CC0808",
"5+	c #BA0707",
"6+	c #BB0607",
"7+	c #CF0606",
"8+	c #E40606",
"9+	c #E30505",
"0+	c #E10203",
"a+	c #B00202",
"b+	c #9E0F10",
"c+	c #ED0D0E",
"d+	c #EC0C0C",
"e+	c #EB0B0B",
"f+	c #EA0A0A",
"g+	c #E40506",
"h+	c #E00202",
"i+	c #960C0C",
"j+	c #7B3434",
"k+	c #C70A0A",
"l+	c #E60606",
"m+	c #E10302",
"n+	c #B90202",
"o+	c #7A3C3C",
"p+	c #863C3B",
"q+	c #A60707",
"r+	c #E00909",
"s+	c #E50506",
"t+	c #D90303",
"u+	c #A00303",
"v+	c #864242",
"w+	c #906363",
"x+	c #873B3B",
"y+	c #8E3535",
"z+	c #8D3535",
"A+	c #883D3D",
"B+	c #926767",
"                                                                ",
"                        . . + @ # $ % .                         ",
"                    & * = - ; > , ' ) ! ~ {                     ",
"                ] ^ / ( _ : > , ' < [ } | 1 2 3                 ",
"              4 5 / 6 7 ; > , ' 8 9 } | 1 0 a b c               ",
"          . d e / f _ ; > g h i j k | 1 0 a l m n o .           ",
"        . p e / 6 q ; r s t . u u . v w x y m n z A B           ",
"        C e / ( _ D E                   F G H I J K L M         ",
"      N 5 / O ( P Q                   . R n S A T L U V W       ",
"    . X / f 7 Y Z                   . R n z ` T L U  ...+.      ",
"    @.#.6 _ ; $.                  . R n z z %.L &. . .*.=.-.    ",
"    ;.O ( ; >.                  . R n I ` T L ,.'.).*.=.!.~.    ",
"  . {.( ; > ].                . R n ^./.%.L ,..   (.=.!._.:..   ",
"  <.( ; > [.}.              . R |.1.z %.L ,..     2.!._.3.4.5.  ",
"  6.; > 7.8..             . R H S z %.L ,..       . 9.0.a.b.c.  ",
"  d.> e., f.u           . R n g.z %.L ,..         u h.i.b.j.k.  ",
"  l.m., ' n.u         . R n 1.J %.L ,..           u o.b.j.p.q.  ",
"  r.s.' [ t..       . R u.n z %.L ,..             . v.j.p.w.x.  ",
"  y.' [ z.| A.    . R H n z %.L B..               C.j.p.D.E.t   ",
"  . F.z.| G.H.  . R I.1.z %.L ,..                 J.p.E.E.K..   ",
"    L.M.| 1 N.O.R H n z %.L ,..                 . P.Q.E.R.S.    ",
"    T.| 1 a y U.m n z %.L ,..                   V.W.X.R.Y.Z.    ",
"    . `.a y m  +n z %.L ,..                   .+++E.R.Y.@+      ",
"      #+y $+u.n z %.%+,..                   &+*+E.R.Y.=+-+      ",
"        ;+m n z >+L ,+'+                  )+!+E.R.Y.~+{+        ",
"        . ]+z A ^+L U /+(+_+. u u . :+<+[+p.E.R.Y.}+|+.         ",
"          . 1+L 2+U  .*.=.3+4+5+6+7+j.8+9+E.R.0+}+a+.           ",
"            . b+c+ .d+e+f+!._.0.b.j.g+p.E.R.Y.h+i+              ",
"                j+k+=.=.!._.0.b.l+p.p.E.R.m+n+o+                ",
"                  . p+q+r+0.b.j.s+p.E.t+u+v+                    ",
"                        . w+x+y+z+A+B+.                         ",
"                                                                "};
