/* XPM */
static char * Ulf_Ja_xpm[] = {
"32 32 119 2",
"  	c None",
". 	c #878D87",
"+ 	c #789378",
"@ 	c #1BC41B",
"# 	c #9BAA9B",
"$ 	c #499849",
"% 	c #21FA21",
"& 	c #1EC41E",
"* 	c #19B919",
"= 	c #20F820",
"- 	c #21B421",
"; 	c #829A82",
"> 	c #1FF31F",
", 	c #1FF51F",
"' 	c #299729",
") 	c #2B952B",
"! 	c #1EF21E",
"~ 	c #398939",
"{ 	c #19D419",
"] 	c #1CEF1C",
"^ 	c #18BE18",
"/ 	c #5B945B",
"( 	c #1BED1B",
"_ 	c #1BEB1B",
": 	c #6B976B",
"< 	c #189B18",
"[ 	c #1AEA1A",
"} 	c #21A421",
"| 	c #18DC18",
"1 	c #19E719",
"2 	c #18DE18",
"3 	c #90A690",
"4 	c #3F8E3F",
"5 	c #18E418",
"6 	c #2A942A",
"7 	c #12AD12",
"8 	c #17E217",
"9 	c #15D015",
"0 	c #779577",
"a 	c #15DE15",
"b 	c #15DF15",
"c 	c #389238",
"d 	c #218B21",
"e 	c #14DC14",
"f 	c #11BC11",
"g 	c #11C311",
"h 	c #13D913",
"i 	c #3F833F",
"j 	c #839B83",
"k 	c #129212",
"l 	c #11C211",
"m 	c #0EA60E",
"n 	c #6D8B6D",
"o 	c #518C51",
"p 	c #12D712",
"q 	c #0FB00F",
"r 	c #0FB90F",
"s 	c #11D411",
"t 	c #109410",
"u 	c #488148",
"v 	c #6B916B",
"w 	c #0FD10F",
"x 	c #1A8D1A",
"y 	c #8C9B8C",
"z 	c #0FCC0F",
"A 	c #0CA10C",
"B 	c #92A192",
"C 	c #0EC70E",
"D 	c #0ECE0E",
"E 	c #0ECD0E",
"F 	c #4C7B4C",
"G 	c #358735",
"H 	c #508050",
"I 	c #278327",
"J 	c #0DCC0D",
"K 	c #0BB00B",
"L 	c #0AA30A",
"M 	c #0B980B",
"N 	c #148E14",
"O 	c #0CC90C",
"P 	c #118F11",
"Q 	c #6E8F6E",
"R 	c #598359",
"S 	c #119611",
"T 	c #0BC60B",
"U 	c #0B9F0B",
"V 	c #748F74",
"W 	c #178217",
"X 	c #0D930D",
"Y 	c #129112",
"Z 	c #09C309",
"` 	c #09BD09",
" .	c #0B7F0B",
"..	c #08B508",
"+.	c #09C209",
"@.	c #658D65",
"#.	c #1A801A",
"$.	c #09C109",
"%.	c #0D8B0D",
"&.	c #297529",
"*.	c #07BC07",
"=.	c #07BE07",
"-.	c #07BD07",
";.	c #6E8E6E",
">.	c #457645",
",.	c #06AD06",
"'.	c #06BB06",
").	c #0D860D",
"!.	c #758C75",
"~.	c #059805",
"{.	c #05B805",
"].	c #05B605",
"^.	c #708F70",
"/.	c #108410",
"(.	c #03B603",
"_.	c #0B7E0B",
":.	c #307530",
"<.	c #03A903",
"[.	c #6F7D6F",
"                                                                ",
"                                              .                 ",
"                                            + @ #               ",
"                                            $ % & +             ",
"                                            * = = - +           ",
"                                          ; > , , , '           ",
"                                          ) ! ! ! ! ! ~         ",
"                                        + { ] ] ] ] ] ^ +       ",
"                                        / ( ( ( ( ( _ :         ",
"                                        < [ [ [ [ [ }           ",
"                                      + | 1 1 1 1 2 3           ",
"                                      4 5 5 5 5 5 6             ",
"                                      7 8 8 8 8 9 +             ",
"                                    0 a b b b b c               ",
"                                    d e e e e f +               ",
"            +                     + g h h h h i                 ",
"        j k l m n                 o p p p p q +                 ",
"      + r s s s r +               t s s s s u                   ",
"      v w w w w w x             y z w w w A +                   ",
"      B C D D D D E F           G D D D D H                     ",
"        I J J J J J K +         L J J J M                       ",
"        + N O O O O O P +     Q O O O O R                       ",
"          + S T T T T T U V   W T T T X                         ",
"            + Y Z Z Z Z Z `  ...Z Z +.@.                        ",
"              + #.$.$.$.$.$.$.$.$.$.%.                          ",
"                  &.*.=.=.=.=.=.=.-.;.                          ",
"                    >.,.'.'.'.'.'.).                            ",
"                      !.~.{.{.{.].^.                            ",
"                        + /.(.(._.                              ",
"                            :.<.+                               ",
"                              [.                                ",
"                                                                "};
