/* XPM */
static char * ulf_24_ja_xpm[] = {
"24 24 96 2",
"  	c None",
". 	c #99AB99",
"+ 	c #5BA85B",
"@ 	c #28B628",
"# 	c #1CC41C",
"$ 	c #21F921",
"% 	c #39A939",
"& 	c #7FA87F",
"* 	c #1FF51F",
"= 	c #1FF41F",
"- 	c #4C984C",
"; 	c #29AB29",
"> 	c #1EF21E",
", 	c #1DEB1D",
"' 	c #6B9A6B",
") 	c #A2B1A2",
"! 	c #1BE61B",
"~ 	c #1CEF1C",
"{ 	c #17BA17",
"] 	c #419F41",
"^ 	c #1BEB1B",
"/ 	c #1BEA1B",
"( 	c #699C69",
"_ 	c #16CA16",
": 	c #19E819",
"< 	c #25AA25",
"[ 	c #62A062",
"} 	c #18E418",
"| 	c #17D817",
"1 	c #9CB19C",
"2 	c #17A917",
"3 	c #16E116",
"4 	c #399539",
"5 	c #88A588",
"6 	c #15DC15",
"7 	c #15DD15",
"8 	c #13C013",
"9 	c #68A368",
"0 	c #58A358",
"a 	c #2A972A",
"b 	c #13DA13",
"c 	c #589658",
"d 	c #16A616",
"e 	c #12D612",
"f 	c #13B013",
"g 	c #ADB6AD",
"h 	c #11C911",
"i 	c #14A514",
"j 	c #78A178",
"k 	c #10D310",
"l 	c #309630",
"m 	c #10D110",
"n 	c #7A9E7A",
"o 	c #99AC99",
"p 	c #0FCB0F",
"q 	c #0FCF0F",
"r 	c #779C77",
"s 	c #0DA70D",
"t 	c #1D921D",
"u 	c #358E35",
"v 	c #0DCC0D",
"w 	c #0DAA0D",
"x 	c #759D75",
"y 	c #0CC10C",
"z 	c #96A796",
"A 	c #219121",
"B 	c #0CC80C",
"C 	c #159F15",
"D 	c #A4B4A4",
"E 	c #179217",
"F 	c #308E30",
"G 	c #1F8E1F",
"H 	c #0AC50A",
"I 	c #09B509",
"J 	c #1B811B",
"K 	c #0AC10A",
"L 	c #09B309",
"M 	c #2E862E",
"N 	c #09C109",
"O 	c #09C209",
"P 	c #468F46",
"Q 	c #458445",
"R 	c #07B807",
"S 	c #07BE07",
"T 	c #089D08",
"U 	c #668E66",
"V 	c #05A905",
"W 	c #06BB06",
"X 	c #5C8F5C",
"Y 	c #0C950C",
"Z 	c #04B704",
"` 	c #0C910C",
" .	c #268626",
"..	c #03B203",
"+.	c #789D78",
"@.	c #638463",
"                                  . .           ",
"                                  + @           ",
"                                  # $ %         ",
"                                & * * = -       ",
"                                ; > > > , '     ",
"                              ) ! ~ ~ ~ ~ { .   ",
"                              ] ^ ^ ^ ^ / (     ",
"                            . _ : : : : <       ",
"                            [ } } } } | 1       ",
"                            2 3 3 3 3 4         ",
"                          5 6 7 7 7 8 .         ",
"      9 0 .               a b b b b c           ",
"    d e e f .           g h e e e i             ",
"  j k k k k l           - k k k m n             ",
"  o p q q q p r         s q q q t               ",
"    u v v v v w .     x v v v y z               ",
"      A B B B B C D   E B B B F                 ",
"        G H H H H I J K H H L .                 ",
"          M N O O O O O O O P                   ",
"            Q R S S S S S T                     ",
"              U V W W W W X                     ",
"                . Y Z Z `                       ",
"                     ...+.                      ",
"                      @.                        "};
