/* XPM */
static char * ulf_24_anleitung_xpm[] = {
"24 24 222 2",
"  	c None",
". 	c #060602",
"+ 	c #DEDE22",
"@ 	c #A6AA1E",
"# 	c #82821E",
"$ 	c #8A0A06",
"% 	c #6E6A0E",
"& 	c #666606",
"* 	c #AA3E26",
"= 	c #565A0E",
"- 	c #1A1606",
"; 	c #6E2A1A",
"> 	c #5A560E",
", 	c #360E0E",
"' 	c #9A1A0E",
") 	c #A22A1A",
"! 	c #B2B61A",
"~ 	c #3E3E0A",
"{ 	c #4A1212",
"] 	c #F2F246",
"^ 	c #A2A232",
"/ 	c #C23E26",
"( 	c #BEBE2E",
"_ 	c #4E1612",
": 	c #B22E1A",
"< 	c #DE5636",
"[ 	c #969616",
"} 	c #EEEE42",
"| 	c #521A16",
"1 	c #CACA12",
"2 	c #A23A22",
"3 	c #C64A2E",
"4 	c #E6E632",
"5 	c #7E7E16",
"6 	c #5A1A12",
"7 	c #363202",
"8 	c #CACA3A",
"9 	c #868A0E",
"0 	c #B23622",
"a 	c #9E3622",
"b 	c #D2D20A",
"c 	c #868A26",
"d 	c #9E321E",
"e 	c #1E1E06",
"f 	c #0A0A02",
"g 	c #5E1E12",
"h 	c #CA4E32",
"i 	c #96160E",
"j 	c #D6D612",
"k 	c #B63222",
"l 	c #6A2A1A",
"m 	c #A22216",
"n 	c #FAFA56",
"o 	c #C63E2A",
"p 	c #E2E232",
"q 	c #B63A26",
"r 	c #D2D232",
"s 	c #E6E646",
"t 	c #4E4E0E",
"u 	c #622216",
"v 	c #AE422A",
"w 	c #8E0E0A",
"x 	c #969622",
"y 	c #6E6E0A",
"z 	c #262606",
"A 	c #121202",
"B 	c #66661E",
"C 	c #D6D636",
"D 	c #AA2616",
"E 	c #CACA32",
"F 	c #D24A2E",
"G 	c #A62E1E",
"H 	c #6E6E1A",
"I 	c #9A9E1A",
"J 	c #420E0E",
"K 	c #AA321E",
"L 	c #F2F24A",
"M 	c #626216",
"N 	c #E2E226",
"O 	c #EAEA36",
"P 	c #BA3622",
"Q 	c #CA422A",
"R 	c #D64E32",
"S 	c #B6B21E",
"T 	c #62261A",
"U 	c #DAD626",
"V 	c #B63E26",
"W 	c #4A1E16",
"X 	c #AE3622",
"Y 	c #BE3A26",
"Z 	c #565A1E",
"` 	c #9E9E2E",
" .	c #A21E12",
"..	c #C2462A",
"+.	c #92920E",
"@.	c #B2B62E",
"#.	c #92120A",
"$.	c #92922E",
"%.	c #929222",
"&.	c #F6F652",
"*.	c #CECE1E",
"=.	c #82822A",
"-.	c #9E1E12",
";.	c #AE2A1A",
">.	c #6A6A06",
",.	c #DADA16",
"'.	c #E2E22A",
").	c #A6A63A",
"!.	c #767216",
"~.	c #322E0A",
"{.	c #AEB232",
"].	c #BEBA16",
"^.	c #E25A3A",
"/.	c #161A06",
"(.	c #CE462E",
"_.	c #DA5232",
":.	c #6E6E12",
"<.	c #8A8A2E",
"[.	c #B62E1E",
"}.	c #EEEE4E",
"|.	c #EAEA3E",
"1.	c #AAA636",
"2.	c #662216",
"3.	c #DADE2E",
"4.	c #BABE3E",
"5.	c #DEE242",
"6.	c #726E1A",
"7.	c #42120E",
"8.	c #BE3622",
"9.	c #5E5A12",
"0.	c #9E1A12",
"a.	c #A62216",
"b.	c #6A261A",
"c.	c #5E5E26",
"d.	c #96120E",
"e.	c #8A862A",
"f.	c #4E1A16",
"g.	c #521E16",
"h.	c #920E0A",
"i.	c #C23A26",
"j.	c #D2D216",
"k.	c #868626",
"l.	c #DADA1E",
"m.	c #727212",
"n.	c #96962A",
"o.	c #72721A",
"p.	c #E2E22E",
"q.	c #4A1612",
"r.	c #86862A",
"s.	c #6E2E1E",
"t.	c #BE422A",
"u.	c #B2462A",
"v.	c #BA422A",
"w.	c #DEDE26",
"x.	c #E25636",
"y.	c #726E16",
"z.	c #FAFA5A",
"A.	c #6A6A0A",
"B.	c #EAEA3A",
"C.	c #929216",
"D.	c #E6E636",
"E.	c #76721E",
"F.	c #565616",
"G.	c #EEEE46",
"H.	c #62621E",
"I.	c #AAAE26",
"J.	c #561E16",
"K.	c #B23A26",
"L.	c #2A2A0E",
"M.	c #161606",
"N.	c #6A6A1A",
"O.	c #D6DA3E",
"P.	c #B22E1E",
"Q.	c #6A6606",
"R.	c #662616",
"S.	c #46120E",
"T.	c #828226",
"U.	c #7E7E1E",
"V.	c #4E4E16",
"W.	c #AA261A",
"X.	c #B2B226",
"Y.	c #A6A642",
"Z.	c #8A8A36",
"`.	c #A63A26",
" +	c #E65A3A",
".+	c #F6F656",
"++	c #F2F24E",
"@+	c #DADA1A",
"#+	c #A23622",
"$+	c #EAE646",
"%+	c #CECA32",
"&+	c #AA2E1E",
"*+	c #460E0E",
"=+	c #AE3222",
"-+	c #BA3E2A",
";+	c #9A962E",
">+	c #5A5616",
",+	c #D6D616",
"'+	c #929212",
")+	c #DA5236",
"!+	c #828222",
"~+	c #7E7E1A",
"{+	c #5E1E16",
"]+	c #6E6E0E",
"^+	c #8A8A32",
"/+	c #DEDE2A",
"(+	c #6E6A12",
"_+	c #A2A236",
":+	c #D2D20E",
"<+	c #9E9E32",
"[+	c #A6A63E",
"}+	c #6E6E16",
"|+	c #86862E",
"1+	c #FAFA5E",
"2+	c #6A6A0E",
"3+	c #6A660A",
"4+	c #66261A",
"5+	c #461212",
"6+	c #6E2A1E",
"7+	c #9E3222",
"8+	c #C2462E",
"9+	c #72721E",
"    T s.6+; l l b.4+R.R.2.u u u {+g g g 6 7.    ",
"    2. +^.x.u.v v * * `.`.2 #+a 7+d i.Y 8.2.    ",
"    2.^.x.h c.Y.[+[+)._+_+^ <+` ` V.Y 8.P 2.    ",
"    2.x.< 3 Z.1+z.n .+e.4.L ] G.} E.8.P k 2.    ",
"    2.< )+3 ^+z.n .+}.- Z ] G.} |.E.P k [.2.    ",
"    2.)+_.8+^+n .+&.1.$.f 5.} |.B.9+k [.P.2.    ",
"    2._.R ..^+.+&.++=.$+e c |.B.O o.[.P.: 2.    ",
"    2.R R t.<.&.++s B n.>+L.B.O D.6.P.: ;.2.    ",
"    2.R F v.|+++L ;+O.} C . @.D.4 y.: ;.W.2.    ",
"    2.F (.-+r.L 8 H.{.|.( F.N.3.p.y.;.W.D 2.    ",
"    2.(.(.V r.] G.} |.B.O D.4 p.'.}+W.D a.2.    ",
"    2.(.Q q k.G.} |.%+H x 4 p.'.N :.D a.m 2.    ",
"    2.Q Q K.T.} |.B.r %.I.p.'.N w.(+a.m  .2.    ",
"    2.Q o 0 !+|.B.E p 4 p.'.N w.+ % m  .-.2.    ",
"    2.o / X !+B.O M M ~+9.M.@ + l.%  .-.0.2.    ",
"    2./ i.=+!+O D.X.p./+~.t + l.@+2+-.0.' 2.    ",
"    2.i.Y K # D.4 p.'.!./.*.l.@+,.A.0.' i 2.    ",
"    2.Y 8.&+U.4 p.'.S . I l.@+,.,+3+' i d.2.    ",
"    2.8.P G ~+p.'.U z = l.@+j.,+j Q.i d.#.2.    ",
"    2.P k ) ~+'.N > A ! ].'+9 j :+Q.d.#.h.2.    ",
"    2.k [.) 5 N w.C.[ '++.+.1 :+b & #.h.w 2.    ",
"    2.[.P.) ~ m.:.]+]+]+y A.>.>.>.7 h.w $ 2.    ",
"    2.P.: ;.W.D a.m  .-.0.' i d.#.h.w $ $ 2.    ",
"    W J.g.g.| | f.f._ _ q.q.q.{ 5+S.S.*+J ,     "};
