/* XPM */
static char * ulf_24_editieren_xpm[] = {
"24 24 178 2",
"  	c None",
". 	c #838383",
"+ 	c #7C7C7C",
"@ 	c #3C3C3C",
"# 	c #CDCDCD",
"$ 	c #CCCCCD",
"% 	c #CBCBCD",
"& 	c #CACACD",
"* 	c #C9C9CD",
"= 	c #C8C8CD",
"- 	c #C7C7CD",
"; 	c #C6C6CD",
"> 	c #C5C5CD",
", 	c #C4C4CD",
"' 	c #8D8D94",
") 	c #929292",
"! 	c #4B4B4B",
"~ 	c #FFFFFF",
"{ 	c #FEFEFF",
"] 	c #FDFDFF",
"^ 	c #FCFCFF",
"/ 	c #FBFBFF",
"( 	c #FAFAFF",
"_ 	c #F9F9FF",
": 	c #F8F8FF",
"< 	c #F7F7FF",
"[ 	c #F6F6FF",
"} 	c #F5F5FF",
"| 	c #F4F4FF",
"1 	c #F3F3FF",
"2 	c #F2F2FF",
"3 	c #AFAFB8",
"4 	c #4A4A4B",
"5 	c #E7E7E9",
"6 	c #A9A9AB",
"7 	c #A8A8AB",
"8 	c #A7A7AB",
"9 	c #A6A6AB",
"0 	c #A5A5AB",
"a 	c #A4A4AB",
"b 	c #A3A3AB",
"c 	c #B3B3BD",
"d 	c #AEAEB8",
"e 	c #F1F1FF",
"f 	c #ADADB8",
"g 	c #F0F0FF",
"h 	c #E2E2E5",
"i 	c #9C9C9F",
"j 	c #9B9B9F",
"k 	c #9A9A9F",
"l 	c #99999F",
"m 	c #98989F",
"n 	c #97979F",
"o 	c #96969F",
"p 	c #A9A9B3",
"q 	c #EFEFFF",
"r 	c #ACACB8",
"s 	c #EBEBF0",
"t 	c #C3C3C7",
"u 	c #C2C2C7",
"v 	c #C1C1C7",
"w 	c #C0C0C7",
"x 	c #BFBFC7",
"y 	c #BEBEC7",
"z 	c #BDBDC7",
"A 	c #BCBCC7",
"B 	c #BBBBC7",
"C 	c #C6C6D3",
"D 	c #EEEEFF",
"E 	c #49494B",
"F 	c #EFEFF4",
"G 	c #D2D2D7",
"H 	c #D1D1D7",
"I 	c #D0D0D7",
"J 	c #CFCFD7",
"K 	c #CECED7",
"L 	c #CDCDD7",
"M 	c #CCCCD7",
"N 	c #CBCBD7",
"O 	c #CACAD7",
"P 	c #C9C9D7",
"Q 	c #D1D1DF",
"R 	c #ABABB8",
"S 	c #EDEDFF",
"T 	c #E2E2E9",
"U 	c #A2A2AB",
"V 	c #A1A1AB",
"W 	c #A0A0AB",
"X 	c #9F9FAB",
"Y 	c #AFAFBD",
"Z 	c #ECECFF",
"` 	c #9695A1",
" .	c #6B615F",
"..	c #BFBFCE",
"+.	c #5B5663",
"@.	c #A13824",
"#.	c #B13722",
"$.	c #9A8A88",
"%.	c #C0C0CF",
"&.	c #6A6A86",
"*.	c #545494",
"=.	c #5A5AA8",
"-.	c #702926",
";.	c #B5301F",
">.	c #804F4A",
",.	c #48484B",
"'.	c #DDDDE5",
").	c #95959F",
"!.	c #94949F",
"~.	c #6A6A71",
"{.	c #5C5C75",
"].	c #5B5B97",
"^.	c #6B6BBB",
"/.	c #6161B6",
"(.	c #5858B1",
"_.	c #52273D",
":.	c #962115",
"<.	c #7C5F5D",
"[.	c #C1C1CE",
"}.	c #707089",
"|.	c #62629B",
"1.	c #7474C0",
"2.	c #474799",
"3.	c #302436",
"4.	c #797474",
"5.	c #363638",
"6.	c #B7B7BE",
"7.	c #B6B6BE",
"8.	c #B5B5BE",
"9.	c #B4B4BE",
"0.	c #B3B3BE",
"a.	c #B2B2BE",
"b.	c #AAAAB6",
"c.	c #73738B",
"d.	c #69699F",
"e.	c #7D7DC5",
"f.	c #4F4F9E",
"g.	c #2A2A50",
"h.	c #656571",
"i.	c #7C7C88",
"j.	c #8C8C8C",
"k.	c #5C5C5C",
"l.	c #2E2E3F",
"m.	c #6F6FA2",
"n.	c #8686CA",
"o.	c #5757A2",
"p.	c #56567A",
"q.	c #8B8B8E",
"r.	c #7D7D8D",
"s.	c #7878A7",
"t.	c #8F8FD0",
"u.	c #6060A7",
"v.	c #5A5A7C",
"w.	c #B1B1B3",
"x.	c #9C9C86",
"y.	c #5A5A6F",
"z.	c #9999D5",
"A.	c #6868AB",
"B.	c #5E5E7F",
"C.	c #97977A",
"D.	c #CCCC2D",
"E.	c #919122",
"F.	c #7F7FB8",
"G.	c #7070B0",
"H.	c #626281",
"I.	c #6C6C65",
"J.	c #CDCD2D",
"K.	c #E0E028",
"L.	c #AAAA18",
"M.	c #5D5D8C",
"N.	c #656583",
"O.	c #B2B2B4",
"P.	c #545454",
"Q.	c #000000",
"R.	c #84842A",
"S.	c #989848",
"T.	c #929264",
"U.	c #B0B0B0",
". + + + + + + + + + + + + + + + + + + + + +     ",
"@ # # # $ $ % & & * * = = - - ; ; > > , , ' )   ",
"! ~ { ] ] ^ / / ( _ _ : < < [ } } | | 1 2 3 )   ",
"4 { 5 6 6 7 7 7 8 8 9 9 0 0 0 a a b b c 2 d )   ",
"4 ] ] ^ / / ( _ _ : < < [ } } | 1 1 2 2 e f )   ",
"4 ] ^ / / ( _ _ : < < [ } } | | 1 2 2 e g f )   ",
"4 ^ h i i j j j k k l l l m m n n o o p g f )   ",
"4 / / ( _ _ : < < [ } } | | 1 2 2 e g g q r )   ",
"4 / s t u u v v w w x y y y z z A B B C D r )   ",
"E ( F G H I I J J K K L L M N N O O P Q D R )   ",
"E _ _ : < < [ } } | | 1 2 2 e g g q D D S R )   ",
"E _ T 9 0 0 0 a a b b U U U V V W W X Y Z `  .  ",
"E : < < [ } } | | 1 2 2 e g g q D D S ..+.@.#.$.",
"E < < [ } } | 1 1 2 2 e g g q D D %.&.*.=.-.;.>.",
",.< '.l l m m n n o o o ).).!.~.{.].^./.(._.:.<.",
",.[ } } | | 1 2 2 e g g q [.}.|.1.^./.(.2.3.4.  ",
"5.6.7.8.8.8.9.9.0.0.a.b.c.d.e.1.^./.f.g.h.i.)   ",
") j.j.j.j.j.j.j.j.k.l.m.n.e.1.^.o.p.q.j.j.j.    ",
"                r.s.t.n.e.1.u.v.w.              ",
"            x.y.z.t.n.e.A.B.w.                  ",
"          C.D.E.F.n.G.H.w.                      ",
"        I.J.K.L.M.N.O.                          ",
"      P.Q.R.S.T.U.                              ",
"                                                "};
