/* XPM */
static char * ulf_auswahl_16_ja_xpm[] = {
"16 16 71 1",
" 	c None",
".	c #A0B9A0",
"+	c #95BC95",
"@	c #68C468",
"#	c #3CD43C",
"$	c #35DB35",
"%	c #1FF41F",
"&	c #34C934",
"*	c #82C482",
"=	c #1EE61E",
"-	c #1DF01D",
";	c #1CEE1C",
">	c #5CB25C",
",	c #2BC12B",
"'	c #1AEA1A",
")	c #1DDC1D",
"!	c #94B594",
"~	c #17DE17",
"{	c #18E518",
"]	c #18E218",
"^	c #56BE56",
"/	c #4EBE4E",
"(	c #16E016",
"_	c #2CC22C",
":	c #89B489",
"<	c #26C626",
"[	c #14DB14",
"}	c #6CB06C",
"|	c #4ABA4A",
"1	c #12D512",
"2	c #12C412",
"3	c #96B596",
"4	c #63B763",
"5	c #11D211",
"6	c #11D511",
"7	c #2AB32A",
"8	c #39C139",
"9	c #0FD00F",
"0	c #44B644",
"a	c #1CB11C",
"b	c #12C212",
"c	c #83BA83",
"d	c #8EB68E",
"e	c #12BE12",
"f	c #0DCB0D",
"g	c #0DC30D",
"h	c #4DAB4D",
"i	c #80AD80",
"j	c #49B249",
"k	c #6EB56E",
"l	c #10BA10",
"m	c #0BC60B",
"n	c #0DBD0D",
"o	c #47AD47",
"p	c #27AA27",
"q	c #0BBE0B",
"r	c #96B396",
"s	c #8BB38B",
"t	c #16B316",
"u	c #08C008",
"v	c #08C108",
"w	c #08BD08",
"x	c #52AC52",
"y	c #86B186",
"z	c #1BA91B",
"A	c #06BC06",
"B	c #19AF19",
"C	c #3AAA3A",
"D	c #08B008",
"E	c #68AB68",
"F	c #60A060",
"           .+   ",
"           @#   ",
"           $%&  ",
"          *=-;> ",
"          ,'')  ",
"         !~{]^  ",
"         /((_   ",
"  :      <[[}   ",
" |123   4567    ",
" 8990   a9bc    ",
" defgh iffj     ",
"  klmnopmqr     ",
"   stuvvwx      ",
"    yzAAB       ",
"      CDE       ",
"       F        "};
