/* XPM */
static char * ulf_knopfleiste_24_menue_xpm[] = {
"24 24 243 2",
"  	c None",
". 	c #020202",
"+ 	c #0246BA",
"@ 	c #2AB202",
"# 	c #AAAA32",
"$ 	c #2EC602",
"% 	c #268A02",
"& 	c #BABA22",
"* 	c #8ACAFE",
"= 	c #020282",
"- 	c #2E4252",
"; 	c #5A5652",
"> 	c #D6DAC6",
", 	c #02229A",
"' 	c #6A6A6E",
") 	c #062EF2",
"! 	c #E2E2DE",
"~ 	c #0202D6",
"{ 	c #7E72EE",
"] 	c #629A66",
"^ 	c #EEEAE2",
"/ 	c #BABABA",
"( 	c #122A4A",
"_ 	c #6EA2D2",
": 	c #4A4AAA",
"< 	c #A2A29E",
"[ 	c #0202BE",
"} 	c #32229E",
"| 	c #626282",
"1 	c #4E7AA2",
"2 	c #CAC6B2",
"3 	c #6A9A5E",
"4 	c #EEF2F2",
"5 	c #02169A",
"6 	c #6E6E32",
"7 	c #025EFE",
"8 	c #B6A6EE",
"9 	c #6A6A9A",
"0 	c #9E5A02",
"a 	c #767A7A",
"b 	c #B6B69A",
"c 	c #92927A",
"d 	c #0E0AEA",
"e 	c #0202AA",
"f 	c #262276",
"g 	c #8E86D6",
"h 	c #063AF2",
"i 	c #C6BEEE",
"j 	c #92A6BA",
"k 	c #7676B2",
"l 	c #DAD2F6",
"m 	c #EAFEFE",
"n 	c #0256FE",
"o 	c #3A3AC2",
"p 	c #1E0EBE",
"q 	c #9692BA",
"r 	c #021ECE",
"s 	c #321ED6",
"t 	c #023EF6",
"u 	c #D6D6BE",
"v 	c #1E0EBA",
"w 	c #36366A",
"x 	c #8E8E76",
"y 	c #0A22EE",
"z 	c #8E86D2",
"A 	c #8EA2AE",
"B 	c #52523A",
"C 	c #665AC6",
"D 	c #26227E",
"E 	c #163EF2",
"F 	c #0202A2",
"G 	c #AA9696",
"H 	c #AEAEAE",
"I 	c #9E96D6",
"J 	c #C6BEEA",
"K 	c #6252E6",
"L 	c #8A8A9A",
"M 	c #1A32EA",
"N 	c #827E82",
"O 	c #FAF6F6",
"P 	c #1A02CA",
"Q 	c #92927E",
"R 	c #1E22E6",
"S 	c #96B696",
"T 	c #0212AA",
"U 	c #1A1A7A",
"V 	c #0E02E2",
"W 	c #DADADA",
"X 	c #2E2E66",
"Y 	c #160A8E",
"Z 	c #124AEE",
"` 	c #0E12EA",
" .	c #869E86",
"..	c #0212A2",
"+.	c #32326A",
"@.	c #2A2286",
"#.	c #1E1AEA",
"$.	c #9A9A9A",
"%.	c #525262",
"&.	c #8A8A72",
"*.	c #02028E",
"=.	c #1A36EA",
"-.	c #CACACA",
";.	c #92969E",
">.	c #FAFAF2",
",.	c #B6B6A2",
"'.	c #AAAAA6",
").	c #CED2C2",
"!.	c #02269E",
"~.	c #C2C2B6",
"{.	c #1252EE",
"].	c #7E8286",
"^.	c #92928E",
"/.	c #C6C2BE",
"(.	c #125AFA",
"_.	c #8E8E7E",
":.	c #82828A",
"<.	c #FEFEF6",
"[.	c #D6D2D2",
"}.	c #AEB2B6",
"|.	c #524AC2",
"1.	c #2E228E",
"2.	c #020AAA",
"3.	c #0202CA",
"4.	c #AAA2A2",
"5.	c #C2C6C6",
"6.	c #1A02EA",
"7.	c #1616F6",
"8.	c #9A9E9E",
"9.	c #8A8A8A",
"0.	c #1A26E6",
"a.	c #022A9E",
"b.	c #0246F6",
"c.	c #4636D2",
"d.	c #AA9EE2",
"e.	c #BAC2C6",
"f.	c #1646EE",
"g.	c #0A1AEE",
"h.	c #02029E",
"i.	c #E6E2DE",
"j.	c #F2EEEE",
"k.	c #A6A6A6",
"l.	c #928E8A",
"m.	c #9E9EAE",
"n.	c #BEBEBE",
"o.	c #B2B2B2",
"p.	c #3622A6",
"q.	c #322296",
"r.	c #969696",
"s.	c #A6A2A2",
"t.	c #F6F2EE",
"u.	c #4236BE",
"v.	c #96A2A2",
"w.	c #8A8686",
"x.	c #CAC6C2",
"y.	c #DEDEDE",
"z.	c #868686",
"A.	c #1A2AE6",
"B.	c #B6B6AA",
"C.	c #BEC2C2",
"D.	c #EAEAEA",
"E.	c #1252FA",
"F.	c #0202E2",
"G.	c #D6D6D6",
"H.	c #FEFEFE",
"I.	c #C2BEBE",
"J.	c #021A9A",
"K.	c #1642EE",
"L.	c #0206A6",
"M.	c #164EF6",
"N.	c #163AEA",
"O.	c #022E9E",
"P.	c #EAE6DE",
"Q.	c #EAEEEE",
"R.	c #020296",
"S.	c #020286",
"T.	c #0202B2",
"U.	c #F6FAFA",
"V.	c #BEBEC6",
"W.	c #E2E2E6",
"X.	c #5A5A5A",
"Y.	c #0632F2",
"Z.	c #B2AAE6",
"`.	c #8A8AD6",
" +	c #1E12B6",
".+	c #0A26EE",
"++	c #8E8E92",
"@+	c #0A16EA",
"#+	c #1256F2",
"$+	c #0E5EFA",
"%+	c #AAA6A2",
"&+	c #060292",
"*+	c #F2F2F2",
"=+	c #06028A",
"-+	c #BEBAC2",
";+	c #A2A2A6",
">+	c #0E02EA",
",+	c #164AF6",
"'+	c #A6AAAE",
")+	c #0202D2",
"!+	c #1E26EE",
"~+	c #0246FE",
"{+	c #1A2AEE",
"]+	c #1642F6",
"^+	c #1A3AF2",
"/+	c #022EA6",
"(+	c #E6E6E6",
"_+	c #DADAC2",
":+	c #36229E",
"<+	c #2A2282",
"[+	c #B2AEB2",
"}+	c #FAFAF6",
"|+	c #DED2F6",
"1+	c #220EC2",
"2+	c #DEDADA",
"3+	c #C6C6C6",
"4+	c #9E9EA2",
"5+	c #020292",
"6+	c #A2A2A2",
"7+	c #0202AE",
"8+	c #929292",
"9+	c #2E2292",
"0+	c #BEBEC2",
"a+	c #02028A",
"b+	c #0202C2",
"c+	c #26227A",
"d+	c #C6BEF2",
"e+	c #0202A6",
"f+	c #1A32EE",
"g+	c #2A228A",
"h+	c #C6C2C2",
"i+	c #0202CE",
"j+	c #8A8A8E",
"k+	c #928E8E",
"l+	c #B2B2B6",
"m+	c #3622AA",
"n+	c #32229A",
"o+	c #DEDEE2",
"p+	c #B6B6AE",
"q+	c #C2BEC2",
"r+	c #DADAC6",
"s+	c #3622A2",
"t+	c #FAFAFA",
"                                                ",
"| +.w X < z.z.z.z.z.z.z.z.z.z.z.z.z.            ",
"f S.S.= $.6 B o+U.H.H.H.H.H.H.H.H.z.  . . . . . ",
"c+*.=+a+^.# & l+n.s.a r.'.8+k+I.++z.    . . .   ",
"D 5+&+5+B.:.V.H.H.H.H.H.H.H.H.H.H.z.      .     ",
"D R.5+5+_.m ;.*+G.y.*+2+W.! G.j.'+z.            ",
"<+`.I R.Q j v.t.3+/ 0+G.6+[.;+}+W.z.            ",
"@.|.z h.b k 9 H.H.H.H.H.H.H.H.H.H.z.            ",
"g+u.C F x 7.o ~.n.[+6+k.[+h+5.H.X.z.            ",
"1. +g e+c : U ^ Q.*+D.D.(+t+q+H.H.z.            ",
"1.v d.e r+>.A H.H.H.H.H.H.H.H.H.W z.            ",
"9+p J 7+).G 1 i.w.4+s.].o.H.H.O 8.z.            ",
"q.1+Z.T.> H.H.H.H.H.H.H.H.H.H.H.H.z.            ",
"n+c.i [ 2 - ( P.H.H.H.H.H.H.H.H.H.z.            ",
"} P l b+&.+ r %+r.4.6+k.j+H.H.H.H.z.            ",
":+s 8 3.u ' %.<.H.*+4 H.H.H.H.H.H.z.            ",
"s+K d+i+_+-.e.G.H.H.H.H.H.H.H.H.H.z.            ",
"p.{ |+~ ,._ * }.$.s.z.N H l.C.H.H.z.            ",
"m+6.V F.p+x./.H.H.H.H.H.H.H.H.H.H.z.            ",
"z.S S S S 8+S 9.; /+O.a.!., J.5 5 ..T 2.L.e 5+L ",
"z.@ % $ % $ @ @ S 7 $+(.E.M.,+]+E ^+f+{+!+$.    ",
"z.3 0 @ @ % @ % S n #+{.Z f.K.N.=.M A.0.R #.)+m.",
"z.%  .$ % $ ] % S ~+b.t h Y.) .+y g.@+` d >+Y   ",
"z.z.z.z.z.z.z.z.z.z.z.z.z.z.z.z.z.z.z.z.z.z.q -+"};
