/* XPM */
static char * ulf_zipfel_24_lernschema_xpm[] = {
"24 24 113 2",
"  	c None",
". 	c #0D3131",
"+ 	c #164747",
"@ 	c #198989",
"# 	c #188787",
"$ 	c #178585",
"% 	c #168282",
"& 	c #157F7F",
"* 	c #198A8A",
"= 	c #188888",
"- 	c #188686",
"; 	c #168383",
"> 	c #158080",
", 	c #147D7D",
"' 	c #154646",
") 	c #137B7B",
"! 	c #154545",
"~ 	c #127878",
"{ 	c #144444",
"] 	c #5BADAE",
"^ 	c #8EC5C4",
"/ 	c #5FA9AA",
"( 	c #85BBBA",
"_ 	c #117575",
": 	c #144242",
"< 	c #3F9E9E",
"[ 	c #9CCDCE",
"} 	c #FCFEFE",
"| 	c #FAFAF8",
"1 	c #409A9B",
"2 	c #A1CDCE",
"3 	c #FEFEFF",
"4 	c #EEF3F1",
"5 	c #107272",
"6 	c #134141",
"7 	c #B3D9DB",
"8 	c #FAFDFD",
"9 	c #FFFFFF",
"0 	c #81C0C2",
"a 	c #F3F9F9",
"b 	c #5EABAA",
"c 	c #E1F1F3",
"d 	c #EDF5F4",
"e 	c #1E8887",
"f 	c #BCDCDE",
"g 	c #FBFDFD",
"h 	c #EEF3F0",
"i 	c #0F7070",
"j 	c #134040",
"k 	c #58ACAE",
"l 	c #49A4A6",
"m 	c #A6D1D1",
"n 	c #C6DFDD",
"o 	c #60A8AA",
"p 	c #EEF2F0",
"q 	c #0E6D6D",
"r 	c #123E3E",
"s 	c #4CA5A7",
"t 	c #1B8C8C",
"u 	c #EEF7F9",
"v 	c #F2F8F8",
"w 	c #8BBEBC",
"x 	c #529EA1",
"y 	c #0D6A6A",
"z 	c #123D3D",
"A 	c #C1E1E3",
"B 	c #5FA6A4",
"C 	c #519C9F",
"D 	c #EEF2EF",
"E 	c #0C6767",
"F 	c #113C3C",
"G 	c #EBF6F8",
"H 	c #FDFEFE",
"I 	c #92C0BE",
"J 	c #519A9D",
"K 	c #0B6565",
"L 	c #113B3B",
"M 	c #3F9C9E",
"N 	c #C2DDDE",
"O 	c #D4E4E2",
"P 	c #50989B",
"Q 	c #EEF1EF",
"R 	c #0A6262",
"S 	c #103939",
"T 	c #78B9BB",
"U 	c #6FAEAD",
"V 	c #F6FBFC",
"W 	c #FEFEFE",
"X 	c #2A817F",
"Y 	c #4F9699",
"Z 	c #095F5F",
"` 	c #103838",
" .	c #259191",
"..	c #50A6A6",
"+.	c #4EA3A3",
"@.	c #369292",
"#.	c #4C9C9C",
"$.	c #218281",
"%.	c #429394",
"&.	c #4A9696",
"*.	c #207B7A",
"=.	c #1C7475",
"-.	c #468B8B",
";.	c #418685",
">.	c #075C5C",
",.	c #0F3737",
"'.	c #075A5A",
").	c #0F3535",
"!.	c #055757",
"~.	c #0E3434",
"{.	c #045454",
"].	c #0E3333",
"^.	c #035151",
"                                                ",
"                                                ",
". . . . . . . . . . . . . . . . . . . . . . . . ",
"+ @ @ @ @ @ @ @ @ @ @ @ @ @ @ @ @ @ @ # $ % & + ",
"+ * * * * * * * * * * * * * * * * * = - ; > , ' ",
"+ * * * * * * * * * * * * * * * * = - ; > , ) ! ",
"+ * * * * * * * * * * * * * * * = - ; > , ) ~ { ",
"+ * * * * ] ^ * * * * * * * * = - ; / ( ) ~ _ : ",
"+ * * < [ } | * * * * * * * = - 1 2 3 4 ~ _ 5 6 ",
"+ * * 7 8 9 | * * 0 a b c d e ; f g 9 h _ 5 i j ",
"+ * * * k 9 | * * l 9 m 9 n ; > , o 9 p 5 i q r ",
"+ * * * s 9 | * * t u v 9 w > , ) x 9 p i q y z ",
"+ * * * s 9 | * * * A 9 9 B , ) ~ C 9 D q y E F ",
"+ * * * s 9 | * * @ G H 9 I ) ~ _ J 9 D y E K L ",
"+ * * * s 9 | * = M 9 N 9 O ~ _ 5 P 9 Q E K R S ",
"+ * * * s 9 | = - T 9 U V W X 5 i Y 9 Q K R Z ` ",
"+ * * *  ...+.- ; @.#.$.%.&.*.i q =.-.;.R Z >.,.",
"+ * * * * = - ; > , ) ~ _ 5 i q y E K R Z >.'.).",
"+ * * * = - ; > , ) ~ _ 5 i q y E K R Z >.'.!.~.",
"+ * * = - ; > , ) ~ _ 5 i q y E K R Z >.'.!.{.].",
"+ * = - ; > , ) ~ _ 5 i q y E K R Z >.'.!.{.^.. ",
". . . . . . . . . . . . . . . . . . . . . . . . ",
"                                                ",
"                                                "};
