/* XPM */
static char * ulf_statusleiste_16_npczulassen_xpm[] = {
"16 16 85 1",
" 	c None",
".	c #9C9C9C",
"+	c #8F8F8F",
"@	c #7D7D7D",
"#	c #404040",
"$	c #1D1D1D",
"%	c #0D1216",
"&	c #394C5F",
"*	c #36485A",
"=	c #080B0D",
"-	c #232323",
";	c #3E3E3E",
">	c #858585",
",	c #494949",
"'	c #BEBEBE",
")	c #D7D7D7",
"!	c #2D3843",
"~	c #8EBDEC",
"{	c #99CCFF",
"]	c #86B2DF",
"^	c #2B3239",
"/	c #E2E2E2",
"(	c #AAAAAA",
"_	c #A5A5A5",
":	c #717171",
"<	c #FFFFFF",
"[	c #606060",
"}	c #7EA8D2",
"|	c #8AB8E6",
"1	c #3B4F62",
"2	c #43596F",
"3	c #92C3F4",
"4	c #6C91B5",
"5	c #7E7E7E",
"6	c #FAFAFA",
"7	c #575757",
"8	c #B7B7B7",
"9	c #414141",
"0	c #FDFDFD",
"a	c #353B41",
"b	c #000000",
"c	c #4C667F",
"d	c #97C9FB",
"e	c #424446",
"f	c #EEEEEE",
"g	c #4B4B4B",
"h	c #3F3F3F",
"i	c #343B41",
"j	c #304051",
"k	c #445B72",
"l	c #97CAFC",
"m	c #F1F1F1",
"n	c #484848",
"o	c #999999",
"p	c #7A7A7A",
"q	c #5D5D5D",
"r	c #7FAAD4",
"s	c #7CA6CF",
"t	c #1E2832",
"u	c #25313E",
"v	c #88B5E3",
"w	c #6F94B9",
"x	c #7C7C7C",
"y	c #5E5E5E",
"z	c #B5B5B5",
"A	c #8A8A8A",
"B	c #4C4C4C",
"C	c #BDBDBD",
"D	c #D5D5D5",
"E	c #2E3A46",
"F	c #91C1F1",
"G	c #8AB7E5",
"H	c #2A333A",
"I	c #E5E5E5",
"J	c #B0B0B0",
"K	c #A4A4A4",
"L	c #787878",
"M	c #424242",
"N	c #1C1C1C",
"O	c #0E1318",
"P	c #3E5368",
"Q	c #3A4E61",
"R	c #090D10",
"S	c #252525",
"T	c #7F7F7F",
"                ",
"                ",
"                ",
"      .++.      ",
"   @#$%&*=-;>   ",
" +,')!~{{]^/(#_ ",
".:<<[}|12345<678",
"90<<a{&bbcde<<fg",
"h0<<i{jbbkle<<mn",
"op<<qrstuvwx<6yz",
" ABCDEF{{GHIJhK ",
"   LMNOPQRSnT   ",
"      .++.      ",
"                ",
"                ",
"                "};
