/* XPM */
static char * ulf_notebook_24_verlernen_xpm[] = {
"24 24 92 2",
"  	c None",
". 	c #433A36",
"+ 	c #4F3E36",
"@ 	c #503D36",
"# 	c #463A36",
"$ 	c #C6C6C6",
"% 	c #5E1F00",
"& 	c #C23D00",
"* 	c #C43B00",
"= 	c #C73800",
"- 	c #711F00",
"; 	c #B6B6B6",
"> 	c #4E1800",
", 	c #C93600",
"' 	c #661A00",
") 	c #451806",
"! 	c #C63900",
"~ 	c #CB3400",
"{ 	c #591600",
"] 	c #482517",
"^ 	c #CD3200",
"/ 	c #4D1200",
"( 	c #4D362E",
"_ 	c #CF3000",
": 	c #410E00",
"< 	c #524641",
"[ 	c #D22D00",
"} 	c #3D1409",
"| 	c #575655",
"1 	c #CE2F00",
"2 	c #D42B00",
"3 	c #3F2018",
"4 	c #6B6B6B",
"5 	c #C02900",
"6 	c #D62900",
"7 	c #422D28",
"8 	c #808080",
"9 	c #B22400",
"0 	c #D82700",
"a 	c #453C3A",
"b 	c #939393",
"c 	c #A31F00",
"d 	c #D82400",
"e 	c #4A4A4A",
"f 	c #9B9B9B",
"g 	c #575656",
"h 	c #393838",
"i 	c #9B1B00",
"j 	c #DB2400",
"k 	c #CF2000",
"l 	c #282828",
"m 	c #747474",
"n 	c #C1C1C1",
"o 	c #641500",
"p 	c #DD2200",
"q 	c #DF2000",
"r 	c #C91A00",
"s 	c #CA1800",
"t 	c #CA1600",
"u 	c #311815",
"v 	c #5B5554",
"w 	c #BC2200",
"x 	c #E11E00",
"y 	c #E41B00",
"z 	c #E61900",
"A 	c #980F00",
"B 	c #898989",
"C 	c #4F1307",
"D 	c #E71700",
"E 	c #3B1915",
"F 	c #777777",
"G 	c #A91800",
"H 	c #E81700",
"I 	c #A00F00",
"J 	c #421C16",
"K 	c #E21B00",
"L 	c #E91500",
"M 	c #421915",
"N 	c #989898",
"O 	c #8D0F00",
"P 	c #EA1500",
"Q 	c #A20D00",
"R 	c #44312E",
"S 	c #DE1400",
"T 	c #EC1200",
"U 	c #481915",
"V 	c #BBBBBB",
"W 	c #700900",
"X 	c #AA0C00",
"Y 	c #554E4D",
"Z 	c #3D1815",
"` 	c #A7A7A7",
"                                                ",
"                  . + + @ # $                   ",
"                  % & * = - ;                   ",
"                  > * = , ' $                   ",
"                  ) ! , ~ {                     ",
"                  ] , ~ ^ /                     ",
"                  ( ~ ^ _ :                     ",
"                  < ^ _ [ }                     ",
"                  | 1 [ 2 3                     ",
"                  4 5 2 6 7                     ",
"                  8 9 6 0 a                     ",
"                  b c 0 d e                     ",
"            f g g h i j k l m m m               ",
"            n o 6 0 j p q r s t u               ",
"              v w j p q x y z A B               ",
"                C p q x y z D E                 ",
"                F G x y z H I B                 ",
"                  J K z H L M                   ",
"                  N O H P Q B                   ",
"                    R S T U                     ",
"                    V W X B                     ",
"                      Y Z                       ",
"                        `                       ",
"                                                "};
