/* XPM */
static char * ulf_24_speichern_xpm[] = {
"24 24 210 2",
"  	c None",
". 	c #98A4A8",
"+ 	c #3682A0",
"@ 	c #3681A0",
"# 	c #4F6873",
"$ 	c #6C7B93",
"% 	c #5A6773",
"& 	c #366EA0",
"* 	c #366DA0",
"= 	c #8F979F",
"- 	c #00B0F9",
"; 	c #00AEF9",
"> 	c #3D7893",
", 	c #FFFFFF",
"' 	c #587793",
") 	c #0080F9",
"! 	c #007FFA",
"~ 	c #6C8093",
"{ 	c #2D6881",
"] 	c #31667E",
"^ 	c #FCFCFC",
"/ 	c #F7F7F7",
"( 	c #FAFAFA",
"_ 	c #587693",
": 	c #3C5770",
"< 	c #275889",
"[ 	c #6C7F93",
"} 	c #0081BC",
"| 	c #007EBA",
"1 	c #3D7793",
"2 	c #D9D9D9",
"3 	c #A9A9A9",
"4 	c #CCCCCC",
"5 	c #587593",
"6 	c #0259B1",
"7 	c #015FC3",
"8 	c #00ADFF",
"9 	c #00ABFF",
"0 	c #3D7693",
"a 	c #007CFF",
"b 	c #007AFF",
"c 	c #6C7E93",
"d 	c #00A8FF",
"e 	c #3D7593",
"f 	c #587493",
"g 	c #0077FF",
"h 	c #00A6FF",
"i 	c #3D7493",
"j 	c #D0D0D0",
"k 	c #939393",
"l 	c #BFBFBF",
"m 	c #0075FF",
"n 	c #00A3FF",
"o 	c #3D7393",
"p 	c #587393",
"q 	c #0072FF",
"r 	c #6C7D93",
"s 	c #00A1FF",
"t 	c #0070FF",
"u 	c #009EFF",
"v 	c #3D7293",
"w 	c #D5D5D5",
"x 	c #A0A0A0",
"y 	c #C6C6C6",
"z 	c #587293",
"A 	c #006EFF",
"B 	c #009CFF",
"C 	c #3D7193",
"D 	c #587193",
"E 	c #006BFF",
"F 	c #6C7C93",
"G 	c #0099FF",
"H 	c #35688B",
"I 	c #DDDDDD",
"J 	c #4C6587",
"K 	c #0069FF",
"L 	c #009AFF",
"M 	c #0097FF",
"N 	c #0079D0",
"O 	c #0067B5",
"P 	c #0066B5",
"Q 	c #0064B5",
"R 	c #0062B5",
"S 	c #0060B5",
"T 	c #005FB5",
"U 	c #005DB5",
"V 	c #005BB5",
"W 	c #0059B5",
"X 	c #0058B5",
"Y 	c #0056B5",
"Z 	c #0054B5",
"` 	c #0053B5",
" .	c #0051B5",
"..	c #004FB5",
"+.	c #004DB5",
"@.	c #0054C8",
"#.	c #0066FF",
"$.	c #0095FF",
"%.	c #0092FF",
"&.	c #0090FF",
"*.	c #008DFF",
"=.	c #008BFF",
"-.	c #0088FF",
";.	c #0086FF",
">.	c #0084FF",
",.	c #0081FF",
"'.	c #007FFF",
").	c #0064FF",
"!.	c #0061B4",
"~.	c #005BAC",
"{.	c #0059AC",
"].	c #0057AC",
"^.	c #0056AC",
"/.	c #0054AC",
"(.	c #0053AC",
"_.	c #0051AC",
":.	c #004FAC",
"<.	c #004EAC",
"[.	c #004CAC",
"}.	c #004AAC",
"|.	c #0049AC",
"1.	c #0047AC",
"2.	c #004FC4",
"3.	c #0061FF",
"4.	c #63686D",
"5.	c #B8B8B8",
"6.	c #6A6D77",
"7.	c #4C5573",
"8.	c #4D5473",
"9.	c #565A6B",
"0.	c #757575",
"a.	c #0E1ECA",
"b.	c #111ED5",
"c.	c #121BD4",
"d.	c #072084",
"e.	c #005FFF",
"f.	c #6C7A93",
"g.	c #6D7378",
"h.	c #374984",
"i.	c #063AF9",
"j.	c #0A33F5",
"k.	c #172996",
"l.	c #828282",
"m.	c #111FDF",
"n.	c #141EEB",
"o.	c #151BEA",
"p.	c #081F8B",
"q.	c #005CFF",
"r.	c #384783",
"s.	c #0D2CF2",
"t.	c #192594",
"u.	c #131CDD",
"v.	c #1718E8",
"w.	c #081D8B",
"x.	c #005DFF",
"y.	c #005AFF",
"z.	c #394582",
"A.	c #1125EE",
"B.	c #1B2292",
"C.	c #1419DC",
"D.	c #1815E7",
"E.	c #091C8A",
"F.	c #0058FF",
"G.	c #6C7993",
"H.	c #0083FF",
"I.	c #6D7278",
"J.	c #3A4381",
"K.	c #1D1E90",
"L.	c #1616DA",
"M.	c #1A12E5",
"N.	c #091A8A",
"O.	c #0055FF",
"P.	c #3B4180",
"Q.	c #1717E8",
"R.	c #1E1A8E",
"S.	c #1714D9",
"T.	c #1B0FE4",
"U.	c #0A1989",
"V.	c #0053FF",
"W.	c #3A3C67",
"X.	c #0F109B",
"Y.	c #110B99",
"Z.	c #1B1564",
"`.	c #1811D8",
" +	c #1D0CE2",
".+	c #0A1789",
"++	c #0050FF",
"@+	c #6C7893",
"#+	c #10569A",
"$+	c #C0C0C0",
"%+	c #B9B9B9",
"&+	c #BDBDBD",
"*+	c #1A0ED6",
"=+	c #1E09E1",
"-+	c #0B1588",
";+	c #004EFF",
">+	c #476C92",
",+	c #4470A0",
"'+	c #446FA0",
")+	c #446EA0",
"!+	c #606264",
"~+	c #787878",
"{+	c #656565",
"]+	c #4B477B",
"^+	c #4B467E",
"/+	c #4C457D",
"(+	c #474B6D",
"_+	c #4460A0",
":+	c #445FA0",
"<+	c #969AA4",
". + @ # $ $ $ $ $ $ $ $ $ $ $ $ $ $ $ $ % & * = ",
"$ - ; > , , , , , , , , , , , , , , , , ' ) ! ~ ",
"$ { ] > , ^ / / / / / / / / / / / / ( , _ : < [ ",
"$ } | 1 , 2 3 3 3 3 3 3 3 3 3 3 3 3 4 , 5 6 7 [ ",
"$ 8 9 0 , , , , , , , , , , , , , , , , 5 a b c ",
"$ 9 d e , , , , , , , , , , , , , , , , f b g c ",
"$ d h i , j k k k k k k k k k k k k l , f g m c ",
"$ h n o , , , , , , , , , , , , , , , , p m q r ",
"$ n s o , , , , , , , , , , , , , , , , p q t r ",
"$ s u v , w x x x x x x x x x x x x y , z t A r ",
"$ u B C , , , , , , , , , , , , , , , , D A E F ",
"$ B G H I I I I I I I I I I I I I I I I J E K F ",
"$ L M N O P Q R S T U V W X Y Z `  ...+.@.K #.F ",
"$ M $.%.&.*.=.-.;.>.,.'.a b g m q t A E K #.).$ ",
"$ $.%.&.*.=.!.~.{.].^./.(._.:.<.[.}.|.1.2.).3.$ ",
"$ %.&.*.=.-.4.5.6.7.8.9.5.5.5.5.0.a.b.c.d.3.e.f.",
"$ &.*.=.-.;.g.4 h.i.j.k.4 4 4 4 l.m.n.o.p.e.q.f.",
"$ *.=.-.;.>.g.4 r.j.s.t.4 4 4 4 l.u.o.v.w.x.y.f.",
"$ =.-.;.>.,.g.4 z.s.A.B.4 4 4 4 l.C.v.D.E.y.F.G.",
"$ -.;.H.,.'.I.4 J.A.n.K.4 4 4 4 l.L.D.M.N.F.O.G.",
"$ ;.>.,.'.a I.4 P.n.Q.R.4 4 4 4 l.S.M.T.U.O.V.G.",
"$ >.,.'.a b I.4 W.X.Y.Z.4 4 4 4 l.`.T. +.+V.++@+",
"  #+'.a b g I.4 $+%+%+&+4 4 4 4 l.*+ +=+-+++;+@+",
"    >+,+'+)+!+~+~+~+~+~+~+~+~+~+{+]+^+/+(+_+:+<+"};
