/* XPM */
static char * ulf_notebook_24_bildeinfuegen_xpm[] = {
"24 24 188 2",
"  	c None",
". 	c #828282",
"+ 	c #888888",
"@ 	c #8A8A8A",
"# 	c #959595",
"$ 	c #E6E6E6",
"% 	c #E5E5E5",
"& 	c #969696",
"* 	c #166498",
"= 	c #166396",
"- 	c #166298",
"; 	c #E3E3E3",
"> 	c #0097FB",
", 	c #0099FF",
"' 	c #0097FF",
") 	c #0093FF",
"! 	c #E1E1E1",
"~ 	c #0092F3",
"{ 	c #0368AE",
"] 	c #064D81",
"^ 	c #06568B",
"/ 	c #006DB5",
"( 	c #0095F8",
"_ 	c #008EFF",
": 	c #DFDFDF",
"< 	c #0867AC",
"[ 	c #870D15",
"} 	c #AA0505",
"| 	c #5A4444",
"1 	c #A01616",
"2 	c #B8B7B7",
"3 	c #5F727E",
"4 	c #0072C0",
"5 	c #008AFF",
"6 	c #DDDDDD",
"7 	c #949494",
"8 	c #0B67AB",
"9 	c #C80101",
"0 	c #E80000",
"a 	c #9D8989",
"b 	c #9A8C8C",
"c 	c #FF0000",
"d 	c #973C3C",
"e 	c #FEFEFE",
"f 	c #93979B",
"g 	c #016EC4",
"h 	c #0085FF",
"i 	c #DBDBDB",
"j 	c #0090F0",
"k 	c #8D0A11",
"l 	c #9D1717",
"m 	c #FAFAFA",
"n 	c #E30000",
"o 	c #B6AEAE",
"p 	c #FFFFFF",
"q 	c #768794",
"r 	c #0083FA",
"s 	c #0080FF",
"t 	c #D8D8D8",
"u 	c #0C5D9B",
"v 	c #F50000",
"w 	c #FE0000",
"x 	c #9C7373",
"y 	c #9F5252",
"z 	c #005DB9",
"A 	c #007CFF",
"B 	c #D6D6D6",
"C 	c #939393",
"D 	c #36406A",
"E 	c #EF0000",
"F 	c #B6B6B6",
"G 	c #A51919",
"H 	c #0C4E94",
"I 	c #0077FF",
"J 	c #D4D4D4",
"K 	c #393F68",
"L 	c #A70B0B",
"M 	c #0C4A92",
"N 	c #0073FF",
"O 	c #D2D2D2",
"P 	c #105894",
"Q 	c #F90000",
"R 	c #FB0000",
"S 	c #ABA5A5",
"T 	c #9F1F1F",
"U 	c #004FB1",
"V 	c #006EFF",
"W 	c #D0D0D0",
"X 	c #008CEA",
"Y 	c #9B070B",
"Z 	c #A37272",
"` 	c #9C6868",
" .	c #6A7584",
"..	c #006CF9",
"+.	c #006AFF",
"@.	c #CECECE",
"#.	c #929292",
"$.	c #115A98",
"%.	c #D60000",
"&.	c #9A2626",
"*.	c #FDFDFD",
"=.	c #B50808",
"-.	c #D4D3D3",
";.	c #B7B8BB",
">.	c #0350B6",
",.	c #0065FF",
"'.	c #CCCCCC",
").	c #115497",
"!.	c #83080F",
"~.	c #A39B9B",
"{.	c #E50000",
"].	c #998585",
"^.	c #86909D",
"/.	c #044EB1",
"(.	c #0066FF",
"_.	c #0061FF",
":.	c #CACACA",
"<.	c #007AEA",
"[.	c #034E98",
"}.	c #134379",
"|.	c #1E326C",
"1.	c #044CA5",
"2.	c #0069F2",
"3.	c #005CFF",
"4.	c #C8C8C8",
"5.	c #919191",
"6.	c #0095FB",
"7.	c #0058FF",
"8.	c #C6C6C6",
"9.	c #005FA5",
"0.	c #005EA7",
"a.	c #005BA7",
"b.	c #0058A7",
"c.	c #0055A7",
"d.	c #0052A7",
"e.	c #004FA7",
"f.	c #004CA7",
"g.	c #0049A7",
"h.	c #0046A7",
"i.	c #0043A7",
"j.	c #0040A7",
"k.	c #003DA7",
"l.	c #003AA7",
"m.	c #0037A7",
"n.	c #C4C4C4",
"o.	c #D9D9D9",
"p.	c #D7D7D7",
"q.	c #D5D5D5",
"r.	c #D3D3D3",
"s.	c #D1D1D1",
"t.	c #CFCFCF",
"u.	c #CDCDCD",
"v.	c #CBCBCB",
"w.	c #C9C9C9",
"x.	c #C7C7C7",
"y.	c #C5C5C5",
"z.	c #C3C3C3",
"A.	c #C1C1C1",
"B.	c #BFBFBF",
"C.	c #BDBDBD",
"D.	c #BBBBBB",
"E.	c #C2C2C2",
"F.	c #909090",
"G.	c #DADADA",
"H.	c #C0C0C0",
"I.	c #BEBEBE",
"J.	c #BCBCBC",
"K.	c #8F8F8F",
"L.	c #BABABA",
"M.	c #878787",
"N.	c #868686",
"O.	c #858585",
"P.	c #848484",
"Q.	c #818181",
"R.	c #808080",
"S.	c #7F7F7F",
"T.	c #7E7E7E",
"U.	c #7D7D7D",
"V.	c #7C7C7C",
"W.	c #7A7A7A",
"X.	c #797979",
"Y.	c #787878",
"Z.	c #777777",
"`.	c #767676",
" +	c #757575",
".+	c #747474",
"++	c #737373",
"@+	c #8B8B8B",
"  . + + + + + + + + + + + + + + + + + + + + @   ",
"  # $ $ $ $ $ $ $ $ $ $ $ $ $ $ $ $ $ $ $ % &   ",
"  # $ * = * * * * * * * * * * * * * - - * ; #   ",
"  # $ * > , , , , , , , , , , , , ' ) ) * ! #   ",
"  # $ * > , , , , ~ { ] ^ / ( , ' ) _ _ * : #   ",
"  # $ * > , , , < [ } | 1 2 3 4 ) _ 5 5 * 6 7   ",
"  # $ * > , , 8 9 0 a b c d e f g 5 h h * i 7   ",
"  # $ * > , j k c l m b c n o p q r s s * t 7   ",
"  # $ * > , u v w x p b c c y p : z A A * B C   ",
"  # $ * > , D c E F p b c c G p p H I I * J C   ",
"  # $ * > , K c E F p b c c L p p M N N * O C   ",
"  # $ * > , P Q R S p b c c T p J U V V * W C   ",
"  # $ * > , X Y c Z p b c c ` p  ...+.+.* @.#.  ",
"  # $ * > , , $.%.&.*.b c =.-.;.>.+.,.,.* '.#.  ",
"  # $ * > , ' ) ).!.~.b {.].^./.+.(._._.* :.#.  ",
"  # $ * > ' ) _ 5 <.[.}.|.1.2.+.,._.3.3.* 4.5.  ",
"  # $ * 6.) _ 5 h s A I N V +.(._.3.7.7.* 8.5.  ",
"  # $ * 9.0.a.b.c.d.e.f.g.h.i.j.k.l.m.m.m.n.5.  ",
"  # $ ; o.p.q.r.s.t.u.v.w.x.y.z.A.B.C.D.z.E.F.  ",
"  # $ % ; ! : 6 G.t B J O W @.'.:.4.8.n.E.H.F.  ",
"  # % ; ! : 6 G.t B J O W @.'.:.4.8.n.E.H.I.F.  ",
"  7 ; ! : 6 G.t B J O W @.'.:.4.8.n.E.H.I.J.K.  ",
"  7 ! : 6 i t B J O W @.'.:.4.8.n.E.H.I.J.L.K.  ",
"  M.+ M.N.O.P.. Q.R.S.T.U.V.W.X.Y.Z.`. +.+++@+  "};
