/* XPM */
static char * ulf_knopfleiste_24_vorwaerts_xpm[] = {
"24 24 169 2",
"  	c None",
". 	c #A8A9A6",
"+ 	c #89926F",
"@ 	c #7C8C4B",
"# 	c #6E8238",
"$ 	c #6B8138",
"% 	c #758A49",
"& 	c #838E6D",
"* 	c #A7A7A5",
"= 	c #8B8E7C",
"- 	c #768831",
"; 	c #A9C938",
"> 	c #B4DA3C",
", 	c #AFD93A",
"' 	c #AAD839",
") 	c #A5D737",
"! 	c #A1D636",
"~ 	c #9CD434",
"{ 	c #88BF2E",
"] 	c #5F822A",
"^ 	c #89917E",
"/ 	c #74803B",
"( 	c #B6D43D",
"_ 	c #B9DC3E",
": 	c #97D332",
"< 	c #92D231",
"[ 	c #8DD12F",
"} 	c #83C82C",
"| 	c #5A7C33",
"1 	c #809130",
"2 	c #BEDD3F",
"3 	c #A1D535",
"4 	c #88CF2D",
"5 	c #84CE2C",
"6 	c #7FCD2A",
"7 	c #598E24",
"8 	c #7C8D30",
"9 	c #7ACC29",
"0 	c #75CB27",
"a 	c #4E8321",
"b 	c #6D7643",
"c 	c #BDDC3F",
"d 	c #70CA25",
"e 	c #6BC824",
"f 	c #517338",
"g 	c #999A94",
"h 	c #AAC639",
"i 	c #9CD537",
"j 	c #CAE99A",
"k 	c #D5EDAF",
"l 	c #D3EDAE",
"m 	c #D0ECAA",
"n 	c #91D33F",
"o 	c #66C722",
"p 	c #59B41E",
"q 	c #989D96",
"r 	c #798741",
"s 	c #A0D84F",
"t 	c #F1FAEA",
"u 	c #FFFFFF",
"v 	c #EDF7DC",
"w 	c #88D13C",
"x 	c #62C621",
"y 	c #5DC51F",
"z 	c #447429",
"A 	c #93AF31",
"B 	c #98D64D",
"C 	c #F0FAEA",
"D 	c #EBF7DA",
"E 	c #7FCF38",
"F 	c #58C41D",
"G 	c #439D16",
"H 	c #94968D",
"I 	c #B3D93C",
"J 	c #90D54B",
"K 	c #E9F6DA",
"L 	c #76CC35",
"M 	c #53C31C",
"N 	c #4EC01A",
"O 	c #80887D",
"P 	c #87916B",
"Q 	c #9CD539",
"R 	c #E2F3C7",
"S 	c #E0F2C6",
"T 	c #DFF2C6",
"U 	c #DEF2C5",
"V 	c #DCF2C5",
"W 	c #DBF1C4",
"X 	c #E8F7DD",
"Y 	c #E7F6D8",
"Z 	c #6DCA32",
"` 	c #4EC11A",
" .	c #49C018",
"..	c #607F54",
"+.	c #7B8759",
"@.	c #98D439",
"#.	c #FEFFFF",
"$.	c #E2F4D2",
"%.	c #56C31E",
"&.	c #4EC21A",
"*.	c #44BF17",
"=.	c #5A844B",
"-.	c #7A8859",
";.	c #93D338",
">.	c #FDFEFB",
",.	c #8FD764",
"'.	c #40BE15",
").	c #58834A",
"!.	c #85916A",
"~.	c #8DD130",
"{.	c #96D546",
"].	c #92D444",
"^.	c #8DD343",
"/.	c #89D242",
"(.	c #85D140",
"_.	c #81D03F",
":.	c #7ECF40",
"<.	c #D4F0C7",
"[.	c #8FD765",
"}.	c #3BBD14",
"|.	c #5D7E53",
"1.	c #8B8E85",
"2.	c #9BD334",
"3.	c #83CE2C",
"4.	c #6CC927",
"5.	c #C5EBB1",
"6.	c #90D766",
"7.	c #36BB12",
"8.	c #808D7D",
"9.	c #75A427",
"0.	c #6CC926",
"a.	c #91D767",
"b.	c #29990E",
"c.	c #5C7635",
"d.	c #C4EAAF",
"e.	c #91D868",
"f.	c #36BC12",
"g.	c #31BA10",
"h.	c #317023",
"i.	c #9C9F98",
"j.	c #7ABA29",
"k.	c #29AA0E",
"l.	c #989F96",
"m.	c #58703C",
"n.	c #7ECD2A",
"o.	c #2CB90F",
"p.	c #3D7132",
"q.	c #558526",
"r.	c #237613",
"s.	c #528824",
"t.	c #237713",
"u.	c #527937",
"v.	c #5CBB1F",
"w.	c #2AAD0E",
"x.	c #316926",
"y.	c #8C9686",
"z.	c #417A21",
"A.	c #4CB119",
"B.	c #2DAA0F",
"C.	c #297219",
"D.	c #859082",
"E.	c #A9AAA8",
"F.	c #728968",
"G.	c #4D783C",
"H.	c #3C7329",
"I.	c #3A7228",
"J.	c #48773B",
"K.	c #6E8967",
"L.	c #A7A9A7",
"                . + @ # $ % & *                 ",
"            = - ; > , ' ) ! ~ { ] ^             ",
"        . / ( _ > , ' ) ! ~ : < [ } | .         ",
"      . 1 2 _ > , ' ) 3 ~ : < [ 4 5 6 7 .       ",
"      8 2 _ > , ' ) ! ~ : < [ 4 5 6 9 0 a       ",
"    b c _ > , ' ) ! ~ : < [ 4 5 6 9 0 d e f     ",
"  g h _ > , ' ) ! i j k l m n 6 9 0 d e o p q   ",
"  r _ > , ' ) 3 ~ : s t u u v w 0 d e o x y z   ",
"  A > , ' ) ! ~ : < [ B C u u D E e o x y F G . ",
"H I , ' ) ! ~ : < [ 4 5 J C u u K L x y F M N O ",
"P , ' ) 3 Q R R S T U V W X u u u Y Z F M `  ...",
"+.' ) ! ~ @.#.u u u u u u u u u u u $.%.&. .*.=.",
"-.) ! ~ : ;.#.u u u u u u u u u u >.,.&. .*.'.).",
"!.! ~ : < ~.{.].^./.(._.:.<.u u >.[.&. .*.'.}.|.",
"1.2.: < [ 4 3.6 9 0 d 4.5.u u >.6.&. .*.'.}.7.8.",
". 9.< [ 4 5 6 9 0 d 0.5.u u >.a.&. .*.'.}.7.b.. ",
"  c.[ 4 5 6 9 0 d 0.d.u u >.e.&. .*.'.}.f.g.h.  ",
"  i.j.5 6 9 0 d e o x y F M `  .*.'.}.7.g.k.l.  ",
"    m.n.9 0 d e o x y F M &. .*.'.}.7.g.o.p.    ",
"      q.0 d e o x y F M &. .*.'.}.f.g.o.r.      ",
"      . s.e o x y F M &. .*.'.}.f.g.o.t..       ",
"          u.v.y F M &. .*.'.}.7.g.w.x.          ",
"            y.z.A.&. .*.'.}.7.B.C.D.            ",
"                E.F.G.H.I.J.K.L.                "};
