/* XPM */
static char * ulf_regionen_16_eschar_xpm[] = {
"16 16 8 1",
" 	c None",
".	c #4C8729",
"+	c #62B927",
"@	c #F6FC00",
"#	c #8E6B1E",
"$	c #F7F9AB",
"%	c #A99E3D",
"&	c #D7CE5B",
"                ",
"  .+++.+        ",
"..++  +++  @@   ",
". ++++ ++++@@@  ",
" ++#+..  ++$@@  ",
" +#+ +++  +$@   ",
"+.+   +.        ",
".+##  +         ",
".+#   +%%       ",
"+##  ++%&%      ",
"###  ++%&&%     ",
"#   %%%%&&&%    ",
"## %%%%%&&&&%   ",
"# %%%%%&&&&&&%  ",
"##%%%%%&&&&&&&% ",
"##%%%%%&&&&&&&&%"};
