/* XPM */
static char * ulf_regionen_16_abenteuer_xpm[] = {
"16 16 98 2",
"  	c None",
". 	c #616161",
"+ 	c #505050",
"@ 	c #535154",
"# 	c #4D514E",
"$ 	c #504C4C",
"% 	c #514B4F",
"& 	c #4A4C48",
"* 	c #4F4E4C",
"= 	c #4E4D4A",
"- 	c #4D4B4E",
"; 	c #E6E6E6",
"> 	c #E9E6E4",
", 	c #E2DFE0",
"' 	c #DEDFE0",
") 	c #D8D9DB",
"! 	c #D1D1D1",
"~ 	c #D8D7D5",
"{ 	c #D2D1CF",
"] 	c #CBC5C6",
"^ 	c #C8C4C4",
"/ 	c #4B4546",
"( 	c #514D4D",
"_ 	c #E7E3EA",
": 	c #4A514B",
"< 	c #4C4D50",
"[ 	c #4C484F",
"} 	c #4D4A4D",
"| 	c #4B4E48",
"1 	c #4A4749",
"2 	c #454545",
"3 	c #BEC5BF",
"4 	c #474747",
"5 	c #4E5053",
"6 	c #DEE2E2",
"7 	c #4D4D4D",
"8 	c #FF0000",
"9 	c #FF0104",
"0 	c #F70604",
"a 	c #FFDF10",
"b 	c #FCDF10",
"c 	c #F9DA14",
"d 	c #4B4A47",
"e 	c #BDBDBA",
"f 	c #414542",
"g 	c #4F4F4F",
"h 	c #DBD7D7",
"i 	c #4C4F4E",
"j 	c #F6E018",
"k 	c #F6D919",
"l 	c #EAD914",
"m 	c #464242",
"n 	c #B5B5B5",
"o 	c #464440",
"p 	c #4A4A51",
"q 	c #D6D3D5",
"r 	c #E90D10",
"s 	c #EDDB13",
"t 	c #EBD713",
"u 	c #E3D313",
"v 	c #ADAEB0",
"w 	c #3F4343",
"x 	c #D2CCD0",
"y 	c #454C46",
"z 	c #EA0C0C",
"A 	c #E3D419",
"B 	c #E2D216",
"C 	c #B0B3AD",
"D 	c #494B4E",
"E 	c #CAC8CB",
"F 	c #484B4A",
"G 	c #E00E15",
"H 	c #D31517",
"I 	c #DBCE16",
"J 	c #DECE14",
"K 	c #444144",
"L 	c #A9A5AC",
"M 	c #443E42",
"N 	c #454C4B",
"O 	c #BFC3C0",
"P 	c #CF191D",
"Q 	c #D0CB18",
"R 	c #D4CB18",
"S 	c #AAA7A8",
"T 	c #413B3C",
"U 	c #CE1C1F",
"V 	c #C8C715",
"W 	c #A1A1A1",
"X 	c #464346",
"Y 	c #B3B4B6",
"Z 	c #CB1B1B",
"` 	c #CAC516",
" .	c #A4A29E",
"..	c #3D3D3D",
"+.	c #ACA6AA",
"@.	c #3E3E45",
"#.	c #A59FA0",
"$.	c #404040",
"                                ",
"    . + + @ # $ % & * = - .     ",
"    + ; > , ' ) ! ~ { ] ^ /     ",
"    ( _ $ : < [ } | 1 2 3 4     ",
"    5 6 7 8 9 0 a b c d e f     ",
"    g h i 8 9 0 j k l m n o     ",
"    p q i 8 0 r s t u i v w     ",
"    p q x y r z A B o C v p     ",
"      D E F G H I J K L M       ",
"      N O i G P Q R i S T       ",
"      N O e 2 U V M W S N       ",
"        X Y 2 Z ` 2  ...        ",
"        N Y +.2 2 W  .N         ",
"          @.+.#.W W @.          ",
"            $.W W $.            ",
"              $.$.              "};
