/* XPM */
static char * ulf_zipfel_24_einstellungen_xpm[] = {
"24 24 166 2",
"  	c None",
". 	c #A89AF1",
"+ 	c #7761E9",
"@ 	c #4229D6",
"# 	c #A7A6D7",
"$ 	c #C1B7F5",
"% 	c #907FED",
"& 	c #5E46E3",
"* 	c #280FC8",
"= 	c #1300B2",
"- 	c #0B009D",
"; 	c #030089",
"> 	c #000080",
", 	c #5050A8",
"' 	c #AA9CF1",
") 	c #7964EA",
"! 	c #442BD7",
"~ 	c #1801BD",
"{ 	c #0F00A8",
"] 	c #080094",
"^ 	c #010082",
"/ 	c #030381",
"( 	c #2E2E97",
"_ 	c #34349A",
": 	c #3121BC",
"< 	c #1300B3",
"[ 	c #0C009E",
"} 	c #04008A",
"| 	c #0F0F87",
"1 	c #4747A3",
"2 	c #8080C0",
"3 	c #BABADC",
"4 	c #F1F1F8",
"5 	c #FFFFFF",
"6 	c #9191C8",
"7 	c #252592",
"8 	c #5F5FAF",
"9 	c #9999CC",
"0 	c #D2D2E9",
"a 	c #FDFDFE",
"b 	c #9091C8",
"c 	c #070783",
"d 	c #FFFEFD",
"e 	c #FFFDFD",
"f 	c #FBFEFF",
"g 	c #898FC8",
"h 	c #EECCBB",
"i 	c #D27A4E",
"j 	c #EBEDEC",
"k 	c #818DC8",
"l 	c #D88A63",
"m 	c #D1835C",
"n 	c #E0F7FF",
"o 	c #798BC8",
"p 	c #F3E0D6",
"q 	c #CC6633",
"r 	c #D7C2B5",
"s 	c #D2F3FF",
"t 	c #7189C8",
"u 	c #6D626A",
"v 	c #883426",
"w 	c #DA9D7D",
"x 	c #CD7447",
"y 	c #D2F0FA",
"z 	c #C4EFFF",
"A 	c #6986C8",
"B 	c #7B7B94",
"C 	c #5A5A9D",
"D 	c #4E4E96",
"E 	c #772319",
"F 	c #ECEDEB",
"G 	c #CD6A38",
"H 	c #CDAE9C",
"I 	c #B6EBFF",
"J 	c #6184C8",
"K 	c #00006F",
"L 	c #373772",
"M 	c #6666A1",
"N 	c #6D6DBC",
"O 	c #4F4F92",
"P 	c #797991",
"Q 	c #FDFAF8",
"R 	c #EEFBFF",
"S 	c #D8AF98",
"T 	c #CC6B3A",
"U 	c #C4E4EF",
"V 	c #94CBDF",
"W 	c #566A8F",
"X 	c #6D6DA2",
"Y 	c #7D7DC5",
"Z 	c #5C5C9C",
"` 	c #EFD0C0",
" .	c #D2794C",
"..	c #E9E3DE",
"+.	c #E0F3F9",
"@.	c #CD7345",
"#.	c #C79B83",
"$.	c #86B0B4",
"%.	c #63644A",
"&.	c #8E8ECF",
"*.	c #6B6BA7",
"=.	c #4F4F7F",
"-.	c #F6EEE9",
";.	c #D17C52",
">.	c #CE7244",
",.	c #D1A68F",
"'.	c #CC6634",
").	c #B8D4DC",
"!.	c #729AAA",
"~.	c #8D8E22",
"{.	c #77771D",
"].	c #3E4A80",
"^.	c #01016B",
"/.	c #DEEAEC",
"(.	c #CD7E56",
"_.	c #C4896A",
":.	c #A7E5FD",
"<.	c #6090A2",
"[.	c #6AABC3",
"}.	c #73C9EA",
"|.	c #417BC8",
"1.	c #C5E5EF",
"2.	c #C1A08D",
"3.	c #AFC8CF",
"4.	c #9AE3FF",
"5.	c #8CDFFF",
"6.	c #7EDCFF",
"7.	c #70D8FF",
"8.	c #3979C8",
"9.	c #060783",
"0.	c #A8E7FF",
"a.	c #71D8FF",
"b.	c #7AD7FF",
"c.	c #477AC8",
"d.	c #9FE4FF",
"e.	c #A6E2FF",
"f.	c #B3E1FF",
"g.	c #C3DEFD",
"h.	c #B0B7E6",
"i.	c #8585C9",
"j.	c #31329C",
"k.	c #050683",
"l.	c #CAEEFF",
"m.	c #C9EAFF",
"n.	c #CEE7FF",
"o.	c #C5D1F4",
"p.	c #9E9ED8",
"q.	c #6B6BBB",
"r.	c #38389F",
"s.	c #090985",
"t.	c #7D7DBE",
"u.	c #030382",
"v.	c #7C7EC5",
"w.	c #5252AD",
"x.	c #1F1F91",
"y.	c #060683",
"z.	c #36369B",
"A.	c #6E6EB7",
"B.	c #A6A6D3",
"C.	c #19198D",
"D.	c #5353A9",
"E.	c #8C8CC6",
"F.	c #38389C",
"G.	c #313199",
"H.	c #6B6BB5",
"I.	c #A5A5D2",
"                                                ",
"                          . + @ #               ",
"                $ % & * = - ; > ,               ",
"        ' ) ! ~ { ] ^ > / ( _ > ,               ",
"    : < [ } > > | 1 2 3 4 5 6 > ,               ",
"    > > 7 8 9 0 a 5 5 5 5 5 b > ,               ",
"    > c 5 5 5 5 5 5 5 d e f g > ,               ",
"    > c 5 5 5 5 5 5 5 h i j k > ,               ",
"    > c 5 5 5 5 5 5 5 l m n o > ,               ",
"    > c 5 5 5 5 5 5 p q r s t > ,       u v     ",
"    > c 5 5 5 5 5 f w x y z A > ,   B C D E     ",
"    > c 5 5 5 5 f F G H z I J K L M N O P       ",
"    > c 5 5 Q f R S T U I V W X Y Z B           ",
"    > c 5 `  ...+.@.#.I $.%.&.*.=.              ",
"    > c 5 -.;.>.,.'.).!.~.{.].^.,               ",
"    > c f R /.(.q _.:.<.[.}.|.> ,               ",
"    > c R n s 1.2.3.4.5.6.7.8.> ,               ",
"    > 9.n s z I 0.4.5.6.a.b.c.> ,               ",
"    > 9.s z I 0.d.e.f.g.h.i.j.> ,               ",
"    > k.l.m.n.o.p.q.r.s.> > > > t.              ",
"    > u.v.w.x.> > > > y.z.A.B.                  ",
"    > > > > > C.D.E.                            ",
"    F.G.H.I.                                    ",
"                                                "};
