/* XPM */
static char * ulf_regionen_16_gildenbrief_xpm[] = {
"16 16 67 1",
" 	c None",
".	c #0B44A7",
"+	c #0D45A1",
"@	c #1242A6",
"#	c #0B41A1",
"$	c #0B48A7",
"%	c #0E44A4",
"&	c #0B4CA8",
"*	c #0E48A5",
"=	c #1148A3",
"-	c #0D48A8",
";	c #1047A5",
">	c #114DAA",
",	c #0C4EA5",
"'	c #0E4CA6",
")	c #0C52A6",
"!	c #0E50A7",
"~	c #104FA7",
"{	c #0F54AA",
"]	c #1155A5",
"^	c #0B58A6",
"/	c #0B51A5",
"(	c #1257A8",
"_	c #0D58A9",
":	c #1058AC",
"<	c #0E55AD",
"[	c #0F5EAC",
"}	c #0C5CA8",
"|	c #115AA9",
"1	c #0E60AD",
"2	c #0E59A7",
"3	c #0F5EAA",
"4	c #0B5EAA",
"5	c #0D5FAA",
"6	c #1060AE",
"7	c #1063A9",
"8	c #0F65AD",
"9	c #0B62AB",
"0	c #1068AF",
"a	c #0E6CAF",
"b	c #0E6CAA",
"c	c #0C68AF",
"d	c #0C68AA",
"e	c #0E65B0",
"f	c #0B6EAC",
"g	c #0B6BAD",
"h	c #106CB0",
"i	c #0D6CAD",
"j	c #1070B0",
"k	c #0E74B0",
"l	c #0E74AB",
"m	c #0F72AC",
"n	c #0D70AD",
"o	c #0B72AF",
"p	c #1072AD",
"q	c #0D78B1",
"r	c #0C74AE",
"s	c #0A73AE",
"t	c #0A73AF",
"u	c #0E77B0",
"v	c #107BB0",
"w	c #0975AC",
"x	c #107BAF",
"y	c #0A7AB1",
"z	c #0C81AF",
"A	c #0A7DB4",
"B	c #0B7DB1",
"       .        ",
"      +@+# $%   ",
"     &*=-*=;    ",
"    >>    ,'    ",
"    )!   ~){    ",
"    ]^   /(     ",
"    _:   <:     ",
"     [}  |12    ",
"     34   56    ",
"    78    97    ",
"   0abcbd  e0   ",
"       f  ghig  ",
"    jklm jno    ",
"   pqr  rst     ",
"    uvwxyu      ",
"     zAB        "};
