/* XPM */
static char * ulf_24_drucken_xpm[] = {
"24 24 185 2",
"  	c None",
". 	c #323232",
"+ 	c #029602",
"@ 	c #B6BEC2",
"# 	c #C2DAF6",
"$ 	c #3A424A",
"% 	c #529A52",
"& 	c #7AAE7A",
"* 	c #4E4E4E",
"= 	c #C6E6FE",
"- 	c #5A6A7E",
"; 	c #E6E6E6",
"> 	c #96A6B6",
", 	c #BE022A",
"' 	c #7A868A",
") 	c #DEF2FE",
"! 	c #7E9AB2",
"~ 	c #BEBEBE",
"{ 	c #9EAABA",
"] 	c #C6C6C6",
"^ 	c #F2F2F2",
"/ 	c #8E626A",
"( 	c #929292",
"_ 	c #A2B2BA",
": 	c #767676",
"< 	c #C2CEDA",
"[ 	c #AEB2BA",
"} 	c #8E9AA6",
"| 	c #DADAD6",
"1 	c #929EA6",
"2 	c #C6CED2",
"3 	c #FEFEFE",
"4 	c #EAF6FE",
"5 	c #8AA6C2",
"6 	c #B2B2B2",
"7 	c #FAFAFA",
"8 	c #CAD6DE",
"9 	c #92A2B2",
"0 	c #666E76",
"a 	c #6E7A8A",
"b 	c #525252",
"c 	c #DEF6FE",
"d 	c #868686",
"e 	c #EEF6FE",
"f 	c #DEDEDA",
"g 	c #A2A2A2",
"h 	c #7A7A7A",
"i 	c #B2B6BA",
"j 	c #D6F2FE",
"k 	c #EAEAE6",
"l 	c #CECECE",
"m 	c #525E6E",
"n 	c #6A6A6A",
"o 	c #A6A6A6",
"p 	c #AAAEB2",
"q 	c #B6B6B6",
"r 	c #CAEAFE",
"s 	c #CEE2F6",
"t 	c #8A828A",
"u 	c #464646",
"v 	c #AECADE",
"w 	c #EEFAFE",
"x 	c #8A8A8A",
"y 	c #F2FAFE",
"z 	c #5E5E5E",
"A 	c #A25E72",
"B 	c #B6BABA",
"C 	c #D6D2CE",
"D 	c #CED6D6",
"E 	c #768292",
"F 	c #E6FEFE",
"G 	c #AABACE",
"H 	c #3E3E3E",
"I 	c #D2D2D2",
"J 	c #9A9A9A",
"K 	c #E2F6FE",
"L 	c #86A2BE",
"M 	c #828282",
"N 	c #EAEEEE",
"O 	c #727272",
"P 	c #CEEEFE",
"Q 	c #7E8E9A",
"R 	c #969EAA",
"S 	c #AAC2DA",
"T 	c #C2CAC6",
"U 	c #DEE2E2",
"V 	c #BAD2EE",
"W 	c #CABECA",
"X 	c #8A9EAE",
"Y 	c #9EB6CE",
"Z 	c #E2FAFE",
"` 	c #969696",
" .	c #F2FEFE",
"..	c #B2C2D2",
"+.	c #0E9E0E",
"@.	c #E6F2FE",
"#.	c #D6D6D2",
"$.	c #EAFAFE",
"%.	c #7E7E7E",
"&.	c #EEFEFE",
"*.	c #666666",
"=.	c #CACACA",
"-.	c #CEF2FE",
";.	c #829AB2",
">.	c #828682",
",.	c #9E9E9E",
"'.	c #B2AAB2",
").	c #F6FEFE",
"!.	c #C2C2C2",
"~.	c #96AABA",
"{.	c #B6C6D2",
"].	c #8EA2B6",
"^.	c #92A6B6",
"/.	c #AEA6A6",
"(.	c #C2D2E2",
"_.	c #B2C6DE",
":.	c #D2CECA",
"<.	c #36363A",
"[.	c #9AA2AA",
"}.	c #BABABA",
"|.	c #F2EEEE",
"1.	c #E6E2E2",
"2.	c #DADEDE",
"3.	c #B2BABE",
"4.	c #AEAEAE",
"5.	c #E6F6FE",
"6.	c #8A8E8E",
"7.	c #869EB6",
"8.	c #A6B6C6",
"9.	c #82868E",
"0.	c #2E363E",
"a.	c #C6D2DE",
"b.	c #DACEDA",
"c.	c #C2D6EE",
"d.	c #FAFEFE",
"e.	c #E2F2FE",
"f.	c #7E7E86",
"g.	c #C6DEF2",
"h.	c #AEB6BA",
"i.	c #DEFAFE",
"j.	c #4A4A4A",
"k.	c #9AA6B2",
"l.	c #DAF2FE",
"m.	c #869AB2",
"n.	c #8E8E8E",
"o.	c #C2C2CA",
"p.	c #E6E6EE",
"q.	c #E2DEDE",
"r.	c #EEEEEA",
"s.	c #767276",
"t.	c #D2F2FE",
"u.	c #3A4652",
"v.	c #66727E",
"w.	c #B6CADE",
"x.	c #A6A2A6",
"y.	c #F6F2F2",
"z.	c #96A2AE",
"A.	c #E2E2E2",
"B.	c #AEAEB2",
"C.	c #E6FAFE",
"D.	c #EAEAEE",
"E.	c #B6BAC2",
"F.	c #AEA6AE",
"G.	c #C6DEFA",
"H.	c #7E868A",
"I.	c #8A868A",
"J.	c #F6FAFE",
"K.	c #D2EEFE",
"L.	c #B6B6BA",
"M.	c #A6B2BE",
"N.	c #B6C2D2",
"O.	c #9AAABA",
"P.	c #DADADA",
"Q.	c #D6D6D6",
"R.	c #BABABE",
"S.	c #EEEEEE",
"T.	c #96A2B2",
"U.	c #DEDEDE",
"V.	c #EAEAEA",
"W.	c #8A9EB2",
"X.	c #D2CECE",
"Y.	c #86868A",
"Z.	c #828686",
"`.	c #92A6BA",
" +	c #B2BAC2",
"    6 R.B L.L.i i h.[ [ 3.9.                    ",
"    6 3 3 3 d.d.). .&.w  .z.@                   ",
"    B.3 J.y y e 4 4 @.e.$.1 &.O.                ",
"    B.3 ).).).w 4 @.e.e.5.} i.P 5               ",
"    B.3 2 E. +a.4 e.e.) C.(.9 X W.m             ",
"    B.d.8 6.N.< $.$.K e._ $ Z v.l.].            ",
"    B.).d.6.{. .[.k.R g.F 0 a j j m.            ",
"    B. . .6... .H.w.) s c G 0.t.t.;.            ",
"    B.&.w f.{ &.H.Q E l.8.Y G u.-.;.            ",
"    p w 5.5.K C.' v c c._.# G.S = !             ",
"    p  .$.5.K C.z.^.> V j K.P r -.L             ",
"  o <.M.k.T.T.> > ~.`.].W.W.m.;.7.- .           ",
"M z d 3 y.|.r.k ; 1.q.f | #.C :.:.X.M %.        ",
"q g : : O O O O O O O O O O O O : : O }.%.      ",
"q 7 x }.~ }.}.}.}.}.}.}.}.}.}.}.}.}.}.}.4.(     ",
"q ^ S.%.}.}.}.}.}.}.}.}.}.}.}.}.}.}.}.}.~ g 4.  ",
"q S.S.A.s.I.t Y.Z.>.%.%.%.%.%.%.%.%.%.%.%.%.b =.",
"q S.; ^ '.& % p.A /.N ; A.U.U.P.P.Q.Q.I l l =.J ",
"6 S.V.S.F.+.+ o., / U Q.Q.I I l l =.=.=.] !.] J ",
"  !.V.^ x.b.W D.T D 2.Q.I I l l =.=.=.] !.!.!.J ",
"  4.Q.^ ,.V.A.U.P.P.Q.Q.Q.Q.Q.I I l l =.=.] ] J ",
"    ( S.g ; P.P.Q.Q.I Q.` : J O J O n.O ( *.}.J ",
"      J g V.A.U.U.P.P.U.h * %.u %.j.O j.h H J J ",
"        n g J ` ` ` ` J ,.,.,.J J J J ` J ( n.J "};
