/* XPM */
static char * ulf_24_zurueck_xpm[] = {
"24 24 167 2",
"  	c None",
". 	c #B0B0AF",
"+ 	c #8D9377",
"@ 	c #808E54",
"# 	c #718342",
"$ 	c #718443",
"% 	c #7A8C55",
"& 	c #8A917B",
"* 	c #B7B7B7",
"= 	c #8E9182",
"- 	c #758634",
"; 	c #A4C337",
"> 	c #B4DA3C",
", 	c #AFD93A",
"' 	c #AAD839",
") 	c #A5D737",
"! 	c #A1D636",
"~ 	c #9CD434",
"{ 	c #7FB22A",
"] 	c #5F7E32",
"^ 	c #989C91",
"/ 	c #74803D",
"( 	c #B4D23C",
"_ 	c #B9DC3E",
": 	c #97D332",
"< 	c #92D231",
"[ 	c #8DD12F",
"} 	c #7EC02A",
"| 	c #5E793F",
"1 	c #7F9130",
"2 	c #BEDD3F",
"3 	c #A1D535",
"4 	c #88CF2D",
"5 	c #84CE2C",
"6 	c #7FCD2A",
"7 	c #56832A",
"8 	c #7D8E30",
"9 	c #7ACC29",
"0 	c #75CB27",
"a 	c #4D7927",
"b 	c #6D7741",
"c 	c #70CA25",
"d 	c #6BC723",
"e 	c #5B7548",
"f 	c #94968D",
"g 	c #ACC939",
"h 	c #AADB55",
"i 	c #D1EBA4",
"j 	c #CFEBA3",
"k 	c #CDEBA3",
"l 	c #B8E27E",
"m 	c #6BC824",
"n 	c #66C722",
"o 	c #53A81C",
"p 	c #ABACAA",
"q 	c #78873C",
"r 	c #AADB54",
"s 	c #F3FAEB",
"t 	c #FFFFFF",
"u 	c #ECF7DA",
"v 	c #90D33E",
"w 	c #62C621",
"x 	c #5DC51F",
"y 	c #4E7538",
"z 	c #9AB733",
"A 	c #A9DB53",
"B 	c #EDF7DB",
"C 	c #58C41D",
"D 	c #3D8F14",
"E 	c #919485",
"F 	c #F3FAEA",
"G 	c #EDF8DD",
"H 	c #53C31C",
"I 	c #4CBC19",
"J 	c #8E918D",
"K 	c #838F61",
"L 	c #A9DA52",
"M 	c #E3F4CC",
"N 	c #D5EFB9",
"O 	c #D4EFB9",
"P 	c #D2EEB8",
"Q 	c #D1EEB8",
"R 	c #CFEDB7",
"S 	c #CDEDB7",
"T 	c #BEE79E",
"U 	c #4EC11A",
"V 	c #49C018",
"W 	c #6B8262",
"X 	c #77864F",
"Y 	c #A2D845",
"Z 	c #F2FAE9",
"` 	c #EAF7DB",
" .	c #4EC21A",
"..	c #44BF17",
"+.	c #648758",
"@.	c #74854D",
"#.	c #97D333",
"$.	c #C9E9A0",
"%.	c #EAF6DB",
"&.	c #40BE15",
"*.	c #638757",
"=.	c #7F8F5E",
"-.	c #C5E8A0",
";.	c #CBEBA8",
">.	c #88D34B",
",.	c #84D249",
"'.	c #80D148",
").	c #7CD047",
"!.	c #78CF45",
"~.	c #74CE44",
"{.	c #6CCB3C",
"].	c #3BBD14",
"^.	c #66815F",
"/.	c #858B78",
"(.	c #83CE2C",
"_.	c #C0E89F",
":.	c #FFFFFE",
"<.	c #AFE080",
"[.	c #36BA12",
"}.	c #899187",
"|.	c #B1B1B1",
"1.	c #80B32B",
"2.	c #BDE79F",
"3.	c #A9DF7E",
"4.	c #36BB12",
"5.	c #27930D",
"6.	c #5A792C",
"7.	c #70CA26",
"8.	c #B8E69E",
"9.	c #A3DD7B",
"0.	c #36BC12",
"a.	c #31BA10",
"b.	c #367029",
"c.	c #8C9285",
"d.	c #80C32B",
"e.	c #67C723",
"f.	c #6AC92D",
"g.	c #65C82B",
"h.	c #61C72A",
"i.	c #5CC628",
"j.	c #28A70D",
"k.	c #9DA39C",
"l.	c #537230",
"m.	c #2CB90F",
"n.	c #407236",
"o.	c #599122",
"p.	c #237613",
"q.	c #549320",
"r.	c #237813",
"s.	c #4D7D2B",
"t.	c #5FC120",
"u.	c #2AAF0E",
"v.	c #2F6924",
"w.	c #7B8B72",
"x.	c #3E801A",
"y.	c #4FBA1A",
"z.	c #2EAF10",
"A.	c #267416",
"B.	c #7F8C7C",
"C.	c #989D96",
"D.	c #668559",
"E.	c #42742E",
"F.	c #316F1C",
"G.	c #306E1C",
"H.	c #3E7430",
"I.	c #65865D",
"J.	c #9FA29E",
"                . + @ # $ % & *                 ",
"            = - ; > , ' ) ! ~ { ] ^             ",
"          / ( _ > , ' ) ! ~ : < [ } |           ",
"      . 1 2 _ > , ' ) 3 ~ : < [ 4 5 6 7         ",
"      8 2 _ > , ' ) ! ~ : < [ 4 5 6 9 0 a       ",
"    b 2 _ > , ' ) ! ~ : < [ 4 5 6 9 0 c d e     ",
"  f g _ > , ' ) ! h i j k l 5 6 9 0 c m n o p   ",
"  q _ > , ' ) 3 r s t t u v 6 9 0 c m n w x y   ",
". z > , ' ) ! A s t t B v 6 9 0 c m n w x C D   ",
"E > , ' ) ! A F t t G v 6 9 0 c m n w x C H I J ",
"K , ' ) 3 L F t t t M N O P Q R S T x C H U V W ",
"X ' ) ! Y Z t t t t t t t t t t t ` C H  .V ..+.",
"@.) ! ~ #.$.t t t t t t t t t t t %.H  .V ..&.*.",
"=.! ~ : < [ -.t t t ;.>.,.'.).!.~.{. .V ..&.].^.",
"/.~ : < [ 4 (._.t t :.<.n w x C H  .V ..&.].[.}.",
"|.1.< [ 4 5 6 9 2.t t :.3.x C H  .V ..&.].4.5.. ",
"  6.[ 4 5 6 9 0 7.8.t t :.9.H  .V ..&.].0.a.b.  ",
"  c.d.5 6 9 0 c m e.f.g.h.i.U V ..&.].4.a.j.k.  ",
"    l.6 9 0 c m n w x C H  .V ..&.].4.a.m.n.    ",
"    . o.0 c m n w x C H  .V ..&.].0.a.m.p.      ",
"      . q.m n w x C H  .V ..&.].0.a.m.r..       ",
"        . s.t.x C H  .V ..&.].4.a.u.v..         ",
"            w.x.y. .V ..&.].4.z.A.B.            ",
"                C.D.E.F.G.H.I.J.                "};
