/* XPM */
static char * ulf_statusleiste_16_wizard_xpm[] = {
"16 16 103 2",
"  	c None",
". 	c #A7A7A7",
"+ 	c #34321B",
"@ 	c #37372C",
"# 	c #505048",
"$ 	c #E6E180",
"% 	c #A39D36",
"& 	c #AFAFAF",
"* 	c #B5B5B5",
"= 	c #676222",
"- 	c #F5F280",
"; 	c #F5F269",
"> 	c #373613",
", 	c #12110D",
"' 	c #A19B52",
") 	c #A19B46",
"! 	c #A19D3B",
"~ 	c #A39F32",
"{ 	c #F2F06B",
"] 	c #F5F25C",
"^ 	c #F5F24A",
"/ 	c #E6E42C",
"( 	c #A19F0F",
"_ 	c #A19F0B",
": 	c #A19F08",
"< 	c #9B9805",
"[ 	c #1A1A12",
"} 	c #B7B7B7",
"| 	c #9F9640",
"1 	c #F5F292",
"2 	c #F5F279",
"3 	c #F5F264",
"4 	c #F5F250",
"5 	c #F5F340",
"6 	c #F5F332",
"7 	c #F5F326",
"8 	c #F5F31A",
"9 	c #F5F412",
"0 	c #F5F40B",
"a 	c #757202",
"b 	c #3E3C2F",
"c 	c #F0ED62",
"d 	c #F5F258",
"e 	c #F5F346",
"f 	c #F5F337",
"g 	c #F5F329",
"h 	c #F5F41F",
"i 	c #F5F416",
"j 	c #F5F40E",
"k 	c #F5F408",
"l 	c #E8E804",
"m 	c #4E4E39",
"n 	c #585412",
"o 	c #F5F33C",
"p 	c #F5F32F",
"q 	c #F5F322",
"r 	c #F5F419",
"s 	c #F5F410",
"t 	c #F5F40A",
"u 	c #F5F406",
"v 	c #F5F403",
"w 	c #464602",
"x 	c #41400A",
"y 	c #F5F327",
"z 	c #F5F31C",
"A 	c #F5F413",
"B 	c #F5F40D",
"C 	c #F5F404",
"D 	c #F5F401",
"E 	c #F5F400",
"F 	c #333302",
"G 	c #464532",
"H 	c #EDEB1B",
"I 	c #F5F418",
"J 	c #F5F40F",
"K 	c #F5F405",
"L 	c #F5F402",
"M 	c #F5F500",
"N 	c #DFDF00",
"O 	c #58584A",
"P 	c #868008",
"Q 	c #606000",
"R 	c #19190E",
"S 	c #A9A906",
"T 	c #ADAB04",
"U 	c #ADAB02",
"V 	c #ABA901",
"W 	c #F0F000",
"X 	c #ADAD00",
"Y 	c #AFAF00",
"Z 	c #A3A300",
"` 	c #1E1E13",
" .	c #BABABA",
"..	c #585800",
"+.	c #525200",
"@.	c #B9B9B9",
"#.	c #727267",
"$.	c #DBDB00",
"%.	c #DDDD00",
"&.	c #5E5E50",
"*.	c #3C3C05",
"=.	c #343402",
"-.	c #B1B1B1",
"              .                 ",
"              + @               ",
"            # $ % &             ",
"          * = - ; >             ",
"  , ' ) ! ~ { ] ^ / ( _ : < [   ",
"  } | 1 2 3 4 5 6 7 8 9 0 a     ",
"    b c d e f g h i j k l m     ",
"      n o p q r s t u v w       ",
"      x y z A B k C D E F       ",
"    G H I J t K L E M M N O     ",
"    P 9 0 u v D M M M M M Q     ",
"  R S T U V W M M W X Y Y Z `   ",
"           ...M M +.@.          ",
"            #.$.%.&.            ",
"              *.=.              ",
"                -.              "};
