/* XPM */
static char * ulf_regionen_16_alba_xpm[] = {
"16 16 58 1",
" 	c None",
".	c #848484",
"+	c #000000",
"@	c #979797",
"#	c #2A8FC8",
"$	c #B18525",
"%	c #AF7F22",
"&	c #AB7F22",
"*	c #AA7E25",
"=	c #9F7821",
"-	c #997A1D",
";	c #94731B",
">	c #B78623",
",	c #B18223",
"'	c #B08126",
")	c #AA7D1F",
"!	c #A07A24",
"~	c #9F7723",
"{	c #93711F",
"]	c #936D1B",
"^	c #90731F",
"/	c #B38323",
"(	c #B08025",
"_	c #A8811F",
":	c #A37B22",
"<	c #9E781E",
"[	c #9D7A22",
"}	c #96761C",
"|	c #8E7019",
"1	c #8C6E1B",
"2	c #83C4E9",
"3	c #B78122",
"4	c #AE8425",
"5	c #A67D1F",
"6	c #A07A1D",
"7	c #A07421",
"8	c #947221",
"9	c #886B1A",
"0	c #B68420",
"a	c #B18322",
"b	c #A57F23",
"c	c #A0791E",
"d	c #9B761D",
"e	c #947322",
"f	c #8D6E1D",
"g	c #93721D",
"h	c #85681E",
"i	c #AB7B23",
"j	c #A37B1F",
"k	c #9C761F",
"l	c #9A781E",
"m	c #95721E",
"n	c #926F1A",
"o	c #8A6A1B",
"p	c #A17920",
"q	c #9A7821",
"r	c #8C731A",
"s	c #8A6D19",
"                ",
"                ",
".       +++  +  ",
".@      .+.  .+ ",
"+@      #+  .+.+",
".@      +###+   ",
"+@      +  .#   ",
".@     .+#.+ #.+",
"+@     + .#  #++",
".@$%&*=-;+ #++#+",
"+>,')!~{]^++# # ",
"//(_:<[}|1  # #2",
"34_5678^99 2# 22",
"0abcdefgh  22 2 ",
" ijklmno    2   ",
"  pq;rs         "};
