/* XPM */
static char * ulf_statusleiste_16_originalregeln_xpm[] = {
"16 16 140 2",
"  	c None",
". 	c #A4A4A4",
"+ 	c #8F8F8F",
"@ 	c #909090",
"# 	c #919191",
"$ 	c #9A9A9A",
"% 	c #C6C6C6",
"& 	c #999999",
"* 	c #9B9B9B",
"= 	c #9D9D9C",
"- 	c #353535",
"; 	c #040504",
"> 	c #070807",
", 	c #09090A",
"' 	c #0D0C0D",
") 	c #525353",
"! 	c #1C1C1C",
"~ 	c #1E1F1E",
"{ 	c #212121",
"] 	c #242424",
"^ 	c #B0B0B0",
"/ 	c #181717",
"( 	c #0A0909",
"_ 	c #0C0C0C",
": 	c #0F0F0F",
"< 	c #838383",
"[ 	c #1E1E1E",
"} 	c #A3A3A3",
"| 	c #121211",
"1 	c #0C0D0C",
"2 	c #0E0E0F",
"3 	c #121111",
"4 	c #313231",
"5 	c #848484",
"6 	c #222323",
"7 	c #252525",
"8 	c #0E0F0E",
"9 	c #111111",
"0 	c #141414",
"a 	c #161616",
"b 	c #C8C8C8",
"c 	c #303030",
"d 	c #202120",
"e 	c #222322",
"f 	c #272828",
"g 	c #0F0E0E",
"h 	c #1D1D1D",
"i 	c #191818",
"j 	c #777777",
"k 	c #ADADAD",
"l 	c #4A4A49",
"m 	c #272727",
"n 	c #2A2A2A",
"o 	c #C2C2C2",
"p 	c #B9B9B9",
"q 	c #111010",
"r 	c #515251",
"s 	c #5E5E5F",
"t 	c #1B1B1B",
"u 	c #2D2E2E",
"v 	c #4D4E4E",
"w 	c #4B4B4B",
"x 	c #7C7C7C",
"y 	c #2A292A",
"z 	c #2D2D2C",
"A 	c #A0A0A0",
"B 	c #141313",
"C 	c #696A69",
"D 	c #A5A5A5",
"E 	c #1A1B1B",
"F 	c #1E1D1E",
"G 	c #202020",
"H 	c #222222",
"I 	c #939393",
"J 	c #8B8B8A",
"K 	c #2C2C2C",
"L 	c #2F2E2E",
"M 	c #9E9E9E",
"N 	c #888888",
"O 	c #161515",
"P 	c #808080",
"Q 	c #212222",
"R 	c #252524",
"S 	c #2E2F2E",
"T 	c #313131",
"U 	c #8E8D8D",
"V 	c #717171",
"W 	c #181818",
"X 	c #979697",
"Y 	c #3A3A3A",
"Z 	c #222221",
"` 	c #383838",
" .	c #A7A7A7",
"..	c #2E2E2E",
"+.	c #343333",
"@.	c #7D7D7D",
"#.	c #59595A",
"$.	c #1A1A1A",
"%.	c #ACACAC",
"&.	c #696969",
"*.	c #242423",
"=.	c #272627",
"-.	c #6B6B6B",
";.	c #B4B4B4",
">.	c #313130",
",.	c #333333",
"'.	c #363636",
").	c #6D6D6D",
"!.	c #434343",
"~.	c #1C1D1D",
"{.	c #959595",
"].	c #262627",
"^.	c #292929",
"/.	c #C1C1C1",
"(.	c #383938",
"_.	c #5D5E5D",
":.	c #6C6C6C",
"<.	c #1F1F1F",
"[.	c #B1B1B0",
"}.	c #B7B7B7",
"|.	c #292928",
"1.	c #2B2B2B",
"2.	c #BFBFBF",
"3.	c #393838",
"4.	c #363535",
"5.	c #3B3B3B",
"6.	c #3F3E3E",
"7.	c #858585",
"8.	c #494A4A",
"9.	c #4C4C4C",
"0.	c #4E4D4E",
"a.	c #BEBEBE",
"b.	c #545454",
"c.	c #565656",
"d.	c #C4C4C4",
"e.	c #5C5C5C",
"f.	c #5E5E5E",
"g.	c #606060",
"h.	c #626262",
"i.	c #656464",
"                                ",
"                                ",
"  . + @ # $         % & $ * =   ",
"  - ; > , '         ) ! ~ { ]   ",
"  ^ / ( _ : <       [ [ { ] }   ",
"    | 1 2 3 4     5 [ { 6 7     ",
"    _ 8 9 0 a b   c d e 7 f     ",
"    g c h a i j k { l 7 m n o   ",
"  p q r s i t u v w x m y z ^   ",
"  A B C D E F G H I J y K L M   ",
"  N O P   h G Q R   & K S T U   ",
"  V W X   Y Z ] `    ...T +.@.  ",
"  #.$.%.  &.*.=.-.  ;.>.,.'.).  ",
"  !.~.o   {.].^.&   /.,.'.(._.  ",
":.h <.m [.}.|.1.2.}.3.4.` 5.6.x ",
"7.8.9.0.a.  b.c.  d.e.f.g.h.i.I "};
