/* XPM */
static char * ulf_notebook_24_loeschen_xpm[] = {
"24 24 109 2",
"  	c None",
". 	c #ADA3A3",
"+ 	c #9C9292",
"@ 	c #B1A9A9",
"# 	c #9C0303",
"$ 	c #AFA7A7",
"% 	c #A18A8A",
"& 	c #9C5151",
"* 	c #9D7373",
"= 	c #B10A0A",
"- 	c #8A4E4E",
"; 	c #9E0202",
"> 	c #FF0000",
", 	c #B80404",
"' 	c #AEA9A9",
") 	c #991C1C",
"! 	c #9B1010",
"~ 	c #8D4747",
"{ 	c #B40404",
"] 	c #893636",
"^ 	c #D60000",
"/ 	c #ADA4A4",
"( 	c #A10505",
"_ 	c #BB0505",
": 	c #865757",
"< 	c #F10000",
"[ 	c #8E5656",
"} 	c #982222",
"| 	c #FC0000",
"1 	c #BE0707",
"2 	c #B4ACAC",
"3 	c #988282",
"4 	c #DE0000",
"5 	c #9C1616",
"6 	c #854141",
"7 	c #EB0000",
"8 	c #B90303",
"9 	c #A69E9E",
"0 	c #C70101",
"a 	c #D40000",
"b 	c #8F7171",
"c 	c #CC0000",
"d 	c #B90202",
"e 	c #B20A0A",
"f 	c #FB0000",
"g 	c #905B5B",
"h 	c #AD0909",
"i 	c #BC0202",
"j 	c #AA9E9E",
"k 	c #A41F1F",
"l 	c #9E1818",
"m 	c #961F1F",
"n 	c #FD0000",
"o 	c #B80202",
"p 	c #772222",
"q 	c #FE0000",
"r 	c #8B4242",
"s 	c #ED0000",
"t 	c #F40000",
"u 	c #FA0000",
"v 	c #905E5E",
"w 	c #5F3636",
"x 	c #948989",
"y 	c #C90101",
"z 	c #CD0000",
"A 	c #C10101",
"B 	c #9E9292",
"C 	c #B10909",
"D 	c #F80000",
"E 	c #744747",
"F 	c #9A1D1D",
"G 	c #9E1B1B",
"H 	c #8D1919",
"I 	c #863E3E",
"J 	c #EC0000",
"K 	c #C30101",
"L 	c #A29292",
"M 	c #873333",
"N 	c #C80000",
"O 	c #B5B1B1",
"P 	c #8C6A6A",
"Q 	c #CA0101",
"R 	c #855555",
"S 	c #F70000",
"T 	c #8F6464",
"U 	c #A49595",
"V 	c #B60505",
"W 	c #957D7D",
"X 	c #E20000",
"Y 	c #901D1D",
"Z 	c #971717",
"` 	c #9F9090",
" .	c #833636",
"..	c #BB0000",
"+.	c #988686",
"@.	c #A30707",
"#.	c #F60000",
"$.	c #8F6969",
"%.	c #886161",
"&.	c #AB0101",
"*.	c #B4AAAA",
"=.	c #DD0000",
"-.	c #8E2020",
";.	c #AB9C9C",
">.	c #5A3434",
",.	c #D90000",
"'.	c #A71010",
").	c #8E5757",
"!.	c #956767",
"                                        . +     ",
"                                      @ # $     ",
"  % & * .                           . = -       ",
"  ; > > , '                         ) !         ",
"  ~ > > > { @                     ] ^ /         ",
"    ( > > > _ .                 : < [           ",
"      } | > > 1 2             3 4 5             ",
"        6 7 > > 8 9         . 0 a .             ",
"          b c > > d 9       e f g               ",
"            / h > > i j   k > l                 ",
"                m n > o p q a .                 ",
"                  r s > t u v                   ",
"                    w > > > x                   ",
"                  . y > z > A B                 ",
"                . C > D E F n A B               ",
"                G > > H     I J K L             ",
"              M q > N O       P a Q L           ",
"            R t > S T           U V Q L         ",
"          W X > > Y               . Z y `       ",
"        . Q > > K .                    ...+.    ",
"        @.> > #.$.                      %.&.*.  ",
"      . =.> > -.                          ;.>.  ",
"      . ,.q '..                                 ",
"        ).!.                                    "};
