/* XPM */
static char * ulf_zipfel_24_verlauf_xpm[] = {
"24 24 221 2",
"  	c None",
". 	c #CACACA",
"+ 	c #BEBEBE",
"@ 	c #ADADAD",
"# 	c #929292",
"$ 	c #949494",
"% 	c #A9A9A9",
"& 	c #AAAAAA",
"* 	c #A8A8A8",
"= 	c #AEAEAE",
"- 	c #C1C1C1",
"; 	c #838383",
"> 	c #CECECE",
", 	c #D8D8D8",
"' 	c #B9B9B9",
") 	c #C8C8C8",
"! 	c #E5E5E5",
"~ 	c #E6E6E6",
"{ 	c #7E7E7E",
"] 	c #878787",
"^ 	c #6E826E",
"/ 	c #277627",
"( 	c #018301",
"_ 	c #006400",
": 	c #246528",
"< 	c #461904",
"[ 	c #3C3C42",
"} 	c #808081",
"| 	c #DDDDDD",
"1 	c #ACACAC",
"2 	c #AFAFAF",
"3 	c #656C65",
"4 	c #0A870A",
"5 	c #00C600",
"6 	c #019801",
"7 	c #4E785D",
"8 	c #B6B6D9",
"9 	c #DAD3F8",
"0 	c #FD0C0E",
"a 	c #DCDCFF",
"b 	c #DADAFB",
"c 	c #B2B2C7",
"d 	c #808085",
"e 	c #BDBDBD",
"f 	c #E4E4E4",
"g 	c #B6B6B6",
"h 	c #3A463A",
"i 	c #019E01",
"j 	c #0A900C",
"k 	c #979CB5",
"l 	c #E3E3FF",
"m 	c #E6E5FE",
"n 	c #E9CEE5",
"o 	c #E6E6FF",
"p 	c #E5E5FF",
"q 	c #E2E2FF",
"r 	c #DBDBF8",
"s 	c #8E8E97",
"t 	c #B2B2B2",
"u 	c #E0E0E0",
"v 	c #959595",
"w 	c #626362",
"x 	c #078E07",
"y 	c #00B700",
"z 	c #808C98",
"A 	c #E1E1FF",
"B 	c #E3E3FD",
"C 	c #4848A8",
"D 	c #9898D3",
"E 	c #89898F",
"F 	c #C2C2C2",
"G 	c #DADADA",
"H 	c #848484",
"I 	c #034703",
"J 	c #00C900",
"K 	c #197A1E",
"L 	c #DCDCFB",
"M 	c #E5E5FE",
"N 	c #5353AE",
"O 	c #D9D9ED",
"P 	c #838384",
"Q 	c #D9D9D9",
"R 	c #8E8E8E",
"S 	c #9F9F9F",
"T 	c #009700",
"U 	c #00CA00",
"V 	c #6B807C",
"W 	c #5F5FB4",
"X 	c #3E3EA2",
"Y 	c #E0E0FC",
"Z 	c #E9E9FF",
"` 	c #9A9AA2",
" .	c #C3C3C3",
"..	c #CCCCCC",
"+.	c #A6A6A6",
"@.	c #656F65",
"#.	c #00C700",
"$.	c #00CC00",
"%.	c #00B800",
"&.	c #A5A5BA",
"*.	c #E4E4FE",
"=.	c #A8A8DD",
"-.	c #6262B6",
";.	c #34349D",
">.	c #DDDDFA",
",.	c #BFBFCB",
"'.	c #A4A4A4",
").	c #D2D2D2",
"!.	c #999999",
"~.	c #B1B1B1",
"{.	c #366636",
"].	c #00CE00",
"^.	c #009800",
"/.	c #857B89",
"(.	c #A0A0B1",
"_.	c #A1A1B2",
":.	c #E4E4FC",
"<.	c #7777C2",
"[.	c #2E2E97",
"}.	c #050582",
"|.	c #6464B7",
"1.	c #7171BE",
"2.	c #CFCFF2",
"3.	c #ECBDD0",
"4.	c #D78D95",
"5.	c #CFCFCF",
"6.	c #868F86",
"7.	c #00A000",
"8.	c #00B400",
"9.	c #00C000",
"0.	c #00D100",
"a.	c #00C200",
"b.	c #356E3B",
"c.	c #7676C1",
"d.	c #2F2F97",
"e.	c #1C1C8F",
"f.	c #7B7BC4",
"g.	c #D1D1F3",
"h.	c #EF9EAD",
"i.	c #DC5B5F",
"j.	c #939393",
"k.	c #CDCDCD",
"l.	c #297C29",
"m.	c #00D300",
"n.	c #00D600",
"o.	c #00D900",
"p.	c #02A802",
"q.	c #BABACE",
"r.	c #E3E3FE",
"s.	c #A7A7DC",
"t.	c #CDCDF1",
"u.	c #EBEBFF",
"v.	c #C3C3CD",
"w.	c #9C9C9C",
"x.	c #CBCBCB",
"y.	c #C0C2C0",
"z.	c #01A501",
"A.	c #00D700",
"B.	c #577F61",
"C.	c #F0F0FF",
"D.	c #9E9EA3",
"E.	c #B5B5B5",
"F.	c #5E8A5E",
"G.	c #00D200",
"H.	c #00DB00",
"I.	c #0A8B0B",
"J.	c #CECEE6",
"K.	c #EAEAFF",
"L.	c #E7E7F1",
"M.	c #0E890E",
"N.	c #00CF00",
"O.	c #54665B",
"P.	c #F1F1FE",
"Q.	c #96969A",
"R.	c #B0B0B0",
"S.	c #C6C6C6",
"T.	c #888888",
"U.	c #8C998C",
"V.	c #00DE00",
"W.	c #218721",
"X.	c #A2A2A2",
"Y.	c #9797A1",
"Z.	c #E7E7FF",
"`.	c #ECECFF",
" +	c #F2F2FD",
".+	c #9C9CA0",
"++	c #9B9B9B",
"@+	c #308130",
"#+	c #00BD00",
"$+	c #888D88",
"%+	c #E2E2E2",
"&+	c #848489",
"*+	c #C9C9D9",
"=+	c #ECE5F8",
"-+	c #FE0D0E",
";+	c #EEEEFF",
">+	c #CBCBD3",
",+	c #868688",
"'+	c #9E9E9E",
")+	c #A5A5A5",
"!+	c #C5C7C5",
"~+	c #426942",
"{+	c #A3A3A3",
"]+	c #7F7F81",
"^+	c #918F94",
"/+	c #A04F51",
"(+	c #929297",
"_+	c #9D9D9D",
":+	c #989898",
"<+	c #B7B7B7",
"[+	c #D6D6D6",
"}+	c #D3D3D3",
"|+	c #BFBFBF",
"1+	c #C9C9C9",
"2+	c #BCBCBC",
"3+	c #7B7B7B",
"4+	c #BBBBBB",
"5+	c #828282",
"6+	c #8A8A8A",
"7+	c #A1A1A1",
"8+	c #818181",
"                                                ",
"                        . + .                   ",
"                  @ # $ % & * # $ =             ",
"              - ; > , ' * ) ! ~ ~ > { )         ",
"            * ] ^ / ( _ : < [ } % | ~ 1 =       ",
"          2 3 4 5 6 7 8 9 0 a b c d e f @ g     ",
"          h i 5 j k a l m n o p q r s t u v     ",
"        w x 5 y z A o o o o o o B C D E F G H   ",
"        I 5 J K L o o o o o o M N C B O P Q R   ",
"      S T J U V o o o o o o o W X Y o Z `  ...+.",
"      @.#.$.%.&.o o o o *.=.-.;.>.o o Z ,.'.).!.",
" .~.~.{.$.].^./.(._.:.o <.[.}.|.1.1.2.3.4.v 5.$ ",
"6.7.8.9.].0.].9.a.b.M o c.d.e.f.f.f.g.h.i.j.k.# ",
"  l.$.].0.m.n.o.p.q.o o r.s.t.o o o o u.v.w.x.j.",
"  y.z.0.m.n.o.A.B.o o o o o o o o o o C.D.E. .S ",
"    F.G.n.o.H.I.J.o o o o o o o o o K.L.{ ) R   ",
"      M.o.H.N.O.r.o o o o o o o o Z P.Q.R.S.T.  ",
"      U.#.V.W.X.Y.:.Z.o o o o Z.`. +.+++S.R     ",
"        @+#+$+%+1 &+*+u.=+-+;+P.>+,+'+S.)+&     ",
"        !+~+{+2 | . $ ]+^+/+(+]+# e S._+:+      ",
"              <+T.5.[+}+S.|+ .x.1+2+3+4+        ",
"                  S 5+6+= = 7+8+{ _+            ",
"                        1++ .                   ",
"                                                "};
