/* XPM */
static char * ulf_notebook_24_editieren_xpm[] = {
"24 24 155 2",
"  	c None",
". 	c #4A4A4B",
"+ 	c #696969",
"@ 	c #565656",
"# 	c #363638",
"$ 	c #CDCDCD",
"% 	c #CCCCCD",
"& 	c #CBCBCD",
"* 	c #CACACD",
"= 	c #C9C9CD",
"- 	c #C8C8CD",
"; 	c #C7C7CD",
"> 	c #C6C6CD",
", 	c #C5C5CD",
"' 	c #C4C4CD",
") 	c #FFFFFF",
"! 	c #FEFEFF",
"~ 	c #FDFDFF",
"{ 	c #FCFCFF",
"] 	c #FBFBFF",
"^ 	c #FAFAFF",
"/ 	c #F9F9FF",
"( 	c #F8F8FF",
"_ 	c #F7F7FF",
": 	c #F6F6FF",
"< 	c #F5F5FF",
"[ 	c #F4F4FF",
"} 	c #F3F3FF",
"| 	c #F2F2FF",
"1 	c #AFAFB8",
"2 	c #E7E7E9",
"3 	c #9A9A9F",
"4 	c #B3B3BD",
"5 	c #AEAEB8",
"6 	c #F1F1FF",
"7 	c #ADADB8",
"8 	c #F0F0FF",
"9 	c #E2E2E5",
"0 	c #9C9C9F",
"a 	c #9B9B9F",
"b 	c #99999F",
"c 	c #98989F",
"d 	c #97979F",
"e 	c #96969F",
"f 	c #A9A9B3",
"g 	c #EFEFFF",
"h 	c #ACACB8",
"i 	c #EBEBF0",
"j 	c #C6C6D3",
"k 	c #EEEEFF",
"l 	c #EFEFF4",
"m 	c #D2D2D7",
"n 	c #D1D1D7",
"o 	c #D0D0D7",
"p 	c #CFCFD7",
"q 	c #CECED7",
"r 	c #CDCDD7",
"s 	c #CCCCD7",
"t 	c #CBCBD7",
"u 	c #CACAD7",
"v 	c #C9C9D7",
"w 	c #D1D1DF",
"x 	c #ABABB8",
"y 	c #EDEDFF",
"z 	c #E2E2E9",
"A 	c #A6A6AB",
"B 	c #A5A5AB",
"C 	c #A4A4AB",
"D 	c #A3A3AB",
"E 	c #A2A2AB",
"F 	c #A1A1AB",
"G 	c #A0A0AB",
"H 	c #9F9FAB",
"I 	c #AFAFBD",
"J 	c #ECECFF",
"K 	c #9695A1",
"L 	c #6B615F",
"M 	c #BFBFCE",
"N 	c #5B5663",
"O 	c #AB3927",
"P 	c #C43122",
"Q 	c #9A8A88",
"R 	c #C0C0CF",
"S 	c #6A6A86",
"T 	c #545494",
"U 	c #5A5AA8",
"V 	c #7D2C2B",
"W 	c #804F4A",
"X 	c #DDDDE5",
"Y 	c #95959F",
"Z 	c #94949F",
"` 	c #6A6A71",
" .	c #5C5C75",
"..	c #5B5B97",
"+.	c #6B6BBB",
"@.	c #6161B6",
"#.	c #5858B1",
"$.	c #5E2E46",
"%.	c #9F2017",
"&.	c #7C5F5D",
"*.	c #C1C1CE",
"=.	c #707089",
"-.	c #62629B",
";.	c #7474C0",
">.	c #474799",
",.	c #302436",
"'.	c #B7B7BE",
").	c #B6B6BE",
"!.	c #B5B5BE",
"~.	c #B4B4BE",
"{.	c #B3B3BE",
"].	c #B2B2BE",
"^.	c #AAAAB6",
"/.	c #73738B",
"(.	c #69699F",
"_.	c #7D7DC5",
":.	c #4F4F9E",
"<.	c #2A2A50",
"[.	c #656571",
"}.	c #7C7C88",
"|.	c #5C5C5C",
"1.	c #6F6FA2",
"2.	c #8686CA",
"3.	c #5757A2",
"4.	c #56567A",
"5.	c #7D7D8D",
"6.	c #7878A7",
"7.	c #8F8FD0",
"8.	c #6060A7",
"9.	c #5A5A7C",
"0.	c #B1B1B3",
"a.	c #9C9C86",
"b.	c #5A5A6F",
"c.	c #9999D5",
"d.	c #6868AB",
"e.	c #5E5E7F",
"f.	c #97977A",
"g.	c #CCCC2D",
"h.	c #919122",
"i.	c #7F7FB8",
"j.	c #7070B0",
"k.	c #626281",
"l.	c #6C6C65",
"m.	c #CDCD2D",
"n.	c #E0E028",
"o.	c #AAAA18",
"p.	c #5D5D8C",
"q.	c #656583",
"r.	c #B2B2B4",
"s.	c #545454",
"t.	c #000000",
"u.	c #84842A",
"v.	c #989848",
"w.	c #929264",
"x.	c #B0B0B0",
". + + + @ + + + + + + + + + + + . . . . # @     ",
"@ $ $ $ % % & * * = = - - ; ; > > , , ' ' . .   ",
"+ ) ! ~ ~ { ] ] ^ / / ( _ _ : < < [ [ } | 1 +   ",
"+ ! 2 3 3 3 3 3 3 3 3 3 3 3 3 3 3 3 3 4 | 5 +   ",
"+ ~ ~ { ] ] ^ / / ( _ _ : < < [ } } | | 6 7 +   ",
"+ ~ { ] ] ^ / / ( _ _ : < < [ [ } | | 6 8 7 +   ",
"+ { 9 0 0 a a a 3 3 b b b c c d d e e f 8 7 @   ",
"+ ] ] ^ / / ( _ _ : < < [ [ } | | 6 8 8 g h +   ",
"+ ] i 3 3 3 3 3 3 3 3 3 3 3 3 3 3 3 3 j k h +   ",
"+ ^ l m n o o p p q q r r s t t u u v w k x +   ",
"+ / / ( _ _ : < < [ [ } | | 6 8 8 g k k y x @   ",
"+ / z A B B B C C D D E E E F F G G H I J K L   ",
"+ ( _ _ : < < [ [ } | | 6 8 8 g k k y M N O P Q ",
"@ _ _ : < < [ } } | | 6 8 8 g k k R S T U V P W ",
"@ _ X b b c c d d e e e Y Y Z `  ...+.@.#.$.%.&.",
"+ : < < [ [ } | | 6 8 8 g *.=.-.;.+.@.#.>.,.@   ",
"@ '.).!.!.!.~.~.{.{.].^./.(._.;.+.@.:.<.[.}.@   ",
"+ @ + + + + . . . |.@ 1.2._.;.+.3.4.# @ @ @     ",
"                5.6.7.2._.;.8.9.0.              ",
"            a.b.c.7.2._.d.e.0.                  ",
"          f.g.h.i.2.j.k.0.                      ",
"        l.m.n.o.p.q.r.                          ",
"      s.t.u.v.w.x.                              ",
"                                                "};
