/* XPM */
static char * ulf_regionen_16_kanthaipan_xpm[] = {
"16 16 58 1",
" 	c None",
".	c #D3D3D3",
"+	c #000000",
"@	c #707070",
"#	c #909090",
"$	c #7A7A7A",
"%	c #282828",
"&	c #030303",
"*	c #B5B5B5",
"=	c #E2E2E2",
"-	c #919191",
";	c #4B4B4B",
">	c #2B2B2B",
",	c #7C7C7C",
"'	c #818181",
")	c #828282",
"!	c #747474",
"~	c #545454",
"{	c #B8B8B8",
"]	c #424242",
"^	c #2E2E2E",
"/	c #3F3F3F",
"(	c #6F6F6F",
"_	c #494949",
":	c #A9A9A9",
"<	c #434343",
"[	c #767676",
"}	c #626262",
"|	c #414141",
"1	c #232323",
"2	c #CFCFCF",
"3	c #0C0C0C",
"4	c #C8C8C8",
"5	c #ADADAD",
"6	c #050505",
"7	c #646464",
"8	c #A0A0A0",
"9	c #727272",
"0	c #9C9C9C",
"a	c #6B6B6B",
"b	c #A4A4A4",
"c	c #111111",
"d	c #5D5D5D",
"e	c #8D8D8D",
"f	c #D8D8D8",
"g	c #9A9A9A",
"h	c #5A5A5A",
"i	c #2C2C2C",
"j	c #CECECE",
"k	c #6D6D6D",
"l	c #262626",
"m	c #3A3A3A",
"n	c #A1A1A1",
"o	c #515151",
"p	c #0E0E0E",
"q	c #C6C6C6",
"r	c #858585",
"s	c #6C6C6C",
"     .          ",
"     ++         ",
"    +@#$%&+     ",
"  *+=    -+     ",
"   +;> ,'+)     ",
"   !~    +      ",
"   {+]^/(_      ",
"      :  <      ",
"  [+[}+|1+:     ",
"  2+  +  34     ",
"  5678+9+>0     ",
"  $a  +  b^     ",
"  cdef+gh +  ij ",
" k+l m+n  o+ pq ",
" re        h++s ",
"             4  "};
