/* XPM */
static char * ulf_notebook_24_reduzieren_xpm[] = {
"24 24 92 2",
"  	c None",
". 	c #444437",
"+ 	c #515138",
"@ 	c #525239",
"# 	c #52523A",
"$ 	c #474738",
"% 	c #C6C6C6",
"& 	c #67670A",
"* 	c #D4D417",
"= 	c #D5D51C",
"- 	c #D6D621",
"; 	c #7A7A15",
"> 	c #B6B6B6",
", 	c #54540A",
"' 	c #D8D826",
") 	c #6D6D15",
"! 	c #4A4A0F",
"~ 	c #DADA2A",
"{ 	c #606014",
"] 	c #4C4C20",
"^ 	c #DBDB2F",
"/ 	c #525213",
"( 	c #505034",
"_ 	c #DDDD34",
": 	c #454511",
"< 	c #535345",
"[ 	c #DCDC2F",
"} 	c #DEDE38",
"| 	c #404018",
"1 	c #575756",
"2 	c #DBDB34",
"3 	c #E0E03D",
"4 	c #424224",
"5 	c #6B6B6B",
"6 	c #CBCB34",
"7 	c #E2E242",
"8 	c #434330",
"9 	c #808080",
"0 	c #BCBC34",
"a 	c #E3E347",
"b 	c #46463E",
"c 	c #939393",
"d 	c #ACAC33",
"e 	c #E3E34B",
"f 	c #4A4A4A",
"g 	c #9B9B9B",
"h 	c #393938",
"i 	c #A3A333",
"j 	c #E5E54C",
"k 	c #D8D84B",
"l 	c #282828",
"m 	c #747474",
"n 	c #C1C1C1",
"o 	c #6A6A1E",
"p 	c #E7E751",
"q 	c #E8E855",
"r 	c #D0D051",
"s 	c #D1D155",
"t 	c #D0D058",
"u 	c #323221",
"v 	c #5B5B56",
"w 	c #C5C53E",
"x 	c #EAEA5A",
"y 	c #EBEB5F",
"z 	c #EDED64",
"A 	c #9C9C44",
"B 	c #898989",
"C 	c #535320",
"D 	c #EDED68",
"E 	c #3C3C27",
"F 	c #777777",
"G 	c #AFAF41",
"H 	c #EEEE68",
"I 	c #A4A44A",
"J 	c #444428",
"K 	c #EAEA5E",
"L 	c #EFEF6D",
"M 	c #43432A",
"N 	c #989898",
"O 	c #92923E",
"P 	c #F0F06D",
"Q 	c #A5A54D",
"R 	c #454538",
"S 	c #E4E468",
"T 	c #F1F172",
"U 	c #49492E",
"V 	c #BBBBBB",
"W 	c #737336",
"X 	c #AEAE54",
"Y 	c #555551",
"Z 	c #3E3E29",
"` 	c #A7A7A7",
"                                                ",
"                  . + @ # $ %                   ",
"                  & * = - ; >                   ",
"                  , = - ' ) %                   ",
"                  ! - ' ~ {                     ",
"                  ] ' ~ ^ /                     ",
"                  ( ~ ^ _ :                     ",
"                  < [ _ } |                     ",
"                  1 2 } 3 4                     ",
"                  5 6 3 7 8                     ",
"                  9 0 7 a b                     ",
"                  c d a e f                     ",
"            g 1 1 h i j k l m m m               ",
"            n o 7 a j p q r s t u               ",
"              v w j p q x y z A B               ",
"                C p q x y z D E                 ",
"                F G x y z H I B                 ",
"                  J K z H L M                   ",
"                  N O H P Q B                   ",
"                    R S T U                     ",
"                    V W X B                     ",
"                      Y Z                       ",
"                        `                       ",
"                                                "};
