/* XPM */
static char * ulf_regionen_16_nahuatlan_xpm[] = {
"16 16 7 1",
" 	c None",
".	c #4B4B4B",
"+	c #000000",
"@	c #856D2D",
"#	c #E6D3A6",
"$	c #756025",
"%	c #F6F2E8",
"                ",
"                ",
"                ",
"                ",
"      ....      ",
"      .++.      ",
"      .++.      ",
"      @##@      ",
"   ..@@$$@@..   ",
"  ...@%%%%@...  ",
"  ...@$$$$@...  ",
" ...@######@... ",
"....@$$$$$$@....",
"...@%%%%%%%%@...",
"...@$$$$$$$$@...",
"..@##########@.."};
