/* XPM */
static char * ulf_notebook_24_wuerfel_xpm[] = {
"24 24 244 2",
"  	c None",
". 	c #8C8C8C",
"+ 	c #969697",
"@ 	c #969695",
"# 	c #989897",
"$ 	c #9D9D9B",
"% 	c #A9A9A7",
"& 	c #B6B6B5",
"* 	c #C6C6C5",
"= 	c #DCDCDA",
"- 	c #DDDDDC",
"; 	c #E4E4E3",
"> 	c #BCBCBB",
", 	c #7A7A7E",
"' 	c #A8A8B2",
") 	c #F9F9FF",
"! 	c #FEFEFF",
"~ 	c #FFFFFF",
"{ 	c #F8F8FF",
"] 	c #F0F0FF",
"^ 	c #EBEBF9",
"/ 	c #D5D5E4",
"( 	c #C3C3D0",
"_ 	c #B3B3BF",
": 	c #7A7A82",
"< 	c #A8A8A8",
"[ 	c #8F8F92",
"} 	c #E2E2EC",
"| 	c #E9E9F3",
"1 	c #E0E0EB",
"2 	c #77777B",
"3 	c #323234",
"4 	c #E3E3ED",
"5 	c #E4E4EE",
"6 	c #5B5B5E",
"7 	c #000000",
"8 	c #161617",
"9 	c #747479",
"0 	c #8D8D94",
"a 	c #E1E1EF",
"b 	c #BFBFBF",
"c 	c #919190",
"d 	c #8A8A8D",
"e 	c #D0D0D6",
"f 	c #4A4A4D",
"g 	c #101011",
"h 	c #EAEAF1",
"i 	c #8D8D92",
"j 	c #353536",
"k 	c #AFAFB7",
"l 	c #7C7C80",
"m 	c #67676A",
"n 	c #D2D2D8",
"o 	c #B0B0B6",
"p 	c #676769",
"q 	c #EDEDF8",
"r 	c #E9E9F6",
"s 	c #B5B5B5",
"t 	c #949494",
"u 	c #A9A9AC",
"v 	c #C6C6C8",
"w 	c #E6E6ED",
"x 	c #5F5F61",
"y 	c #BEBEC4",
"z 	c #68686C",
"A 	c #F3F3FF",
"B 	c #ABABAB",
"C 	c #7B7B7B",
"D 	c #878787",
"E 	c #818181",
"F 	c #7C7C7C",
"G 	c #7E7E7E",
"H 	c #818182",
"I 	c #AAAAAB",
"J 	c #D7D7D8",
"K 	c #717174",
"L 	c #848485",
"M 	c #F7F7FD",
"N 	c #A3A3A3",
"O 	c #A6A6A6",
"P 	c #DEDEDE",
"Q 	c #E4E4E4",
"R 	c #B3B3B3",
"S 	c #858584",
"T 	c #787879",
"U 	c #787878",
"V 	c #7D7D7E",
"W 	c #636363",
"X 	c #EEEEF0",
"Y 	c #FCFCFF",
"Z 	c #F3F3F8",
"` 	c #F1F1F6",
" .	c #EDEDF4",
"..	c #A2A2A2",
"+.	c #BBBBBB",
"@.	c #D4D4D4",
"#.	c #CACACA",
"$.	c #828282",
"%.	c #FBFBFC",
"&.	c #F6F6F9",
"*.	c #F1F1F4",
"=.	c #EFEFF3",
"-.	c #F6F6FB",
";.	c #BDBDC2",
">.	c #A0A0A1",
",.	c #898989",
"'.	c #FBFBFB",
").	c #212121",
"!.	c #F7F7F7",
"~.	c #FDFDFD",
"{.	c #CBCBCB",
"].	c #0B0B0B",
"^.	c #757575",
"/.	c #989898",
"(.	c #EFEFEF",
"_.	c #BFBFC1",
":.	c #FDFDFE",
"<.	c #EFEFF1",
"[.	c #EBEBEE",
"}.	c #EAEAEE",
"|.	c #E6E6EB",
"1.	c #EBEBF2",
"2.	c #9F9FA0",
"3.	c #888888",
"4.	c #0F0F0F",
"5.	c #5E5E5E",
"6.	c #F3F3F3",
"7.	c #F9F9F9",
"8.	c #939393",
"9.	c #909090",
"0.	c #DCDCDC",
"a.	c #B2B2B2",
"b.	c #D7D7D7",
"c.	c #060606",
"d.	c #F0F0F1",
"e.	c #EDEDEF",
"f.	c #E9E9EC",
"g.	c #E2E2E6",
"h.	c #E6E6EC",
"i.	c #9D9D9E",
"j.	c #FCFCFC",
"k.	c #F4F4F4",
"l.	c #FEFEFE",
"m.	c #1B1B1B",
"n.	c #525252",
"o.	c #808080",
"p.	c #A7A7A7",
"q.	c #767677",
"r.	c #F1F1F3",
"s.	c #E0E0E2",
"t.	c #E4E4E9",
"u.	c #9B9B9C",
"v.	c #C4C4C4",
"w.	c #A0A0A0",
"x.	c #292929",
"y.	c #F2F2F2",
"z.	c #ECECEC",
"A.	c #C3C3C3",
"B.	c #F6F6F6",
"C.	c #AAAAAA",
"D.	c #E1E1E3",
"E.	c #E5E5E9",
"F.	c #989899",
"G.	c #848484",
"H.	c #AFAFAF",
"I.	c #666666",
"J.	c #E8E8E8",
"K.	c #B9B9B9",
"L.	c #414141",
"M.	c #737373",
"N.	c #E8E8E9",
"O.	c #69696A",
"P.	c #838383",
"Q.	c #555555",
"R.	c #6B6B6B",
"S.	c #EEEEEE",
"T.	c #E5E5E5",
"U.	c #4B4B4B",
"V.	c #DDDDDD",
"W.	c #797979",
"X.	c #EAEAEA",
"Y.	c #E7E7E7",
"Z.	c #A4A4A4",
"`.	c #BDBDBD",
" +	c #8A8A8A",
".+	c #F5F5F5",
"++	c #FAFAFA",
"@+	c #E1E1E1",
"#+	c #C6C6C6",
"$+	c #868686",
"%+	c #BCBCBC",
"&+	c #EBEBEB",
"*+	c #E2E2E2",
"=+	c #DFDFDF",
"-+	c #232323",
";+	c #B7B7B7",
">+	c #C8C8C8",
",+	c #D5D5D5",
"'+	c #CFCFCF",
")+	c #E9E9E9",
"!+	c #EDEDED",
"~+	c #D0D0D0",
"{+	c #E3E3E3",
"]+	c #E0E0E0",
"^+	c #D9D9D9",
"/+	c #DBDBDB",
"(+	c #D3D3D3",
"_+	c #858585",
":+	c #646464",
"<+	c #CDCDCD",
"[+	c #686868",
"}+	c #D6D6D6",
"|+	c #9A9A9A",
"1+	c #7D7D7D",
"2+	c #5F5F5F",
"3+	c #D8D8D8",
"4+	c #494949",
"5+	c #6D6D6D",
"6+	c #6A6A6A",
"7+	c #323232",
"8+	c #3D3D3D",
"9+	c #B0B0B0",
"0+	c #C0C0C0",
"a+	c #6C6C6C",
"b+	c #090909",
"c+	c #D2D2D2",
"d+	c #616161",
"e+	c #B8B8B8",
"f+	c #CECECE",
"g+	c #535353",
"h+	c #606060",
"i+	c #717171",
"j+	c #A5A5A5",
"k+	c #DADADA",
"l+	c #767676",
"m+	c #777777",
"n+	c #626262",
"o+	c #9D9D9D",
"p+	c #696969",
"q+	c #969696",
"r+	c #C1C1C1",
"s+	c #9C9C9C",
"t+	c #363636",
"u+	c #A1A1A1",
"                    . + @ # @ $ % & * = - ;     ",
"              > , ' ) ! ~ ~ ~ { ] ^ / ( _ : :   ",
"          < [ } | ~ ~ 1 2 3 4 5 6 7 8 ~ 9 0 a b ",
"      c d e f 7 g h i 7 j k ~ l m n o p q ~ r s ",
"  t u ~ ~ v : : ~ ~ ~ ~ ~ ~ ~ ~ w x y ~ ~ z A B ",
"C D E F G H I J ~ ~ ~ ~ ~ ~ ~ K L ~ ~ M ~ 7 : N ",
"O ~ ~ P ~ ~ Q R S T U C G V W X ~ Y Z `  .7 : ..",
"  +.@.7 7 #.~ ~ ~ ~ ~ ~ ~ $.~ ~ %.&.*.=.-.;.{ >.",
"  ,.'.7 7 ).~ !.~.{.].^.~ /.(.~ _.:.<.[.}.|.1.2.",
"  3.~ R 4.5.~ 6.7.8.7 7 9.0.a.b.c.: d.e.f.g.h.i.",
"  . j.~ ~ ~ ~.(.k.l.m.7 n.~ o.p.m.: 7.q.r.s.t.u.",
"    v.w.7 x.y.y.z.7.~ A.B.~ U b.C.B.(.7 : D.E.F.",
"    G.H.7 7 I.6.J.y.K.L.b ~ M.~ (.z.#.7 : N.O.+ ",
"    P.~ Q.7 R.S.T.(.U.7 7 V.W.y.X.Y.J.Z.X.`.7 t ",
"     +S..+++k.Y.@+X.#+7 7 $+C.%+&+*+@+=+=+..-+. ",
"    ;+>+,+W.'+)+=+@+!+~+G {+]+E z.=+0.^+/+(+R.`.",
"      _+:+7 7 <+@+0.Q y..+k.k.[+6.Q =+}+^+B |+  ",
"      1+a.7 7 2+=+3+Q 4+7 5+j.6+Y.7+: 3+v.^.    ",
"      D &+p.8+9+/+,+*+4+7 7 0+a+< b+: c+d+      ",
"        R.R.e+@+0.b./+f+4.7 9+3.W.g+Q h+        ",
"            9+i+d+j+k+*+X.P T.s 8.]+l+          ",
"                  `.m+n+o+b.0.*+p+q+r+          ",
"                          C p+s+t+u+            ",
"                              J.s+              "};
