/* XPM */
static char * ulf_knopfleiste_24_neu_XPM[] = {
"24 24 202 2",
"  	c None",
". 	c #A7ABB1",
"+ 	c #90979E",
"@ 	c #BABABA",
"# 	c #FBFDFF",
"$ 	c #F8FCFF",
"% 	c #F6FBFF",
"& 	c #F3F9FF",
"* 	c #F1F8FF",
"= 	c #EEF7FF",
"- 	c #ECF6FF",
"; 	c #E9F4FF",
"> 	c #E7F3FF",
", 	c #E4F2FF",
"' 	c #E2F1FF",
") 	c #A6ACB3",
"! 	c #C1C2C2",
"~ 	c #DFEFFF",
"{ 	c #C8D6E3",
"] 	c #AFBFCF",
"^ 	c #BFC1C2",
"/ 	c #DDEEFF",
"( 	c #BED1E3",
"_ 	c #CBE5FF",
": 	c #9DB6CF",
"< 	c #BEC0C2",
"[ 	c #E1ECED",
"} 	c #C2D1BD",
"| 	c #DBE9EC",
"1 	c #E3F1FE",
"2 	c #DEEDFC",
"3 	c #CEDEEF",
"4 	c #DCEDFE",
"5 	c #D9ECFE",
"6 	c #7D91A9",
"7 	c #899CB0",
"8 	c #839AB0",
"9 	c #607182",
"0 	c #C7C7C8",
"a 	c #EBF5FF",
"b 	c #CBE5C7",
"c 	c #B2DB99",
"d 	c #C2E1BE",
"e 	c #DFEEFC",
"f 	c #8F9BCD",
"g 	c #495699",
"h 	c #D2E5FA",
"i 	c #D7EBFE",
"j 	c #D4E9FE",
"k 	c #D1E8FE",
"l 	c #D0E8FF",
"m 	c #CDE6FF",
"n 	c #E8F4FD",
"o 	c #C4F2B9",
"p 	c #D1F0D9",
"q 	c #C1EFBD",
"r 	c #D7E9F1",
"s 	c #9D9C9D",
"t 	c #979494",
"u 	c #C4D0D9",
"v 	c #CFE7FE",
"w 	c #C8E4FF",
"x 	c #E6F3FD",
"y 	c #C2F1BA",
"z 	c #C4E7C5",
"A 	c #BDECBB",
"B 	c #CBE0EF",
"C 	c #B8C4CF",
"D 	c #A7B0B8",
"E 	c #BCD1EB",
"F 	c #D0E7FD",
"G 	c #CCE5FE",
"H 	c #C6E3FF",
"I 	c #D9F0EE",
"J 	c #B9E0AF",
"K 	c #CDE8E3",
"L 	c #6575B6",
"M 	c #6B7E98",
"N 	c #9AAEC6",
"O 	c #253285",
"P 	c #4F5DBB",
"Q 	c #BDD5F6",
"R 	c #CAE4FE",
"S 	c #C3E1FF",
"T 	c #E2F0FF",
"U 	c #DEEEFE",
"V 	c #D8EAF8",
"W 	c #7A84AD",
"X 	c #050973",
"Y 	c #435786",
"Z 	c #798DA8",
"` 	c #070A73",
" .	c #000081",
"..	c #333FAE",
"+.	c #BCD6F9",
"@.	c #C1E0FF",
"#.	c #D6E8F9",
"$.	c #4E5381",
"%.	c #00006A",
"&.	c #263B75",
"*.	c #202C90",
"=.	c #00006C",
"-.	c #000076",
";.	c #00018E",
">.	c #7A89DF",
",.	c #BEDFFF",
"'.	c #DCEEFF",
").	c #D1E5F9",
"!.	c #363F76",
"~.	c #030577",
"{.	c #04116E",
"].	c #2D3382",
"^.	c #151983",
"/.	c #00008D",
"(.	c #101796",
"_.	c #B8D5FA",
":.	c #BCDEFF",
"<.	c #DAEDFF",
"[.	c #8F9FAA",
"}.	c #515FAE",
"|.	c #1B266D",
"1.	c #444D77",
"2.	c #11167B",
"3.	c #040785",
"4.	c #859EDF",
"5.	c #BFDFFE",
"6.	c #B9DCFF",
"7.	c #D7EBFF",
"8.	c #92A3AF",
"9.	c #2F3A97",
"0.	c #0D1D75",
"a.	c #00057D",
"b.	c #000177",
"c.	c #0B127B",
"d.	c #B8D7F9",
"e.	c #BDDEFE",
"f.	c #BCDDFF",
"g.	c #B7DBFF",
"h.	c #D8ECFF",
"i.	c #D5EAFF",
"j.	c #BDD5EF",
"k.	c #0F1578",
"l.	c #010970",
"m.	c #0A1C6E",
"n.	c #000372",
"o.	c #0C1484",
"p.	c #B3D4F8",
"q.	c #BBDDFE",
"r.	c #B4DAFF",
"s.	c #D2E9FF",
"t.	c #A5BEDE",
"u.	c #17226E",
"v.	c #060F82",
"w.	c #1A2A82",
"x.	c #00007E",
"y.	c #000184",
"z.	c #6781CE",
"A.	c #B8DBFE",
"B.	c #B2D9FF",
"C.	c #6C82BE",
"D.	c #061265",
"E.	c #0C1984",
"F.	c #52699F",
"G.	c #040B83",
"H.	c #000084",
"I.	c #5E77CA",
"J.	c #B6DAFE",
"K.	c #AFD7FF",
"L.	c #C7E3FE",
"M.	c #6579C4",
"N.	c #010B66",
"O.	c #0C1782",
"P.	c #2A428B",
"Q.	c #00007A",
"R.	c #5D76CB",
"S.	c #B3D9FE",
"T.	c #B2D8FF",
"U.	c #ADD6FF",
"V.	c #C5E2FE",
"W.	c #657BC3",
"X.	c #040D6B",
"Y.	c #11217D",
"Z.	c #1A337C",
"`.	c #050372",
" +	c #010384",
".+	c #708FD7",
"++	c #B1D8FE",
"@+	c #AAD5FF",
"#+	c #C2E0FE",
"$+	c #B4D2F3",
"%+	c #9DBCE8",
"&+	c #A5C2E7",
"*+	c #9FBBDE",
"=+	c #6D526C",
"-+	c #90B1E6",
";+	c #AFD6FD",
">+	c #AED6FE",
",+	c #A8D4FF",
"'+	c #A5D2FF",
")+	c #A3D1FF",
"!+	c #A0D0FF",
"~+	c #879CB1",
"      . . . . . . . . . . . . + @               ",
"      . # $ % & * = - ; > , ' . ) !             ",
"      . $ % & * = - ; > , ' ~ . { ] ^           ",
"      . % & * = - ; > , ' ~ / . ( _ : <         ",
"      . & * = [ } | 1 2 3 4 5 . 6 7 8 9 0       ",
"      . * = a b c d e f g h i j k l m _ .       ",
"      . = - n o p q r s t u j k v m _ w .       ",
"      . - ; x y z A B C D E F v G _ w H .       ",
"      . ; > , I J K L M N O P Q R w H S .       ",
"      . > , T U V W X Y Z `  ...+.H S @..       ",
"      . , ' ~ 4 #.$.%.&.*.=.-.;.>.S @.,..       ",
"      . ' ~ '.5 ).!.~.{.].^./.(._.@.,.:..       ",
"      . ~ / <.i j [.}.|.1.2.3.4.5.,.:.6..       ",
"      . / <.7.j k 8.9.0.a.b.c.d.e.f.6.g..       ",
"      . <.h.i.k v j.k.l.m.n.o.p.q.6.g.r..       ",
"      . h.i.s.v G t.u.v.w.x.y.z.A.g.r.B..       ",
"      . i.s.l G R C.D.E.F.G.H.I.J.r.B.K..       ",
"      . s.l m R L.M.N.O.P.Q. .R.S.T.K.U..       ",
"      . l m _ L.V.W.X.Y.Z.`. +.+++K.U.@+.       ",
"      . m _ w V.#+$+%+&+*+=+-+;+>+U.@+,+.       ",
"      . _ w H S @.,.:.6.g.r.B.K.U.@+,+'+.       ",
"      . w H S @.,.:.6.g.r.B.K.U.@+,+'+)+.       ",
"      . H S @.,.:.6.g.r.B.K.U.@+,+'+)+!+.       ",
"      . ~+~+~+~+~+~+~+~+~+~+~+~+~+~+~+~+.       "};
