/* XPM */
static char * ulf_regionen_16_waeland_xpm[] = {
"16 16 9 1",
" 	c None",
".	c #7C1F10",
"+	c #962112",
"@	c #FF0000",
"#	c #FAFAFA",
"$	c #FFFFFF",
"%	c #5356DF",
"&	c #FFD4CF",
"*	c #58B478",
"                ",
"        .       ",
"    ..++..+..   ",
"    @#@#@#@#@   ",
"    @#@#@#@#@   ",
"   @##@#@#@#@   ",
"   @#@##@#@@#@  ",
" . @@#@#@##@#@  ",
"..  @#@@#@#@#@  ",
"++  @@$@#@#@@  .",
" +.  %&@*@&%&@*.",
" ...%%%***%%%**+",
"  ...%++*..%+++.",
"   ....+++..... ",
"    +++...+...  ",
"                "};
